<?xml version="1.0" encoding="utf-8" standalone="no"?>
<!DOCTYPE svg PUBLIC "-//W3C//DTD SVG 1.1//EN"
  "http://www.w3.org/Graphics/SVG/1.1/DTD/svg11.dtd">
<svg xmlns:xlink="http://www.w3.org/1999/xlink" width="360pt" height="432pt" viewBox="0 0 360 432" xmlns="http://www.w3.org/2000/svg" version="1.1">
 <metadata>
  <rdf:RDF xmlns:dc="http://purl.org/dc/elements/1.1/" xmlns:cc="http://creativecommons.org/ns#" xmlns:rdf="http://www.w3.org/1999/02/22-rdf-syntax-ns#">
   <cc:Work>
    <dc:type rdf:resource="http://purl.org/dc/dcmitype/StillImage"/>
    <dc:date>2025-05-08T22:37:25.788350</dc:date>
    <dc:format>image/svg+xml</dc:format>
    <dc:creator>
     <cc:Agent>
      <dc:title>Matplotlib v3.9.3, https://matplotlib.org/</dc:title>
     </cc:Agent>
    </dc:creator>
   </cc:Work>
  </rdf:RDF>
 </metadata>
 <defs>
  <style type="text/css">*{stroke-linejoin: round; stroke-linecap: butt}</style>
 </defs>
 <g id="figure_1">
  <g id="patch_1">
   <path d="M 0 432 
L 360 432 
L 360 0 
L 0 0 
z
" style="fill: #ffffff"/>
  </g>
  <g id="axes_1">
   <g id="patch_2">
    <path d="M 58.64375 180.26713 
L 343.225572 180.26713 
L 343.225572 14.134259 
L 58.64375 14.134259 
z
" style="fill: #ffffff"/>
   </g>
   <g id="matplotlib.axis_1">
    <g id="xtick_1">
     <g id="line2d_1">
      <path d="M 71.579287 180.26713 
L 71.579287 14.134259 
" clip-path="url(#p4605b28731)" style="fill: none; stroke: #b0b0b0; stroke-width: 0.8; stroke-linecap: square"/>
     </g>
     <g id="line2d_2">
      <defs>
       <path id="m3d8ed234c8" d="M 0 0 
L 0 3.5 
" style="stroke: #000000; stroke-width: 0.8"/>
      </defs>
      <g>
       <use xlink:href="#m3d8ed234c8" x="71.579287" y="180.26713" style="stroke: #000000; stroke-width: 0.8"/>
      </g>
     </g>
     <g id="text_1">
      <!-- 0 s -->
      <g transform="translate(64.204287 194.865567) scale(0.1 -0.1)">
       <defs>
        <path id="DejaVuSans-30" d="M 2034 4250 
Q 1547 4250 1301 3770 
Q 1056 3291 1056 2328 
Q 1056 1369 1301 889 
Q 1547 409 2034 409 
Q 2525 409 2770 889 
Q 3016 1369 3016 2328 
Q 3016 3291 2770 3770 
Q 2525 4250 2034 4250 
z
M 2034 4750 
Q 2819 4750 3233 4129 
Q 3647 3509 3647 2328 
Q 3647 1150 3233 529 
Q 2819 -91 2034 -91 
Q 1250 -91 836 529 
Q 422 1150 422 2328 
Q 422 3509 836 4129 
Q 1250 4750 2034 4750 
z
" transform="scale(0.015625)"/>
        <path id="DejaVuSans-20" transform="scale(0.015625)"/>
        <path id="DejaVuSans-73" d="M 2834 3397 
L 2834 2853 
Q 2591 2978 2328 3040 
Q 2066 3103 1784 3103 
Q 1356 3103 1142 2972 
Q 928 2841 928 2578 
Q 928 2378 1081 2264 
Q 1234 2150 1697 2047 
L 1894 2003 
Q 2506 1872 2764 1633 
Q 3022 1394 3022 966 
Q 3022 478 2636 193 
Q 2250 -91 1575 -91 
Q 1294 -91 989 -36 
Q 684 19 347 128 
L 347 722 
Q 666 556 975 473 
Q 1284 391 1588 391 
Q 1994 391 2212 530 
Q 2431 669 2431 922 
Q 2431 1156 2273 1281 
Q 2116 1406 1581 1522 
L 1381 1569 
Q 847 1681 609 1914 
Q 372 2147 372 2553 
Q 372 3047 722 3315 
Q 1072 3584 1716 3584 
Q 2034 3584 2315 3537 
Q 2597 3491 2834 3397 
z
" transform="scale(0.015625)"/>
       </defs>
       <use xlink:href="#DejaVuSans-30"/>
       <use xlink:href="#DejaVuSans-20" x="63.623047"/>
       <use xlink:href="#DejaVuSans-73" x="95.410156"/>
      </g>
     </g>
    </g>
    <g id="xtick_2">
     <g id="line2d_3">
      <path d="M 123.321436 180.26713 
L 123.321436 14.134259 
" clip-path="url(#p4605b28731)" style="fill: none; stroke: #b0b0b0; stroke-width: 0.8; stroke-linecap: square"/>
     </g>
     <g id="line2d_4">
      <g>
       <use xlink:href="#m3d8ed234c8" x="123.321436" y="180.26713" style="stroke: #000000; stroke-width: 0.8"/>
      </g>
     </g>
     <g id="text_2">
      <!-- 20 ms -->
      <g transform="translate(107.894874 194.865567) scale(0.1 -0.1)">
       <defs>
        <path id="DejaVuSans-32" d="M 1228 531 
L 3431 531 
L 3431 0 
L 469 0 
L 469 531 
Q 828 903 1448 1529 
Q 2069 2156 2228 2338 
Q 2531 2678 2651 2914 
Q 2772 3150 2772 3378 
Q 2772 3750 2511 3984 
Q 2250 4219 1831 4219 
Q 1534 4219 1204 4116 
Q 875 4013 500 3803 
L 500 4441 
Q 881 4594 1212 4672 
Q 1544 4750 1819 4750 
Q 2544 4750 2975 4387 
Q 3406 4025 3406 3419 
Q 3406 3131 3298 2873 
Q 3191 2616 2906 2266 
Q 2828 2175 2409 1742 
Q 1991 1309 1228 531 
z
" transform="scale(0.015625)"/>
        <path id="DejaVuSans-6d" d="M 3328 2828 
Q 3544 3216 3844 3400 
Q 4144 3584 4550 3584 
Q 5097 3584 5394 3201 
Q 5691 2819 5691 2113 
L 5691 0 
L 5113 0 
L 5113 2094 
Q 5113 2597 4934 2840 
Q 4756 3084 4391 3084 
Q 3944 3084 3684 2787 
Q 3425 2491 3425 1978 
L 3425 0 
L 2847 0 
L 2847 2094 
Q 2847 2600 2669 2842 
Q 2491 3084 2119 3084 
Q 1678 3084 1418 2786 
Q 1159 2488 1159 1978 
L 1159 0 
L 581 0 
L 581 3500 
L 1159 3500 
L 1159 2956 
Q 1356 3278 1631 3431 
Q 1906 3584 2284 3584 
Q 2666 3584 2933 3390 
Q 3200 3197 3328 2828 
z
" transform="scale(0.015625)"/>
       </defs>
       <use xlink:href="#DejaVuSans-32"/>
       <use xlink:href="#DejaVuSans-30" x="63.623047"/>
       <use xlink:href="#DejaVuSans-20" x="127.246094"/>
       <use xlink:href="#DejaVuSans-6d" x="159.033203"/>
       <use xlink:href="#DejaVuSans-73" x="256.445312"/>
      </g>
     </g>
    </g>
    <g id="xtick_3">
     <g id="line2d_5">
      <path d="M 175.063585 180.26713 
L 175.063585 14.134259 
" clip-path="url(#p4605b28731)" style="fill: none; stroke: #b0b0b0; stroke-width: 0.8; stroke-linecap: square"/>
     </g>
     <g id="line2d_6">
      <g>
       <use xlink:href="#m3d8ed234c8" x="175.063585" y="180.26713" style="stroke: #000000; stroke-width: 0.8"/>
      </g>
     </g>
     <g id="text_3">
      <!-- 40 ms -->
      <g transform="translate(159.637022 194.865567) scale(0.1 -0.1)">
       <defs>
        <path id="DejaVuSans-34" d="M 2419 4116 
L 825 1625 
L 2419 1625 
L 2419 4116 
z
M 2253 4666 
L 3047 4666 
L 3047 1625 
L 3713 1625 
L 3713 1100 
L 3047 1100 
L 3047 0 
L 2419 0 
L 2419 1100 
L 313 1100 
L 313 1709 
L 2253 4666 
z
" transform="scale(0.015625)"/>
       </defs>
       <use xlink:href="#DejaVuSans-34"/>
       <use xlink:href="#DejaVuSans-30" x="63.623047"/>
       <use xlink:href="#DejaVuSans-20" x="127.246094"/>
       <use xlink:href="#DejaVuSans-6d" x="159.033203"/>
       <use xlink:href="#DejaVuSans-73" x="256.445312"/>
      </g>
     </g>
    </g>
    <g id="xtick_4">
     <g id="line2d_7">
      <path d="M 226.805733 180.26713 
L 226.805733 14.134259 
" clip-path="url(#p4605b28731)" style="fill: none; stroke: #b0b0b0; stroke-width: 0.8; stroke-linecap: square"/>
     </g>
     <g id="line2d_8">
      <g>
       <use xlink:href="#m3d8ed234c8" x="226.805733" y="180.26713" style="stroke: #000000; stroke-width: 0.8"/>
      </g>
     </g>
     <g id="text_4">
      <!-- 60 ms -->
      <g transform="translate(211.379171 194.865567) scale(0.1 -0.1)">
       <defs>
        <path id="DejaVuSans-36" d="M 2113 2584 
Q 1688 2584 1439 2293 
Q 1191 2003 1191 1497 
Q 1191 994 1439 701 
Q 1688 409 2113 409 
Q 2538 409 2786 701 
Q 3034 994 3034 1497 
Q 3034 2003 2786 2293 
Q 2538 2584 2113 2584 
z
M 3366 4563 
L 3366 3988 
Q 3128 4100 2886 4159 
Q 2644 4219 2406 4219 
Q 1781 4219 1451 3797 
Q 1122 3375 1075 2522 
Q 1259 2794 1537 2939 
Q 1816 3084 2150 3084 
Q 2853 3084 3261 2657 
Q 3669 2231 3669 1497 
Q 3669 778 3244 343 
Q 2819 -91 2113 -91 
Q 1303 -91 875 529 
Q 447 1150 447 2328 
Q 447 3434 972 4092 
Q 1497 4750 2381 4750 
Q 2619 4750 2861 4703 
Q 3103 4656 3366 4563 
z
" transform="scale(0.015625)"/>
       </defs>
       <use xlink:href="#DejaVuSans-36"/>
       <use xlink:href="#DejaVuSans-30" x="63.623047"/>
       <use xlink:href="#DejaVuSans-20" x="127.246094"/>
       <use xlink:href="#DejaVuSans-6d" x="159.033203"/>
       <use xlink:href="#DejaVuSans-73" x="256.445312"/>
      </g>
     </g>
    </g>
    <g id="xtick_5">
     <g id="line2d_9">
      <path d="M 278.547882 180.26713 
L 278.547882 14.134259 
" clip-path="url(#p4605b28731)" style="fill: none; stroke: #b0b0b0; stroke-width: 0.8; stroke-linecap: square"/>
     </g>
     <g id="line2d_10">
      <g>
       <use xlink:href="#m3d8ed234c8" x="278.547882" y="180.26713" style="stroke: #000000; stroke-width: 0.8"/>
      </g>
     </g>
     <g id="text_5">
      <!-- 80 ms -->
      <g transform="translate(263.12132 194.865567) scale(0.1 -0.1)">
       <defs>
        <path id="DejaVuSans-38" d="M 2034 2216 
Q 1584 2216 1326 1975 
Q 1069 1734 1069 1313 
Q 1069 891 1326 650 
Q 1584 409 2034 409 
Q 2484 409 2743 651 
Q 3003 894 3003 1313 
Q 3003 1734 2745 1975 
Q 2488 2216 2034 2216 
z
M 1403 2484 
Q 997 2584 770 2862 
Q 544 3141 544 3541 
Q 544 4100 942 4425 
Q 1341 4750 2034 4750 
Q 2731 4750 3128 4425 
Q 3525 4100 3525 3541 
Q 3525 3141 3298 2862 
Q 3072 2584 2669 2484 
Q 3125 2378 3379 2068 
Q 3634 1759 3634 1313 
Q 3634 634 3220 271 
Q 2806 -91 2034 -91 
Q 1263 -91 848 271 
Q 434 634 434 1313 
Q 434 1759 690 2068 
Q 947 2378 1403 2484 
z
M 1172 3481 
Q 1172 3119 1398 2916 
Q 1625 2713 2034 2713 
Q 2441 2713 2670 2916 
Q 2900 3119 2900 3481 
Q 2900 3844 2670 4047 
Q 2441 4250 2034 4250 
Q 1625 4250 1398 4047 
Q 1172 3844 1172 3481 
z
" transform="scale(0.015625)"/>
       </defs>
       <use xlink:href="#DejaVuSans-38"/>
       <use xlink:href="#DejaVuSans-30" x="63.623047"/>
       <use xlink:href="#DejaVuSans-20" x="127.246094"/>
       <use xlink:href="#DejaVuSans-6d" x="159.033203"/>
       <use xlink:href="#DejaVuSans-73" x="256.445312"/>
      </g>
     </g>
    </g>
    <g id="xtick_6">
     <g id="line2d_11">
      <path d="M 330.290031 180.26713 
L 330.290031 14.134259 
" clip-path="url(#p4605b28731)" style="fill: none; stroke: #b0b0b0; stroke-width: 0.8; stroke-linecap: square"/>
     </g>
     <g id="line2d_12">
      <g>
       <use xlink:href="#m3d8ed234c8" x="330.290031" y="180.26713" style="stroke: #000000; stroke-width: 0.8"/>
      </g>
     </g>
     <g id="text_6">
      <!-- 100 ms -->
      <g transform="translate(311.682218 194.865567) scale(0.1 -0.1)">
       <defs>
        <path id="DejaVuSans-31" d="M 794 531 
L 1825 531 
L 1825 4091 
L 703 3866 
L 703 4441 
L 1819 4666 
L 2450 4666 
L 2450 531 
L 3481 531 
L 3481 0 
L 794 0 
L 794 531 
z
" transform="scale(0.015625)"/>
       </defs>
       <use xlink:href="#DejaVuSans-31"/>
       <use xlink:href="#DejaVuSans-30" x="63.623047"/>
       <use xlink:href="#DejaVuSans-30" x="127.246094"/>
       <use xlink:href="#DejaVuSans-20" x="190.869141"/>
       <use xlink:href="#DejaVuSans-6d" x="222.65625"/>
       <use xlink:href="#DejaVuSans-73" x="320.068359"/>
      </g>
     </g>
    </g>
    <g id="text_7">
     <!-- Time in s -->
     <g transform="translate(178.360442 208.543692) scale(0.1 -0.1)">
      <defs>
       <path id="DejaVuSans-54" d="M -19 4666 
L 3928 4666 
L 3928 4134 
L 2272 4134 
L 2272 0 
L 1638 0 
L 1638 4134 
L -19 4134 
L -19 4666 
z
" transform="scale(0.015625)"/>
       <path id="DejaVuSans-69" d="M 603 3500 
L 1178 3500 
L 1178 0 
L 603 0 
L 603 3500 
z
M 603 4863 
L 1178 4863 
L 1178 4134 
L 603 4134 
L 603 4863 
z
" transform="scale(0.015625)"/>
       <path id="DejaVuSans-65" d="M 3597 1894 
L 3597 1613 
L 953 1613 
Q 991 1019 1311 708 
Q 1631 397 2203 397 
Q 2534 397 2845 478 
Q 3156 559 3463 722 
L 3463 178 
Q 3153 47 2828 -22 
Q 2503 -91 2169 -91 
Q 1331 -91 842 396 
Q 353 884 353 1716 
Q 353 2575 817 3079 
Q 1281 3584 2069 3584 
Q 2775 3584 3186 3129 
Q 3597 2675 3597 1894 
z
M 3022 2063 
Q 3016 2534 2758 2815 
Q 2500 3097 2075 3097 
Q 1594 3097 1305 2825 
Q 1016 2553 972 2059 
L 3022 2063 
z
" transform="scale(0.015625)"/>
       <path id="DejaVuSans-6e" d="M 3513 2113 
L 3513 0 
L 2938 0 
L 2938 2094 
Q 2938 2591 2744 2837 
Q 2550 3084 2163 3084 
Q 1697 3084 1428 2787 
Q 1159 2491 1159 1978 
L 1159 0 
L 581 0 
L 581 3500 
L 1159 3500 
L 1159 2956 
Q 1366 3272 1645 3428 
Q 1925 3584 2291 3584 
Q 2894 3584 3203 3211 
Q 3513 2838 3513 2113 
z
" transform="scale(0.015625)"/>
      </defs>
      <use xlink:href="#DejaVuSans-54"/>
      <use xlink:href="#DejaVuSans-69" x="57.958984"/>
      <use xlink:href="#DejaVuSans-6d" x="85.742188"/>
      <use xlink:href="#DejaVuSans-65" x="183.154297"/>
      <use xlink:href="#DejaVuSans-20" x="244.677734"/>
      <use xlink:href="#DejaVuSans-69" x="276.464844"/>
      <use xlink:href="#DejaVuSans-6e" x="304.248047"/>
      <use xlink:href="#DejaVuSans-20" x="367.626953"/>
      <use xlink:href="#DejaVuSans-73" x="399.414062"/>
     </g>
    </g>
   </g>
   <g id="matplotlib.axis_2">
    <g id="ytick_1">
     <g id="line2d_13">
      <path d="M 58.64375 174.173844 
L 343.225572 174.173844 
" clip-path="url(#p4605b28731)" style="fill: none; stroke: #b0b0b0; stroke-width: 0.8; stroke-linecap: square"/>
     </g>
     <g id="line2d_14">
      <defs>
       <path id="m4e222c4ec8" d="M 0 0 
L -3.5 0 
" style="stroke: #000000; stroke-width: 0.8"/>
      </defs>
      <g>
       <use xlink:href="#m4e222c4ec8" x="58.64375" y="174.173844" style="stroke: #000000; stroke-width: 0.8"/>
      </g>
     </g>
     <g id="text_8">
      <!-- -15 V -->
      <g transform="translate(25.292188 177.973062) scale(0.1 -0.1)">
       <defs>
        <path id="DejaVuSans-2d" d="M 313 2009 
L 1997 2009 
L 1997 1497 
L 313 1497 
L 313 2009 
z
" transform="scale(0.015625)"/>
        <path id="DejaVuSans-35" d="M 691 4666 
L 3169 4666 
L 3169 4134 
L 1269 4134 
L 1269 2991 
Q 1406 3038 1543 3061 
Q 1681 3084 1819 3084 
Q 2600 3084 3056 2656 
Q 3513 2228 3513 1497 
Q 3513 744 3044 326 
Q 2575 -91 1722 -91 
Q 1428 -91 1123 -41 
Q 819 9 494 109 
L 494 744 
Q 775 591 1075 516 
Q 1375 441 1709 441 
Q 2250 441 2565 725 
Q 2881 1009 2881 1497 
Q 2881 1984 2565 2268 
Q 2250 2553 1709 2553 
Q 1456 2553 1204 2497 
Q 953 2441 691 2322 
L 691 4666 
z
" transform="scale(0.015625)"/>
        <path id="DejaVuSans-56" d="M 1831 0 
L 50 4666 
L 709 4666 
L 2188 738 
L 3669 4666 
L 4325 4666 
L 2547 0 
L 1831 0 
z
" transform="scale(0.015625)"/>
       </defs>
       <use xlink:href="#DejaVuSans-2d"/>
       <use xlink:href="#DejaVuSans-31" x="36.083984"/>
       <use xlink:href="#DejaVuSans-35" x="99.707031"/>
       <use xlink:href="#DejaVuSans-20" x="163.330078"/>
       <use xlink:href="#DejaVuSans-56" x="195.117188"/>
      </g>
     </g>
    </g>
    <g id="ytick_2">
     <g id="line2d_15">
      <path d="M 58.64375 147.645386 
L 343.225572 147.645386 
" clip-path="url(#p4605b28731)" style="fill: none; stroke: #b0b0b0; stroke-width: 0.8; stroke-linecap: square"/>
     </g>
     <g id="line2d_16">
      <g>
       <use xlink:href="#m4e222c4ec8" x="58.64375" y="147.645386" style="stroke: #000000; stroke-width: 0.8"/>
      </g>
     </g>
     <g id="text_9">
      <!-- -10 V -->
      <g transform="translate(25.292188 151.444604) scale(0.1 -0.1)">
       <use xlink:href="#DejaVuSans-2d"/>
       <use xlink:href="#DejaVuSans-31" x="36.083984"/>
       <use xlink:href="#DejaVuSans-30" x="99.707031"/>
       <use xlink:href="#DejaVuSans-20" x="163.330078"/>
       <use xlink:href="#DejaVuSans-56" x="195.117188"/>
      </g>
     </g>
    </g>
    <g id="ytick_3">
     <g id="line2d_17">
      <path d="M 58.64375 121.116927 
L 343.225572 121.116927 
" clip-path="url(#p4605b28731)" style="fill: none; stroke: #b0b0b0; stroke-width: 0.8; stroke-linecap: square"/>
     </g>
     <g id="line2d_18">
      <g>
       <use xlink:href="#m4e222c4ec8" x="58.64375" y="121.116927" style="stroke: #000000; stroke-width: 0.8"/>
      </g>
     </g>
     <g id="text_10">
      <!-- -5 V -->
      <g transform="translate(31.654688 124.916146) scale(0.1 -0.1)">
       <use xlink:href="#DejaVuSans-2d"/>
       <use xlink:href="#DejaVuSans-35" x="36.083984"/>
       <use xlink:href="#DejaVuSans-20" x="99.707031"/>
       <use xlink:href="#DejaVuSans-56" x="131.494141"/>
      </g>
     </g>
    </g>
    <g id="ytick_4">
     <g id="line2d_19">
      <path d="M 58.64375 94.588469 
L 343.225572 94.588469 
" clip-path="url(#p4605b28731)" style="fill: none; stroke: #b0b0b0; stroke-width: 0.8; stroke-linecap: square"/>
     </g>
     <g id="line2d_20">
      <g>
       <use xlink:href="#m4e222c4ec8" x="58.64375" y="94.588469" style="stroke: #000000; stroke-width: 0.8"/>
      </g>
     </g>
     <g id="text_11">
      <!-- 0 V -->
      <g transform="translate(35.2625 98.387688) scale(0.1 -0.1)">
       <use xlink:href="#DejaVuSans-30"/>
       <use xlink:href="#DejaVuSans-20" x="63.623047"/>
       <use xlink:href="#DejaVuSans-56" x="95.410156"/>
      </g>
     </g>
    </g>
    <g id="ytick_5">
     <g id="line2d_21">
      <path d="M 58.64375 68.060011 
L 343.225572 68.060011 
" clip-path="url(#p4605b28731)" style="fill: none; stroke: #b0b0b0; stroke-width: 0.8; stroke-linecap: square"/>
     </g>
     <g id="line2d_22">
      <g>
       <use xlink:href="#m4e222c4ec8" x="58.64375" y="68.060011" style="stroke: #000000; stroke-width: 0.8"/>
      </g>
     </g>
     <g id="text_12">
      <!-- 5 V -->
      <g transform="translate(35.2625 71.85923) scale(0.1 -0.1)">
       <use xlink:href="#DejaVuSans-35"/>
       <use xlink:href="#DejaVuSans-20" x="63.623047"/>
       <use xlink:href="#DejaVuSans-56" x="95.410156"/>
      </g>
     </g>
    </g>
    <g id="ytick_6">
     <g id="line2d_23">
      <path d="M 58.64375 41.531553 
L 343.225572 41.531553 
" clip-path="url(#p4605b28731)" style="fill: none; stroke: #b0b0b0; stroke-width: 0.8; stroke-linecap: square"/>
     </g>
     <g id="line2d_24">
      <g>
       <use xlink:href="#m4e222c4ec8" x="58.64375" y="41.531553" style="stroke: #000000; stroke-width: 0.8"/>
      </g>
     </g>
     <g id="text_13">
      <!-- 10 V -->
      <g transform="translate(28.9 45.330772) scale(0.1 -0.1)">
       <use xlink:href="#DejaVuSans-31"/>
       <use xlink:href="#DejaVuSans-30" x="63.623047"/>
       <use xlink:href="#DejaVuSans-20" x="127.246094"/>
       <use xlink:href="#DejaVuSans-56" x="159.033203"/>
      </g>
     </g>
    </g>
    <g id="ytick_7">
     <g id="line2d_25">
      <path d="M 58.64375 15.003095 
L 343.225572 15.003095 
" clip-path="url(#p4605b28731)" style="fill: none; stroke: #b0b0b0; stroke-width: 0.8; stroke-linecap: square"/>
     </g>
     <g id="line2d_26">
      <g>
       <use xlink:href="#m4e222c4ec8" x="58.64375" y="15.003095" style="stroke: #000000; stroke-width: 0.8"/>
      </g>
     </g>
     <g id="text_14">
      <!-- 15 V -->
      <g transform="translate(28.9 18.802314) scale(0.1 -0.1)">
       <use xlink:href="#DejaVuSans-31"/>
       <use xlink:href="#DejaVuSans-35" x="63.623047"/>
       <use xlink:href="#DejaVuSans-20" x="127.246094"/>
       <use xlink:href="#DejaVuSans-56" x="159.033203"/>
      </g>
     </g>
    </g>
    <g id="text_15">
     <!-- v(uout) -->
     <g transform="translate(19.2125 115.418663) rotate(-90) scale(0.1 -0.1)">
      <defs>
       <path id="DejaVuSans-76" d="M 191 3500 
L 800 3500 
L 1894 563 
L 2988 3500 
L 3597 3500 
L 2284 0 
L 1503 0 
L 191 3500 
z
" transform="scale(0.015625)"/>
       <path id="DejaVuSans-28" d="M 1984 4856 
Q 1566 4138 1362 3434 
Q 1159 2731 1159 2009 
Q 1159 1288 1364 580 
Q 1569 -128 1984 -844 
L 1484 -844 
Q 1016 -109 783 600 
Q 550 1309 550 2009 
Q 550 2706 781 3412 
Q 1013 4119 1484 4856 
L 1984 4856 
z
" transform="scale(0.015625)"/>
       <path id="DejaVuSans-75" d="M 544 1381 
L 544 3500 
L 1119 3500 
L 1119 1403 
Q 1119 906 1312 657 
Q 1506 409 1894 409 
Q 2359 409 2629 706 
Q 2900 1003 2900 1516 
L 2900 3500 
L 3475 3500 
L 3475 0 
L 2900 0 
L 2900 538 
Q 2691 219 2414 64 
Q 2138 -91 1772 -91 
Q 1169 -91 856 284 
Q 544 659 544 1381 
z
M 1991 3584 
L 1991 3584 
z
" transform="scale(0.015625)"/>
       <path id="DejaVuSans-6f" d="M 1959 3097 
Q 1497 3097 1228 2736 
Q 959 2375 959 1747 
Q 959 1119 1226 758 
Q 1494 397 1959 397 
Q 2419 397 2687 759 
Q 2956 1122 2956 1747 
Q 2956 2369 2687 2733 
Q 2419 3097 1959 3097 
z
M 1959 3584 
Q 2709 3584 3137 3096 
Q 3566 2609 3566 1747 
Q 3566 888 3137 398 
Q 2709 -91 1959 -91 
Q 1206 -91 779 398 
Q 353 888 353 1747 
Q 353 2609 779 3096 
Q 1206 3584 1959 3584 
z
" transform="scale(0.015625)"/>
       <path id="DejaVuSans-74" d="M 1172 4494 
L 1172 3500 
L 2356 3500 
L 2356 3053 
L 1172 3053 
L 1172 1153 
Q 1172 725 1289 603 
Q 1406 481 1766 481 
L 2356 481 
L 2356 0 
L 1766 0 
Q 1100 0 847 248 
Q 594 497 594 1153 
L 594 3053 
L 172 3053 
L 172 3500 
L 594 3500 
L 594 4494 
L 1172 4494 
z
" transform="scale(0.015625)"/>
       <path id="DejaVuSans-29" d="M 513 4856 
L 1013 4856 
Q 1481 4119 1714 3412 
Q 1947 2706 1947 2009 
Q 1947 1309 1714 600 
Q 1481 -109 1013 -844 
L 513 -844 
Q 928 -128 1133 580 
Q 1338 1288 1338 2009 
Q 1338 2731 1133 3434 
Q 928 4138 513 4856 
z
" transform="scale(0.015625)"/>
      </defs>
      <use xlink:href="#DejaVuSans-76"/>
      <use xlink:href="#DejaVuSans-28" x="59.179688"/>
      <use xlink:href="#DejaVuSans-75" x="98.193359"/>
      <use xlink:href="#DejaVuSans-6f" x="161.572266"/>
      <use xlink:href="#DejaVuSans-75" x="222.753906"/>
      <use xlink:href="#DejaVuSans-74" x="286.132812"/>
      <use xlink:href="#DejaVuSans-29" x="325.341797"/>
     </g>
    </g>
   </g>
   <g id="line2d_27">
    <path d="M 71.579287 94.553162 
L 113.976618 94.664227 
L 114.341402 94.623691 
L 115.114685 94.408472 
L 115.525261 94.746336 
L 115.824069 94.844871 
L 116.0551 94.668048 
L 116.670315 94.106201 
L 116.863055 94.331176 
L 117.479821 95.263596 
L 117.505433 95.245489 
L 117.673337 94.954996 
L 118.281824 93.429587 
L 118.355037 93.503238 
L 118.516734 93.976516 
L 119.099089 96.306187 
L 119.169979 96.223405 
L 119.314078 95.654218 
L 119.61703 93.306083 
L 119.910668 91.827933 
L 119.982589 91.903458 
L 119.987504 91.916347 
L 120.115306 92.595525 
L 120.36367 95.389996 
L 120.727157 98.774081 
L 120.762344 98.788346 
L 120.807097 98.694489 
L 120.919636 97.894499 
L 121.136177 94.433008 
L 121.573142 87.971146 
L 121.594615 87.975681 
L 121.62747 88.069786 
L 121.728367 89.029107 
L 121.923179 93.434975 
L 122.41214 104.77455 
L 122.416019 104.773295 
L 122.457673 104.616098 
L 122.557794 103.1444 
L 122.751571 96.365697 
L 123.241051 78.721531 
L 123.246482 78.724951 
L 123.285549 78.954186 
L 123.385926 81.216639 
L 123.579186 91.63863 
L 124.070474 118.935078 
L 124.07565 118.930261 
L 124.111868 118.625657 
L 124.206814 115.537526 
L 124.391536 100.857857 
L 124.896798 57.264959 
L 124.920859 57.425396 
L 124.993296 59.879142 
L 125.14283 73.98379 
L 125.724154 150.481562 
L 125.815741 146.982751 
L 125.963463 126.83995 
L 126.573242 21.739889 
L 126.619552 23.130699 
L 126.753309 44.799638 
L 127.079281 146.618185 
L 127.272797 172.528677 
L 127.420263 172.715119 
L 127.436301 172.612575 
L 127.467349 170.125295 
L 127.61947 138.931035 
L 128.147497 21.784674 
L 128.25797 21.686851 
L 128.273491 21.801286 
L 128.306086 24.609041 
L 128.470111 58.183974 
L 129.003573 172.631474 
L 129.07058 172.69873 
L 129.088173 172.558956 
L 129.124392 169.436055 
L 129.285308 136.155462 
L 129.804541 21.790053 
L 129.898455 21.698135 
L 129.914753 21.823459 
L 129.94968 24.84759 
L 130.121718 59.576441 
L 130.664756 172.627234 
L 130.693987 172.653156 
L 130.714684 172.506009 
L 130.751939 169.803905 
L 130.900181 142.806414 
L 131.496766 21.738123 
L 131.520311 21.723657 
L 131.537129 21.857243 
L 131.573863 24.846806 
L 131.740475 56.361225 
L 132.289975 168.907108 
L 132.297738 168.874037 
L 132.340164 167.536973 
L 132.448048 155.682341 
L 132.688649 97.863634 
L 133.059639 23.247821 
L 133.095602 22.519144 
L 133.149154 24.113454 
L 133.266089 37.880318 
L 133.551968 105.009937 
L 133.86837 157.323419 
L 133.912867 158.247049 
L 133.967715 156.854741 
L 134.084395 145.179807 
L 134.36225 87.676649 
L 134.686415 38.648518 
L 134.726773 37.944402 
L 134.781361 39.221627 
L 134.899847 49.999724 
L 135.182878 101.41285 
L 135.506268 142.606472 
L 135.547922 143.227489 
L 135.602505 142.178404 
L 135.716596 133.610364 
L 135.977379 93.249283 
L 136.325089 52.495642 
L 136.369326 51.877049 
L 136.42443 52.826314 
L 136.539817 60.524295 
L 136.803443 96.591306 
L 137.147784 131.961074 
L 137.192287 132.512183 
L 137.24739 131.676755 
L 137.361997 124.895144 
L 137.621744 93.161812 
L 137.971005 60.654972 
L 138.014987 60.170635 
L 138.06983 60.926544 
L 138.184182 67.067046 
L 138.441341 95.685605 
L 138.793961 125.910815 
L 138.837687 126.350404 
L 138.892275 125.655821 
L 139.008434 119.845723 
L 139.266884 93.003963 
L 139.617437 65.079666 
L 139.659867 64.689067 
L 139.714195 65.334771 
L 139.827511 70.601803 
L 140.078463 95.021163 
L 140.439882 122.773964 
L 140.482052 123.145245 
L 140.53664 122.525086 
L 140.652283 117.320248 
L 140.906078 93.418523 
L 141.263098 67.146234 
L 141.304232 66.804604 
L 141.358565 67.404162 
L 141.473948 72.449676 
L 141.725675 95.566705 
L 142.080368 121.540497 
L 142.126417 121.962394 
L 142.181521 121.353445 
L 142.295357 116.430667 
L 142.554843 92.715328 
L 142.903844 67.544805 
L 142.948341 67.149558 
L 143.003185 67.752658 
L 143.116501 72.644773 
L 143.362793 95.077545 
L 143.73146 122.089468 
L 143.770521 122.397022 
L 143.824594 121.799723 
L 143.937134 116.903041 
L 144.179802 94.472956 
L 144.55416 66.254393 
L 144.592446 65.950488 
L 144.646258 66.559161 
L 144.758282 71.558926 
L 145.008454 95.529775 
L 145.376856 124.06518 
L 145.414631 124.371026 
L 145.467923 123.746151 
L 145.579426 118.582688 
L 145.817444 94.965073 
L 146.193865 63.565895 
L 146.236295 63.153885 
L 146.290883 63.838743 
L 146.403423 69.414805 
L 146.644024 94.837745 
L 147.022257 127.745118 
L 147.05848 128.06353 
L 147.111512 127.371088 
L 147.222244 121.627289 
L 147.465949 94.167059 
L 147.83875 58.916741 
L 147.879624 58.475864 
L 147.933696 59.252038 
L 148.04572 65.609099 
L 148.292528 95.839591 
L 148.666366 133.369166 
L 148.701809 133.725573 
L 148.754845 132.915488 
L 148.865313 126.20536 
L 149.098411 95.569039 
L 149.489066 52.099917 
L 149.521145 51.777197 
L 149.573146 52.639672 
L 149.683098 59.896642 
L 149.915936 93.128659 
L 150.308403 140.659326 
L 150.342554 141.055678 
L 150.395331 140.108495 
L 150.50761 131.972636 
L 150.74252 95.11623 
L 151.122565 44.434242 
L 151.159304 43.925353 
L 151.212595 45.004716 
L 151.324359 53.94919 
L 151.565476 95.001296 
L 151.943453 147.971329 
L 151.979932 148.492135 
L 152.033228 147.366818 
L 152.146284 137.800876 
L 152.385073 94.37019 
L 152.76305 37.636461 
L 152.793833 37.227535 
L 152.845578 38.39152 
L 152.956046 48.248345 
L 153.198463 94.197996 
L 153.562981 152.111417 
L 153.613435 153.194555 
L 153.668534 151.888442 
L 153.781854 141.346739 
L 154.027115 93.117902 
L 154.382583 35.604572 
L 154.42578 34.753466 
L 154.480628 36.118597 
L 154.5955 47.258907 
L 154.857058 99.358118 
L 155.194417 151.734277 
L 155.245121 152.824736 
L 155.30048 151.51869 
L 155.414572 140.990582 
L 155.665789 92.479084 
L 156.012978 38.589408 
L 156.058507 37.688948 
L 156.113875 39.001339 
L 156.234174 50.267332 
L 156.510988 102.706394 
L 156.840068 147.508788 
L 156.878619 148.091375 
L 156.932436 146.963285 
L 157.049371 137.123279 
L 157.306014 91.92715 
L 157.646987 44.601057 
L 157.695108 43.714248 
L 157.750477 44.876827 
L 157.86612 54.290612 
L 158.12949 98.149852 
L 158.463996 141.139308 
L 158.516522 142.091825 
L 158.571881 141.025658 
L 158.686493 132.431789 
L 158.942355 92.590298 
L 159.295751 50.043341 
L 159.335594 49.514009 
L 159.389671 50.490352 
L 159.508157 58.990722 
L 159.769976 97.852299 
L 160.105773 136.460245 
L 160.157518 137.292933 
L 160.212887 136.336105 
L 160.327239 128.626325 
L 160.604834 89.193499 
L 160.940381 53.851534 
L 160.977891 53.423522 
L 161.031708 54.297653 
L 161.149154 61.931628 
L 161.405286 96.76506 
L 161.748331 133.735247 
L 161.800076 134.513809 
L 161.855435 133.619176 
L 161.969527 126.413683 
L 162.220734 93.224848 
L 162.581378 55.668514 
L 162.62096 55.21729 
L 162.675037 56.064366 
L 162.788088 63.008646 
L 163.03464 94.957107 
L 163.402791 133.244637 
L 163.442884 133.704483 
L 163.497222 132.861873 
L 163.614417 125.562304 
L 163.89046 88.93776 
L 164.227559 55.504472 
L 164.263517 55.128876 
L 164.316814 55.951585 
L 164.428833 62.790475 
L 164.67047 94.192025 
L 165.046641 134.166935 
L 165.085442 134.607893 
L 165.13977 133.745777 
L 165.25231 126.689377 
L 165.495238 94.337905 
L 165.868555 53.862848 
L 165.905555 53.450137 
L 165.958851 54.314806 
L 166.070871 61.481863 
L 166.311727 94.282077 
L 166.689189 136.455322 
L 166.727219 136.90225 
L 166.781036 136.006329 
L 166.89719 128.205278 
L 167.144263 92.929756 
L 167.510593 50.982281 
L 167.546301 50.570147 
L 167.599337 51.492006 
L 167.711096 59.153625 
L 167.951702 94.259397 
L 168.329674 139.611122 
L 168.367705 140.089677 
L 168.421261 139.132425 
L 168.53276 131.238968 
L 168.771554 95.057582 
L 169.151078 47.543405 
L 169.185234 47.129743 
L 169.238011 48.111278 
L 169.349509 56.339895 
L 169.590636 94.193579 
L 169.956445 142.49314 
L 170.006378 143.379236 
L 170.061487 142.295136 
L 170.174537 133.551664 
L 170.418767 93.549016 
L 170.788721 44.510722 
L 170.822867 44.070617 
L 170.875643 45.123947 
L 170.987412 53.937284 
L 171.231632 94.690951 
L 171.604439 145.20289 
L 171.6435 145.77391 
L 171.697317 144.691096 
L 171.813731 135.239604 
L 172.062616 92.399642 
L 172.41394 43.195355 
L 172.459218 42.38986 
L 172.514066 43.563595 
L 172.633073 53.706295 
L 172.922822 105.218562 
L 173.245175 146.028155 
L 173.279851 146.482261 
L 173.332627 145.423481 
L 173.44801 136.066681 
L 173.695073 93.443945 
L 174.060372 43.092584 
L 174.09556 42.607612 
L 174.148856 43.711314 
L 174.261396 52.878262 
L 174.511312 95.497281 
L 174.875319 144.796064 
L 174.916193 145.41833 
L 174.970781 144.314806 
L 175.083841 135.313016 
L 175.352897 89.610207 
L 175.697754 44.858277 
L 175.732942 44.394264 
L 175.785978 45.450756 
L 175.898518 54.256726 
L 176.147913 95.14297 
L 176.512441 142.647063 
L 176.553835 143.257464 
L 176.608423 142.20041 
L 176.726129 133.066726 
L 176.982772 91.395123 
L 177.334616 47.309708 
L 177.371615 46.823022 
L 177.425172 47.842749 
L 177.542878 56.796523 
L 177.801333 97.700817 
L 178.152406 140.38977 
L 178.19302 140.945802 
L 178.247097 139.952872 
L 178.364292 131.336318 
L 178.618863 92.058377 
L 178.97381 49.465732 
L 179.011581 48.984055 
L 179.065137 49.955243 
L 179.178198 58.001263 
L 179.448806 98.926525 
L 179.793663 138.689015 
L 179.833245 139.195476 
L 179.887062 138.246775 
L 179.999602 130.439574 
L 180.244853 94.448497 
L 180.614036 50.821341 
L 180.652326 50.344759 
L 180.705883 51.288552 
L 180.823338 59.5485 
L 181.101965 101.033168 
L 181.436481 137.891134 
L 181.473991 138.336765 
L 181.527287 137.423276 
L 181.639046 129.865485 
L 181.881464 94.998832 
L 182.255552 51.194428 
L 182.293072 50.739821 
L 182.346619 51.672664 
L 182.459159 59.367948 
L 182.70416 94.722249 
L 183.074894 137.900551 
L 183.114736 138.405286 
L 183.168544 137.473925 
L 183.280823 129.810944 
L 183.524012 94.562478 
L 183.896558 50.693163 
L 183.933558 50.244117 
L 183.987105 51.186332 
L 184.099645 58.97962 
L 184.344385 94.793108 
L 184.71564 138.739164 
L 184.755222 139.24604 
L 184.809029 138.295431 
L 184.921058 130.500913 
L 185.183648 91.146433 
L 185.537825 49.521371 
L 185.573523 49.091006 
L 185.62708 50.058905 
L 185.744014 58.532831 
L 185.996253 96.949126 
L 186.355865 140.054683 
L 186.394927 140.566254 
L 186.448744 139.59196 
L 186.560763 131.571246 
L 186.8024 94.735996 
L 187.177269 48.076142 
L 187.212717 47.635485 
L 187.266004 48.624225 
L 187.378293 56.855236 
L 187.643986 98.557911 
L 187.99557 141.463693 
L 188.034121 141.974339 
L 188.087678 140.975985 
L 188.203832 132.269128 
L 188.452456 92.745639 
L 188.815943 46.75364 
L 188.851391 46.302191 
L 188.904427 47.31533 
L 189.021101 56.267546 
L 189.27386 97.009283 
L 189.633213 142.515763 
L 189.672535 143.059263 
L 189.726352 142.028141 
L 189.843026 133.049648 
L 190.093462 92.300351 
L 190.442974 46.268153 
L 190.489544 45.476688 
L 190.544392 46.582479 
L 190.658744 55.562719 
L 190.911763 96.909816 
L 191.270595 142.95434 
L 191.310437 143.52065 
L 191.364505 142.47408 
L 191.476784 133.904956 
L 191.720494 94.460476 
L 192.080096 46.186926 
L 192.127437 45.364045 
L 192.182545 46.479915 
L 192.297157 55.515804 
L 192.551728 97.169302 
L 192.908488 142.721605 
L 192.94833 143.288011 
L 193.002398 142.250356 
L 193.114677 133.737357 
L 193.358907 94.488227 
L 193.729381 46.383281 
L 193.7656 45.905333 
L 193.818896 46.93395 
L 193.936091 56.010022 
L 194.192214 97.462485 
L 194.546641 141.975027 
L 194.586744 142.537986 
L 194.640821 141.513796 
L 194.757756 132.617459 
L 195.010515 92.127036 
L 195.367795 47.302103 
L 195.404273 46.825511 
L 195.457821 47.840335 
L 195.570621 56.26173 
L 195.818725 95.160507 
L 196.185064 141.024934 
L 196.225678 141.589548 
L 196.279745 140.583645 
L 196.392285 132.337907 
L 196.637546 94.318062 
L 197.006468 48.260555 
L 197.043718 47.778943 
L 197.097275 48.778583 
L 197.210075 57.035988 
L 197.457919 95.14637 
L 197.824509 140.20436 
L 197.865132 140.757194 
L 197.9192 139.766719 
L 198.031739 131.660437 
L 198.27674 94.326693 
L 198.646173 48.958791 
L 198.683433 48.486368 
L 198.73698 49.471703 
L 198.84978 57.605166 
L 199.097113 95.104285 
L 199.453092 139.364462 
L 199.504837 140.252297 
L 199.559945 139.235404 
L 199.673516 131.034846 
L 199.92162 93.368294 
L 200.286148 49.263923 
L 200.323138 48.798559 
L 200.376955 49.782037 
L 200.49441 58.365568 
L 200.773557 101.51859 
L 201.107552 139.698962 
L 201.144542 140.154899 
L 201.198099 139.200607 
L 201.309858 131.316005 
L 201.551755 95.001166 
L 201.926113 49.158991 
L 201.962852 48.697366 
L 202.016399 49.671488 
L 202.128939 57.73681 
L 202.374711 94.877491 
L 202.744414 139.895604 
L 202.784256 140.428205 
L 202.838324 139.450637 
L 202.950603 131.427252 
L 203.193792 94.545726 
L 203.566078 48.725651 
L 203.602557 48.269693 
L 203.655854 49.249654 
L 203.768393 57.390062 
L 204.013905 94.856273 
L 204.384119 140.41557 
L 204.423701 140.948418 
L 204.477778 139.961267 
L 204.590058 131.84734 
L 204.833247 94.523145 
L 205.205533 48.130541 
L 205.241751 47.673242 
L 205.295298 48.674116 
L 205.407838 56.939898 
L 205.65413 95.04774 
L 206.023313 141.002706 
L 206.062895 141.541935 
L 206.116963 140.541536 
L 206.229242 132.322368 
L 206.472431 94.518878 
L 206.844717 47.551663 
L 206.880685 47.094516 
L 206.933972 48.098431 
L 207.046252 56.423146 
L 207.292033 94.848722 
L 207.661987 141.481135 
L 207.701829 142.031622 
L 207.755897 141.018801 
L 207.868176 132.71194 
L 208.111625 94.487059 
L 208.483391 47.160623 
L 208.519359 46.698027 
L 208.572646 47.70901 
L 208.684925 56.100486 
L 208.930967 94.852988 
L 209.289018 141.36418 
L 209.340503 142.287354 
L 209.395862 141.220479 
L 209.509703 132.609897 
L 209.780311 89.040384 
L 210.123366 47.00827 
L 210.158032 46.577844 
L 210.211319 47.592572 
L 210.323859 56.032989 
L 210.570672 95.003612 
L 210.939074 141.70419 
L 210.979176 142.264175 
L 211.033244 141.245976 
L 211.145524 132.903931 
L 211.389493 94.474847 
L 211.760478 47.201199 
L 211.796706 46.731857 
L 211.849993 47.741374 
L 211.962533 56.146941 
L 212.209345 94.956136 
L 212.577747 141.450042 
L 212.61785 142.009211 
L 212.672178 140.989788 
L 212.784718 132.654126 
L 213.029458 94.286377 
L 213.399152 47.544705 
L 213.43563 47.073203 
L 213.489187 48.085928 
L 213.601987 56.475209 
L 213.849571 95.171548 
L 214.216681 141.078402 
L 214.257044 141.633635 
L 214.311112 140.622991 
L 214.423652 132.355698 
L 214.668392 94.304445 
L 215.038085 47.943841 
L 215.074824 47.471954 
L 215.128121 48.468745 
L 215.240661 56.743081 
L 215.487473 94.947775 
L 215.844233 140.35182 
L 215.895978 141.265902 
L 215.951337 140.223673 
L 216.065168 131.807301 
L 216.314053 93.137632 
L 216.67728 48.275036 
L 216.714019 47.804066 
L 216.767566 48.799004 
L 216.880106 57.02388 
L 217.126918 94.988439 
L 217.49507 140.458407 
L 217.535423 141.009365 
L 217.589751 140.006755 
L 217.702551 131.809522 
L 217.947811 94.115175 
L 218.316734 48.454299 
L 218.353463 47.986673 
L 218.40728 48.988978 
L 218.520331 57.258905 
L 218.768184 95.342839 
L 219.123392 140.025588 
L 219.174877 140.918246 
L 219.230236 139.877723 
L 219.344067 131.508982 
L 219.592952 93.068892 
L 219.956439 48.452082 
L 219.992918 47.992249 
L 220.046214 48.977088 
L 220.158754 57.160388 
L 220.404786 94.872963 
L 220.774219 140.451693 
L 220.814322 140.992794 
L 220.868399 139.996408 
L 220.985334 131.364595 
L 221.237312 92.154661 
L 221.595893 48.303787 
L 221.632112 47.84543 
L 221.685919 48.84765 
L 221.798719 57.11385 
L 222.045782 95.191748 
L 222.413674 140.649034 
L 222.453516 141.18847 
L 222.507584 140.191998 
L 222.619863 132.032127 
L 222.863572 94.464637 
L 223.235078 48.069802 
L 223.271556 47.608561 
L 223.324853 48.60605 
L 223.437393 56.870168 
L 223.683685 94.969524 
L 224.052607 140.884841 
L 224.09271 141.433698 
L 224.146778 140.431337 
L 224.259057 132.226982 
L 224.502766 94.457479 
L 224.862629 48.165201 
L 224.91049 47.360576 
L 224.965599 48.426975 
L 225.080201 57.080237 
L 225.33322 96.849813 
L 225.692052 141.111848 
L 225.731634 141.6522 
L 225.785712 140.649338 
L 225.897991 132.415208 
L 226.14144 94.532248 
L 226.501563 47.983237 
L 226.549424 47.173799 
L 226.604533 48.243189 
L 226.723539 57.418433 
L 227.010705 103.735038 
L 227.335641 141.36207 
L 227.370828 141.784815 
L 227.423605 140.817979 
L 227.534593 132.774529 
L 227.774418 95.63069 
L 228.15214 47.558377 
L 228.188358 47.093807 
L 228.241655 48.096488 
L 228.358589 56.922333 
L 228.61264 97.10385 
L 228.96992 141.262709 
L 229.009502 141.80509 
L 229.06357 140.799399 
L 229.175859 132.541809 
L 229.44052 90.725477 
L 229.780983 47.887463 
L 229.827292 47.128776 
L 229.882391 48.199224 
L 229.997003 56.89025 
L 230.250282 96.849971 
L 230.608594 141.174267 
L 230.648696 141.723266 
L 230.702504 140.720009 
L 230.814783 132.479142 
L 231.058492 94.538849 
L 231.429747 47.723284 
L 231.466226 47.251747 
L 231.520033 48.267264 
L 231.633094 56.66718 
L 231.903181 99.325853 
L 232.248819 141.063359 
L 232.28763 141.57826 
L 232.341437 140.581434 
L 232.453717 132.372887 
L 232.697166 94.609301 
L 233.068932 47.881088 
L 233.10541 47.413897 
L 233.158707 48.410141 
L 233.271247 56.694455 
L 233.517799 94.926782 
L 233.87507 140.512341 
L 233.926824 141.421398 
L 233.981933 140.376801 
L 234.100149 131.450115 
L 234.336871 94.501046 
L 234.718987 47.79174 
L 234.744605 47.562703 
L 234.793757 48.40878 
L 234.897497 55.475401 
L 235.109123 86.409071 
L 235.543495 141.128738 
L 235.566009 141.299333 
L 235.613349 140.528725 
L 235.714507 133.926352 
L 235.918383 104.755269 
L 236.341884 48.271398 
L 236.383789 47.657845 
L 236.438377 48.696526 
L 236.548074 56.722426 
L 236.774194 91.013301 
L 237.153207 140.325534 
L 237.205193 141.241417 
L 237.260571 140.192423 
L 237.379058 131.253649 
L 237.661058 86.326513 
L 237.980818 48.302669 
L 238.022993 47.680503 
L 238.077831 48.726714 
L 238.187779 56.791413 
L 238.41467 91.247067 
L 238.816968 140.99926 
L 238.844397 141.254446 
L 238.89432 140.401529 
L 238.998061 133.388667 
L 239.207874 102.790459 
L 239.644058 47.75037 
L 239.662428 47.634999 
L 239.706935 48.332805 
L 239.813008 55.321387 
L 240.052833 91.063372 
L 240.431846 140.413921 
L 240.483581 141.324389 
L 240.53894 140.275719 
L 240.648637 132.277437 
L 240.873196 98.147307 
L 241.277826 47.738808 
L 241.301362 47.543987 
L 241.350533 48.387781 
L 241.462292 56.274513 
L 241.719967 96.067589 
L 242.071551 140.530314 
L 242.122766 141.42331 
L 242.178144 140.371023 
L 242.29663 131.397052 
L 242.57836 86.316511 
L 242.91676 47.638061 
L 242.940565 47.439783 
L 242.989718 48.288298 
L 243.101477 56.199037 
L 243.359421 96.131306 
L 243.710735 140.627352 
L 243.7617 141.518968 
L 243.817078 140.470844 
L 243.935564 131.490951 
L 244.216774 86.424175 
L 244.555945 47.550514 
L 244.57975 47.353957 
L 244.627881 48.17313 
L 244.738599 55.926751 
L 244.992919 95.129194 
L 245.349419 140.678219 
L 245.400903 141.584483 
L 245.456263 140.529797 
L 245.574749 131.527961 
L 245.811991 94.298129 
L 246.170823 48.113039 
L 246.218684 47.308464 
L 246.274043 48.387285 
L 246.384511 56.617714 
L 246.612963 91.706698 
L 246.988083 140.685875 
L 247.039837 141.605345 
L 247.095196 140.554146 
L 247.213432 131.585429 
L 247.494391 86.513019 
L 247.815192 47.946097 
L 247.857618 47.310634 
L 247.912456 48.365366 
L 248.022423 56.496183 
L 248.288116 98.190332 
L 248.629098 140.731025 
L 248.679022 141.582004 
L 248.734381 140.525694 
L 248.844078 132.481277 
L 249.068637 98.174784 
L 249.473267 47.546557 
L 249.496802 47.3529 
L 249.545704 48.195657 
L 249.657212 56.077633 
L 249.914366 95.884842 
L 250.266722 140.628354 
L 250.317956 141.527651 
L 250.373315 140.477696 
L 250.482761 132.479691 
L 250.744309 91.583959 
L 251.088916 48.19003 
L 251.135736 47.417211 
L 251.191095 48.488008 
L 251.301582 56.687761 
L 251.569337 98.72371 
L 251.928169 141.175992 
L 251.95714 141.462449 
L 252.007854 140.57946 
L 252.120654 132.554656 
L 252.379889 92.223796 
L 252.72785 48.260034 
L 252.77494 47.481882 
L 252.830299 48.553473 
L 252.949826 57.739502 
L 253.238804 104.090033 
L 253.552357 140.749008 
L 253.596344 141.406663 
L 253.651183 140.373538 
L 253.760359 132.449033 
L 253.983626 98.579261 
L 254.39084 47.718088 
L 254.414124 47.528392 
L 254.463026 48.365588 
L 254.574515 56.212335 
L 254.79547 89.394405 
L 255.184314 140.484476 
L 255.235528 141.374786 
L 255.290888 140.321699 
L 255.400584 132.310045 
L 255.625413 98.103868 
L 256.005448 48.346897 
L 256.053309 47.546203 
L 256.108417 48.608681 
L 256.218634 56.748603 
L 256.485368 98.46873 
L 256.824789 140.527338 
L 256.874713 141.372357 
L 256.929821 140.328125 
L 257.039267 132.359898 
L 257.300565 91.639062 
L 257.645673 48.300118 
L 257.692513 47.534469 
L 257.747351 48.588533 
L 257.866358 57.675924 
L 258.152753 103.477112 
L 258.469159 140.717631 
L 258.513647 141.395769 
L 258.568755 140.359441 
L 258.677931 132.429628 
L 258.901199 98.551073 
L 259.308412 47.688923 
L 259.331697 47.500826 
L 259.380329 48.333332 
L 259.483568 55.331376 
L 259.725456 91.638641 
L 260.101096 140.519951 
L 260.152851 141.434609 
L 260.20821 140.385651 
L 260.326696 131.417289 
L 260.563938 94.311831 
L 260.92277 48.26393 
L 260.970631 47.458004 
L 261.02599 48.528436 
L 261.136458 56.723185 
L 261.36464 91.649327 
L 261.764086 141.209499 
L 261.792035 141.475584 
L 261.842228 140.609602 
L 261.954508 132.67111 
L 262.211662 92.76099 
L 262.583948 47.654227 
L 262.609815 47.419549 
L 262.659238 48.276944 
L 262.771247 56.235026 
L 262.993744 89.85574 
L 263.404581 141.266317 
L 263.43122 141.506692 
L 263.481413 140.636829 
L 263.585674 133.51053 
L 263.796778 102.450438 
L 264.23038 47.515985 
L 264.249019 47.395823 
L 264.293777 48.103607 
L 264.4001 55.168335 
L 264.640696 91.259873 
L 265.042744 141.262886 
L 265.070153 141.520471 
L 265.121118 140.628698 
L 265.226169 133.380801 
L 265.47116 96.13109 
L 265.839822 48.205782 
L 265.887953 47.391471 
L 265.943042 48.455361 
L 266.053259 56.619346 
L 266.319993 98.470484 
L 266.659414 140.66644 
L 266.709357 141.515466 
L 266.764466 140.469615 
L 266.882682 131.524731 
L 267.119404 94.482914 
L 267.50152 47.633997 
L 267.527138 47.404941 
L 267.57629 48.255637 
L 267.688049 56.174274 
L 267.910025 89.672647 
L 268.322154 141.261206 
L 268.348291 141.495874 
L 268.398735 140.624316 
L 268.511265 132.645236 
L 268.732991 99.07323 
L 269.118731 48.219656 
L 269.166071 47.42976 
L 269.22143 48.50002 
L 269.331898 56.697559 
L 269.560351 91.680533 
L 269.93547 140.546854 
L 269.987476 141.469421 
L 270.042584 140.427415 
L 270.16082 131.497028 
L 270.441258 86.663467 
L 270.76258 48.09714 
L 270.805256 47.457164 
L 270.860114 48.50976 
L 270.978851 57.576887 
L 271.218676 95.127483 
L 271.597438 141.154493 
L 271.62666 141.444678 
L 271.678145 140.532616 
L 271.783697 133.203017 
L 271.997924 101.442991 
L 272.398661 48.212881 
L 272.44446 47.478952 
L 272.499549 48.543297 
L 272.609766 56.695755 
L 272.87675 98.519254 
L 273.236873 141.144682 
L 273.265864 141.428456 
L 273.316308 140.550735 
L 273.428838 132.567827 
L 273.650814 98.980498 
L 274.06061 47.673981 
L 274.083644 47.489735 
L 274.131235 48.287049 
L 274.233183 55.089725 
L 274.471196 90.518204 
L 274.853043 140.509021 
L 274.904798 141.424145 
L 274.960157 140.376148 
L 275.078643 131.411763 
L 275.360122 86.403286 
L 275.680403 48.114673 
L 275.722578 47.48804 
L 275.777417 48.536679 
L 275.887113 56.604733 
L 276.152035 97.988191 
L 276.493789 140.57181 
L 276.543982 141.431214 
L 276.599091 140.390645 
L 276.717326 131.468196 
L 276.997765 86.665147 
L 277.319087 48.11654 
L 277.361762 47.476179 
L 277.41662 48.527485 
L 277.535357 57.589736 
L 277.775182 95.129587 
L 278.153945 141.155353 
L 278.183167 141.445994 
L 278.234651 140.53467 
L 278.340204 133.205931 
L 278.554431 101.442316 
L 278.955168 48.193678 
L 279.000966 47.459016 
L 279.056055 48.523366 
L 279.166273 56.67905 
L 279.433006 98.478494 
L 279.772428 140.616686 
L 279.822101 141.463157 
L 279.877209 140.426408 
L 279.995175 131.535245 
L 280.231126 94.702957 
L 280.59202 48.251012 
L 280.640151 47.442212 
L 280.694989 48.500136 
L 280.804956 56.618918 
L 281.070899 98.262576 
L 281.432314 141.189725 
L 281.461304 141.477456 
L 281.511999 140.596224 
L 281.616529 133.425721 
L 281.860229 96.505135 
L 282.230954 48.245315 
L 282.279085 47.430503 
L 282.334193 48.492045 
L 282.4532 57.609938 
L 282.740096 103.607245 
L 283.074351 141.252736 
L 283.100489 141.485223 
L 283.149892 140.645138 
L 283.253131 133.68226 
L 283.492686 97.700324 
L 283.894213 47.629266 
L 283.918269 47.426511 
L 283.967691 48.284023 
L 284.079971 56.268209 
L 284.339457 96.532495 
L 284.688458 140.593896 
L 284.739423 141.485183 
L 284.794782 140.438163 
L 284.904228 132.450328 
L 285.165526 91.632489 
L 285.510633 48.196163 
L 285.557473 47.43025 
L 285.612311 48.48866 
L 285.731318 57.60037 
L 286.017963 103.544372 
L 286.352489 141.244564 
L 286.378607 141.478494 
L 286.429051 140.606 
L 286.533312 133.478295 
L 286.744436 102.433546 
L 287.15163 48.144516 
L 287.196387 47.439515 
L 287.251245 48.490978 
L 287.369982 57.558916 
L 287.609807 95.122765 
L 287.98857 141.176939 
L 288.017811 141.46803 
L 288.069296 140.556827 
L 288.183117 132.363728 
L 288.408197 98.026897 
L 288.78773 48.253977 
L 288.835591 47.450859 
L 288.89095 48.524844 
L 289.010477 57.721056 
L 289.299706 104.158528 
L 289.631128 141.230887 
L 289.656995 141.457328 
L 289.706919 140.597625 
L 289.810929 133.522861 
L 290.052817 97.036611 
L 290.450199 47.671127 
L 290.474776 47.460741 
L 290.524198 48.319644 
L 290.636477 56.301829 
L 290.896214 96.586695 
L 291.266688 141.156264 
L 291.295929 141.4495 
L 291.346643 140.569705 
L 291.459424 132.55249 
L 291.68192 98.833938 
L 292.090695 47.654136 
L 292.11396 47.46655 
L 292.162611 48.301065 
L 292.27385 56.124143 
L 292.494535 89.27941 
L 292.883899 140.551054 
L 292.935114 141.446338 
L 292.990473 140.395553 
L 293.100169 132.378473 
L 293.324728 98.171372 
L 293.729359 47.662181 
L 293.752894 47.467213 
L 293.802066 48.312869 
L 293.913825 56.212838 
L 294.17175 96.102547 
L 294.545077 141.157554 
L 294.574317 141.448068 
L 294.625783 140.536466 
L 294.731355 133.207077 
L 294.978408 95.554998 
L 295.367001 47.68362 
L 295.392098 47.463307 
L 295.442021 48.338265 
L 295.546552 55.551605 
L 295.792834 92.868827 
L 296.184782 141.17454 
L 296.213502 141.453482 
L 296.263695 140.584373 
L 296.375975 132.642729 
L 296.633379 92.702248 
L 297.005415 47.689505 
L 297.031282 47.456612 
L 297.081476 48.343305 
L 297.194796 56.492163 
L 297.458156 97.565649 
L 297.801992 140.590228 
L 297.852436 141.460516 
L 297.907795 140.411163 
L 298.017492 132.394738 
L 298.279561 91.432705 
L 298.644599 47.680974 
L 298.670216 47.449432 
L 298.719638 48.302977 
L 298.831648 56.248751 
L 299.053894 89.792049 
L 299.440136 140.563274 
L 299.49162 141.466901 
L 299.546729 140.424233 
L 299.664964 131.492494 
L 299.945403 86.653905 
L 300.266725 48.083307 
L 300.309401 47.443897 
L 300.364259 48.497788 
L 300.482995 57.569912 
L 300.722821 95.136892 
L 301.101583 141.181138 
L 301.130824 141.470919 
L 301.18229 140.557318 
L 301.287861 133.221427 
L 301.535184 95.501023 
L 301.900474 48.250946 
L 301.948604 47.441352 
L 302.003443 48.498411 
L 302.11339 56.615589 
L 302.340551 91.300362 
L 302.718003 140.555557 
L 302.769739 141.471779 
L 302.825117 140.422887 
L 302.943603 131.449702 
L 303.225083 86.395848 
L 303.545364 48.068962 
L 303.587538 47.442075 
L 303.642377 48.492334 
L 303.752324 56.597153 
L 303.979215 91.221865 
L 304.381513 141.213041 
L 304.408942 141.469674 
L 304.458866 140.613331 
L 304.562606 133.569409 
L 304.77242 102.835266 
L 305.208623 47.560523 
L 305.226723 47.44539 
L 305.272251 48.172584 
L 305.371597 54.590816 
L 305.573662 83.303236 
L 306.003639 140.792265 
L 306.048127 141.465646 
L 306.102985 140.430365 
L 306.220951 131.541962 
L 306.500348 86.920778 
L 306.841851 47.65198 
L 306.865907 47.449979 
L 306.914289 48.272987 
L 307.017008 55.20693 
L 307.257604 91.250043 
L 307.635325 140.544334 
L 307.687061 141.461143 
L 307.74242 140.413339 
L 307.851866 132.42724 
L 308.113415 91.581542 
L 308.479243 47.686636 
L 308.505111 47.454341 
L 308.555034 48.33318 
L 308.659565 55.554917 
L 308.905848 92.886265 
L 309.297795 141.180602 
L 309.326245 141.457495 
L 309.377479 140.557652 
L 309.4908 132.443849 
L 309.751828 91.707683 
L 310.118428 47.688219 
L 310.144045 47.45725 
L 310.194238 48.338589 
L 310.307289 56.448954 
L 310.569878 97.351604 
L 310.914735 140.580164 
L 310.965449 141.455628 
L 311.020558 140.412165 
L 311.138774 131.480636 
L 311.375245 94.533134 
L 311.735368 48.260712 
L 311.783229 47.458105 
L 311.838588 48.532353 
L 311.949056 56.733376 
L 312.177509 91.707599 
L 312.552628 140.537741 
L 312.604633 141.455815 
L 312.659742 140.40962 
L 312.777978 131.472715 
L 313.058667 86.593004 
L 313.398358 47.658346 
L 313.422414 47.456962 
L 313.470795 48.281012 
L 313.573765 55.241881 
L 313.783578 85.824296 
L 314.222364 141.30332 
L 314.243567 141.457718 
L 314.291428 140.673094 
L 314.392836 133.999739 
L 314.597484 104.535009 
L 315.046351 47.534176 
L 315.061618 47.454442 
L 315.104563 48.107093 
L 315.208554 54.815534 
L 315.413202 84.153056 
L 315.836973 140.745177 
L 315.882752 141.460516 
L 315.93786 140.418373 
L 316.047306 132.442531 
L 316.308335 91.7002 
L 316.674934 47.681763 
L 316.700551 47.451431 
L 316.750745 48.334197 
L 316.863795 56.448326 
L 317.126385 97.359449 
L 317.471242 140.589008 
L 317.521956 141.463294 
L 317.577064 140.418216 
L 317.69528 131.482364 
L 317.932002 94.479062 
L 318.314119 47.677852 
L 318.339736 47.448901 
L 318.388888 48.298509 
L 318.492629 55.387078 
L 318.704254 86.411895 
L 319.138626 141.294976 
L 319.16089 141.465272 
L 319.20823 140.698328 
L 319.316886 133.341648 
L 319.561877 96.141499 
L 319.953824 47.66588 
L 319.97892 47.447495 
L 320.027572 48.2821 
L 320.13881 56.10802 
L 320.395193 95.672126 
L 320.748589 140.561088 
L 320.800074 141.465985 
L 320.855183 140.424713 
L 320.973418 131.495907 
L 321.253857 86.66168 
L 321.575178 48.087931 
L 321.617854 47.447429 
L 321.672712 48.499772 
L 321.791449 57.568303 
L 322.031274 95.129238 
L 322.410037 141.174894 
L 322.439258 141.465414 
L 322.490743 140.553301 
L 322.596296 133.220901 
L 322.810523 101.445154 
L 323.21126 48.182896 
L 323.257058 47.448552 
L 323.312167 48.513747 
L 323.431424 57.66462 
L 323.719361 103.848042 
L 324.052325 141.233392 
L 324.078462 141.463916 
L 324.127615 140.629457 
L 324.238853 132.865987 
L 324.457475 100.046195 
L 324.849153 48.224195 
L 324.896243 47.450363 
L 324.951081 48.508531 
L 325.061048 56.626417 
L 325.326991 98.261122 
L 325.688406 141.174621 
L 325.717396 141.462069 
L 325.768091 140.580791 
L 325.872621 133.412152 
L 326.116321 96.50489 
L 326.5106 47.665232 
L 326.535176 47.452226 
L 326.584849 48.315106 
L 326.697129 56.306651 
L 326.956866 96.607821 
L 327.32734 141.169344 
L 327.356581 141.46042 
L 327.407294 140.576561 
L 327.520094 132.549538 
L 327.779311 92.208476 
L 328.148493 47.688235 
L 328.174361 47.453627 
L 328.223783 48.310127 
L 328.335793 56.261274 
L 328.558289 89.853401 
L 328.969126 141.219062 
L 328.995765 141.459423 
L 329.045958 140.590881 
L 329.150219 133.472879 
L 329.361073 102.493855 
L 329.768537 48.162433 
L 329.813565 47.454224 
L 329.868153 48.501148 
L 329.98689 57.5582 
L 330.226464 95.058107 
L 330.290035 106.326803 
L 330.290035 106.326803 
" clip-path="url(#p4605b28731)" style="fill: none; stroke: #1f77b4; stroke-width: 1.5; stroke-linecap: square"/>
   </g>
   <g id="patch_3">
    <path d="M 58.64375 180.26713 
L 58.64375 14.134259 
" style="fill: none; stroke: #000000; stroke-width: 0.8; stroke-linejoin: miter; stroke-linecap: square"/>
   </g>
   <g id="patch_4">
    <path d="M 343.225572 180.26713 
L 343.225572 14.134259 
" style="fill: none; stroke: #000000; stroke-width: 0.8; stroke-linejoin: miter; stroke-linecap: square"/>
   </g>
   <g id="patch_5">
    <path d="M 58.64375 180.26713 
L 343.225572 180.26713 
" style="fill: none; stroke: #000000; stroke-width: 0.8; stroke-linejoin: miter; stroke-linecap: square"/>
   </g>
   <g id="patch_6">
    <path d="M 58.64375 14.134259 
L 343.225572 14.134259 
" style="fill: none; stroke: #000000; stroke-width: 0.8; stroke-linejoin: miter; stroke-linecap: square"/>
   </g>
   <g id="legend_1">
    <g id="patch_7">
     <path d="M 267.789634 36.812384 
L 336.225572 36.812384 
Q 338.225572 36.812384 338.225572 34.812384 
L 338.225572 21.134259 
Q 338.225572 19.134259 336.225572 19.134259 
L 267.789634 19.134259 
Q 265.789634 19.134259 265.789634 21.134259 
L 265.789634 34.812384 
Q 265.789634 36.812384 267.789634 36.812384 
z
" style="fill: #ffffff; opacity: 0.8; stroke: #cccccc; stroke-linejoin: miter"/>
    </g>
    <g id="line2d_28">
     <path d="M 269.789634 27.232697 
L 279.789634 27.232697 
L 289.789634 27.232697 
" style="fill: none; stroke: #1f77b4; stroke-width: 1.5; stroke-linecap: square"/>
    </g>
    <g id="text_16">
     <!-- v(uout) -->
     <g transform="translate(297.789634 30.732697) scale(0.1 -0.1)">
      <use xlink:href="#DejaVuSans-76"/>
      <use xlink:href="#DejaVuSans-28" x="59.179688"/>
      <use xlink:href="#DejaVuSans-75" x="98.193359"/>
      <use xlink:href="#DejaVuSans-6f" x="161.572266"/>
      <use xlink:href="#DejaVuSans-75" x="222.753906"/>
      <use xlink:href="#DejaVuSans-74" x="286.132812"/>
      <use xlink:href="#DejaVuSans-29" x="325.341797"/>
     </g>
    </g>
   </g>
  </g>
  <g id="axes_2">
   <g id="patch_8">
    <path d="M 58.64375 389.2 
L 343.225572 389.2 
L 343.225572 223.06713 
L 58.64375 223.06713 
z
" style="fill: #ffffff"/>
   </g>
   <g id="matplotlib.axis_3">
    <g id="xtick_7">
     <g id="line2d_29">
      <path d="M 71.579287 389.2 
L 71.579287 223.06713 
" clip-path="url(#pb20c33f95f)" style="fill: none; stroke: #b0b0b0; stroke-width: 0.8; stroke-linecap: square"/>
     </g>
     <g id="line2d_30">
      <g>
       <use xlink:href="#m3d8ed234c8" x="71.579287" y="389.2" style="stroke: #000000; stroke-width: 0.8"/>
      </g>
     </g>
     <g id="text_17">
      <!-- 0 s -->
      <g transform="translate(64.204287 403.798437) scale(0.1 -0.1)">
       <use xlink:href="#DejaVuSans-30"/>
       <use xlink:href="#DejaVuSans-20" x="63.623047"/>
       <use xlink:href="#DejaVuSans-73" x="95.410156"/>
      </g>
     </g>
    </g>
    <g id="xtick_8">
     <g id="line2d_31">
      <path d="M 123.321436 389.2 
L 123.321436 223.06713 
" clip-path="url(#pb20c33f95f)" style="fill: none; stroke: #b0b0b0; stroke-width: 0.8; stroke-linecap: square"/>
     </g>
     <g id="line2d_32">
      <g>
       <use xlink:href="#m3d8ed234c8" x="123.321436" y="389.2" style="stroke: #000000; stroke-width: 0.8"/>
      </g>
     </g>
     <g id="text_18">
      <!-- 20 ms -->
      <g transform="translate(107.894874 403.798437) scale(0.1 -0.1)">
       <use xlink:href="#DejaVuSans-32"/>
       <use xlink:href="#DejaVuSans-30" x="63.623047"/>
       <use xlink:href="#DejaVuSans-20" x="127.246094"/>
       <use xlink:href="#DejaVuSans-6d" x="159.033203"/>
       <use xlink:href="#DejaVuSans-73" x="256.445312"/>
      </g>
     </g>
    </g>
    <g id="xtick_9">
     <g id="line2d_33">
      <path d="M 175.063585 389.2 
L 175.063585 223.06713 
" clip-path="url(#pb20c33f95f)" style="fill: none; stroke: #b0b0b0; stroke-width: 0.8; stroke-linecap: square"/>
     </g>
     <g id="line2d_34">
      <g>
       <use xlink:href="#m3d8ed234c8" x="175.063585" y="389.2" style="stroke: #000000; stroke-width: 0.8"/>
      </g>
     </g>
     <g id="text_19">
      <!-- 40 ms -->
      <g transform="translate(159.637022 403.798437) scale(0.1 -0.1)">
       <use xlink:href="#DejaVuSans-34"/>
       <use xlink:href="#DejaVuSans-30" x="63.623047"/>
       <use xlink:href="#DejaVuSans-20" x="127.246094"/>
       <use xlink:href="#DejaVuSans-6d" x="159.033203"/>
       <use xlink:href="#DejaVuSans-73" x="256.445312"/>
      </g>
     </g>
    </g>
    <g id="xtick_10">
     <g id="line2d_35">
      <path d="M 226.805733 389.2 
L 226.805733 223.06713 
" clip-path="url(#pb20c33f95f)" style="fill: none; stroke: #b0b0b0; stroke-width: 0.8; stroke-linecap: square"/>
     </g>
     <g id="line2d_36">
      <g>
       <use xlink:href="#m3d8ed234c8" x="226.805733" y="389.2" style="stroke: #000000; stroke-width: 0.8"/>
      </g>
     </g>
     <g id="text_20">
      <!-- 60 ms -->
      <g transform="translate(211.379171 403.798437) scale(0.1 -0.1)">
       <use xlink:href="#DejaVuSans-36"/>
       <use xlink:href="#DejaVuSans-30" x="63.623047"/>
       <use xlink:href="#DejaVuSans-20" x="127.246094"/>
       <use xlink:href="#DejaVuSans-6d" x="159.033203"/>
       <use xlink:href="#DejaVuSans-73" x="256.445312"/>
      </g>
     </g>
    </g>
    <g id="xtick_11">
     <g id="line2d_37">
      <path d="M 278.547882 389.2 
L 278.547882 223.06713 
" clip-path="url(#pb20c33f95f)" style="fill: none; stroke: #b0b0b0; stroke-width: 0.8; stroke-linecap: square"/>
     </g>
     <g id="line2d_38">
      <g>
       <use xlink:href="#m3d8ed234c8" x="278.547882" y="389.2" style="stroke: #000000; stroke-width: 0.8"/>
      </g>
     </g>
     <g id="text_21">
      <!-- 80 ms -->
      <g transform="translate(263.12132 403.798437) scale(0.1 -0.1)">
       <use xlink:href="#DejaVuSans-38"/>
       <use xlink:href="#DejaVuSans-30" x="63.623047"/>
       <use xlink:href="#DejaVuSans-20" x="127.246094"/>
       <use xlink:href="#DejaVuSans-6d" x="159.033203"/>
       <use xlink:href="#DejaVuSans-73" x="256.445312"/>
      </g>
     </g>
    </g>
    <g id="xtick_12">
     <g id="line2d_39">
      <path d="M 330.290031 389.2 
L 330.290031 223.06713 
" clip-path="url(#pb20c33f95f)" style="fill: none; stroke: #b0b0b0; stroke-width: 0.8; stroke-linecap: square"/>
     </g>
     <g id="line2d_40">
      <g>
       <use xlink:href="#m3d8ed234c8" x="330.290031" y="389.2" style="stroke: #000000; stroke-width: 0.8"/>
      </g>
     </g>
     <g id="text_22">
      <!-- 100 ms -->
      <g transform="translate(311.682218 403.798437) scale(0.1 -0.1)">
       <use xlink:href="#DejaVuSans-31"/>
       <use xlink:href="#DejaVuSans-30" x="63.623047"/>
       <use xlink:href="#DejaVuSans-30" x="127.246094"/>
       <use xlink:href="#DejaVuSans-20" x="190.869141"/>
       <use xlink:href="#DejaVuSans-6d" x="222.65625"/>
       <use xlink:href="#DejaVuSans-73" x="320.068359"/>
      </g>
     </g>
    </g>
    <g id="text_23">
     <!-- Time in s -->
     <g transform="translate(178.360442 417.476562) scale(0.1 -0.1)">
      <use xlink:href="#DejaVuSans-54"/>
      <use xlink:href="#DejaVuSans-69" x="57.958984"/>
      <use xlink:href="#DejaVuSans-6d" x="85.742188"/>
      <use xlink:href="#DejaVuSans-65" x="183.154297"/>
      <use xlink:href="#DejaVuSans-20" x="244.677734"/>
      <use xlink:href="#DejaVuSans-69" x="276.464844"/>
      <use xlink:href="#DejaVuSans-6e" x="304.248047"/>
      <use xlink:href="#DejaVuSans-20" x="367.626953"/>
      <use xlink:href="#DejaVuSans-73" x="399.414062"/>
     </g>
    </g>
   </g>
   <g id="matplotlib.axis_4">
    <g id="ytick_8">
     <g id="line2d_41">
      <path d="M 58.64375 381.648504 
L 343.225572 381.648504 
" clip-path="url(#pb20c33f95f)" style="fill: none; stroke: #b0b0b0; stroke-width: 0.8; stroke-linecap: square"/>
     </g>
     <g id="line2d_42">
      <g>
       <use xlink:href="#m4e222c4ec8" x="58.64375" y="381.648504" style="stroke: #000000; stroke-width: 0.8"/>
      </g>
     </g>
     <g id="text_24">
      <!-- 0 V -->
      <g transform="translate(35.2625 385.447723) scale(0.1 -0.1)">
       <use xlink:href="#DejaVuSans-30"/>
       <use xlink:href="#DejaVuSans-20" x="63.623047"/>
       <use xlink:href="#DejaVuSans-56" x="95.410156"/>
      </g>
     </g>
    </g>
    <g id="ytick_9">
     <g id="line2d_43">
      <path d="M 58.64375 358.43084 
L 343.225572 358.43084 
" clip-path="url(#pb20c33f95f)" style="fill: none; stroke: #b0b0b0; stroke-width: 0.8; stroke-linecap: square"/>
     </g>
     <g id="line2d_44">
      <g>
       <use xlink:href="#m4e222c4ec8" x="58.64375" y="358.43084" style="stroke: #000000; stroke-width: 0.8"/>
      </g>
     </g>
     <g id="text_25">
      <!-- 500 mV -->
      <g transform="translate(12.796875 362.230059) scale(0.1 -0.1)">
       <use xlink:href="#DejaVuSans-35"/>
       <use xlink:href="#DejaVuSans-30" x="63.623047"/>
       <use xlink:href="#DejaVuSans-30" x="127.246094"/>
       <use xlink:href="#DejaVuSans-20" x="190.869141"/>
       <use xlink:href="#DejaVuSans-6d" x="222.65625"/>
       <use xlink:href="#DejaVuSans-56" x="320.068359"/>
      </g>
     </g>
    </g>
    <g id="ytick_10">
     <g id="line2d_45">
      <path d="M 58.64375 335.213175 
L 343.225572 335.213175 
" clip-path="url(#pb20c33f95f)" style="fill: none; stroke: #b0b0b0; stroke-width: 0.8; stroke-linecap: square"/>
     </g>
     <g id="line2d_46">
      <g>
       <use xlink:href="#m4e222c4ec8" x="58.64375" y="335.213175" style="stroke: #000000; stroke-width: 0.8"/>
      </g>
     </g>
     <g id="text_26">
      <!-- 1 V -->
      <g transform="translate(35.2625 339.012394) scale(0.1 -0.1)">
       <use xlink:href="#DejaVuSans-31"/>
       <use xlink:href="#DejaVuSans-20" x="63.623047"/>
       <use xlink:href="#DejaVuSans-56" x="95.410156"/>
      </g>
     </g>
    </g>
    <g id="ytick_11">
     <g id="line2d_47">
      <path d="M 58.64375 311.995511 
L 343.225572 311.995511 
" clip-path="url(#pb20c33f95f)" style="fill: none; stroke: #b0b0b0; stroke-width: 0.8; stroke-linecap: square"/>
     </g>
     <g id="line2d_48">
      <g>
       <use xlink:href="#m4e222c4ec8" x="58.64375" y="311.995511" style="stroke: #000000; stroke-width: 0.8"/>
      </g>
     </g>
     <g id="text_27">
      <!-- 1.5 V -->
      <g transform="translate(25.721875 315.79473) scale(0.1 -0.1)">
       <defs>
        <path id="DejaVuSans-2e" d="M 684 794 
L 1344 794 
L 1344 0 
L 684 0 
L 684 794 
z
" transform="scale(0.015625)"/>
       </defs>
       <use xlink:href="#DejaVuSans-31"/>
       <use xlink:href="#DejaVuSans-2e" x="63.623047"/>
       <use xlink:href="#DejaVuSans-35" x="95.410156"/>
       <use xlink:href="#DejaVuSans-20" x="159.033203"/>
       <use xlink:href="#DejaVuSans-56" x="190.820312"/>
      </g>
     </g>
    </g>
    <g id="ytick_12">
     <g id="line2d_49">
      <path d="M 58.64375 288.777846 
L 343.225572 288.777846 
" clip-path="url(#pb20c33f95f)" style="fill: none; stroke: #b0b0b0; stroke-width: 0.8; stroke-linecap: square"/>
     </g>
     <g id="line2d_50">
      <g>
       <use xlink:href="#m4e222c4ec8" x="58.64375" y="288.777846" style="stroke: #000000; stroke-width: 0.8"/>
      </g>
     </g>
     <g id="text_28">
      <!-- 2 V -->
      <g transform="translate(35.2625 292.577065) scale(0.1 -0.1)">
       <use xlink:href="#DejaVuSans-32"/>
       <use xlink:href="#DejaVuSans-20" x="63.623047"/>
       <use xlink:href="#DejaVuSans-56" x="95.410156"/>
      </g>
     </g>
    </g>
    <g id="ytick_13">
     <g id="line2d_51">
      <path d="M 58.64375 265.560182 
L 343.225572 265.560182 
" clip-path="url(#pb20c33f95f)" style="fill: none; stroke: #b0b0b0; stroke-width: 0.8; stroke-linecap: square"/>
     </g>
     <g id="line2d_52">
      <g>
       <use xlink:href="#m4e222c4ec8" x="58.64375" y="265.560182" style="stroke: #000000; stroke-width: 0.8"/>
      </g>
     </g>
     <g id="text_29">
      <!-- 2.5 V -->
      <g transform="translate(25.721875 269.359401) scale(0.1 -0.1)">
       <use xlink:href="#DejaVuSans-32"/>
       <use xlink:href="#DejaVuSans-2e" x="63.623047"/>
       <use xlink:href="#DejaVuSans-35" x="95.410156"/>
       <use xlink:href="#DejaVuSans-20" x="159.033203"/>
       <use xlink:href="#DejaVuSans-56" x="190.820312"/>
      </g>
     </g>
    </g>
    <g id="ytick_14">
     <g id="line2d_53">
      <path d="M 58.64375 242.342517 
L 343.225572 242.342517 
" clip-path="url(#pb20c33f95f)" style="fill: none; stroke: #b0b0b0; stroke-width: 0.8; stroke-linecap: square"/>
     </g>
     <g id="line2d_54">
      <g>
       <use xlink:href="#m4e222c4ec8" x="58.64375" y="242.342517" style="stroke: #000000; stroke-width: 0.8"/>
      </g>
     </g>
     <g id="text_30">
      <!-- 3 V -->
      <g transform="translate(35.2625 246.141736) scale(0.1 -0.1)">
       <defs>
        <path id="DejaVuSans-33" d="M 2597 2516 
Q 3050 2419 3304 2112 
Q 3559 1806 3559 1356 
Q 3559 666 3084 287 
Q 2609 -91 1734 -91 
Q 1441 -91 1130 -33 
Q 819 25 488 141 
L 488 750 
Q 750 597 1062 519 
Q 1375 441 1716 441 
Q 2309 441 2620 675 
Q 2931 909 2931 1356 
Q 2931 1769 2642 2001 
Q 2353 2234 1838 2234 
L 1294 2234 
L 1294 2753 
L 1863 2753 
Q 2328 2753 2575 2939 
Q 2822 3125 2822 3475 
Q 2822 3834 2567 4026 
Q 2313 4219 1838 4219 
Q 1578 4219 1281 4162 
Q 984 4106 628 3988 
L 628 4550 
Q 988 4650 1302 4700 
Q 1616 4750 1894 4750 
Q 2613 4750 3031 4423 
Q 3450 4097 3450 3541 
Q 3450 3153 3228 2886 
Q 3006 2619 2597 2516 
z
" transform="scale(0.015625)"/>
       </defs>
       <use xlink:href="#DejaVuSans-33"/>
       <use xlink:href="#DejaVuSans-20" x="63.623047"/>
       <use xlink:href="#DejaVuSans-56" x="95.410156"/>
      </g>
     </g>
    </g>
    <g id="text_31">
     <!-- v(ust) -->
     <g transform="translate(6.717187 320.728096) rotate(-90) scale(0.1 -0.1)">
      <use xlink:href="#DejaVuSans-76"/>
      <use xlink:href="#DejaVuSans-28" x="59.179688"/>
      <use xlink:href="#DejaVuSans-75" x="98.193359"/>
      <use xlink:href="#DejaVuSans-73" x="161.572266"/>
      <use xlink:href="#DejaVuSans-74" x="213.671875"/>
      <use xlink:href="#DejaVuSans-29" x="252.880859"/>
     </g>
    </g>
   </g>
   <g id="line2d_55">
    <path d="M 71.579287 381.644103 
L 121.438869 381.533154 
L 121.982682 380.917274 
L 122.922057 380.870278 
L 123.02373 380.372067 
L 123.247518 377.863942 
L 123.53546 375.562293 
L 123.94474 375.653913 
L 124.519081 375.652246 
L 124.588155 375.127027 
L 124.733294 371.920747 
L 125.213976 358.5934 
L 125.275031 358.643174 
L 126.070567 359.030794 
L 126.166034 358.928316 
L 126.237955 357.492007 
L 126.391629 349.032358 
L 126.863776 321.494307 
L 126.873867 321.51341 
L 127.070486 321.818058 
L 127.709241 322.546676 
L 127.807035 322.588874 
L 127.825144 322.492611 
L 127.891635 320.827631 
L 128.096533 307.822391 
L 128.501159 288.12099 
L 128.506589 288.126559 
L 129.489175 289.843097 
L 129.514006 289.734313 
L 129.584376 288.018893 
L 129.842311 273.747275 
L 130.127154 263.130862 
L 130.145003 263.181025 
L 130.391295 263.772695 
L 131.164323 265.375528 
L 131.169498 265.369162 
L 131.207268 265.030598 
L 131.309462 261.637622 
L 131.741507 244.698148 
L 131.770483 244.781269 
L 132.836372 247.395907 
L 132.856553 247.333765 
L 132.926923 246.233635 
L 133.131301 238.356277 
L 133.34681 232.967014 
L 133.369319 233.029244 
L 133.91054 234.580497 
L 134.52627 236.05661 
L 134.539208 236.036981 
L 134.601295 235.54566 
L 134.924428 230.618635 
L 135.072151 231.001206 
L 136.283435 234.084824 
L 136.321725 234.033632 
L 136.464017 233.738787 
L 136.52352 233.857104 
L 141.58002 246.054694 
L 144.621162 252.890533 
L 146.771825 257.535169 
L 147.792441 259.602177 
L 147.873933 259.471428 
L 147.972763 259.32777 
L 148.021915 259.405301 
L 149.346775 262.146613 
L 149.3936 262.009343 
L 149.534079 260.672072 
L 149.688789 259.602288 
L 149.734062 259.687125 
L 150.938624 262.212375 
L 150.972255 262.109282 
L 151.069273 260.913321 
L 151.367565 256.294005 
L 151.430172 256.430921 
L 152.553497 258.875795 
L 152.585571 258.762305 
L 152.677679 257.391267 
L 153.020724 250.194302 
L 153.099378 250.381524 
L 154.186995 252.877491 
L 154.200449 252.854076 
L 154.259432 252.310034 
L 154.423977 248.192314 
L 154.653452 243.807593 
L 154.675695 243.856782 
L 155.055229 244.847386 
L 155.839123 246.662129 
L 155.847402 246.65304 
L 155.897846 246.32392 
L 156.041178 243.52723 
L 156.270132 239.815706 
L 156.297811 239.878512 
L 157.42372 242.709035 
L 157.510912 242.851287 
L 157.551265 242.714748 
L 157.671053 241.283461 
L 157.875951 239.095734 
L 157.918376 239.188808 
L 159.192792 242.286797 
L 159.233925 242.190922 
L 159.387079 241.087459 
L 159.476854 240.742032 
L 159.532734 240.855997 
L 160.875703 244.039465 
L 160.926407 243.945649 
L 161.084995 243.494061 
L 161.150455 243.621101 
L 162.537921 246.819759 
L 162.597164 246.724581 
L 162.713839 246.521272 
L 162.764552 246.609807 
L 164.164432 249.774964 
L 164.195215 249.73647 
L 164.370361 249.300182 
L 164.452378 249.463945 
L 165.773874 252.408378 
L 165.825359 252.28622 
L 166.037235 251.303189 
L 166.12649 251.4844 
L 167.381756 254.259191 
L 167.425482 254.140963 
L 167.56467 252.905601 
L 167.705921 252.024611 
L 167.753781 252.117741 
L 168.995593 254.869438 
L 169.037247 254.738733 
L 169.156514 253.397742 
L 169.367368 251.223245 
L 169.410564 251.311381 
L 170.617969 254.0203 
L 170.65626 253.894932 
L 170.763624 252.558214 
L 171.018976 249.162613 
L 171.067868 249.269737 
L 172.250176 251.973696 
L 172.28252 251.877676 
L 172.382377 250.658511 
L 172.659721 246.613727 
L 172.719225 246.749214 
L 173.891953 249.48353 
L 173.910583 249.449586 
L 173.98276 248.83398 
L 174.291668 244.515022 
L 174.404208 244.781181 
L 175.542269 247.463485 
L 175.559347 247.43615 
L 175.630233 246.907619 
L 175.917658 243.488813 
L 176.019597 243.726619 
L 177.1975 246.512415 
L 177.232427 246.424091 
L 177.340572 245.406152 
L 177.540815 243.6154 
L 177.588156 243.714519 
L 178.852992 246.692276 
L 178.900342 246.555271 
L 179.07678 244.982951 
L 179.166806 244.583906 
L 179.223466 244.70117 
L 180.502537 247.680455 
L 180.547034 247.568051 
L 180.707175 246.332943 
L 180.799273 245.958952 
L 180.854902 246.070714 
L 182.143273 249.038153 
L 182.173285 248.982897 
L 182.280909 248.259925 
L 182.439498 247.333987 
L 182.488911 247.42922 
L 183.77626 250.367066 
L 183.825673 250.223873 
L 184.001851 248.722329 
L 184.087491 248.373934 
L 184.144923 248.490235 
L 185.405104 251.349654 
L 185.450632 251.213192 
L 185.591632 249.842154 
L 185.737547 248.842793 
L 185.784367 248.936487 
L 187.033166 251.769612 
L 187.077403 251.629198 
L 187.207281 250.225323 
L 187.386572 248.657143 
L 187.429768 248.744582 
L 188.663821 251.556328 
L 188.702372 251.440359 
L 188.815683 250.198952 
L 189.032223 247.92714 
L 189.076981 248.020314 
L 190.29836 250.824178 
L 190.339234 250.692255 
L 190.455908 249.326454 
L 190.67349 246.932451 
L 190.716946 247.023986 
L 191.937545 249.848686 
L 191.975315 249.735429 
L 192.085792 248.500808 
L 192.310612 246.016743 
L 192.356661 246.115065 
L 193.580623 248.964574 
L 193.620976 248.841121 
L 193.738171 247.541768 
L 193.94463 245.450215 
L 193.988347 245.542448 
L 195.226274 248.431349 
L 195.268189 248.305006 
L 195.3916 246.998955 
L 195.576827 245.341198 
L 195.61693 245.422371 
L 196.872196 248.348161 
L 196.91437 248.226534 
L 197.048123 246.887137 
L 197.210075 245.636574 
L 197.255343 245.728342 
L 198.516565 248.655526 
L 198.563906 248.509123 
L 198.711112 247.06031 
L 198.846156 246.181557 
L 198.894277 246.279757 
L 200.157051 249.197288 
L 200.20336 249.060372 
L 200.357033 247.576719 
L 200.48483 246.787653 
L 200.534503 246.88861 
L 201.795204 249.787153 
L 201.83893 249.659781 
L 201.982253 248.267874 
L 202.126356 247.283337 
L 202.173436 247.378149 
L 203.430254 250.260662 
L 203.472939 250.136633 
L 203.601776 248.860651 
L 203.769425 247.548156 
L 203.814182 247.637843 
L 205.064793 250.504358 
L 205.106698 250.38055 
L 205.2314 249.096353 
L 205.413014 247.536199 
L 205.45674 247.624912 
L 206.699843 250.478473 
L 206.727002 250.42117 
L 206.818329 249.642244 
L 207.055571 247.284123 
L 207.114294 247.409845 
L 208.336965 250.222312 
L 208.37939 250.088562 
L 208.503312 248.72048 
L 208.696057 246.895994 
L 208.739003 246.984883 
L 209.975118 249.840051 
L 210.012888 249.734322 
L 210.125688 248.561644 
L 210.334731 246.505252 
L 210.379999 246.599921 
L 211.615604 249.461388 
L 211.654665 249.350046 
L 211.770569 248.142649 
L 211.971853 246.227823 
L 212.01661 246.320897 
L 213.257381 249.198063 
L 213.289204 249.122691 
L 213.391133 248.187265 
L 213.608194 246.12711 
L 213.658647 246.232927 
L 214.899418 249.109262 
L 214.923223 249.065288 
L 215.009375 248.404025 
L 215.245056 246.203544 
L 215.307662 246.338268 
L 216.540944 249.192317 
L 216.580266 249.084263 
L 216.700825 247.910899 
L 216.881917 246.406842 
L 216.926935 246.497946 
L 218.18117 249.395913 
L 218.226438 249.257149 
L 218.363294 247.85613 
L 218.520851 246.660446 
L 218.565869 246.751915 
L 219.819843 249.644204 
L 219.864601 249.509093 
L 220.006372 248.047106 
L 220.160566 246.886185 
L 220.206094 246.978562 
L 221.457997 249.861119 
L 221.501723 249.728676 
L 221.638839 248.305415 
L 221.801042 247.024938 
L 221.842956 247.108635 
L 223.095379 249.990827 
L 223.138585 249.85906 
L 223.27492 248.41813 
L 223.442048 247.049494 
L 223.486025 247.138716 
L 224.732761 250.008685 
L 224.775957 249.87519 
L 224.902992 248.52853 
L 225.082794 246.968266 
L 225.122636 247.048442 
L 226.370654 249.924667 
L 226.41412 249.788692 
L 226.541145 248.423112 
L 226.722499 246.819094 
L 226.766225 246.908272 
L 228.009328 249.776846 
L 228.053305 249.637783 
L 228.181891 248.242764 
L 228.361693 246.654778 
L 228.405419 246.744232 
L 229.648522 249.61708 
L 229.670505 249.578298 
L 229.752262 248.962327 
L 230.000627 246.52518 
L 230.070221 246.677208 
L 231.289007 249.493073 
L 231.333505 249.352061 
L 231.464665 247.941256 
L 231.638259 246.462452 
L 231.681725 246.551197 
L 232.928973 249.435869 
L 232.967774 249.328524 
L 233.084978 248.162831 
L 233.276162 246.474497 
L 233.317296 246.557187 
L 234.568947 249.451435 
L 234.59973 249.382207 
L 234.703721 248.458594 
L 234.914826 246.546503 
L 234.968913 246.660469 
L 236.208903 249.524127 
L 236.230646 249.486585 
L 236.316016 248.853709 
L 236.55376 246.648988 
L 236.612762 246.774777 
L 237.847837 249.625029 
L 237.869579 249.588107 
L 237.95416 248.965615 
L 238.192964 246.748461 
L 238.26436 246.903445 
L 239.487021 249.720981 
L 239.5424 249.514285 
L 239.733072 247.373676 
L 239.832418 246.817223 
L 239.886486 246.930657 
L 241.124933 249.786212 
L 241.145886 249.751371 
L 241.229194 249.142243 
L 241.472643 246.840218 
L 241.53473 246.973702 
L 242.763347 249.806062 
L 242.793089 249.740223 
L 242.886748 248.937805 
L 243.112078 246.817246 
L 243.161231 246.919531 
L 244.402281 249.781341 
L 244.45764 249.571843 
L 244.642626 247.432231 
L 244.751803 246.761514 
L 244.803268 246.869855 
L 246.041215 249.725653 
L 246.096574 249.515281 
L 246.279748 247.389165 
L 246.390987 246.693648 
L 246.442202 246.801414 
L 247.680149 249.659438 
L 247.730592 249.483729 
L 247.88788 247.697726 
L 248.029921 246.634928 
L 248.078823 246.737246 
L 249.319584 249.603042 
L 249.349865 249.534301 
L 249.453336 248.603692 
L 249.668084 246.600829 
L 249.723173 246.716543 
L 250.959308 249.571257 
L 251.015187 249.359921 
L 251.202236 247.218571 
L 251.307268 246.597563 
L 251.359775 246.708273 
L 252.599013 249.569563 
L 252.654892 249.358073 
L 252.85021 247.14393 
L 252.945932 246.621388 
L 253.003373 246.74349 
L 254.238197 249.594129 
L 254.26846 249.525832 
L 254.364451 248.697175 
L 254.584616 246.66152 
L 254.632727 246.760894 
L 255.877652 249.633742 
L 255.933531 249.422672 
L 256.127828 247.229365 
L 256.2238 246.704177 
L 256.278909 246.820213 
L 257.516585 249.675203 
L 257.546328 249.608267 
L 257.641548 248.790825 
L 257.863004 246.736837 
L 257.911886 246.837915 
L 259.155519 249.706279 
L 259.211129 249.49614 
L 259.368687 247.703128 
L 259.502709 246.751694 
L 259.552902 246.856581 
L 260.793933 249.719885 
L 260.823675 249.653791 
L 260.918626 248.837036 
L 261.142163 246.747022 
L 261.200876 246.872335 
L 262.433117 249.714217 
L 262.488476 249.50524 
L 262.64216 247.748819 
L 262.781078 246.726961 
L 262.826356 246.81957 
L 264.072051 249.694057 
L 264.12768 249.483319 
L 264.315751 247.321277 
L 264.420802 246.699571 
L 264.476161 246.817323 
L 265.710985 249.667198 
L 265.740997 249.599444 
L 265.843966 248.678687 
L 266.059215 246.67361 
L 266.104995 246.767204 
L 267.350439 249.642089 
L 267.406319 249.429536 
L 267.59518 247.262457 
L 267.69867 246.65645 
L 267.751697 246.768312 
L 268.989373 249.626036 
L 269.019636 249.557949 
L 269.115107 248.730665 
L 269.337334 246.65159 
L 269.385445 246.751185 
L 270.629078 249.621818 
L 270.684958 249.40973 
L 270.873568 247.256954 
L 270.976518 246.658697 
L 271.029564 246.770448 
L 272.268012 249.629424 
L 272.289485 249.592524 
L 272.374085 248.96236 
L 272.615452 246.67392 
L 272.676247 246.803861 
L 273.907466 249.644469 
L 273.95764 249.470809 
L 274.098139 247.92383 
L 274.254386 246.691755 
L 274.296561 246.777146 
L 275.546131 249.662061 
L 275.567603 249.625527 
L 275.647038 249.052479 
L 275.89384 246.706768 
L 275.95903 246.847381 
L 277.185585 249.676254 
L 277.240944 249.468041 
L 277.396439 247.699209 
L 277.532774 246.715027 
L 277.578303 246.808356 
L 278.824519 249.683949 
L 278.880398 249.472315 
L 279.072363 247.282019 
L 279.172229 246.715215 
L 279.226296 246.829291 
L 280.462932 249.683949 
L 280.484656 249.647093 
L 280.56382 249.074554 
L 280.811413 246.708417 
L 280.889286 246.879044 
L 282.102387 249.676841 
L 282.132398 249.609275 
L 282.235618 248.687832 
L 282.450347 246.697579 
L 282.495876 246.790908 
L 283.741841 249.666003 
L 283.797451 249.454679 
L 283.955008 247.651161 
L 284.089531 246.686419 
L 284.13533 246.780567 
L 285.380505 249.655386 
L 285.410517 249.588284 
L 285.512715 248.680901 
L 285.728465 246.678149 
L 285.774514 246.772596 
L 287.019959 249.647414 
L 287.070403 249.472071 
L 287.231064 247.663361 
L 287.367669 246.674728 
L 287.412928 246.767681 
L 288.659144 249.644348 
L 288.715023 249.43299 
L 288.87154 247.646489 
L 289.006603 246.6764 
L 289.057047 246.781342 
L 290.298078 249.64634 
L 290.328089 249.579316 
L 290.430539 248.670738 
L 290.645787 246.681968 
L 290.691316 246.775541 
L 291.937532 249.651787 
L 291.993411 249.440275 
L 292.182002 247.288252 
L 292.284972 246.689264 
L 292.341121 246.808167 
L 293.576466 249.659017 
L 293.597939 249.621918 
L 293.68356 248.9791 
L 293.924176 246.695951 
L 293.995321 246.850636 
L 295.2154 249.665516 
L 295.245662 249.59755 
L 295.348882 248.677458 
L 295.56311 246.700202 
L 295.618199 246.816271 
L 296.854584 249.669468 
L 296.905028 249.495176 
L 297.044737 247.953079 
L 297.202294 246.701177 
L 297.244199 246.786058 
L 298.494039 249.670077 
L 298.544232 249.495077 
L 298.703081 247.709594 
L 298.841479 246.699062 
L 298.886236 246.790786 
L 300.132972 249.66794 
L 300.188852 249.455885 
L 300.375901 247.314856 
L 300.480682 246.694922 
L 300.533459 246.805765 
L 301.771906 249.663899 
L 301.793379 249.626623 
L 301.877709 248.996581 
L 302.119867 246.690227 
L 302.192824 246.849174 
L 303.41084 249.659393 
L 303.432814 249.621054 
L 303.513289 249.030801 
L 303.759051 246.686408 
L 303.822969 246.824032 
L 305.049774 249.655817 
L 305.071748 249.618043 
L 305.151433 249.037898 
L 305.398255 246.684426 
L 305.475087 246.85306 
L 306.689209 249.653858 
L 306.711202 249.615286 
L 306.791658 249.024679 
L 307.037439 246.684581 
L 307.112729 246.849761 
L 308.328413 249.654079 
L 308.358675 249.585571 
L 308.461895 248.663896 
L 308.676123 246.686474 
L 308.730961 246.802123 
L 309.967347 249.656127 
L 309.997609 249.588361 
L 310.101099 248.665313 
L 310.315307 246.689375 
L 310.360315 246.781929 
L 311.606782 249.658851 
L 311.662661 249.447582 
L 311.819197 247.661723 
L 311.954241 246.692265 
L 312.00002 246.786225 
L 313.245986 249.661619 
L 313.296179 249.487604 
L 313.453216 247.726887 
L 313.593175 246.694335 
L 313.637933 246.785394 
L 314.88492 249.663667 
L 314.914662 249.597052 
L 315.009362 248.782655 
L 315.232629 246.695132 
L 315.281782 246.79734 
L 316.523853 249.664419 
L 316.553865 249.59734 
L 316.656044 248.691053 
L 316.871814 246.694589 
L 316.927173 246.811644 
L 318.163288 249.663667 
L 318.218917 249.453339 
L 318.406737 247.306121 
L 318.510998 246.693062 
L 318.566627 246.810869 
L 319.801972 249.662316 
L 319.823695 249.624907 
L 319.90365 249.04278 
L 320.150202 246.691135 
L 320.214621 246.829999 
L 321.441426 249.660279 
L 321.471438 249.592269 
L 321.574658 248.670992 
L 321.788866 246.689375 
L 321.834395 246.782449 
L 323.080611 249.658596 
L 323.13649 249.446696 
L 323.294819 247.636846 
L 323.42832 246.688356 
L 323.478514 246.793244 
L 324.719544 249.657699 
L 324.741017 249.620545 
L 324.825347 248.991234 
L 325.067505 246.688179 
L 325.140212 246.846728 
L 326.358478 249.657655 
L 326.388741 249.58979 
L 326.483171 248.776201 
L 326.706709 246.68881 
L 326.765942 246.815574 
L 327.997933 249.658153 
L 328.048107 249.484548 
L 328.187815 247.943027 
L 328.345373 246.689895 
L 328.392983 246.788062 
L 329.636867 249.659349 
L 329.666878 249.592037 
L 329.769058 248.685451 
L 329.984827 246.691157 
L 330.039936 246.807868 
L 330.290035 247.419654 
L 330.290035 247.419654 
" clip-path="url(#pb20c33f95f)" style="fill: none; stroke: #1f77b4; stroke-width: 1.5; stroke-linecap: square"/>
   </g>
   <g id="patch_9">
    <path d="M 58.64375 389.2 
L 58.64375 223.06713 
" style="fill: none; stroke: #000000; stroke-width: 0.8; stroke-linejoin: miter; stroke-linecap: square"/>
   </g>
   <g id="patch_10">
    <path d="M 343.225572 389.2 
L 343.225572 223.06713 
" style="fill: none; stroke: #000000; stroke-width: 0.8; stroke-linejoin: miter; stroke-linecap: square"/>
   </g>
   <g id="patch_11">
    <path d="M 58.64375 389.2 
L 343.225572 389.2 
" style="fill: none; stroke: #000000; stroke-width: 0.8; stroke-linejoin: miter; stroke-linecap: square"/>
   </g>
   <g id="patch_12">
    <path d="M 58.64375 223.06713 
L 343.225572 223.06713 
" style="fill: none; stroke: #000000; stroke-width: 0.8; stroke-linejoin: miter; stroke-linecap: square"/>
   </g>
   <g id="legend_2">
    <g id="patch_13">
     <path d="M 275.036509 245.745255 
L 336.225572 245.745255 
Q 338.225572 245.745255 338.225572 243.745255 
L 338.225572 230.06713 
Q 338.225572 228.06713 336.225572 228.06713 
L 275.036509 228.06713 
Q 273.036509 228.06713 273.036509 230.06713 
L 273.036509 243.745255 
Q 273.036509 245.745255 275.036509 245.745255 
z
" style="fill: #ffffff; opacity: 0.8; stroke: #cccccc; stroke-linejoin: miter"/>
    </g>
    <g id="line2d_56">
     <path d="M 277.036509 236.165567 
L 287.036509 236.165567 
L 297.036509 236.165567 
" style="fill: none; stroke: #1f77b4; stroke-width: 1.5; stroke-linecap: square"/>
    </g>
    <g id="text_32">
     <!-- v(ust) -->
     <g transform="translate(305.036509 239.665567) scale(0.1 -0.1)">
      <use xlink:href="#DejaVuSans-76"/>
      <use xlink:href="#DejaVuSans-28" x="59.179688"/>
      <use xlink:href="#DejaVuSans-75" x="98.193359"/>
      <use xlink:href="#DejaVuSans-73" x="161.572266"/>
      <use xlink:href="#DejaVuSans-74" x="213.671875"/>
      <use xlink:href="#DejaVuSans-29" x="252.880859"/>
     </g>
    </g>
   </g>
  </g>
 </g>
 <defs>
  <clipPath id="p4605b28731">
   <rect x="58.64375" y="14.134259" width="284.581822" height="166.13287"/>
  </clipPath>
  <clipPath id="pb20c33f95f">
   <rect x="58.64375" y="223.06713" width="284.581822" height="166.13287"/>
  </clipPath>
 </defs>
</svg>
