<?xml version="1.0" encoding="utf-8" standalone="no"?>
<!DOCTYPE svg PUBLIC "-//W3C//DTD SVG 1.1//EN"
  "http://www.w3.org/Graphics/SVG/1.1/DTD/svg11.dtd">
<svg xmlns:xlink="http://www.w3.org/1999/xlink" width="251.3766pt" height="117.845pt" viewBox="0 0 251.3766 117.845" xmlns="http://www.w3.org/2000/svg" version="1.1">
 <metadata>
  <rdf:RDF xmlns:dc="http://purl.org/dc/elements/1.1/" xmlns:cc="http://creativecommons.org/ns#" xmlns:rdf="http://www.w3.org/1999/02/22-rdf-syntax-ns#">
   <cc:Work>
    <dc:type rdf:resource="http://purl.org/dc/dcmitype/StillImage"/>
    <dc:date>2024-11-27T12:21:14.394137</dc:date>
    <dc:format>image/svg+xml</dc:format>
    <dc:creator>
     <cc:Agent>
      <dc:title>Matplotlib v3.8.0, https://matplotlib.org/</dc:title>
     </cc:Agent>
    </dc:creator>
   </cc:Work>
  </rdf:RDF>
 </metadata>
 <defs>
  <style type="text/css">*{stroke-linejoin: round; stroke-linecap: butt}</style>
 </defs>
 <g id="figure_1">
  <g id="patch_1">
   <path d="M 0 117.845 
L 251.3766 117.845 
L 251.3766 0 
L 0 0 
z
" style="fill: #ffffff"/>
  </g>
  <g id="axes_1">
   <g id="patch_2">
    <path d="M 67.9818 95.957 
C 68.955626 95.957 69.889697 95.570095 70.578296 94.881496 
C 71.266895 94.192897 71.6538 93.258826 71.6538 92.285 
C 71.6538 91.311174 71.266895 90.377103 70.578296 89.688504 
C 69.889697 88.999905 68.955626 88.613 67.9818 88.613 
C 67.007974 88.613 66.073903 88.999905 65.385304 89.688504 
C 64.696705 90.377103 64.3098 91.311174 64.3098 92.285 
C 64.3098 93.258826 64.696705 94.192897 65.385304 94.881496 
C 66.073903 95.570095 67.007974 95.957 67.9818 95.957 
L 67.9818 95.957 
z
" clip-path="url(#p4e71c173cb)" style="fill: none; stroke: #000000; stroke-width: 2; stroke-linejoin: miter"/>
   </g>
   <g id="line2d_1">
    <path d="M 185.0268 61.685 
L 186.007074 61.653565 
L 186.983321 61.559387 
L 187.951527 61.402855 
L 188.907715 61.184611 
L 189.847956 60.905553 
L 190.768385 60.566826 
L 191.665221 60.169824 
L 192.534779 59.716176 
L 193.373484 59.207748 
L 194.177891 58.646628 
L 194.944694 58.035123 
L 195.670743 57.375745 
L 196.353053 56.671204 
L 196.988822 55.924394 
L 197.575435 55.138385 
L 198.110484 54.316406 
L 198.591769 53.461836 
L 199.017313 52.578185 
L 199.385367 51.669085 
L 199.694418 50.738272 
L 199.943197 49.78957 
L 200.130681 48.826878 
L 200.2561 47.854152 
L 200.318939 46.875389 
L 200.318939 45.894611 
L 200.2561 44.915848 
L 200.130681 43.943122 
L 199.943197 42.98043 
L 199.694418 42.031728 
L 199.385367 41.100915 
L 199.017313 40.191815 
L 198.591769 39.308164 
L 198.110484 38.453594 
L 197.575435 37.631615 
L 196.988822 36.845606 
L 196.353053 36.098796 
L 195.670743 35.394255 
L 194.944694 34.734877 
L 194.177891 34.123372 
L 193.373484 33.562252 
L 192.534779 33.053824 
L 191.665221 32.600176 
L 190.768385 32.203174 
L 189.847956 31.864447 
L 188.907715 31.585389 
L 187.951527 31.367145 
L 186.983321 31.210613 
L 186.007074 31.116435 
L 185.0268 31.085 
L 185.0268 31.085 
L 165.1368 31.085 
L 165.1368 46.385 
L 165.1368 61.685 
L 185.0268 61.685 
" clip-path="url(#p4e71c173cb)" style="fill: none; stroke: #000000; stroke-width: 2; stroke-linecap: round"/>
   </g>
   <g id="line2d_2">
    <path d="M 154.4268 56.483 
L 165.1368 56.483 
" clip-path="url(#p4e71c173cb)" style="fill: none; stroke: #000000; stroke-width: 2; stroke-linecap: round"/>
   </g>
   <g id="line2d_3">
    <path d="M 154.4268 46.385 
L 165.1368 46.385 
" clip-path="url(#p4e71c173cb)" style="fill: none; stroke: #000000; stroke-width: 2; stroke-linecap: round"/>
   </g>
   <g id="line2d_4">
    <path d="M 154.4268 36.287 
L 165.1368 36.287 
" clip-path="url(#p4e71c173cb)" style="fill: none; stroke: #000000; stroke-width: 2; stroke-linecap: round"/>
   </g>
   <g id="line2d_5">
    <path d="M 200.3268 46.385 
L 211.0368 46.385 
" clip-path="url(#p4e71c173cb)" style="fill: none; stroke: #000000; stroke-width: 2; stroke-linecap: round"/>
   </g>
   <g id="line2d_6">
    <path d="M 102.4068 49.904 
L 119.455371 49.804082 
L 121.203943 49.504327 
L 122.952514 49.004735 
L 124.701086 48.305306 
L 126.449657 47.406041 
L 128.635371 46.000939 
L 130.821086 44.283592 
L 133.0068 42.254 
L 135.192514 39.912163 
L 137.378229 37.258082 
L 139.1268 34.91 
L 139.1268 34.91 
L 136.503943 31.462816 
L 134.318229 28.933633 
L 132.132514 26.716694 
L 129.9468 24.812 
L 127.761086 23.219551 
L 125.575371 21.939347 
L 123.8268 21.14 
L 122.078229 20.54049 
L 120.329657 20.140816 
L 118.581086 19.94098 
L 117.7068 19.916 
L 102.4068 19.916 
L 102.4068 19.916 
L 104.61 22.364 
L 106.00536 24.2 
L 107.1804 26.036 
L 108.13512 27.872 
L 108.86952 29.708 
L 109.3836 31.544 
L 109.67736 33.38 
L 109.7508 35.216 
L 109.60392 37.052 
L 109.23672 38.888 
L 108.6492 40.724 
L 107.84136 42.56 
L 106.8132 44.396 
L 105.56472 46.232 
L 104.09592 48.068 
L 102.4068 49.904 
L 102.4068 49.904 
" clip-path="url(#p4e71c173cb)" style="fill: none; stroke: #000000; stroke-width: 2; stroke-linecap: round"/>
   </g>
   <g id="line2d_7">
    <path d="M 91.6968 42.56 
L 107.84136 42.56 
" clip-path="url(#p4e71c173cb)" style="fill: none; stroke: #000000; stroke-width: 2; stroke-linecap: round"/>
   </g>
   <g id="line2d_8">
    <path d="M 91.6968 27.26 
L 107.84136 27.26 
" clip-path="url(#p4e71c173cb)" style="fill: none; stroke: #000000; stroke-width: 2; stroke-linecap: round"/>
   </g>
   <g id="line2d_9">
    <path d="M 139.1268 34.91 
L 149.8368 34.91 
" clip-path="url(#p4e71c173cb)" style="fill: none; stroke: #000000; stroke-width: 2; stroke-linecap: round"/>
   </g>
   <g id="line2d_10">
    <path d="M 154.4268 46.385 
L 149.8368 46.385 
L 149.8368 34.91 
" clip-path="url(#p4e71c173cb)" style="fill: none; stroke: #000000; stroke-width: 2; stroke-linecap: round"/>
   </g>
   <g id="line2d_11">
    <path d="M 102.4068 95.804 
L 119.455371 95.704082 
L 121.203943 95.404327 
L 122.952514 94.904735 
L 124.701086 94.205306 
L 126.449657 93.306041 
L 128.635371 91.900939 
L 130.821086 90.183592 
L 133.0068 88.154 
L 135.192514 85.812163 
L 137.378229 83.158082 
L 139.1268 80.81 
L 139.1268 80.81 
L 136.503943 77.362816 
L 134.318229 74.833633 
L 132.132514 72.616694 
L 129.9468 70.712 
L 127.761086 69.119551 
L 125.575371 67.839347 
L 123.8268 67.04 
L 122.078229 66.44049 
L 120.329657 66.040816 
L 118.581086 65.84098 
L 117.7068 65.816 
L 102.4068 65.816 
L 102.4068 65.816 
L 104.61 68.264 
L 106.00536 70.1 
L 107.1804 71.936 
L 108.13512 73.772 
L 108.86952 75.608 
L 109.3836 77.444 
L 109.67736 79.28 
L 109.7508 81.116 
L 109.60392 82.952 
L 109.23672 84.788 
L 108.6492 86.624 
L 107.84136 88.46 
L 106.8132 90.296 
L 105.56472 92.132 
L 104.09592 93.968 
L 102.4068 95.804 
L 102.4068 95.804 
" clip-path="url(#p4e71c173cb)" style="fill: none; stroke: #000000; stroke-width: 2; stroke-linecap: round"/>
   </g>
   <g id="line2d_12">
    <path d="M 91.6968 88.46 
L 107.84136 88.46 
" clip-path="url(#p4e71c173cb)" style="fill: none; stroke: #000000; stroke-width: 2; stroke-linecap: round"/>
   </g>
   <g id="line2d_13">
    <path d="M 91.6968 73.16 
L 107.84136 73.16 
" clip-path="url(#p4e71c173cb)" style="fill: none; stroke: #000000; stroke-width: 2; stroke-linecap: round"/>
   </g>
   <g id="line2d_14">
    <path d="M 139.1268 80.81 
L 149.8368 80.81 
" clip-path="url(#p4e71c173cb)" style="fill: none; stroke: #000000; stroke-width: 2; stroke-linecap: round"/>
   </g>
   <g id="line2d_15">
    <path d="M 27.4368 92.285 
L 44.4198 92.285 
M 71.6538 92.285 
L 88.6368 92.285 
" clip-path="url(#p4e71c173cb)" style="fill: none; stroke: #000000; stroke-width: 2; stroke-linecap: round"/>
   </g>
   <g id="line2d_16">
    <path d="M 44.4198 76.985 
L 64.3098 92.285 
L 44.4198 107.585 
L 44.4198 76.985 
" clip-path="url(#p4e71c173cb)" style="fill: none; stroke: #000000; stroke-width: 2; stroke-linecap: round"/>
   </g>
   <g id="line2d_17">
    <path d="M 91.6968 88.46 
L 88.6368 88.46 
L 88.6368 92.285 
" clip-path="url(#p4e71c173cb)" style="fill: none; stroke: #000000; stroke-width: 2; stroke-linecap: round"/>
   </g>
   <g id="line2d_18">
    <path d="M 154.4268 56.483 
L 149.8368 56.483 
L 149.8368 80.81 
" clip-path="url(#p4e71c173cb)" style="fill: none; stroke: #000000; stroke-width: 2; stroke-linecap: round"/>
   </g>
   <g id="text_1">
    <g clip-path="url(#p4e71c173cb)">
     <!-- $S2$ -->
     <g transform="translate(214.0968 49.834219) scale(0.125 -0.125)">
      <defs>
       <path id="DejaVuSans-Oblique-53" d="M 3859 4513 
L 3738 3897 
Q 3422 4066 3111 4152 
Q 2800 4238 2509 4238 
Q 1944 4238 1609 3991 
Q 1275 3744 1275 3334 
Q 1275 3109 1398 2989 
Q 1522 2869 2034 2731 
L 2413 2638 
Q 3053 2472 3303 2217 
Q 3553 1963 3553 1503 
Q 3553 797 2998 353 
Q 2444 -91 1538 -91 
Q 1166 -91 791 -17 
Q 416 56 38 206 
L 166 856 
Q 513 641 861 531 
Q 1209 422 1556 422 
Q 2147 422 2503 684 
Q 2859 947 2859 1369 
Q 2859 1650 2717 1795 
Q 2575 1941 2106 2059 
L 1728 2156 
Q 1081 2325 845 2545 
Q 609 2766 609 3163 
Q 609 3859 1145 4304 
Q 1681 4750 2541 4750 
Q 2875 4750 3203 4690 
Q 3531 4631 3859 4513 
z
" transform="scale(0.015625)"/>
       <path id="DejaVuSans-32" d="M 1228 531 
L 3431 531 
L 3431 0 
L 469 0 
L 469 531 
Q 828 903 1448 1529 
Q 2069 2156 2228 2338 
Q 2531 2678 2651 2914 
Q 2772 3150 2772 3378 
Q 2772 3750 2511 3984 
Q 2250 4219 1831 4219 
Q 1534 4219 1204 4116 
Q 875 4013 500 3803 
L 500 4441 
Q 881 4594 1212 4672 
Q 1544 4750 1819 4750 
Q 2544 4750 2975 4387 
Q 3406 4025 3406 3419 
Q 3406 3131 3298 2873 
Q 3191 2616 2906 2266 
Q 2828 2175 2409 1742 
Q 1991 1309 1228 531 
z
" transform="scale(0.015625)"/>
      </defs>
      <use xlink:href="#DejaVuSans-Oblique-53" transform="translate(0 0.78125)"/>
      <use xlink:href="#DejaVuSans-32" transform="translate(63.476562 0.78125)"/>
     </g>
    </g>
   </g>
   <g id="text_2">
    <g clip-path="url(#p4e71c173cb)">
     <!-- E -->
     <g transform="translate(143.468362 39.736219) scale(0.125 -0.125)">
      <defs>
       <path id="DejaVuSans-45" d="M 628 4666 
L 3578 4666 
L 3578 4134 
L 1259 4134 
L 1259 2753 
L 3481 2753 
L 3481 2222 
L 1259 2222 
L 1259 531 
L 3634 531 
L 3634 0 
L 628 0 
L 628 4666 
z
" transform="scale(0.015625)"/>
      </defs>
      <use xlink:href="#DejaVuSans-45"/>
     </g>
    </g>
   </g>
   <g id="text_3">
    <g clip-path="url(#p4e71c173cb)">
     <!-- B -->
     <g transform="translate(80.060628 30.709219) scale(0.125 -0.125)">
      <defs>
       <path id="DejaVuSans-42" d="M 1259 2228 
L 1259 519 
L 2272 519 
Q 2781 519 3026 730 
Q 3272 941 3272 1375 
Q 3272 1813 3026 2020 
Q 2781 2228 2272 2228 
L 1259 2228 
z
M 1259 4147 
L 1259 2741 
L 2194 2741 
Q 2656 2741 2882 2914 
Q 3109 3088 3109 3444 
Q 3109 3797 2882 3972 
Q 2656 4147 2194 4147 
L 1259 4147 
z
M 628 4666 
L 2241 4666 
Q 2963 4666 3353 4366 
Q 3744 4066 3744 3513 
Q 3744 3084 3544 2831 
Q 3344 2578 2956 2516 
Q 3422 2416 3680 2098 
Q 3938 1781 3938 1306 
Q 3938 681 3513 340 
Q 3088 0 2303 0 
L 628 0 
L 628 4666 
z
" transform="scale(0.015625)"/>
      </defs>
      <use xlink:href="#DejaVuSans-42"/>
     </g>
    </g>
   </g>
   <g id="text_4">
    <g clip-path="url(#p4e71c173cb)">
     <!-- P -->
     <g transform="translate(81.099691 46.009219) scale(0.125 -0.125)">
      <defs>
       <path id="DejaVuSans-50" d="M 1259 4147 
L 1259 2394 
L 2053 2394 
Q 2494 2394 2734 2622 
Q 2975 2850 2975 3272 
Q 2975 3691 2734 3919 
Q 2494 4147 2053 4147 
L 1259 4147 
z
M 628 4666 
L 2053 4666 
Q 2838 4666 3239 4311 
Q 3641 3956 3641 3272 
Q 3641 2581 3239 2228 
Q 2838 1875 2053 1875 
L 1259 1875 
L 1259 0 
L 628 0 
L 628 4666 
z
" transform="scale(0.015625)"/>
      </defs>
      <use xlink:href="#DejaVuSans-50"/>
     </g>
    </g>
   </g>
   <g id="text_5">
    <g clip-path="url(#p4e71c173cb)">
     <!-- B -->
     <g transform="translate(80.060628 76.609219) scale(0.125 -0.125)">
      <use xlink:href="#DejaVuSans-42"/>
     </g>
    </g>
   </g>
   <g id="text_6">
    <g clip-path="url(#p4e71c173cb)">
     <!-- D -->
     <g transform="translate(14.7518 95.734219) scale(0.125 -0.125)">
      <defs>
       <path id="DejaVuSans-44" d="M 1259 4147 
L 1259 519 
L 2022 519 
Q 2988 519 3436 956 
Q 3884 1394 3884 2338 
Q 3884 3275 3436 3711 
Q 2988 4147 2022 4147 
L 1259 4147 
z
M 628 4666 
L 1925 4666 
Q 3281 4666 3915 4102 
Q 4550 3538 4550 2338 
Q 4550 1131 3912 565 
Q 3275 0 1925 0 
L 628 0 
L 628 4666 
z
" transform="scale(0.015625)"/>
      </defs>
      <use xlink:href="#DejaVuSans-44"/>
     </g>
    </g>
   </g>
  </g>
 </g>
 <defs>
  <clipPath id="p4e71c173cb">
   <rect x="7.2" y="7.2" width="236.9766" height="103.445"/>
  </clipPath>
 </defs>
</svg>
