<?xml version="1.0" encoding="utf-8" standalone="no"?>
<!DOCTYPE svg PUBLIC "-//W3C//DTD SVG 1.1//EN"
  "http://www.w3.org/Graphics/SVG/1.1/DTD/svg11.dtd">
<svg xmlns:xlink="http://www.w3.org/1999/xlink" width="190.1766pt" height="99.638pt" viewBox="0 0 190.1766 99.638" xmlns="http://www.w3.org/2000/svg" version="1.1">
 <metadata>
  <rdf:RDF xmlns:dc="http://purl.org/dc/elements/1.1/" xmlns:cc="http://creativecommons.org/ns#" xmlns:rdf="http://www.w3.org/1999/02/22-rdf-syntax-ns#">
   <cc:Work>
    <dc:type rdf:resource="http://purl.org/dc/dcmitype/StillImage"/>
    <dc:date>2024-11-27T12:36:53.162565</dc:date>
    <dc:format>image/svg+xml</dc:format>
    <dc:creator>
     <cc:Agent>
      <dc:title>Matplotlib v3.8.0, https://matplotlib.org/</dc:title>
     </cc:Agent>
    </dc:creator>
   </cc:Work>
  </rdf:RDF>
 </metadata>
 <defs>
  <style type="text/css">*{stroke-linejoin: round; stroke-linecap: butt}</style>
 </defs>
 <g id="figure_1">
  <g id="patch_1">
   <path d="M 0 99.638 
L 190.1766 99.638 
L 190.1766 0 
L 0 0 
z
" style="fill: #ffffff"/>
  </g>
  <g id="axes_1">
   <g id="patch_2">
    <path d="M 67.9818 41.03 
C 68.955626 41.03 69.889697 40.643095 70.578296 39.954496 
C 71.266895 39.265897 71.6538 38.331826 71.6538 37.358 
C 71.6538 36.384174 71.266895 35.450103 70.578296 34.761504 
C 69.889697 34.072905 68.955626 33.686 67.9818 33.686 
C 67.007974 33.686 66.073903 34.072905 65.385304 34.761504 
C 64.696705 35.450103 64.3098 36.384174 64.3098 37.358 
C 64.3098 38.331826 64.696705 39.265897 65.385304 39.954496 
C 66.073903 40.643095 67.007974 41.03 67.9818 41.03 
L 67.9818 41.03 
z
" clip-path="url(#p81a1ec7a94)" style="fill: none; stroke: #000000; stroke-width: 2; stroke-linejoin: miter"/>
   </g>
   <g id="patch_3">
    <path d="M 67.9818 77.75 
C 68.955626 77.75 69.889697 77.363095 70.578296 76.674496 
C 71.266895 75.985897 71.6538 75.051826 71.6538 74.078 
C 71.6538 73.104174 71.266895 72.170103 70.578296 71.481504 
C 69.889697 70.792905 68.955626 70.406 67.9818 70.406 
C 67.007974 70.406 66.073903 70.792905 65.385304 71.481504 
C 64.696705 72.170103 64.3098 73.104174 64.3098 74.078 
C 64.3098 75.051826 64.696705 75.985897 65.385304 76.674496 
C 66.073903 77.363095 67.007974 77.75 67.9818 77.75 
L 67.9818 77.75 
z
" clip-path="url(#p81a1ec7a94)" style="fill: none; stroke: #000000; stroke-width: 2; stroke-linejoin: miter"/>
   </g>
   <g id="line2d_1">
    <path d="M 123.8268 52.658 
L 124.807074 52.626565 
L 125.783321 52.532387 
L 126.751527 52.375855 
L 127.707715 52.157611 
L 128.647956 51.878553 
L 129.568385 51.539826 
L 130.465221 51.142824 
L 131.334779 50.689176 
L 132.173484 50.180748 
L 132.977891 49.619628 
L 133.744694 49.008123 
L 134.470743 48.348745 
L 135.153053 47.644204 
L 135.788822 46.897394 
L 136.375435 46.111385 
L 136.910484 45.289406 
L 137.391769 44.434836 
L 137.817313 43.551185 
L 138.185367 42.642085 
L 138.494418 41.711272 
L 138.743197 40.76257 
L 138.930681 39.799878 
L 139.0561 38.827152 
L 139.118939 37.848389 
L 139.118939 36.867611 
L 139.0561 35.888848 
L 138.930681 34.916122 
L 138.743197 33.95343 
L 138.494418 33.004728 
L 138.185367 32.073915 
L 137.817313 31.164815 
L 137.391769 30.281164 
L 136.910484 29.426594 
L 136.375435 28.604615 
L 135.788822 27.818606 
L 135.153053 27.071796 
L 134.470743 26.367255 
L 133.744694 25.707877 
L 132.977891 25.096372 
L 132.173484 24.535252 
L 131.334779 24.026824 
L 130.465221 23.573176 
L 129.568385 23.176174 
L 128.647956 22.837447 
L 127.707715 22.558389 
L 126.751527 22.340145 
L 125.783321 22.183613 
L 124.807074 22.089435 
L 123.8268 22.058 
L 123.8268 22.058 
L 103.9368 22.058 
L 103.9368 37.358 
L 103.9368 52.658 
L 123.8268 52.658 
" clip-path="url(#p81a1ec7a94)" style="fill: none; stroke: #000000; stroke-width: 2; stroke-linecap: round"/>
   </g>
   <g id="line2d_2">
    <path d="M 93.2268 47.456 
L 103.9368 47.456 
" clip-path="url(#p81a1ec7a94)" style="fill: none; stroke: #000000; stroke-width: 2; stroke-linecap: round"/>
   </g>
   <g id="line2d_3">
    <path d="M 93.2268 37.358 
L 103.9368 37.358 
" clip-path="url(#p81a1ec7a94)" style="fill: none; stroke: #000000; stroke-width: 2; stroke-linecap: round"/>
   </g>
   <g id="line2d_4">
    <path d="M 93.2268 27.26 
L 103.9368 27.26 
" clip-path="url(#p81a1ec7a94)" style="fill: none; stroke: #000000; stroke-width: 2; stroke-linecap: round"/>
   </g>
   <g id="line2d_5">
    <path d="M 139.1268 37.358 
L 149.8368 37.358 
" clip-path="url(#p81a1ec7a94)" style="fill: none; stroke: #000000; stroke-width: 2; stroke-linecap: round"/>
   </g>
   <g id="line2d_6">
    <path d="M 27.4368 37.358 
L 44.4198 37.358 
M 71.6538 37.358 
L 88.6368 37.358 
" clip-path="url(#p81a1ec7a94)" style="fill: none; stroke: #000000; stroke-width: 2; stroke-linecap: round"/>
   </g>
   <g id="line2d_7">
    <path d="M 44.4198 22.058 
L 64.3098 37.358 
L 44.4198 52.658 
L 44.4198 22.058 
" clip-path="url(#p81a1ec7a94)" style="fill: none; stroke: #000000; stroke-width: 2; stroke-linecap: round"/>
   </g>
   <g id="line2d_8">
    <path d="M 93.2268 37.358 
L 88.6368 37.358 
L 88.6368 37.358 
" clip-path="url(#p81a1ec7a94)" style="fill: none; stroke: #000000; stroke-width: 2; stroke-linecap: round"/>
   </g>
   <g id="line2d_9">
    <path d="M 27.4368 74.078 
L 44.4198 74.078 
M 71.6538 74.078 
L 88.6368 74.078 
" clip-path="url(#p81a1ec7a94)" style="fill: none; stroke: #000000; stroke-width: 2; stroke-linecap: round"/>
   </g>
   <g id="line2d_10">
    <path d="M 44.4198 58.778 
L 64.3098 74.078 
L 44.4198 89.378 
L 44.4198 58.778 
" clip-path="url(#p81a1ec7a94)" style="fill: none; stroke: #000000; stroke-width: 2; stroke-linecap: round"/>
   </g>
   <g id="line2d_11">
    <path d="M 93.2268 47.456 
L 88.6368 47.456 
L 88.6368 74.078 
" clip-path="url(#p81a1ec7a94)" style="fill: none; stroke: #000000; stroke-width: 2; stroke-linecap: round"/>
   </g>
   <g id="text_1">
    <g clip-path="url(#p81a1ec7a94)">
     <!-- $S3$ -->
     <g transform="translate(152.8968 40.807219) scale(0.125 -0.125)">
      <defs>
       <path id="DejaVuSans-Oblique-53" d="M 3859 4513 
L 3738 3897 
Q 3422 4066 3111 4152 
Q 2800 4238 2509 4238 
Q 1944 4238 1609 3991 
Q 1275 3744 1275 3334 
Q 1275 3109 1398 2989 
Q 1522 2869 2034 2731 
L 2413 2638 
Q 3053 2472 3303 2217 
Q 3553 1963 3553 1503 
Q 3553 797 2998 353 
Q 2444 -91 1538 -91 
Q 1166 -91 791 -17 
Q 416 56 38 206 
L 166 856 
Q 513 641 861 531 
Q 1209 422 1556 422 
Q 2147 422 2503 684 
Q 2859 947 2859 1369 
Q 2859 1650 2717 1795 
Q 2575 1941 2106 2059 
L 1728 2156 
Q 1081 2325 845 2545 
Q 609 2766 609 3163 
Q 609 3859 1145 4304 
Q 1681 4750 2541 4750 
Q 2875 4750 3203 4690 
Q 3531 4631 3859 4513 
z
" transform="scale(0.015625)"/>
       <path id="DejaVuSans-33" d="M 2597 2516 
Q 3050 2419 3304 2112 
Q 3559 1806 3559 1356 
Q 3559 666 3084 287 
Q 2609 -91 1734 -91 
Q 1441 -91 1130 -33 
Q 819 25 488 141 
L 488 750 
Q 750 597 1062 519 
Q 1375 441 1716 441 
Q 2309 441 2620 675 
Q 2931 909 2931 1356 
Q 2931 1769 2642 2001 
Q 2353 2234 1838 2234 
L 1294 2234 
L 1294 2753 
L 1863 2753 
Q 2328 2753 2575 2939 
Q 2822 3125 2822 3475 
Q 2822 3834 2567 4026 
Q 2313 4219 1838 4219 
Q 1578 4219 1281 4162 
Q 984 4106 628 3988 
L 628 4550 
Q 988 4650 1302 4700 
Q 1616 4750 1894 4750 
Q 2613 4750 3031 4423 
Q 3450 4097 3450 3541 
Q 3450 3153 3228 2886 
Q 3006 2619 2597 2516 
z
" transform="scale(0.015625)"/>
      </defs>
      <use xlink:href="#DejaVuSans-Oblique-53" transform="translate(0 0.78125)"/>
      <use xlink:href="#DejaVuSans-33" transform="translate(63.476562 0.78125)"/>
     </g>
    </g>
   </g>
   <g id="text_2">
    <g clip-path="url(#p81a1ec7a94)">
     <!-- E -->
     <g transform="translate(82.268362 30.709219) scale(0.125 -0.125)">
      <defs>
       <path id="DejaVuSans-45" d="M 628 4666 
L 3578 4666 
L 3578 4134 
L 1259 4134 
L 1259 2753 
L 3481 2753 
L 3481 2222 
L 1259 2222 
L 1259 531 
L 3634 531 
L 3634 0 
L 628 0 
L 628 4666 
z
" transform="scale(0.015625)"/>
      </defs>
      <use xlink:href="#DejaVuSans-45"/>
     </g>
    </g>
   </g>
   <g id="text_3">
    <g clip-path="url(#p81a1ec7a94)">
     <!-- B -->
     <g transform="translate(15.800628 40.807219) scale(0.125 -0.125)">
      <defs>
       <path id="DejaVuSans-42" d="M 1259 2228 
L 1259 519 
L 2272 519 
Q 2781 519 3026 730 
Q 3272 941 3272 1375 
Q 3272 1813 3026 2020 
Q 2781 2228 2272 2228 
L 1259 2228 
z
M 1259 4147 
L 1259 2741 
L 2194 2741 
Q 2656 2741 2882 2914 
Q 3109 3088 3109 3444 
Q 3109 3797 2882 3972 
Q 2656 4147 2194 4147 
L 1259 4147 
z
M 628 4666 
L 2241 4666 
Q 2963 4666 3353 4366 
Q 3744 4066 3744 3513 
Q 3744 3084 3544 2831 
Q 3344 2578 2956 2516 
Q 3422 2416 3680 2098 
Q 3938 1781 3938 1306 
Q 3938 681 3513 340 
Q 3088 0 2303 0 
L 628 0 
L 628 4666 
z
" transform="scale(0.015625)"/>
      </defs>
      <use xlink:href="#DejaVuSans-42"/>
     </g>
    </g>
   </g>
   <g id="text_4">
    <g clip-path="url(#p81a1ec7a94)">
     <!-- D -->
     <g transform="translate(14.7518 77.527219) scale(0.125 -0.125)">
      <defs>
       <path id="DejaVuSans-44" d="M 1259 4147 
L 1259 519 
L 2022 519 
Q 2988 519 3436 956 
Q 3884 1394 3884 2338 
Q 3884 3275 3436 3711 
Q 2988 4147 2022 4147 
L 1259 4147 
z
M 628 4666 
L 1925 4666 
Q 3281 4666 3915 4102 
Q 4550 3538 4550 2338 
Q 4550 1131 3912 565 
Q 3275 0 1925 0 
L 628 0 
L 628 4666 
z
" transform="scale(0.015625)"/>
      </defs>
      <use xlink:href="#DejaVuSans-44"/>
     </g>
    </g>
   </g>
  </g>
 </g>
 <defs>
  <clipPath id="p81a1ec7a94">
   <rect x="7.2" y="7.2" width="175.7766" height="85.238"/>
  </clipPath>
 </defs>
</svg>
