<?xml version="1.0" encoding="utf-8" standalone="no"?>
<!DOCTYPE svg PUBLIC "-//W3C//DTD SVG 1.1//EN"
  "http://www.w3.org/Graphics/SVG/1.1/DTD/svg11.dtd">
<svg xmlns:xlink="http://www.w3.org/1999/xlink" width="187.356pt" height="72.36pt" viewBox="0 0 187.356 72.36" xmlns="http://www.w3.org/2000/svg" version="1.1">
 <metadata>
  <rdf:RDF xmlns:dc="http://purl.org/dc/elements/1.1/" xmlns:cc="http://creativecommons.org/ns#" xmlns:rdf="http://www.w3.org/1999/02/22-rdf-syntax-ns#">
   <cc:Work>
    <dc:type rdf:resource="http://purl.org/dc/dcmitype/StillImage"/>
    <dc:date>2024-12-11T12:11:25.455307</dc:date>
    <dc:format>image/svg+xml</dc:format>
    <dc:creator>
     <cc:Agent>
      <dc:title>Matplotlib v3.9.3, https://matplotlib.org/</dc:title>
     </cc:Agent>
    </dc:creator>
   </cc:Work>
  </rdf:RDF>
 </metadata>
 <defs>
  <style type="text/css">*{stroke-linejoin: round; stroke-linecap: butt}</style>
 </defs>
 <g id="figure_1">
  <g id="patch_1">
   <path d="M 0 72.36 
L 187.356 72.36 
L 187.356 0 
L 0 0 
z
" style="fill: #ffffff"/>
  </g>
  <g id="axes_1">
   <g id="patch_2">
    <path d="M 65.388 54 
C 66.533677 54 67.632585 53.544818 68.442701 52.734701 
C 69.252818 51.924585 69.708 50.825677 69.708 49.68 
C 69.708 48.534323 69.252818 47.435415 68.442701 46.625299 
C 67.632585 45.815182 66.533677 45.36 65.388 45.36 
C 64.242323 45.36 63.143415 45.815182 62.333299 46.625299 
C 61.523182 47.435415 61.068 48.534323 61.068 49.68 
C 61.068 50.825677 61.523182 51.924585 62.333299 52.734701 
C 63.143415 53.544818 64.242323 54 65.388 54 
L 65.388 54 
z
" clip-path="url(#p3073232f17)" style="fill: none; stroke: #000000; stroke-width: 2; stroke-linejoin: miter"/>
   </g>
   <g id="line2d_1">
    <path d="M 131.088 40.68 
L 132.241264 40.643017 
L 133.389789 40.53222 
L 134.528855 40.348065 
L 135.653783 40.091308 
L 136.759948 39.763003 
L 137.842806 39.364502 
L 138.897907 38.89744 
L 139.920916 38.363737 
L 140.907628 37.765586 
L 141.85399 37.105445 
L 142.756111 36.386027 
L 143.610286 35.610288 
L 144.413004 34.781416 
L 145.160967 33.902816 
L 145.851101 32.9781 
L 146.48057 32.011066 
L 147.046788 31.005689 
L 147.547427 29.9661 
L 147.980432 28.896571 
L 148.344021 27.801497 
L 148.636702 26.685377 
L 148.857272 25.552798 
L 149.004824 24.408414 
L 149.078752 23.256928 
L 149.078752 22.103072 
L 149.004824 20.951586 
L 148.857272 19.807202 
L 148.636702 18.674623 
L 148.344021 17.558503 
L 147.980432 16.463429 
L 147.547427 15.3939 
L 147.046788 14.354311 
L 146.48057 13.348934 
L 145.851101 12.3819 
L 145.160967 11.457184 
L 144.413004 10.578584 
L 143.610286 9.749712 
L 142.756111 8.973973 
L 141.85399 8.254555 
L 140.907628 7.594414 
L 139.920916 6.996263 
L 138.897907 6.46256 
L 137.842806 5.995498 
L 136.759948 5.596997 
L 135.653783 5.268692 
L 134.528855 5.011935 
L 133.389789 4.82778 
L 132.241264 4.716983 
L 131.088 4.68 
L 131.088 4.68 
L 107.688 4.68 
L 107.688 22.68 
L 107.688 40.68 
L 131.088 40.68 
" clip-path="url(#p3073232f17)" style="fill: none; stroke: #000000; stroke-width: 2; stroke-linecap: round"/>
   </g>
   <g id="line2d_2">
    <path d="M 95.088 34.56 
L 107.688 34.56 
" clip-path="url(#p3073232f17)" style="fill: none; stroke: #000000; stroke-width: 2; stroke-linecap: round"/>
   </g>
   <g id="line2d_3">
    <path d="M 95.088 22.68 
L 107.688 22.68 
" clip-path="url(#p3073232f17)" style="fill: none; stroke: #000000; stroke-width: 2; stroke-linecap: round"/>
   </g>
   <g id="line2d_4">
    <path d="M 95.088 10.8 
L 107.688 10.8 
" clip-path="url(#p3073232f17)" style="fill: none; stroke: #000000; stroke-width: 2; stroke-linecap: round"/>
   </g>
   <g id="line2d_5">
    <path d="M 149.088 22.68 
L 161.688 22.68 
" clip-path="url(#p3073232f17)" style="fill: none; stroke: #000000; stroke-width: 2; stroke-linecap: round"/>
   </g>
   <g id="line2d_6">
    <path d="M 17.688 49.68 
L 37.668 49.68 
M 69.708 49.68 
L 89.688 49.68 
" clip-path="url(#p3073232f17)" style="fill: none; stroke: #000000; stroke-width: 2; stroke-linecap: round"/>
   </g>
   <g id="line2d_7">
    <path d="M 37.668 31.68 
L 61.068 49.68 
L 37.668 67.68 
L 37.668 31.68 
" clip-path="url(#p3073232f17)" style="fill: none; stroke: #000000; stroke-width: 2; stroke-linecap: round"/>
   </g>
   <g id="line2d_8">
    <path d="M 95.088 34.56 
L 89.688 34.56 
L 89.688 49.68 
" clip-path="url(#p3073232f17)" style="fill: none; stroke: #000000; stroke-width: 2; stroke-linecap: round"/>
   </g>
   <g id="text_1">
    <!-- $S1$ -->
    <g transform="translate(165.288 26.543125) scale(0.14 -0.14)">
     <defs>
      <path id="DejaVuSans-Oblique-53" d="M 3859 4513 
L 3738 3897 
Q 3422 4066 3111 4152 
Q 2800 4238 2509 4238 
Q 1944 4238 1609 3991 
Q 1275 3744 1275 3334 
Q 1275 3109 1398 2989 
Q 1522 2869 2034 2731 
L 2413 2638 
Q 3053 2472 3303 2217 
Q 3553 1963 3553 1503 
Q 3553 797 2998 353 
Q 2444 -91 1538 -91 
Q 1166 -91 791 -17 
Q 416 56 38 206 
L 166 856 
Q 513 641 861 531 
Q 1209 422 1556 422 
Q 2147 422 2503 684 
Q 2859 947 2859 1369 
Q 2859 1650 2717 1795 
Q 2575 1941 2106 2059 
L 1728 2156 
Q 1081 2325 845 2545 
Q 609 2766 609 3163 
Q 609 3859 1145 4304 
Q 1681 4750 2541 4750 
Q 2875 4750 3203 4690 
Q 3531 4631 3859 4513 
z
" transform="scale(0.015625)"/>
      <path id="DejaVuSans-31" d="M 794 531 
L 1825 531 
L 1825 4091 
L 703 3866 
L 703 4441 
L 1819 4666 
L 2450 4666 
L 2450 531 
L 3481 531 
L 3481 0 
L 794 0 
L 794 531 
z
" transform="scale(0.015625)"/>
     </defs>
     <use xlink:href="#DejaVuSans-Oblique-53" transform="translate(0 0.78125)"/>
     <use xlink:href="#DejaVuSans-31" transform="translate(63.476562 0.78125)"/>
    </g>
   </g>
   <g id="text_2">
    <!-- D -->
    <g transform="translate(80.708 14.663125) scale(0.14 -0.14)">
     <defs>
      <path id="DejaVuSans-44" d="M 1259 4147 
L 1259 519 
L 2022 519 
Q 2988 519 3436 956 
Q 3884 1394 3884 2338 
Q 3884 3275 3436 3711 
Q 2988 4147 2022 4147 
L 1259 4147 
z
M 628 4666 
L 1925 4666 
Q 3281 4666 3915 4102 
Q 4550 3538 4550 2338 
Q 4550 1131 3912 565 
Q 3275 0 1925 0 
L 628 0 
L 628 4666 
z
" transform="scale(0.015625)"/>
     </defs>
     <use xlink:href="#DejaVuSans-44"/>
    </g>
   </g>
   <g id="text_3">
    <!-- E -->
    <g transform="translate(82.64175 26.543125) scale(0.14 -0.14)">
     <defs>
      <path id="DejaVuSans-45" d="M 628 4666 
L 3578 4666 
L 3578 4134 
L 1259 4134 
L 1259 2753 
L 3481 2753 
L 3481 2222 
L 1259 2222 
L 1259 531 
L 3634 531 
L 3634 0 
L 628 0 
L 628 4666 
z
" transform="scale(0.015625)"/>
     </defs>
     <use xlink:href="#DejaVuSans-45"/>
    </g>
   </g>
   <g id="text_4">
    <!-- B -->
    <g transform="translate(4.482687 53.543125) scale(0.14 -0.14)">
     <defs>
      <path id="DejaVuSans-42" d="M 1259 2228 
L 1259 519 
L 2272 519 
Q 2781 519 3026 730 
Q 3272 941 3272 1375 
Q 3272 1813 3026 2020 
Q 2781 2228 2272 2228 
L 1259 2228 
z
M 1259 4147 
L 1259 2741 
L 2194 2741 
Q 2656 2741 2882 2914 
Q 3109 3088 3109 3444 
Q 3109 3797 2882 3972 
Q 2656 4147 2194 4147 
L 1259 4147 
z
M 628 4666 
L 2241 4666 
Q 2963 4666 3353 4366 
Q 3744 4066 3744 3513 
Q 3744 3084 3544 2831 
Q 3344 2578 2956 2516 
Q 3422 2416 3680 2098 
Q 3938 1781 3938 1306 
Q 3938 681 3513 340 
Q 3088 0 2303 0 
L 628 0 
L 628 4666 
z
" transform="scale(0.015625)"/>
     </defs>
     <use xlink:href="#DejaVuSans-42"/>
    </g>
   </g>
  </g>
 </g>
 <defs>
  <clipPath id="p3073232f17">
   <rect x="0" y="-0" width="187.356" height="72.36"/>
  </clipPath>
 </defs>
</svg>
