<?xml version="1.0" encoding="utf-8" standalone="no"?>
<!DOCTYPE svg PUBLIC "-//W3C//DTD SVG 1.1//EN"
  "http://www.w3.org/Graphics/SVG/1.1/DTD/svg11.dtd">
<svg xmlns:xlink="http://www.w3.org/1999/xlink" width="366.9936pt" height="221.12pt" viewBox="0 0 366.9936 221.12" xmlns="http://www.w3.org/2000/svg" version="1.1">
 <metadata>
  <rdf:RDF xmlns:dc="http://purl.org/dc/elements/1.1/" xmlns:cc="http://creativecommons.org/ns#" xmlns:rdf="http://www.w3.org/1999/02/22-rdf-syntax-ns#">
   <cc:Work>
    <dc:type rdf:resource="http://purl.org/dc/dcmitype/StillImage"/>
    <dc:date>2024-04-26T11:27:43.371144</dc:date>
    <dc:format>image/svg+xml</dc:format>
    <dc:creator>
     <cc:Agent>
      <dc:title>Matplotlib v3.8.0, https://matplotlib.org/</dc:title>
     </cc:Agent>
    </dc:creator>
   </cc:Work>
  </rdf:RDF>
 </metadata>
 <defs>
  <style type="text/css">*{stroke-linejoin: round; stroke-linecap: butt}</style>
 </defs>
 <g id="figure_1">
  <g id="patch_1">
   <path d="M 0 221.12 
L 366.9936 221.12 
L 366.9936 0 
L 0 0 
z
" style="fill: #ffffff"/>
  </g>
  <g id="axes_1">
   <g id="patch_2">
    <path d="M 67.9818 50.057 
C 68.955626 50.057 69.889697 49.670095 70.578296 48.981496 
C 71.266895 48.292897 71.6538 47.358826 71.6538 46.385 
C 71.6538 45.411174 71.266895 44.477103 70.578296 43.788504 
C 69.889697 43.099905 68.955626 42.713 67.9818 42.713 
C 67.007974 42.713 66.073903 43.099905 65.385304 43.788504 
C 64.696705 44.477103 64.3098 45.411174 64.3098 46.385 
C 64.3098 47.358826 64.696705 48.292897 65.385304 48.981496 
C 66.073903 49.670095 67.007974 50.057 67.9818 50.057 
L 67.9818 50.057 
z
" clip-path="url(#pc3ac995078)" style="fill: none; stroke: #000000; stroke-width: 2; stroke-linejoin: miter"/>
   </g>
   <g id="patch_3">
    <path d="M 67.9818 95.957 
C 68.955626 95.957 69.889697 95.570095 70.578296 94.881496 
C 71.266895 94.192897 71.6538 93.258826 71.6538 92.285 
C 71.6538 91.311174 71.266895 90.377103 70.578296 89.688504 
C 69.889697 88.999905 68.955626 88.613 67.9818 88.613 
C 67.007974 88.613 66.073903 88.999905 65.385304 89.688504 
C 64.696705 90.377103 64.3098 91.311174 64.3098 92.285 
C 64.3098 93.258826 64.696705 94.192897 65.385304 94.881496 
C 66.073903 95.570095 67.007974 95.957 67.9818 95.957 
L 67.9818 95.957 
z
" clip-path="url(#pc3ac995078)" style="fill: none; stroke: #000000; stroke-width: 2; stroke-linejoin: miter"/>
   </g>
   <g id="patch_4">
    <path d="M 129.1818 153.332 
C 130.155626 153.332 131.089697 152.945095 131.778296 152.256496 
C 132.466895 151.567897 132.8538 150.633826 132.8538 149.66 
C 132.8538 148.686174 132.466895 147.752103 131.778296 147.063504 
C 131.089697 146.374905 130.155626 145.988 129.1818 145.988 
C 128.207974 145.988 127.273903 146.374905 126.585304 147.063504 
C 125.896705 147.752103 125.5098 148.686174 125.5098 149.66 
C 125.5098 150.633826 125.896705 151.567897 126.585304 152.256496 
C 127.273903 152.945095 128.207974 153.332 129.1818 153.332 
L 129.1818 153.332 
z
" clip-path="url(#pc3ac995078)" style="fill: none; stroke: #000000; stroke-width: 2; stroke-linejoin: miter"/>
   </g>
   <g id="patch_5">
    <path d="M 190.3818 199.232 
C 191.355626 199.232 192.289697 198.845095 192.978296 198.156496 
C 193.666895 197.467897 194.0538 196.533826 194.0538 195.56 
C 194.0538 194.586174 193.666895 193.652103 192.978296 192.963504 
C 192.289697 192.274905 191.355626 191.888 190.3818 191.888 
C 189.407974 191.888 188.473903 192.274905 187.785304 192.963504 
C 187.096705 193.652103 186.7098 194.586174 186.7098 195.56 
C 186.7098 196.533826 187.096705 197.467897 187.785304 198.156496 
C 188.473903 198.845095 189.407974 199.232 190.3818 199.232 
L 190.3818 199.232 
z
" clip-path="url(#pc3ac995078)" style="fill: none; stroke: #000000; stroke-width: 2; stroke-linejoin: miter"/>
   </g>
   <g id="line2d_1">
    <path d="M 286.0068 147.4415 
L 303.055371 147.341582 
L 304.803943 147.041827 
L 306.552514 146.542235 
L 308.301086 145.842806 
L 310.049657 144.943541 
L 312.235371 143.538439 
L 314.421086 141.821092 
L 316.6068 139.7915 
L 318.792514 137.449663 
L 320.978229 134.795582 
L 322.7268 132.4475 
L 322.7268 132.4475 
L 320.103943 129.000316 
L 317.918229 126.471133 
L 315.732514 124.254194 
L 313.5468 122.3495 
L 311.361086 120.757051 
L 309.175371 119.476847 
L 307.4268 118.6775 
L 305.678229 118.07799 
L 303.929657 117.678316 
L 302.181086 117.47848 
L 301.3068 117.4535 
L 286.0068 117.4535 
L 286.0068 117.4535 
L 288.21 119.9015 
L 289.60536 121.7375 
L 290.7804 123.5735 
L 291.73512 125.4095 
L 292.46952 127.2455 
L 292.9836 129.0815 
L 293.27736 130.9175 
L 293.3508 132.7535 
L 293.20392 134.5895 
L 292.83672 136.4255 
L 292.2492 138.2615 
L 291.44136 140.0975 
L 290.4132 141.9335 
L 289.16472 143.7695 
L 287.69592 145.6055 
L 286.0068 147.4415 
L 286.0068 147.4415 
" clip-path="url(#pc3ac995078)" style="fill: none; stroke: #000000; stroke-width: 2; stroke-linecap: round"/>
   </g>
   <g id="line2d_2">
    <path d="M 275.2968 140.0975 
L 291.44136 140.0975 
" clip-path="url(#pc3ac995078)" style="fill: none; stroke: #000000; stroke-width: 2; stroke-linecap: round"/>
   </g>
   <g id="line2d_3">
    <path d="M 275.2968 124.7975 
L 291.44136 124.7975 
" clip-path="url(#pc3ac995078)" style="fill: none; stroke: #000000; stroke-width: 2; stroke-linecap: round"/>
   </g>
   <g id="line2d_4">
    <path d="M 322.7268 132.4475 
L 333.4368 132.4475 
" clip-path="url(#pc3ac995078)" style="fill: none; stroke: #000000; stroke-width: 2; stroke-linecap: round"/>
   </g>
   <g id="line2d_5">
    <path d="M 224.8068 107.279 
L 241.855371 107.179082 
L 243.603943 106.879327 
L 245.352514 106.379735 
L 247.101086 105.680306 
L 248.849657 104.781041 
L 251.035371 103.375939 
L 253.221086 101.658592 
L 255.4068 99.629 
L 257.592514 97.287163 
L 259.778229 94.633082 
L 261.5268 92.285 
L 261.5268 92.285 
L 258.903943 88.837816 
L 256.718229 86.308633 
L 254.532514 84.091694 
L 252.3468 82.187 
L 250.161086 80.594551 
L 247.975371 79.314347 
L 246.2268 78.515 
L 244.478229 77.91549 
L 242.729657 77.515816 
L 240.981086 77.31598 
L 240.1068 77.291 
L 224.8068 77.291 
L 224.8068 77.291 
L 227.01 79.739 
L 228.40536 81.575 
L 229.5804 83.411 
L 230.53512 85.247 
L 231.26952 87.083 
L 231.7836 88.919 
L 232.07736 90.755 
L 232.1508 92.591 
L 232.00392 94.427 
L 231.63672 96.263 
L 231.0492 98.099 
L 230.24136 99.935 
L 229.2132 101.771 
L 227.96472 103.607 
L 226.49592 105.443 
L 224.8068 107.279 
L 224.8068 107.279 
" clip-path="url(#pc3ac995078)" style="fill: none; stroke: #000000; stroke-width: 2; stroke-linecap: round"/>
   </g>
   <g id="line2d_6">
    <path d="M 214.0968 99.935 
L 230.24136 99.935 
" clip-path="url(#pc3ac995078)" style="fill: none; stroke: #000000; stroke-width: 2; stroke-linecap: round"/>
   </g>
   <g id="line2d_7">
    <path d="M 214.0968 84.635 
L 230.24136 84.635 
" clip-path="url(#pc3ac995078)" style="fill: none; stroke: #000000; stroke-width: 2; stroke-linecap: round"/>
   </g>
   <g id="line2d_8">
    <path d="M 261.5268 92.285 
L 272.2368 92.285 
" clip-path="url(#pc3ac995078)" style="fill: none; stroke: #000000; stroke-width: 2; stroke-linecap: round"/>
   </g>
   <g id="line2d_9">
    <path d="M 163.6068 72.854 
L 180.655371 72.754082 
L 182.403943 72.454327 
L 184.152514 71.954735 
L 185.901086 71.255306 
L 187.649657 70.356041 
L 189.835371 68.950939 
L 192.021086 67.233592 
L 194.2068 65.204 
L 196.392514 62.862163 
L 198.578229 60.208082 
L 200.3268 57.86 
L 200.3268 57.86 
L 197.703943 54.412816 
L 195.518229 51.883633 
L 193.332514 49.666694 
L 191.1468 47.762 
L 188.961086 46.169551 
L 186.775371 44.889347 
L 185.0268 44.09 
L 183.278229 43.49049 
L 181.529657 43.090816 
L 179.781086 42.89098 
L 178.9068 42.866 
L 163.6068 42.866 
L 163.6068 42.866 
L 165.81 45.314 
L 167.20536 47.15 
L 168.3804 48.986 
L 169.33512 50.822 
L 170.06952 52.658 
L 170.5836 54.494 
L 170.87736 56.33 
L 170.9508 58.166 
L 170.80392 60.002 
L 170.43672 61.838 
L 169.8492 63.674 
L 169.04136 65.51 
L 168.0132 67.346 
L 166.76472 69.182 
L 165.29592 71.018 
L 163.6068 72.854 
L 163.6068 72.854 
" clip-path="url(#pc3ac995078)" style="fill: none; stroke: #000000; stroke-width: 2; stroke-linecap: round"/>
   </g>
   <g id="line2d_10">
    <path d="M 152.8968 65.51 
L 169.04136 65.51 
" clip-path="url(#pc3ac995078)" style="fill: none; stroke: #000000; stroke-width: 2; stroke-linecap: round"/>
   </g>
   <g id="line2d_11">
    <path d="M 152.8968 50.21 
L 169.04136 50.21 
" clip-path="url(#pc3ac995078)" style="fill: none; stroke: #000000; stroke-width: 2; stroke-linecap: round"/>
   </g>
   <g id="line2d_12">
    <path d="M 200.3268 57.86 
L 211.0368 57.86 
" clip-path="url(#pc3ac995078)" style="fill: none; stroke: #000000; stroke-width: 2; stroke-linecap: round"/>
   </g>
   <g id="line2d_13">
    <path d="M 123.8268 50.21 
L 124.807074 50.178565 
L 125.783321 50.084387 
L 126.751527 49.927855 
L 127.707715 49.709611 
L 128.647956 49.430553 
L 129.568385 49.091826 
L 130.465221 48.694824 
L 131.334779 48.241176 
L 132.173484 47.732748 
L 132.977891 47.171628 
L 133.744694 46.560123 
L 134.470743 45.900745 
L 135.153053 45.196204 
L 135.788822 44.449394 
L 136.375435 43.663385 
L 136.910484 42.841406 
L 137.391769 41.986836 
L 137.817313 41.103185 
L 138.185367 40.194085 
L 138.494418 39.263272 
L 138.743197 38.31457 
L 138.930681 37.351878 
L 139.0561 36.379152 
L 139.118939 35.400389 
L 139.118939 34.419611 
L 139.0561 33.440848 
L 138.930681 32.468122 
L 138.743197 31.50543 
L 138.494418 30.556728 
L 138.185367 29.625915 
L 137.817313 28.716815 
L 137.391769 27.833164 
L 136.910484 26.978594 
L 136.375435 26.156615 
L 135.788822 25.370606 
L 135.153053 24.623796 
L 134.470743 23.919255 
L 133.744694 23.259877 
L 132.977891 22.648372 
L 132.173484 22.087252 
L 131.334779 21.578824 
L 130.465221 21.125176 
L 129.568385 20.728174 
L 128.647956 20.389447 
L 127.707715 20.110389 
L 126.751527 19.892145 
L 125.783321 19.735613 
L 124.807074 19.641435 
L 123.8268 19.61 
L 123.8268 19.61 
L 103.9368 19.61 
L 103.9368 34.91 
L 103.9368 50.21 
L 123.8268 50.21 
" clip-path="url(#pc3ac995078)" style="fill: none; stroke: #000000; stroke-width: 2; stroke-linecap: round"/>
   </g>
   <g id="line2d_14">
    <path d="M 93.2268 42.56 
L 103.9368 42.56 
" clip-path="url(#pc3ac995078)" style="fill: none; stroke: #000000; stroke-width: 2; stroke-linecap: round"/>
   </g>
   <g id="line2d_15">
    <path d="M 93.2268 27.26 
L 103.9368 27.26 
" clip-path="url(#pc3ac995078)" style="fill: none; stroke: #000000; stroke-width: 2; stroke-linecap: round"/>
   </g>
   <g id="line2d_16">
    <path d="M 139.1268 34.91 
L 149.8368 34.91 
" clip-path="url(#pc3ac995078)" style="fill: none; stroke: #000000; stroke-width: 2; stroke-linecap: round"/>
   </g>
   <g id="line2d_17">
    <path d="M 27.4368 46.385 
L 44.4198 46.385 
M 71.6538 46.385 
L 88.6368 46.385 
" clip-path="url(#pc3ac995078)" style="fill: none; stroke: #000000; stroke-width: 2; stroke-linecap: round"/>
   </g>
   <g id="line2d_18">
    <path d="M 44.4198 31.085 
L 64.3098 46.385 
L 44.4198 61.685 
L 44.4198 31.085 
" clip-path="url(#pc3ac995078)" style="fill: none; stroke: #000000; stroke-width: 2; stroke-linecap: round"/>
   </g>
   <g id="line2d_19">
    <path d="M 93.2268 42.56 
L 88.6368 42.56 
L 88.6368 46.385 
" clip-path="url(#pc3ac995078)" style="fill: none; stroke: #000000; stroke-width: 2; stroke-linecap: round"/>
   </g>
   <g id="line2d_20">
    <path d="M 152.8968 50.21 
L 149.8368 50.21 
L 149.8368 34.91 
" clip-path="url(#pc3ac995078)" style="fill: none; stroke: #000000; stroke-width: 2; stroke-linecap: round"/>
   </g>
   <g id="line2d_21">
    <path d="M 123.8268 96.11 
L 124.807074 96.078565 
L 125.783321 95.984387 
L 126.751527 95.827855 
L 127.707715 95.609611 
L 128.647956 95.330553 
L 129.568385 94.991826 
L 130.465221 94.594824 
L 131.334779 94.141176 
L 132.173484 93.632748 
L 132.977891 93.071628 
L 133.744694 92.460123 
L 134.470743 91.800745 
L 135.153053 91.096204 
L 135.788822 90.349394 
L 136.375435 89.563385 
L 136.910484 88.741406 
L 137.391769 87.886836 
L 137.817313 87.003185 
L 138.185367 86.094085 
L 138.494418 85.163272 
L 138.743197 84.21457 
L 138.930681 83.251878 
L 139.0561 82.279152 
L 139.118939 81.300389 
L 139.118939 80.319611 
L 139.0561 79.340848 
L 138.930681 78.368122 
L 138.743197 77.40543 
L 138.494418 76.456728 
L 138.185367 75.525915 
L 137.817313 74.616815 
L 137.391769 73.733164 
L 136.910484 72.878594 
L 136.375435 72.056615 
L 135.788822 71.270606 
L 135.153053 70.523796 
L 134.470743 69.819255 
L 133.744694 69.159877 
L 132.977891 68.548372 
L 132.173484 67.987252 
L 131.334779 67.478824 
L 130.465221 67.025176 
L 129.568385 66.628174 
L 128.647956 66.289447 
L 127.707715 66.010389 
L 126.751527 65.792145 
L 125.783321 65.635613 
L 124.807074 65.541435 
L 123.8268 65.51 
L 123.8268 65.51 
L 103.9368 65.51 
L 103.9368 80.81 
L 103.9368 96.11 
L 123.8268 96.11 
" clip-path="url(#pc3ac995078)" style="fill: none; stroke: #000000; stroke-width: 2; stroke-linecap: round"/>
   </g>
   <g id="line2d_22">
    <path d="M 93.2268 88.46 
L 103.9368 88.46 
" clip-path="url(#pc3ac995078)" style="fill: none; stroke: #000000; stroke-width: 2; stroke-linecap: round"/>
   </g>
   <g id="line2d_23">
    <path d="M 93.2268 73.16 
L 103.9368 73.16 
" clip-path="url(#pc3ac995078)" style="fill: none; stroke: #000000; stroke-width: 2; stroke-linecap: round"/>
   </g>
   <g id="line2d_24">
    <path d="M 139.1268 80.81 
L 149.8368 80.81 
" clip-path="url(#pc3ac995078)" style="fill: none; stroke: #000000; stroke-width: 2; stroke-linecap: round"/>
   </g>
   <g id="line2d_25">
    <path d="M 27.4368 92.285 
L 44.4198 92.285 
M 71.6538 92.285 
L 88.6368 92.285 
" clip-path="url(#pc3ac995078)" style="fill: none; stroke: #000000; stroke-width: 2; stroke-linecap: round"/>
   </g>
   <g id="line2d_26">
    <path d="M 44.4198 76.985 
L 64.3098 92.285 
L 44.4198 107.585 
L 44.4198 76.985 
" clip-path="url(#pc3ac995078)" style="fill: none; stroke: #000000; stroke-width: 2; stroke-linecap: round"/>
   </g>
   <g id="line2d_27">
    <path d="M 93.2268 88.46 
L 88.6368 88.46 
L 88.6368 92.285 
" clip-path="url(#pc3ac995078)" style="fill: none; stroke: #000000; stroke-width: 2; stroke-linecap: round"/>
   </g>
   <g id="line2d_28">
    <path d="M 152.8968 65.51 
L 149.8368 65.51 
L 149.8368 80.81 
" clip-path="url(#pc3ac995078)" style="fill: none; stroke: #000000; stroke-width: 2; stroke-linecap: round"/>
   </g>
   <g id="line2d_29">
    <path d="M 214.0968 84.635 
L 211.0368 84.635 
L 211.0368 57.86 
" clip-path="url(#pc3ac995078)" style="fill: none; stroke: #000000; stroke-width: 2; stroke-linecap: round"/>
   </g>
   <g id="line2d_30">
    <path d="M 185.0268 142.01 
L 186.007074 141.978565 
L 186.983321 141.884387 
L 187.951527 141.727855 
L 188.907715 141.509611 
L 189.847956 141.230553 
L 190.768385 140.891826 
L 191.665221 140.494824 
L 192.534779 140.041176 
L 193.373484 139.532748 
L 194.177891 138.971628 
L 194.944694 138.360123 
L 195.670743 137.700745 
L 196.353053 136.996204 
L 196.988822 136.249394 
L 197.575435 135.463385 
L 198.110484 134.641406 
L 198.591769 133.786836 
L 199.017313 132.903185 
L 199.385367 131.994085 
L 199.694418 131.063272 
L 199.943197 130.11457 
L 200.130681 129.151878 
L 200.2561 128.179152 
L 200.318939 127.200389 
L 200.318939 126.219611 
L 200.2561 125.240848 
L 200.130681 124.268122 
L 199.943197 123.30543 
L 199.694418 122.356728 
L 199.385367 121.425915 
L 199.017313 120.516815 
L 198.591769 119.633164 
L 198.110484 118.778594 
L 197.575435 117.956615 
L 196.988822 117.170606 
L 196.353053 116.423796 
L 195.670743 115.719255 
L 194.944694 115.059877 
L 194.177891 114.448372 
L 193.373484 113.887252 
L 192.534779 113.378824 
L 191.665221 112.925176 
L 190.768385 112.528174 
L 189.847956 112.189447 
L 188.907715 111.910389 
L 187.951527 111.692145 
L 186.983321 111.535613 
L 186.007074 111.441435 
L 185.0268 111.41 
L 185.0268 111.41 
L 165.1368 111.41 
L 165.1368 126.71 
L 165.1368 142.01 
L 185.0268 142.01 
" clip-path="url(#pc3ac995078)" style="fill: none; stroke: #000000; stroke-width: 2; stroke-linecap: round"/>
   </g>
   <g id="line2d_31">
    <path d="M 154.4268 136.808 
L 165.1368 136.808 
" clip-path="url(#pc3ac995078)" style="fill: none; stroke: #000000; stroke-width: 2; stroke-linecap: round"/>
   </g>
   <g id="line2d_32">
    <path d="M 154.4268 126.71 
L 165.1368 126.71 
" clip-path="url(#pc3ac995078)" style="fill: none; stroke: #000000; stroke-width: 2; stroke-linecap: round"/>
   </g>
   <g id="line2d_33">
    <path d="M 154.4268 116.612 
L 165.1368 116.612 
" clip-path="url(#pc3ac995078)" style="fill: none; stroke: #000000; stroke-width: 2; stroke-linecap: round"/>
   </g>
   <g id="line2d_34">
    <path d="M 200.3268 126.71 
L 211.0368 126.71 
" clip-path="url(#pc3ac995078)" style="fill: none; stroke: #000000; stroke-width: 2; stroke-linecap: round"/>
   </g>
   <g id="line2d_35">
    <path d="M 88.6368 149.66 
L 105.6198 149.66 
M 132.8538 149.66 
L 149.8368 149.66 
" clip-path="url(#pc3ac995078)" style="fill: none; stroke: #000000; stroke-width: 2; stroke-linecap: round"/>
   </g>
   <g id="line2d_36">
    <path d="M 105.6198 134.36 
L 125.5098 149.66 
L 105.6198 164.96 
L 105.6198 134.36 
" clip-path="url(#pc3ac995078)" style="fill: none; stroke: #000000; stroke-width: 2; stroke-linecap: round"/>
   </g>
   <g id="line2d_37">
    <path d="M 154.4268 136.808 
L 149.8368 136.808 
L 149.8368 149.66 
" clip-path="url(#pc3ac995078)" style="fill: none; stroke: #000000; stroke-width: 2; stroke-linecap: round"/>
   </g>
   <g id="line2d_38">
    <path d="M 214.0968 99.935 
L 211.0368 99.935 
L 211.0368 126.71 
" clip-path="url(#pc3ac995078)" style="fill: none; stroke: #000000; stroke-width: 2; stroke-linecap: round"/>
   </g>
   <g id="line2d_39">
    <path d="M 275.2968 124.7975 
L 272.2368 124.7975 
L 272.2368 92.285 
" clip-path="url(#pc3ac995078)" style="fill: none; stroke: #000000; stroke-width: 2; stroke-linecap: round"/>
   </g>
   <g id="line2d_40">
    <path d="M 246.2268 187.91 
L 247.207074 187.878565 
L 248.183321 187.784387 
L 249.151527 187.627855 
L 250.107715 187.409611 
L 251.047956 187.130553 
L 251.968385 186.791826 
L 252.865221 186.394824 
L 253.734779 185.941176 
L 254.573484 185.432748 
L 255.377891 184.871628 
L 256.144694 184.260123 
L 256.870743 183.600745 
L 257.553053 182.896204 
L 258.188822 182.149394 
L 258.775435 181.363385 
L 259.310484 180.541406 
L 259.791769 179.686836 
L 260.217313 178.803185 
L 260.585367 177.894085 
L 260.894418 176.963272 
L 261.143197 176.01457 
L 261.330681 175.051878 
L 261.4561 174.079152 
L 261.518939 173.100389 
L 261.518939 172.119611 
L 261.4561 171.140848 
L 261.330681 170.168122 
L 261.143197 169.20543 
L 260.894418 168.256728 
L 260.585367 167.325915 
L 260.217313 166.416815 
L 259.791769 165.533164 
L 259.310484 164.678594 
L 258.775435 163.856615 
L 258.188822 163.070606 
L 257.553053 162.323796 
L 256.870743 161.619255 
L 256.144694 160.959877 
L 255.377891 160.348372 
L 254.573484 159.787252 
L 253.734779 159.278824 
L 252.865221 158.825176 
L 251.968385 158.428174 
L 251.047956 158.089447 
L 250.107715 157.810389 
L 249.151527 157.592145 
L 248.183321 157.435613 
L 247.207074 157.341435 
L 246.2268 157.31 
L 246.2268 157.31 
L 226.3368 157.31 
L 226.3368 172.61 
L 226.3368 187.91 
L 246.2268 187.91 
" clip-path="url(#pc3ac995078)" style="fill: none; stroke: #000000; stroke-width: 2; stroke-linecap: round"/>
   </g>
   <g id="line2d_41">
    <path d="M 215.6268 182.708 
L 226.3368 182.708 
" clip-path="url(#pc3ac995078)" style="fill: none; stroke: #000000; stroke-width: 2; stroke-linecap: round"/>
   </g>
   <g id="line2d_42">
    <path d="M 215.6268 172.61 
L 226.3368 172.61 
" clip-path="url(#pc3ac995078)" style="fill: none; stroke: #000000; stroke-width: 2; stroke-linecap: round"/>
   </g>
   <g id="line2d_43">
    <path d="M 215.6268 162.512 
L 226.3368 162.512 
" clip-path="url(#pc3ac995078)" style="fill: none; stroke: #000000; stroke-width: 2; stroke-linecap: round"/>
   </g>
   <g id="line2d_44">
    <path d="M 261.5268 172.61 
L 272.2368 172.61 
" clip-path="url(#pc3ac995078)" style="fill: none; stroke: #000000; stroke-width: 2; stroke-linecap: round"/>
   </g>
   <g id="line2d_45">
    <path d="M 149.8368 195.56 
L 166.8198 195.56 
M 194.0538 195.56 
L 211.0368 195.56 
" clip-path="url(#pc3ac995078)" style="fill: none; stroke: #000000; stroke-width: 2; stroke-linecap: round"/>
   </g>
   <g id="line2d_46">
    <path d="M 166.8198 180.26 
L 186.7098 195.56 
L 166.8198 210.86 
L 166.8198 180.26 
" clip-path="url(#pc3ac995078)" style="fill: none; stroke: #000000; stroke-width: 2; stroke-linecap: round"/>
   </g>
   <g id="line2d_47">
    <path d="M 215.6268 182.708 
L 211.0368 182.708 
L 211.0368 195.56 
" clip-path="url(#pc3ac995078)" style="fill: none; stroke: #000000; stroke-width: 2; stroke-linecap: round"/>
   </g>
   <g id="line2d_48">
    <path d="M 275.2968 140.0975 
L 272.2368 140.0975 
L 272.2368 172.61 
" clip-path="url(#pc3ac995078)" style="fill: none; stroke: #000000; stroke-width: 2; stroke-linecap: round"/>
   </g>
   <g id="text_1">
    <g clip-path="url(#pc3ac995078)">
     <!-- $Y$ -->
     <g transform="translate(336.4968 135.896719) scale(0.125 -0.125)">
      <defs>
       <path id="DejaVuSans-Oblique-59" d="M 403 4666 
L 1081 4666 
L 1953 2747 
L 3616 4666 
L 4325 4666 
L 2209 2222 
L 1778 0 
L 1147 0 
L 1575 2222 
L 403 4666 
z
" transform="scale(0.015625)"/>
      </defs>
      <use xlink:href="#DejaVuSans-Oblique-59" transform="translate(0 0.09375)"/>
     </g>
    </g>
   </g>
   <g id="text_2">
    <g clip-path="url(#pc3ac995078)">
     <!-- A -->
     <g transform="translate(81.616019 30.709219) scale(0.125 -0.125)">
      <defs>
       <path id="DejaVuSans-41" d="M 2188 4044 
L 1331 1722 
L 3047 1722 
L 2188 4044 
z
M 1831 4666 
L 2547 4666 
L 4325 0 
L 3669 0 
L 3244 1197 
L 1141 1197 
L 716 0 
L 50 0 
L 1831 4666 
z
" transform="scale(0.015625)"/>
      </defs>
      <use xlink:href="#DejaVuSans-41"/>
     </g>
    </g>
   </g>
   <g id="text_3">
    <g clip-path="url(#pc3ac995078)">
     <!-- C -->
     <g transform="translate(15.648284 49.834219) scale(0.125 -0.125)">
      <defs>
       <path id="DejaVuSans-43" d="M 4122 4306 
L 4122 3641 
Q 3803 3938 3442 4084 
Q 3081 4231 2675 4231 
Q 1875 4231 1450 3742 
Q 1025 3253 1025 2328 
Q 1025 1406 1450 917 
Q 1875 428 2675 428 
Q 3081 428 3442 575 
Q 3803 722 4122 1019 
L 4122 359 
Q 3791 134 3420 21 
Q 3050 -91 2638 -91 
Q 1578 -91 968 557 
Q 359 1206 359 2328 
Q 359 3453 968 4101 
Q 1578 4750 2638 4750 
Q 3056 4750 3426 4639 
Q 3797 4528 4122 4306 
z
" transform="scale(0.015625)"/>
      </defs>
      <use xlink:href="#DejaVuSans-43"/>
     </g>
    </g>
   </g>
   <g id="text_4">
    <g clip-path="url(#pc3ac995078)">
     <!-- A -->
     <g transform="translate(81.616019 76.609219) scale(0.125 -0.125)">
      <use xlink:href="#DejaVuSans-41"/>
     </g>
    </g>
   </g>
   <g id="text_5">
    <g clip-path="url(#pc3ac995078)">
     <!-- D -->
     <g transform="translate(14.7518 95.734219) scale(0.125 -0.125)">
      <defs>
       <path id="DejaVuSans-44" d="M 1259 4147 
L 1259 519 
L 2022 519 
Q 2988 519 3436 956 
Q 3884 1394 3884 2338 
Q 3884 3275 3436 3711 
Q 2988 4147 2022 4147 
L 1259 4147 
z
M 628 4666 
L 1925 4666 
Q 3281 4666 3915 4102 
Q 4550 3538 4550 2338 
Q 4550 1131 3912 565 
Q 3275 0 1925 0 
L 628 0 
L 628 4666 
z
" transform="scale(0.015625)"/>
      </defs>
      <use xlink:href="#DejaVuSans-44"/>
     </g>
    </g>
   </g>
   <g id="text_6">
    <g clip-path="url(#pc3ac995078)">
     <!-- C -->
     <g transform="translate(142.638284 120.061219) scale(0.125 -0.125)">
      <use xlink:href="#DejaVuSans-43"/>
     </g>
    </g>
   </g>
   <g id="text_7">
    <g clip-path="url(#pc3ac995078)">
     <!-- D -->
     <g transform="translate(141.7418 130.159219) scale(0.125 -0.125)">
      <use xlink:href="#DejaVuSans-44"/>
     </g>
    </g>
   </g>
   <g id="text_8">
    <g clip-path="url(#pc3ac995078)">
     <!-- B -->
     <g transform="translate(77.000628 153.109219) scale(0.125 -0.125)">
      <defs>
       <path id="DejaVuSans-42" d="M 1259 2228 
L 1259 519 
L 2272 519 
Q 2781 519 3026 730 
Q 3272 941 3272 1375 
Q 3272 1813 3026 2020 
Q 2781 2228 2272 2228 
L 1259 2228 
z
M 1259 4147 
L 1259 2741 
L 2194 2741 
Q 2656 2741 2882 2914 
Q 3109 3088 3109 3444 
Q 3109 3797 2882 3972 
Q 2656 4147 2194 4147 
L 1259 4147 
z
M 628 4666 
L 2241 4666 
Q 2963 4666 3353 4366 
Q 3744 4066 3744 3513 
Q 3744 3084 3544 2831 
Q 3344 2578 2956 2516 
Q 3422 2416 3680 2098 
Q 3938 1781 3938 1306 
Q 3938 681 3513 340 
Q 3088 0 2303 0 
L 628 0 
L 628 4666 
z
" transform="scale(0.015625)"/>
      </defs>
      <use xlink:href="#DejaVuSans-42"/>
     </g>
    </g>
   </g>
   <g id="text_9">
    <g clip-path="url(#pc3ac995078)">
     <!-- B -->
     <g transform="translate(203.990628 165.961219) scale(0.125 -0.125)">
      <use xlink:href="#DejaVuSans-42"/>
     </g>
    </g>
   </g>
   <g id="text_10">
    <g clip-path="url(#pc3ac995078)">
     <!-- C -->
     <g transform="translate(203.838284 176.059219) scale(0.125 -0.125)">
      <use xlink:href="#DejaVuSans-43"/>
     </g>
    </g>
   </g>
   <g id="text_11">
    <g clip-path="url(#pc3ac995078)">
     <!-- D -->
     <g transform="translate(137.1518 199.009219) scale(0.125 -0.125)">
      <use xlink:href="#DejaVuSans-44"/>
     </g>
    </g>
   </g>
  </g>
 </g>
 <defs>
  <clipPath id="pc3ac995078">
   <rect x="7.2" y="7.2" width="352.5936" height="206.72"/>
  </clipPath>
 </defs>
</svg>
