<svg class="main-svg" xmlns="http://www.w3.org/2000/svg" xmlns:xlink="http://www.w3.org/1999/xlink" width="700" height="1000" style="" viewBox="0 0 700 1000"><rect x="0" y="0" width="700" height="1000" style="fill: rgb(255, 255, 255); fill-opacity: 1;"/><defs id="defs-317b98"><g class="clips"><clipPath id="clip317b98xyplot" class="plotclip"><rect width="534" height="114.0625"/></clipPath><clipPath id="clip317b98x2y2plot" class="plotclip"><rect width="534" height="114.0625"/></clipPath><clipPath id="clip317b98x3y3plot" class="plotclip"><rect width="534" height="114.0625"/></clipPath><clipPath id="clip317b98x4y4plot" class="plotclip"><rect width="534" height="114.0625"/></clipPath><clipPath class="axesclip" id="clip317b98x"><rect x="86" y="0" width="534" height="1000"/></clipPath><clipPath class="axesclip" id="clip317b98y"><rect x="0" y="100" width="700" height="114.0625"/></clipPath><clipPath class="axesclip" id="clip317b98xy"><rect x="86" y="100" width="534" height="114.0625"/></clipPath><clipPath class="axesclip" id="clip317b98y2"><rect x="0" y="305.3125" width="700" height="114.0625"/></clipPath><clipPath class="axesclip" id="clip317b98xy2"><rect x="86" y="305.3125" width="534" height="114.0625"/></clipPath><clipPath class="axesclip" id="clip317b98y3"><rect x="0" y="510.625" width="700" height="114.0625"/></clipPath><clipPath class="axesclip" id="clip317b98xy3"><rect x="86" y="510.625" width="534" height="114.0625"/></clipPath><clipPath class="axesclip" id="clip317b98y4"><rect x="0" y="715.9375" width="700" height="114.0625"/></clipPath><clipPath class="axesclip" id="clip317b98xy4"><rect x="86" y="715.9375" width="534" height="114.0625"/></clipPath><clipPath class="axesclip" id="clip317b98x2"><rect x="86" y="0" width="534" height="1000"/></clipPath><clipPath class="axesclip" id="clip317b98x2y"><rect x="86" y="100" width="534" height="114.0625"/></clipPath><clipPath class="axesclip" id="clip317b98x2y2"><rect x="86" y="305.3125" width="534" height="114.0625"/></clipPath><clipPath class="axesclip" id="clip317b98x2y3"><rect x="86" y="510.625" width="534" height="114.0625"/></clipPath><clipPath class="axesclip" id="clip317b98x2y4"><rect x="86" y="715.9375" width="534" height="114.0625"/></clipPath><clipPath class="axesclip" id="clip317b98x3"><rect x="86" y="0" width="534" height="1000"/></clipPath><clipPath class="axesclip" id="clip317b98x3y"><rect x="86" y="100" width="534" height="114.0625"/></clipPath><clipPath class="axesclip" id="clip317b98x3y2"><rect x="86" y="305.3125" width="534" height="114.0625"/></clipPath><clipPath class="axesclip" id="clip317b98x3y3"><rect x="86" y="510.625" width="534" height="114.0625"/></clipPath><clipPath class="axesclip" id="clip317b98x3y4"><rect x="86" y="715.9375" width="534" height="114.0625"/></clipPath><clipPath class="axesclip" id="clip317b98x4"><rect x="86" y="0" width="534" height="1000"/></clipPath><clipPath class="axesclip" id="clip317b98x4y"><rect x="86" y="100" width="534" height="114.0625"/></clipPath><clipPath class="axesclip" id="clip317b98x4y2"><rect x="86" y="305.3125" width="534" height="114.0625"/></clipPath><clipPath class="axesclip" id="clip317b98x4y3"><rect x="86" y="510.625" width="534" height="114.0625"/></clipPath><clipPath class="axesclip" id="clip317b98x4y4"><rect x="86" y="715.9375" width="534" height="114.0625"/></clipPath></g><g class="gradients"/><g class="patterns"/></defs><g class="bglayer"><rect class="bg" x="86" y="100" width="534" height="114.0625" style="fill: rgb(229, 236, 246); fill-opacity: 1; stroke-width: 0;"/><rect class="bg" x="86" y="305.3125" width="534" height="114.0625" style="fill: rgb(229, 236, 246); fill-opacity: 1; stroke-width: 0;"/><rect class="bg" x="86" y="510.625" width="534" height="114.0625" style="fill: rgb(229, 236, 246); fill-opacity: 1; stroke-width: 0;"/><rect class="bg" x="86" y="715.9375" width="534" height="114.0625" style="fill: rgb(229, 236, 246); fill-opacity: 1; stroke-width: 0;"/></g><g class="layer-below"><g class="imagelayer"/><g class="shapelayer"/></g><g class="cartesianlayer"><g class="subplot xy"><g class="layer-subplot"><g class="shapelayer"/><g class="imagelayer"/></g><g class="minor-gridlayer"><g class="x"/><g class="y"/></g><g class="gridlayer"><g class="x"><path class="xgrid crisp" transform="translate(175,0)" d="M0,100v114.0625" style="stroke: rgb(255, 255, 255); stroke-opacity: 1; stroke-width: 1px;"/><path class="xgrid crisp" transform="translate(264,0)" d="M0,100v114.0625" style="stroke: rgb(255, 255, 255); stroke-opacity: 1; stroke-width: 1px;"/><path class="xgrid crisp" transform="translate(353,0)" d="M0,100v114.0625" style="stroke: rgb(255, 255, 255); stroke-opacity: 1; stroke-width: 1px;"/><path class="xgrid crisp" transform="translate(442,0)" d="M0,100v114.0625" style="stroke: rgb(255, 255, 255); stroke-opacity: 1; stroke-width: 1px;"/><path class="xgrid crisp" transform="translate(531,0)" d="M0,100v114.0625" style="stroke: rgb(255, 255, 255); stroke-opacity: 1; stroke-width: 1px;"/></g><g class="y"><path class="ygrid crisp" transform="translate(0,208.38)" d="M86,0h534" style="stroke: rgb(255, 255, 255); stroke-opacity: 1; stroke-width: 1px;"/><path class="ygrid crisp" transform="translate(0,182.70999999999998)" d="M86,0h534" style="stroke: rgb(255, 255, 255); stroke-opacity: 1; stroke-width: 1px;"/><path class="ygrid crisp" transform="translate(0,131.36)" d="M86,0h534" style="stroke: rgb(255, 255, 255); stroke-opacity: 1; stroke-width: 1px;"/><path class="ygrid crisp" transform="translate(0,105.68)" d="M86,0h534" style="stroke: rgb(255, 255, 255); stroke-opacity: 1; stroke-width: 1px;"/></g></g><g class="zerolinelayer"><path class="xzl zl crisp" transform="translate(86,0)" d="M0,100v114.0625" style="stroke: rgb(255, 255, 255); stroke-opacity: 1; stroke-width: 2px;"/><path class="yzl zl crisp" transform="translate(0,157.03)" d="M86,0h534" style="stroke: rgb(255, 255, 255); stroke-opacity: 1; stroke-width: 2px;"/></g><path class="xlines-below"/><path class="ylines-below"/><g class="overlines-below"/><g class="xaxislayer-below"/><g class="yaxislayer-below"/><g class="overaxes-below"/><g class="plot" transform="translate(86,100)" clip-path="url(#clip317b98xyplot)"><g class="scatterlayer mlayer"><g class="trace scatter tracec7df8e" style="stroke-miterlimit: 2; opacity: 1;"><g class="fills"/><g class="errorbars"/><g class="lines"><path class="js-line" d="M0,57.03L11.68,36.46L15.24,30.73L22.36,20.59L25.92,16.34L33.04,9.83L36.6,7.67L43.72,5.7L47.28,5.93L50.84,6.96L54.4,8.79L61.52,14.67L65.08,18.64L72.2,28.33L75.76,33.89L90,58.84L93.56,65.25L104.24,83.34L107.8,88.66L114.92,97.72L118.48,101.33L125.6,106.39L129.16,107.78L132.72,108.36L136.28,108.13L139.84,107.1L143.4,105.28L150.52,99.39L154.08,95.42L161.2,85.73L164.76,80.17L179,55.22L182.56,48.81L193.24,30.73L196.8,25.41L203.92,16.34L207.48,12.74L214.6,7.67L218.16,6.29L221.72,5.7L225.28,5.93L228.84,6.96L232.4,8.79L239.52,14.67L243.08,18.64L250.2,28.33L253.76,33.89L268,58.84L271.56,65.25L282.24,83.34L285.8,88.66L292.92,97.72L296.48,101.33L303.6,106.39L307.16,107.78L310.72,108.36L314.28,108.13L317.84,107.1L321.4,105.28L328.52,99.39L332.08,95.42L339.2,85.73L342.76,80.17L357,55.22L360.56,48.81L371.24,30.73L374.8,25.41L381.92,16.34L385.48,12.74L392.6,7.67L396.16,6.29L399.72,5.7L403.28,5.93L406.84,6.96L410.4,8.79L417.52,14.67L421.08,18.64L428.2,28.33L431.76,33.89L446,58.84L449.56,65.25L460.24,83.34L463.8,88.66L470.92,97.72L474.48,101.33L481.6,106.39L485.16,107.78L488.72,108.36L492.28,108.13L495.84,107.1L499.4,105.28L506.52,99.39L510.08,95.42L517.2,85.73L520.76,80.17L534,57.03" style="vector-effect: non-scaling-stroke; fill: none; stroke: rgb(0, 0, 0); stroke-opacity: 1; stroke-width: 2px; opacity: 1; stroke-dasharray: 9px, 9px;"/></g><g class="points"/><g class="text"/></g><g class="trace scatter trace33802c" style="stroke-miterlimit: 2; opacity: 1;"><g class="fills"/><g class="errorbars"/><g class="lines"><path class="js-line" d="M0,57.03L18.8,56.59L22.36,54.26L33.04,45.56L36.6,43.65L43.72,41.88L47.28,42.08L54.4,44.64L57.96,46.91L68.64,55.79L72.2,56.97L107.8,57.38L111.36,59.52L122.04,68.08L125.6,69.98L132.72,71.74L136.28,71.53L143.4,69L146.96,66.75L157.64,58.08L161.2,57.08L196.8,56.59L200.36,54.26L211.04,45.56L214.6,43.65L221.72,41.88L225.28,42.08L232.4,44.64L235.96,46.91L246.64,55.79L250.2,56.97L285.8,57.38L289.36,59.52L300.04,68.08L303.6,69.98L310.72,71.74L314.28,71.53L321.4,69L324.96,66.75L335.64,58.08L339.2,57.08L374.8,56.59L378.36,54.26L389.04,45.56L392.6,43.65L399.72,41.88L403.28,42.08L410.4,44.64L413.96,46.91L424.64,55.79L428.2,56.97L463.8,57.38L467.36,59.52L478.04,68.08L481.6,69.98L488.72,71.74L492.28,71.53L499.4,69L502.96,66.74L513.64,58.08L517.2,57.08L534,57.03" style="vector-effect: non-scaling-stroke; fill: none; stroke: rgb(239, 85, 59); stroke-opacity: 1; stroke-width: 2px; opacity: 1;"/></g><g class="points"/><g class="text"/></g></g></g><g class="overplot"/><path class="xlines-above crisp" d="M0,0" style="fill: none;"/><path class="ylines-above crisp" d="M0,0" style="fill: none;"/><g class="overlines-above"/><g class="xaxislayer-above"><g class="xtick"><text text-anchor="middle" x="0" y="227.0625" transform="translate(86,0)" style="font-family: Arial; font-size: 12px; fill: rgb(0, 0, 0); fill-opacity: 1; white-space: pre; opacity: 1;">0.00s</text></g><g class="xtick"><text text-anchor="middle" x="0" y="227.0625" style="font-family: Arial; font-size: 12px; fill: rgb(0, 0, 0); fill-opacity: 1; white-space: pre; opacity: 1;" transform="translate(175,0)">500µs</text></g><g class="xtick"><text text-anchor="middle" x="0" y="227.0625" style="font-family: Arial; font-size: 12px; fill: rgb(0, 0, 0); fill-opacity: 1; white-space: pre; opacity: 1;" transform="translate(264,0)">1.00ms</text></g><g class="xtick"><text text-anchor="middle" x="0" y="227.0625" style="font-family: Arial; font-size: 12px; fill: rgb(0, 0, 0); fill-opacity: 1; white-space: pre; opacity: 1;" transform="translate(353,0)">1.50ms</text></g><g class="xtick"><text text-anchor="middle" x="0" y="227.0625" style="font-family: Arial; font-size: 12px; fill: rgb(0, 0, 0); fill-opacity: 1; white-space: pre; opacity: 1;" transform="translate(442,0)">2.00ms</text></g><g class="xtick"><text text-anchor="middle" x="0" y="227.0625" style="font-family: Arial; font-size: 12px; fill: rgb(0, 0, 0); fill-opacity: 1; white-space: pre; opacity: 1;" transform="translate(531,0)">2.50ms</text></g><g class="xtick"><text text-anchor="middle" x="0" y="227.0625" style="font-family: Arial; font-size: 12px; fill: rgb(0, 0, 0); fill-opacity: 1; white-space: pre; opacity: 1;" transform="translate(620,0)">3.00ms</text></g></g><g class="yaxislayer-above"><g class="ytick"><text text-anchor="end" x="85" y="4.199999999999999" transform="translate(0,208.38)" style="font-family: Arial; font-size: 12px; fill: rgb(0, 0, 0); fill-opacity: 1; white-space: pre; opacity: 1;">−1.00V</text></g><g class="ytick"><text text-anchor="end" x="85" y="4.199999999999999" style="font-family: Arial; font-size: 12px; fill: rgb(0, 0, 0); fill-opacity: 1; white-space: pre; opacity: 1;" transform="translate(0,182.70999999999998)">−500mV</text></g><g class="ytick"><text text-anchor="end" x="85" y="4.199999999999999" style="font-family: Arial; font-size: 12px; fill: rgb(0, 0, 0); fill-opacity: 1; white-space: pre; opacity: 1;" transform="translate(0,157.03)">0.00V</text></g><g class="ytick"><text text-anchor="end" x="85" y="4.199999999999999" style="font-family: Arial; font-size: 12px; fill: rgb(0, 0, 0); fill-opacity: 1; white-space: pre; opacity: 1;" transform="translate(0,131.36)">500mV</text></g><g class="ytick"><text text-anchor="end" x="85" y="4.199999999999999" style="font-family: Arial; font-size: 12px; fill: rgb(0, 0, 0); fill-opacity: 1; white-space: pre; opacity: 1;" transform="translate(0,105.68)">1.00V</text></g></g><g class="overaxes-above"/></g><g class="subplot x2y2"><g class="layer-subplot"><g class="shapelayer"/><g class="imagelayer"/></g><g class="minor-gridlayer"><g class="x2"/><g class="y2"/></g><g class="gridlayer"><g class="x2"><path class="x2grid crisp" transform="translate(175,0)" d="M0,305.3125v114.0625" style="stroke: rgb(255, 255, 255); stroke-opacity: 1; stroke-width: 1px;"/><path class="x2grid crisp" transform="translate(264,0)" d="M0,305.3125v114.0625" style="stroke: rgb(255, 255, 255); stroke-opacity: 1; stroke-width: 1px;"/><path class="x2grid crisp" transform="translate(353,0)" d="M0,305.3125v114.0625" style="stroke: rgb(255, 255, 255); stroke-opacity: 1; stroke-width: 1px;"/><path class="x2grid crisp" transform="translate(442,0)" d="M0,305.3125v114.0625" style="stroke: rgb(255, 255, 255); stroke-opacity: 1; stroke-width: 1px;"/><path class="x2grid crisp" transform="translate(531,0)" d="M0,305.3125v114.0625" style="stroke: rgb(255, 255, 255); stroke-opacity: 1; stroke-width: 1px;"/></g><g class="y2"><path class="y2grid crisp" transform="translate(0,398.2325)" d="M86,0h534" style="stroke: rgb(255, 255, 255); stroke-opacity: 1; stroke-width: 1px;"/><path class="y2grid crisp" transform="translate(0,325.8225)" d="M86,0h534" style="stroke: rgb(255, 255, 255); stroke-opacity: 1; stroke-width: 1px;"/></g></g><g class="zerolinelayer"><path class="x2zl zl crisp" transform="translate(86,0)" d="M0,305.3125v114.0625" style="stroke: rgb(255, 255, 255); stroke-opacity: 1; stroke-width: 2px;"/><path class="y2zl zl crisp" transform="translate(0,362.0225)" d="M86,0h534" style="stroke: rgb(255, 255, 255); stroke-opacity: 1; stroke-width: 2px;"/></g><path class="xlines-below"/><path class="ylines-below"/><g class="overlines-below"/><g class="xaxislayer-below"/><g class="yaxislayer-below"/><g class="overaxes-below"/><g class="plot" transform="translate(86,305.3125)" clip-path="url(#clip317b98x2y2plot)"><g class="scatterlayer mlayer"><g class="trace scatter trace4cb590" style="stroke-miterlimit: 2; opacity: 1;"><g class="fills"/><g class="errorbars"/><g class="lines"><path class="js-line" d="M0,56.71L11.68,27.71L15.24,19.64L18.8,12.74L22.36,9.22L29.48,6.86L33.04,6.33L43.72,5.7L47.28,5.73L57.96,6.59L61.52,7.28L65.08,8.43L68.64,10.78L72.2,16.33L75.76,24.08L90,59.26L93.56,68.31L104.24,93.8L107.8,100.82L111.36,104.59L114.92,106.22L122.04,107.69L125.6,108.06L139.84,108.17L143.4,107.88L150.52,106.67L154.08,105.45L157.64,102.92L161.2,97.12L171.88,72.24L175.44,63.26L193.24,19.64L196.8,12.74L200.36,9.22L203.92,7.71L211.04,6.33L214.6,5.98L228.84,5.88L232.4,6.15L239.52,7.28L243.08,8.43L246.64,10.78L250.2,16.33L260.88,41.18L264.44,50.17L282.24,93.8L285.8,100.82L289.36,104.59L292.92,106.22L300.04,107.69L303.6,108.06L317.84,108.17L321.4,107.88L328.52,106.67L332.08,105.45L335.64,102.92L339.2,97.12L349.88,72.24L353.44,63.26L371.24,19.64L374.8,12.74L378.36,9.22L381.92,7.71L389.04,6.33L392.6,5.98L406.84,5.88L410.4,6.15L417.52,7.28L421.08,8.43L424.64,10.78L428.2,16.33L438.88,41.18L442.44,50.17L460.24,93.8L463.8,100.82L467.36,104.59L470.92,106.22L478.04,107.69L481.6,108.06L495.84,108.17L499.4,107.88L506.52,106.67L510.08,105.45L513.64,102.92L517.2,97.12L527.88,72.24L531.44,63.26L534,56.71" style="vector-effect: non-scaling-stroke; fill: none; stroke: rgb(0, 204, 150); stroke-opacity: 1; stroke-width: 2px; opacity: 1;"/></g><g class="points"/><g class="text"/></g></g></g><g class="overplot"/><path class="xlines-above crisp" d="M0,0" style="fill: none;"/><path class="ylines-above crisp" d="M0,0" style="fill: none;"/><g class="overlines-above"/><g class="xaxislayer-above"><g class="x2tick"><text text-anchor="middle" x="0" y="432.375" transform="translate(86,0)" style="font-family: Arial; font-size: 12px; fill: rgb(0, 0, 0); fill-opacity: 1; white-space: pre; opacity: 1;">0.00s</text></g><g class="x2tick"><text text-anchor="middle" x="0" y="432.375" style="font-family: Arial; font-size: 12px; fill: rgb(0, 0, 0); fill-opacity: 1; white-space: pre; opacity: 1;" transform="translate(175,0)">500µs</text></g><g class="x2tick"><text text-anchor="middle" x="0" y="432.375" style="font-family: Arial; font-size: 12px; fill: rgb(0, 0, 0); fill-opacity: 1; white-space: pre; opacity: 1;" transform="translate(264,0)">1.00ms</text></g><g class="x2tick"><text text-anchor="middle" x="0" y="432.375" style="font-family: Arial; font-size: 12px; fill: rgb(0, 0, 0); fill-opacity: 1; white-space: pre; opacity: 1;" transform="translate(353,0)">1.50ms</text></g><g class="x2tick"><text text-anchor="middle" x="0" y="432.375" style="font-family: Arial; font-size: 12px; fill: rgb(0, 0, 0); fill-opacity: 1; white-space: pre; opacity: 1;" transform="translate(442,0)">2.00ms</text></g><g class="x2tick"><text text-anchor="middle" x="0" y="432.375" style="font-family: Arial; font-size: 12px; fill: rgb(0, 0, 0); fill-opacity: 1; white-space: pre; opacity: 1;" transform="translate(531,0)">2.50ms</text></g><g class="x2tick"><text text-anchor="middle" x="0" y="432.375" style="font-family: Arial; font-size: 12px; fill: rgb(0, 0, 0); fill-opacity: 1; white-space: pre; opacity: 1;" transform="translate(620,0)">3.00ms</text></g></g><g class="yaxislayer-above"><g class="y2tick"><text text-anchor="end" x="85" y="4.199999999999999" transform="translate(0,398.2325)" style="font-family: Arial; font-size: 12px; fill: rgb(0, 0, 0); fill-opacity: 1; white-space: pre; opacity: 1;">−500mV</text></g><g class="y2tick"><text text-anchor="end" x="85" y="4.199999999999999" style="font-family: Arial; font-size: 12px; fill: rgb(0, 0, 0); fill-opacity: 1; white-space: pre; opacity: 1;" transform="translate(0,362.0225)">0.00V</text></g><g class="y2tick"><text text-anchor="end" x="85" y="4.199999999999999" style="font-family: Arial; font-size: 12px; fill: rgb(0, 0, 0); fill-opacity: 1; white-space: pre; opacity: 1;" transform="translate(0,325.8225)">500mV</text></g></g><g class="overaxes-above"/></g><g class="subplot x3y3"><g class="layer-subplot"><g class="shapelayer"/><g class="imagelayer"/></g><g class="minor-gridlayer"><g class="x3"/><g class="y3"/></g><g class="gridlayer"><g class="x3"><path class="x3grid crisp" transform="translate(175,0)" d="M0,510.625v114.0625" style="stroke: rgb(255, 255, 255); stroke-opacity: 1; stroke-width: 1px;"/><path class="x3grid crisp" transform="translate(264,0)" d="M0,510.625v114.0625" style="stroke: rgb(255, 255, 255); stroke-opacity: 1; stroke-width: 1px;"/><path class="x3grid crisp" transform="translate(353,0)" d="M0,510.625v114.0625" style="stroke: rgb(255, 255, 255); stroke-opacity: 1; stroke-width: 1px;"/><path class="x3grid crisp" transform="translate(442,0)" d="M0,510.625v114.0625" style="stroke: rgb(255, 255, 255); stroke-opacity: 1; stroke-width: 1px;"/><path class="x3grid crisp" transform="translate(531,0)" d="M0,510.625v114.0625" style="stroke: rgb(255, 255, 255); stroke-opacity: 1; stroke-width: 1px;"/></g><g class="y3"><path class="y3grid crisp" transform="translate(0,619.825)" d="M86,0h534" style="stroke: rgb(255, 255, 255); stroke-opacity: 1; stroke-width: 1px;"/><path class="y3grid crisp" transform="translate(0,515.245)" d="M86,0h534" style="stroke: rgb(255, 255, 255); stroke-opacity: 1; stroke-width: 1px;"/></g></g><g class="zerolinelayer"><path class="x3zl zl crisp" transform="translate(86,0)" d="M0,510.625v114.0625" style="stroke: rgb(255, 255, 255); stroke-opacity: 1; stroke-width: 2px;"/><path class="y3zl zl crisp" transform="translate(0,567.535)" d="M86,0h534" style="stroke: rgb(255, 255, 255); stroke-opacity: 1; stroke-width: 2px;"/></g><path class="xlines-below"/><path class="ylines-below"/><g class="overlines-below"/><g class="xaxislayer-below"/><g class="yaxislayer-below"/><g class="overaxes-below"/><g class="plot" transform="translate(86,510.625)" clip-path="url(#clip317b98x3y3plot)"><g class="scatterlayer mlayer"><g class="trace scatter trace41426c" style="stroke-miterlimit: 2; opacity: 1;"><g class="fills"/><g class="errorbars"/><g class="lines"><path class="js-line" d="M0,56.91L15.24,56.95L18.8,58.41L22.36,66.31L25.92,77.07L33.04,95.85L36.6,102.35L40.16,106.58L43.72,108.36L47.28,107.66L50.84,104.51L54.4,98.98L57.96,91.26L68.64,61.11L72.2,57.14L86.44,56.91L90,56.91L104.24,56.88L107.8,55.73L111.36,48.46L114.92,37.96L122.04,19.4L125.6,12.94L129.16,8.77L132.72,7L136.28,7.69L139.84,10.82L143.4,16.3L146.96,23.93L157.64,53.36L161.2,56.75L179,56.91L182.56,56.91L193.24,56.95L196.8,58.41L200.36,66.31L203.92,77.07L211.04,95.85L214.6,102.35L218.16,106.57L221.72,108.36L225.28,107.66L228.84,104.51L232.4,98.98L235.96,91.26L246.64,61.11L250.2,57.14L264.44,56.91L268,56.91L282.24,56.88L285.8,55.73L289.36,48.46L292.92,37.96L300.04,19.4L303.6,12.94L307.16,8.77L310.72,7L314.28,7.69L317.84,10.82L321.4,16.3L324.96,23.93L335.64,53.36L339.2,56.75L357,56.91L360.56,56.91L371.24,56.95L374.8,58.41L378.36,66.31L381.92,77.07L389.04,95.85L392.6,102.35L396.16,106.57L399.72,108.36L403.28,107.66L406.84,104.51L410.4,98.98L413.96,91.26L424.64,61.11L428.2,57.14L442.44,56.91L446,56.91L460.24,56.88L463.8,55.73L467.36,48.46L470.92,37.96L478.04,19.4L481.6,12.94L485.16,8.77L488.72,7L492.28,7.69L495.84,10.82L499.4,16.3L502.96,23.94L513.64,53.36L517.2,56.75L534,56.91" style="vector-effect: non-scaling-stroke; fill: none; stroke: rgb(0, 0, 0); stroke-opacity: 1; stroke-width: 2px; opacity: 1; stroke-dasharray: 3px, 3px;"/></g><g class="points"/><g class="text"/></g><g class="trace scatter trace30dd15" style="stroke-miterlimit: 2; opacity: 1;"><g class="fills"/><g class="errorbars"/><g class="lines"><path class="js-line" d="M0,56.91L15.24,56.88L18.8,55.43L22.36,47.57L25.92,36.86L33.04,18.21L36.6,11.58L40.16,7.54L43.72,5.71L47.28,6.4L50.84,9.54L54.4,15.02L57.96,22.66L68.64,52.74L72.2,56.69L86.44,56.91L90,56.91L193.24,56.88L196.8,55.43L200.36,47.57L203.92,36.86L211.04,18.21L214.6,11.58L218.16,7.44L221.72,5.7L225.28,6.41L228.84,9.54L232.4,15.02L235.96,22.66L246.64,52.74L250.2,56.69L264.44,56.91L268,56.91L371.24,56.88L374.8,55.43L378.36,47.57L381.92,36.86L389.04,18.21L392.6,11.58L396.16,7.44L399.72,5.7L403.28,6.41L406.84,9.54L410.4,15.02L413.96,22.66L424.64,52.74L428.2,56.69L442.44,56.91L446,56.91L534,56.91" style="vector-effect: non-scaling-stroke; fill: none; stroke: rgb(255, 161, 90); stroke-opacity: 1; stroke-width: 2px; opacity: 1;"/></g><g class="points"/><g class="text"/></g><g class="trace scatter tracebafa48" style="stroke-miterlimit: 2; opacity: 1;"><g class="fills"/><g class="errorbars"/><g class="lines"><path class="js-line" d="M0,56.91L104.24,56.89L107.8,55.74L111.36,48.5L114.92,38.04L122.04,19.57L125.6,13.14L129.16,8.89L132.72,7.15L136.28,7.85L139.84,10.97L143.4,16.41L146.96,24.08L157.64,53.38L161.2,56.75L179,56.91L182.56,56.91L282.24,56.89L285.8,55.74L289.36,48.5L292.92,38.03L300.04,19.57L303.6,13.14L307.16,8.89L310.72,7.15L314.28,7.85L317.84,10.97L321.4,16.41L324.96,24.08L335.64,53.38L339.2,56.75L357,56.91L360.56,56.91L460.24,56.89L463.8,55.74L467.36,48.5L470.92,38.03L478.04,19.57L481.6,13.14L485.16,8.89L488.72,7.15L492.28,7.85L495.84,10.97L499.4,16.41L502.96,23.99L513.64,53.38L517.2,56.75L534,56.91" style="vector-effect: non-scaling-stroke; fill: none; stroke: rgb(25, 211, 243); stroke-opacity: 1; stroke-width: 2px; opacity: 1;"/></g><g class="points"/><g class="text"/></g></g></g><g class="overplot"/><path class="xlines-above crisp" d="M0,0" style="fill: none;"/><path class="ylines-above crisp" d="M0,0" style="fill: none;"/><g class="overlines-above"/><g class="xaxislayer-above"><g class="x3tick"><text text-anchor="middle" x="0" y="637.6875" transform="translate(86,0)" style="font-family: Arial; font-size: 12px; fill: rgb(0, 0, 0); fill-opacity: 1; white-space: pre; opacity: 1;">0.00s</text></g><g class="x3tick"><text text-anchor="middle" x="0" y="637.6875" style="font-family: Arial; font-size: 12px; fill: rgb(0, 0, 0); fill-opacity: 1; white-space: pre; opacity: 1;" transform="translate(175,0)">500µs</text></g><g class="x3tick"><text text-anchor="middle" x="0" y="637.6875" style="font-family: Arial; font-size: 12px; fill: rgb(0, 0, 0); fill-opacity: 1; white-space: pre; opacity: 1;" transform="translate(264,0)">1.00ms</text></g><g class="x3tick"><text text-anchor="middle" x="0" y="637.6875" style="font-family: Arial; font-size: 12px; fill: rgb(0, 0, 0); fill-opacity: 1; white-space: pre; opacity: 1;" transform="translate(353,0)">1.50ms</text></g><g class="x3tick"><text text-anchor="middle" x="0" y="637.6875" style="font-family: Arial; font-size: 12px; fill: rgb(0, 0, 0); fill-opacity: 1; white-space: pre; opacity: 1;" transform="translate(442,0)">2.00ms</text></g><g class="x3tick"><text text-anchor="middle" x="0" y="637.6875" style="font-family: Arial; font-size: 12px; fill: rgb(0, 0, 0); fill-opacity: 1; white-space: pre; opacity: 1;" transform="translate(531,0)">2.50ms</text></g><g class="x3tick"><text text-anchor="middle" x="0" y="637.6875" style="font-family: Arial; font-size: 12px; fill: rgb(0, 0, 0); fill-opacity: 1; white-space: pre; opacity: 1;" transform="translate(620,0)">3.00ms</text></g></g><g class="yaxislayer-above"><g class="y3tick"><text text-anchor="end" x="85" y="4.199999999999999" transform="translate(0,619.825)" style="font-family: Arial; font-size: 12px; fill: rgb(0, 0, 0); fill-opacity: 1; white-space: pre; opacity: 1;">−50.0mA</text></g><g class="y3tick"><text text-anchor="end" x="85" y="4.199999999999999" style="font-family: Arial; font-size: 12px; fill: rgb(0, 0, 0); fill-opacity: 1; white-space: pre; opacity: 1;" transform="translate(0,567.535)">0.00A</text></g><g class="y3tick"><text text-anchor="end" x="85" y="4.199999999999999" style="font-family: Arial; font-size: 12px; fill: rgb(0, 0, 0); fill-opacity: 1; white-space: pre; opacity: 1;" transform="translate(0,515.245)">50.0mA</text></g></g><g class="overaxes-above"/></g><g class="subplot x4y4"><g class="layer-subplot"><g class="shapelayer"/><g class="imagelayer"/></g><g class="minor-gridlayer"><g class="x4"/><g class="y4"/></g><g class="gridlayer"><g class="x4"><path class="x4grid crisp" transform="translate(175,0)" d="M0,715.9375v114.0625" style="stroke: rgb(255, 255, 255); stroke-opacity: 1; stroke-width: 1px;"/><path class="x4grid crisp" transform="translate(264,0)" d="M0,715.9375v114.0625" style="stroke: rgb(255, 255, 255); stroke-opacity: 1; stroke-width: 1px;"/><path class="x4grid crisp" transform="translate(353,0)" d="M0,715.9375v114.0625" style="stroke: rgb(255, 255, 255); stroke-opacity: 1; stroke-width: 1px;"/><path class="x4grid crisp" transform="translate(442,0)" d="M0,715.9375v114.0625" style="stroke: rgb(255, 255, 255); stroke-opacity: 1; stroke-width: 1px;"/><path class="x4grid crisp" transform="translate(531,0)" d="M0,715.9375v114.0625" style="stroke: rgb(255, 255, 255); stroke-opacity: 1; stroke-width: 1px;"/></g><g class="y4"><path class="y4grid crisp" transform="translate(0,821.1475)" d="M86,0h534" style="stroke: rgb(255, 255, 255); stroke-opacity: 1; stroke-width: 1px;"/><path class="y4grid crisp" transform="translate(0,739.7075)" d="M86,0h534" style="stroke: rgb(255, 255, 255); stroke-opacity: 1; stroke-width: 1px;"/></g></g><g class="zerolinelayer"><path class="x4zl zl crisp" transform="translate(86,0)" d="M0,715.9375v114.0625" style="stroke: rgb(255, 255, 255); stroke-opacity: 1; stroke-width: 2px;"/><path class="y4zl zl crisp" transform="translate(0,780.4275)" d="M86,0h534" style="stroke: rgb(255, 255, 255); stroke-opacity: 1; stroke-width: 2px;"/></g><path class="xlines-below"/><path class="ylines-below"/><g class="overlines-below"/><g class="xaxislayer-below"/><g class="yaxislayer-below"/><g class="overaxes-below"/><g class="plot" transform="translate(86,715.9375)" clip-path="url(#clip317b98x4y4plot)"><g class="scatterlayer mlayer"><g class="trace scatter trace787f3e" style="stroke-miterlimit: 2; opacity: 1;"><g class="fills"/><g class="errorbars"/><g class="lines"><path class="js-line" d="M0,64.49L0.57,64.32L1.14,64.32L15.24,64.06L18.8,61.6L22.36,52.38L25.92,40.6L33.04,19.87L36.6,12.57L40.16,7.71L43.72,5.7L47.28,6.52L50.84,10.18L54.4,16.44L57.96,25.1L68.64,58.52L72.2,63.95L79.32,64.65L82.88,64.65L104.24,64.74L107.8,66.21L111.36,72.65L114.92,81.46L122.04,97.28L125.6,103.03L129.16,106.8L132.72,108.36L136.28,107.75L139.84,104.83L143.4,99.91L146.96,93.19L157.64,68.22L161.2,64.76L171.88,64.35L175.44,64.31L193.24,64.08L196.8,61.57L200.36,52.38L203.92,40.58L211.04,19.87L214.6,12.6L218.16,7.76L221.72,5.7L225.28,6.47L228.84,10.18L232.4,16.42L235.96,25.12L246.64,58.5L250.2,63.97L257.32,64.67L260.88,64.64L282.24,64.74L285.8,66.23L289.36,72.63L292.92,81.46L300.04,97.31L303.6,103L307.16,106.82L310.72,108.34L314.28,107.77L317.84,104.81L321.4,99.93L324.96,93.19L335.64,68.22L339.2,64.76L349.88,64.37L353.44,64.3L371.24,64.08L374.8,61.55L378.36,52.4L381.92,40.55L389.04,19.85L392.6,12.6L396.16,7.69L399.72,5.73L403.28,6.47L406.84,10.2L410.4,16.42L413.96,25.14L424.64,58.48L428.2,63.97L435.32,64.68L438.88,64.63L460.24,64.72L463.8,66.25L467.36,72.6L470.92,81.49L478.04,97.33L481.6,102.98L485.16,106.85L488.72,108.31L492.28,107.77L495.84,104.79L499.4,99.93L502.96,93.13L513.64,68.24L517.2,64.74L527.88,64.38L531.44,64.28L534,64.37" style="vector-effect: non-scaling-stroke; fill: none; stroke: rgb(255, 102, 146); stroke-opacity: 1; stroke-width: 2px; opacity: 1;"/></g><g class="points"/><g class="text"/></g></g></g><g class="overplot"/><path class="xlines-above crisp" d="M0,0" style="fill: none;"/><path class="ylines-above crisp" d="M0,0" style="fill: none;"/><g class="overlines-above"/><g class="xaxislayer-above"><g class="x4tick"><text text-anchor="middle" x="0" y="843" transform="translate(86,0)" style="font-family: Arial; font-size: 12px; fill: rgb(0, 0, 0); fill-opacity: 1; white-space: pre; opacity: 1;">0.00s</text></g><g class="x4tick"><text text-anchor="middle" x="0" y="843" style="font-family: Arial; font-size: 12px; fill: rgb(0, 0, 0); fill-opacity: 1; white-space: pre; opacity: 1;" transform="translate(175,0)">500µs</text></g><g class="x4tick"><text text-anchor="middle" x="0" y="843" style="font-family: Arial; font-size: 12px; fill: rgb(0, 0, 0); fill-opacity: 1; white-space: pre; opacity: 1;" transform="translate(264,0)">1.00ms</text></g><g class="x4tick"><text text-anchor="middle" x="0" y="843" style="font-family: Arial; font-size: 12px; fill: rgb(0, 0, 0); fill-opacity: 1; white-space: pre; opacity: 1;" transform="translate(353,0)">1.50ms</text></g><g class="x4tick"><text text-anchor="middle" x="0" y="843" style="font-family: Arial; font-size: 12px; fill: rgb(0, 0, 0); fill-opacity: 1; white-space: pre; opacity: 1;" transform="translate(442,0)">2.00ms</text></g><g class="x4tick"><text text-anchor="middle" x="0" y="843" style="font-family: Arial; font-size: 12px; fill: rgb(0, 0, 0); fill-opacity: 1; white-space: pre; opacity: 1;" transform="translate(531,0)">2.50ms</text></g><g class="x4tick"><text text-anchor="middle" x="0" y="843" style="font-family: Arial; font-size: 12px; fill: rgb(0, 0, 0); fill-opacity: 1; white-space: pre; opacity: 1;" transform="translate(620,0)">3.00ms</text></g></g><g class="yaxislayer-above"><g class="y4tick"><text text-anchor="end" x="85" y="4.199999999999999" transform="translate(0,821.1475)" style="font-family: Arial; font-size: 12px; fill: rgb(0, 0, 0); fill-opacity: 1; white-space: pre; opacity: 1;">−200µA</text></g><g class="y4tick"><text text-anchor="end" x="85" y="4.199999999999999" style="font-family: Arial; font-size: 12px; fill: rgb(0, 0, 0); fill-opacity: 1; white-space: pre; opacity: 1;" transform="translate(0,780.4275)">0.00A</text></g><g class="y4tick"><text text-anchor="end" x="85" y="4.199999999999999" style="font-family: Arial; font-size: 12px; fill: rgb(0, 0, 0); fill-opacity: 1; white-space: pre; opacity: 1;" transform="translate(0,739.7075)">200µA</text></g></g><g class="overaxes-above"/></g></g><g class="polarlayer"/><g class="smithlayer"/><g class="ternarylayer"/><g class="geolayer"/><g class="funnelarealayer"/><g class="pielayer"/><g class="iciclelayer"/><g class="treemaplayer"/><g class="sunburstlayer"/><g class="glimages"/><defs id="topdefs-317b98"><g class="clips"/><clipPath id="legend317b98"><rect width="452" height="48" x="0" y="0"/></clipPath></defs><g class="layer-above"><g class="imagelayer"/><g class="shapelayer"/></g><g class="infolayer"><g class="legend" pointer-events="all" transform="translate(91.34,939.4999999999999)"><rect class="bg" shape-rendering="crispEdges" style="stroke: rgb(68, 68, 68); stroke-opacity: 1; fill: rgb(255, 255, 255); fill-opacity: 1; stroke-width: 0px;" width="452" height="48" x="0" y="0"/><g class="scrollbox" transform="" clip-path="url(#legend317b98)"><g class="groups"><g class="traces" transform="translate(0,14.5)" style="opacity: 1;"><text class="legendtext" text-anchor="start" x="40" y="4.680000000000001" style="font-family: Arial; font-size: 12px; fill: rgb(0, 0, 0); fill-opacity: 1; white-space: pre;">v(Uin)</text><g class="layers" style="opacity: 1;"><g class="legendfill"/><g class="legendlines"><path class="js-line" d="M5,0h30" style="fill: none; stroke: rgb(0, 0, 0); stroke-opacity: 1; stroke-dasharray: 9px, 9px; stroke-width: 2px;"/></g><g class="legendsymbols"><g class="legendpoints"/></g></g><rect class="legendtoggle" x="0" y="-9.5" width="75.515625" height="19" style="fill: rgb(0, 0, 0); fill-opacity: 0;"/></g><g class="traces" transform="translate(121.34375,14.5)" style="opacity: 1;"><text class="legendtext" text-anchor="start" x="40" y="4.680000000000001" style="font-family: Arial; font-size: 12px; fill: rgb(0, 0, 0); fill-opacity: 1; white-space: pre;">v(Uout)</text><g class="layers" style="opacity: 1;"><g class="legendfill"/><g class="legendlines"><path class="js-line" d="M5,0h30" style="fill: none; stroke: rgb(239, 85, 59); stroke-opacity: 1; stroke-width: 2px;"/></g><g class="legendsymbols"><g class="legendpoints"/></g></g><rect class="legendtoggle" x="0" y="-9.5" width="82.84375" height="19" style="fill: rgb(0, 0, 0); fill-opacity: 0;"/></g><g class="traces" transform="translate(242.6875,14.5)" style="opacity: 1;"><text class="legendtext" text-anchor="start" x="40" y="4.680000000000001" style="font-family: Arial; font-size: 12px; fill: rgb(0, 0, 0); fill-opacity: 1; white-space: pre;">v(Uin)-v(Uout)</text><g class="layers" style="opacity: 1;"><g class="legendfill"/><g class="legendlines"><path class="js-line" d="M5,0h30" style="fill: none; stroke: rgb(0, 204, 150); stroke-opacity: 1; stroke-width: 2px;"/></g><g class="legendsymbols"><g class="legendpoints"/></g></g><rect class="legendtoggle" x="0" y="-9.5" width="118.84375" height="19" style="fill: rgb(0, 0, 0); fill-opacity: 0;"/></g><g class="traces" transform="translate(364.03125,14.5)" style="opacity: 1;"><text class="legendtext" text-anchor="start" x="40" y="4.680000000000001" style="font-family: Arial; font-size: 12px; fill: rgb(0, 0, 0); fill-opacity: 1; white-space: pre;">I(RLast)</text><g class="layers" style="opacity: 1;"><g class="legendfill"/><g class="legendlines"><path class="js-line" d="M5,0h30" style="fill: none; stroke: rgb(0, 0, 0); stroke-opacity: 1; stroke-dasharray: 3px, 3px; stroke-width: 2px;"/></g><g class="legendsymbols"><g class="legendpoints"/></g></g><rect class="legendtoggle" x="0" y="-9.5" width="85.1875" height="19" style="fill: rgb(0, 0, 0); fill-opacity: 0;"/></g><g class="traces" transform="translate(0,33.5)" style="opacity: 1;"><text class="legendtext" text-anchor="start" x="40" y="4.680000000000001" style="font-family: Arial; font-size: 12px; fill: rgb(0, 0, 0); fill-opacity: 1; white-space: pre;">Ic(T1)</text><g class="layers" style="opacity: 1;"><g class="legendfill"/><g class="legendlines"><path class="js-line" d="M5,0h30" style="fill: none; stroke: rgb(255, 161, 90); stroke-opacity: 1; stroke-width: 2px;"/></g><g class="legendsymbols"><g class="legendpoints"/></g></g><rect class="legendtoggle" x="0" y="-9.5" width="73.84375" height="19" style="fill: rgb(0, 0, 0); fill-opacity: 0;"/></g><g class="traces" transform="translate(121.34375,33.5)" style="opacity: 1;"><text class="legendtext" text-anchor="start" x="40" y="4.680000000000001" style="font-family: Arial; font-size: 12px; fill: rgb(0, 0, 0); fill-opacity: 1; white-space: pre;">Ic(T2)</text><g class="layers" style="opacity: 1;"><g class="legendfill"/><g class="legendlines"><path class="js-line" d="M5,0h30" style="fill: none; stroke: rgb(25, 211, 243); stroke-opacity: 1; stroke-width: 2px;"/></g><g class="legendsymbols"><g class="legendpoints"/></g></g><rect class="legendtoggle" x="0" y="-9.5" width="73.84375" height="19" style="fill: rgb(0, 0, 0); fill-opacity: 0;"/></g><g class="traces" transform="translate(242.6875,33.5)" style="opacity: 1;"><text class="legendtext" text-anchor="start" x="40" y="4.680000000000001" style="font-family: Arial; font-size: 12px; fill: rgb(0, 0, 0); fill-opacity: 1; white-space: pre;">I(Rshunt)</text><g class="layers" style="opacity: 1;"><g class="legendfill"/><g class="legendlines"><path class="js-line" d="M5,0h30" style="fill: none; stroke: rgb(255, 102, 146); stroke-opacity: 1; stroke-width: 2px;"/></g><g class="legendsymbols"><g class="legendpoints"/></g></g><rect class="legendtoggle" x="0" y="-9.5" width="91.859375" height="19" style="fill: rgb(0, 0, 0); fill-opacity: 0;"/></g></g></g><rect class="scrollbar" rx="20" ry="3" width="0" height="0" style="fill: rgb(128, 139, 164); fill-opacity: 1;" x="0" y="0"/></g><g class="g-gtitle"/><g class="g-xtitle"/><g class="g-x2title"/><g class="g-x3title"/><g class="g-x4title"><text class="x4title" x="353" y="870.8" text-anchor="middle" style="font-family: Arial; font-size: 14px; fill: rgb(0, 0, 0); opacity: 1; font-weight: normal; white-space: pre;">Time</text></g><g class="g-ytitle"><text class="ytitle" transform="rotate(-90,15.168750000000003,157.03125)" x="15.168750000000003" y="157.03125" text-anchor="middle" style="font-family: Arial; font-size: 14px; fill: rgb(0, 0, 0); opacity: 1; font-weight: normal; white-space: pre;">Voltage</text></g><g class="g-y2title"><text class="y2title" transform="rotate(-90,15.168750000000003,362.34375)" x="15.168750000000003" y="362.34375" text-anchor="middle" style="font-family: Arial; font-size: 14px; fill: rgb(0, 0, 0); opacity: 1; font-weight: normal; white-space: pre;">Voltage</text></g><g class="g-y3title" transform="translate(1.1748046875,0)"><text class="y3title" transform="rotate(-90,11.825000000000003,567.65625)" x="11.825000000000003" y="567.65625" text-anchor="middle" style="font-family: Arial; font-size: 14px; fill: rgb(0, 0, 0); opacity: 1; font-weight: normal; white-space: pre;">Current</text></g><g class="g-y4title"><text class="y4title" transform="rotate(-90,18.246875000000003,772.96875)" x="18.246875000000003" y="772.96875" text-anchor="middle" style="font-family: Arial; font-size: 14px; fill: rgb(0, 0, 0); opacity: 1; font-weight: normal; white-space: pre;">Current</text></g><g class="annotation" data-index="0" style="opacity: 1;"><g class="annotation-text-g" transform="rotate(0,353,89.5)"><g class="cursor-pointer" transform="translate(248,79)"><rect class="bg" x="0.5" y="0.5" width="209" height="20" style="stroke-width: 1px; stroke: rgb(0, 0, 0); stroke-opacity: 0; fill: rgb(0, 0, 0); fill-opacity: 0;"/><text class="annotation-text" text-anchor="middle" x="104.75" y="16" style="font-family: Arial; font-size: 16px; fill: rgb(0, 0, 0); fill-opacity: 1; white-space: pre;">Ein- und Ausgangsspannung</text></g></g></g><g class="annotation" data-index="1" style="opacity: 1;"><g class="annotation-text-g" transform="rotate(0,353,294.8125)"><g class="cursor-pointer" transform="translate(280,284)"><rect class="bg" x="0.5" y="0.5" width="145" height="20" style="stroke-width: 1px; stroke: rgb(0, 0, 0); stroke-opacity: 0; fill: rgb(0, 0, 0); fill-opacity: 0;"/><text class="annotation-text" text-anchor="middle" x="73.03125" y="16" style="font-family: Arial; font-size: 16px; fill: rgb(0, 0, 0); fill-opacity: 1; white-space: pre;">Spannungsdifferenz</text></g></g></g><g class="annotation" data-index="2" style="opacity: 1;"><g class="annotation-text-g" transform="rotate(0,353,500.125)"><g class="cursor-pointer" transform="translate(325,490)"><rect class="bg" x="0.5" y="0.5" width="55" height="20" style="stroke-width: 1px; stroke: rgb(0, 0, 0); stroke-opacity: 0; fill: rgb(0, 0, 0); fill-opacity: 0;"/><text class="annotation-text" text-anchor="middle" x="27.796875" y="16" style="font-family: Arial; font-size: 16px; fill: rgb(0, 0, 0); fill-opacity: 1; white-space: pre;">Ströme</text></g></g></g></g></svg>