<svg class="main-svg" xmlns="http://www.w3.org/2000/svg" xmlns:xlink="http://www.w3.org/1999/xlink" width="700" height="1000" style="" viewBox="0 0 700 1000"><rect x="0" y="0" width="700" height="1000" style="fill: rgb(255, 255, 255); fill-opacity: 1;"/><defs id="defs-14db32"><g class="clips"><clipPath id="clip14db32xyplot" class="plotclip"><rect width="606" height="125.3125"/></clipPath><clipPath id="clip14db32x2y2plot" class="plotclip"><rect width="606" height="125.3125"/></clipPath><clipPath id="clip14db32x3y3plot" class="plotclip"><rect width="606" height="125.3125"/></clipPath><clipPath id="clip14db32x4y4plot" class="plotclip"><rect width="606" height="125.3125"/></clipPath><clipPath class="axesclip" id="clip14db32x"><rect x="74" y="0" width="606" height="1000"/></clipPath><clipPath class="axesclip" id="clip14db32y"><rect x="0" y="30" width="700" height="125.3125"/></clipPath><clipPath class="axesclip" id="clip14db32xy"><rect x="74" y="30" width="606" height="125.3125"/></clipPath><clipPath class="axesclip" id="clip14db32y2"><rect x="0" y="255.5625" width="700" height="125.3125"/></clipPath><clipPath class="axesclip" id="clip14db32xy2"><rect x="74" y="255.5625" width="606" height="125.3125"/></clipPath><clipPath class="axesclip" id="clip14db32y3"><rect x="0" y="481.125" width="700" height="125.3125"/></clipPath><clipPath class="axesclip" id="clip14db32xy3"><rect x="74" y="481.125" width="606" height="125.3125"/></clipPath><clipPath class="axesclip" id="clip14db32y4"><rect x="0" y="706.6875" width="700" height="125.3125"/></clipPath><clipPath class="axesclip" id="clip14db32xy4"><rect x="74" y="706.6875" width="606" height="125.3125"/></clipPath><clipPath class="axesclip" id="clip14db32x2"><rect x="74" y="0" width="606" height="1000"/></clipPath><clipPath class="axesclip" id="clip14db32x2y"><rect x="74" y="30" width="606" height="125.3125"/></clipPath><clipPath class="axesclip" id="clip14db32x2y2"><rect x="74" y="255.5625" width="606" height="125.3125"/></clipPath><clipPath class="axesclip" id="clip14db32x2y3"><rect x="74" y="481.125" width="606" height="125.3125"/></clipPath><clipPath class="axesclip" id="clip14db32x2y4"><rect x="74" y="706.6875" width="606" height="125.3125"/></clipPath><clipPath class="axesclip" id="clip14db32x3"><rect x="74" y="0" width="606" height="1000"/></clipPath><clipPath class="axesclip" id="clip14db32x3y"><rect x="74" y="30" width="606" height="125.3125"/></clipPath><clipPath class="axesclip" id="clip14db32x3y2"><rect x="74" y="255.5625" width="606" height="125.3125"/></clipPath><clipPath class="axesclip" id="clip14db32x3y3"><rect x="74" y="481.125" width="606" height="125.3125"/></clipPath><clipPath class="axesclip" id="clip14db32x3y4"><rect x="74" y="706.6875" width="606" height="125.3125"/></clipPath><clipPath class="axesclip" id="clip14db32x4"><rect x="74" y="0" width="606" height="1000"/></clipPath><clipPath class="axesclip" id="clip14db32x4y"><rect x="74" y="30" width="606" height="125.3125"/></clipPath><clipPath class="axesclip" id="clip14db32x4y2"><rect x="74" y="255.5625" width="606" height="125.3125"/></clipPath><clipPath class="axesclip" id="clip14db32x4y3"><rect x="74" y="481.125" width="606" height="125.3125"/></clipPath><clipPath class="axesclip" id="clip14db32x4y4"><rect x="74" y="706.6875" width="606" height="125.3125"/></clipPath></g><g class="gradients"/><g class="patterns"/></defs><g class="bglayer"><rect class="bg" x="74" y="30" width="606" height="125.3125" style="fill: rgb(229, 236, 246); fill-opacity: 1; stroke-width: 0;"/><rect class="bg" x="74" y="255.5625" width="606" height="125.3125" style="fill: rgb(229, 236, 246); fill-opacity: 1; stroke-width: 0;"/><rect class="bg" x="74" y="481.125" width="606" height="125.3125" style="fill: rgb(229, 236, 246); fill-opacity: 1; stroke-width: 0;"/><rect class="bg" x="74" y="706.6875" width="606" height="125.3125" style="fill: rgb(229, 236, 246); fill-opacity: 1; stroke-width: 0;"/></g><g class="layer-below"><g class="imagelayer"/><g class="shapelayer"/></g><g class="cartesianlayer"><g class="subplot xy"><g class="layer-subplot"><g class="shapelayer"/><g class="imagelayer"/></g><g class="minor-gridlayer"><g class="x"/><g class="y"/></g><g class="gridlayer"><g class="x"><path class="xgrid crisp" transform="translate(175,0)" d="M0,30v125.3125" style="stroke: rgb(255, 255, 255); stroke-opacity: 1; stroke-width: 1px;"/><path class="xgrid crisp" transform="translate(276,0)" d="M0,30v125.3125" style="stroke: rgb(255, 255, 255); stroke-opacity: 1; stroke-width: 1px;"/><path class="xgrid crisp" transform="translate(377,0)" d="M0,30v125.3125" style="stroke: rgb(255, 255, 255); stroke-opacity: 1; stroke-width: 1px;"/><path class="xgrid crisp" transform="translate(478,0)" d="M0,30v125.3125" style="stroke: rgb(255, 255, 255); stroke-opacity: 1; stroke-width: 1px;"/><path class="xgrid crisp" transform="translate(579,0)" d="M0,30v125.3125" style="stroke: rgb(255, 255, 255); stroke-opacity: 1; stroke-width: 1px;"/></g><g class="y"><path class="ygrid crisp" transform="translate(0,149.07)" d="M74,0h606" style="stroke: rgb(255, 255, 255); stroke-opacity: 1; stroke-width: 1px;"/><path class="ygrid crisp" transform="translate(0,120.86)" d="M74,0h606" style="stroke: rgb(255, 255, 255); stroke-opacity: 1; stroke-width: 1px;"/><path class="ygrid crisp" transform="translate(0,64.45)" d="M74,0h606" style="stroke: rgb(255, 255, 255); stroke-opacity: 1; stroke-width: 1px;"/><path class="ygrid crisp" transform="translate(0,36.24)" d="M74,0h606" style="stroke: rgb(255, 255, 255); stroke-opacity: 1; stroke-width: 1px;"/></g></g><g class="zerolinelayer"><path class="xzl zl crisp" transform="translate(74,0)" d="M0,30v125.3125" style="stroke: rgb(255, 255, 255); stroke-opacity: 1; stroke-width: 2px;"/><path class="yzl zl crisp" transform="translate(0,92.66)" d="M74,0h606" style="stroke: rgb(255, 255, 255); stroke-opacity: 1; stroke-width: 2px;"/></g><path class="xlines-below"/><path class="ylines-below"/><g class="overlines-below"/><g class="xaxislayer-below"/><g class="yaxislayer-below"/><g class="overaxes-below"/><g class="plot" transform="translate(74,30)" clip-path="url(#clip14db32xyplot)"><g class="scatterlayer mlayer"><g class="trace scatter tracede983b" style="stroke-miterlimit: 2; opacity: 1;"><g class="fills"/><g class="errorbars"/><g class="lines"><path class="js-line" d="M0,62.66L9.21,46.71L13.25,40.06L21.33,27.91L25.37,22.62L33.45,13.99L37.49,10.8L45.57,6.91L49.61,6.27L53.65,6.51L57.69,7.65L61.73,9.65L65.77,12.49L73.85,20.48L77.89,25.51L85.97,37.24L90.01,43.75L118.29,91.56L122.33,97.4L130.41,107.36L134.45,111.32L142.53,116.89L146.57,118.41L150.61,119.05L154.65,118.8L158.69,117.66L162.73,115.66L170.81,109.19L174.85,104.83L182.93,94.19L186.97,88.08L203.13,60.67L207.17,53.62L219.29,33.76L223.33,27.91L231.41,17.95L235.45,13.99L243.53,8.43L247.57,6.91L251.61,6.27L255.65,6.51L259.69,7.65L263.73,9.65L271.81,16.12L275.85,20.48L283.93,31.12L287.97,37.24L304.13,64.64L308.17,71.69L320.29,91.56L324.33,97.4L332.41,107.36L336.45,111.32L344.53,116.89L348.57,118.41L352.61,119.05L356.65,118.8L360.69,117.66L364.73,115.66L372.81,109.19L376.85,104.83L384.93,94.19L388.97,88.08L405.13,60.67L409.17,53.62L421.29,33.76L425.33,27.91L433.41,17.95L437.45,13.99L445.53,8.43L449.57,6.91L453.61,6.27L457.65,6.51L461.69,7.65L465.73,9.65L473.81,16.12L477.85,20.48L485.93,31.12L489.97,37.24L506.13,64.64L510.17,71.69L522.29,91.56L526.33,97.4L534.41,107.36L538.45,111.32L546.53,116.89L550.57,118.41L554.61,119.05L558.65,118.8L562.69,117.66L566.73,115.66L574.81,109.19L578.85,104.83L586.93,94.19L590.97,88.08L606,62.66" style="vector-effect: non-scaling-stroke; fill: none; stroke: rgb(0, 0, 0); stroke-opacity: 1; stroke-width: 2px; opacity: 1; stroke-dasharray: 9px, 9px;"/></g><g class="points"/><g class="text"/></g><g class="trace scatter trace78adc3" style="stroke-miterlimit: 2; opacity: 1;"><g class="fills"/><g class="errorbars"/><g class="lines"><path class="js-line" d="M0,62.66L21.33,62.17L25.37,59.61L37.49,50.06L41.53,47.95L45.57,46.58L49.61,46.01L53.65,46.23L57.69,47.25L65.77,51.54L69.81,54.63L77.89,61.3L81.93,62.58L122.33,63.04L126.37,65.39L138.49,74.8L142.53,76.89L150.61,78.81L154.65,78.59L162.73,75.8L166.77,73.33L178.89,63.81L182.93,62.71L223.33,62.17L227.37,59.61L239.49,50.06L243.53,47.95L251.61,46.01L255.65,46.23L263.73,49.04L267.77,51.54L279.89,61.3L283.93,62.58L324.33,63.04L328.37,65.39L340.49,74.8L344.53,76.89L352.61,78.81L356.65,78.59L364.73,75.8L368.77,73.33L380.89,63.81L384.93,62.71L425.33,62.17L429.37,59.61L441.49,50.06L445.53,47.95L453.61,46.01L457.65,46.23L465.73,49.04L469.77,51.54L481.89,61.3L485.93,62.58L526.33,63.04L530.37,65.39L542.49,74.8L546.53,76.89L554.61,78.81L558.65,78.59L566.73,75.8L570.77,73.33L582.89,63.81L586.93,62.71L606,62.66" style="vector-effect: non-scaling-stroke; fill: none; stroke: rgb(239, 85, 59); stroke-opacity: 1; stroke-width: 2px; opacity: 1;"/></g><g class="points"/><g class="text"/></g></g></g><g class="overplot"/><path class="xlines-above crisp" d="M0,0" style="fill: none;"/><path class="ylines-above crisp" d="M0,0" style="fill: none;"/><g class="overlines-above"/><g class="xaxislayer-above"><g class="xtick"><text text-anchor="middle" x="0" y="168.3125" transform="translate(74,0)" style="font-family: Arial; font-size: 12px; fill: rgb(0, 0, 0); fill-opacity: 1; white-space: pre; opacity: 1;">0.00s</text></g><g class="xtick"><text text-anchor="middle" x="0" y="168.3125" style="font-family: Arial; font-size: 12px; fill: rgb(0, 0, 0); fill-opacity: 1; white-space: pre; opacity: 1;" transform="translate(175,0)">500µs</text></g><g class="xtick"><text text-anchor="middle" x="0" y="168.3125" style="font-family: Arial; font-size: 12px; fill: rgb(0, 0, 0); fill-opacity: 1; white-space: pre; opacity: 1;" transform="translate(276,0)">1.00ms</text></g><g class="xtick"><text text-anchor="middle" x="0" y="168.3125" style="font-family: Arial; font-size: 12px; fill: rgb(0, 0, 0); fill-opacity: 1; white-space: pre; opacity: 1;" transform="translate(377,0)">1.50ms</text></g><g class="xtick"><text text-anchor="middle" x="0" y="168.3125" style="font-family: Arial; font-size: 12px; fill: rgb(0, 0, 0); fill-opacity: 1; white-space: pre; opacity: 1;" transform="translate(478,0)">2.00ms</text></g><g class="xtick"><text text-anchor="middle" x="0" y="168.3125" style="font-family: Arial; font-size: 12px; fill: rgb(0, 0, 0); fill-opacity: 1; white-space: pre; opacity: 1;" transform="translate(579,0)">2.50ms</text></g><g class="xtick"><text text-anchor="middle" x="0" y="168.3125" style="font-family: Arial; font-size: 12px; fill: rgb(0, 0, 0); fill-opacity: 1; white-space: pre; opacity: 1;" transform="translate(680,0)">3.00ms</text></g></g><g class="yaxislayer-above"><g class="ytick"><text text-anchor="end" x="73" y="4.199999999999999" transform="translate(0,149.07)" style="font-family: Arial; font-size: 12px; fill: rgb(0, 0, 0); fill-opacity: 1; white-space: pre; opacity: 1;">−1.00V</text></g><g class="ytick"><text text-anchor="end" x="73" y="4.199999999999999" style="font-family: Arial; font-size: 12px; fill: rgb(0, 0, 0); fill-opacity: 1; white-space: pre; opacity: 1;" transform="translate(0,120.86)">−500mV</text></g><g class="ytick"><text text-anchor="end" x="73" y="4.199999999999999" style="font-family: Arial; font-size: 12px; fill: rgb(0, 0, 0); fill-opacity: 1; white-space: pre; opacity: 1;" transform="translate(0,92.66)">0.00V</text></g><g class="ytick"><text text-anchor="end" x="73" y="4.199999999999999" style="font-family: Arial; font-size: 12px; fill: rgb(0, 0, 0); fill-opacity: 1; white-space: pre; opacity: 1;" transform="translate(0,64.45)">500mV</text></g><g class="ytick"><text text-anchor="end" x="73" y="4.199999999999999" style="font-family: Arial; font-size: 12px; fill: rgb(0, 0, 0); fill-opacity: 1; white-space: pre; opacity: 1;" transform="translate(0,36.24)">1.00V</text></g></g><g class="overaxes-above"/></g><g class="subplot x2y2"><g class="layer-subplot"><g class="shapelayer"/><g class="imagelayer"/></g><g class="minor-gridlayer"><g class="x2"/><g class="y2"/></g><g class="gridlayer"><g class="x2"><path class="x2grid crisp" transform="translate(175,0)" d="M0,255.5625v125.3125" style="stroke: rgb(255, 255, 255); stroke-opacity: 1; stroke-width: 1px;"/><path class="x2grid crisp" transform="translate(276,0)" d="M0,255.5625v125.3125" style="stroke: rgb(255, 255, 255); stroke-opacity: 1; stroke-width: 1px;"/><path class="x2grid crisp" transform="translate(377,0)" d="M0,255.5625v125.3125" style="stroke: rgb(255, 255, 255); stroke-opacity: 1; stroke-width: 1px;"/><path class="x2grid crisp" transform="translate(478,0)" d="M0,255.5625v125.3125" style="stroke: rgb(255, 255, 255); stroke-opacity: 1; stroke-width: 1px;"/><path class="x2grid crisp" transform="translate(579,0)" d="M0,255.5625v125.3125" style="stroke: rgb(255, 255, 255); stroke-opacity: 1; stroke-width: 1px;"/></g><g class="y2"><path class="y2grid crisp" transform="translate(0,357.6425)" d="M74,0h606" style="stroke: rgb(255, 255, 255); stroke-opacity: 1; stroke-width: 1px;"/><path class="y2grid crisp" transform="translate(0,278.0925)" d="M74,0h606" style="stroke: rgb(255, 255, 255); stroke-opacity: 1; stroke-width: 1px;"/></g></g><g class="zerolinelayer"><path class="x2zl zl crisp" transform="translate(74,0)" d="M0,255.5625v125.3125" style="stroke: rgb(255, 255, 255); stroke-opacity: 1; stroke-width: 2px;"/><path class="y2zl zl crisp" transform="translate(0,317.8725)" d="M74,0h606" style="stroke: rgb(255, 255, 255); stroke-opacity: 1; stroke-width: 2px;"/></g><path class="xlines-below"/><path class="ylines-below"/><g class="overlines-below"/><g class="xaxislayer-below"/><g class="yaxislayer-below"/><g class="overaxes-below"/><g class="plot" transform="translate(74,255.5625)" clip-path="url(#clip14db32x2y2plot)"><g class="scatterlayer mlayer"><g class="trace scatter trace0a75a0" style="stroke-miterlimit: 2; opacity: 1;"><g class="fills"/><g class="errorbars"/><g class="lines"><path class="js-line" d="M0,62.31L13.25,30.44L17.29,21.57L21.33,14L25.37,10.13L33.45,7.53L37.49,6.95L49.61,6.27L53.65,6.3L65.77,7.24L69.81,8L73.85,9.26L77.89,11.84L81.93,17.94L85.97,26.46L98.09,55.12L102.13,65.11L118.29,103.05L122.33,110.76L126.37,114.91L130.41,116.7L138.49,118.31L142.53,118.72L154.65,119.01L158.69,118.84L170.81,117.19L174.85,115.85L178.89,113.07L182.93,106.7L195.05,79.37L199.09,69.5L215.25,30.44L219.29,21.57L223.33,14L227.37,10.13L235.45,7.53L239.49,6.95L251.61,6.27L255.65,6.3L267.77,7.24L271.81,8L275.85,9.26L279.89,11.84L283.93,17.94L287.97,26.46L300.09,55.12L304.13,65.11L320.29,103.05L324.33,110.76L328.37,114.91L332.41,116.7L340.49,118.31L344.53,118.72L356.65,119.01L360.69,118.84L372.81,117.19L376.85,115.85L380.89,113.07L384.93,106.7L397.05,79.37L401.09,69.5L417.25,30.44L421.29,21.57L425.33,14L429.37,10.13L437.45,7.53L441.49,6.95L453.61,6.27L457.65,6.3L469.77,7.24L473.81,8L477.85,9.26L481.89,11.84L485.93,17.94L489.97,26.46L502.09,55.12L506.13,65.11L522.29,103.05L526.33,110.76L530.37,114.91L534.41,116.7L542.49,118.31L546.53,118.72L558.65,119.01L562.69,118.84L574.81,117.19L578.85,115.85L582.89,113.07L586.93,106.7L599.05,79.37L603.09,69.5L606,62.31" style="vector-effect: non-scaling-stroke; fill: none; stroke: rgb(0, 204, 150); stroke-opacity: 1; stroke-width: 2px; opacity: 1;"/></g><g class="points"/><g class="text"/></g></g></g><g class="overplot"/><path class="xlines-above crisp" d="M0,0" style="fill: none;"/><path class="ylines-above crisp" d="M0,0" style="fill: none;"/><g class="overlines-above"/><g class="xaxislayer-above"><g class="x2tick"><text text-anchor="middle" x="0" y="393.875" transform="translate(74,0)" style="font-family: Arial; font-size: 12px; fill: rgb(0, 0, 0); fill-opacity: 1; white-space: pre; opacity: 1;">0.00s</text></g><g class="x2tick"><text text-anchor="middle" x="0" y="393.875" style="font-family: Arial; font-size: 12px; fill: rgb(0, 0, 0); fill-opacity: 1; white-space: pre; opacity: 1;" transform="translate(175,0)">500µs</text></g><g class="x2tick"><text text-anchor="middle" x="0" y="393.875" style="font-family: Arial; font-size: 12px; fill: rgb(0, 0, 0); fill-opacity: 1; white-space: pre; opacity: 1;" transform="translate(276,0)">1.00ms</text></g><g class="x2tick"><text text-anchor="middle" x="0" y="393.875" style="font-family: Arial; font-size: 12px; fill: rgb(0, 0, 0); fill-opacity: 1; white-space: pre; opacity: 1;" transform="translate(377,0)">1.50ms</text></g><g class="x2tick"><text text-anchor="middle" x="0" y="393.875" style="font-family: Arial; font-size: 12px; fill: rgb(0, 0, 0); fill-opacity: 1; white-space: pre; opacity: 1;" transform="translate(478,0)">2.00ms</text></g><g class="x2tick"><text text-anchor="middle" x="0" y="393.875" style="font-family: Arial; font-size: 12px; fill: rgb(0, 0, 0); fill-opacity: 1; white-space: pre; opacity: 1;" transform="translate(579,0)">2.50ms</text></g><g class="x2tick"><text text-anchor="middle" x="0" y="393.875" style="font-family: Arial; font-size: 12px; fill: rgb(0, 0, 0); fill-opacity: 1; white-space: pre; opacity: 1;" transform="translate(680,0)">3.00ms</text></g></g><g class="yaxislayer-above"><g class="y2tick"><text text-anchor="end" x="73" y="4.199999999999999" transform="translate(0,357.6425)" style="font-family: Arial; font-size: 12px; fill: rgb(0, 0, 0); fill-opacity: 1; white-space: pre; opacity: 1;">−500mV</text></g><g class="y2tick"><text text-anchor="end" x="73" y="4.199999999999999" style="font-family: Arial; font-size: 12px; fill: rgb(0, 0, 0); fill-opacity: 1; white-space: pre; opacity: 1;" transform="translate(0,317.8725)">0.00V</text></g><g class="y2tick"><text text-anchor="end" x="73" y="4.199999999999999" style="font-family: Arial; font-size: 12px; fill: rgb(0, 0, 0); fill-opacity: 1; white-space: pre; opacity: 1;" transform="translate(0,278.0925)">500mV</text></g></g><g class="overaxes-above"/></g><g class="subplot x3y3"><g class="layer-subplot"><g class="shapelayer"/><g class="imagelayer"/></g><g class="minor-gridlayer"><g class="x3"/><g class="y3"/></g><g class="gridlayer"><g class="x3"><path class="x3grid crisp" transform="translate(175,0)" d="M0,481.125v125.3125" style="stroke: rgb(255, 255, 255); stroke-opacity: 1; stroke-width: 1px;"/><path class="x3grid crisp" transform="translate(276,0)" d="M0,481.125v125.3125" style="stroke: rgb(255, 255, 255); stroke-opacity: 1; stroke-width: 1px;"/><path class="x3grid crisp" transform="translate(377,0)" d="M0,481.125v125.3125" style="stroke: rgb(255, 255, 255); stroke-opacity: 1; stroke-width: 1px;"/><path class="x3grid crisp" transform="translate(478,0)" d="M0,481.125v125.3125" style="stroke: rgb(255, 255, 255); stroke-opacity: 1; stroke-width: 1px;"/><path class="x3grid crisp" transform="translate(579,0)" d="M0,481.125v125.3125" style="stroke: rgb(255, 255, 255); stroke-opacity: 1; stroke-width: 1px;"/></g><g class="y3"><path class="y3grid crisp" transform="translate(0,601.095)" d="M74,0h606" style="stroke: rgb(255, 255, 255); stroke-opacity: 1; stroke-width: 1px;"/><path class="y3grid crisp" transform="translate(0,486.205)" d="M74,0h606" style="stroke: rgb(255, 255, 255); stroke-opacity: 1; stroke-width: 1px;"/></g></g><g class="zerolinelayer"><path class="x3zl zl crisp" transform="translate(74,0)" d="M0,481.125v125.3125" style="stroke: rgb(255, 255, 255); stroke-opacity: 1; stroke-width: 2px;"/><path class="y3zl zl crisp" transform="translate(0,543.655)" d="M74,0h606" style="stroke: rgb(255, 255, 255); stroke-opacity: 1; stroke-width: 2px;"/></g><path class="xlines-below"/><path class="ylines-below"/><g class="overlines-below"/><g class="xaxislayer-below"/><g class="yaxislayer-below"/><g class="overaxes-below"/><g class="plot" transform="translate(74,481.125)" clip-path="url(#clip14db32x3y3plot)"><g class="scatterlayer mlayer"><g class="trace scatter tracec14ee9" style="stroke-miterlimit: 2; opacity: 1;"><g class="fills"/><g class="errorbars"/><g class="lines"><path class="js-line" d="M0,62.53L17.29,62.57L21.33,64.17L25.37,72.86L29.41,84.67L37.49,105.3L41.53,112.44L45.57,117.09L49.61,119.05L53.65,118.28L57.69,114.81L61.73,108.74L65.77,100.27L77.89,67.14L81.93,62.77L98.09,62.53L102.13,62.53L118.29,62.5L122.33,61.23L126.37,53.24L130.41,41.7L138.49,21.32L142.53,14.22L146.57,9.64L150.61,7.69L154.65,8.45L158.69,11.89L162.73,17.91L166.77,26.29L178.89,58.62L182.93,62.35L203.13,62.53L207.17,62.53L219.29,62.57L223.33,64.17L227.37,72.86L231.41,84.67L239.49,105.3L243.53,112.44L247.57,117.08L251.61,119.05L255.65,118.28L259.69,114.81L263.73,108.74L267.77,100.27L279.89,67.14L283.93,62.77L300.09,62.53L304.13,62.53L320.29,62.5L324.33,61.23L328.37,53.24L332.41,41.7L340.49,21.32L344.53,14.22L348.57,9.64L352.61,7.69L356.65,8.45L360.69,11.89L364.73,17.91L368.77,26.29L380.89,58.62L384.93,62.35L405.13,62.53L409.17,62.53L421.29,62.57L425.33,64.17L429.37,72.86L433.41,84.67L441.49,105.3L445.53,112.44L449.57,117.08L453.61,119.05L457.65,118.28L461.69,114.81L465.73,108.74L469.77,100.27L481.89,67.14L485.93,62.77L502.09,62.53L506.13,62.53L522.29,62.5L526.33,61.23L530.37,53.24L534.41,41.7L542.49,21.32L546.53,14.22L550.57,9.64L554.61,7.69L558.65,8.45L562.69,11.89L566.73,17.91L570.77,26.31L582.89,58.62L586.93,62.35L606,62.53" style="vector-effect: non-scaling-stroke; fill: none; stroke: rgb(0, 0, 0); stroke-opacity: 1; stroke-width: 2px; opacity: 1; stroke-dasharray: 3px, 3px;"/></g><g class="points"/><g class="text"/></g><g class="trace scatter trace804f33" style="stroke-miterlimit: 2; opacity: 1;"><g class="fills"/><g class="errorbars"/><g class="lines"><path class="js-line" d="M0,62.53L17.29,62.49L21.33,60.9L25.37,52.27L29.41,40.5L37.49,20L41.53,12.72L45.57,8.28L49.61,6.28L53.65,7.03L57.69,10.48L61.73,16.51L65.77,24.9L77.89,57.95L81.93,62.29L98.09,62.53L102.13,62.53L219.29,62.49L223.33,60.9L227.37,52.27L231.41,40.5L239.49,20L243.53,12.72L247.57,8.17L251.61,6.27L255.65,7.04L259.69,10.48L263.73,16.51L267.77,24.9L279.89,57.95L283.93,62.29L300.09,62.53L304.13,62.53L421.29,62.49L425.33,60.9L429.37,52.27L433.41,40.5L441.49,20L445.53,12.72L449.57,8.17L453.61,6.27L457.65,7.04L461.69,10.48L465.73,16.51L469.77,24.9L481.89,57.95L485.93,62.29L502.09,62.53L506.13,62.53L606,62.53" style="vector-effect: non-scaling-stroke; fill: none; stroke: rgb(255, 161, 90); stroke-opacity: 1; stroke-width: 2px; opacity: 1;"/></g><g class="points"/><g class="text"/></g><g class="trace scatter tracebd8987" style="stroke-miterlimit: 2; opacity: 1;"><g class="fills"/><g class="errorbars"/><g class="lines"><path class="js-line" d="M0,62.53L118.29,62.5L122.33,61.24L126.37,53.28L130.41,41.8L138.49,21.5L142.53,14.44L146.57,9.77L150.61,7.85L154.65,8.63L158.69,12.05L162.73,18.03L166.77,26.45L178.89,58.64L182.93,62.35L203.13,62.53L207.17,62.53L320.29,62.5L324.33,61.24L328.37,53.28L332.41,41.78L340.49,21.5L344.53,14.44L348.57,9.77L352.61,7.85L356.65,8.63L360.69,12.05L364.73,18.03L368.77,26.45L380.89,58.64L384.93,62.35L405.13,62.53L409.17,62.53L522.29,62.5L526.33,61.24L530.37,53.28L534.41,41.78L542.49,21.5L546.53,14.44L550.57,9.77L554.61,7.85L558.65,8.63L562.69,12.05L566.73,18.03L570.77,26.35L582.89,58.64L586.93,62.35L606,62.53" style="vector-effect: non-scaling-stroke; fill: none; stroke: rgb(25, 211, 243); stroke-opacity: 1; stroke-width: 2px; opacity: 1;"/></g><g class="points"/><g class="text"/></g></g></g><g class="overplot"/><path class="xlines-above crisp" d="M0,0" style="fill: none;"/><path class="ylines-above crisp" d="M0,0" style="fill: none;"/><g class="overlines-above"/><g class="xaxislayer-above"><g class="x3tick"><text text-anchor="middle" x="0" y="619.4375" transform="translate(74,0)" style="font-family: Arial; font-size: 12px; fill: rgb(0, 0, 0); fill-opacity: 1; white-space: pre; opacity: 1;">0.00s</text></g><g class="x3tick"><text text-anchor="middle" x="0" y="619.4375" style="font-family: Arial; font-size: 12px; fill: rgb(0, 0, 0); fill-opacity: 1; white-space: pre; opacity: 1;" transform="translate(175,0)">500µs</text></g><g class="x3tick"><text text-anchor="middle" x="0" y="619.4375" style="font-family: Arial; font-size: 12px; fill: rgb(0, 0, 0); fill-opacity: 1; white-space: pre; opacity: 1;" transform="translate(276,0)">1.00ms</text></g><g class="x3tick"><text text-anchor="middle" x="0" y="619.4375" style="font-family: Arial; font-size: 12px; fill: rgb(0, 0, 0); fill-opacity: 1; white-space: pre; opacity: 1;" transform="translate(377,0)">1.50ms</text></g><g class="x3tick"><text text-anchor="middle" x="0" y="619.4375" style="font-family: Arial; font-size: 12px; fill: rgb(0, 0, 0); fill-opacity: 1; white-space: pre; opacity: 1;" transform="translate(478,0)">2.00ms</text></g><g class="x3tick"><text text-anchor="middle" x="0" y="619.4375" style="font-family: Arial; font-size: 12px; fill: rgb(0, 0, 0); fill-opacity: 1; white-space: pre; opacity: 1;" transform="translate(579,0)">2.50ms</text></g><g class="x3tick"><text text-anchor="middle" x="0" y="619.4375" style="font-family: Arial; font-size: 12px; fill: rgb(0, 0, 0); fill-opacity: 1; white-space: pre; opacity: 1;" transform="translate(680,0)">3.00ms</text></g></g><g class="yaxislayer-above"><g class="y3tick"><text text-anchor="end" x="73" y="4.199999999999999" transform="translate(0,601.095)" style="font-family: Arial; font-size: 12px; fill: rgb(0, 0, 0); fill-opacity: 1; white-space: pre; opacity: 1;">−50.0mA</text></g><g class="y3tick"><text text-anchor="end" x="73" y="4.199999999999999" style="font-family: Arial; font-size: 12px; fill: rgb(0, 0, 0); fill-opacity: 1; white-space: pre; opacity: 1;" transform="translate(0,543.655)">0.00A</text></g><g class="y3tick"><text text-anchor="end" x="73" y="4.199999999999999" style="font-family: Arial; font-size: 12px; fill: rgb(0, 0, 0); fill-opacity: 1; white-space: pre; opacity: 1;" transform="translate(0,486.205)">50.0mA</text></g></g><g class="overaxes-above"/></g><g class="subplot x4y4"><g class="layer-subplot"><g class="shapelayer"/><g class="imagelayer"/></g><g class="minor-gridlayer"><g class="x4"/><g class="y4"/></g><g class="gridlayer"><g class="x4"><path class="x4grid crisp" transform="translate(175,0)" d="M0,706.6875v125.3125" style="stroke: rgb(255, 255, 255); stroke-opacity: 1; stroke-width: 1px;"/><path class="x4grid crisp" transform="translate(276,0)" d="M0,706.6875v125.3125" style="stroke: rgb(255, 255, 255); stroke-opacity: 1; stroke-width: 1px;"/><path class="x4grid crisp" transform="translate(377,0)" d="M0,706.6875v125.3125" style="stroke: rgb(255, 255, 255); stroke-opacity: 1; stroke-width: 1px;"/><path class="x4grid crisp" transform="translate(478,0)" d="M0,706.6875v125.3125" style="stroke: rgb(255, 255, 255); stroke-opacity: 1; stroke-width: 1px;"/><path class="x4grid crisp" transform="translate(579,0)" d="M0,706.6875v125.3125" style="stroke: rgb(255, 255, 255); stroke-opacity: 1; stroke-width: 1px;"/></g><g class="y4"><path class="y4grid crisp" transform="translate(0,822.2675)" d="M74,0h606" style="stroke: rgb(255, 255, 255); stroke-opacity: 1; stroke-width: 1px;"/><path class="y4grid crisp" transform="translate(0,732.8075)" d="M74,0h606" style="stroke: rgb(255, 255, 255); stroke-opacity: 1; stroke-width: 1px;"/></g></g><g class="zerolinelayer"><path class="x4zl zl crisp" transform="translate(74,0)" d="M0,706.6875v125.3125" style="stroke: rgb(255, 255, 255); stroke-opacity: 1; stroke-width: 2px;"/><path class="y4zl zl crisp" transform="translate(0,777.5375)" d="M74,0h606" style="stroke: rgb(255, 255, 255); stroke-opacity: 1; stroke-width: 2px;"/></g><path class="xlines-below"/><path class="ylines-below"/><g class="overlines-below"/><g class="xaxislayer-below"/><g class="yaxislayer-below"/><g class="overaxes-below"/><g class="plot" transform="translate(74,706.6875)" clip-path="url(#clip14db32x4y4plot)"><g class="scatterlayer mlayer"><g class="trace scatter tracea503c9" style="stroke-miterlimit: 2; opacity: 1;"><g class="fills"/><g class="errorbars"/><g class="lines"><path class="js-line" d="M0,70.85L0.65,70.66L1.29,70.66L17.29,70.38L21.33,67.67L25.37,57.54L29.41,44.6L37.49,21.83L41.53,13.81L45.57,8.48L49.61,6.27L53.65,7.16L57.69,11.18L61.73,18.06L65.77,27.57L77.89,64.3L81.93,70.25L90.01,71.02L94.05,71.03L118.29,71.12L122.33,72.74L126.37,79.81L130.41,89.5L138.49,106.88L142.53,113.19L146.57,117.33L150.61,119.05L154.65,118.38L158.69,115.17L162.73,109.76L166.77,102.39L178.89,74.95L182.93,71.15L195.05,70.7L199.09,70.66L219.29,70.4L223.33,67.65L227.37,57.54L231.41,44.58L239.49,21.83L243.53,13.84L247.57,8.53L251.61,6.27L255.65,7.11L259.69,11.18L263.73,18.04L267.77,27.6L279.89,64.27L283.93,70.28L292.01,71.05L296.05,71.02L320.29,71.12L324.33,72.76L328.37,79.79L332.41,89.5L340.49,106.9L344.53,113.16L348.57,117.36L352.61,119.02L356.65,118.4L360.69,115.15L364.73,109.79L368.77,102.39L380.89,74.95L384.93,71.15L397.05,70.71L401.09,70.64L421.29,70.4L425.33,67.62L429.37,57.57L433.41,44.55L441.49,21.81L445.53,13.84L449.57,8.45L453.61,6.29L457.65,7.11L461.69,11.21L465.73,18.04L469.77,27.62L481.89,64.25L485.93,70.28L494.01,71.06L498.05,71L522.29,71.1L526.33,72.79L530.37,79.76L534.41,89.52L542.49,106.93L546.53,113.14L550.57,117.38L554.61,119L558.65,118.4L562.69,115.12L566.73,109.79L570.77,102.31L582.89,74.97L586.93,71.12L599.05,70.73L603.09,70.62L606,70.71" style="vector-effect: non-scaling-stroke; fill: none; stroke: rgb(255, 102, 146); stroke-opacity: 1; stroke-width: 2px; opacity: 1;"/></g><g class="points"/><g class="text"/></g></g></g><g class="overplot"/><path class="xlines-above crisp" d="M0,0" style="fill: none;"/><path class="ylines-above crisp" d="M0,0" style="fill: none;"/><g class="overlines-above"/><g class="xaxislayer-above"><g class="x4tick"><text text-anchor="middle" x="0" y="845" transform="translate(74,0)" style="font-family: Arial; font-size: 12px; fill: rgb(0, 0, 0); fill-opacity: 1; white-space: pre; opacity: 1;">0.00s</text></g><g class="x4tick"><text text-anchor="middle" x="0" y="845" style="font-family: Arial; font-size: 12px; fill: rgb(0, 0, 0); fill-opacity: 1; white-space: pre; opacity: 1;" transform="translate(175,0)">500µs</text></g><g class="x4tick"><text text-anchor="middle" x="0" y="845" style="font-family: Arial; font-size: 12px; fill: rgb(0, 0, 0); fill-opacity: 1; white-space: pre; opacity: 1;" transform="translate(276,0)">1.00ms</text></g><g class="x4tick"><text text-anchor="middle" x="0" y="845" style="font-family: Arial; font-size: 12px; fill: rgb(0, 0, 0); fill-opacity: 1; white-space: pre; opacity: 1;" transform="translate(377,0)">1.50ms</text></g><g class="x4tick"><text text-anchor="middle" x="0" y="845" style="font-family: Arial; font-size: 12px; fill: rgb(0, 0, 0); fill-opacity: 1; white-space: pre; opacity: 1;" transform="translate(478,0)">2.00ms</text></g><g class="x4tick"><text text-anchor="middle" x="0" y="845" style="font-family: Arial; font-size: 12px; fill: rgb(0, 0, 0); fill-opacity: 1; white-space: pre; opacity: 1;" transform="translate(579,0)">2.50ms</text></g><g class="x4tick"><text text-anchor="middle" x="0" y="845" style="font-family: Arial; font-size: 12px; fill: rgb(0, 0, 0); fill-opacity: 1; white-space: pre; opacity: 1;" transform="translate(680,0)">3.00ms</text></g></g><g class="yaxislayer-above"><g class="y4tick"><text text-anchor="end" x="73" y="4.199999999999999" transform="translate(0,822.2675)" style="font-family: Arial; font-size: 12px; fill: rgb(0, 0, 0); fill-opacity: 1; white-space: pre; opacity: 1;">−200µA</text></g><g class="y4tick"><text text-anchor="end" x="73" y="4.199999999999999" style="font-family: Arial; font-size: 12px; fill: rgb(0, 0, 0); fill-opacity: 1; white-space: pre; opacity: 1;" transform="translate(0,777.5375)">0.00A</text></g><g class="y4tick"><text text-anchor="end" x="73" y="4.199999999999999" style="font-family: Arial; font-size: 12px; fill: rgb(0, 0, 0); fill-opacity: 1; white-space: pre; opacity: 1;" transform="translate(0,732.8075)">200µA</text></g></g><g class="overaxes-above"/></g></g><g class="polarlayer"/><g class="smithlayer"/><g class="ternarylayer"/><g class="geolayer"/><g class="funnelarealayer"/><g class="pielayer"/><g class="iciclelayer"/><g class="treemaplayer"/><g class="sunburstlayer"/><g class="glimages"/><defs id="topdefs-14db32"><g class="clips"/><clipPath id="legend14db32"><rect width="562" height="48" x="0" y="0"/></clipPath></defs><g class="layer-above"><g class="imagelayer"/><g class="shapelayer"/></g><g class="infolayer"><g class="legend" pointer-events="all" transform="translate(80.06,952)"><rect class="bg" shape-rendering="crispEdges" style="stroke: rgb(68, 68, 68); stroke-opacity: 1; fill: rgb(255, 255, 255); fill-opacity: 1; stroke-width: 0px;" width="562" height="48" x="0" y="0"/><g class="scrollbox" transform="" clip-path="url(#legend14db32)"><g class="groups"><g class="traces" transform="translate(0,14.5)" style="opacity: 1;"><text class="legendtext" text-anchor="start" x="40" y="4.680000000000001" style="font-family: Arial; font-size: 12px; fill: rgb(0, 0, 0); fill-opacity: 1; white-space: pre;">v(Uin)</text><g class="layers" style="opacity: 1;"><g class="legendfill"/><g class="legendlines"><path class="js-line" d="M5,0h30" style="fill: none; stroke: rgb(0, 0, 0); stroke-opacity: 1; stroke-dasharray: 9px, 9px; stroke-width: 2px;"/></g><g class="legendsymbols"><g class="legendpoints"/></g></g><rect class="legendtoggle" x="0" y="-9.5" width="75.515625" height="19" style="fill: rgb(0, 0, 0); fill-opacity: 0;"/></g><g class="traces" transform="translate(121.34375,14.5)" style="opacity: 1;"><text class="legendtext" text-anchor="start" x="40" y="4.680000000000001" style="font-family: Arial; font-size: 12px; fill: rgb(0, 0, 0); fill-opacity: 1; white-space: pre;">v(Uout)</text><g class="layers" style="opacity: 1;"><g class="legendfill"/><g class="legendlines"><path class="js-line" d="M5,0h30" style="fill: none; stroke: rgb(239, 85, 59); stroke-opacity: 1; stroke-width: 2px;"/></g><g class="legendsymbols"><g class="legendpoints"/></g></g><rect class="legendtoggle" x="0" y="-9.5" width="82.84375" height="19" style="fill: rgb(0, 0, 0); fill-opacity: 0;"/></g><g class="traces" transform="translate(242.6875,14.5)" style="opacity: 1;"><text class="legendtext" text-anchor="start" x="40" y="4.680000000000001" style="font-family: Arial; font-size: 12px; fill: rgb(0, 0, 0); fill-opacity: 1; white-space: pre;">v(Uin)-v(Uout)</text><g class="layers" style="opacity: 1;"><g class="legendfill"/><g class="legendlines"><path class="js-line" d="M5,0h30" style="fill: none; stroke: rgb(0, 204, 150); stroke-opacity: 1; stroke-width: 2px;"/></g><g class="legendsymbols"><g class="legendpoints"/></g></g><rect class="legendtoggle" x="0" y="-9.5" width="118.84375" height="19" style="fill: rgb(0, 0, 0); fill-opacity: 0;"/></g><g class="traces" transform="translate(364.03125,14.5)" style="opacity: 1;"><text class="legendtext" text-anchor="start" x="40" y="4.680000000000001" style="font-family: Arial; font-size: 12px; fill: rgb(0, 0, 0); fill-opacity: 1; white-space: pre;">I(RLast)</text><g class="layers" style="opacity: 1;"><g class="legendfill"/><g class="legendlines"><path class="js-line" d="M5,0h30" style="fill: none; stroke: rgb(0, 0, 0); stroke-opacity: 1; stroke-dasharray: 3px, 3px; stroke-width: 2px;"/></g><g class="legendsymbols"><g class="legendpoints"/></g></g><rect class="legendtoggle" x="0" y="-9.5" width="85.1875" height="19" style="fill: rgb(0, 0, 0); fill-opacity: 0;"/></g><g class="traces" transform="translate(485.375,14.5)" style="opacity: 1;"><text class="legendtext" text-anchor="start" x="40" y="4.680000000000001" style="font-family: Arial; font-size: 12px; fill: rgb(0, 0, 0); fill-opacity: 1; white-space: pre;">Ic(T1)</text><g class="layers" style="opacity: 1;"><g class="legendfill"/><g class="legendlines"><path class="js-line" d="M5,0h30" style="fill: none; stroke: rgb(255, 161, 90); stroke-opacity: 1; stroke-width: 2px;"/></g><g class="legendsymbols"><g class="legendpoints"/></g></g><rect class="legendtoggle" x="0" y="-9.5" width="73.84375" height="19" style="fill: rgb(0, 0, 0); fill-opacity: 0;"/></g><g class="traces" transform="translate(0,33.5)" style="opacity: 1;"><text class="legendtext" text-anchor="start" x="40" y="4.680000000000001" style="font-family: Arial; font-size: 12px; fill: rgb(0, 0, 0); fill-opacity: 1; white-space: pre;">Ic(T2)</text><g class="layers" style="opacity: 1;"><g class="legendfill"/><g class="legendlines"><path class="js-line" d="M5,0h30" style="fill: none; stroke: rgb(25, 211, 243); stroke-opacity: 1; stroke-width: 2px;"/></g><g class="legendsymbols"><g class="legendpoints"/></g></g><rect class="legendtoggle" x="0" y="-9.5" width="73.84375" height="19" style="fill: rgb(0, 0, 0); fill-opacity: 0;"/></g><g class="traces" transform="translate(121.34375,33.5)" style="opacity: 1;"><text class="legendtext" text-anchor="start" x="40" y="4.680000000000001" style="font-family: Arial; font-size: 12px; fill: rgb(0, 0, 0); fill-opacity: 1; white-space: pre;">I(Rshunt)</text><g class="layers" style="opacity: 1;"><g class="legendfill"/><g class="legendlines"><path class="js-line" d="M5,0h30" style="fill: none; stroke: rgb(255, 102, 146); stroke-opacity: 1; stroke-width: 2px;"/></g><g class="legendsymbols"><g class="legendpoints"/></g></g><rect class="legendtoggle" x="0" y="-9.5" width="91.859375" height="19" style="fill: rgb(0, 0, 0); fill-opacity: 0;"/></g></g></g><rect class="scrollbar" rx="20" ry="3" width="0" height="0" style="fill: rgb(128, 139, 164); fill-opacity: 1;" x="0" y="0"/></g><g class="g-gtitle"/><g class="g-xtitle"/><g class="g-x2title"/><g class="g-x3title"/><g class="g-x4title"><text class="x4title" x="377" y="872.8" text-anchor="middle" style="font-family: Arial; font-size: 14px; fill: rgb(0, 0, 0); opacity: 1; font-weight: normal; white-space: pre;">Time</text></g><g class="g-ytitle" transform="translate(9.8310546875,0)"><text class="ytitle" transform="rotate(-90,3.168750000000003,92.65625)" x="3.168750000000003" y="92.65625" text-anchor="middle" style="font-family: Arial; font-size: 14px; fill: rgb(0, 0, 0); opacity: 1; font-weight: normal; white-space: pre;">Voltage</text></g><g class="g-y2title" transform="translate(9.8310546875,0)"><text class="y2title" transform="rotate(-90,3.168750000000003,318.21875)" x="3.168750000000003" y="318.21875" text-anchor="middle" style="font-family: Arial; font-size: 14px; fill: rgb(0, 0, 0); opacity: 1; font-weight: normal; white-space: pre;">Voltage</text></g><g class="g-y3title" transform="translate(13.1748046875,0)"><text class="y3title" transform="rotate(-90,-0.17499999999999716,543.78125)" x="-0.17499999999999716" y="543.78125" text-anchor="middle" style="font-family: Arial; font-size: 14px; fill: rgb(0, 0, 0); opacity: 1; font-weight: normal; white-space: pre;">Current</text></g><g class="g-y4title" transform="translate(6.7529296875,0)"><text class="y4title" transform="rotate(-90,6.246875000000003,769.34375)" x="6.246875000000003" y="769.34375" text-anchor="middle" style="font-family: Arial; font-size: 14px; fill: rgb(0, 0, 0); opacity: 1; font-weight: normal; white-space: pre;">Current</text></g><g class="annotation" data-index="0" style="opacity: 1;"><g class="annotation-text-g" transform="rotate(0,377,19.499999999999993)"><g class="cursor-pointer" transform="translate(272,9)"><rect class="bg" x="0.5" y="0.5" width="209" height="20" style="stroke-width: 1px; stroke: rgb(0, 0, 0); stroke-opacity: 0; fill: rgb(0, 0, 0); fill-opacity: 0;"/><text class="annotation-text" text-anchor="middle" x="104.75" y="16" style="font-family: Arial; font-size: 16px; fill: rgb(0, 0, 0); fill-opacity: 1; white-space: pre;">Ein- und Ausgangsspannung</text></g></g></g><g class="annotation" data-index="1" style="opacity: 1;"><g class="annotation-text-g" transform="rotate(0,377,245.0625)"><g class="cursor-pointer" transform="translate(304,235)"><rect class="bg" x="0.5" y="0.5" width="145" height="20" style="stroke-width: 1px; stroke: rgb(0, 0, 0); stroke-opacity: 0; fill: rgb(0, 0, 0); fill-opacity: 0;"/><text class="annotation-text" text-anchor="middle" x="73.03125" y="16" style="font-family: Arial; font-size: 16px; fill: rgb(0, 0, 0); fill-opacity: 1; white-space: pre;">Spannungsdifferenz</text></g></g></g><g class="annotation" data-index="2" style="opacity: 1;"><g class="annotation-text-g" transform="rotate(0,377,470.625)"><g class="cursor-pointer" transform="translate(349,460)"><rect class="bg" x="0.5" y="0.5" width="55" height="20" style="stroke-width: 1px; stroke: rgb(0, 0, 0); stroke-opacity: 0; fill: rgb(0, 0, 0); fill-opacity: 0;"/><text class="annotation-text" text-anchor="middle" x="27.796875" y="16" style="font-family: Arial; font-size: 16px; fill: rgb(0, 0, 0); fill-opacity: 1; white-space: pre;">Ströme</text></g></g></g></g></svg>