<svg class="main-svg" xmlns="http://www.w3.org/2000/svg" xmlns:xlink="http://www.w3.org/1999/xlink" width="700" height="1000" style="" viewBox="0 0 700 1000"><rect x="0" y="0" width="700" height="1000" style="fill: rgb(255, 255, 255); fill-opacity: 1;"/><defs id="defs-2289b2"><g class="clips"><clipPath id="clip2289b2xyplot" class="plotclip"><rect width="610" height="125.3125"/></clipPath><clipPath id="clip2289b2x2y2plot" class="plotclip"><rect width="610" height="125.3125"/></clipPath><clipPath id="clip2289b2x3y3plot" class="plotclip"><rect width="610" height="125.3125"/></clipPath><clipPath id="clip2289b2x4y4plot" class="plotclip"><rect width="610" height="125.3125"/></clipPath><clipPath class="axesclip" id="clip2289b2x"><rect x="74" y="0" width="610" height="1000"/></clipPath><clipPath class="axesclip" id="clip2289b2y"><rect x="0" y="30" width="700" height="125.3125"/></clipPath><clipPath class="axesclip" id="clip2289b2xy"><rect x="74" y="30" width="610" height="125.3125"/></clipPath><clipPath class="axesclip" id="clip2289b2y2"><rect x="0" y="255.5625" width="700" height="125.3125"/></clipPath><clipPath class="axesclip" id="clip2289b2xy2"><rect x="74" y="255.5625" width="610" height="125.3125"/></clipPath><clipPath class="axesclip" id="clip2289b2y3"><rect x="0" y="481.125" width="700" height="125.3125"/></clipPath><clipPath class="axesclip" id="clip2289b2xy3"><rect x="74" y="481.125" width="610" height="125.3125"/></clipPath><clipPath class="axesclip" id="clip2289b2y4"><rect x="0" y="706.6875" width="700" height="125.3125"/></clipPath><clipPath class="axesclip" id="clip2289b2xy4"><rect x="74" y="706.6875" width="610" height="125.3125"/></clipPath><clipPath class="axesclip" id="clip2289b2x2"><rect x="74" y="0" width="610" height="1000"/></clipPath><clipPath class="axesclip" id="clip2289b2x2y"><rect x="74" y="30" width="610" height="125.3125"/></clipPath><clipPath class="axesclip" id="clip2289b2x2y2"><rect x="74" y="255.5625" width="610" height="125.3125"/></clipPath><clipPath class="axesclip" id="clip2289b2x2y3"><rect x="74" y="481.125" width="610" height="125.3125"/></clipPath><clipPath class="axesclip" id="clip2289b2x2y4"><rect x="74" y="706.6875" width="610" height="125.3125"/></clipPath><clipPath class="axesclip" id="clip2289b2x3"><rect x="74" y="0" width="610" height="1000"/></clipPath><clipPath class="axesclip" id="clip2289b2x3y"><rect x="74" y="30" width="610" height="125.3125"/></clipPath><clipPath class="axesclip" id="clip2289b2x3y2"><rect x="74" y="255.5625" width="610" height="125.3125"/></clipPath><clipPath class="axesclip" id="clip2289b2x3y3"><rect x="74" y="481.125" width="610" height="125.3125"/></clipPath><clipPath class="axesclip" id="clip2289b2x3y4"><rect x="74" y="706.6875" width="610" height="125.3125"/></clipPath><clipPath class="axesclip" id="clip2289b2x4"><rect x="74" y="0" width="610" height="1000"/></clipPath><clipPath class="axesclip" id="clip2289b2x4y"><rect x="74" y="30" width="610" height="125.3125"/></clipPath><clipPath class="axesclip" id="clip2289b2x4y2"><rect x="74" y="255.5625" width="610" height="125.3125"/></clipPath><clipPath class="axesclip" id="clip2289b2x4y3"><rect x="74" y="481.125" width="610" height="125.3125"/></clipPath><clipPath class="axesclip" id="clip2289b2x4y4"><rect x="74" y="706.6875" width="610" height="125.3125"/></clipPath></g><g class="gradients"/><g class="patterns"/></defs><g class="bglayer"><rect class="bg" x="74" y="30" width="610" height="125.3125" style="fill: rgb(229, 236, 246); fill-opacity: 1; stroke-width: 0;"/><rect class="bg" x="74" y="255.5625" width="610" height="125.3125" style="fill: rgb(229, 236, 246); fill-opacity: 1; stroke-width: 0;"/><rect class="bg" x="74" y="481.125" width="610" height="125.3125" style="fill: rgb(229, 236, 246); fill-opacity: 1; stroke-width: 0;"/><rect class="bg" x="74" y="706.6875" width="610" height="125.3125" style="fill: rgb(229, 236, 246); fill-opacity: 1; stroke-width: 0;"/></g><g class="layer-below"><g class="imagelayer"/><g class="shapelayer"/></g><g class="cartesianlayer"><g class="subplot xy"><g class="layer-subplot"><g class="shapelayer"/><g class="imagelayer"/></g><g class="minor-gridlayer"><g class="x"/><g class="y"/></g><g class="gridlayer"><g class="x"><path class="xgrid crisp" transform="translate(175.67000000000002,0)" d="M0,30v125.3125" style="stroke: rgb(255, 255, 255); stroke-opacity: 1; stroke-width: 1px;"/><path class="xgrid crisp" transform="translate(277.33000000000004,0)" d="M0,30v125.3125" style="stroke: rgb(255, 255, 255); stroke-opacity: 1; stroke-width: 1px;"/><path class="xgrid crisp" transform="translate(379,0)" d="M0,30v125.3125" style="stroke: rgb(255, 255, 255); stroke-opacity: 1; stroke-width: 1px;"/><path class="xgrid crisp" transform="translate(480.67,0)" d="M0,30v125.3125" style="stroke: rgb(255, 255, 255); stroke-opacity: 1; stroke-width: 1px;"/><path class="xgrid crisp" transform="translate(582.3299999999999,0)" d="M0,30v125.3125" style="stroke: rgb(255, 255, 255); stroke-opacity: 1; stroke-width: 1px;"/></g><g class="y"><path class="ygrid crisp" transform="translate(0,149.09)" d="M74,0h610" style="stroke: rgb(255, 255, 255); stroke-opacity: 1; stroke-width: 1px;"/><path class="ygrid crisp" transform="translate(0,120.91)" d="M74,0h610" style="stroke: rgb(255, 255, 255); stroke-opacity: 1; stroke-width: 1px;"/><path class="ygrid crisp" transform="translate(0,64.53999999999999)" d="M74,0h610" style="stroke: rgb(255, 255, 255); stroke-opacity: 1; stroke-width: 1px;"/><path class="ygrid crisp" transform="translate(0,36.35)" d="M74,0h610" style="stroke: rgb(255, 255, 255); stroke-opacity: 1; stroke-width: 1px;"/></g></g><g class="zerolinelayer"><path class="xzl zl crisp" transform="translate(74,0)" d="M0,30v125.3125" style="stroke: rgb(255, 255, 255); stroke-opacity: 1; stroke-width: 2px;"/><path class="yzl zl crisp" transform="translate(0,92.72)" d="M74,0h610" style="stroke: rgb(255, 255, 255); stroke-opacity: 1; stroke-width: 2px;"/></g><path class="xlines-below"/><path class="ylines-below"/><g class="overlines-below"/><g class="xaxislayer-below"/><g class="yaxislayer-below"/><g class="overaxes-below"/><g class="plot" transform="translate(74,30)" clip-path="url(#clip2289b2xyplot)"><g class="scatterlayer mlayer"><g class="trace scatter traceeb3026" style="stroke-miterlimit: 2; opacity: 1;"><g class="fills"/><g class="errorbars"/><g class="lines"><path class="js-line" d="M0,62.72L21.63,27.79L25.69,22.52L33.83,13.96L37.89,10.8L46.03,6.97L50.09,6.37L54.16,6.65L58.17,7.8L66.3,12.67L70.37,16.32L78.5,25.73L82.57,31.36L94.77,50.8L98.84,57.8L119.17,91.75L120.46,93.65L126.82,102.25L130.88,106.98L139.02,114.27L143.08,116.72L147.15,118.32L151.22,119.05L155.28,118.88L159.35,117.83L163.42,115.91L167.48,113.16L175.62,105.31L179.68,100.35L187.82,88.73L191.88,82.25L223.8,29.4L226.22,26.09L232.5,18.52L236.57,14.48L244.7,8.75L248.77,7.14L252.84,6.4L256.9,6.56L260.97,7.59L265.04,9.5L273.17,15.8L277.24,20.08L285.37,30.59L289.44,36.65L305.89,64.26L305.95,64.38L323.8,93.66L325.18,95.64L333.28,105.95L337.35,110.14L345.48,116.23L349.55,118.03L353.62,118.96L357.68,119L361.75,118.15L365.82,116.43L373.95,110.49L378.02,106.36L386.15,96.11L390.22,90.16L403.94,67.46L405.97,63.93L424.27,33.55L425.79,31.31L432.46,22.4L436.53,17.78L444.66,10.73L448.73,8.41L452.79,6.95L456.86,6.36L460.93,6.67L464.99,7.86L469.06,9.91L473.13,12.8L481.26,20.88L485.33,25.94L493.46,37.72L497.53,44.25L528.77,96L530.71,98.66L536.77,106.12L540.84,110.29L548.97,116.32L553.04,118.08L557.1,118.98L561.17,118.98L565.24,118.1L569.3,116.35L577.44,110.34L581.5,106.19L589.64,95.9L593.7,89.92L607.43,67.2L609.46,63.66L610,62.72" style="vector-effect: non-scaling-stroke; fill: none; stroke: rgb(0, 0, 0); stroke-opacity: 1; stroke-width: 2px; opacity: 1; stroke-dasharray: 9px, 9px;"/></g><g class="points"/><g class="text"/></g><g class="trace scatter trace5419f7" style="stroke-miterlimit: 2; opacity: 1;"><g class="fills"/><g class="errorbars"/><g class="lines"><path class="js-line" d="M0,62.61L1.8,61.95L2.26,60.8L4.27,56.09L4.58,55.64L21.63,28.29L25.69,22.96L33.83,14.24L37.89,10.99L46.03,6.98L50.09,6.27L54.16,6.46L58.17,7.5L62.24,9.43L66.3,12.2L74.44,20.06L78.5,25.03L86.64,36.65L90.7,43.11L102.64,62.36L103.36,62.69L108.8,63.07L109.04,64.13L111.39,79.25L111.48,79.23L111.56,79.21L112.25,79.59L112.52,80.04L116.16,86.3L116.76,87.25L126.82,101.58L130.88,106.38L139.02,113.84L143.08,116.39L147.15,118.08L151.22,118.9L155.28,118.84L159.35,117.89L163.42,116.06L167.48,113.4L175.62,105.72L179.68,100.82L187.82,89.33L191.88,82.91L204.85,62.76L205.5,62.71L210.19,62.61L210.51,61.78L212.95,46.19L213.03,46.21L213.11,46.22L213.81,45.79L214.09,45.31L217.7,39.11L218.34,38.1L228.7,23.37L232.5,18.89L240.64,11.41L244.7,8.86L248.77,7.15L252.84,6.32L256.9,6.38L260.97,7.32L265.04,9.13L269.1,11.79L277.24,19.45L281.3,24.34L289.44,35.83L293.5,42.24L306.36,62.6L306.68,62.69L312.08,62.96L312.32,63.79L314.61,79.28L314.79,79.24L314.88,79.22L315.52,79.5L315.77,79.88L320.17,87.38L320.8,88.34L329.67,100.97L333.28,105.33L341.42,113.14L345.48,115.87L349.55,117.77L353.62,118.79L357.68,118.93L361.75,118.18L365.82,116.56L369.88,114.08L378.02,106.75L382.08,102L390.22,90.74L394.28,84.41L407.74,62.91L408.53,62.72L413.71,62.32L414.09,60.12L416.25,46.18L416.34,46.2L416.42,46.21L417.07,45.9L417.31,45.51L421.62,38.18L422.29,37.14L432.46,22.83L436.53,18.14L444.66,10.92L448.73,8.51L452.79,6.95L456.86,6.27L460.93,6.47L464.99,7.56L469.06,9.52L473.13,12.32L481.26,20.24L485.33,25.23L493.46,36.89L497.53,43.36L509.64,62.57L510.02,62.69L515.46,63.05L515.71,64.13L517.96,79.27L518.14,79.23L518.22,79.22L518.89,79.55L519.15,79.98L523.42,87.24L524.05,88.21L532.83,100.75L536.77,105.51L544.9,113.26L548.97,115.96L553.04,117.82L557.1,118.82L561.17,118.92L565.24,118.14L569.3,116.48L573.37,113.97L581.5,106.58L585.57,101.81L593.7,90.51L597.77,84.16L610,63.99" style="vector-effect: non-scaling-stroke; fill: none; stroke: rgb(239, 85, 59); stroke-opacity: 1; stroke-width: 2px; opacity: 1;"/></g><g class="points"/><g class="text"/></g></g></g><g class="overplot"/><path class="xlines-above crisp" d="M0,0" style="fill: none;"/><path class="ylines-above crisp" d="M0,0" style="fill: none;"/><g class="overlines-above"/><g class="xaxislayer-above"><g class="xtick"><text text-anchor="middle" x="0" y="168.3125" transform="translate(74,0)" style="font-family: Arial; font-size: 12px; fill: rgb(0, 0, 0); fill-opacity: 1; white-space: pre; opacity: 1;">0.00s</text></g><g class="xtick"><text text-anchor="middle" x="0" y="168.3125" style="font-family: Arial; font-size: 12px; fill: rgb(0, 0, 0); fill-opacity: 1; white-space: pre; opacity: 1;" transform="translate(175.67000000000002,0)">50.0µs</text></g><g class="xtick"><text text-anchor="middle" x="0" y="168.3125" style="font-family: Arial; font-size: 12px; fill: rgb(0, 0, 0); fill-opacity: 1; white-space: pre; opacity: 1;" transform="translate(277.33000000000004,0)">100µs</text></g><g class="xtick"><text text-anchor="middle" x="0" y="168.3125" style="font-family: Arial; font-size: 12px; fill: rgb(0, 0, 0); fill-opacity: 1; white-space: pre; opacity: 1;" transform="translate(379,0)">150µs</text></g><g class="xtick"><text text-anchor="middle" x="0" y="168.3125" style="font-family: Arial; font-size: 12px; fill: rgb(0, 0, 0); fill-opacity: 1; white-space: pre; opacity: 1;" transform="translate(480.67,0)">200µs</text></g><g class="xtick"><text text-anchor="middle" x="0" y="168.3125" style="font-family: Arial; font-size: 12px; fill: rgb(0, 0, 0); fill-opacity: 1; white-space: pre; opacity: 1;" transform="translate(582.3299999999999,0)">250µs</text></g><g class="xtick"><text text-anchor="middle" x="0" y="168.3125" style="font-family: Arial; font-size: 12px; fill: rgb(0, 0, 0); fill-opacity: 1; white-space: pre; opacity: 0;" transform="translate(684,0)">300µs</text></g></g><g class="yaxislayer-above"><g class="ytick"><text text-anchor="end" x="73" y="4.199999999999999" transform="translate(0,149.09)" style="font-family: Arial; font-size: 12px; fill: rgb(0, 0, 0); fill-opacity: 1; white-space: pre; opacity: 1;">−1.00V</text></g><g class="ytick"><text text-anchor="end" x="73" y="4.199999999999999" style="font-family: Arial; font-size: 12px; fill: rgb(0, 0, 0); fill-opacity: 1; white-space: pre; opacity: 1;" transform="translate(0,120.91)">−500mV</text></g><g class="ytick"><text text-anchor="end" x="73" y="4.199999999999999" style="font-family: Arial; font-size: 12px; fill: rgb(0, 0, 0); fill-opacity: 1; white-space: pre; opacity: 1;" transform="translate(0,92.72)">0.00V</text></g><g class="ytick"><text text-anchor="end" x="73" y="4.199999999999999" style="font-family: Arial; font-size: 12px; fill: rgb(0, 0, 0); fill-opacity: 1; white-space: pre; opacity: 1;" transform="translate(0,64.53999999999999)">500mV</text></g><g class="ytick"><text text-anchor="end" x="73" y="4.199999999999999" style="font-family: Arial; font-size: 12px; fill: rgb(0, 0, 0); fill-opacity: 1; white-space: pre; opacity: 1;" transform="translate(0,36.35)">1.00V</text></g></g><g class="overaxes-above"/></g><g class="subplot x2y2"><g class="layer-subplot"><g class="shapelayer"/><g class="imagelayer"/></g><g class="minor-gridlayer"><g class="x2"/><g class="y2"/></g><g class="gridlayer"><g class="x2"><path class="x2grid crisp" transform="translate(175.67000000000002,0)" d="M0,255.5625v125.3125" style="stroke: rgb(255, 255, 255); stroke-opacity: 1; stroke-width: 1px;"/><path class="x2grid crisp" transform="translate(277.33000000000004,0)" d="M0,255.5625v125.3125" style="stroke: rgb(255, 255, 255); stroke-opacity: 1; stroke-width: 1px;"/><path class="x2grid crisp" transform="translate(379,0)" d="M0,255.5625v125.3125" style="stroke: rgb(255, 255, 255); stroke-opacity: 1; stroke-width: 1px;"/><path class="x2grid crisp" transform="translate(480.67,0)" d="M0,255.5625v125.3125" style="stroke: rgb(255, 255, 255); stroke-opacity: 1; stroke-width: 1px;"/><path class="x2grid crisp" transform="translate(582.3299999999999,0)" d="M0,255.5625v125.3125" style="stroke: rgb(255, 255, 255); stroke-opacity: 1; stroke-width: 1px;"/></g><g class="y2"><path class="y2grid crisp" transform="translate(0,371.1825)" d="M74,0h610" style="stroke: rgb(255, 255, 255); stroke-opacity: 1; stroke-width: 1px;"/><path class="y2grid crisp" transform="translate(0,344.4225)" d="M74,0h610" style="stroke: rgb(255, 255, 255); stroke-opacity: 1; stroke-width: 1px;"/><path class="y2grid crisp" transform="translate(0,290.90250000000003)" d="M74,0h610" style="stroke: rgb(255, 255, 255); stroke-opacity: 1; stroke-width: 1px;"/><path class="y2grid crisp" transform="translate(0,264.1425)" d="M74,0h610" style="stroke: rgb(255, 255, 255); stroke-opacity: 1; stroke-width: 1px;"/></g></g><g class="zerolinelayer"><path class="x2zl zl crisp" transform="translate(74,0)" d="M0,255.5625v125.3125" style="stroke: rgb(255, 255, 255); stroke-opacity: 1; stroke-width: 2px;"/><path class="y2zl zl crisp" transform="translate(0,317.6625)" d="M74,0h610" style="stroke: rgb(255, 255, 255); stroke-opacity: 1; stroke-width: 2px;"/></g><path class="xlines-below"/><path class="ylines-below"/><g class="overlines-below"/><g class="xaxislayer-below"/><g class="yaxislayer-below"/><g class="overaxes-below"/><g class="plot" transform="translate(74,255.5625)" clip-path="url(#clip2289b2x2y2plot)"><g class="scatterlayer mlayer"><g class="trace scatter tracee36a50" style="stroke-miterlimit: 2; opacity: 1;"><g class="fills"/><g class="errorbars"/><g class="lines"><path class="js-line" d="M0,62.63L1.8,50.95L2.26,52.6L3.52,59.46L3.79,59.23L4.03,58.81L5.29,57.99L5.89,58.44L8.1,58.66L8.85,58.77L25.69,60.03L29.76,60.39L98.84,67.21L100.65,68.08L102.19,70.26L102.64,71.86L105.37,92.53L106,97.74L108.8,118.95L109.04,115.92L110.99,60.34L111.29,62.02L111.39,62.83L112.25,67.99L112.52,67.92L112.86,67.17L113.93,65.76L114.39,66.07L115.53,66.24L116.16,66.04L134.95,64.55L139.02,64.14L187.82,59.26L191.88,58.99L200.02,58.16L202.12,57.36L203.7,55.26L204.16,53.58L206.91,32.65L207.56,27.35L210.19,6.36L210.51,7.7L210.79,14.41L212.44,64.82L212.86,62.97L212.95,62.23L213.81,57.34L214.09,57.47L214.38,58.14L215.47,59.47L215.9,59.2L217.07,59.05L217.7,59.23L303.16,67.67L304.92,68.93L306.36,73.96L306.68,76.15L312.08,119.05L312.32,117.03L312.63,109.03L314.3,60.2L314.61,61.83L314.7,62.62L315.77,68.04L316.15,67.31L317.18,65.71L317.56,65.95L318.57,66.32L319.09,66.15L322.49,65.86L323.8,65.77L345.48,63.8L349.55,63.35L390.22,59.32L394.28,59.06L403.94,57.93L405.97,57.03L406.95,55.5L407.74,52.37L413.71,6.27L414.09,13.57L415.86,64.89L416.16,63.29L416.25,62.53L417.31,57.34L417.69,58.05L418.78,59.49L419.21,59.23L420.33,59.03L421,59.22L473.13,64.37L477.19,64.76L505.66,67.25L507.38,68.14L509.18,71.35L509.33,72L510.57,80.53L511.2,85.7L515.46,118.99L515.71,115.93L517.65,60.32L517.96,61.99L518.05,62.8L519.15,67.97L519.58,67.05L520.43,65.68L520.72,65.81L521.07,66.08L522.23,66.23L522.82,66.04L540.84,64.63L544.9,64.23L597.77,59.04L601.84,58.75L607.43,57.89L609.46,56.89L610,56.09" style="vector-effect: non-scaling-stroke; fill: none; stroke: rgb(0, 204, 150); stroke-opacity: 1; stroke-width: 2px; opacity: 1;"/></g><g class="points"/><g class="text"/></g></g></g><g class="overplot"/><path class="xlines-above crisp" d="M0,0" style="fill: none;"/><path class="ylines-above crisp" d="M0,0" style="fill: none;"/><g class="overlines-above"/><g class="xaxislayer-above"><g class="x2tick"><text text-anchor="middle" x="0" y="393.875" transform="translate(74,0)" style="font-family: Arial; font-size: 12px; fill: rgb(0, 0, 0); fill-opacity: 1; white-space: pre; opacity: 1;">0.00s</text></g><g class="x2tick"><text text-anchor="middle" x="0" y="393.875" style="font-family: Arial; font-size: 12px; fill: rgb(0, 0, 0); fill-opacity: 1; white-space: pre; opacity: 1;" transform="translate(175.67000000000002,0)">50.0µs</text></g><g class="x2tick"><text text-anchor="middle" x="0" y="393.875" style="font-family: Arial; font-size: 12px; fill: rgb(0, 0, 0); fill-opacity: 1; white-space: pre; opacity: 1;" transform="translate(277.33000000000004,0)">100µs</text></g><g class="x2tick"><text text-anchor="middle" x="0" y="393.875" style="font-family: Arial; font-size: 12px; fill: rgb(0, 0, 0); fill-opacity: 1; white-space: pre; opacity: 1;" transform="translate(379,0)">150µs</text></g><g class="x2tick"><text text-anchor="middle" x="0" y="393.875" style="font-family: Arial; font-size: 12px; fill: rgb(0, 0, 0); fill-opacity: 1; white-space: pre; opacity: 1;" transform="translate(480.67,0)">200µs</text></g><g class="x2tick"><text text-anchor="middle" x="0" y="393.875" style="font-family: Arial; font-size: 12px; fill: rgb(0, 0, 0); fill-opacity: 1; white-space: pre; opacity: 1;" transform="translate(582.3299999999999,0)">250µs</text></g><g class="x2tick"><text text-anchor="middle" x="0" y="393.875" style="font-family: Arial; font-size: 12px; fill: rgb(0, 0, 0); fill-opacity: 1; white-space: pre; opacity: 0;" transform="translate(684,0)">300µs</text></g></g><g class="yaxislayer-above"><g class="y2tick"><text text-anchor="end" x="73" y="4.199999999999999" transform="translate(0,371.1825)" style="font-family: Arial; font-size: 12px; fill: rgb(0, 0, 0); fill-opacity: 1; white-space: pre; opacity: 1;">−200mV</text></g><g class="y2tick"><text text-anchor="end" x="73" y="4.199999999999999" style="font-family: Arial; font-size: 12px; fill: rgb(0, 0, 0); fill-opacity: 1; white-space: pre; opacity: 1;" transform="translate(0,344.4225)">−100mV</text></g><g class="y2tick"><text text-anchor="end" x="73" y="4.199999999999999" style="font-family: Arial; font-size: 12px; fill: rgb(0, 0, 0); fill-opacity: 1; white-space: pre; opacity: 1;" transform="translate(0,317.6625)">0.00V</text></g><g class="y2tick"><text text-anchor="end" x="73" y="4.199999999999999" style="font-family: Arial; font-size: 12px; fill: rgb(0, 0, 0); fill-opacity: 1; white-space: pre; opacity: 1;" transform="translate(0,290.90250000000003)">100mV</text></g><g class="y2tick"><text text-anchor="end" x="73" y="4.199999999999999" style="font-family: Arial; font-size: 12px; fill: rgb(0, 0, 0); fill-opacity: 1; white-space: pre; opacity: 1;" transform="translate(0,264.1425)">200mV</text></g></g><g class="overaxes-above"/></g><g class="subplot x3y3"><g class="layer-subplot"><g class="shapelayer"/><g class="imagelayer"/></g><g class="minor-gridlayer"><g class="x3"/><g class="y3"/></g><g class="gridlayer"><g class="x3"><path class="x3grid crisp" transform="translate(175.67000000000002,0)" d="M0,481.125v125.3125" style="stroke: rgb(255, 255, 255); stroke-opacity: 1; stroke-width: 1px;"/><path class="x3grid crisp" transform="translate(277.33000000000004,0)" d="M0,481.125v125.3125" style="stroke: rgb(255, 255, 255); stroke-opacity: 1; stroke-width: 1px;"/><path class="x3grid crisp" transform="translate(379,0)" d="M0,481.125v125.3125" style="stroke: rgb(255, 255, 255); stroke-opacity: 1; stroke-width: 1px;"/><path class="x3grid crisp" transform="translate(480.67,0)" d="M0,481.125v125.3125" style="stroke: rgb(255, 255, 255); stroke-opacity: 1; stroke-width: 1px;"/><path class="x3grid crisp" transform="translate(582.3299999999999,0)" d="M0,481.125v125.3125" style="stroke: rgb(255, 255, 255); stroke-opacity: 1; stroke-width: 1px;"/></g><g class="y3"><path class="y3grid crisp" transform="translate(0,577.515)" d="M74,0h610" style="stroke: rgb(255, 255, 255); stroke-opacity: 1; stroke-width: 1px;"/><path class="y3grid crisp" transform="translate(0,509.805)" d="M74,0h610" style="stroke: rgb(255, 255, 255); stroke-opacity: 1; stroke-width: 1px;"/></g></g><g class="zerolinelayer"><path class="x3zl zl crisp" transform="translate(74,0)" d="M0,481.125v125.3125" style="stroke: rgb(255, 255, 255); stroke-opacity: 1; stroke-width: 2px;"/><path class="y3zl zl crisp" transform="translate(0,543.655)" d="M74,0h610" style="stroke: rgb(255, 255, 255); stroke-opacity: 1; stroke-width: 2px;"/></g><path class="xlines-below"/><path class="ylines-below"/><g class="overlines-below"/><g class="xaxislayer-below"/><g class="yaxislayer-below"/><g class="overaxes-below"/><g class="plot" transform="translate(74,481.125)" clip-path="url(#clip2289b2x3y3plot)"><g class="scatterlayer mlayer"><g class="trace scatter trace744e74" style="stroke-miterlimit: 2; opacity: 1;"><g class="fills"/><g class="errorbars"/><g class="lines"><path class="js-line" d="M0,62.65L1.8,63.31L2.26,64.46L4.27,69.17L4.58,69.62L21.63,97L25.69,102.34L33.83,111.07L37.89,114.32L46.03,118.33L50.09,119.04L54.16,118.86L58.17,117.81L62.24,115.88L66.3,113.11L74.44,105.24L78.5,100.26L86.64,88.63L90.7,82.17L102.64,62.9L103.36,62.56L108.8,62.18L109.04,61.13L111.39,45.99L111.48,46.01L111.56,46.03L112.25,45.65L112.52,45.2L116.16,38.94L116.76,37.98L126.82,23.64L130.88,18.84L139.02,11.37L143.08,8.82L147.15,7.12L151.22,6.29L155.28,6.36L159.35,7.31L163.42,9.14L167.48,11.81L175.62,19.5L179.68,24.39L187.82,35.9L191.88,42.33L204.85,62.5L205.5,62.54L210.19,62.64L210.51,63.48L212.86,79.1L213.11,79.05L213.2,79.05L214.09,79.97L214.38,80.59L217.7,86.17L218.34,87.18L228.7,101.93L232.5,106.41L240.64,113.89L244.7,116.45L248.77,118.16L252.84,118.99L256.9,118.94L260.97,118L265.04,116.18L269.1,113.52L277.24,105.84L281.3,100.95L289.44,89.46L293.5,83.04L306.36,62.66L306.68,62.57L312.08,62.29L312.32,61.46L314.7,45.97L314.79,46L314.88,46.02L315.52,45.74L315.77,45.36L320.17,37.85L320.8,36.89L329.67,24.25L333.28,19.88L341.42,12.07L345.48,9.33L349.55,7.43L353.62,6.4L357.68,6.27L361.75,7.01L365.82,8.64L369.88,11.12L378.02,18.47L382.08,23.21L390.22,34.48L394.28,40.82L407.74,62.35L408.53,62.53L413.71,62.94L414.09,65.14L416.34,79.08L416.42,79.06L417.07,79.37L417.31,79.76L421.62,87.1L422.29,88.14L432.46,102.46L436.53,107.16L444.66,114.39L448.73,116.8L452.79,118.36L456.86,119.05L460.93,118.84L464.99,117.75L469.06,115.79L473.13,112.98L481.26,105.06L485.33,100.06L493.46,88.39L497.53,81.91L509.64,62.69L510.02,62.57L515.46,62.2L515.71,61.13L517.96,45.97L518.14,46.01L518.22,46.02L518.89,45.69L519.15,45.26L523.42,37.99L524.05,37.02L532.83,24.47L536.77,19.7L544.9,11.95L548.97,9.24L553.04,7.38L557.1,6.38L561.17,6.28L565.24,7.06L569.3,8.72L573.37,11.23L581.5,18.63L585.57,23.41L593.7,34.72L597.77,41.07L610,61.27" style="vector-effect: non-scaling-stroke; fill: none; stroke: rgb(0, 0, 0); stroke-opacity: 1; stroke-width: 2px; opacity: 1; stroke-dasharray: 3px, 3px;"/></g><g class="points"/><g class="text"/></g><g class="trace scatter tracef3fde5" style="stroke-miterlimit: 2; opacity: 1;"><g class="fills"/><g class="errorbars"/><g class="lines"><path class="js-line" d="M0,62.42L1.8,61.77L2.26,60.63L4.27,55.94L4.58,55.49L21.63,28.28L25.69,22.98L33.83,14.31L37.89,11.08L46.03,7.09L50.09,6.39L54.16,6.58L58.17,7.62L62.24,9.53L66.3,12.28L74.44,20.08L78.5,25.03L86.64,36.59L90.7,43.01L102.64,62.16L103.36,62.49L115.53,62.53L116.16,62.53L210.19,62.45L210.51,61.62L212.95,46.08L213.11,46.11L213.2,46.12L214.09,45.2L214.38,44.58L218.34,38.04L219.01,37.01L228.7,23.38L232.5,18.93L240.64,11.5L244.7,8.96L248.77,7.27L252.84,6.44L256.9,6.49L260.97,7.43L265.04,9.23L269.1,11.87L277.24,19.48L281.3,24.35L289.44,35.77L293.5,42.15L306.36,62.4L306.68,62.49L319.09,62.53L319.58,62.53L413.71,62.16L414.09,59.96L416.25,46.07L416.34,46.09L416.42,46.1L417.31,45.41L417.69,44.64L421,39.1L421.62,38.11L429.88,26.14L432.46,22.85L440.59,14.22L444.66,11.01L452.79,7.07L456.86,6.39L460.93,6.59L464.99,7.67L469.06,9.62L473.13,12.41L481.26,20.26L485.33,25.22L493.46,36.83L497.53,43.27L509.64,62.37L510.02,62.49L520.72,62.53L521.07,62.53L610,62.53" style="vector-effect: non-scaling-stroke; fill: none; stroke: rgb(255, 161, 90); stroke-opacity: 1; stroke-width: 2px; opacity: 1;"/></g><g class="points"/><g class="text"/></g><g class="trace scatter trace14e61e" style="stroke-miterlimit: 2; opacity: 1;"><g class="fills"/><g class="errorbars"/><g class="lines"><path class="js-line" d="M0,62.53L108.8,62.21L109.04,61.15L111.39,46.06L111.48,46.08L111.56,46.1L112.25,45.73L112.52,45.28L116.16,39.05L116.76,38.1L126.82,23.83L130.88,19.05L139.02,11.63L143.08,9.1L147.15,7.41L151.22,6.59L155.28,6.66L159.35,7.61L163.42,9.41L167.48,12.06L175.62,19.7L179.68,24.57L187.82,36.02L191.88,42.42L204.85,62.49L205.5,62.53L312.08,62.32L312.32,61.48L314.7,46.05L314.79,46.07L314.88,46.09L315.77,45.44L316.15,44.66L319.58,38.9L320.17,37.97L329.67,24.44L333.28,20.09L341.42,12.32L345.48,9.6L349.55,7.72L353.62,6.7L357.68,6.56L361.75,7.31L365.82,8.92L369.88,11.38L378.02,18.68L382.08,23.41L390.22,34.61L394.28,40.92L407.74,62.34L408.53,62.52L452.79,62.53L456.86,62.53L515.46,62.22L515.71,61.15L518.05,46.06L518.14,46.08L518.22,46.1L518.89,45.76L519.15,45.34L523.42,38.11L524.05,37.14L532.83,24.66L536.77,19.91L544.9,12.2L548.97,9.52L553.04,7.67L557.1,6.68L561.17,6.58L565.24,7.35L569.3,9L573.37,11.49L581.5,18.85L585.57,23.59L593.7,34.85L597.77,41.17L610,61.27" style="vector-effect: non-scaling-stroke; fill: none; stroke: rgb(25, 211, 243); stroke-opacity: 1; stroke-width: 2px; opacity: 1;"/></g><g class="points"/><g class="text"/></g></g></g><g class="overplot"/><path class="xlines-above crisp" d="M0,0" style="fill: none;"/><path class="ylines-above crisp" d="M0,0" style="fill: none;"/><g class="overlines-above"/><g class="xaxislayer-above"><g class="x3tick"><text text-anchor="middle" x="0" y="619.4375" transform="translate(74,0)" style="font-family: Arial; font-size: 12px; fill: rgb(0, 0, 0); fill-opacity: 1; white-space: pre; opacity: 1;">0.00s</text></g><g class="x3tick"><text text-anchor="middle" x="0" y="619.4375" style="font-family: Arial; font-size: 12px; fill: rgb(0, 0, 0); fill-opacity: 1; white-space: pre; opacity: 1;" transform="translate(175.67000000000002,0)">50.0µs</text></g><g class="x3tick"><text text-anchor="middle" x="0" y="619.4375" style="font-family: Arial; font-size: 12px; fill: rgb(0, 0, 0); fill-opacity: 1; white-space: pre; opacity: 1;" transform="translate(277.33000000000004,0)">100µs</text></g><g class="x3tick"><text text-anchor="middle" x="0" y="619.4375" style="font-family: Arial; font-size: 12px; fill: rgb(0, 0, 0); fill-opacity: 1; white-space: pre; opacity: 1;" transform="translate(379,0)">150µs</text></g><g class="x3tick"><text text-anchor="middle" x="0" y="619.4375" style="font-family: Arial; font-size: 12px; fill: rgb(0, 0, 0); fill-opacity: 1; white-space: pre; opacity: 1;" transform="translate(480.67,0)">200µs</text></g><g class="x3tick"><text text-anchor="middle" x="0" y="619.4375" style="font-family: Arial; font-size: 12px; fill: rgb(0, 0, 0); fill-opacity: 1; white-space: pre; opacity: 1;" transform="translate(582.3299999999999,0)">250µs</text></g><g class="x3tick"><text text-anchor="middle" x="0" y="619.4375" style="font-family: Arial; font-size: 12px; fill: rgb(0, 0, 0); fill-opacity: 1; white-space: pre; opacity: 0;" transform="translate(684,0)">300µs</text></g></g><g class="yaxislayer-above"><g class="y3tick"><text text-anchor="end" x="73" y="4.199999999999999" transform="translate(0,577.515)" style="font-family: Arial; font-size: 12px; fill: rgb(0, 0, 0); fill-opacity: 1; white-space: pre; opacity: 1;">−100mA</text></g><g class="y3tick"><text text-anchor="end" x="73" y="4.199999999999999" style="font-family: Arial; font-size: 12px; fill: rgb(0, 0, 0); fill-opacity: 1; white-space: pre; opacity: 1;" transform="translate(0,543.655)">0.00A</text></g><g class="y3tick"><text text-anchor="end" x="73" y="4.199999999999999" style="font-family: Arial; font-size: 12px; fill: rgb(0, 0, 0); fill-opacity: 1; white-space: pre; opacity: 1;" transform="translate(0,509.805)">100mA</text></g></g><g class="overaxes-above"/></g><g class="subplot x4y4"><g class="layer-subplot"><g class="shapelayer"/><g class="imagelayer"/></g><g class="minor-gridlayer"><g class="x4"/><g class="y4"/></g><g class="gridlayer"><g class="x4"><path class="x4grid crisp" transform="translate(175.67000000000002,0)" d="M0,706.6875v125.3125" style="stroke: rgb(255, 255, 255); stroke-opacity: 1; stroke-width: 1px;"/><path class="x4grid crisp" transform="translate(277.33000000000004,0)" d="M0,706.6875v125.3125" style="stroke: rgb(255, 255, 255); stroke-opacity: 1; stroke-width: 1px;"/><path class="x4grid crisp" transform="translate(379,0)" d="M0,706.6875v125.3125" style="stroke: rgb(255, 255, 255); stroke-opacity: 1; stroke-width: 1px;"/><path class="x4grid crisp" transform="translate(480.67,0)" d="M0,706.6875v125.3125" style="stroke: rgb(255, 255, 255); stroke-opacity: 1; stroke-width: 1px;"/><path class="x4grid crisp" transform="translate(582.3299999999999,0)" d="M0,706.6875v125.3125" style="stroke: rgb(255, 255, 255); stroke-opacity: 1; stroke-width: 1px;"/></g><g class="y4"><path class="y4grid crisp" transform="translate(0,819.9375)" d="M74,0h610" style="stroke: rgb(255, 255, 255); stroke-opacity: 1; stroke-width: 1px;"/><path class="y4grid crisp" transform="translate(0,791.7475)" d="M74,0h610" style="stroke: rgb(255, 255, 255); stroke-opacity: 1; stroke-width: 1px;"/><path class="y4grid crisp" transform="translate(0,735.3675)" d="M74,0h610" style="stroke: rgb(255, 255, 255); stroke-opacity: 1; stroke-width: 1px;"/></g></g><g class="zerolinelayer"><path class="x4zl zl crisp" transform="translate(74,0)" d="M0,706.6875v125.3125" style="stroke: rgb(255, 255, 255); stroke-opacity: 1; stroke-width: 2px;"/><path class="y4zl zl crisp" transform="translate(0,763.5575)" d="M74,0h610" style="stroke: rgb(255, 255, 255); stroke-opacity: 1; stroke-width: 2px;"/></g><path class="xlines-below"/><path class="ylines-below"/><g class="overlines-below"/><g class="xaxislayer-below"/><g class="yaxislayer-below"/><g class="overaxes-below"/><g class="plot" transform="translate(74,706.6875)" clip-path="url(#clip2289b2x4y4plot)"><g class="scatterlayer mlayer"><g class="trace scatter trace923c01" style="stroke-miterlimit: 2; opacity: 1;"><g class="fills"/><g class="errorbars"/><g class="lines"><path class="js-line" d="M0,57.14L1.02,57.89L1.36,58.51L5.29,65.65L5.89,66.69L25.69,98.44L29.76,104.01L37.89,113.03L41.96,116.13L46.03,118.18L50.09,119.05L54.16,118.76L58.17,117.31L62.24,114.77L66.3,111.16L74.44,101.35L78.5,95.45L101.97,57.42L102.19,57.03L104.63,53.64L105.37,53.37L108.8,53.08L109.04,52.46L110.69,43.96L111.12,44.29L111.21,44.35L112.04,44.1L112.25,43.76L115.53,39.06L116.16,38.23L130.88,19.59L134.95,15.35L143.08,9.02L147.15,7.15L151.22,6.27L155.28,6.42L159.35,7.54L163.42,9.63L171.55,16.42L175.62,20.84L187.82,36.45L191.88,41.89L206.2,59.62L206.91,60.05L210.51,62.03L210.79,63.04L212.44,73.25L212.7,73.13L212.78,73.08L213.6,73.42L213.81,73.8L217.7,80.61L218.34,81.64L232.5,103.26L236.57,108.28L244.7,115.75L248.77,117.95L252.84,118.97L256.9,118.87L260.97,117.58L265.04,115.14L273.17,107.28L277.24,102.07L289.44,83.36L293.5,76.63L307.88,53.7L308.66,53.37L312.32,52.65L312.63,51.24L314.01,43.93L314.42,44.25L314.53,44.34L315.33,44.17L315.52,43.87L319.09,38.76L319.58,38.1L333.28,20.64L337.35,16.28L345.48,9.6L349.55,7.5L353.62,6.38L357.68,6.29L361.75,7.19L365.82,9.08L373.95,15.49L378.02,19.77L390.22,35.18L394.28,40.64L409.14,59.28L409.88,59.86L413.71,61.82L414.09,62.86L415.75,73.27L416.08,73.1L416.16,73.06L416.87,73.32L417.07,73.65L421.62,81.58L422.29,82.65L432.46,98.58L436.53,104.16L444.66,113.11L448.73,116.19L452.79,118.2L456.86,119.05L460.93,118.75L464.99,117.23L469.06,114.65L473.13,111L481.26,101.12L485.33,95.19L509.33,56.21L509.64,55.7L511.2,53.71L512,53.37L515.46,53.09L515.71,52.47L517.36,43.95L517.79,44.29L517.87,44.36L518.69,44.12L518.89,43.81L522.23,39.03L522.82,38.23L536.77,20.5L540.84,16.12L548.97,9.47L553.04,7.44L557.1,6.38L561.17,6.29L565.24,7.24L569.3,9.18L577.44,15.63L581.5,19.94L593.7,35.38L597.77,40.85L610,56.44" style="vector-effect: non-scaling-stroke; fill: none; stroke: rgb(255, 102, 146); stroke-opacity: 1; stroke-width: 2px; opacity: 1;"/></g><g class="points"/><g class="text"/></g></g></g><g class="overplot"/><path class="xlines-above crisp" d="M0,0" style="fill: none;"/><path class="ylines-above crisp" d="M0,0" style="fill: none;"/><g class="overlines-above"/><g class="xaxislayer-above"><g class="x4tick"><text text-anchor="middle" x="0" y="845" transform="translate(74,0)" style="font-family: Arial; font-size: 12px; fill: rgb(0, 0, 0); fill-opacity: 1; white-space: pre; opacity: 1;">0.00s</text></g><g class="x4tick"><text text-anchor="middle" x="0" y="845" style="font-family: Arial; font-size: 12px; fill: rgb(0, 0, 0); fill-opacity: 1; white-space: pre; opacity: 1;" transform="translate(175.67000000000002,0)">50.0µs</text></g><g class="x4tick"><text text-anchor="middle" x="0" y="845" style="font-family: Arial; font-size: 12px; fill: rgb(0, 0, 0); fill-opacity: 1; white-space: pre; opacity: 1;" transform="translate(277.33000000000004,0)">100µs</text></g><g class="x4tick"><text text-anchor="middle" x="0" y="845" style="font-family: Arial; font-size: 12px; fill: rgb(0, 0, 0); fill-opacity: 1; white-space: pre; opacity: 1;" transform="translate(379,0)">150µs</text></g><g class="x4tick"><text text-anchor="middle" x="0" y="845" style="font-family: Arial; font-size: 12px; fill: rgb(0, 0, 0); fill-opacity: 1; white-space: pre; opacity: 1;" transform="translate(480.67,0)">200µs</text></g><g class="x4tick"><text text-anchor="middle" x="0" y="845" style="font-family: Arial; font-size: 12px; fill: rgb(0, 0, 0); fill-opacity: 1; white-space: pre; opacity: 1;" transform="translate(582.3299999999999,0)">250µs</text></g><g class="x4tick"><text text-anchor="middle" x="0" y="845" style="font-family: Arial; font-size: 12px; fill: rgb(0, 0, 0); fill-opacity: 1; white-space: pre; opacity: 0;" transform="translate(684,0)">300µs</text></g></g><g class="yaxislayer-above"><g class="y4tick"><text text-anchor="end" x="73" y="4.199999999999999" transform="translate(0,819.9375)" style="font-family: Arial; font-size: 12px; fill: rgb(0, 0, 0); fill-opacity: 1; white-space: pre; opacity: 1;">−1.00mA</text></g><g class="y4tick"><text text-anchor="end" x="73" y="4.199999999999999" style="font-family: Arial; font-size: 12px; fill: rgb(0, 0, 0); fill-opacity: 1; white-space: pre; opacity: 1;" transform="translate(0,791.7475)">−500µA</text></g><g class="y4tick"><text text-anchor="end" x="73" y="4.199999999999999" style="font-family: Arial; font-size: 12px; fill: rgb(0, 0, 0); fill-opacity: 1; white-space: pre; opacity: 1;" transform="translate(0,763.5575)">0.00A</text></g><g class="y4tick"><text text-anchor="end" x="73" y="4.199999999999999" style="font-family: Arial; font-size: 12px; fill: rgb(0, 0, 0); fill-opacity: 1; white-space: pre; opacity: 1;" transform="translate(0,735.3675)">500µA</text></g><g class="y4tick"><text text-anchor="end" x="73" y="4.199999999999999" style="font-family: Arial; font-size: 12px; fill: rgb(0, 0, 0); fill-opacity: 1; white-space: pre; opacity: 1;" transform="translate(0,707.1775)">1.00mA</text></g></g><g class="overaxes-above"/></g></g><g class="polarlayer"/><g class="smithlayer"/><g class="ternarylayer"/><g class="geolayer"/><g class="funnelarealayer"/><g class="pielayer"/><g class="iciclelayer"/><g class="treemaplayer"/><g class="sunburstlayer"/><g class="glimages"/><defs id="topdefs-2289b2"><g class="clips"/><clipPath id="legend2289b2"><rect width="562" height="48" x="0" y="0"/></clipPath></defs><g class="layer-above"><g class="imagelayer"/><g class="shapelayer"/></g><g class="infolayer"><g class="legend" pointer-events="all" transform="translate(80.1,952)"><rect class="bg" shape-rendering="crispEdges" width="562" height="48" x="0" y="0" style="stroke: rgb(68, 68, 68); stroke-opacity: 1; fill: rgb(255, 255, 255); fill-opacity: 1; stroke-width: 0px;"/><g class="scrollbox" transform="" clip-path="url(#legend2289b2)"><g class="groups"><g class="traces" transform="translate(0,14.5)" style="opacity: 1;"><text class="legendtext" text-anchor="start" x="40" y="4.680000000000001" style="font-family: Arial; font-size: 12px; fill: rgb(0, 0, 0); fill-opacity: 1; white-space: pre;">v(Uin)</text><g class="layers" style="opacity: 1;"><g class="legendfill"/><g class="legendlines"><path class="js-line" d="M5,0h30" style="fill: none; stroke: rgb(0, 0, 0); stroke-opacity: 1; stroke-dasharray: 9px, 9px; stroke-width: 2px;"/></g><g class="legendsymbols"><g class="legendpoints"/></g></g><rect class="legendtoggle" x="0" y="-9.5" width="75.515625" height="19" style="fill: rgb(0, 0, 0); fill-opacity: 0;"/></g><g class="traces" transform="translate(121.34375,14.5)" style="opacity: 1;"><text class="legendtext" text-anchor="start" x="40" y="4.680000000000001" style="font-family: Arial; font-size: 12px; fill: rgb(0, 0, 0); fill-opacity: 1; white-space: pre;">v(Uout)</text><g class="layers" style="opacity: 1;"><g class="legendfill"/><g class="legendlines"><path class="js-line" d="M5,0h30" style="fill: none; stroke: rgb(239, 85, 59); stroke-opacity: 1; stroke-width: 2px;"/></g><g class="legendsymbols"><g class="legendpoints"/></g></g><rect class="legendtoggle" x="0" y="-9.5" width="82.84375" height="19" style="fill: rgb(0, 0, 0); fill-opacity: 0;"/></g><g class="traces" transform="translate(242.6875,14.5)" style="opacity: 1;"><text class="legendtext" text-anchor="start" x="40" y="4.680000000000001" style="font-family: Arial; font-size: 12px; fill: rgb(0, 0, 0); fill-opacity: 1; white-space: pre;">v(Uin)-v(Uout)</text><g class="layers" style="opacity: 1;"><g class="legendfill"/><g class="legendlines"><path class="js-line" d="M5,0h30" style="fill: none; stroke: rgb(0, 204, 150); stroke-opacity: 1; stroke-width: 2px;"/></g><g class="legendsymbols"><g class="legendpoints"/></g></g><rect class="legendtoggle" x="0" y="-9.5" width="118.84375" height="19" style="fill: rgb(0, 0, 0); fill-opacity: 0;"/></g><g class="traces" transform="translate(364.03125,14.5)" style="opacity: 1;"><text class="legendtext" text-anchor="start" x="40" y="4.680000000000001" style="font-family: Arial; font-size: 12px; fill: rgb(0, 0, 0); fill-opacity: 1; white-space: pre;">I(RLast)</text><g class="layers" style="opacity: 1;"><g class="legendfill"/><g class="legendlines"><path class="js-line" d="M5,0h30" style="fill: none; stroke: rgb(0, 0, 0); stroke-opacity: 1; stroke-dasharray: 3px, 3px; stroke-width: 2px;"/></g><g class="legendsymbols"><g class="legendpoints"/></g></g><rect class="legendtoggle" x="0" y="-9.5" width="85.1875" height="19" style="fill: rgb(0, 0, 0); fill-opacity: 0;"/></g><g class="traces" transform="translate(485.375,14.5)" style="opacity: 1;"><text class="legendtext" text-anchor="start" x="40" y="4.680000000000001" style="font-family: Arial; font-size: 12px; fill: rgb(0, 0, 0); fill-opacity: 1; white-space: pre;">Ic(T1)</text><g class="layers" style="opacity: 1;"><g class="legendfill"/><g class="legendlines"><path class="js-line" d="M5,0h30" style="fill: none; stroke: rgb(255, 161, 90); stroke-opacity: 1; stroke-width: 2px;"/></g><g class="legendsymbols"><g class="legendpoints"/></g></g><rect class="legendtoggle" x="0" y="-9.5" width="73.84375" height="19" style="fill: rgb(0, 0, 0); fill-opacity: 0;"/></g><g class="traces" transform="translate(0,33.5)" style="opacity: 1;"><text class="legendtext" text-anchor="start" x="40" y="4.680000000000001" style="font-family: Arial; font-size: 12px; fill: rgb(0, 0, 0); fill-opacity: 1; white-space: pre;">Ic(T2)</text><g class="layers" style="opacity: 1;"><g class="legendfill"/><g class="legendlines"><path class="js-line" d="M5,0h30" style="fill: none; stroke: rgb(25, 211, 243); stroke-opacity: 1; stroke-width: 2px;"/></g><g class="legendsymbols"><g class="legendpoints"/></g></g><rect class="legendtoggle" x="0" y="-9.5" width="73.84375" height="19" style="fill: rgb(0, 0, 0); fill-opacity: 0;"/></g><g class="traces" transform="translate(121.34375,33.5)" style="opacity: 1;"><text class="legendtext" text-anchor="start" x="40" y="4.680000000000001" style="font-family: Arial; font-size: 12px; fill: rgb(0, 0, 0); fill-opacity: 1; white-space: pre;">I(Rshunt)</text><g class="layers" style="opacity: 1;"><g class="legendfill"/><g class="legendlines"><path class="js-line" d="M5,0h30" style="fill: none; stroke: rgb(255, 102, 146); stroke-opacity: 1; stroke-width: 2px;"/></g><g class="legendsymbols"><g class="legendpoints"/></g></g><rect class="legendtoggle" x="0" y="-9.5" width="91.859375" height="19" style="fill: rgb(0, 0, 0); fill-opacity: 0;"/></g></g></g><rect class="scrollbar" rx="20" ry="3" width="0" height="0" x="0" y="0" style="fill: rgb(128, 139, 164); fill-opacity: 1;"/></g><g class="g-gtitle"/><g class="g-xtitle"/><g class="g-x2title"/><g class="g-x3title"/><g class="g-x4title"><text class="x4title" x="379" y="872.8" text-anchor="middle" style="font-family: Arial; font-size: 14px; fill: rgb(0, 0, 0); opacity: 1; font-weight: normal; white-space: pre;">Time</text></g><g class="g-ytitle" transform="translate(9.8310546875,0)"><text class="ytitle" transform="rotate(-90,3.168750000000003,92.65625)" x="3.168750000000003" y="92.65625" text-anchor="middle" style="font-family: Arial; font-size: 14px; fill: rgb(0, 0, 0); opacity: 1; font-weight: normal; white-space: pre;">Voltage</text></g><g class="g-y2title" transform="translate(9.8310546875,0)"><text class="y2title" transform="rotate(-90,3.168750000000003,318.21875)" x="3.168750000000003" y="318.21875" text-anchor="middle" style="font-family: Arial; font-size: 14px; fill: rgb(0, 0, 0); opacity: 1; font-weight: normal; white-space: pre;">Voltage</text></g><g class="g-y3title" transform="translate(9.8310546875,0)"><text class="y3title" transform="rotate(-90,3.168750000000003,543.78125)" x="3.168750000000003" y="543.78125" text-anchor="middle" style="font-family: Arial; font-size: 14px; fill: rgb(0, 0, 0); opacity: 1; font-weight: normal; white-space: pre;">Current</text></g><g class="g-y4title" transform="translate(13.1748046875,0)"><text class="y4title" transform="rotate(-90,-0.17499999999999716,769.34375)" x="-0.17499999999999716" y="769.34375" text-anchor="middle" style="font-family: Arial; font-size: 14px; fill: rgb(0, 0, 0); opacity: 1; font-weight: normal; white-space: pre;">Current</text></g><g class="annotation" data-index="0" style="opacity: 1;"><g class="annotation-text-g" transform="rotate(0,379,19.499999999999993)"><g class="cursor-pointer" transform="translate(274,9)"><rect class="bg" x="0.5" y="0.5" width="209" height="20" style="stroke-width: 1px; stroke: rgb(0, 0, 0); stroke-opacity: 0; fill: rgb(0, 0, 0); fill-opacity: 0;"/><text class="annotation-text" text-anchor="middle" x="104.75" y="16" style="font-family: Arial; font-size: 16px; fill: rgb(0, 0, 0); fill-opacity: 1; white-space: pre;">Ein- und Ausgangsspannung</text></g></g></g><g class="annotation" data-index="1" style="opacity: 1;"><g class="annotation-text-g" transform="rotate(0,379,245.0625)"><g class="cursor-pointer" transform="translate(306,235)"><rect class="bg" x="0.5" y="0.5" width="145" height="20" style="stroke-width: 1px; stroke: rgb(0, 0, 0); stroke-opacity: 0; fill: rgb(0, 0, 0); fill-opacity: 0;"/><text class="annotation-text" text-anchor="middle" x="73.03125" y="16" style="font-family: Arial; font-size: 16px; fill: rgb(0, 0, 0); fill-opacity: 1; white-space: pre;">Spannungsdifferenz</text></g></g></g><g class="annotation" data-index="2" style="opacity: 1;"><g class="annotation-text-g" transform="rotate(0,379,470.625)"><g class="cursor-pointer" transform="translate(351,460)"><rect class="bg" x="0.5" y="0.5" width="55" height="20" style="stroke-width: 1px; stroke: rgb(0, 0, 0); stroke-opacity: 0; fill: rgb(0, 0, 0); fill-opacity: 0;"/><text class="annotation-text" text-anchor="middle" x="27.796875" y="16" style="font-family: Arial; font-size: 16px; fill: rgb(0, 0, 0); fill-opacity: 1; white-space: pre;">Ströme</text></g></g></g></g></svg>