<svg class="main-svg" xmlns="http://www.w3.org/2000/svg" xmlns:xlink="http://www.w3.org/1999/xlink" width="700" height="1000" style="" viewBox="0 0 700 1000"><rect x="0" y="0" width="700" height="1000" style="fill: rgb(255, 255, 255); fill-opacity: 1;"/><defs id="defs-1e7364"><g class="clips"><clipPath id="clip1e7364xyplot" class="plotclip"><rect width="534" height="114.0625"/></clipPath><clipPath id="clip1e7364x2y2plot" class="plotclip"><rect width="534" height="114.0625"/></clipPath><clipPath id="clip1e7364x3y3plot" class="plotclip"><rect width="534" height="114.0625"/></clipPath><clipPath id="clip1e7364x4y4plot" class="plotclip"><rect width="534" height="114.0625"/></clipPath><clipPath class="axesclip" id="clip1e7364x"><rect x="86" y="0" width="534" height="1000"/></clipPath><clipPath class="axesclip" id="clip1e7364y"><rect x="0" y="100" width="700" height="114.0625"/></clipPath><clipPath class="axesclip" id="clip1e7364xy"><rect x="86" y="100" width="534" height="114.0625"/></clipPath><clipPath class="axesclip" id="clip1e7364y2"><rect x="0" y="305.3125" width="700" height="114.0625"/></clipPath><clipPath class="axesclip" id="clip1e7364xy2"><rect x="86" y="305.3125" width="534" height="114.0625"/></clipPath><clipPath class="axesclip" id="clip1e7364y3"><rect x="0" y="510.625" width="700" height="114.0625"/></clipPath><clipPath class="axesclip" id="clip1e7364xy3"><rect x="86" y="510.625" width="534" height="114.0625"/></clipPath><clipPath class="axesclip" id="clip1e7364y4"><rect x="0" y="715.9375" width="700" height="114.0625"/></clipPath><clipPath class="axesclip" id="clip1e7364xy4"><rect x="86" y="715.9375" width="534" height="114.0625"/></clipPath><clipPath class="axesclip" id="clip1e7364x2"><rect x="86" y="0" width="534" height="1000"/></clipPath><clipPath class="axesclip" id="clip1e7364x2y"><rect x="86" y="100" width="534" height="114.0625"/></clipPath><clipPath class="axesclip" id="clip1e7364x2y2"><rect x="86" y="305.3125" width="534" height="114.0625"/></clipPath><clipPath class="axesclip" id="clip1e7364x2y3"><rect x="86" y="510.625" width="534" height="114.0625"/></clipPath><clipPath class="axesclip" id="clip1e7364x2y4"><rect x="86" y="715.9375" width="534" height="114.0625"/></clipPath><clipPath class="axesclip" id="clip1e7364x3"><rect x="86" y="0" width="534" height="1000"/></clipPath><clipPath class="axesclip" id="clip1e7364x3y"><rect x="86" y="100" width="534" height="114.0625"/></clipPath><clipPath class="axesclip" id="clip1e7364x3y2"><rect x="86" y="305.3125" width="534" height="114.0625"/></clipPath><clipPath class="axesclip" id="clip1e7364x3y3"><rect x="86" y="510.625" width="534" height="114.0625"/></clipPath><clipPath class="axesclip" id="clip1e7364x3y4"><rect x="86" y="715.9375" width="534" height="114.0625"/></clipPath><clipPath class="axesclip" id="clip1e7364x4"><rect x="86" y="0" width="534" height="1000"/></clipPath><clipPath class="axesclip" id="clip1e7364x4y"><rect x="86" y="100" width="534" height="114.0625"/></clipPath><clipPath class="axesclip" id="clip1e7364x4y2"><rect x="86" y="305.3125" width="534" height="114.0625"/></clipPath><clipPath class="axesclip" id="clip1e7364x4y3"><rect x="86" y="510.625" width="534" height="114.0625"/></clipPath><clipPath class="axesclip" id="clip1e7364x4y4"><rect x="86" y="715.9375" width="534" height="114.0625"/></clipPath></g><g class="gradients"/><g class="patterns"/></defs><g class="bglayer"><rect class="bg" x="86" y="100" width="534" height="114.0625" style="fill: rgb(229, 236, 246); fill-opacity: 1; stroke-width: 0;"/><rect class="bg" x="86" y="305.3125" width="534" height="114.0625" style="fill: rgb(229, 236, 246); fill-opacity: 1; stroke-width: 0;"/><rect class="bg" x="86" y="510.625" width="534" height="114.0625" style="fill: rgb(229, 236, 246); fill-opacity: 1; stroke-width: 0;"/><rect class="bg" x="86" y="715.9375" width="534" height="114.0625" style="fill: rgb(229, 236, 246); fill-opacity: 1; stroke-width: 0;"/></g><g class="layer-below"><g class="imagelayer"/><g class="shapelayer"/></g><g class="cartesianlayer"><g class="subplot xy"><g class="layer-subplot"><g class="shapelayer"/><g class="imagelayer"/></g><g class="minor-gridlayer"><g class="x"/><g class="y"/></g><g class="gridlayer"><g class="x"><path class="xgrid crisp" transform="translate(175,0)" d="M0,100v114.0625" style="stroke: rgb(255, 255, 255); stroke-opacity: 1; stroke-width: 1px;"/><path class="xgrid crisp" transform="translate(264,0)" d="M0,100v114.0625" style="stroke: rgb(255, 255, 255); stroke-opacity: 1; stroke-width: 1px;"/><path class="xgrid crisp" transform="translate(353,0)" d="M0,100v114.0625" style="stroke: rgb(255, 255, 255); stroke-opacity: 1; stroke-width: 1px;"/><path class="xgrid crisp" transform="translate(442,0)" d="M0,100v114.0625" style="stroke: rgb(255, 255, 255); stroke-opacity: 1; stroke-width: 1px;"/><path class="xgrid crisp" transform="translate(531,0)" d="M0,100v114.0625" style="stroke: rgb(255, 255, 255); stroke-opacity: 1; stroke-width: 1px;"/></g><g class="y"><path class="ygrid crisp" transform="translate(0,208.4)" d="M86,0h534" style="stroke: rgb(255, 255, 255); stroke-opacity: 1; stroke-width: 1px;"/><path class="ygrid crisp" transform="translate(0,182.75)" d="M86,0h534" style="stroke: rgb(255, 255, 255); stroke-opacity: 1; stroke-width: 1px;"/><path class="ygrid crisp" transform="translate(0,131.44)" d="M86,0h534" style="stroke: rgb(255, 255, 255); stroke-opacity: 1; stroke-width: 1px;"/><path class="ygrid crisp" transform="translate(0,105.78)" d="M86,0h534" style="stroke: rgb(255, 255, 255); stroke-opacity: 1; stroke-width: 1px;"/></g></g><g class="zerolinelayer"><path class="xzl zl crisp" transform="translate(86,0)" d="M0,100v114.0625" style="stroke: rgb(255, 255, 255); stroke-opacity: 1; stroke-width: 2px;"/><path class="yzl zl crisp" transform="translate(0,157.09)" d="M86,0h534" style="stroke: rgb(255, 255, 255); stroke-opacity: 1; stroke-width: 2px;"/></g><path class="xlines-below"/><path class="ylines-below"/><g class="overlines-below"/><g class="xaxislayer-below"/><g class="yaxislayer-below"/><g class="overaxes-below"/><g class="plot" transform="translate(86,100)" clip-path="url(#clip1e7364xyplot)"><g class="scatterlayer mlayer"><g class="trace scatter tracec328a1" style="stroke-miterlimit: 2; opacity: 1;"><g class="fills"/><g class="errorbars"/><g class="lines"><path class="js-line" d="M0,57.09L15.83,29.9L18.93,25.3L26.05,16.28L29.61,12.71L36.73,7.7L40.29,6.35L43.85,5.8L47.41,6.05L54.48,8.94L58.04,11.54L65.16,18.84L68.72,23.42L79.4,40.04L82.96,46.24L105.45,85.24L106.84,87.3L114.58,97.37L118.14,101.04L125.26,106.24L128.82,107.7L132.38,108.36L135.94,108.21L139.5,107.25L143.06,105.51L150.18,99.76L153.74,95.86L160.86,86.28L164.42,80.76L179.33,54.69L179.89,53.66L194.63,28.68L195.92,26.76L203.54,16.86L207.1,13.18L214.22,7.96L217.78,6.5L221.34,5.83L224.9,5.97L228.46,6.91L232.02,8.65L239.14,14.38L242.7,18.28L249.82,27.84L253.38,33.36L268.47,59.75L269.02,60.75L282.31,83.49L283.46,85.25L291.76,96.44L295.32,100.26L302.44,105.8L306,107.44L309.56,108.28L313.12,108.32L316.68,107.54L320.24,105.98L327.36,100.57L330.92,96.81L338.04,87.49L341.6,82.06L355.39,58.19L356.25,56.64L372.74,28.5L374.14,26.44L382.14,16.19L385.7,12.63L392.82,7.66L396.38,6.32L399.94,5.79L403.5,6.07L407.06,7.15L410.62,9.02L417.74,15L421.3,19L428.42,28.75L431.98,34.33L448.21,62.89L448.78,63.92L461.4,85.16L462.89,87.38L469.89,96.6L473.45,100.39L480.57,105.87L484.13,107.48L487.69,108.3L491.25,108.3L494.81,107.5L498.37,105.9L505.49,100.44L509.05,96.65L516.17,87.29L519.73,81.85L534,57.09" style="vector-effect: non-scaling-stroke; fill: none; stroke: rgb(0, 0, 0); stroke-opacity: 1; stroke-width: 2px; opacity: 1; stroke-dasharray: 9px, 9px;"/></g><g class="points"/><g class="text"/></g><g class="trace scatter trace990255" style="stroke-miterlimit: 2; opacity: 1;"><g class="fills"/><g class="errorbars"/><g class="lines"><path class="js-line" d="M0,56.99L1.57,56.38L1.97,55.34L4.01,50.64L4.28,50.19L12.73,35.36L15.83,30.41L22.49,20.9L26.05,16.61L33.17,10L36.73,7.79L43.85,5.71L47.41,5.88L50.92,6.83L54.48,8.59L61.6,14.34L65.16,18.26L72.28,27.84L75.84,33.36L90.48,57.06L91.02,57.1L95.24,57.41L95.46,58.37L97.59,72.12L97.66,72.1L97.74,72.09L98.5,72.86L98.79,73.51L102.21,79.41L102.77,80.31L111.02,92.46L114.58,96.83L121.7,103.62L125.26,105.94L132.38,108.23L135.94,108.17L139.5,107.3L143.06,105.65L150.18,100.06L153.74,96.23L160.86,86.77L164.42,81.31L179.33,57.13L179.89,57.08L184,56.99L184.29,56.23L186.42,42.04L186.63,42.08L186.73,42.07L187.67,40.67L187.89,40.19L191.14,34.68L191.72,33.74L200.2,21.27L203.54,17.19L210.66,10.39L214.22,8.06L221.34,5.75L224.9,5.8L228.46,6.66L232.02,8.31L239.14,13.88L242.7,17.71L249.82,27.15L253.38,32.61L268.47,57.06L269.02,57.1L273.2,57.31L273.41,58.07L275.5,72.15L275.72,72.09L275.8,72.09L276.43,72.71L276.76,73.42L280.28,79.53L280.83,80.41L288.59,91.9L291.76,95.88L298.88,102.98L302.44,105.47L309.56,108.13L313.12,108.26L316.68,107.57L320.24,106.09L327.36,100.85L330.92,97.16L338.04,87.96L341.6,82.6L356.94,57.26L357.63,57.09L362.16,56.72L362.5,54.73L364.31,42.02L364.54,42.06L364.61,42.07L365.32,41.43L365.65,40.72L369.09,34.75L369.68,33.81L378.58,20.78L382.14,16.51L389.26,9.94L392.82,7.74L399.94,5.7L403.5,5.89L407.06,6.88L410.62,8.67L417.74,14.48L421.3,18.42L428.42,28.05L431.98,33.58L446.48,57.06L446.96,57.1L451.24,57.39L451.46,58.37L453.51,72.14L453.66,72.1L453.73,72.09L454.47,72.8L454.85,73.62L457.69,78.55L458.2,79.41L466.44,91.7L469.89,96.04L477.01,103.09L480.57,105.55L487.69,108.15L491.25,108.24L494.81,107.53L498.37,106.02L505.49,100.72L509.05,97.01L516.17,87.77L519.73,82.38L534,58.24" style="vector-effect: non-scaling-stroke; fill: none; stroke: rgb(239, 85, 59); stroke-opacity: 1; stroke-width: 2px; opacity: 1;"/></g><g class="points"/><g class="text"/></g></g></g><g class="overplot"/><path class="xlines-above crisp" d="M0,0" style="fill: none;"/><path class="ylines-above crisp" d="M0,0" style="fill: none;"/><g class="overlines-above"/><g class="xaxislayer-above"><g class="xtick"><text text-anchor="middle" x="0" y="227.0625" transform="translate(86,0)" style="font-family: Arial; font-size: 12px; fill: rgb(0, 0, 0); fill-opacity: 1; white-space: pre; opacity: 1;">0.00s</text></g><g class="xtick"><text text-anchor="middle" x="0" y="227.0625" style="font-family: Arial; font-size: 12px; fill: rgb(0, 0, 0); fill-opacity: 1; white-space: pre; opacity: 1;" transform="translate(175,0)">50.0µs</text></g><g class="xtick"><text text-anchor="middle" x="0" y="227.0625" style="font-family: Arial; font-size: 12px; fill: rgb(0, 0, 0); fill-opacity: 1; white-space: pre; opacity: 1;" transform="translate(264,0)">100µs</text></g><g class="xtick"><text text-anchor="middle" x="0" y="227.0625" style="font-family: Arial; font-size: 12px; fill: rgb(0, 0, 0); fill-opacity: 1; white-space: pre; opacity: 1;" transform="translate(353,0)">150µs</text></g><g class="xtick"><text text-anchor="middle" x="0" y="227.0625" style="font-family: Arial; font-size: 12px; fill: rgb(0, 0, 0); fill-opacity: 1; white-space: pre; opacity: 1;" transform="translate(442,0)">200µs</text></g><g class="xtick"><text text-anchor="middle" x="0" y="227.0625" style="font-family: Arial; font-size: 12px; fill: rgb(0, 0, 0); fill-opacity: 1; white-space: pre; opacity: 1;" transform="translate(531,0)">250µs</text></g><g class="xtick"><text text-anchor="middle" x="0" y="227.0625" style="font-family: Arial; font-size: 12px; fill: rgb(0, 0, 0); fill-opacity: 1; white-space: pre; opacity: 1;" transform="translate(620,0)">300µs</text></g></g><g class="yaxislayer-above"><g class="ytick"><text text-anchor="end" x="85" y="4.199999999999999" transform="translate(0,208.4)" style="font-family: Arial; font-size: 12px; fill: rgb(0, 0, 0); fill-opacity: 1; white-space: pre; opacity: 1;">−1.00V</text></g><g class="ytick"><text text-anchor="end" x="85" y="4.199999999999999" style="font-family: Arial; font-size: 12px; fill: rgb(0, 0, 0); fill-opacity: 1; white-space: pre; opacity: 1;" transform="translate(0,182.75)">−500mV</text></g><g class="ytick"><text text-anchor="end" x="85" y="4.199999999999999" style="font-family: Arial; font-size: 12px; fill: rgb(0, 0, 0); fill-opacity: 1; white-space: pre; opacity: 1;" transform="translate(0,157.09)">0.00V</text></g><g class="ytick"><text text-anchor="end" x="85" y="4.199999999999999" style="font-family: Arial; font-size: 12px; fill: rgb(0, 0, 0); fill-opacity: 1; white-space: pre; opacity: 1;" transform="translate(0,131.44)">500mV</text></g><g class="ytick"><text text-anchor="end" x="85" y="4.199999999999999" style="font-family: Arial; font-size: 12px; fill: rgb(0, 0, 0); fill-opacity: 1; white-space: pre; opacity: 1;" transform="translate(0,105.78)">1.00V</text></g></g><g class="overaxes-above"/></g><g class="subplot x2y2"><g class="layer-subplot"><g class="shapelayer"/><g class="imagelayer"/></g><g class="minor-gridlayer"><g class="x2"/><g class="y2"/></g><g class="gridlayer"><g class="x2"><path class="x2grid crisp" transform="translate(175,0)" d="M0,305.3125v114.0625" style="stroke: rgb(255, 255, 255); stroke-opacity: 1; stroke-width: 1px;"/><path class="x2grid crisp" transform="translate(264,0)" d="M0,305.3125v114.0625" style="stroke: rgb(255, 255, 255); stroke-opacity: 1; stroke-width: 1px;"/><path class="x2grid crisp" transform="translate(353,0)" d="M0,305.3125v114.0625" style="stroke: rgb(255, 255, 255); stroke-opacity: 1; stroke-width: 1px;"/><path class="x2grid crisp" transform="translate(442,0)" d="M0,305.3125v114.0625" style="stroke: rgb(255, 255, 255); stroke-opacity: 1; stroke-width: 1px;"/><path class="x2grid crisp" transform="translate(531,0)" d="M0,305.3125v114.0625" style="stroke: rgb(255, 255, 255); stroke-opacity: 1; stroke-width: 1px;"/></g><g class="y2"><path class="y2grid crisp" transform="translate(0,410.5525)" d="M86,0h534" style="stroke: rgb(255, 255, 255); stroke-opacity: 1; stroke-width: 1px;"/><path class="y2grid crisp" transform="translate(0,386.1925)" d="M86,0h534" style="stroke: rgb(255, 255, 255); stroke-opacity: 1; stroke-width: 1px;"/><path class="y2grid crisp" transform="translate(0,337.47249999999997)" d="M86,0h534" style="stroke: rgb(255, 255, 255); stroke-opacity: 1; stroke-width: 1px;"/><path class="y2grid crisp" transform="translate(0,313.1225)" d="M86,0h534" style="stroke: rgb(255, 255, 255); stroke-opacity: 1; stroke-width: 1px;"/></g></g><g class="zerolinelayer"><path class="x2zl zl crisp" transform="translate(86,0)" d="M0,305.3125v114.0625" style="stroke: rgb(255, 255, 255); stroke-opacity: 1; stroke-width: 2px;"/><path class="y2zl zl crisp" transform="translate(0,361.8325)" d="M86,0h534" style="stroke: rgb(255, 255, 255); stroke-opacity: 1; stroke-width: 2px;"/></g><path class="xlines-below"/><path class="ylines-below"/><g class="overlines-below"/><g class="xaxislayer-below"/><g class="yaxislayer-below"/><g class="overaxes-below"/><g class="plot" transform="translate(86,305.3125)" clip-path="url(#clip1e7364x2y2plot)"><g class="scatterlayer mlayer"><g class="trace scatter tracea1e7da" style="stroke-miterlimit: 2; opacity: 1;"><g class="fills"/><g class="errorbars"/><g class="lines"><path class="js-line" d="M0,57.01L1.57,46.37L1.97,47.87L3.09,54.12L3.32,53.91L3.53,53.53L4.63,52.79L5.16,53.19L7.09,53.39L7.75,53.5L26.05,54.97L29.61,55.32L86.52,61.17L88.11,61.97L89.46,63.95L89.85,65.41L92.24,84.22L92.79,88.96L95.24,108.27L95.46,105.51L95.72,98.03L97.16,54.92L97.51,57.19L97.59,57.91L98.26,61.89L98.5,61.83L98.79,61.14L99.74,59.85L100.13,60.14L101.14,60.29L101.68,60.11L157.3,54.47L160.86,54.19L175.1,52.94L176.94,52.21L178.32,50.3L178.73,48.77L181.13,29.72L181.7,24.9L184,5.79L184.29,7.01L184.53,13.12L185.97,59L186.42,56.64L186.49,56L187.17,52.19L187.41,52.32L187.67,52.92L188.62,54.13L189,53.88L190.02,53.75L190.58,53.91L256.94,60.31L260.5,60.59L265.39,61.59L266.93,62.74L268.19,67.32L268.47,69.31L273.2,108.36L273.41,106.52L273.68,99.24L275.14,54.79L275.5,57L275.57,57.74L276.43,61.93L276.76,61.26L277.67,59.81L277.99,60.03L279.34,60.21L279.77,60.09L313.12,56.81L316.68,56.38L345.16,53.75L348.72,53.48L353.61,52.73L355.39,51.91L356.25,50.52L356.94,47.67L362.16,5.7L362.5,12.36L364.05,59.07L364.39,56.91L364.47,56.21L365.32,52.19L365.65,52.84L366.61,54.15L366.98,53.91L367.96,53.73L368.55,53.9L382.14,54.97L385.7,55.33L442.66,61.21L444.17,62.02L445.74,64.95L445.88,65.54L447.51,78.01L448.21,83.96L451.24,108.31L451.46,105.52L451.71,98.33L453.16,54.9L453.51,57.16L453.58,57.87L454.47,61.87L454.85,61.03L455.59,59.79L455.84,59.9L456.15,60.14L457.16,60.28L457.69,60.11L505.49,55.18L509.05,54.84L531.75,52.69L533.53,51.78L534,51.05" style="vector-effect: non-scaling-stroke; fill: none; stroke: rgb(0, 204, 150); stroke-opacity: 1; stroke-width: 2px; opacity: 1;"/></g><g class="points"/><g class="text"/></g></g></g><g class="overplot"/><path class="xlines-above crisp" d="M0,0" style="fill: none;"/><path class="ylines-above crisp" d="M0,0" style="fill: none;"/><g class="overlines-above"/><g class="xaxislayer-above"><g class="x2tick"><text text-anchor="middle" x="0" y="432.375" transform="translate(86,0)" style="font-family: Arial; font-size: 12px; fill: rgb(0, 0, 0); fill-opacity: 1; white-space: pre; opacity: 1;">0.00s</text></g><g class="x2tick"><text text-anchor="middle" x="0" y="432.375" style="font-family: Arial; font-size: 12px; fill: rgb(0, 0, 0); fill-opacity: 1; white-space: pre; opacity: 1;" transform="translate(175,0)">50.0µs</text></g><g class="x2tick"><text text-anchor="middle" x="0" y="432.375" style="font-family: Arial; font-size: 12px; fill: rgb(0, 0, 0); fill-opacity: 1; white-space: pre; opacity: 1;" transform="translate(264,0)">100µs</text></g><g class="x2tick"><text text-anchor="middle" x="0" y="432.375" style="font-family: Arial; font-size: 12px; fill: rgb(0, 0, 0); fill-opacity: 1; white-space: pre; opacity: 1;" transform="translate(353,0)">150µs</text></g><g class="x2tick"><text text-anchor="middle" x="0" y="432.375" style="font-family: Arial; font-size: 12px; fill: rgb(0, 0, 0); fill-opacity: 1; white-space: pre; opacity: 1;" transform="translate(442,0)">200µs</text></g><g class="x2tick"><text text-anchor="middle" x="0" y="432.375" style="font-family: Arial; font-size: 12px; fill: rgb(0, 0, 0); fill-opacity: 1; white-space: pre; opacity: 1;" transform="translate(531,0)">250µs</text></g><g class="x2tick"><text text-anchor="middle" x="0" y="432.375" style="font-family: Arial; font-size: 12px; fill: rgb(0, 0, 0); fill-opacity: 1; white-space: pre; opacity: 1;" transform="translate(620,0)">300µs</text></g></g><g class="yaxislayer-above"><g class="y2tick"><text text-anchor="end" x="85" y="4.199999999999999" transform="translate(0,410.5525)" style="font-family: Arial; font-size: 12px; fill: rgb(0, 0, 0); fill-opacity: 1; white-space: pre; opacity: 1;">−200mV</text></g><g class="y2tick"><text text-anchor="end" x="85" y="4.199999999999999" style="font-family: Arial; font-size: 12px; fill: rgb(0, 0, 0); fill-opacity: 1; white-space: pre; opacity: 1;" transform="translate(0,386.1925)">−100mV</text></g><g class="y2tick"><text text-anchor="end" x="85" y="4.199999999999999" style="font-family: Arial; font-size: 12px; fill: rgb(0, 0, 0); fill-opacity: 1; white-space: pre; opacity: 1;" transform="translate(0,361.8325)">0.00V</text></g><g class="y2tick"><text text-anchor="end" x="85" y="4.199999999999999" style="font-family: Arial; font-size: 12px; fill: rgb(0, 0, 0); fill-opacity: 1; white-space: pre; opacity: 1;" transform="translate(0,337.47249999999997)">100mV</text></g><g class="y2tick"><text text-anchor="end" x="85" y="4.199999999999999" style="font-family: Arial; font-size: 12px; fill: rgb(0, 0, 0); fill-opacity: 1; white-space: pre; opacity: 1;" transform="translate(0,313.1225)">200mV</text></g></g><g class="overaxes-above"/></g><g class="subplot x3y3"><g class="layer-subplot"><g class="shapelayer"/><g class="imagelayer"/></g><g class="minor-gridlayer"><g class="x3"/><g class="y3"/></g><g class="gridlayer"><g class="x3"><path class="x3grid crisp" transform="translate(175,0)" d="M0,510.625v114.0625" style="stroke: rgb(255, 255, 255); stroke-opacity: 1; stroke-width: 1px;"/><path class="x3grid crisp" transform="translate(264,0)" d="M0,510.625v114.0625" style="stroke: rgb(255, 255, 255); stroke-opacity: 1; stroke-width: 1px;"/><path class="x3grid crisp" transform="translate(353,0)" d="M0,510.625v114.0625" style="stroke: rgb(255, 255, 255); stroke-opacity: 1; stroke-width: 1px;"/><path class="x3grid crisp" transform="translate(442,0)" d="M0,510.625v114.0625" style="stroke: rgb(255, 255, 255); stroke-opacity: 1; stroke-width: 1px;"/><path class="x3grid crisp" transform="translate(531,0)" d="M0,510.625v114.0625" style="stroke: rgb(255, 255, 255); stroke-opacity: 1; stroke-width: 1px;"/></g><g class="y3"><path class="y3grid crisp" transform="translate(0,598.355)" d="M86,0h534" style="stroke: rgb(255, 255, 255); stroke-opacity: 1; stroke-width: 1px;"/><path class="y3grid crisp" transform="translate(0,536.725)" d="M86,0h534" style="stroke: rgb(255, 255, 255); stroke-opacity: 1; stroke-width: 1px;"/></g></g><g class="zerolinelayer"><path class="x3zl zl crisp" transform="translate(86,0)" d="M0,510.625v114.0625" style="stroke: rgb(255, 255, 255); stroke-opacity: 1; stroke-width: 2px;"/><path class="y3zl zl crisp" transform="translate(0,567.545)" d="M86,0h534" style="stroke: rgb(255, 255, 255); stroke-opacity: 1; stroke-width: 2px;"/></g><path class="xlines-below"/><path class="ylines-below"/><g class="overlines-below"/><g class="xaxislayer-below"/><g class="yaxislayer-below"/><g class="overaxes-below"/><g class="plot" transform="translate(86,510.625)" clip-path="url(#clip1e7364x3y3plot)"><g class="scatterlayer mlayer"><g class="trace scatter trace6896d4" style="stroke-miterlimit: 2; opacity: 1;"><g class="fills"/><g class="errorbars"/><g class="lines"><path class="js-line" d="M0,57.02L1.57,57.63L1.97,58.67L4.01,63.37L4.28,63.82L12.73,78.68L15.83,83.63L22.49,93.15L26.05,97.44L33.17,104.05L36.73,106.27L43.85,108.35L47.41,108.18L50.92,107.23L54.48,105.47L61.6,99.71L65.16,95.79L72.28,86.2L75.84,80.68L90.48,56.95L91.02,56.91L95.24,56.6L95.46,55.64L97.51,41.86L97.66,41.9L97.74,41.91L98.5,41.14L98.79,40.49L102.21,34.57L102.77,33.68L111.02,21.51L114.58,17.14L121.7,10.35L125.26,8.02L132.38,5.73L135.94,5.79L139.5,6.66L143.06,8.32L150.18,13.91L153.74,17.75L160.86,27.21L164.42,32.68L179.33,56.89L179.89,56.93L184,57.02L184.29,57.78L186.42,71.98L186.63,71.95L186.73,71.96L187.67,73.36L187.89,73.84L191.14,79.35L191.72,80.29L200.2,92.78L203.54,96.86L210.66,103.67L214.22,106L221.34,108.31L224.9,108.26L228.46,107.4L232.02,105.75L239.14,100.18L242.7,96.34L249.82,86.89L253.38,81.42L268.47,56.95L269.02,56.91L273.2,56.7L273.41,55.94L275.42,41.83L275.72,41.9L275.8,41.9L276.43,41.28L276.76,40.57L280.28,34.45L280.83,33.57L288.59,22.07L291.76,18.09L298.88,10.98L302.44,8.49L309.56,5.83L313.12,5.7L316.68,6.38L320.24,7.87L327.36,13.12L330.92,16.81L338.04,26.02L341.6,31.39L356.94,56.75L357.63,56.92L362.16,57.29L362.5,59.29L364.31,72L364.54,71.96L364.61,71.95L365.32,72.6L365.65,73.31L369.09,79.28L369.68,80.23L378.58,93.26L382.14,97.54L389.26,104.12L392.82,106.32L399.94,108.36L403.5,108.17L407.06,107.18L410.62,105.39L417.74,99.57L421.3,95.63L428.42,85.99L431.98,80.45L446.48,56.95L446.96,56.91L451.24,56.62L451.46,55.64L453.51,41.86L453.66,41.89L453.73,41.9L454.47,41.2L454.85,40.37L458.2,34.58L458.76,33.7L466.44,22.27L469.89,17.93L477.01,10.88L480.57,8.41L487.69,5.81L491.25,5.71L494.81,6.43L498.37,7.94L505.49,13.25L509.05,16.96L516.17,26.21L519.73,31.6L534,55.77" style="vector-effect: non-scaling-stroke; fill: none; stroke: rgb(0, 0, 0); stroke-opacity: 1; stroke-width: 2px; opacity: 1; stroke-dasharray: 3px, 3px;"/></g><g class="points"/><g class="text"/></g><g class="trace scatter trace9c9b7e" style="stroke-miterlimit: 2; opacity: 1;"><g class="fills"/><g class="errorbars"/><g class="lines"><path class="js-line" d="M0,56.82L1.57,56.22L1.97,55.19L4.01,50.51L4.28,50.06L12.73,35.29L15.83,30.37L22.49,20.92L26.05,16.64L33.17,10.08L36.73,7.88L43.85,5.82L47.41,5.99L50.92,6.93L54.48,8.68L61.6,14.39L65.16,18.28L72.28,27.82L75.84,33.3L90.48,56.88L91.02,56.92L184,56.84L184.29,56.08L186.42,41.94L186.63,41.98L186.73,41.97L187.67,40.58L187.89,40.1L191.14,34.62L191.72,33.69L200.2,21.28L203.54,17.23L210.66,10.46L214.22,8.16L221.34,5.86L224.9,5.91L228.46,6.76L232.02,8.4L239.14,13.93L242.7,17.73L249.82,27.13L253.38,32.56L268.47,56.88L269.02,56.92L362.16,56.58L362.5,54.58L364.39,41.93L364.54,41.96L364.61,41.97L365.32,41.33L365.65,40.63L369.09,34.69L369.68,33.75L378.58,20.8L382.14,16.55L389.26,10.02L392.82,7.84L399.94,5.81L403.5,6L407.06,6.99L410.62,8.76L417.74,14.53L421.3,18.44L428.42,28.02L431.98,33.52L446.48,56.88L446.96,56.92L534,56.92" style="vector-effect: non-scaling-stroke; fill: none; stroke: rgb(255, 161, 90); stroke-opacity: 1; stroke-width: 2px; opacity: 1;"/></g><g class="points"/><g class="text"/></g><g class="trace scatter trace3af711" style="stroke-miterlimit: 2; opacity: 1;"><g class="fills"/><g class="errorbars"/><g class="lines"><path class="js-line" d="M0,56.92L95.24,56.62L95.46,55.66L97.51,41.93L97.66,41.96L97.74,41.97L98.5,41.21L98.79,40.56L102.21,34.68L102.77,33.79L111.02,21.69L114.58,17.34L121.7,10.58L125.26,8.29L132.38,6L135.94,6.06L139.5,6.92L143.06,8.57L150.18,14.12L153.74,17.93L160.86,27.34L164.42,32.79L179.33,56.88L179.89,56.92L273.2,56.72L273.41,55.96L275.42,41.9L275.72,41.97L275.8,41.97L276.43,41.36L276.76,40.65L279.77,35.41L280.28,34.56L288.59,22.24L291.76,18.28L298.88,11.22L302.44,8.74L309.56,6.1L313.12,5.97L316.68,6.65L320.24,8.12L327.36,13.34L330.92,17L338.04,26.15L341.6,31.51L356.94,56.75L357.63,56.91L396.38,56.92L399.94,56.92L451.24,56.64L451.46,55.66L453.43,41.91L453.66,41.96L453.73,41.97L454.47,41.27L454.85,40.45L458.2,34.69L458.76,33.81L466.44,22.44L469.89,18.12L477.01,11.11L480.57,8.66L487.69,6.08L491.25,5.99L494.81,6.69L498.37,8.19L505.49,13.47L509.05,17.16L516.17,26.36L519.73,31.72L534,55.77" style="vector-effect: non-scaling-stroke; fill: none; stroke: rgb(25, 211, 243); stroke-opacity: 1; stroke-width: 2px; opacity: 1;"/></g><g class="points"/><g class="text"/></g></g></g><g class="overplot"/><path class="xlines-above crisp" d="M0,0" style="fill: none;"/><path class="ylines-above crisp" d="M0,0" style="fill: none;"/><g class="overlines-above"/><g class="xaxislayer-above"><g class="x3tick"><text text-anchor="middle" x="0" y="637.6875" transform="translate(86,0)" style="font-family: Arial; font-size: 12px; fill: rgb(0, 0, 0); fill-opacity: 1; white-space: pre; opacity: 1;">0.00s</text></g><g class="x3tick"><text text-anchor="middle" x="0" y="637.6875" style="font-family: Arial; font-size: 12px; fill: rgb(0, 0, 0); fill-opacity: 1; white-space: pre; opacity: 1;" transform="translate(175,0)">50.0µs</text></g><g class="x3tick"><text text-anchor="middle" x="0" y="637.6875" style="font-family: Arial; font-size: 12px; fill: rgb(0, 0, 0); fill-opacity: 1; white-space: pre; opacity: 1;" transform="translate(264,0)">100µs</text></g><g class="x3tick"><text text-anchor="middle" x="0" y="637.6875" style="font-family: Arial; font-size: 12px; fill: rgb(0, 0, 0); fill-opacity: 1; white-space: pre; opacity: 1;" transform="translate(353,0)">150µs</text></g><g class="x3tick"><text text-anchor="middle" x="0" y="637.6875" style="font-family: Arial; font-size: 12px; fill: rgb(0, 0, 0); fill-opacity: 1; white-space: pre; opacity: 1;" transform="translate(442,0)">200µs</text></g><g class="x3tick"><text text-anchor="middle" x="0" y="637.6875" style="font-family: Arial; font-size: 12px; fill: rgb(0, 0, 0); fill-opacity: 1; white-space: pre; opacity: 1;" transform="translate(531,0)">250µs</text></g><g class="x3tick"><text text-anchor="middle" x="0" y="637.6875" style="font-family: Arial; font-size: 12px; fill: rgb(0, 0, 0); fill-opacity: 1; white-space: pre; opacity: 1;" transform="translate(620,0)">300µs</text></g></g><g class="yaxislayer-above"><g class="y3tick"><text text-anchor="end" x="85" y="4.199999999999999" transform="translate(0,598.355)" style="font-family: Arial; font-size: 12px; fill: rgb(0, 0, 0); fill-opacity: 1; white-space: pre; opacity: 1;">−100mA</text></g><g class="y3tick"><text text-anchor="end" x="85" y="4.199999999999999" style="font-family: Arial; font-size: 12px; fill: rgb(0, 0, 0); fill-opacity: 1; white-space: pre; opacity: 1;" transform="translate(0,567.545)">0.00A</text></g><g class="y3tick"><text text-anchor="end" x="85" y="4.199999999999999" style="font-family: Arial; font-size: 12px; fill: rgb(0, 0, 0); fill-opacity: 1; white-space: pre; opacity: 1;" transform="translate(0,536.725)">100mA</text></g></g><g class="overaxes-above"/></g><g class="subplot x4y4"><g class="layer-subplot"><g class="shapelayer"/><g class="imagelayer"/></g><g class="minor-gridlayer"><g class="x4"/><g class="y4"/></g><g class="gridlayer"><g class="x4"><path class="x4grid crisp" transform="translate(175,0)" d="M0,715.9375v114.0625" style="stroke: rgb(255, 255, 255); stroke-opacity: 1; stroke-width: 1px;"/><path class="x4grid crisp" transform="translate(264,0)" d="M0,715.9375v114.0625" style="stroke: rgb(255, 255, 255); stroke-opacity: 1; stroke-width: 1px;"/><path class="x4grid crisp" transform="translate(353,0)" d="M0,715.9375v114.0625" style="stroke: rgb(255, 255, 255); stroke-opacity: 1; stroke-width: 1px;"/><path class="x4grid crisp" transform="translate(442,0)" d="M0,715.9375v114.0625" style="stroke: rgb(255, 255, 255); stroke-opacity: 1; stroke-width: 1px;"/><path class="x4grid crisp" transform="translate(531,0)" d="M0,715.9375v114.0625" style="stroke: rgb(255, 255, 255); stroke-opacity: 1; stroke-width: 1px;"/></g><g class="y4"><path class="y4grid crisp" transform="translate(0,819.0175)" d="M86,0h534" style="stroke: rgb(255, 255, 255); stroke-opacity: 1; stroke-width: 1px;"/><path class="y4grid crisp" transform="translate(0,793.3575)" d="M86,0h534" style="stroke: rgb(255, 255, 255); stroke-opacity: 1; stroke-width: 1px;"/><path class="y4grid crisp" transform="translate(0,742.0375)" d="M86,0h534" style="stroke: rgb(255, 255, 255); stroke-opacity: 1; stroke-width: 1px;"/></g></g><g class="zerolinelayer"><path class="x4zl zl crisp" transform="translate(86,0)" d="M0,715.9375v114.0625" style="stroke: rgb(255, 255, 255); stroke-opacity: 1; stroke-width: 2px;"/><path class="y4zl zl crisp" transform="translate(0,767.6975)" d="M86,0h534" style="stroke: rgb(255, 255, 255); stroke-opacity: 1; stroke-width: 2px;"/></g><path class="xlines-below"/><path class="ylines-below"/><g class="overlines-below"/><g class="xaxislayer-below"/><g class="yaxislayer-below"/><g class="overaxes-below"/><g class="plot" transform="translate(86,715.9375)" clip-path="url(#clip1e7364x4y4plot)"><g class="scatterlayer mlayer"><g class="trace scatter trace80d43b" style="stroke-miterlimit: 2; opacity: 1;"><g class="fills"/><g class="errorbars"/><g class="lines"><path class="js-line" d="M0,52.01L0.89,52.7L1.19,53.25L4.63,59.75L5.16,60.7L22.49,89.6L26.05,94.67L33.17,102.88L36.73,105.7L40.29,107.57L43.85,108.36L47.41,108.1L50.92,106.78L54.48,104.46L58.04,101.18L65.16,92.25L68.72,86.88L92.24,48.57L92.79,48.55L95.24,48.31L95.46,47.75L96.9,40.01L97.35,40.37L97.43,40.43L98.08,40.14L98.26,39.83L101.68,34.79L102.21,34.08L114.58,17.83L118.14,13.98L125.26,8.21L128.82,6.51L132.38,5.7L135.94,5.84L139.5,6.87L143.06,8.77L150.18,14.94L153.74,18.97L164.42,33.18L167.98,38.13L180.51,54.27L181.13,54.66L184.29,56.46L184.53,57.38L185.97,66.68L186.34,66.48L186.42,66.45L187.17,67.18L187.41,67.74L190.58,73.38L191.14,74.31L203.54,93.99L207.1,98.56L214.22,105.36L217.78,107.36L221.34,108.29L224.9,108.2L228.46,107.03L232.02,104.8L239.14,97.65L242.7,92.91L253.38,75.87L256.94,69.75L269.52,48.88L270.21,48.58L273.41,47.93L273.68,46.64L274.89,39.98L275.34,40.35L275.42,40.41L276.04,40.21L276.21,39.93L279.77,34.68L280.28,33.96L291.76,18.78L295.32,14.82L302.44,8.73L306,6.83L309.56,5.81L313.12,5.73L316.68,6.55L320.24,8.27L327.36,14.1L330.92,18L341.6,32.03L345.16,36.99L358.16,53.96L358.81,54.48L362.16,56.27L362.5,57.22L363.95,66.69L364.31,66.5L364.39,66.46L365.11,67.04L365.32,67.5L368.55,73.32L369.09,74.25L382.14,94.81L385.7,99.27L392.82,105.76L396.38,107.58L399.94,108.36L403.5,108.09L407.06,106.71L410.62,104.36L417.74,96.91L421.3,92.04L431.98,74.85L435.54,68.71L447.51,48.88L448.21,48.58L451.24,48.33L451.46,47.76L452.9,40.01L453.35,40.38L453.43,40.42L454.06,40.16L454.24,39.88L457.16,35.52L457.69,34.79L469.89,18.66L473.45,14.67L480.57,8.62L484.13,6.77L487.69,5.81L491.25,5.73L494.81,6.59L498.37,8.36L505.49,14.23L509.05,18.15L519.73,32.21L523.29,37.19L534,51.37" style="vector-effect: non-scaling-stroke; fill: none; stroke: rgb(255, 102, 146); stroke-opacity: 1; stroke-width: 2px; opacity: 1;"/></g><g class="points"/><g class="text"/></g></g></g><g class="overplot"/><path class="xlines-above crisp" d="M0,0" style="fill: none;"/><path class="ylines-above crisp" d="M0,0" style="fill: none;"/><g class="overlines-above"/><g class="xaxislayer-above"><g class="x4tick"><text text-anchor="middle" x="0" y="843" transform="translate(86,0)" style="font-family: Arial; font-size: 12px; fill: rgb(0, 0, 0); fill-opacity: 1; white-space: pre; opacity: 1;">0.00s</text></g><g class="x4tick"><text text-anchor="middle" x="0" y="843" style="font-family: Arial; font-size: 12px; fill: rgb(0, 0, 0); fill-opacity: 1; white-space: pre; opacity: 1;" transform="translate(175,0)">50.0µs</text></g><g class="x4tick"><text text-anchor="middle" x="0" y="843" style="font-family: Arial; font-size: 12px; fill: rgb(0, 0, 0); fill-opacity: 1; white-space: pre; opacity: 1;" transform="translate(264,0)">100µs</text></g><g class="x4tick"><text text-anchor="middle" x="0" y="843" style="font-family: Arial; font-size: 12px; fill: rgb(0, 0, 0); fill-opacity: 1; white-space: pre; opacity: 1;" transform="translate(353,0)">150µs</text></g><g class="x4tick"><text text-anchor="middle" x="0" y="843" style="font-family: Arial; font-size: 12px; fill: rgb(0, 0, 0); fill-opacity: 1; white-space: pre; opacity: 1;" transform="translate(442,0)">200µs</text></g><g class="x4tick"><text text-anchor="middle" x="0" y="843" style="font-family: Arial; font-size: 12px; fill: rgb(0, 0, 0); fill-opacity: 1; white-space: pre; opacity: 1;" transform="translate(531,0)">250µs</text></g><g class="x4tick"><text text-anchor="middle" x="0" y="843" style="font-family: Arial; font-size: 12px; fill: rgb(0, 0, 0); fill-opacity: 1; white-space: pre; opacity: 1;" transform="translate(620,0)">300µs</text></g></g><g class="yaxislayer-above"><g class="y4tick"><text text-anchor="end" x="85" y="4.199999999999999" transform="translate(0,819.0175)" style="font-family: Arial; font-size: 12px; fill: rgb(0, 0, 0); fill-opacity: 1; white-space: pre; opacity: 1;">−1.00mA</text></g><g class="y4tick"><text text-anchor="end" x="85" y="4.199999999999999" style="font-family: Arial; font-size: 12px; fill: rgb(0, 0, 0); fill-opacity: 1; white-space: pre; opacity: 1;" transform="translate(0,793.3575)">−500µA</text></g><g class="y4tick"><text text-anchor="end" x="85" y="4.199999999999999" style="font-family: Arial; font-size: 12px; fill: rgb(0, 0, 0); fill-opacity: 1; white-space: pre; opacity: 1;" transform="translate(0,767.6975)">0.00A</text></g><g class="y4tick"><text text-anchor="end" x="85" y="4.199999999999999" style="font-family: Arial; font-size: 12px; fill: rgb(0, 0, 0); fill-opacity: 1; white-space: pre; opacity: 1;" transform="translate(0,742.0375)">500µA</text></g><g class="y4tick"><text text-anchor="end" x="85" y="4.199999999999999" style="font-family: Arial; font-size: 12px; fill: rgb(0, 0, 0); fill-opacity: 1; white-space: pre; opacity: 1;" transform="translate(0,716.3775)">1.00mA</text></g></g><g class="overaxes-above"/></g></g><g class="polarlayer"/><g class="smithlayer"/><g class="ternarylayer"/><g class="geolayer"/><g class="funnelarealayer"/><g class="pielayer"/><g class="iciclelayer"/><g class="treemaplayer"/><g class="sunburstlayer"/><g class="glimages"/><defs id="topdefs-1e7364"><g class="clips"/><clipPath id="legend1e7364"><rect width="452" height="48" x="0" y="0"/></clipPath></defs><g class="layer-above"><g class="imagelayer"/><g class="shapelayer"/></g><g class="infolayer"><g class="legend" pointer-events="all" transform="translate(91.34,939.4999999999999)"><rect class="bg" shape-rendering="crispEdges" width="452" height="48" x="0" y="0" style="stroke: rgb(68, 68, 68); stroke-opacity: 1; fill: rgb(255, 255, 255); fill-opacity: 1; stroke-width: 0px;"/><g class="scrollbox" transform="" clip-path="url(#legend1e7364)"><g class="groups"><g class="traces" transform="translate(0,14.5)" style="opacity: 1;"><text class="legendtext" text-anchor="start" x="40" y="4.680000000000001" style="font-family: Arial; font-size: 12px; fill: rgb(0, 0, 0); fill-opacity: 1; white-space: pre;">v(Uin)</text><g class="layers" style="opacity: 1;"><g class="legendfill"/><g class="legendlines"><path class="js-line" d="M5,0h30" style="fill: none; stroke: rgb(0, 0, 0); stroke-opacity: 1; stroke-dasharray: 9px, 9px; stroke-width: 2px;"/></g><g class="legendsymbols"><g class="legendpoints"/></g></g><rect class="legendtoggle" x="0" y="-9.5" width="75.515625" height="19" style="fill: rgb(0, 0, 0); fill-opacity: 0;"/></g><g class="traces" transform="translate(121.34375,14.5)" style="opacity: 1;"><text class="legendtext" text-anchor="start" x="40" y="4.680000000000001" style="font-family: Arial; font-size: 12px; fill: rgb(0, 0, 0); fill-opacity: 1; white-space: pre;">v(Uout)</text><g class="layers" style="opacity: 1;"><g class="legendfill"/><g class="legendlines"><path class="js-line" d="M5,0h30" style="fill: none; stroke: rgb(239, 85, 59); stroke-opacity: 1; stroke-width: 2px;"/></g><g class="legendsymbols"><g class="legendpoints"/></g></g><rect class="legendtoggle" x="0" y="-9.5" width="82.84375" height="19" style="fill: rgb(0, 0, 0); fill-opacity: 0;"/></g><g class="traces" transform="translate(242.6875,14.5)" style="opacity: 1;"><text class="legendtext" text-anchor="start" x="40" y="4.680000000000001" style="font-family: Arial; font-size: 12px; fill: rgb(0, 0, 0); fill-opacity: 1; white-space: pre;">v(Uin)-v(Uout)</text><g class="layers" style="opacity: 1;"><g class="legendfill"/><g class="legendlines"><path class="js-line" d="M5,0h30" style="fill: none; stroke: rgb(0, 204, 150); stroke-opacity: 1; stroke-width: 2px;"/></g><g class="legendsymbols"><g class="legendpoints"/></g></g><rect class="legendtoggle" x="0" y="-9.5" width="118.84375" height="19" style="fill: rgb(0, 0, 0); fill-opacity: 0;"/></g><g class="traces" transform="translate(364.03125,14.5)" style="opacity: 1;"><text class="legendtext" text-anchor="start" x="40" y="4.680000000000001" style="font-family: Arial; font-size: 12px; fill: rgb(0, 0, 0); fill-opacity: 1; white-space: pre;">I(RLast)</text><g class="layers" style="opacity: 1;"><g class="legendfill"/><g class="legendlines"><path class="js-line" d="M5,0h30" style="fill: none; stroke: rgb(0, 0, 0); stroke-opacity: 1; stroke-dasharray: 3px, 3px; stroke-width: 2px;"/></g><g class="legendsymbols"><g class="legendpoints"/></g></g><rect class="legendtoggle" x="0" y="-9.5" width="85.1875" height="19" style="fill: rgb(0, 0, 0); fill-opacity: 0;"/></g><g class="traces" transform="translate(0,33.5)" style="opacity: 1;"><text class="legendtext" text-anchor="start" x="40" y="4.680000000000001" style="font-family: Arial; font-size: 12px; fill: rgb(0, 0, 0); fill-opacity: 1; white-space: pre;">Ic(T1)</text><g class="layers" style="opacity: 1;"><g class="legendfill"/><g class="legendlines"><path class="js-line" d="M5,0h30" style="fill: none; stroke: rgb(255, 161, 90); stroke-opacity: 1; stroke-width: 2px;"/></g><g class="legendsymbols"><g class="legendpoints"/></g></g><rect class="legendtoggle" x="0" y="-9.5" width="73.84375" height="19" style="fill: rgb(0, 0, 0); fill-opacity: 0;"/></g><g class="traces" transform="translate(121.34375,33.5)" style="opacity: 1;"><text class="legendtext" text-anchor="start" x="40" y="4.680000000000001" style="font-family: Arial; font-size: 12px; fill: rgb(0, 0, 0); fill-opacity: 1; white-space: pre;">Ic(T2)</text><g class="layers" style="opacity: 1;"><g class="legendfill"/><g class="legendlines"><path class="js-line" d="M5,0h30" style="fill: none; stroke: rgb(25, 211, 243); stroke-opacity: 1; stroke-width: 2px;"/></g><g class="legendsymbols"><g class="legendpoints"/></g></g><rect class="legendtoggle" x="0" y="-9.5" width="73.84375" height="19" style="fill: rgb(0, 0, 0); fill-opacity: 0;"/></g><g class="traces" transform="translate(242.6875,33.5)" style="opacity: 1;"><text class="legendtext" text-anchor="start" x="40" y="4.680000000000001" style="font-family: Arial; font-size: 12px; fill: rgb(0, 0, 0); fill-opacity: 1; white-space: pre;">I(Rshunt)</text><g class="layers" style="opacity: 1;"><g class="legendfill"/><g class="legendlines"><path class="js-line" d="M5,0h30" style="fill: none; stroke: rgb(255, 102, 146); stroke-opacity: 1; stroke-width: 2px;"/></g><g class="legendsymbols"><g class="legendpoints"/></g></g><rect class="legendtoggle" x="0" y="-9.5" width="91.859375" height="19" style="fill: rgb(0, 0, 0); fill-opacity: 0;"/></g></g></g><rect class="scrollbar" rx="20" ry="3" width="0" height="0" x="0" y="0" style="fill: rgb(128, 139, 164); fill-opacity: 1;"/></g><g class="g-gtitle"/><g class="g-xtitle"/><g class="g-x2title"/><g class="g-x3title"/><g class="g-x4title"><text class="x4title" x="353" y="870.8" text-anchor="middle" style="font-family: Arial; font-size: 14px; fill: rgb(0, 0, 0); opacity: 1; font-weight: normal; white-space: pre;">Time</text></g><g class="g-ytitle"><text class="ytitle" transform="rotate(-90,15.168750000000003,157.03125)" x="15.168750000000003" y="157.03125" text-anchor="middle" style="font-family: Arial; font-size: 14px; fill: rgb(0, 0, 0); opacity: 1; font-weight: normal; white-space: pre;">Voltage</text></g><g class="g-y2title"><text class="y2title" transform="rotate(-90,15.168750000000003,362.34375)" x="15.168750000000003" y="362.34375" text-anchor="middle" style="font-family: Arial; font-size: 14px; fill: rgb(0, 0, 0); opacity: 1; font-weight: normal; white-space: pre;">Voltage</text></g><g class="g-y3title"><text class="y3title" transform="rotate(-90,15.168750000000003,567.65625)" x="15.168750000000003" y="567.65625" text-anchor="middle" style="font-family: Arial; font-size: 14px; fill: rgb(0, 0, 0); opacity: 1; font-weight: normal; white-space: pre;">Current</text></g><g class="g-y4title" transform="translate(1.1748046875,0)"><text class="y4title" transform="rotate(-90,11.825000000000003,772.96875)" x="11.825000000000003" y="772.96875" text-anchor="middle" style="font-family: Arial; font-size: 14px; fill: rgb(0, 0, 0); opacity: 1; font-weight: normal; white-space: pre;">Current</text></g><g class="annotation" data-index="0" style="opacity: 1;"><g class="annotation-text-g" transform="rotate(0,353,89.5)"><g class="cursor-pointer" transform="translate(248,79)"><rect class="bg" x="0.5" y="0.5" width="209" height="20" style="stroke-width: 1px; stroke: rgb(0, 0, 0); stroke-opacity: 0; fill: rgb(0, 0, 0); fill-opacity: 0;"/><text class="annotation-text" text-anchor="middle" x="104.75" y="16" style="font-family: Arial; font-size: 16px; fill: rgb(0, 0, 0); fill-opacity: 1; white-space: pre;">Ein- und Ausgangsspannung</text></g></g></g><g class="annotation" data-index="1" style="opacity: 1;"><g class="annotation-text-g" transform="rotate(0,353,294.8125)"><g class="cursor-pointer" transform="translate(280,284)"><rect class="bg" x="0.5" y="0.5" width="145" height="20" style="stroke-width: 1px; stroke: rgb(0, 0, 0); stroke-opacity: 0; fill: rgb(0, 0, 0); fill-opacity: 0;"/><text class="annotation-text" text-anchor="middle" x="73.03125" y="16" style="font-family: Arial; font-size: 16px; fill: rgb(0, 0, 0); fill-opacity: 1; white-space: pre;">Spannungsdifferenz</text></g></g></g><g class="annotation" data-index="2" style="opacity: 1;"><g class="annotation-text-g" transform="rotate(0,353,500.125)"><g class="cursor-pointer" transform="translate(325,490)"><rect class="bg" x="0.5" y="0.5" width="55" height="20" style="stroke-width: 1px; stroke: rgb(0, 0, 0); stroke-opacity: 0; fill: rgb(0, 0, 0); fill-opacity: 0;"/><text class="annotation-text" text-anchor="middle" x="27.796875" y="16" style="font-family: Arial; font-size: 16px; fill: rgb(0, 0, 0); fill-opacity: 1; white-space: pre;">Ströme</text></g></g></g></g></svg>