<svg class="main-svg" xmlns="http://www.w3.org/2000/svg" xmlns:xlink="http://www.w3.org/1999/xlink" width="700" height="500" style="" viewBox="0 0 700 500"><rect x="0" y="0" width="700" height="500" style="fill: rgb(255, 255, 255); fill-opacity: 1;"/><defs id="defs-47b97e"><g class="clips"><clipPath id="clip47b97exyplot" class="plotclip"><rect width="629" height="383"/></clipPath><clipPath class="axesclip" id="clip47b97ex"><rect x="67" y="0" width="629" height="500"/></clipPath><clipPath class="axesclip" id="clip47b97ey"><rect x="0" y="30" width="700" height="383"/></clipPath><clipPath class="axesclip" id="clip47b97exy"><rect x="67" y="30" width="629" height="383"/></clipPath></g><g class="gradients"/><g class="patterns"/></defs><g class="bglayer"><rect class="bg" x="67" y="30" width="629" height="383" style="fill: rgb(229, 236, 246); fill-opacity: 1; stroke-width: 0;"/></g><g class="layer-below"><g class="imagelayer"/><g class="shapelayer"/></g><g class="cartesianlayer"><g class="subplot xy"><g class="layer-subplot"><g class="shapelayer"/><g class="imagelayer"/></g><g class="minor-gridlayer"><g class="x"/><g class="y"/></g><g class="gridlayer"><g class="x"><path class="xgrid crisp" transform="translate(143.97,0)" d="M0,30v383" style="stroke: rgb(255, 255, 255); stroke-opacity: 1; stroke-width: 1px;"/><path class="xgrid crisp" transform="translate(220.94,0)" d="M0,30v383" style="stroke: rgb(255, 255, 255); stroke-opacity: 1; stroke-width: 1px;"/><path class="xgrid crisp" transform="translate(297.9,0)" d="M0,30v383" style="stroke: rgb(255, 255, 255); stroke-opacity: 1; stroke-width: 1px;"/><path class="xgrid crisp" transform="translate(374.87,0)" d="M0,30v383" style="stroke: rgb(255, 255, 255); stroke-opacity: 1; stroke-width: 1px;"/><path class="xgrid crisp" transform="translate(451.84,0)" d="M0,30v383" style="stroke: rgb(255, 255, 255); stroke-opacity: 1; stroke-width: 1px;"/><path class="xgrid crisp" transform="translate(528.81,0)" d="M0,30v383" style="stroke: rgb(255, 255, 255); stroke-opacity: 1; stroke-width: 1px;"/><path class="xgrid crisp" transform="translate(605.77,0)" d="M0,30v383" style="stroke: rgb(255, 255, 255); stroke-opacity: 1; stroke-width: 1px;"/><path class="xgrid crisp" transform="translate(682.74,0)" d="M0,30v383" style="stroke: rgb(255, 255, 255); stroke-opacity: 1; stroke-width: 1px;"/></g><g class="y"><path class="ygrid crisp" transform="translate(0,346.77)" d="M67,0h629" style="stroke: rgb(255, 255, 255); stroke-opacity: 1; stroke-width: 1px;"/><path class="ygrid crisp" transform="translate(0,299.67)" d="M67,0h629" style="stroke: rgb(255, 255, 255); stroke-opacity: 1; stroke-width: 1px;"/><path class="ygrid crisp" transform="translate(0,252.58)" d="M67,0h629" style="stroke: rgb(255, 255, 255); stroke-opacity: 1; stroke-width: 1px;"/><path class="ygrid crisp" transform="translate(0,205.48)" d="M67,0h629" style="stroke: rgb(255, 255, 255); stroke-opacity: 1; stroke-width: 1px;"/><path class="ygrid crisp" transform="translate(0,158.39)" d="M67,0h629" style="stroke: rgb(255, 255, 255); stroke-opacity: 1; stroke-width: 1px;"/><path class="ygrid crisp" transform="translate(0,111.29)" d="M67,0h629" style="stroke: rgb(255, 255, 255); stroke-opacity: 1; stroke-width: 1px;"/><path class="ygrid crisp" transform="translate(0,64.2)" d="M67,0h629" style="stroke: rgb(255, 255, 255); stroke-opacity: 1; stroke-width: 1px;"/></g></g><g class="zerolinelayer"><path class="yzl zl crisp" transform="translate(0,393.86)" d="M67,0h629" style="stroke: rgb(255, 255, 255); stroke-opacity: 1; stroke-width: 2px;"/></g><path class="xlines-below"/><path class="ylines-below"/><g class="overlines-below"/><g class="xaxislayer-below"/><g class="yaxislayer-below"/><g class="overaxes-below"/><g class="plot" transform="translate(67,30)" clip-path="url(#clip47b97exyplot)"><g class="scatterlayer mlayer"><g class="trace scatter traceaf144a" style="stroke-miterlimit: 2; opacity: 1;"><g class="fills"/><g class="errorbars"/><g class="lines"><path class="js-line" d="M0,360.76L169.33,360.14L184.72,359.9L246.3,358.02L261.69,357.21L307.87,353.52L323.26,351.71L354.05,346.85L369.44,343.62L384.84,339.71L400.23,334.99L415.63,329.29L431.02,322.42L446.41,314.15L461.81,304.23L477.2,292.32L492.59,278.08L507.99,261.09L523.38,240.88L538.77,216.93L554.17,188.65L569.56,155.43L584.95,116.57L600.35,71.38L615.74,19.15" style="vector-effect: non-scaling-stroke; fill: none; stroke: rgb(0, 0, 0); stroke-opacity: 1; stroke-width: 2px; opacity: 1; stroke-dasharray: 9px, 9px;"/></g><g class="points"/><g class="text"/></g><g class="trace scatter trace95fe9c" style="stroke-miterlimit: 2; opacity: 1;"><g class="fills"/><g class="errorbars"/><g class="lines"><path class="js-line" d="M0,363.85L184.72,362.99L200.12,362.68L261.69,360.3L277.08,359.31L307.87,356.6L323.26,354.79L354.05,349.92L369.44,346.68L384.84,342.77L400.23,338.04L415.63,332.33L431.02,325.45L446.41,317.17L461.81,307.23L477.2,295.31L492.59,281.05L507.99,264.03L523.38,243.8L538.77,219.81L554.17,191.5L569.56,158.23L584.95,119.32L600.35,74.08L615.74,21.78" style="vector-effect: non-scaling-stroke; fill: none; stroke: rgb(239, 85, 59); stroke-opacity: 1; stroke-width: 2px; opacity: 1;"/></g><g class="points"/><g class="text"/></g><g class="trace scatter traceaf19df" style="stroke-miterlimit: 2; opacity: 1;"><g class="fills"/><g class="errorbars"/><g class="lines"/><g class="points"><path class="point" transform="translate(535.14,222.58)" d="M4,0A4,4 0 1,1 0,-4A4,4 0 0,1 4,0Z" style="opacity: 1; stroke-width: 0px; fill: rgb(255, 0, 0); fill-opacity: 1;"/></g><g class="text"/></g><g class="trace scatter tracebbe594" style="stroke-miterlimit: 2; opacity: 1;"><g class="fills"/><g class="errorbars"/><g class="lines"/><g class="points"><path class="point" transform="translate(537,222.58)" d="M4,0A4,4 0 1,1 0,-4A4,4 0 0,1 4,0Z" style="opacity: 1; stroke-width: 0px; fill: rgb(0, 0, 255); fill-opacity: 1;"/></g><g class="text"/></g></g></g><g class="overplot"/><path class="xlines-above crisp" d="M0,0" style="fill: none;"/><path class="ylines-above crisp" d="M0,0" style="fill: none;"/><g class="overlines-above"/><g class="xaxislayer-above"><g class="xtick"><text text-anchor="middle" x="0" y="426" transform="translate(67,0)" style="font-family: Arial; font-size: 12px; fill: rgb(0, 0, 0); fill-opacity: 1; white-space: pre; opacity: 1;">1.00V</text></g><g class="xtick"><text text-anchor="middle" x="0" y="426" style="font-family: Arial; font-size: 12px; fill: rgb(0, 0, 0); fill-opacity: 1; white-space: pre; opacity: 1;" transform="translate(143.97,0)">1.05V</text></g><g class="xtick"><text text-anchor="middle" x="0" y="426" style="font-family: Arial; font-size: 12px; fill: rgb(0, 0, 0); fill-opacity: 1; white-space: pre; opacity: 1;" transform="translate(220.94,0)">1.10V</text></g><g class="xtick"><text text-anchor="middle" x="0" y="426" style="font-family: Arial; font-size: 12px; fill: rgb(0, 0, 0); fill-opacity: 1; white-space: pre; opacity: 1;" transform="translate(297.9,0)">1.15V</text></g><g class="xtick"><text text-anchor="middle" x="0" y="426" style="font-family: Arial; font-size: 12px; fill: rgb(0, 0, 0); fill-opacity: 1; white-space: pre; opacity: 1;" transform="translate(374.87,0)">1.20V</text></g><g class="xtick"><text text-anchor="middle" x="0" y="426" style="font-family: Arial; font-size: 12px; fill: rgb(0, 0, 0); fill-opacity: 1; white-space: pre; opacity: 1;" transform="translate(451.84,0)">1.25V</text></g><g class="xtick"><text text-anchor="middle" x="0" y="426" style="font-family: Arial; font-size: 12px; fill: rgb(0, 0, 0); fill-opacity: 1; white-space: pre; opacity: 1;" transform="translate(528.81,0)">1.30V</text></g><g class="xtick"><text text-anchor="middle" x="0" y="426" style="font-family: Arial; font-size: 12px; fill: rgb(0, 0, 0); fill-opacity: 1; white-space: pre; opacity: 1;" transform="translate(605.77,0)">1.35V</text></g><g class="xtick"><text text-anchor="middle" x="0" y="426" style="font-family: Arial; font-size: 12px; fill: rgb(0, 0, 0); fill-opacity: 1; white-space: pre; opacity: 1;" transform="translate(682.74,0)">1.40V</text></g></g><g class="yaxislayer-above"><g class="ytick"><text text-anchor="end" x="66" y="4.199999999999999" transform="translate(0,393.86)" style="font-family: Arial; font-size: 12px; fill: rgb(0, 0, 0); fill-opacity: 1; white-space: pre; opacity: 1;">0.00A</text></g><g class="ytick"><text text-anchor="end" x="66" y="4.199999999999999" style="font-family: Arial; font-size: 12px; fill: rgb(0, 0, 0); fill-opacity: 1; white-space: pre; opacity: 1;" transform="translate(0,346.77)">5.00mA</text></g><g class="ytick"><text text-anchor="end" x="66" y="4.199999999999999" style="font-family: Arial; font-size: 12px; fill: rgb(0, 0, 0); fill-opacity: 1; white-space: pre; opacity: 1;" transform="translate(0,299.67)">10.0mA</text></g><g class="ytick"><text text-anchor="end" x="66" y="4.199999999999999" style="font-family: Arial; font-size: 12px; fill: rgb(0, 0, 0); fill-opacity: 1; white-space: pre; opacity: 1;" transform="translate(0,252.58)">15.0mA</text></g><g class="ytick"><text text-anchor="end" x="66" y="4.199999999999999" style="font-family: Arial; font-size: 12px; fill: rgb(0, 0, 0); fill-opacity: 1; white-space: pre; opacity: 1;" transform="translate(0,205.48)">20.0mA</text></g><g class="ytick"><text text-anchor="end" x="66" y="4.199999999999999" style="font-family: Arial; font-size: 12px; fill: rgb(0, 0, 0); fill-opacity: 1; white-space: pre; opacity: 1;" transform="translate(0,158.39)">25.0mA</text></g><g class="ytick"><text text-anchor="end" x="66" y="4.199999999999999" style="font-family: Arial; font-size: 12px; fill: rgb(0, 0, 0); fill-opacity: 1; white-space: pre; opacity: 1;" transform="translate(0,111.29)">30.0mA</text></g><g class="ytick"><text text-anchor="end" x="66" y="4.199999999999999" style="font-family: Arial; font-size: 12px; fill: rgb(0, 0, 0); fill-opacity: 1; white-space: pre; opacity: 1;" transform="translate(0,64.2)">35.0mA</text></g></g><g class="overaxes-above"/></g></g><g class="polarlayer"/><g class="smithlayer"/><g class="ternarylayer"/><g class="geolayer"/><g class="funnelarealayer"/><g class="pielayer"/><g class="iciclelayer"/><g class="treemaplayer"/><g class="sunburstlayer"/><g class="glimages"/><defs id="topdefs-47b97e"><g class="clips"/><clipPath id="legend47b97e"><rect width="413" height="29" x="0" y="0"/></clipPath></defs><g class="layer-above"><g class="imagelayer"/><g class="shapelayer"/></g><g class="infolayer"><g class="legend" pointer-events="all" transform="translate(73.29,470.45)"><rect class="bg" shape-rendering="crispEdges" style="stroke: rgb(68, 68, 68); stroke-opacity: 1; fill: rgb(255, 255, 255); fill-opacity: 1; stroke-width: 0px;" width="413" height="29" x="0" y="0"/><g class="scrollbox" transform="" clip-path="url(#legend47b97e)"><g class="groups"><g class="traces" transform="translate(0,14.5)" style="opacity: 1;"><text class="legendtext" text-anchor="start" x="40" y="4.680000000000001" style="font-family: Arial; font-size: 12px; fill: rgb(0, 0, 0); fill-opacity: 1; white-space: pre;">ic(t1)</text><g class="layers" style="opacity: 1;"><g class="legendfill"/><g class="legendlines"><path class="js-line" d="M5,0h30" style="fill: none; stroke: rgb(0, 0, 0); stroke-opacity: 1; stroke-dasharray: 9px, 9px; stroke-width: 2px;"/></g><g class="legendsymbols"><g class="legendpoints"/></g></g><rect class="legendtoggle" x="0" y="-9.5" width="69.171875" height="19" style="fill: rgb(0, 0, 0); fill-opacity: 0;"/></g><g class="traces" transform="translate(71.671875,14.5)" style="opacity: 1;"><text class="legendtext" text-anchor="start" x="40" y="4.680000000000001" style="font-family: Arial; font-size: 12px; fill: rgb(0, 0, 0); fill-opacity: 1; white-space: pre;">ic(t2)</text><g class="layers" style="opacity: 1;"><g class="legendfill"/><g class="legendlines"><path class="js-line" d="M5,0h30" style="fill: none; stroke: rgb(239, 85, 59); stroke-opacity: 1; stroke-width: 2px;"/></g><g class="legendsymbols"><g class="legendpoints"/></g></g><rect class="legendtoggle" x="0" y="-9.5" width="69.171875" height="19" style="fill: rgb(0, 0, 0); fill-opacity: 0;"/></g><g class="traces" transform="translate(143.34375,14.5)" style="opacity: 1;"><text class="legendtext" text-anchor="start" x="40" y="4.680000000000001" style="font-family: Arial; font-size: 12px; fill: rgb(0, 0, 0); fill-opacity: 1; white-space: pre;">Crosshair (ic(t1))</text><g class="layers" style="opacity: 1;"><g class="legendfill"/><g class="legendlines"/><g class="legendsymbols"><g class="legendpoints"><path class="scatterpts" transform="translate(20,0)" d="M4,0A4,4 0 1,1 0,-4A4,4 0 0,1 4,0Z" style="opacity: 1; stroke-width: 0px; fill: rgb(255, 0, 0); fill-opacity: 1;"/></g></g></g><rect class="legendtoggle" x="0" y="-9.5" width="131.84375" height="19" style="fill: rgb(0, 0, 0); fill-opacity: 0;"/></g><g class="traces" transform="translate(277.6875,14.5)" style="opacity: 1;"><text class="legendtext" text-anchor="start" x="40" y="4.680000000000001" style="font-family: Arial; font-size: 12px; fill: rgb(0, 0, 0); fill-opacity: 1; white-space: pre;">Crosshair (ic(t2))</text><g class="layers" style="opacity: 1;"><g class="legendfill"/><g class="legendlines"/><g class="legendsymbols"><g class="legendpoints"><path class="scatterpts" transform="translate(20,0)" d="M4,0A4,4 0 1,1 0,-4A4,4 0 0,1 4,0Z" style="opacity: 1; stroke-width: 0px; fill: rgb(0, 0, 255); fill-opacity: 1;"/></g></g></g><rect class="legendtoggle" x="0" y="-9.5" width="131.84375" height="19" style="fill: rgb(0, 0, 0); fill-opacity: 0;"/></g></g></g><rect class="scrollbar" rx="20" ry="3" width="0" height="0" style="fill: rgb(128, 139, 164); fill-opacity: 1;" x="0" y="0"/></g><g class="g-gtitle"/><g class="g-xtitle"><text class="xtitle" x="381.5" y="453.8" text-anchor="middle" style="font-family: Arial; font-size: 14px; fill: rgb(0, 0, 0); opacity: 1; font-weight: normal; white-space: pre;">v(Uvor)</text></g><g class="g-ytitle" transform="translate(13.1591796875,0)"><text class="ytitle" transform="rotate(-90,-0.15937499999999716,221.5)" x="-0.15937499999999716" y="221.5" text-anchor="middle" style="font-family: Arial; font-size: 14px; fill: rgb(0, 0, 0); opacity: 1; font-weight: normal; white-space: pre;">Current</text></g><g class="annotation" data-index="0" style="opacity: 1;"><g class="annotation-text-g" transform="rotate(0,562.14,212.58)"><g class="cursor-pointer" transform="translate(510,204)"><rect class="bg" x="0.5" y="0.5" width="103" height="17" style="stroke-width: 1px; stroke: rgb(0, 0, 0); stroke-opacity: 0; fill: rgb(0, 0, 0); fill-opacity: 0;"/><text class="annotation-text" text-anchor="middle" x="51.859375" y="13" style="font-family: Arial; font-size: 12px; fill: rgb(0, 0, 0); fill-opacity: 1; white-space: pre;">v(Uvor)= 1.3476 V</text></g></g><g class="annotation-arrow-g" style="opacity: 1;"><path d="M570.64,221.08L602.14,252.58" style="stroke-width: 1px; stroke: rgb(42, 63, 95); stroke-opacity: 1; stroke-dasharray: 0px, 0px, 43.9477px, 44.5477px;"/><path d="M-2.4,-3V3L0.6,0Z" transform="translate(601.7157592773438,252.15574645996094)rotate(44.98763845121379)" style="fill: rgb(42, 63, 95); stroke-width: 0;"/></g></g><g class="annotation" data-index="1" style="opacity: 1;"><g class="annotation-text-g" transform="rotate(0,644,292.58000000000004)"><g class="cursor-pointer" transform="translate(592,284)"><rect class="bg" x="0.5" y="0.5" width="103" height="17" style="stroke-width: 1px; stroke: rgb(0, 0, 0); stroke-opacity: 0; fill: rgb(0, 0, 0); fill-opacity: 0;"/><text class="annotation-text" text-anchor="middle" x="51.859375" y="13" style="font-family: Arial; font-size: 12px; fill: rgb(0, 0, 0); fill-opacity: 1; white-space: pre;">v(Uvor)= 1.3488 V</text></g></g><g class="annotation-arrow-g" style="opacity: 1;"><path d="M635.5,284.08000000000004L604,252.58" style="stroke-width: 1px; stroke: rgb(42, 63, 95); stroke-opacity: 1; stroke-dasharray: 0px, 0px, 43.9477px, 44.5477px;"/><path d="M-2.4,-3V3L0.6,0Z" transform="translate(604.4242553710938,253.00425720214844)rotate(-135.0123615487862)" style="fill: rgb(42, 63, 95); stroke-width: 0;"/></g></g></g></svg>