<svg class="main-svg" xmlns="http://www.w3.org/2000/svg" xmlns:xlink="http://www.w3.org/1999/xlink" width="700" height="1000" style="" viewBox="0 0 700 1000"><rect x="0" y="0" width="700" height="1000" style="fill: rgb(255, 255, 255); fill-opacity: 1;"/><defs id="defs-ce86f0"><g class="clips"><clipPath id="clipce86f0xyplot" class="plotclip"><rect width="534" height="114.0625"/></clipPath><clipPath id="clipce86f0x2y2plot" class="plotclip"><rect width="534" height="114.0625"/></clipPath><clipPath id="clipce86f0x3y3plot" class="plotclip"><rect width="534" height="114.0625"/></clipPath><clipPath id="clipce86f0x4y4plot" class="plotclip"><rect width="534" height="114.0625"/></clipPath><clipPath class="axesclip" id="clipce86f0x"><rect x="86" y="0" width="534" height="1000"/></clipPath><clipPath class="axesclip" id="clipce86f0y"><rect x="0" y="100" width="700" height="114.0625"/></clipPath><clipPath class="axesclip" id="clipce86f0xy"><rect x="86" y="100" width="534" height="114.0625"/></clipPath><clipPath class="axesclip" id="clipce86f0y2"><rect x="0" y="305.3125" width="700" height="114.0625"/></clipPath><clipPath class="axesclip" id="clipce86f0xy2"><rect x="86" y="305.3125" width="534" height="114.0625"/></clipPath><clipPath class="axesclip" id="clipce86f0y3"><rect x="0" y="510.625" width="700" height="114.0625"/></clipPath><clipPath class="axesclip" id="clipce86f0xy3"><rect x="86" y="510.625" width="534" height="114.0625"/></clipPath><clipPath class="axesclip" id="clipce86f0y4"><rect x="0" y="715.9375" width="700" height="114.0625"/></clipPath><clipPath class="axesclip" id="clipce86f0xy4"><rect x="86" y="715.9375" width="534" height="114.0625"/></clipPath><clipPath class="axesclip" id="clipce86f0x2"><rect x="86" y="0" width="534" height="1000"/></clipPath><clipPath class="axesclip" id="clipce86f0x2y"><rect x="86" y="100" width="534" height="114.0625"/></clipPath><clipPath class="axesclip" id="clipce86f0x2y2"><rect x="86" y="305.3125" width="534" height="114.0625"/></clipPath><clipPath class="axesclip" id="clipce86f0x2y3"><rect x="86" y="510.625" width="534" height="114.0625"/></clipPath><clipPath class="axesclip" id="clipce86f0x2y4"><rect x="86" y="715.9375" width="534" height="114.0625"/></clipPath><clipPath class="axesclip" id="clipce86f0x3"><rect x="86" y="0" width="534" height="1000"/></clipPath><clipPath class="axesclip" id="clipce86f0x3y"><rect x="86" y="100" width="534" height="114.0625"/></clipPath><clipPath class="axesclip" id="clipce86f0x3y2"><rect x="86" y="305.3125" width="534" height="114.0625"/></clipPath><clipPath class="axesclip" id="clipce86f0x3y3"><rect x="86" y="510.625" width="534" height="114.0625"/></clipPath><clipPath class="axesclip" id="clipce86f0x3y4"><rect x="86" y="715.9375" width="534" height="114.0625"/></clipPath><clipPath class="axesclip" id="clipce86f0x4"><rect x="86" y="0" width="534" height="1000"/></clipPath><clipPath class="axesclip" id="clipce86f0x4y"><rect x="86" y="100" width="534" height="114.0625"/></clipPath><clipPath class="axesclip" id="clipce86f0x4y2"><rect x="86" y="305.3125" width="534" height="114.0625"/></clipPath><clipPath class="axesclip" id="clipce86f0x4y3"><rect x="86" y="510.625" width="534" height="114.0625"/></clipPath><clipPath class="axesclip" id="clipce86f0x4y4"><rect x="86" y="715.9375" width="534" height="114.0625"/></clipPath></g><g class="gradients"/><g class="patterns"/></defs><g class="bglayer"><rect class="bg" x="86" y="100" width="534" height="114.0625" style="fill: rgb(229, 236, 246); fill-opacity: 1; stroke-width: 0;"/><rect class="bg" x="86" y="305.3125" width="534" height="114.0625" style="fill: rgb(229, 236, 246); fill-opacity: 1; stroke-width: 0;"/><rect class="bg" x="86" y="510.625" width="534" height="114.0625" style="fill: rgb(229, 236, 246); fill-opacity: 1; stroke-width: 0;"/><rect class="bg" x="86" y="715.9375" width="534" height="114.0625" style="fill: rgb(229, 236, 246); fill-opacity: 1; stroke-width: 0;"/></g><g class="layer-below"><g class="imagelayer"/><g class="shapelayer"/></g><g class="cartesianlayer"><g class="subplot xy"><g class="layer-subplot"><g class="shapelayer"/><g class="imagelayer"/></g><g class="minor-gridlayer"><g class="x"/><g class="y"/></g><g class="gridlayer"><g class="x"><path class="xgrid crisp" transform="translate(175,0)" d="M0,100v114.0625" style="stroke: rgb(255, 255, 255); stroke-opacity: 1; stroke-width: 1px;"/><path class="xgrid crisp" transform="translate(264,0)" d="M0,100v114.0625" style="stroke: rgb(255, 255, 255); stroke-opacity: 1; stroke-width: 1px;"/><path class="xgrid crisp" transform="translate(353,0)" d="M0,100v114.0625" style="stroke: rgb(255, 255, 255); stroke-opacity: 1; stroke-width: 1px;"/><path class="xgrid crisp" transform="translate(442,0)" d="M0,100v114.0625" style="stroke: rgb(255, 255, 255); stroke-opacity: 1; stroke-width: 1px;"/><path class="xgrid crisp" transform="translate(531,0)" d="M0,100v114.0625" style="stroke: rgb(255, 255, 255); stroke-opacity: 1; stroke-width: 1px;"/></g><g class="y"><path class="ygrid crisp" transform="translate(0,208.36)" d="M86,0h534" style="stroke: rgb(255, 255, 255); stroke-opacity: 1; stroke-width: 1px;"/><path class="ygrid crisp" transform="translate(0,182.72)" d="M86,0h534" style="stroke: rgb(255, 255, 255); stroke-opacity: 1; stroke-width: 1px;"/><path class="ygrid crisp" transform="translate(0,131.45)" d="M86,0h534" style="stroke: rgb(255, 255, 255); stroke-opacity: 1; stroke-width: 1px;"/><path class="ygrid crisp" transform="translate(0,105.81)" d="M86,0h534" style="stroke: rgb(255, 255, 255); stroke-opacity: 1; stroke-width: 1px;"/></g></g><g class="zerolinelayer"><path class="xzl zl crisp" transform="translate(86,0)" d="M0,100v114.0625" style="stroke: rgb(255, 255, 255); stroke-opacity: 1; stroke-width: 2px;"/><path class="yzl zl crisp" transform="translate(0,157.09)" d="M86,0h534" style="stroke: rgb(255, 255, 255); stroke-opacity: 1; stroke-width: 2px;"/></g><path class="xlines-below"/><path class="ylines-below"/><g class="overlines-below"/><g class="xaxislayer-below"/><g class="yaxislayer-below"/><g class="overaxes-below"/><g class="plot" transform="translate(86,100)" clip-path="url(#clipce86f0xyplot)"><g class="scatterlayer mlayer"><g class="trace scatter tracebd49e7" style="stroke-miterlimit: 2; opacity: 1;"><g class="fills"/><g class="errorbars"/><g class="lines"><path class="js-line" d="M0,57.09L16.5,28.88L20.06,23.73L27.18,15.1L30.74,11.74L37.86,7.21L41.42,6.11L44.98,5.82L48.54,6.33L55.66,9.74L59.22,12.58L66.34,20.31L69.9,25.08L80.58,42.08L84.14,48.34L105.31,85L108.87,90.17L115.99,98.87L119.55,102.27L126.67,106.88L130.23,108.02L133.79,108.36L137.35,107.89L144.47,104.57L148.03,101.77L155.15,94.11L158.71,89.37L169.39,72.44L172.95,66.19L193.78,29.97L196.28,26.25L201.94,18.73L205.41,14.86L212.53,8.95L216.09,7.12L222.35,5.81L224.97,6.01L230.23,7.71L233.79,9.83L240.91,16.26L244.47,20.47L251.59,30.55L255.15,36.26L275.85,72.84L276.92,74.68L285.12,87.69L288.68,92.6L295.8,100.68L299.36,103.72L306.48,107.56L310.04,108.29L313.6,108.22L317.16,107.34L324.28,103.23L327.84,100.07L334.96,91.77L338.52,86.76L349.2,69.28L352.76,62.94L370.82,31.48L373.05,28.05L382.13,16.22L385.69,12.66L392.81,7.69L396.37,6.36L401.93,5.88L404.64,6.36L411.45,9.6L415.01,12.39L422.13,20.05L425.69,24.78L436.37,41.71L439.93,47.96L462.61,86.94L466.17,91.93L473.29,100.19L476.85,103.33L483.97,107.39L487.53,108.24L491.09,108.28L494.65,107.52L501.77,103.63L505.33,100.57L512.45,92.44L516.01,87.51L526.69,70.18L530.25,63.86L534,57.09" style="vector-effect: non-scaling-stroke; fill: none; stroke: rgb(0, 0, 0); stroke-opacity: 1; stroke-width: 2px; opacity: 1; stroke-dasharray: 9px, 9px;"/></g><g class="points"/><g class="text"/></g><g class="trace scatter tracee864b3" style="stroke-miterlimit: 2; opacity: 1;"><g class="fills"/><g class="errorbars"/><g class="lines"><path class="js-line" d="M0,56.98L0.98,56.38L1.08,56.19L7.65,44.03L9.16,41.4L20.06,24.17L23.62,19.49L30.74,11.97L34.3,9.24L41.42,6.09L44.98,5.7L48.54,6.13L52.1,7.35L59.22,12.12L62.78,15.59L69.9,24.42L73.46,29.64L85.48,49.83L87.26,53L105.31,84.29L108.87,89.52L115.99,98.35L119.55,101.83L126.67,106.61L130.23,107.84L133.79,108.27L137.35,107.89L144.47,104.74L148.03,102.02L155.15,94.5L158.71,89.83L169.39,73.05L172.95,66.86L196.28,26.71L198.82,23.14L205.41,15.16L208.97,11.77L216.09,7.17L219.65,6.04L224.97,5.84L227.47,6.37L233.79,9.45L237.35,12.24L244.47,19.87L248.03,24.6L258.71,41.48L262.27,47.7L285.12,87.01L288.68,91.98L295.8,100.21L299.36,103.33L306.48,107.33L310.04,108.16L313.6,108.17L317.16,107.39L324.28,103.45L327.84,100.36L334.96,92.19L338.52,87.24L349.2,69.93L352.76,63.66L373.05,28.54L375.48,24.99L382.13,16.55L385.69,12.92L392.81,7.78L396.37,6.36L401.93,5.74L404.64,6.15L411.45,9.22L415.01,11.94L422.13,19.45L425.69,24.12L436.37,40.9L439.93,47.09L462.61,86.25L466.17,91.3L473.29,99.7L476.85,102.92L483.97,107.15L487.53,108.09L491.09,108.22L494.65,107.55L501.77,103.83L505.33,100.85L512.45,92.86L516.01,87.99L526.69,70.82L530.25,64.57L534,57.89" style="vector-effect: non-scaling-stroke; fill: none; stroke: rgb(239, 85, 59); stroke-opacity: 1; stroke-width: 2px; opacity: 1;"/></g><g class="points"/><g class="text"/></g></g></g><g class="overplot"/><path class="xlines-above crisp" d="M0,0" style="fill: none;"/><path class="ylines-above crisp" d="M0,0" style="fill: none;"/><g class="overlines-above"/><g class="xaxislayer-above"><g class="xtick"><text text-anchor="middle" x="0" y="227.0625" transform="translate(86,0)" style="font-family: Arial; font-size: 12px; fill: rgb(0, 0, 0); fill-opacity: 1; white-space: pre; opacity: 1;">0.00s</text></g><g class="xtick"><text text-anchor="middle" x="0" y="227.0625" style="font-family: Arial; font-size: 12px; fill: rgb(0, 0, 0); fill-opacity: 1; white-space: pre; opacity: 1;" transform="translate(175,0)">50.0µs</text></g><g class="xtick"><text text-anchor="middle" x="0" y="227.0625" style="font-family: Arial; font-size: 12px; fill: rgb(0, 0, 0); fill-opacity: 1; white-space: pre; opacity: 1;" transform="translate(264,0)">100µs</text></g><g class="xtick"><text text-anchor="middle" x="0" y="227.0625" style="font-family: Arial; font-size: 12px; fill: rgb(0, 0, 0); fill-opacity: 1; white-space: pre; opacity: 1;" transform="translate(353,0)">150µs</text></g><g class="xtick"><text text-anchor="middle" x="0" y="227.0625" style="font-family: Arial; font-size: 12px; fill: rgb(0, 0, 0); fill-opacity: 1; white-space: pre; opacity: 1;" transform="translate(442,0)">200µs</text></g><g class="xtick"><text text-anchor="middle" x="0" y="227.0625" style="font-family: Arial; font-size: 12px; fill: rgb(0, 0, 0); fill-opacity: 1; white-space: pre; opacity: 1;" transform="translate(531,0)">250µs</text></g><g class="xtick"><text text-anchor="middle" x="0" y="227.0625" style="font-family: Arial; font-size: 12px; fill: rgb(0, 0, 0); fill-opacity: 1; white-space: pre; opacity: 1;" transform="translate(620,0)">300µs</text></g></g><g class="yaxislayer-above"><g class="ytick"><text text-anchor="end" x="85" y="4.199999999999999" transform="translate(0,208.36)" style="font-family: Arial; font-size: 12px; fill: rgb(0, 0, 0); fill-opacity: 1; white-space: pre; opacity: 1;">−1.00V</text></g><g class="ytick"><text text-anchor="end" x="85" y="4.199999999999999" style="font-family: Arial; font-size: 12px; fill: rgb(0, 0, 0); fill-opacity: 1; white-space: pre; opacity: 1;" transform="translate(0,182.72)">−500mV</text></g><g class="ytick"><text text-anchor="end" x="85" y="4.199999999999999" style="font-family: Arial; font-size: 12px; fill: rgb(0, 0, 0); fill-opacity: 1; white-space: pre; opacity: 1;" transform="translate(0,157.09)">0.00V</text></g><g class="ytick"><text text-anchor="end" x="85" y="4.199999999999999" style="font-family: Arial; font-size: 12px; fill: rgb(0, 0, 0); fill-opacity: 1; white-space: pre; opacity: 1;" transform="translate(0,131.45)">500mV</text></g><g class="ytick"><text text-anchor="end" x="85" y="4.199999999999999" style="font-family: Arial; font-size: 12px; fill: rgb(0, 0, 0); fill-opacity: 1; white-space: pre; opacity: 1;" transform="translate(0,105.81)">1.00V</text></g></g><g class="overaxes-above"/></g><g class="subplot x2y2"><g class="layer-subplot"><g class="shapelayer"/><g class="imagelayer"/></g><g class="minor-gridlayer"><g class="x2"/><g class="y2"/></g><g class="gridlayer"><g class="x2"><path class="x2grid crisp" transform="translate(175,0)" d="M0,305.3125v114.0625" style="stroke: rgb(255, 255, 255); stroke-opacity: 1; stroke-width: 1px;"/><path class="x2grid crisp" transform="translate(264,0)" d="M0,305.3125v114.0625" style="stroke: rgb(255, 255, 255); stroke-opacity: 1; stroke-width: 1px;"/><path class="x2grid crisp" transform="translate(353,0)" d="M0,305.3125v114.0625" style="stroke: rgb(255, 255, 255); stroke-opacity: 1; stroke-width: 1px;"/><path class="x2grid crisp" transform="translate(442,0)" d="M0,305.3125v114.0625" style="stroke: rgb(255, 255, 255); stroke-opacity: 1; stroke-width: 1px;"/><path class="x2grid crisp" transform="translate(531,0)" d="M0,305.3125v114.0625" style="stroke: rgb(255, 255, 255); stroke-opacity: 1; stroke-width: 1px;"/></g><g class="y2"><path class="y2grid crisp" transform="translate(0,414.4325)" d="M86,0h534" style="stroke: rgb(255, 255, 255); stroke-opacity: 1; stroke-width: 1px;"/><path class="y2grid crisp" transform="translate(0,389.0225)" d="M86,0h534" style="stroke: rgb(255, 255, 255); stroke-opacity: 1; stroke-width: 1px;"/><path class="y2grid crisp" transform="translate(0,338.2125)" d="M86,0h534" style="stroke: rgb(255, 255, 255); stroke-opacity: 1; stroke-width: 1px;"/><path class="y2grid crisp" transform="translate(0,312.8125)" d="M86,0h534" style="stroke: rgb(255, 255, 255); stroke-opacity: 1; stroke-width: 1px;"/></g></g><g class="zerolinelayer"><path class="x2zl zl crisp" transform="translate(86,0)" d="M0,305.3125v114.0625" style="stroke: rgb(255, 255, 255); stroke-opacity: 1; stroke-width: 2px;"/><path class="y2zl zl crisp" transform="translate(0,363.6225)" d="M86,0h534" style="stroke: rgb(255, 255, 255); stroke-opacity: 1; stroke-width: 2px;"/></g><path class="xlines-below"/><path class="ylines-below"/><g class="overlines-below"/><g class="xaxislayer-below"/><g class="yaxislayer-below"/><g class="overaxes-below"/><g class="plot" transform="translate(86,305.3125)" clip-path="url(#clipce86f0x2y2plot)"><g class="scatterlayer mlayer"><g class="trace scatter trace3aaf02" style="stroke-miterlimit: 2; opacity: 1;"><g class="fills"/><g class="errorbars"/><g class="lines"><path class="js-line" d="M0,63.37L0.98,5.7L1.29,8.56L1.59,15.78L2.45,26.52L2.8,24.83L3.49,22.04L3.9,22.81L5.06,25.68L5.74,25.76L10.66,29.47L13.66,31.75L20.06,36.68L23.62,39.73L34.3,51L37.86,55.24L59.22,81.04L62.78,84.64L73.46,93.79L77.02,96.29L85.48,102.82L87.26,104.87L89.49,107.76L91.42,107.02L93.73,102.18L95.09,101.41L102.95,94.91L105.31,93.35L115.99,83.89L119.55,79.98L130.23,67.44L133.79,62.9L148.03,45.93L151.59,42.15L162.27,32.94L165.83,30.34L172.95,24.77L176.51,20.06L179.34,19.28L181.89,25.13L183.39,25.1L185.13,26.71L186.91,28.77L188.34,28.9L191.31,31.47L193.78,33.08L205.41,43.43L208.97,47.27L222.35,63.21L224.97,66.63L240.91,84.79L244.47,88.18L255.15,96.36L258.71,98.79L262.27,101.5L265.83,105.53L269.39,108.36L271.49,101.94L274.72,100.5L275.85,98.17L276.92,98.16L278.04,97.39L282.48,93.97L285.12,91.78L292.24,85.41L295.8,82.04L313.6,60.64L317.16,56.21L327.84,43.94L331.4,40.4L342.08,31.55L345.64,29.14L352.76,22.74L356.32,17.97L358.3,22.65L360.22,24.43L362.26,25.76L363.78,27.96L365.35,28.31L366.79,29.64L378.57,38.83L382.13,42.13L392.81,53.89L396.37,58.38L418.57,84.48L422.13,87.84L432.81,96.12L436.37,98.55L441.27,102.62L443.05,104.57L445.07,107.28L446.8,107.73L450.11,102.13L451.98,100.67L455.86,97.4L459.05,94.96L469.73,85.96L473.29,82.55L487.53,65.78L491.09,61.29L505.33,44.54L508.89,40.88L519.57,31.95L523.13,29.47L530.25,23.32L533.81,18.38L534,18.47" style="vector-effect: non-scaling-stroke; fill: none; stroke: rgb(0, 204, 150); stroke-opacity: 1; stroke-width: 2px; opacity: 1;"/></g><g class="points"/><g class="text"/></g></g></g><g class="overplot"/><path class="xlines-above crisp" d="M0,0" style="fill: none;"/><path class="ylines-above crisp" d="M0,0" style="fill: none;"/><g class="overlines-above"/><g class="xaxislayer-above"><g class="x2tick"><text text-anchor="middle" x="0" y="432.375" transform="translate(86,0)" style="font-family: Arial; font-size: 12px; fill: rgb(0, 0, 0); fill-opacity: 1; white-space: pre; opacity: 1;">0.00s</text></g><g class="x2tick"><text text-anchor="middle" x="0" y="432.375" style="font-family: Arial; font-size: 12px; fill: rgb(0, 0, 0); fill-opacity: 1; white-space: pre; opacity: 1;" transform="translate(175,0)">50.0µs</text></g><g class="x2tick"><text text-anchor="middle" x="0" y="432.375" style="font-family: Arial; font-size: 12px; fill: rgb(0, 0, 0); fill-opacity: 1; white-space: pre; opacity: 1;" transform="translate(264,0)">100µs</text></g><g class="x2tick"><text text-anchor="middle" x="0" y="432.375" style="font-family: Arial; font-size: 12px; fill: rgb(0, 0, 0); fill-opacity: 1; white-space: pre; opacity: 1;" transform="translate(353,0)">150µs</text></g><g class="x2tick"><text text-anchor="middle" x="0" y="432.375" style="font-family: Arial; font-size: 12px; fill: rgb(0, 0, 0); fill-opacity: 1; white-space: pre; opacity: 1;" transform="translate(442,0)">200µs</text></g><g class="x2tick"><text text-anchor="middle" x="0" y="432.375" style="font-family: Arial; font-size: 12px; fill: rgb(0, 0, 0); fill-opacity: 1; white-space: pre; opacity: 1;" transform="translate(531,0)">250µs</text></g><g class="x2tick"><text text-anchor="middle" x="0" y="432.375" style="font-family: Arial; font-size: 12px; fill: rgb(0, 0, 0); fill-opacity: 1; white-space: pre; opacity: 1;" transform="translate(620,0)">300µs</text></g></g><g class="yaxislayer-above"><g class="y2tick"><text text-anchor="end" x="85" y="4.199999999999999" transform="translate(0,414.4325)" style="font-family: Arial; font-size: 12px; fill: rgb(0, 0, 0); fill-opacity: 1; white-space: pre; opacity: 1;">−20.0mV</text></g><g class="y2tick"><text text-anchor="end" x="85" y="4.199999999999999" style="font-family: Arial; font-size: 12px; fill: rgb(0, 0, 0); fill-opacity: 1; white-space: pre; opacity: 1;" transform="translate(0,389.0225)">−10.0mV</text></g><g class="y2tick"><text text-anchor="end" x="85" y="4.199999999999999" style="font-family: Arial; font-size: 12px; fill: rgb(0, 0, 0); fill-opacity: 1; white-space: pre; opacity: 1;" transform="translate(0,363.6225)">0.00V</text></g><g class="y2tick"><text text-anchor="end" x="85" y="4.199999999999999" style="font-family: Arial; font-size: 12px; fill: rgb(0, 0, 0); fill-opacity: 1; white-space: pre; opacity: 1;" transform="translate(0,338.2125)">10.0mV</text></g><g class="y2tick"><text text-anchor="end" x="85" y="4.199999999999999" style="font-family: Arial; font-size: 12px; fill: rgb(0, 0, 0); fill-opacity: 1; white-space: pre; opacity: 1;" transform="translate(0,312.8125)">20.0mV</text></g></g><g class="overaxes-above"/></g><g class="subplot x3y3"><g class="layer-subplot"><g class="shapelayer"/><g class="imagelayer"/></g><g class="minor-gridlayer"><g class="x3"/><g class="y3"/></g><g class="gridlayer"><g class="x3"><path class="x3grid crisp" transform="translate(175,0)" d="M0,510.625v114.0625" style="stroke: rgb(255, 255, 255); stroke-opacity: 1; stroke-width: 1px;"/><path class="x3grid crisp" transform="translate(264,0)" d="M0,510.625v114.0625" style="stroke: rgb(255, 255, 255); stroke-opacity: 1; stroke-width: 1px;"/><path class="x3grid crisp" transform="translate(353,0)" d="M0,510.625v114.0625" style="stroke: rgb(255, 255, 255); stroke-opacity: 1; stroke-width: 1px;"/><path class="x3grid crisp" transform="translate(442,0)" d="M0,510.625v114.0625" style="stroke: rgb(255, 255, 255); stroke-opacity: 1; stroke-width: 1px;"/><path class="x3grid crisp" transform="translate(531,0)" d="M0,510.625v114.0625" style="stroke: rgb(255, 255, 255); stroke-opacity: 1; stroke-width: 1px;"/></g><g class="y3"><path class="y3grid crisp" transform="translate(0,598.5550000000001)" d="M86,0h534" style="stroke: rgb(255, 255, 255); stroke-opacity: 1; stroke-width: 1px;"/><path class="y3grid crisp" transform="translate(0,536.965)" d="M86,0h534" style="stroke: rgb(255, 255, 255); stroke-opacity: 1; stroke-width: 1px;"/></g></g><g class="zerolinelayer"><path class="x3zl zl crisp" transform="translate(86,0)" d="M0,510.625v114.0625" style="stroke: rgb(255, 255, 255); stroke-opacity: 1; stroke-width: 2px;"/><path class="y3zl zl crisp" transform="translate(0,567.755)" d="M86,0h534" style="stroke: rgb(255, 255, 255); stroke-opacity: 1; stroke-width: 2px;"/></g><path class="xlines-below"/><path class="ylines-below"/><g class="overlines-below"/><g class="xaxislayer-below"/><g class="yaxislayer-below"/><g class="overaxes-below"/><g class="plot" transform="translate(86,510.625)" clip-path="url(#clipce86f0x3y3plot)"><g class="scatterlayer mlayer"><g class="trace scatter trace41a7bb" style="stroke-miterlimit: 2; opacity: 1;"><g class="fills"/><g class="errorbars"/><g class="lines"><path class="js-line" d="M0,57.03L0.98,56.43L1.08,56.24L7.65,44.07L9.16,41.43L20.06,24.19L23.62,19.5L30.74,11.97L34.3,9.25L41.42,6.09L44.98,5.7L48.54,6.13L52.1,7.36L59.22,12.13L62.78,15.6L69.9,24.44L73.46,29.66L85.48,49.87L87.26,53.04L105.31,84.36L108.87,89.59L115.99,98.44L119.55,101.92L126.67,106.7L130.23,107.93L133.79,108.36L137.35,107.98L144.47,104.83L148.03,102.11L155.15,94.58L158.71,89.9L169.39,73.12L172.95,66.92L196.28,26.73L198.82,23.16L205.41,15.17L208.97,11.77L216.09,7.18L219.65,6.04L224.97,5.84L227.47,6.37L233.79,9.45L237.35,12.24L244.47,19.88L248.03,24.62L258.71,41.51L262.27,47.73L285.12,87.09L288.68,92.06L295.8,100.29L299.36,103.41L306.48,107.42L310.04,108.25L313.6,108.27L317.16,107.48L324.28,103.54L327.84,100.45L334.96,92.27L338.52,87.32L349.2,69.99L352.76,63.71L373.05,28.56L375.48,25L382.13,16.56L385.69,12.92L392.81,7.78L396.37,6.36L401.93,5.74L404.64,6.15L411.45,9.22L415.01,11.95L422.13,19.46L425.69,24.14L436.37,40.93L439.93,47.13L462.61,86.33L466.17,91.38L473.29,99.79L476.85,103.01L483.97,107.24L487.53,108.18L491.09,108.31L494.65,107.64L501.77,103.92L505.33,100.93L512.45,92.94L516.01,88.06L526.69,70.87L530.25,64.62L534,57.94" style="vector-effect: non-scaling-stroke; fill: none; stroke: rgb(0, 0, 0); stroke-opacity: 1; stroke-width: 2px; opacity: 1; stroke-dasharray: 3px, 3px;"/></g><g class="points"/><g class="text"/></g><g class="trace scatter tracefdb8d2" style="stroke-miterlimit: 2; opacity: 1;"><g class="fills"/><g class="errorbars"/><g class="lines"><path class="js-line" d="M0,52.52L1.29,51.86L1.59,51.46L13.66,33.29L16.5,28.99L23.62,19.36L27.18,15.35L34.3,9.29L37.86,7.35L41.42,6.18L44.98,5.81L48.54,6.22L52.1,7.44L59.22,12.13L62.78,15.54L69.9,24.18L73.46,29.24L87.26,50.11L89.49,52.52L93.73,55.1L95.09,55.5L102.95,56.49L105.31,56.61L137.35,56.94L140.91,56.93L169.39,56.11L172.95,55.46L176.51,54.02L179.34,51.69L185.13,43.62L186.91,40.79L198.82,22.92L201.94,18.98L208.97,11.78L212.53,9.14L219.65,6.13L222.35,5.82L227.47,6.47L230.23,7.49L237.35,12.24L240.91,15.67L248.03,24.35L251.59,29.43L265.83,50.8L269.39,53.97L274.72,55.85L275.85,56.03L285.12,56.68L288.68,56.77L327.84,56.88L331.4,56.84L349.2,55.84L352.76,54.88L356.32,52.69L358.3,50.56L365.35,40.1L366.79,37.81L375.48,24.73L378.57,20.66L385.69,12.91L389.25,10.01L396.37,6.45L399.07,5.91L404.64,6.25L407.89,7.34L415.01,11.95L418.57,15.31L425.69,23.89L429.25,28.93L445.07,52.12L446.8,53.58L450.11,55.22L451.98,55.71L459.05,56.5L462.61,56.66L498.21,56.93L501.77,56.91L523.13,56.34L526.69,55.92L530.25,55.07L533.81,53.12L534,52.96" style="vector-effect: non-scaling-stroke; fill: none; stroke: rgb(255, 161, 90); stroke-opacity: 1; stroke-width: 2px; opacity: 1;"/></g><g class="points"/><g class="text"/></g><g class="trace scatter tracec1d560" style="stroke-miterlimit: 2; opacity: 1;"><g class="fills"/><g class="errorbars"/><g class="lines"><path class="js-line" d="M0,52.62L1.29,53.18L1.59,53.46L4.49,55L5.06,55.19L10.66,56.18L13.66,56.42L37.86,56.89L41.42,56.9L77.02,56.36L80.58,56.02L87.26,54.18L89.49,52.62L93.73,47.48L95.09,45.47L108.87,24.43L112.43,19.81L119.55,12.34L123.11,9.62L130.23,6.42L133.79,5.99L137.35,6.36L140.91,7.53L148.03,12.16L151.59,15.53L158.71,24.12L162.27,29.17L176.51,50.55L179.34,53.3L183.39,55.28L185.13,55.69L193.78,56.53L196.28,56.62L227.47,56.9L230.23,56.89L258.71,56.01L262.27,55.34L265.83,53.85L269.39,50.66L276.92,39.43L278.04,37.66L288.68,22.02L292.24,17.68L299.36,10.86L302.92,8.51L310.04,6.1L313.6,6.08L317.16,6.86L320.72,8.42L327.84,13.78L331.4,17.49L338.52,26.64L342.08,31.89L352.76,48.32L356.32,52.44L360.22,54.9L362.26,55.51L370.82,56.48L373.05,56.58L404.64,56.9L407.89,56.89L436.37,56.05L439.93,55.43L443.91,53.8L445.07,52.98L448.58,49.12L450.11,46.94L466.17,22.68L469.73,18.26L476.85,11.26L480.41,8.8L487.53,6.17L491.09,6.03L494.65,6.7L498.21,8.15L505.33,13.31L508.89,16.92L516.01,25.92L519.57,31.11L533.81,51.96L534,52.15" style="vector-effect: non-scaling-stroke; fill: none; stroke: rgb(25, 211, 243); stroke-opacity: 1; stroke-width: 2px; opacity: 1;"/></g><g class="points"/><g class="text"/></g></g></g><g class="overplot"/><path class="xlines-above crisp" d="M0,0" style="fill: none;"/><path class="ylines-above crisp" d="M0,0" style="fill: none;"/><g class="overlines-above"/><g class="xaxislayer-above"><g class="x3tick"><text text-anchor="middle" x="0" y="637.6875" transform="translate(86,0)" style="font-family: Arial; font-size: 12px; fill: rgb(0, 0, 0); fill-opacity: 1; white-space: pre; opacity: 1;">0.00s</text></g><g class="x3tick"><text text-anchor="middle" x="0" y="637.6875" style="font-family: Arial; font-size: 12px; fill: rgb(0, 0, 0); fill-opacity: 1; white-space: pre; opacity: 1;" transform="translate(175,0)">50.0µs</text></g><g class="x3tick"><text text-anchor="middle" x="0" y="637.6875" style="font-family: Arial; font-size: 12px; fill: rgb(0, 0, 0); fill-opacity: 1; white-space: pre; opacity: 1;" transform="translate(264,0)">100µs</text></g><g class="x3tick"><text text-anchor="middle" x="0" y="637.6875" style="font-family: Arial; font-size: 12px; fill: rgb(0, 0, 0); fill-opacity: 1; white-space: pre; opacity: 1;" transform="translate(353,0)">150µs</text></g><g class="x3tick"><text text-anchor="middle" x="0" y="637.6875" style="font-family: Arial; font-size: 12px; fill: rgb(0, 0, 0); fill-opacity: 1; white-space: pre; opacity: 1;" transform="translate(442,0)">200µs</text></g><g class="x3tick"><text text-anchor="middle" x="0" y="637.6875" style="font-family: Arial; font-size: 12px; fill: rgb(0, 0, 0); fill-opacity: 1; white-space: pre; opacity: 1;" transform="translate(531,0)">250µs</text></g><g class="x3tick"><text text-anchor="middle" x="0" y="637.6875" style="font-family: Arial; font-size: 12px; fill: rgb(0, 0, 0); fill-opacity: 1; white-space: pre; opacity: 1;" transform="translate(620,0)">300µs</text></g></g><g class="yaxislayer-above"><g class="y3tick"><text text-anchor="end" x="85" y="4.199999999999999" transform="translate(0,598.5550000000001)" style="font-family: Arial; font-size: 12px; fill: rgb(0, 0, 0); fill-opacity: 1; white-space: pre; opacity: 1;">−100mA</text></g><g class="y3tick"><text text-anchor="end" x="85" y="4.199999999999999" style="font-family: Arial; font-size: 12px; fill: rgb(0, 0, 0); fill-opacity: 1; white-space: pre; opacity: 1;" transform="translate(0,567.755)">0.00A</text></g><g class="y3tick"><text text-anchor="end" x="85" y="4.199999999999999" style="font-family: Arial; font-size: 12px; fill: rgb(0, 0, 0); fill-opacity: 1; white-space: pre; opacity: 1;" transform="translate(0,536.965)">100mA</text></g></g><g class="overaxes-above"/></g><g class="subplot x4y4"><g class="layer-subplot"><g class="shapelayer"/><g class="imagelayer"/></g><g class="minor-gridlayer"><g class="x4"/><g class="y4"/></g><g class="gridlayer"><g class="x4"><path class="x4grid crisp" transform="translate(175,0)" d="M0,715.9375v114.0625" style="stroke: rgb(255, 255, 255); stroke-opacity: 1; stroke-width: 1px;"/><path class="x4grid crisp" transform="translate(264,0)" d="M0,715.9375v114.0625" style="stroke: rgb(255, 255, 255); stroke-opacity: 1; stroke-width: 1px;"/><path class="x4grid crisp" transform="translate(353,0)" d="M0,715.9375v114.0625" style="stroke: rgb(255, 255, 255); stroke-opacity: 1; stroke-width: 1px;"/><path class="x4grid crisp" transform="translate(442,0)" d="M0,715.9375v114.0625" style="stroke: rgb(255, 255, 255); stroke-opacity: 1; stroke-width: 1px;"/><path class="x4grid crisp" transform="translate(531,0)" d="M0,715.9375v114.0625" style="stroke: rgb(255, 255, 255); stroke-opacity: 1; stroke-width: 1px;"/></g><g class="y4"><path class="y4grid crisp" transform="translate(0,803.9875)" d="M86,0h534" style="stroke: rgb(255, 255, 255); stroke-opacity: 1; stroke-width: 1px;"/><path class="y4grid crisp" transform="translate(0,752.6375)" d="M86,0h534" style="stroke: rgb(255, 255, 255); stroke-opacity: 1; stroke-width: 1px;"/><path class="y4grid crisp" transform="translate(0,726.9675)" d="M86,0h534" style="stroke: rgb(255, 255, 255); stroke-opacity: 1; stroke-width: 1px;"/></g></g><g class="zerolinelayer"><path class="x4zl zl crisp" transform="translate(86,0)" d="M0,715.9375v114.0625" style="stroke: rgb(255, 255, 255); stroke-opacity: 1; stroke-width: 2px;"/><path class="y4zl zl crisp" transform="translate(0,778.3175)" d="M86,0h534" style="stroke: rgb(255, 255, 255); stroke-opacity: 1; stroke-width: 2px;"/></g><path class="xlines-below"/><path class="ylines-below"/><g class="overlines-below"/><g class="xaxislayer-below"/><g class="yaxislayer-below"/><g class="overaxes-below"/><g class="plot" transform="translate(86,715.9375)" clip-path="url(#clipce86f0x4y4plot)"><g class="scatterlayer mlayer"><g class="trace scatter trace6a5fa1" style="stroke-miterlimit: 2; opacity: 1;"><g class="fills"/><g class="errorbars"/><g class="lines"><path class="js-line" d="M0,61.09L0.92,60.27L0.98,60.16L3.9,55.3L4.49,54.31L27.18,17.91L30.74,13.66L37.86,7.7L41.42,6.19L44.98,5.71L48.54,6.32L52.1,7.97L55.66,10.64L62.78,18.56L66.34,23.59L77.02,41.04L80.58,47.14L93.73,67.75L95.09,69.64L112.43,93.54L115.99,97.72L123.11,104.35L126.67,106.57L130.23,107.91L133.79,108.36L137.35,107.86L140.91,106.48L148.03,101.19L151.59,97.48L162.27,83.66L165.83,78.61L183.39,52.87L185.13,49.95L201.94,22.37L205.41,17.62L212.53,10.05L216.09,7.57L222.35,5.7L224.97,5.92L230.23,8.05L233.79,10.74L240.91,18.73L244.47,23.78L255.15,41.26L258.71,47.35L271.49,67.44L272.98,69.47L288.68,91.32L292.24,95.72L299.36,102.97L302.92,105.59L306.48,107.35L310.04,108.26L313.6,108.21L317.16,107.28L324.28,102.78L327.84,99.37L334.96,90.9L338.52,86.11L362.26,51.41L363.78,48.87L378.57,24.41L382.13,19.33L389.25,11.18L392.81,8.35L399.07,5.83L401.93,5.76L404.64,6.34L407.89,7.85L415.01,13.97L418.57,18.28L425.69,28.77L429.25,34.63L448.58,66.09L450.11,68.26L469.73,95.12L473.29,99.12L480.41,105.26L483.97,107.16L487.53,108.17L491.09,108.29L494.65,107.46L498.21,105.75L505.33,99.91L508.89,95.99L519.57,81.83L523.13,76.76L534,61.37" style="vector-effect: non-scaling-stroke; fill: none; stroke: rgb(255, 102, 146); stroke-opacity: 1; stroke-width: 2px; opacity: 1;"/></g><g class="points"/><g class="text"/></g></g></g><g class="overplot"/><path class="xlines-above crisp" d="M0,0" style="fill: none;"/><path class="ylines-above crisp" d="M0,0" style="fill: none;"/><g class="overlines-above"/><g class="xaxislayer-above"><g class="x4tick"><text text-anchor="middle" x="0" y="843" transform="translate(86,0)" style="font-family: Arial; font-size: 12px; fill: rgb(0, 0, 0); fill-opacity: 1; white-space: pre; opacity: 1;">0.00s</text></g><g class="x4tick"><text text-anchor="middle" x="0" y="843" style="font-family: Arial; font-size: 12px; fill: rgb(0, 0, 0); fill-opacity: 1; white-space: pre; opacity: 1;" transform="translate(175,0)">50.0µs</text></g><g class="x4tick"><text text-anchor="middle" x="0" y="843" style="font-family: Arial; font-size: 12px; fill: rgb(0, 0, 0); fill-opacity: 1; white-space: pre; opacity: 1;" transform="translate(264,0)">100µs</text></g><g class="x4tick"><text text-anchor="middle" x="0" y="843" style="font-family: Arial; font-size: 12px; fill: rgb(0, 0, 0); fill-opacity: 1; white-space: pre; opacity: 1;" transform="translate(353,0)">150µs</text></g><g class="x4tick"><text text-anchor="middle" x="0" y="843" style="font-family: Arial; font-size: 12px; fill: rgb(0, 0, 0); fill-opacity: 1; white-space: pre; opacity: 1;" transform="translate(442,0)">200µs</text></g><g class="x4tick"><text text-anchor="middle" x="0" y="843" style="font-family: Arial; font-size: 12px; fill: rgb(0, 0, 0); fill-opacity: 1; white-space: pre; opacity: 1;" transform="translate(531,0)">250µs</text></g><g class="x4tick"><text text-anchor="middle" x="0" y="843" style="font-family: Arial; font-size: 12px; fill: rgb(0, 0, 0); fill-opacity: 1; white-space: pre; opacity: 1;" transform="translate(620,0)">300µs</text></g></g><g class="yaxislayer-above"><g class="y4tick"><text text-anchor="end" x="85" y="4.199999999999999" transform="translate(0,829.6575)" style="font-family: Arial; font-size: 12px; fill: rgb(0, 0, 0); fill-opacity: 1; white-space: pre; opacity: 1;">−1.00mA</text></g><g class="y4tick"><text text-anchor="end" x="85" y="4.199999999999999" style="font-family: Arial; font-size: 12px; fill: rgb(0, 0, 0); fill-opacity: 1; white-space: pre; opacity: 1;" transform="translate(0,803.9875)">−500µA</text></g><g class="y4tick"><text text-anchor="end" x="85" y="4.199999999999999" style="font-family: Arial; font-size: 12px; fill: rgb(0, 0, 0); fill-opacity: 1; white-space: pre; opacity: 1;" transform="translate(0,778.3175)">0.00A</text></g><g class="y4tick"><text text-anchor="end" x="85" y="4.199999999999999" style="font-family: Arial; font-size: 12px; fill: rgb(0, 0, 0); fill-opacity: 1; white-space: pre; opacity: 1;" transform="translate(0,752.6375)">500µA</text></g><g class="y4tick"><text text-anchor="end" x="85" y="4.199999999999999" style="font-family: Arial; font-size: 12px; fill: rgb(0, 0, 0); fill-opacity: 1; white-space: pre; opacity: 1;" transform="translate(0,726.9675)">1.00mA</text></g></g><g class="overaxes-above"/></g></g><g class="polarlayer"/><g class="smithlayer"/><g class="ternarylayer"/><g class="geolayer"/><g class="funnelarealayer"/><g class="pielayer"/><g class="iciclelayer"/><g class="treemaplayer"/><g class="sunburstlayer"/><g class="glimages"/><defs id="topdefs-ce86f0"><g class="clips"/><clipPath id="legendce86f0"><rect width="452" height="48" x="0" y="0"/></clipPath></defs><g class="layer-above"><g class="imagelayer"/><g class="shapelayer"/></g><g class="infolayer"><g class="legend" pointer-events="all" transform="translate(91.34,939.4999999999999)"><rect class="bg" shape-rendering="crispEdges" width="452" height="48" x="0" y="0" style="stroke: rgb(68, 68, 68); stroke-opacity: 1; fill: rgb(255, 255, 255); fill-opacity: 1; stroke-width: 0px;"/><g class="scrollbox" transform="" clip-path="url(#legendce86f0)"><g class="groups"><g class="traces" transform="translate(0,14.5)" style="opacity: 1;"><text class="legendtext" text-anchor="start" x="40" y="4.680000000000001" style="font-family: Arial; font-size: 12px; fill: rgb(0, 0, 0); fill-opacity: 1; white-space: pre;">v(Uin)</text><g class="layers" style="opacity: 1;"><g class="legendfill"/><g class="legendlines"><path class="js-line" d="M5,0h30" style="fill: none; stroke: rgb(0, 0, 0); stroke-opacity: 1; stroke-dasharray: 9px, 9px; stroke-width: 2px;"/></g><g class="legendsymbols"><g class="legendpoints"/></g></g><rect class="legendtoggle" x="0" y="-9.5" width="75.515625" height="19" style="fill: rgb(0, 0, 0); fill-opacity: 0;"/></g><g class="traces" transform="translate(121.34375,14.5)" style="opacity: 1;"><text class="legendtext" text-anchor="start" x="40" y="4.680000000000001" style="font-family: Arial; font-size: 12px; fill: rgb(0, 0, 0); fill-opacity: 1; white-space: pre;">v(Uout)</text><g class="layers" style="opacity: 1;"><g class="legendfill"/><g class="legendlines"><path class="js-line" d="M5,0h30" style="fill: none; stroke: rgb(239, 85, 59); stroke-opacity: 1; stroke-width: 2px;"/></g><g class="legendsymbols"><g class="legendpoints"/></g></g><rect class="legendtoggle" x="0" y="-9.5" width="82.84375" height="19" style="fill: rgb(0, 0, 0); fill-opacity: 0;"/></g><g class="traces" transform="translate(242.6875,14.5)" style="opacity: 1;"><text class="legendtext" text-anchor="start" x="40" y="4.680000000000001" style="font-family: Arial; font-size: 12px; fill: rgb(0, 0, 0); fill-opacity: 1; white-space: pre;">v(Uin)-v(Uout)</text><g class="layers" style="opacity: 1;"><g class="legendfill"/><g class="legendlines"><path class="js-line" d="M5,0h30" style="fill: none; stroke: rgb(0, 204, 150); stroke-opacity: 1; stroke-width: 2px;"/></g><g class="legendsymbols"><g class="legendpoints"/></g></g><rect class="legendtoggle" x="0" y="-9.5" width="118.84375" height="19" style="fill: rgb(0, 0, 0); fill-opacity: 0;"/></g><g class="traces" transform="translate(364.03125,14.5)" style="opacity: 1;"><text class="legendtext" text-anchor="start" x="40" y="4.680000000000001" style="font-family: Arial; font-size: 12px; fill: rgb(0, 0, 0); fill-opacity: 1; white-space: pre;">I(RLast)</text><g class="layers" style="opacity: 1;"><g class="legendfill"/><g class="legendlines"><path class="js-line" d="M5,0h30" style="fill: none; stroke: rgb(0, 0, 0); stroke-opacity: 1; stroke-dasharray: 3px, 3px; stroke-width: 2px;"/></g><g class="legendsymbols"><g class="legendpoints"/></g></g><rect class="legendtoggle" x="0" y="-9.5" width="85.1875" height="19" style="fill: rgb(0, 0, 0); fill-opacity: 0;"/></g><g class="traces" transform="translate(0,33.5)" style="opacity: 1;"><text class="legendtext" text-anchor="start" x="40" y="4.680000000000001" style="font-family: Arial; font-size: 12px; fill: rgb(0, 0, 0); fill-opacity: 1; white-space: pre;">Ic(T1)</text><g class="layers" style="opacity: 1;"><g class="legendfill"/><g class="legendlines"><path class="js-line" d="M5,0h30" style="fill: none; stroke: rgb(255, 161, 90); stroke-opacity: 1; stroke-width: 2px;"/></g><g class="legendsymbols"><g class="legendpoints"/></g></g><rect class="legendtoggle" x="0" y="-9.5" width="73.84375" height="19" style="fill: rgb(0, 0, 0); fill-opacity: 0;"/></g><g class="traces" transform="translate(121.34375,33.5)" style="opacity: 1;"><text class="legendtext" text-anchor="start" x="40" y="4.680000000000001" style="font-family: Arial; font-size: 12px; fill: rgb(0, 0, 0); fill-opacity: 1; white-space: pre;">Ic(T2)</text><g class="layers" style="opacity: 1;"><g class="legendfill"/><g class="legendlines"><path class="js-line" d="M5,0h30" style="fill: none; stroke: rgb(25, 211, 243); stroke-opacity: 1; stroke-width: 2px;"/></g><g class="legendsymbols"><g class="legendpoints"/></g></g><rect class="legendtoggle" x="0" y="-9.5" width="73.84375" height="19" style="fill: rgb(0, 0, 0); fill-opacity: 0;"/></g><g class="traces" transform="translate(242.6875,33.5)" style="opacity: 1;"><text class="legendtext" text-anchor="start" x="40" y="4.680000000000001" style="font-family: Arial; font-size: 12px; fill: rgb(0, 0, 0); fill-opacity: 1; white-space: pre;">I(Rshunt)</text><g class="layers" style="opacity: 1;"><g class="legendfill"/><g class="legendlines"><path class="js-line" d="M5,0h30" style="fill: none; stroke: rgb(255, 102, 146); stroke-opacity: 1; stroke-width: 2px;"/></g><g class="legendsymbols"><g class="legendpoints"/></g></g><rect class="legendtoggle" x="0" y="-9.5" width="91.859375" height="19" style="fill: rgb(0, 0, 0); fill-opacity: 0;"/></g></g></g><rect class="scrollbar" rx="20" ry="3" width="0" height="0" x="0" y="0" style="fill: rgb(128, 139, 164); fill-opacity: 1;"/></g><g class="g-gtitle"/><g class="g-xtitle"/><g class="g-x2title"/><g class="g-x3title"/><g class="g-x4title"><text class="x4title" x="353" y="870.8" text-anchor="middle" style="font-family: Arial; font-size: 14px; fill: rgb(0, 0, 0); opacity: 1; font-weight: normal; white-space: pre;">Time</text></g><g class="g-ytitle"><text class="ytitle" transform="rotate(-90,15.168750000000003,157.03125)" x="15.168750000000003" y="157.03125" text-anchor="middle" style="font-family: Arial; font-size: 14px; fill: rgb(0, 0, 0); opacity: 1; font-weight: normal; white-space: pre;">Voltage</text></g><g class="g-y2title" transform="translate(1.1748046875,0)"><text class="y2title" transform="rotate(-90,11.825000000000003,362.34375)" x="11.825000000000003" y="362.34375" text-anchor="middle" style="font-family: Arial; font-size: 14px; fill: rgb(0, 0, 0); opacity: 1; font-weight: normal; white-space: pre;">Voltage</text></g><g class="g-y3title"><text class="y3title" transform="rotate(-90,15.168750000000003,567.65625)" x="15.168750000000003" y="567.65625" text-anchor="middle" style="font-family: Arial; font-size: 14px; fill: rgb(0, 0, 0); opacity: 1; font-weight: normal; white-space: pre;">Current</text></g><g class="g-y4title" transform="translate(1.1748046875,0)"><text class="y4title" transform="rotate(-90,11.825000000000003,772.96875)" x="11.825000000000003" y="772.96875" text-anchor="middle" style="font-family: Arial; font-size: 14px; fill: rgb(0, 0, 0); opacity: 1; font-weight: normal; white-space: pre;">Current</text></g><g class="annotation" data-index="0" style="opacity: 1;"><g class="annotation-text-g" transform="rotate(0,353,89.5)"><g class="cursor-pointer" transform="translate(248,79)"><rect class="bg" x="0.5" y="0.5" width="209" height="20" style="stroke-width: 1px; stroke: rgb(0, 0, 0); stroke-opacity: 0; fill: rgb(0, 0, 0); fill-opacity: 0;"/><text class="annotation-text" text-anchor="middle" x="104.75" y="16" style="font-family: Arial; font-size: 16px; fill: rgb(0, 0, 0); fill-opacity: 1; white-space: pre;">Ein- und Ausgangsspannung</text></g></g></g><g class="annotation" data-index="1" style="opacity: 1;"><g class="annotation-text-g" transform="rotate(0,353,294.8125)"><g class="cursor-pointer" transform="translate(280,284)"><rect class="bg" x="0.5" y="0.5" width="145" height="20" style="stroke-width: 1px; stroke: rgb(0, 0, 0); stroke-opacity: 0; fill: rgb(0, 0, 0); fill-opacity: 0;"/><text class="annotation-text" text-anchor="middle" x="73.03125" y="16" style="font-family: Arial; font-size: 16px; fill: rgb(0, 0, 0); fill-opacity: 1; white-space: pre;">Spannungsdifferenz</text></g></g></g><g class="annotation" data-index="2" style="opacity: 1;"><g class="annotation-text-g" transform="rotate(0,353,500.125)"><g class="cursor-pointer" transform="translate(325,490)"><rect class="bg" x="0.5" y="0.5" width="55" height="20" style="stroke-width: 1px; stroke: rgb(0, 0, 0); stroke-opacity: 0; fill: rgb(0, 0, 0); fill-opacity: 0;"/><text class="annotation-text" text-anchor="middle" x="27.796875" y="16" style="font-family: Arial; font-size: 16px; fill: rgb(0, 0, 0); fill-opacity: 1; white-space: pre;">Ströme</text></g></g></g></g></svg>