<svg class="main-svg" xmlns="http://www.w3.org/2000/svg" xmlns:xlink="http://www.w3.org/1999/xlink" width="700" height="1000" style="" viewBox="0 0 700 1000"><rect x="0" y="0" width="700" height="1000" style="fill: rgb(255, 255, 255); fill-opacity: 1;"/><defs id="defs-a5f9a1"><g class="clips"><clipPath id="clipa5f9a1xyplot" class="plotclip"><rect width="610" height="125.3125"/></clipPath><clipPath id="clipa5f9a1x2y2plot" class="plotclip"><rect width="610" height="125.3125"/></clipPath><clipPath id="clipa5f9a1x3y3plot" class="plotclip"><rect width="610" height="125.3125"/></clipPath><clipPath id="clipa5f9a1x4y4plot" class="plotclip"><rect width="610" height="125.3125"/></clipPath><clipPath class="axesclip" id="clipa5f9a1x"><rect x="74" y="0" width="610" height="1000"/></clipPath><clipPath class="axesclip" id="clipa5f9a1y"><rect x="0" y="30" width="700" height="125.3125"/></clipPath><clipPath class="axesclip" id="clipa5f9a1xy"><rect x="74" y="30" width="610" height="125.3125"/></clipPath><clipPath class="axesclip" id="clipa5f9a1y2"><rect x="0" y="255.5625" width="700" height="125.3125"/></clipPath><clipPath class="axesclip" id="clipa5f9a1xy2"><rect x="74" y="255.5625" width="610" height="125.3125"/></clipPath><clipPath class="axesclip" id="clipa5f9a1y3"><rect x="0" y="481.125" width="700" height="125.3125"/></clipPath><clipPath class="axesclip" id="clipa5f9a1xy3"><rect x="74" y="481.125" width="610" height="125.3125"/></clipPath><clipPath class="axesclip" id="clipa5f9a1y4"><rect x="0" y="706.6875" width="700" height="125.3125"/></clipPath><clipPath class="axesclip" id="clipa5f9a1xy4"><rect x="74" y="706.6875" width="610" height="125.3125"/></clipPath><clipPath class="axesclip" id="clipa5f9a1x2"><rect x="74" y="0" width="610" height="1000"/></clipPath><clipPath class="axesclip" id="clipa5f9a1x2y"><rect x="74" y="30" width="610" height="125.3125"/></clipPath><clipPath class="axesclip" id="clipa5f9a1x2y2"><rect x="74" y="255.5625" width="610" height="125.3125"/></clipPath><clipPath class="axesclip" id="clipa5f9a1x2y3"><rect x="74" y="481.125" width="610" height="125.3125"/></clipPath><clipPath class="axesclip" id="clipa5f9a1x2y4"><rect x="74" y="706.6875" width="610" height="125.3125"/></clipPath><clipPath class="axesclip" id="clipa5f9a1x3"><rect x="74" y="0" width="610" height="1000"/></clipPath><clipPath class="axesclip" id="clipa5f9a1x3y"><rect x="74" y="30" width="610" height="125.3125"/></clipPath><clipPath class="axesclip" id="clipa5f9a1x3y2"><rect x="74" y="255.5625" width="610" height="125.3125"/></clipPath><clipPath class="axesclip" id="clipa5f9a1x3y3"><rect x="74" y="481.125" width="610" height="125.3125"/></clipPath><clipPath class="axesclip" id="clipa5f9a1x3y4"><rect x="74" y="706.6875" width="610" height="125.3125"/></clipPath><clipPath class="axesclip" id="clipa5f9a1x4"><rect x="74" y="0" width="610" height="1000"/></clipPath><clipPath class="axesclip" id="clipa5f9a1x4y"><rect x="74" y="30" width="610" height="125.3125"/></clipPath><clipPath class="axesclip" id="clipa5f9a1x4y2"><rect x="74" y="255.5625" width="610" height="125.3125"/></clipPath><clipPath class="axesclip" id="clipa5f9a1x4y3"><rect x="74" y="481.125" width="610" height="125.3125"/></clipPath><clipPath class="axesclip" id="clipa5f9a1x4y4"><rect x="74" y="706.6875" width="610" height="125.3125"/></clipPath></g><g class="gradients"/><g class="patterns"/></defs><g class="bglayer"><rect class="bg" x="74" y="30" width="610" height="125.3125" style="fill: rgb(229, 236, 246); fill-opacity: 1; stroke-width: 0;"/><rect class="bg" x="74" y="255.5625" width="610" height="125.3125" style="fill: rgb(229, 236, 246); fill-opacity: 1; stroke-width: 0;"/><rect class="bg" x="74" y="481.125" width="610" height="125.3125" style="fill: rgb(229, 236, 246); fill-opacity: 1; stroke-width: 0;"/><rect class="bg" x="74" y="706.6875" width="610" height="125.3125" style="fill: rgb(229, 236, 246); fill-opacity: 1; stroke-width: 0;"/></g><g class="layer-below"><g class="imagelayer"/><g class="shapelayer"/></g><g class="cartesianlayer"><g class="subplot xy"><g class="layer-subplot"><g class="shapelayer"/><g class="imagelayer"/></g><g class="minor-gridlayer"><g class="x"/><g class="y"/></g><g class="gridlayer"><g class="x"><path class="xgrid crisp" transform="translate(175.67000000000002,0)" d="M0,30v125.3125" style="stroke: rgb(255, 255, 255); stroke-opacity: 1; stroke-width: 1px;"/><path class="xgrid crisp" transform="translate(277.33000000000004,0)" d="M0,30v125.3125" style="stroke: rgb(255, 255, 255); stroke-opacity: 1; stroke-width: 1px;"/><path class="xgrid crisp" transform="translate(379,0)" d="M0,30v125.3125" style="stroke: rgb(255, 255, 255); stroke-opacity: 1; stroke-width: 1px;"/><path class="xgrid crisp" transform="translate(480.67,0)" d="M0,30v125.3125" style="stroke: rgb(255, 255, 255); stroke-opacity: 1; stroke-width: 1px;"/><path class="xgrid crisp" transform="translate(582.3299999999999,0)" d="M0,30v125.3125" style="stroke: rgb(255, 255, 255); stroke-opacity: 1; stroke-width: 1px;"/></g><g class="y"><path class="ygrid crisp" transform="translate(0,149.05)" d="M74,0h610" style="stroke: rgb(255, 255, 255); stroke-opacity: 1; stroke-width: 1px;"/><path class="ygrid crisp" transform="translate(0,120.88)" d="M74,0h610" style="stroke: rgb(255, 255, 255); stroke-opacity: 1; stroke-width: 1px;"/><path class="ygrid crisp" transform="translate(0,64.55)" d="M74,0h610" style="stroke: rgb(255, 255, 255); stroke-opacity: 1; stroke-width: 1px;"/><path class="ygrid crisp" transform="translate(0,36.39)" d="M74,0h610" style="stroke: rgb(255, 255, 255); stroke-opacity: 1; stroke-width: 1px;"/></g></g><g class="zerolinelayer"><path class="xzl zl crisp" transform="translate(74,0)" d="M0,30v125.3125" style="stroke: rgb(255, 255, 255); stroke-opacity: 1; stroke-width: 2px;"/><path class="yzl zl crisp" transform="translate(0,92.72)" d="M74,0h610" style="stroke: rgb(255, 255, 255); stroke-opacity: 1; stroke-width: 2px;"/></g><path class="xlines-below"/><path class="ylines-below"/><g class="overlines-below"/><g class="xaxislayer-below"/><g class="yaxislayer-below"/><g class="overaxes-below"/><g class="plot" transform="translate(74,30)" clip-path="url(#clipa5f9a1xyplot)"><g class="scatterlayer mlayer"><g class="trace scatter tracee65d38" style="stroke-miterlimit: 2; opacity: 1;"><g class="fills"/><g class="errorbars"/><g class="lines"><path class="js-line" d="M0,62.72L15.6,36.59L18.85,31.72L26.99,21L31.05,16.58L39.19,9.99L43.25,7.92L47.32,6.72L51.39,6.39L55.45,6.96L59.52,8.4L67.65,13.82L71.72,17.72L79.85,27.56L83.92,33.35L97.65,55.74L99.68,59.26L117.6,89.35L120.29,93.38L128.43,104.17L132.49,108.62L140.63,115.3L144.69,117.42L148.76,118.67L152.83,119.05L156.89,118.53L160.96,117.14L169.09,111.81L173.16,107.96L181.29,98.19L185.36,92.42L197.56,72.72L201.63,65.69L218.54,37.22L221.36,32.93L230.68,20.58L234.65,16.32L242.78,9.84L246.85,7.82L253.99,6.39L256.99,6.6L263,8.47L267.06,10.8L275.2,17.87L279.26,22.49L287.4,33.57L291.46,39.84L310.13,71.61L311.84,74.53L322.69,92L325.7,96.34L333.83,106.52L337.9,110.62L346.03,116.48L350.1,118.17L354.16,118.97L358.23,118.9L362.3,117.93L366.36,116.09L374.5,109.94L378.56,105.72L386.7,95.32L390.76,89.3L402.96,69.15L407.03,62.09L423.59,34.58L426.15,30.82L432.44,22.44L436.51,17.82L444.64,10.77L448.71,8.45L455.86,6.46L459.13,6.46L465.94,8.29L470.01,10.54L478.14,17.46L482.21,22.02L490.34,32.99L494.41,39.22L512.42,69.81L514.17,72.82L524.38,89.52L528.44,95.51L536.58,105.87L540.64,110.07L548.78,116.17L552.84,117.98L556.91,118.91L560.98,118.96L565.04,118.12L569.11,116.41L577.24,110.49L581.31,106.37L589.44,96.14L593.51,90.19L605.71,70.16L609.78,63.1L610,62.72" style="vector-effect: non-scaling-stroke; fill: none; stroke: rgb(0, 0, 0); stroke-opacity: 1; stroke-width: 2px; opacity: 1; stroke-dasharray: 9px, 9px;"/></g><g class="points"/><g class="text"/></g><g class="trace scatter traceec9757" style="stroke-miterlimit: 2; opacity: 1;"><g class="fills"/><g class="errorbars"/><g class="lines"><path class="js-line" d="M0,62.61L1.12,61.94L1.24,61.73L6.56,52.1L7.65,50.23L18.85,32.27L22.92,26.55L31.05,16.92L35.12,13.15L43.25,7.99L47.32,6.69L51.39,6.27L55.45,6.73L59.52,8.08L63.59,10.29L71.72,17.13L75.79,21.66L83.92,32.56L87.99,38.77L104.43,66.44L107.07,71.11L120.29,92.6L124.36,98.35L132.49,108.06L136.56,111.87L144.69,117.12L148.76,118.47L152.83,118.95L156.89,118.53L160.96,117.23L165.03,115.07L173.16,108.31L177.23,103.82L185.36,92.98L189.43,86.81L204.86,60.93L207.78,55.74L221.36,33.49L224.22,29.35L230.68,20.98L234.65,16.65L242.78,9.99L246.85,7.88L253.99,6.28L256.99,6.42L263,8.14L267.06,10.38L275.2,17.28L279.26,21.83L287.4,32.78L291.46,38.99L307.73,66.36L310.13,70.65L322.69,91.21L325.7,95.59L333.83,105.92L337.9,110.09L346.03,116.14L350.1,117.92L354.16,118.82L358.23,118.84L362.3,117.98L366.36,116.24L374.5,110.26L378.56,106.11L386.7,95.85L390.76,89.9L407.03,62.98L409.29,58.95L423.59,35.16L426.15,31.35L432.44,22.88L436.51,18.18L444.64,10.96L448.71,8.55L455.86,6.38L459.13,6.3L465.94,7.97L470.01,10.13L478.14,16.88L482.21,21.37L490.34,32.2L494.41,38.38L510.39,65.21L512.42,68.79L524.38,88.7L528.44,94.76L536.58,105.26L540.64,109.53L548.78,115.81L552.84,117.72L556.91,118.75L560.98,118.9L565.04,118.16L569.11,116.54L577.24,110.79L581.31,106.75L589.44,96.67L593.51,90.78L605.71,70.94L609.78,63.99L610,63.6" style="vector-effect: non-scaling-stroke; fill: none; stroke: rgb(239, 85, 59); stroke-opacity: 1; stroke-width: 2px; opacity: 1;"/></g><g class="points"/><g class="text"/></g></g></g><g class="overplot"/><path class="xlines-above crisp" d="M0,0" style="fill: none;"/><path class="ylines-above crisp" d="M0,0" style="fill: none;"/><g class="overlines-above"/><g class="xaxislayer-above"><g class="xtick"><text text-anchor="middle" x="0" y="168.3125" transform="translate(74,0)" style="font-family: Arial; font-size: 12px; fill: rgb(0, 0, 0); fill-opacity: 1; white-space: pre; opacity: 1;">0.00s</text></g><g class="xtick"><text text-anchor="middle" x="0" y="168.3125" style="font-family: Arial; font-size: 12px; fill: rgb(0, 0, 0); fill-opacity: 1; white-space: pre; opacity: 1;" transform="translate(175.67000000000002,0)">50.0µs</text></g><g class="xtick"><text text-anchor="middle" x="0" y="168.3125" style="font-family: Arial; font-size: 12px; fill: rgb(0, 0, 0); fill-opacity: 1; white-space: pre; opacity: 1;" transform="translate(277.33000000000004,0)">100µs</text></g><g class="xtick"><text text-anchor="middle" x="0" y="168.3125" style="font-family: Arial; font-size: 12px; fill: rgb(0, 0, 0); fill-opacity: 1; white-space: pre; opacity: 1;" transform="translate(379,0)">150µs</text></g><g class="xtick"><text text-anchor="middle" x="0" y="168.3125" style="font-family: Arial; font-size: 12px; fill: rgb(0, 0, 0); fill-opacity: 1; white-space: pre; opacity: 1;" transform="translate(480.67,0)">200µs</text></g><g class="xtick"><text text-anchor="middle" x="0" y="168.3125" style="font-family: Arial; font-size: 12px; fill: rgb(0, 0, 0); fill-opacity: 1; white-space: pre; opacity: 1;" transform="translate(582.3299999999999,0)">250µs</text></g><g class="xtick"><text text-anchor="middle" x="0" y="168.3125" style="font-family: Arial; font-size: 12px; fill: rgb(0, 0, 0); fill-opacity: 1; white-space: pre; opacity: 0;" transform="translate(684,0)">300µs</text></g></g><g class="yaxislayer-above"><g class="ytick"><text text-anchor="end" x="73" y="4.199999999999999" transform="translate(0,149.05)" style="font-family: Arial; font-size: 12px; fill: rgb(0, 0, 0); fill-opacity: 1; white-space: pre; opacity: 1;">−1.00V</text></g><g class="ytick"><text text-anchor="end" x="73" y="4.199999999999999" style="font-family: Arial; font-size: 12px; fill: rgb(0, 0, 0); fill-opacity: 1; white-space: pre; opacity: 1;" transform="translate(0,120.88)">−500mV</text></g><g class="ytick"><text text-anchor="end" x="73" y="4.199999999999999" style="font-family: Arial; font-size: 12px; fill: rgb(0, 0, 0); fill-opacity: 1; white-space: pre; opacity: 1;" transform="translate(0,92.72)">0.00V</text></g><g class="ytick"><text text-anchor="end" x="73" y="4.199999999999999" style="font-family: Arial; font-size: 12px; fill: rgb(0, 0, 0); fill-opacity: 1; white-space: pre; opacity: 1;" transform="translate(0,64.55)">500mV</text></g><g class="ytick"><text text-anchor="end" x="73" y="4.199999999999999" style="font-family: Arial; font-size: 12px; fill: rgb(0, 0, 0); fill-opacity: 1; white-space: pre; opacity: 1;" transform="translate(0,36.39)">1.00V</text></g></g><g class="overaxes-above"/></g><g class="subplot x2y2"><g class="layer-subplot"><g class="shapelayer"/><g class="imagelayer"/></g><g class="minor-gridlayer"><g class="x2"/><g class="y2"/></g><g class="gridlayer"><g class="x2"><path class="x2grid crisp" transform="translate(175.67000000000002,0)" d="M0,255.5625v125.3125" style="stroke: rgb(255, 255, 255); stroke-opacity: 1; stroke-width: 1px;"/><path class="x2grid crisp" transform="translate(277.33000000000004,0)" d="M0,255.5625v125.3125" style="stroke: rgb(255, 255, 255); stroke-opacity: 1; stroke-width: 1px;"/><path class="x2grid crisp" transform="translate(379,0)" d="M0,255.5625v125.3125" style="stroke: rgb(255, 255, 255); stroke-opacity: 1; stroke-width: 1px;"/><path class="x2grid crisp" transform="translate(480.67,0)" d="M0,255.5625v125.3125" style="stroke: rgb(255, 255, 255); stroke-opacity: 1; stroke-width: 1px;"/><path class="x2grid crisp" transform="translate(582.3299999999999,0)" d="M0,255.5625v125.3125" style="stroke: rgb(255, 255, 255); stroke-opacity: 1; stroke-width: 1px;"/></g><g class="y2"><path class="y2grid crisp" transform="translate(0,375.4425)" d="M74,0h610" style="stroke: rgb(255, 255, 255); stroke-opacity: 1; stroke-width: 1px;"/><path class="y2grid crisp" transform="translate(0,347.5325)" d="M74,0h610" style="stroke: rgb(255, 255, 255); stroke-opacity: 1; stroke-width: 1px;"/><path class="y2grid crisp" transform="translate(0,291.7125)" d="M74,0h610" style="stroke: rgb(255, 255, 255); stroke-opacity: 1; stroke-width: 1px;"/><path class="y2grid crisp" transform="translate(0,263.7925)" d="M74,0h610" style="stroke: rgb(255, 255, 255); stroke-opacity: 1; stroke-width: 1px;"/></g></g><g class="zerolinelayer"><path class="x2zl zl crisp" transform="translate(74,0)" d="M0,255.5625v125.3125" style="stroke: rgb(255, 255, 255); stroke-opacity: 1; stroke-width: 2px;"/><path class="y2zl zl crisp" transform="translate(0,319.6225)" d="M74,0h610" style="stroke: rgb(255, 255, 255); stroke-opacity: 1; stroke-width: 2px;"/></g><path class="xlines-below"/><path class="ylines-below"/><g class="overlines-below"/><g class="xaxislayer-below"/><g class="yaxislayer-below"/><g class="overaxes-below"/><g class="plot" transform="translate(74,255.5625)" clip-path="url(#clipa5f9a1x2y2plot)"><g class="scatterlayer mlayer"><g class="trace scatter trace337aed" style="stroke-miterlimit: 2; opacity: 1;"><g class="fills"/><g class="errorbars"/><g class="lines"><path class="js-line" d="M0,69.62L1.24,6.27L1.47,9.41L2.79,29.14L3.2,27.28L3.98,24.22L4.46,25.06L5.78,28.22L6.56,28.3L12.18,32.37L15.6,34.88L22.92,40.3L26.99,43.65L39.19,56.03L43.25,60.69L67.65,89.03L71.72,92.99L79.85,100.04L83.92,103.04L97.65,112.96L99.68,115.22L102.23,118.39L104.43,117.57L107.07,112.26L108.62,111.41L117.6,104.28L120.29,102.56L132.49,92.16L136.56,87.87L148.76,74.09L152.83,69.1L169.09,50.46L173.16,46.31L185.36,36.19L189.43,33.34L197.56,27.21L201.63,22.03L204.86,21.19L207.78,27.6L209.49,27.57L211.48,29.35L213.51,31.61L215.15,31.75L218.54,34.57L221.36,36.34L234.65,47.72L238.72,51.94L253.99,69.45L256.99,73.2L275.2,93.16L279.26,96.88L291.46,105.86L295.53,108.54L299.6,111.51L303.66,115.94L307.73,119.05L310.13,112L313.82,110.41L315.11,107.85L316.33,107.84L317.61,107L320.92,104.51L322.69,103.24L333.83,93.84L337.9,90.14L358.23,66.62L362.3,61.75L374.5,48.28L378.56,44.39L390.76,34.67L394.83,32.02L402.96,24.98L407.03,19.75L409.29,24.89L411.48,26.83L413.82,28.3L415.55,30.72L417.35,31.1L418.99,32.57L432.44,42.66L436.51,46.29L448.71,59.2L452.78,64.13L478.14,92.81L482.21,96.51L494.41,105.6L498.48,108.27L504.07,112.74L506.1,114.88L508.41,117.86L510.39,118.36L514.17,112.21L516.31,110.6L520.74,107.01L524.38,104.33L532.51,98.16L536.58,94.44L544.71,86.3L548.78,81.91L577.24,48.93L581.31,44.91L593.51,35.1L597.58,32.38L605.71,25.62L609.78,20.2L610,20.29" style="vector-effect: non-scaling-stroke; fill: none; stroke: rgb(0, 204, 150); stroke-opacity: 1; stroke-width: 2px; opacity: 1;"/></g><g class="points"/><g class="text"/></g></g></g><g class="overplot"/><path class="xlines-above crisp" d="M0,0" style="fill: none;"/><path class="ylines-above crisp" d="M0,0" style="fill: none;"/><g class="overlines-above"/><g class="xaxislayer-above"><g class="x2tick"><text text-anchor="middle" x="0" y="393.875" transform="translate(74,0)" style="font-family: Arial; font-size: 12px; fill: rgb(0, 0, 0); fill-opacity: 1; white-space: pre; opacity: 1;">0.00s</text></g><g class="x2tick"><text text-anchor="middle" x="0" y="393.875" style="font-family: Arial; font-size: 12px; fill: rgb(0, 0, 0); fill-opacity: 1; white-space: pre; opacity: 1;" transform="translate(175.67000000000002,0)">50.0µs</text></g><g class="x2tick"><text text-anchor="middle" x="0" y="393.875" style="font-family: Arial; font-size: 12px; fill: rgb(0, 0, 0); fill-opacity: 1; white-space: pre; opacity: 1;" transform="translate(277.33000000000004,0)">100µs</text></g><g class="x2tick"><text text-anchor="middle" x="0" y="393.875" style="font-family: Arial; font-size: 12px; fill: rgb(0, 0, 0); fill-opacity: 1; white-space: pre; opacity: 1;" transform="translate(379,0)">150µs</text></g><g class="x2tick"><text text-anchor="middle" x="0" y="393.875" style="font-family: Arial; font-size: 12px; fill: rgb(0, 0, 0); fill-opacity: 1; white-space: pre; opacity: 1;" transform="translate(480.67,0)">200µs</text></g><g class="x2tick"><text text-anchor="middle" x="0" y="393.875" style="font-family: Arial; font-size: 12px; fill: rgb(0, 0, 0); fill-opacity: 1; white-space: pre; opacity: 1;" transform="translate(582.3299999999999,0)">250µs</text></g><g class="x2tick"><text text-anchor="middle" x="0" y="393.875" style="font-family: Arial; font-size: 12px; fill: rgb(0, 0, 0); fill-opacity: 1; white-space: pre; opacity: 0;" transform="translate(684,0)">300µs</text></g></g><g class="yaxislayer-above"><g class="y2tick"><text text-anchor="end" x="73" y="4.199999999999999" transform="translate(0,375.4425)" style="font-family: Arial; font-size: 12px; fill: rgb(0, 0, 0); fill-opacity: 1; white-space: pre; opacity: 1;">−20.0mV</text></g><g class="y2tick"><text text-anchor="end" x="73" y="4.199999999999999" style="font-family: Arial; font-size: 12px; fill: rgb(0, 0, 0); fill-opacity: 1; white-space: pre; opacity: 1;" transform="translate(0,347.5325)">−10.0mV</text></g><g class="y2tick"><text text-anchor="end" x="73" y="4.199999999999999" style="font-family: Arial; font-size: 12px; fill: rgb(0, 0, 0); fill-opacity: 1; white-space: pre; opacity: 1;" transform="translate(0,319.6225)">0.00V</text></g><g class="y2tick"><text text-anchor="end" x="73" y="4.199999999999999" style="font-family: Arial; font-size: 12px; fill: rgb(0, 0, 0); fill-opacity: 1; white-space: pre; opacity: 1;" transform="translate(0,291.7125)">10.0mV</text></g><g class="y2tick"><text text-anchor="end" x="73" y="4.199999999999999" style="font-family: Arial; font-size: 12px; fill: rgb(0, 0, 0); fill-opacity: 1; white-space: pre; opacity: 1;" transform="translate(0,263.7925)">20.0mV</text></g></g><g class="overaxes-above"/></g><g class="subplot x3y3"><g class="layer-subplot"><g class="shapelayer"/><g class="imagelayer"/></g><g class="minor-gridlayer"><g class="x3"/><g class="y3"/></g><g class="gridlayer"><g class="x3"><path class="x3grid crisp" transform="translate(175.67000000000002,0)" d="M0,481.125v125.3125" style="stroke: rgb(255, 255, 255); stroke-opacity: 1; stroke-width: 1px;"/><path class="x3grid crisp" transform="translate(277.33000000000004,0)" d="M0,481.125v125.3125" style="stroke: rgb(255, 255, 255); stroke-opacity: 1; stroke-width: 1px;"/><path class="x3grid crisp" transform="translate(379,0)" d="M0,481.125v125.3125" style="stroke: rgb(255, 255, 255); stroke-opacity: 1; stroke-width: 1px;"/><path class="x3grid crisp" transform="translate(480.67,0)" d="M0,481.125v125.3125" style="stroke: rgb(255, 255, 255); stroke-opacity: 1; stroke-width: 1px;"/><path class="x3grid crisp" transform="translate(582.3299999999999,0)" d="M0,481.125v125.3125" style="stroke: rgb(255, 255, 255); stroke-opacity: 1; stroke-width: 1px;"/></g><g class="y3"><path class="y3grid crisp" transform="translate(0,577.725)" d="M74,0h610" style="stroke: rgb(255, 255, 255); stroke-opacity: 1; stroke-width: 1px;"/><path class="y3grid crisp" transform="translate(0,510.065)" d="M74,0h610" style="stroke: rgb(255, 255, 255); stroke-opacity: 1; stroke-width: 1px;"/></g></g><g class="zerolinelayer"><path class="x3zl zl crisp" transform="translate(74,0)" d="M0,481.125v125.3125" style="stroke: rgb(255, 255, 255); stroke-opacity: 1; stroke-width: 2px;"/><path class="y3zl zl crisp" transform="translate(0,543.895)" d="M74,0h610" style="stroke: rgb(255, 255, 255); stroke-opacity: 1; stroke-width: 2px;"/></g><path class="xlines-below"/><path class="ylines-below"/><g class="overlines-below"/><g class="xaxislayer-below"/><g class="yaxislayer-below"/><g class="overaxes-below"/><g class="plot" transform="translate(74,481.125)" clip-path="url(#clipa5f9a1x3y3plot)"><g class="scatterlayer mlayer"><g class="trace scatter trace079d7e" style="stroke-miterlimit: 2; opacity: 1;"><g class="fills"/><g class="errorbars"/><g class="lines"><path class="js-line" d="M0,62.66L1.12,61.99L1.24,61.78L6.56,52.14L7.65,50.27L18.85,32.29L22.92,26.57L31.05,16.93L35.12,13.15L43.25,7.99L47.32,6.69L51.39,6.27L55.45,6.73L59.52,8.08L63.59,10.29L71.72,17.14L75.79,21.67L83.92,32.59L87.99,38.79L104.43,66.49L107.07,71.17L120.29,92.68L124.36,98.43L132.49,108.15L136.56,111.97L144.69,117.22L148.76,118.57L152.83,119.05L156.89,118.63L160.96,117.33L165.03,115.17L173.16,108.41L177.23,103.91L185.36,93.06L189.43,86.88L204.86,60.98L207.78,55.79L221.36,33.52L224.22,29.37L230.68,20.99L234.65,16.66L242.78,9.99L246.85,7.88L253.99,6.28L256.99,6.42L263,8.15L267.06,10.39L275.2,17.29L279.26,21.85L287.4,32.8L291.46,39.02L307.73,66.41L310.13,70.7L322.69,91.28L325.7,95.67L333.83,106.01L337.9,110.18L346.03,116.24L350.1,118.02L354.16,118.92L358.23,118.95L362.3,118.08L366.36,116.34L374.5,110.35L378.56,106.21L386.7,95.93L390.76,89.97L407.03,63.03L409.29,59L423.59,35.18L426.15,31.37L432.44,22.89L436.51,18.19L444.64,10.97L448.71,8.55L455.86,6.38L459.13,6.3L465.94,7.98L470.01,10.13L478.14,16.89L482.21,21.38L490.34,32.23L494.41,38.41L510.39,65.26L512.42,68.85L524.38,88.78L528.44,94.84L536.58,105.35L540.64,109.63L548.78,115.91L552.84,117.82L556.91,118.85L560.98,119L565.04,118.26L569.11,116.64L577.24,110.89L581.31,106.85L589.44,96.75L593.51,90.86L605.71,71L609.78,64.04L610,63.65" style="vector-effect: non-scaling-stroke; fill: none; stroke: rgb(0, 0, 0); stroke-opacity: 1; stroke-width: 2px; opacity: 1; stroke-dasharray: 3px, 3px;"/></g><g class="points"/><g class="text"/></g><g class="trace scatter traceee108e" style="stroke-miterlimit: 2; opacity: 1;"><g class="fills"/><g class="errorbars"/><g class="lines"><path class="js-line" d="M0,57.7L1.47,56.98L1.81,56.54L12.18,41.76L15.6,36.58L26.99,21.27L31.05,16.86L39.19,10.21L43.25,8.08L47.32,6.79L51.39,6.38L55.45,6.84L59.52,8.17L67.65,13.32L71.72,17.07L79.85,26.56L83.92,32.13L99.68,55.06L102.23,57.69L107.07,60.53L108.62,60.98L117.6,62.07L120.29,62.19L152.83,62.56L156.89,62.56L189.43,62L193.49,61.64L197.56,60.93L201.63,59.35L204.86,56.79L207.78,53.24L218.54,37.18L221.36,33.02L230.68,20.85L234.65,16.61L242.78,10.05L246.85,7.97L253.99,6.39L256.99,6.53L263,8.23L267.06,10.43L275.2,17.21L279.26,21.67L287.4,32.33L291.46,38.3L303.66,55.81L307.73,59.29L311.84,60.95L313.82,61.36L322.69,62.15L325.7,62.27L366.36,62.54L370.43,62.52L394.83,61.84L398.9,61.35L402.96,60.29L407.03,57.89L411.48,52.75L413.82,49.41L428.92,27.17L432.44,22.7L440.58,14.19L444.64,11L452.78,7.08L455.86,6.5L462.23,6.87L465.94,8.06L474.08,13.13L478.14,16.82L486.28,26.24L490.34,31.78L508.41,57.26L510.39,58.87L514.17,60.67L516.31,61.2L524.38,62.07L528.44,62.25L565.04,62.56L569.11,62.54L597.58,61.89L601.64,61.44L605.71,60.5L609.78,58.36L610,58.19" style="vector-effect: non-scaling-stroke; fill: none; stroke: rgb(255, 161, 90); stroke-opacity: 1; stroke-width: 2px; opacity: 1;"/></g><g class="points"/><g class="text"/></g><g class="trace scatter tracef51ed8" style="stroke-miterlimit: 2; opacity: 1;"><g class="fills"/><g class="errorbars"/><g class="lines"><path class="js-line" d="M0,57.81L1.47,58.42L1.81,58.73L4.46,60.17L5.13,60.42L10.46,61.54L12.18,61.72L31.05,62.41L35.12,62.45L83.92,62.13L87.99,61.92L97.65,60.39L99.68,59.52L104.43,55.61L107.07,52.17L128.43,21.77L132.49,17.31L140.63,10.56L144.69,8.38L148.76,7.05L152.83,6.58L156.89,6.99L160.96,8.27L169.09,13.36L173.16,17.06L181.29,26.5L185.36,32.05L201.63,55.54L204.86,58.56L209.49,60.73L211.48,61.18L221.36,62.1L224.22,62.21L259.84,62.51L263,62.5L291.46,61.91L295.53,61.53L299.6,60.8L303.66,59.16L307.73,55.66L310.13,52.54L329.76,24.19L333.83,19.42L341.96,11.93L346.03,9.35L350.1,7.59L354.16,6.7L358.23,6.68L362.3,7.54L366.36,9.25L370.43,11.8L378.56,19.22L382.63,23.96L390.76,35.03L394.83,41.12L402.96,53.09L407.03,57.62L411.48,60.31L413.82,60.98L421.08,61.9L423.59,62.05L448.71,62.5L452.78,62.51L494.41,61.93L498.48,61.58L506.43,59.48L507.09,59.11L510.39,56.38L512.42,53.96L520.74,41.69L524.38,36.18L532.51,24.92L536.58,20.07L544.71,12.37L548.78,9.67L552.84,7.79L556.91,6.78L560.98,6.63L565.04,7.36L569.11,8.95L573.18,11.39L581.31,18.59L585.38,23.24L593.51,34.18L597.58,40.23L605.71,52.3L609.78,57.08L610,57.3" style="vector-effect: non-scaling-stroke; fill: none; stroke: rgb(25, 211, 243); stroke-opacity: 1; stroke-width: 2px; opacity: 1;"/></g><g class="points"/><g class="text"/></g></g></g><g class="overplot"/><path class="xlines-above crisp" d="M0,0" style="fill: none;"/><path class="ylines-above crisp" d="M0,0" style="fill: none;"/><g class="overlines-above"/><g class="xaxislayer-above"><g class="x3tick"><text text-anchor="middle" x="0" y="619.4375" transform="translate(74,0)" style="font-family: Arial; font-size: 12px; fill: rgb(0, 0, 0); fill-opacity: 1; white-space: pre; opacity: 1;">0.00s</text></g><g class="x3tick"><text text-anchor="middle" x="0" y="619.4375" style="font-family: Arial; font-size: 12px; fill: rgb(0, 0, 0); fill-opacity: 1; white-space: pre; opacity: 1;" transform="translate(175.67000000000002,0)">50.0µs</text></g><g class="x3tick"><text text-anchor="middle" x="0" y="619.4375" style="font-family: Arial; font-size: 12px; fill: rgb(0, 0, 0); fill-opacity: 1; white-space: pre; opacity: 1;" transform="translate(277.33000000000004,0)">100µs</text></g><g class="x3tick"><text text-anchor="middle" x="0" y="619.4375" style="font-family: Arial; font-size: 12px; fill: rgb(0, 0, 0); fill-opacity: 1; white-space: pre; opacity: 1;" transform="translate(379,0)">150µs</text></g><g class="x3tick"><text text-anchor="middle" x="0" y="619.4375" style="font-family: Arial; font-size: 12px; fill: rgb(0, 0, 0); fill-opacity: 1; white-space: pre; opacity: 1;" transform="translate(480.67,0)">200µs</text></g><g class="x3tick"><text text-anchor="middle" x="0" y="619.4375" style="font-family: Arial; font-size: 12px; fill: rgb(0, 0, 0); fill-opacity: 1; white-space: pre; opacity: 1;" transform="translate(582.3299999999999,0)">250µs</text></g><g class="x3tick"><text text-anchor="middle" x="0" y="619.4375" style="font-family: Arial; font-size: 12px; fill: rgb(0, 0, 0); fill-opacity: 1; white-space: pre; opacity: 0;" transform="translate(684,0)">300µs</text></g></g><g class="yaxislayer-above"><g class="y3tick"><text text-anchor="end" x="73" y="4.199999999999999" transform="translate(0,577.725)" style="font-family: Arial; font-size: 12px; fill: rgb(0, 0, 0); fill-opacity: 1; white-space: pre; opacity: 1;">−100mA</text></g><g class="y3tick"><text text-anchor="end" x="73" y="4.199999999999999" style="font-family: Arial; font-size: 12px; fill: rgb(0, 0, 0); fill-opacity: 1; white-space: pre; opacity: 1;" transform="translate(0,543.895)">0.00A</text></g><g class="y3tick"><text text-anchor="end" x="73" y="4.199999999999999" style="font-family: Arial; font-size: 12px; fill: rgb(0, 0, 0); fill-opacity: 1; white-space: pre; opacity: 1;" transform="translate(0,510.065)">100mA</text></g></g><g class="overaxes-above"/></g><g class="subplot x4y4"><g class="layer-subplot"><g class="shapelayer"/><g class="imagelayer"/></g><g class="minor-gridlayer"><g class="x4"/><g class="y4"/></g><g class="gridlayer"><g class="x4"><path class="x4grid crisp" transform="translate(175.67000000000002,0)" d="M0,706.6875v125.3125" style="stroke: rgb(255, 255, 255); stroke-opacity: 1; stroke-width: 1px;"/><path class="x4grid crisp" transform="translate(277.33000000000004,0)" d="M0,706.6875v125.3125" style="stroke: rgb(255, 255, 255); stroke-opacity: 1; stroke-width: 1px;"/><path class="x4grid crisp" transform="translate(379,0)" d="M0,706.6875v125.3125" style="stroke: rgb(255, 255, 255); stroke-opacity: 1; stroke-width: 1px;"/><path class="x4grid crisp" transform="translate(480.67,0)" d="M0,706.6875v125.3125" style="stroke: rgb(255, 255, 255); stroke-opacity: 1; stroke-width: 1px;"/><path class="x4grid crisp" transform="translate(582.3299999999999,0)" d="M0,706.6875v125.3125" style="stroke: rgb(255, 255, 255); stroke-opacity: 1; stroke-width: 1px;"/></g><g class="y4"><path class="y4grid crisp" transform="translate(0,803.4175)" d="M74,0h610" style="stroke: rgb(255, 255, 255); stroke-opacity: 1; stroke-width: 1px;"/><path class="y4grid crisp" transform="translate(0,747.0075)" d="M74,0h610" style="stroke: rgb(255, 255, 255); stroke-opacity: 1; stroke-width: 1px;"/><path class="y4grid crisp" transform="translate(0,718.8075)" d="M74,0h610" style="stroke: rgb(255, 255, 255); stroke-opacity: 1; stroke-width: 1px;"/></g></g><g class="zerolinelayer"><path class="x4zl zl crisp" transform="translate(74,0)" d="M0,706.6875v125.3125" style="stroke: rgb(255, 255, 255); stroke-opacity: 1; stroke-width: 2px;"/><path class="y4zl zl crisp" transform="translate(0,775.2175)" d="M74,0h610" style="stroke: rgb(255, 255, 255); stroke-opacity: 1; stroke-width: 2px;"/></g><path class="xlines-below"/><path class="ylines-below"/><g class="overlines-below"/><g class="xaxislayer-below"/><g class="yaxislayer-below"/><g class="overaxes-below"/><g class="plot" transform="translate(74,706.6875)" clip-path="url(#clipa5f9a1x4y4plot)"><g class="scatterlayer mlayer"><g class="trace scatter traceaf9462" style="stroke-miterlimit: 2; opacity: 1;"><g class="fills"/><g class="errorbars"/><g class="lines"><path class="js-line" d="M0,67.12L0.91,66.47L1.03,66.27L5.78,58.65L6.56,57.44L26.99,25.08L31.05,19.68L39.19,11.25L43.25,8.46L47.32,6.8L51.39,6.28L55.45,6.94L59.52,8.76L63.59,11.69L67.65,15.61L75.79,25.92L79.85,31.99L107.07,74.44L108.62,76.51L128.43,102.76L132.49,107.35L140.63,114.64L144.69,117.08L148.76,118.56L152.83,119.05L156.89,118.5L160.96,116.98L169.09,111.17L173.16,107.1L181.29,97.32L185.36,91.92L209.49,58.09L211.48,54.88L230.68,24.58L234.65,19.35L242.78,11.04L246.85,8.32L253.99,6.27L256.99,6.5L263,8.85L267.06,11.8L275.2,20.58L279.26,26.13L291.46,45.33L295.53,52.02L307.73,70.66L310.13,74.09L333.83,105.16L337.9,109.5L346.03,116L350.1,117.94L354.16,118.93L358.23,118.88L362.3,117.86L366.36,115.82L374.5,109.17L378.56,104.8L390.76,89.09L394.83,83.54L413.82,56.48L415.55,53.69L432.44,26.82L436.51,21.23L444.64,12.28L448.71,9.17L455.86,6.4L459.13,6.33L462.23,6.97L465.94,8.62L470.01,11.48L474.08,15.35L482.21,25.58L486.28,31.6L512.42,72.61L514.17,75L536.58,104.51L540.64,108.9L548.78,115.64L552.84,117.73L556.91,118.84L560.98,118.97L565.04,118.06L569.11,116.18L577.24,109.76L581.31,105.46L593.51,89.9L597.58,84.34L610,67.43" style="vector-effect: non-scaling-stroke; fill: none; stroke: rgb(255, 102, 146); stroke-opacity: 1; stroke-width: 2px; opacity: 1;"/></g><g class="points"/><g class="text"/></g></g></g><g class="overplot"/><path class="xlines-above crisp" d="M0,0" style="fill: none;"/><path class="ylines-above crisp" d="M0,0" style="fill: none;"/><g class="overlines-above"/><g class="xaxislayer-above"><g class="x4tick"><text text-anchor="middle" x="0" y="845" transform="translate(74,0)" style="font-family: Arial; font-size: 12px; fill: rgb(0, 0, 0); fill-opacity: 1; white-space: pre; opacity: 1;">0.00s</text></g><g class="x4tick"><text text-anchor="middle" x="0" y="845" style="font-family: Arial; font-size: 12px; fill: rgb(0, 0, 0); fill-opacity: 1; white-space: pre; opacity: 1;" transform="translate(175.67000000000002,0)">50.0µs</text></g><g class="x4tick"><text text-anchor="middle" x="0" y="845" style="font-family: Arial; font-size: 12px; fill: rgb(0, 0, 0); fill-opacity: 1; white-space: pre; opacity: 1;" transform="translate(277.33000000000004,0)">100µs</text></g><g class="x4tick"><text text-anchor="middle" x="0" y="845" style="font-family: Arial; font-size: 12px; fill: rgb(0, 0, 0); fill-opacity: 1; white-space: pre; opacity: 1;" transform="translate(379,0)">150µs</text></g><g class="x4tick"><text text-anchor="middle" x="0" y="845" style="font-family: Arial; font-size: 12px; fill: rgb(0, 0, 0); fill-opacity: 1; white-space: pre; opacity: 1;" transform="translate(480.67,0)">200µs</text></g><g class="x4tick"><text text-anchor="middle" x="0" y="845" style="font-family: Arial; font-size: 12px; fill: rgb(0, 0, 0); fill-opacity: 1; white-space: pre; opacity: 1;" transform="translate(582.3299999999999,0)">250µs</text></g><g class="x4tick"><text text-anchor="middle" x="0" y="845" style="font-family: Arial; font-size: 12px; fill: rgb(0, 0, 0); fill-opacity: 1; white-space: pre; opacity: 0;" transform="translate(684,0)">300µs</text></g></g><g class="yaxislayer-above"><g class="y4tick"><text text-anchor="end" x="73" y="4.199999999999999" transform="translate(0,831.6175000000001)" style="font-family: Arial; font-size: 12px; fill: rgb(0, 0, 0); fill-opacity: 1; white-space: pre; opacity: 1;">−1.00mA</text></g><g class="y4tick"><text text-anchor="end" x="73" y="4.199999999999999" style="font-family: Arial; font-size: 12px; fill: rgb(0, 0, 0); fill-opacity: 1; white-space: pre; opacity: 1;" transform="translate(0,803.4175)">−500µA</text></g><g class="y4tick"><text text-anchor="end" x="73" y="4.199999999999999" style="font-family: Arial; font-size: 12px; fill: rgb(0, 0, 0); fill-opacity: 1; white-space: pre; opacity: 1;" transform="translate(0,775.2175)">0.00A</text></g><g class="y4tick"><text text-anchor="end" x="73" y="4.199999999999999" style="font-family: Arial; font-size: 12px; fill: rgb(0, 0, 0); fill-opacity: 1; white-space: pre; opacity: 1;" transform="translate(0,747.0075)">500µA</text></g><g class="y4tick"><text text-anchor="end" x="73" y="4.199999999999999" style="font-family: Arial; font-size: 12px; fill: rgb(0, 0, 0); fill-opacity: 1; white-space: pre; opacity: 1;" transform="translate(0,718.8075)">1.00mA</text></g></g><g class="overaxes-above"/></g></g><g class="polarlayer"/><g class="smithlayer"/><g class="ternarylayer"/><g class="geolayer"/><g class="funnelarealayer"/><g class="pielayer"/><g class="iciclelayer"/><g class="treemaplayer"/><g class="sunburstlayer"/><g class="glimages"/><defs id="topdefs-a5f9a1"><g class="clips"/><clipPath id="legenda5f9a1"><rect width="562" height="48" x="0" y="0"/></clipPath></defs><g class="layer-above"><g class="imagelayer"/><g class="shapelayer"/></g><g class="infolayer"><g class="legend" pointer-events="all" transform="translate(80.1,952)"><rect class="bg" shape-rendering="crispEdges" width="562" height="48" x="0" y="0" style="stroke: rgb(68, 68, 68); stroke-opacity: 1; fill: rgb(255, 255, 255); fill-opacity: 1; stroke-width: 0px;"/><g class="scrollbox" transform="" clip-path="url(#legenda5f9a1)"><g class="groups"><g class="traces" transform="translate(0,14.5)" style="opacity: 1;"><text class="legendtext" text-anchor="start" x="40" y="4.680000000000001" style="font-family: Arial; font-size: 12px; fill: rgb(0, 0, 0); fill-opacity: 1; white-space: pre;">v(Uin)</text><g class="layers" style="opacity: 1;"><g class="legendfill"/><g class="legendlines"><path class="js-line" d="M5,0h30" style="fill: none; stroke: rgb(0, 0, 0); stroke-opacity: 1; stroke-dasharray: 9px, 9px; stroke-width: 2px;"/></g><g class="legendsymbols"><g class="legendpoints"/></g></g><rect class="legendtoggle" x="0" y="-9.5" width="75.515625" height="19" style="fill: rgb(0, 0, 0); fill-opacity: 0;"/></g><g class="traces" transform="translate(121.34375,14.5)" style="opacity: 1;"><text class="legendtext" text-anchor="start" x="40" y="4.680000000000001" style="font-family: Arial; font-size: 12px; fill: rgb(0, 0, 0); fill-opacity: 1; white-space: pre;">v(Uout)</text><g class="layers" style="opacity: 1;"><g class="legendfill"/><g class="legendlines"><path class="js-line" d="M5,0h30" style="fill: none; stroke: rgb(239, 85, 59); stroke-opacity: 1; stroke-width: 2px;"/></g><g class="legendsymbols"><g class="legendpoints"/></g></g><rect class="legendtoggle" x="0" y="-9.5" width="82.84375" height="19" style="fill: rgb(0, 0, 0); fill-opacity: 0;"/></g><g class="traces" transform="translate(242.6875,14.5)" style="opacity: 1;"><text class="legendtext" text-anchor="start" x="40" y="4.680000000000001" style="font-family: Arial; font-size: 12px; fill: rgb(0, 0, 0); fill-opacity: 1; white-space: pre;">v(Uin)-v(Uout)</text><g class="layers" style="opacity: 1;"><g class="legendfill"/><g class="legendlines"><path class="js-line" d="M5,0h30" style="fill: none; stroke: rgb(0, 204, 150); stroke-opacity: 1; stroke-width: 2px;"/></g><g class="legendsymbols"><g class="legendpoints"/></g></g><rect class="legendtoggle" x="0" y="-9.5" width="118.84375" height="19" style="fill: rgb(0, 0, 0); fill-opacity: 0;"/></g><g class="traces" transform="translate(364.03125,14.5)" style="opacity: 1;"><text class="legendtext" text-anchor="start" x="40" y="4.680000000000001" style="font-family: Arial; font-size: 12px; fill: rgb(0, 0, 0); fill-opacity: 1; white-space: pre;">I(RLast)</text><g class="layers" style="opacity: 1;"><g class="legendfill"/><g class="legendlines"><path class="js-line" d="M5,0h30" style="fill: none; stroke: rgb(0, 0, 0); stroke-opacity: 1; stroke-dasharray: 3px, 3px; stroke-width: 2px;"/></g><g class="legendsymbols"><g class="legendpoints"/></g></g><rect class="legendtoggle" x="0" y="-9.5" width="85.1875" height="19" style="fill: rgb(0, 0, 0); fill-opacity: 0;"/></g><g class="traces" transform="translate(485.375,14.5)" style="opacity: 1;"><text class="legendtext" text-anchor="start" x="40" y="4.680000000000001" style="font-family: Arial; font-size: 12px; fill: rgb(0, 0, 0); fill-opacity: 1; white-space: pre;">Ic(T1)</text><g class="layers" style="opacity: 1;"><g class="legendfill"/><g class="legendlines"><path class="js-line" d="M5,0h30" style="fill: none; stroke: rgb(255, 161, 90); stroke-opacity: 1; stroke-width: 2px;"/></g><g class="legendsymbols"><g class="legendpoints"/></g></g><rect class="legendtoggle" x="0" y="-9.5" width="73.84375" height="19" style="fill: rgb(0, 0, 0); fill-opacity: 0;"/></g><g class="traces" transform="translate(0,33.5)" style="opacity: 1;"><text class="legendtext" text-anchor="start" x="40" y="4.680000000000001" style="font-family: Arial; font-size: 12px; fill: rgb(0, 0, 0); fill-opacity: 1; white-space: pre;">Ic(T2)</text><g class="layers" style="opacity: 1;"><g class="legendfill"/><g class="legendlines"><path class="js-line" d="M5,0h30" style="fill: none; stroke: rgb(25, 211, 243); stroke-opacity: 1; stroke-width: 2px;"/></g><g class="legendsymbols"><g class="legendpoints"/></g></g><rect class="legendtoggle" x="0" y="-9.5" width="73.84375" height="19" style="fill: rgb(0, 0, 0); fill-opacity: 0;"/></g><g class="traces" transform="translate(121.34375,33.5)" style="opacity: 1;"><text class="legendtext" text-anchor="start" x="40" y="4.680000000000001" style="font-family: Arial; font-size: 12px; fill: rgb(0, 0, 0); fill-opacity: 1; white-space: pre;">I(Rshunt)</text><g class="layers" style="opacity: 1;"><g class="legendfill"/><g class="legendlines"><path class="js-line" d="M5,0h30" style="fill: none; stroke: rgb(255, 102, 146); stroke-opacity: 1; stroke-width: 2px;"/></g><g class="legendsymbols"><g class="legendpoints"/></g></g><rect class="legendtoggle" x="0" y="-9.5" width="91.859375" height="19" style="fill: rgb(0, 0, 0); fill-opacity: 0;"/></g></g></g><rect class="scrollbar" rx="20" ry="3" width="0" height="0" x="0" y="0" style="fill: rgb(128, 139, 164); fill-opacity: 1;"/></g><g class="g-gtitle"/><g class="g-xtitle"/><g class="g-x2title"/><g class="g-x3title"/><g class="g-x4title"><text class="x4title" x="379" y="872.8" text-anchor="middle" style="font-family: Arial; font-size: 14px; fill: rgb(0, 0, 0); opacity: 1; font-weight: normal; white-space: pre;">Time</text></g><g class="g-ytitle" transform="translate(9.8310546875,0)"><text class="ytitle" transform="rotate(-90,3.168750000000003,92.65625)" x="3.168750000000003" y="92.65625" text-anchor="middle" style="font-family: Arial; font-size: 14px; fill: rgb(0, 0, 0); opacity: 1; font-weight: normal; white-space: pre;">Voltage</text></g><g class="g-y2title" transform="translate(13.1748046875,0)"><text class="y2title" transform="rotate(-90,-0.17499999999999716,318.21875)" x="-0.17499999999999716" y="318.21875" text-anchor="middle" style="font-family: Arial; font-size: 14px; fill: rgb(0, 0, 0); opacity: 1; font-weight: normal; white-space: pre;">Voltage</text></g><g class="g-y3title" transform="translate(9.8310546875,0)"><text class="y3title" transform="rotate(-90,3.168750000000003,543.78125)" x="3.168750000000003" y="543.78125" text-anchor="middle" style="font-family: Arial; font-size: 14px; fill: rgb(0, 0, 0); opacity: 1; font-weight: normal; white-space: pre;">Current</text></g><g class="g-y4title" transform="translate(13.1748046875,0)"><text class="y4title" transform="rotate(-90,-0.17499999999999716,769.34375)" x="-0.17499999999999716" y="769.34375" text-anchor="middle" style="font-family: Arial; font-size: 14px; fill: rgb(0, 0, 0); opacity: 1; font-weight: normal; white-space: pre;">Current</text></g><g class="annotation" data-index="0" style="opacity: 1;"><g class="annotation-text-g" transform="rotate(0,379,19.499999999999993)"><g class="cursor-pointer" transform="translate(274,9)"><rect class="bg" x="0.5" y="0.5" width="209" height="20" style="stroke-width: 1px; stroke: rgb(0, 0, 0); stroke-opacity: 0; fill: rgb(0, 0, 0); fill-opacity: 0;"/><text class="annotation-text" text-anchor="middle" x="104.75" y="16" style="font-family: Arial; font-size: 16px; fill: rgb(0, 0, 0); fill-opacity: 1; white-space: pre;">Ein- und Ausgangsspannung</text></g></g></g><g class="annotation" data-index="1" style="opacity: 1;"><g class="annotation-text-g" transform="rotate(0,379,245.0625)"><g class="cursor-pointer" transform="translate(306,235)"><rect class="bg" x="0.5" y="0.5" width="145" height="20" style="stroke-width: 1px; stroke: rgb(0, 0, 0); stroke-opacity: 0; fill: rgb(0, 0, 0); fill-opacity: 0;"/><text class="annotation-text" text-anchor="middle" x="73.03125" y="16" style="font-family: Arial; font-size: 16px; fill: rgb(0, 0, 0); fill-opacity: 1; white-space: pre;">Spannungsdifferenz</text></g></g></g><g class="annotation" data-index="2" style="opacity: 1;"><g class="annotation-text-g" transform="rotate(0,379,470.625)"><g class="cursor-pointer" transform="translate(351,460)"><rect class="bg" x="0.5" y="0.5" width="55" height="20" style="stroke-width: 1px; stroke: rgb(0, 0, 0); stroke-opacity: 0; fill: rgb(0, 0, 0); fill-opacity: 0;"/><text class="annotation-text" text-anchor="middle" x="27.796875" y="16" style="font-family: Arial; font-size: 16px; fill: rgb(0, 0, 0); fill-opacity: 1; white-space: pre;">Ströme</text></g></g></g></g></svg>