<svg class="main-svg" xmlns="http://www.w3.org/2000/svg" xmlns:xlink="http://www.w3.org/1999/xlink" width="700" height="1000" style="" viewBox="0 0 700 1000"><rect x="0" y="0" width="700" height="1000" style="fill: rgb(255, 255, 255); fill-opacity: 1;"/><defs id="defs-34ed3a"><g class="clips"><clipPath id="clip34ed3axyplot" class="plotclip"><rect width="606" height="125.3125"/></clipPath><clipPath id="clip34ed3ax2y2plot" class="plotclip"><rect width="606" height="125.3125"/></clipPath><clipPath id="clip34ed3ax3y3plot" class="plotclip"><rect width="606" height="125.3125"/></clipPath><clipPath id="clip34ed3ax4y4plot" class="plotclip"><rect width="606" height="125.3125"/></clipPath><clipPath class="axesclip" id="clip34ed3ax"><rect x="74" y="0" width="606" height="1000"/></clipPath><clipPath class="axesclip" id="clip34ed3ay"><rect x="0" y="30" width="700" height="125.3125"/></clipPath><clipPath class="axesclip" id="clip34ed3axy"><rect x="74" y="30" width="606" height="125.3125"/></clipPath><clipPath class="axesclip" id="clip34ed3ay2"><rect x="0" y="255.5625" width="700" height="125.3125"/></clipPath><clipPath class="axesclip" id="clip34ed3axy2"><rect x="74" y="255.5625" width="606" height="125.3125"/></clipPath><clipPath class="axesclip" id="clip34ed3ay3"><rect x="0" y="481.125" width="700" height="125.3125"/></clipPath><clipPath class="axesclip" id="clip34ed3axy3"><rect x="74" y="481.125" width="606" height="125.3125"/></clipPath><clipPath class="axesclip" id="clip34ed3ay4"><rect x="0" y="706.6875" width="700" height="125.3125"/></clipPath><clipPath class="axesclip" id="clip34ed3axy4"><rect x="74" y="706.6875" width="606" height="125.3125"/></clipPath><clipPath class="axesclip" id="clip34ed3ax2"><rect x="74" y="0" width="606" height="1000"/></clipPath><clipPath class="axesclip" id="clip34ed3ax2y"><rect x="74" y="30" width="606" height="125.3125"/></clipPath><clipPath class="axesclip" id="clip34ed3ax2y2"><rect x="74" y="255.5625" width="606" height="125.3125"/></clipPath><clipPath class="axesclip" id="clip34ed3ax2y3"><rect x="74" y="481.125" width="606" height="125.3125"/></clipPath><clipPath class="axesclip" id="clip34ed3ax2y4"><rect x="74" y="706.6875" width="606" height="125.3125"/></clipPath><clipPath class="axesclip" id="clip34ed3ax3"><rect x="74" y="0" width="606" height="1000"/></clipPath><clipPath class="axesclip" id="clip34ed3ax3y"><rect x="74" y="30" width="606" height="125.3125"/></clipPath><clipPath class="axesclip" id="clip34ed3ax3y2"><rect x="74" y="255.5625" width="606" height="125.3125"/></clipPath><clipPath class="axesclip" id="clip34ed3ax3y3"><rect x="74" y="481.125" width="606" height="125.3125"/></clipPath><clipPath class="axesclip" id="clip34ed3ax3y4"><rect x="74" y="706.6875" width="606" height="125.3125"/></clipPath><clipPath class="axesclip" id="clip34ed3ax4"><rect x="74" y="0" width="606" height="1000"/></clipPath><clipPath class="axesclip" id="clip34ed3ax4y"><rect x="74" y="30" width="606" height="125.3125"/></clipPath><clipPath class="axesclip" id="clip34ed3ax4y2"><rect x="74" y="255.5625" width="606" height="125.3125"/></clipPath><clipPath class="axesclip" id="clip34ed3ax4y3"><rect x="74" y="481.125" width="606" height="125.3125"/></clipPath><clipPath class="axesclip" id="clip34ed3ax4y4"><rect x="74" y="706.6875" width="606" height="125.3125"/></clipPath></g><g class="gradients"/><g class="patterns"/></defs><g class="bglayer"><rect class="bg" x="74" y="30" width="606" height="125.3125" style="fill: rgb(229, 236, 246); fill-opacity: 1; stroke-width: 0;"/><rect class="bg" x="74" y="255.5625" width="606" height="125.3125" style="fill: rgb(229, 236, 246); fill-opacity: 1; stroke-width: 0;"/><rect class="bg" x="74" y="481.125" width="606" height="125.3125" style="fill: rgb(229, 236, 246); fill-opacity: 1; stroke-width: 0;"/><rect class="bg" x="74" y="706.6875" width="606" height="125.3125" style="fill: rgb(229, 236, 246); fill-opacity: 1; stroke-width: 0;"/></g><g class="layer-below"><g class="imagelayer"/><g class="shapelayer"/></g><g class="cartesianlayer"><g class="subplot xy"><g class="layer-subplot"><g class="shapelayer"/><g class="imagelayer"/></g><g class="minor-gridlayer"><g class="x"/><g class="y"/></g><g class="gridlayer"><g class="x"><path class="xgrid crisp" transform="translate(172.07,0)" d="M0,30v125.3125" style="stroke: rgb(255, 255, 255); stroke-opacity: 1; stroke-width: 1px;"/><path class="xgrid crisp" transform="translate(273.65,0)" d="M0,30v125.3125" style="stroke: rgb(255, 255, 255); stroke-opacity: 1; stroke-width: 1px;"/><path class="xgrid crisp" transform="translate(375.24,0)" d="M0,30v125.3125" style="stroke: rgb(255, 255, 255); stroke-opacity: 1; stroke-width: 1px;"/><path class="xgrid crisp" transform="translate(476.83,0)" d="M0,30v125.3125" style="stroke: rgb(255, 255, 255); stroke-opacity: 1; stroke-width: 1px;"/><path class="xgrid crisp" transform="translate(578.4100000000001,0)" d="M0,30v125.3125" style="stroke: rgb(255, 255, 255); stroke-opacity: 1; stroke-width: 1px;"/></g><g class="y"><path class="ygrid crisp" transform="translate(0,149.05)" d="M74,0h606" style="stroke: rgb(255, 255, 255); stroke-opacity: 1; stroke-width: 1px;"/><path class="ygrid crisp" transform="translate(0,120.85)" d="M74,0h606" style="stroke: rgb(255, 255, 255); stroke-opacity: 1; stroke-width: 1px;"/><path class="ygrid crisp" transform="translate(0,64.46000000000001)" d="M74,0h606" style="stroke: rgb(255, 255, 255); stroke-opacity: 1; stroke-width: 1px;"/><path class="ygrid crisp" transform="translate(0,36.26)" d="M74,0h606" style="stroke: rgb(255, 255, 255); stroke-opacity: 1; stroke-width: 1px;"/></g></g><g class="zerolinelayer"><path class="yzl zl crisp" transform="translate(0,92.66)" d="M74,0h606" style="stroke: rgb(255, 255, 255); stroke-opacity: 1; stroke-width: 2px;"/></g><path class="xlines-below"/><path class="ylines-below"/><g class="overlines-below"/><g class="xaxislayer-below"/><g class="yaxislayer-below"/><g class="overaxes-below"/><g class="plot" transform="translate(74,30)" clip-path="url(#clip34ed3axyplot)"><g class="scatterlayer mlayer"><g class="trace scatter trace56ad1e" style="stroke-miterlimit: 2; opacity: 1;"><g class="fills"/><g class="errorbars"/><g class="lines"><path class="js-line" d="M0,56.53L16.63,29.75L18.45,27.23L27.28,16.7L27.43,16.55L34.28,10.76L37.33,8.91L41.67,7.11L49.79,6.43L57.92,9.29L61.86,11.9L69.54,19.12L70.45,20.14L78.13,30.05L83.31,37.8L97.07,60.91L103.8,72.59L115.52,91.64L118.53,96.01L126.43,106.01L128.87,108.61L135.93,114.6L140.71,117.26L148.83,119.05L156.96,117.29L167.37,110.06L169.52,107.92L175.67,100.74L180.17,94.61L194,72.47L202.13,58.35L219.05,30.82L219.89,29.62L228.34,18.94L229.54,17.64L235.41,12.25L237.36,10.82L242.92,7.79L247.62,6.48L255.75,7.02L263.87,11.06L271.91,18.24L272.67,19.06L280.64,29.11L284.49,34.73L297.6,56.33L305.73,70.46L319.72,93.16L321.7,96L328.57,104.84L330.99,107.52L338.42,114.13L342.77,116.75L349.51,118.88L357.64,118.2L365.76,114.04L368.85,111.59L375.11,105.28L377.91,101.93L386.78,89.5L394.91,76.32L421.42,31.99L421.9,31.29L430.39,20.2L431.63,18.81L438.22,12.54L440.56,10.8L445.24,8.15L453.37,6.27L461.49,7.93L469.62,13.03L476.86,20.22L479.38,23.23L488.27,35.65L495.13,46.69L522.64,92.78L523.94,94.67L529.32,101.92L531.46,104.51L536.46,109.83L540.96,113.66L545.35,116.45L553.47,118.97L561.6,117.95L569.73,113.45L576.59,107.16L578.07,105.53L584.07,98.04L589.2,90.65L606,62.66" style="vector-effect: non-scaling-stroke; fill: none; stroke: rgb(0, 0, 0); stroke-opacity: 1; stroke-width: 2px; opacity: 1; stroke-dasharray: 9px, 9px;"/></g><g class="points"/><g class="text"/></g><g class="trace scatter trace7d400a" style="stroke-miterlimit: 2; opacity: 1;"><g class="fills"/><g class="errorbars"/><g class="lines"><path class="js-line" d="M0,80.37L13.94,67L14.49,66.69L22.63,62.65L22.94,62.65L27.28,62.03L27.43,61.88L32.75,55.44L34.28,53.5L65.71,14.5L65.83,14.54L67.65,16.49L68.06,16.97L83.31,35.39L88.94,42.56L105.47,62.63L106.33,62.66L111.94,63.34L112.6,63.74L122.63,70.46L124.49,72.25L140.71,87.89L148.83,95.18L167.37,110.04L169.52,110.03L171.91,108.61L173.17,107.67L185.87,97L194,89.67L217.95,66.78L218.51,66.46L226.24,62.65L226.55,62.65L231,61.95L231.19,61.75L237.36,54.21L239.21,51.85L269.16,14.78L269.33,14.86L271.32,17.06L271.91,17.73L280.64,28L284.49,32.86L308.78,62.65L309.75,62.66L315.07,63.32L315.68,63.68L326.84,71.45L328.57,73.14L349.51,93.01L357.64,100.01L371.37,110.5L371.64,110.44L373.72,109.33L375.11,108.33L386.78,98.64L394.91,91.39L421,66.63L421.42,66.39L429.05,62.65L429.36,62.65L433.53,62.19L433.85,61.88L438.22,56.63L440.56,53.67L469.62,16.92L471.9,15.08L473.67,15.68L473.9,15.95L495.13,42.37L502.57,51.88L510.7,61.83L513.65,62.66L518.26,63.33L518.48,63.46L527.66,69.28L529.32,70.78L553.47,93.69L561.6,100.69L574.67,110.54L574.9,110.47L576.59,109.6L578.07,108.57L589.2,99.37L596.79,92.66L606,84.01" style="vector-effect: non-scaling-stroke; fill: none; stroke: rgb(239, 85, 59); stroke-opacity: 1; stroke-width: 2px; opacity: 1;"/></g><g class="points"/><g class="text"/></g></g></g><g class="overplot"/><path class="xlines-above crisp" d="M0,0" style="fill: none;"/><path class="ylines-above crisp" d="M0,0" style="fill: none;"/><g class="overlines-above"/><g class="xaxislayer-above"><g class="xtick"><text text-anchor="middle" x="0" y="168.3125" transform="translate(172.07,0)" style="font-family: Arial; font-size: 12px; fill: rgb(0, 0, 0); fill-opacity: 1; white-space: pre; opacity: 1;">1.05ms</text></g><g class="xtick"><text text-anchor="middle" x="0" y="168.3125" style="font-family: Arial; font-size: 12px; fill: rgb(0, 0, 0); fill-opacity: 1; white-space: pre; opacity: 1;" transform="translate(273.65,0)">1.10ms</text></g><g class="xtick"><text text-anchor="middle" x="0" y="168.3125" style="font-family: Arial; font-size: 12px; fill: rgb(0, 0, 0); fill-opacity: 1; white-space: pre; opacity: 1;" transform="translate(375.24,0)">1.15ms</text></g><g class="xtick"><text text-anchor="middle" x="0" y="168.3125" style="font-family: Arial; font-size: 12px; fill: rgb(0, 0, 0); fill-opacity: 1; white-space: pre; opacity: 1;" transform="translate(476.83,0)">1.20ms</text></g><g class="xtick"><text text-anchor="middle" x="0" y="168.3125" style="font-family: Arial; font-size: 12px; fill: rgb(0, 0, 0); fill-opacity: 1; white-space: pre; opacity: 1;" transform="translate(578.4100000000001,0)">1.25ms</text></g><g class="xtick"><text text-anchor="middle" x="0" y="168.3125" style="font-family: Arial; font-size: 12px; fill: rgb(0, 0, 0); fill-opacity: 1; white-space: pre; opacity: 1;" transform="translate(680,0)">1.30ms</text></g></g><g class="yaxislayer-above"><g class="ytick"><text text-anchor="end" x="73" y="4.199999999999999" transform="translate(0,149.05)" style="font-family: Arial; font-size: 12px; fill: rgb(0, 0, 0); fill-opacity: 1; white-space: pre; opacity: 1;">−10.0V</text></g><g class="ytick"><text text-anchor="end" x="73" y="4.199999999999999" style="font-family: Arial; font-size: 12px; fill: rgb(0, 0, 0); fill-opacity: 1; white-space: pre; opacity: 1;" transform="translate(0,120.85)">−5.00V</text></g><g class="ytick"><text text-anchor="end" x="73" y="4.199999999999999" style="font-family: Arial; font-size: 12px; fill: rgb(0, 0, 0); fill-opacity: 1; white-space: pre; opacity: 1;" transform="translate(0,92.66)">0.00V</text></g><g class="ytick"><text text-anchor="end" x="73" y="4.199999999999999" style="font-family: Arial; font-size: 12px; fill: rgb(0, 0, 0); fill-opacity: 1; white-space: pre; opacity: 1;" transform="translate(0,64.46000000000001)">5.00V</text></g><g class="ytick"><text text-anchor="end" x="73" y="4.199999999999999" style="font-family: Arial; font-size: 12px; fill: rgb(0, 0, 0); fill-opacity: 1; white-space: pre; opacity: 1;" transform="translate(0,36.26)">10.0V</text></g></g><g class="overaxes-above"/></g><g class="subplot x2y2"><g class="layer-subplot"><g class="shapelayer"/><g class="imagelayer"/></g><g class="minor-gridlayer"><g class="x2"/><g class="y2"/></g><g class="gridlayer"><g class="x2"><path class="x2grid crisp" transform="translate(172.07,0)" d="M0,255.5625v125.3125" style="stroke: rgb(255, 255, 255); stroke-opacity: 1; stroke-width: 1px;"/><path class="x2grid crisp" transform="translate(273.65,0)" d="M0,255.5625v125.3125" style="stroke: rgb(255, 255, 255); stroke-opacity: 1; stroke-width: 1px;"/><path class="x2grid crisp" transform="translate(375.24,0)" d="M0,255.5625v125.3125" style="stroke: rgb(255, 255, 255); stroke-opacity: 1; stroke-width: 1px;"/><path class="x2grid crisp" transform="translate(476.83,0)" d="M0,255.5625v125.3125" style="stroke: rgb(255, 255, 255); stroke-opacity: 1; stroke-width: 1px;"/><path class="x2grid crisp" transform="translate(578.4100000000001,0)" d="M0,255.5625v125.3125" style="stroke: rgb(255, 255, 255); stroke-opacity: 1; stroke-width: 1px;"/></g><g class="y2"><path class="y2grid crisp" transform="translate(0,369.0625)" d="M74,0h606" style="stroke: rgb(255, 255, 255); stroke-opacity: 1; stroke-width: 1px;"/><path class="y2grid crisp" transform="translate(0,287.3325)" d="M74,0h606" style="stroke: rgb(255, 255, 255); stroke-opacity: 1; stroke-width: 1px;"/></g></g><g class="zerolinelayer"><path class="y2zl zl crisp" transform="translate(0,328.1925)" d="M74,0h606" style="stroke: rgb(255, 255, 255); stroke-opacity: 1; stroke-width: 2px;"/></g><path class="xlines-below"/><path class="ylines-below"/><g class="overlines-below"/><g class="xaxislayer-below"/><g class="yaxislayer-below"/><g class="overaxes-below"/><g class="plot" transform="translate(74,255.5625)" clip-path="url(#clip34ed3ax2y2plot)"><g class="scatterlayer mlayer"><g class="trace scatter trace1d90de" style="stroke-miterlimit: 2; opacity: 1;"><g class="fills"/><g class="errorbars"/><g class="lines"><path class="js-line" d="M0,38.08L14.49,23.59L15.27,22.58L23.89,11.37L24.81,9.85L27.43,6.93L27.68,6.95L30.32,7.92L31.19,8.41L34.28,10.68L37.33,13.64L41.67,19.07L49.79,33.08L61.86,62.94L64.24,70.03L66.13,73.84L66.35,73.84L70.45,73.4L71.84,73.5L78.13,74.39L83.31,76.13L88.94,78.99L97.07,84.18L103.8,89.08L105.47,91.23L112.6,106.57L113.67,108.02L121.36,116.89L122.63,117.61L126.43,118.8L128.87,119L131.26,118.96L135.93,117.79L140.71,115.2L148.83,107.22L156.96,94.62L165.09,77.51L169.52,69.58L170.07,69.09L180.17,62.04L185.87,56.64L210.25,30.46L214.38,26.98L219.05,21.43L219.89,20.4L226.93,11.58L227.48,10.67L231,6.27L231.19,6.28L233.39,7.04L234.44,7.63L239.21,11.45L242.92,15.64L247.62,22.45L255.75,38.18L269.73,73.78L269.96,73.75L273.61,73.4L274.98,73.5L280.64,74.23L284.49,75.34L290.89,78.29L297.6,82.4L305.73,88.06L308.78,91.52L315.68,106.43L316.68,107.79L324.1,116.58L325.11,117.24L328.57,118.57L330.99,118.98L334.13,118.94L338.42,117.99L342.77,115.94L349.51,110.12L357.64,98.99L365.76,83.21L371.91,70.28L372.32,69.94L386.78,59.39L394.91,50.79L411.16,33.12L416.73,28.23L422.48,21.44L423.14,20.65L429.77,12.15L430.39,11.11L433.85,6.83L434.08,6.85L436.82,7.87L438.22,8.72L440.56,10.5L445.24,15.31L453.37,27.61L461.49,44.9L472.99,74.01L473.39,74.19L481.74,73.86L484.83,74.48L488.27,75.56L495.13,78.9L510.7,89.62L513.65,95.65L518.82,106.38L519.38,107.15L526.78,116.19L527.66,116.85L531.46,118.5L533.39,118.88L536.46,119.05L540.96,118.21L545.35,116.3L553.47,109.26L561.6,97.64L569.73,81.45L575.3,70.01L575.73,69.67L584.07,64.38L589.2,59.98L606,41.68" style="vector-effect: non-scaling-stroke; fill: none; stroke: rgb(0, 204, 150); stroke-opacity: 1; stroke-width: 2px; opacity: 1;"/></g><g class="points"/><g class="text"/></g></g></g><g class="overplot"/><path class="xlines-above crisp" d="M0,0" style="fill: none;"/><path class="ylines-above crisp" d="M0,0" style="fill: none;"/><g class="overlines-above"/><g class="xaxislayer-above"><g class="x2tick"><text text-anchor="middle" x="0" y="393.875" transform="translate(172.07,0)" style="font-family: Arial; font-size: 12px; fill: rgb(0, 0, 0); fill-opacity: 1; white-space: pre; opacity: 1;">1.05ms</text></g><g class="x2tick"><text text-anchor="middle" x="0" y="393.875" style="font-family: Arial; font-size: 12px; fill: rgb(0, 0, 0); fill-opacity: 1; white-space: pre; opacity: 1;" transform="translate(273.65,0)">1.10ms</text></g><g class="x2tick"><text text-anchor="middle" x="0" y="393.875" style="font-family: Arial; font-size: 12px; fill: rgb(0, 0, 0); fill-opacity: 1; white-space: pre; opacity: 1;" transform="translate(375.24,0)">1.15ms</text></g><g class="x2tick"><text text-anchor="middle" x="0" y="393.875" style="font-family: Arial; font-size: 12px; fill: rgb(0, 0, 0); fill-opacity: 1; white-space: pre; opacity: 1;" transform="translate(476.83,0)">1.20ms</text></g><g class="x2tick"><text text-anchor="middle" x="0" y="393.875" style="font-family: Arial; font-size: 12px; fill: rgb(0, 0, 0); fill-opacity: 1; white-space: pre; opacity: 1;" transform="translate(578.4100000000001,0)">1.25ms</text></g><g class="x2tick"><text text-anchor="middle" x="0" y="393.875" style="font-family: Arial; font-size: 12px; fill: rgb(0, 0, 0); fill-opacity: 1; white-space: pre; opacity: 1;" transform="translate(680,0)">1.30ms</text></g></g><g class="yaxislayer-above"><g class="y2tick"><text text-anchor="end" x="73" y="4.199999999999999" transform="translate(0,369.0625)" style="font-family: Arial; font-size: 12px; fill: rgb(0, 0, 0); fill-opacity: 1; white-space: pre; opacity: 1;">−5.00V</text></g><g class="y2tick"><text text-anchor="end" x="73" y="4.199999999999999" style="font-family: Arial; font-size: 12px; fill: rgb(0, 0, 0); fill-opacity: 1; white-space: pre; opacity: 1;" transform="translate(0,328.1925)">0.00V</text></g><g class="y2tick"><text text-anchor="end" x="73" y="4.199999999999999" style="font-family: Arial; font-size: 12px; fill: rgb(0, 0, 0); fill-opacity: 1; white-space: pre; opacity: 1;" transform="translate(0,287.3325)">5.00V</text></g></g><g class="overaxes-above"/></g><g class="subplot x3y3"><g class="layer-subplot"><g class="shapelayer"/><g class="imagelayer"/></g><g class="minor-gridlayer"><g class="x3"/><g class="y3"/></g><g class="gridlayer"><g class="x3"><path class="x3grid crisp" transform="translate(172.07,0)" d="M0,481.125v125.3125" style="stroke: rgb(255, 255, 255); stroke-opacity: 1; stroke-width: 1px;"/><path class="x3grid crisp" transform="translate(273.65,0)" d="M0,481.125v125.3125" style="stroke: rgb(255, 255, 255); stroke-opacity: 1; stroke-width: 1px;"/><path class="x3grid crisp" transform="translate(375.24,0)" d="M0,481.125v125.3125" style="stroke: rgb(255, 255, 255); stroke-opacity: 1; stroke-width: 1px;"/><path class="x3grid crisp" transform="translate(476.83,0)" d="M0,481.125v125.3125" style="stroke: rgb(255, 255, 255); stroke-opacity: 1; stroke-width: 1px;"/><path class="x3grid crisp" transform="translate(578.4100000000001,0)" d="M0,481.125v125.3125" style="stroke: rgb(255, 255, 255); stroke-opacity: 1; stroke-width: 1px;"/></g><g class="y3"><path class="y3grid crisp" transform="translate(0,588.115)" d="M74,0h606" style="stroke: rgb(255, 255, 255); stroke-opacity: 1; stroke-width: 1px;"/><path class="y3grid crisp" transform="translate(0,499.785)" d="M74,0h606" style="stroke: rgb(255, 255, 255); stroke-opacity: 1; stroke-width: 1px;"/></g></g><g class="zerolinelayer"><path class="y3zl zl crisp" transform="translate(0,543.955)" d="M74,0h606" style="stroke: rgb(255, 255, 255); stroke-opacity: 1; stroke-width: 2px;"/></g><path class="xlines-below"/><path class="ylines-below"/><g class="overlines-below"/><g class="xaxislayer-below"/><g class="yaxislayer-below"/><g class="overaxes-below"/><g class="plot" transform="translate(74,481.125)" clip-path="url(#clip34ed3ax3y3plot)"><g class="scatterlayer mlayer"><g class="trace scatter trace6512eb" style="stroke-miterlimit: 2; opacity: 1;"><g class="fills"/><g class="errorbars"/><g class="lines"><path class="js-line" d="M0,83.62L13.94,67.93L14.49,67.56L22.63,62.83L22.94,62.83L27.28,62.09L27.43,61.92L32.75,54.35L34.28,52.08L65.71,6.28L65.83,6.33L67.28,8.11L67.65,8.62L83.31,30.81L88.94,39.23L105.47,62.79L106.33,62.83L111.53,63.35L111.94,63.63L122.63,71.99L124.49,74.09L140.71,92.46L148.83,101.02L165.09,116.93L167.37,118.47L170.07,118.18L170.87,117.62L175.67,113.33L180.17,108.92L194,94.54L202.13,85.38L217.6,67.91L217.95,67.68L226.24,62.83L226.55,62.83L230.84,62.19L231,62L237.36,52.91L239.21,50.14L269.05,6.58L269.16,6.61L270.57,8.24L270.94,8.77L284.49,27.84L290.89,37.4L305.73,59.5L308.78,62.82L314.71,63.36L315.07,63.6L325.11,71.25L326.84,73.15L349.51,98.47L357.64,106.69L371.37,119.01L371.64,118.93L373.72,117.63L375.11,116.45L386.78,105.07L394.91,96.57L411.16,77.95L416.73,71.2L421.9,66.89L422.48,66.48L428.78,62.83L429.05,62.83L433.53,62.28L433.85,61.92L438.22,55.76L440.56,52.28L469.62,9.13L471.9,6.97L473.67,7.68L473.9,7.99L488.27,28.75L495.13,39.01L510.7,61.86L513.65,62.83L518.05,63.47L518.26,63.62L527.66,70.6L529.32,72.37L553.47,99.27L561.6,107.49L574.08,119.01L574.67,119.05L576.59,117.95L578.07,116.74L589.2,105.94L596.79,98.06L606,87.9" style="vector-effect: non-scaling-stroke; fill: none; stroke: rgb(0, 0, 0); stroke-opacity: 1; stroke-width: 2px; opacity: 1; stroke-dasharray: 3px, 3px;"/></g><g class="points"/><g class="text"/></g><g class="trace scatter traceb052f7" style="stroke-miterlimit: 2; opacity: 1;"><g class="fills"/><g class="errorbars"/><g class="lines"><path class="js-line" d="M0,62.83L27.28,62.1L27.43,61.92L32.75,54.41L34.28,52.16L65.36,7.35L65.62,7.29L66.61,8.16L66.95,8.62L83.31,31.19L88.94,39.47L105.47,62.79L106.33,62.83L230.84,62.19L231,62.01L237.36,52.98L239.21,50.24L268.85,7.6L268.95,7.58L269.96,8.39L270.26,8.78L284.49,28.28L290.89,37.67L305.73,59.51L308.78,62.82L381.34,62.83L386.78,62.83L433.53,62.28L433.85,61.92L438.22,55.8L440.56,52.36L469.62,10.06L471.9,7.97L473.67,8.65L473.9,8.95L495.13,39.25L502.57,50.27L510.7,61.86L513.65,62.83L606,62.83" style="vector-effect: non-scaling-stroke; fill: none; stroke: rgb(255, 161, 90); stroke-opacity: 1; stroke-width: 2px; opacity: 1;"/></g><g class="points"/><g class="text"/></g><g class="trace scatter traced7f086" style="stroke-miterlimit: 2; opacity: 1;"><g class="fills"/><g class="errorbars"/><g class="lines"><path class="js-line" d="M0,42.2L13.94,57.75L14.49,58.12L22.63,62.83L22.94,62.83L111.53,62.31L111.94,62.03L122.63,53.72L124.49,51.64L140.71,33.5L148.83,25.11L165.09,9.62L167.37,8.12L170.07,8.4L170.87,8.94L175.67,13.11L180.17,17.39L194,31.46L202.13,40.47L217.6,57.77L217.95,58L226.24,62.83L226.55,62.83L314.71,62.3L315.07,62.06L325.11,54.46L326.84,52.57L349.51,27.61L357.64,19.57L371.37,7.6L371.64,7.67L373.72,8.93L375.11,10.08L386.78,21.14L394.91,29.47L411.16,47.81L416.73,54.5L421.9,58.78L422.48,59.19L429.05,62.83L429.36,62.83L518.05,62.19L518.26,62.04L527.66,55.1L529.32,53.35L553.47,26.83L561.6,18.79L574.67,7.56L574.9,7.63L578.07,9.79L580.94,12.36L596.79,28L604.92,36.78L606,37.99" style="vector-effect: non-scaling-stroke; fill: none; stroke: rgb(25, 211, 243); stroke-opacity: 1; stroke-width: 2px; opacity: 1;"/></g><g class="points"/><g class="text"/></g></g></g><g class="overplot"/><path class="xlines-above crisp" d="M0,0" style="fill: none;"/><path class="ylines-above crisp" d="M0,0" style="fill: none;"/><g class="overlines-above"/><g class="xaxislayer-above"><g class="x3tick"><text text-anchor="middle" x="0" y="619.4375" transform="translate(172.07,0)" style="font-family: Arial; font-size: 12px; fill: rgb(0, 0, 0); fill-opacity: 1; white-space: pre; opacity: 1;">1.05ms</text></g><g class="x3tick"><text text-anchor="middle" x="0" y="619.4375" style="font-family: Arial; font-size: 12px; fill: rgb(0, 0, 0); fill-opacity: 1; white-space: pre; opacity: 1;" transform="translate(273.65,0)">1.10ms</text></g><g class="x3tick"><text text-anchor="middle" x="0" y="619.4375" style="font-family: Arial; font-size: 12px; fill: rgb(0, 0, 0); fill-opacity: 1; white-space: pre; opacity: 1;" transform="translate(375.24,0)">1.15ms</text></g><g class="x3tick"><text text-anchor="middle" x="0" y="619.4375" style="font-family: Arial; font-size: 12px; fill: rgb(0, 0, 0); fill-opacity: 1; white-space: pre; opacity: 1;" transform="translate(476.83,0)">1.20ms</text></g><g class="x3tick"><text text-anchor="middle" x="0" y="619.4375" style="font-family: Arial; font-size: 12px; fill: rgb(0, 0, 0); fill-opacity: 1; white-space: pre; opacity: 1;" transform="translate(578.4100000000001,0)">1.25ms</text></g><g class="x3tick"><text text-anchor="middle" x="0" y="619.4375" style="font-family: Arial; font-size: 12px; fill: rgb(0, 0, 0); fill-opacity: 1; white-space: pre; opacity: 1;" transform="translate(680,0)">1.30ms</text></g></g><g class="yaxislayer-above"><g class="y3tick"><text text-anchor="end" x="73" y="4.199999999999999" transform="translate(0,588.115)" style="font-family: Arial; font-size: 12px; fill: rgb(0, 0, 0); fill-opacity: 1; white-space: pre; opacity: 1;">−1.00A</text></g><g class="y3tick"><text text-anchor="end" x="73" y="4.199999999999999" style="font-family: Arial; font-size: 12px; fill: rgb(0, 0, 0); fill-opacity: 1; white-space: pre; opacity: 1;" transform="translate(0,543.955)">0.00A</text></g><g class="y3tick"><text text-anchor="end" x="73" y="4.199999999999999" style="font-family: Arial; font-size: 12px; fill: rgb(0, 0, 0); fill-opacity: 1; white-space: pre; opacity: 1;" transform="translate(0,499.785)">1.00A</text></g></g><g class="overaxes-above"/></g><g class="subplot x4y4"><g class="layer-subplot"><g class="shapelayer"/><g class="imagelayer"/></g><g class="minor-gridlayer"><g class="x4"/><g class="y4"/></g><g class="gridlayer"><g class="x4"><path class="x4grid crisp" transform="translate(172.07,0)" d="M0,706.6875v125.3125" style="stroke: rgb(255, 255, 255); stroke-opacity: 1; stroke-width: 1px;"/><path class="x4grid crisp" transform="translate(273.65,0)" d="M0,706.6875v125.3125" style="stroke: rgb(255, 255, 255); stroke-opacity: 1; stroke-width: 1px;"/><path class="x4grid crisp" transform="translate(375.24,0)" d="M0,706.6875v125.3125" style="stroke: rgb(255, 255, 255); stroke-opacity: 1; stroke-width: 1px;"/><path class="x4grid crisp" transform="translate(476.83,0)" d="M0,706.6875v125.3125" style="stroke: rgb(255, 255, 255); stroke-opacity: 1; stroke-width: 1px;"/><path class="x4grid crisp" transform="translate(578.4100000000001,0)" d="M0,706.6875v125.3125" style="stroke: rgb(255, 255, 255); stroke-opacity: 1; stroke-width: 1px;"/></g><g class="y4"><path class="y4grid crisp" transform="translate(0,821.8075)" d="M74,0h606" style="stroke: rgb(255, 255, 255); stroke-opacity: 1; stroke-width: 1px;"/><path class="y4grid crisp" transform="translate(0,796.5775)" d="M74,0h606" style="stroke: rgb(255, 255, 255); stroke-opacity: 1; stroke-width: 1px;"/><path class="y4grid crisp" transform="translate(0,746.1175)" d="M74,0h606" style="stroke: rgb(255, 255, 255); stroke-opacity: 1; stroke-width: 1px;"/><path class="y4grid crisp" transform="translate(0,720.8875)" d="M74,0h606" style="stroke: rgb(255, 255, 255); stroke-opacity: 1; stroke-width: 1px;"/></g></g><g class="zerolinelayer"><path class="y4zl zl crisp" transform="translate(0,771.3475)" d="M74,0h606" style="stroke: rgb(255, 255, 255); stroke-opacity: 1; stroke-width: 2px;"/></g><path class="xlines-below"/><path class="ylines-below"/><g class="overlines-below"/><g class="xaxislayer-below"/><g class="yaxislayer-below"/><g class="overaxes-below"/><g class="plot" transform="translate(74,706.6875)" clip-path="url(#clip34ed3ax4y4plot)"><g class="scatterlayer mlayer"><g class="trace scatter trace7c622c" style="stroke-miterlimit: 2; opacity: 1;"><g class="fills"/><g class="errorbars"/><g class="lines"><path class="js-line" d="M0,74.4L11.63,66.64L12.92,66.24L24.81,64.49L26.04,64.47L28.96,63.55L29.42,63.32L34.28,60.09L37.33,57.37L41.67,52.57L49.79,40.51L61.86,14.9L64.24,8.71L65.62,6.27L65.83,6.43L65.96,6.62L68.06,11.74L68.7,13.27L78.13,33.51L83.31,42.94L88.94,51.28L97.07,59.96L105.47,64.77L106.33,64.89L110.36,64.82L110.66,64.82L115.52,65.67L118.53,66.34L122.63,67.8L124.49,68.77L131.26,73.41L135.93,77.47L140.71,82.24L148.83,91.75L156.96,102.85L165.09,115.41L167.37,118.07L169.52,117.95L171.91,114.97L173.17,113.07L185.87,94.26L194,84.14L202.13,75.74L210.25,69.35L217.6,66.01L217.95,65.92L227.48,64.5L228.34,64.49L232.31,63.69L232.86,63.42L237.36,60.53L239.21,59L242.92,55.34L247.62,49.54L255.75,36.3L263.87,18.87L269.05,6.86L269.16,6.94L269.33,7.15L271.32,11.92L271.91,13.32L280.64,32.19L284.49,39.51L290.89,49.64L297.6,57.57L305.73,63.64L308.78,64.78L321.7,66.34L322.58,66.56L326.84,68.32L328.57,69.31L334.13,73.2L338.42,76.87L342.77,81.06L349.51,88.68L357.64,99.27L365.76,111.41L371.22,119.01L371.37,118.96L372.8,117.68L373.72,116.46L386.78,96.82L394.91,86.33L403.04,77.51L411.16,70.63L419.92,66.11L420.34,66.01L430.39,64.5L431.63,64.49L435.05,63.71L435.42,63.53L440.56,60.19L445.24,55.85L453.37,45.19L461.49,30.44L471.9,7.56L472.99,7.72L474.67,11.57L475.45,13.58L481.74,27.89L484.83,34.22L488.27,40.58L495.13,51.09L502.57,59.24L510.7,64.44L526.78,66.88L527.66,67.21L533.39,70.34L536.46,72.52L545.35,80.46L553.47,89.63L561.6,100.4L569.73,112.66L574.08,119.04L574.67,119.02L576.59,117.03L578.07,114.9L589.2,98.01L596.79,88.01L606,77.82" style="vector-effect: non-scaling-stroke; fill: none; stroke: rgb(255, 102, 146); stroke-opacity: 1; stroke-width: 2px; opacity: 1;"/></g><g class="points"/><g class="text"/></g></g></g><g class="overplot"/><path class="xlines-above crisp" d="M0,0" style="fill: none;"/><path class="ylines-above crisp" d="M0,0" style="fill: none;"/><g class="overlines-above"/><g class="xaxislayer-above"><g class="x4tick"><text text-anchor="middle" x="0" y="845" transform="translate(172.07,0)" style="font-family: Arial; font-size: 12px; fill: rgb(0, 0, 0); fill-opacity: 1; white-space: pre; opacity: 1;">1.05ms</text></g><g class="x4tick"><text text-anchor="middle" x="0" y="845" style="font-family: Arial; font-size: 12px; fill: rgb(0, 0, 0); fill-opacity: 1; white-space: pre; opacity: 1;" transform="translate(273.65,0)">1.10ms</text></g><g class="x4tick"><text text-anchor="middle" x="0" y="845" style="font-family: Arial; font-size: 12px; fill: rgb(0, 0, 0); fill-opacity: 1; white-space: pre; opacity: 1;" transform="translate(375.24,0)">1.15ms</text></g><g class="x4tick"><text text-anchor="middle" x="0" y="845" style="font-family: Arial; font-size: 12px; fill: rgb(0, 0, 0); fill-opacity: 1; white-space: pre; opacity: 1;" transform="translate(476.83,0)">1.20ms</text></g><g class="x4tick"><text text-anchor="middle" x="0" y="845" style="font-family: Arial; font-size: 12px; fill: rgb(0, 0, 0); fill-opacity: 1; white-space: pre; opacity: 1;" transform="translate(578.4100000000001,0)">1.25ms</text></g><g class="x4tick"><text text-anchor="middle" x="0" y="845" style="font-family: Arial; font-size: 12px; fill: rgb(0, 0, 0); fill-opacity: 1; white-space: pre; opacity: 1;" transform="translate(680,0)">1.30ms</text></g></g><g class="yaxislayer-above"><g class="y4tick"><text text-anchor="end" x="73" y="4.199999999999999" transform="translate(0,821.8075)" style="font-family: Arial; font-size: 12px; fill: rgb(0, 0, 0); fill-opacity: 1; white-space: pre; opacity: 1;">−20.0mA</text></g><g class="y4tick"><text text-anchor="end" x="73" y="4.199999999999999" style="font-family: Arial; font-size: 12px; fill: rgb(0, 0, 0); fill-opacity: 1; white-space: pre; opacity: 1;" transform="translate(0,796.5775)">−10.0mA</text></g><g class="y4tick"><text text-anchor="end" x="73" y="4.199999999999999" style="font-family: Arial; font-size: 12px; fill: rgb(0, 0, 0); fill-opacity: 1; white-space: pre; opacity: 1;" transform="translate(0,771.3475)">0.00A</text></g><g class="y4tick"><text text-anchor="end" x="73" y="4.199999999999999" style="font-family: Arial; font-size: 12px; fill: rgb(0, 0, 0); fill-opacity: 1; white-space: pre; opacity: 1;" transform="translate(0,746.1175)">10.0mA</text></g><g class="y4tick"><text text-anchor="end" x="73" y="4.199999999999999" style="font-family: Arial; font-size: 12px; fill: rgb(0, 0, 0); fill-opacity: 1; white-space: pre; opacity: 1;" transform="translate(0,720.8875)">20.0mA</text></g></g><g class="overaxes-above"/></g></g><g class="polarlayer"/><g class="smithlayer"/><g class="ternarylayer"/><g class="geolayer"/><g class="funnelarealayer"/><g class="pielayer"/><g class="iciclelayer"/><g class="treemaplayer"/><g class="sunburstlayer"/><g class="glimages"/><defs id="topdefs-34ed3a"><g class="clips"/><clipPath id="legend34ed3a"><rect width="562" height="48" x="0" y="0"/></clipPath></defs><g class="layer-above"><g class="imagelayer"/><g class="shapelayer"/></g><g class="infolayer"><g class="legend" pointer-events="all" transform="translate(80.06,952)"><rect class="bg" shape-rendering="crispEdges" width="562" height="48" x="0" y="0" style="stroke: rgb(68, 68, 68); stroke-opacity: 1; fill: rgb(255, 255, 255); fill-opacity: 1; stroke-width: 0px;"/><g class="scrollbox" transform="" clip-path="url(#legend34ed3a)"><g class="groups"><g class="traces" transform="translate(0,14.5)" style="opacity: 1;"><text class="legendtext" text-anchor="start" x="40" y="4.680000000000001" style="font-family: Arial; font-size: 12px; fill: rgb(0, 0, 0); fill-opacity: 1; white-space: pre;">v(Uin)</text><g class="layers" style="opacity: 1;"><g class="legendfill"/><g class="legendlines"><path class="js-line" d="M5,0h30" style="fill: none; stroke: rgb(0, 0, 0); stroke-opacity: 1; stroke-dasharray: 9px, 9px; stroke-width: 2px;"/></g><g class="legendsymbols"><g class="legendpoints"/></g></g><rect class="legendtoggle" x="0" y="-9.5" width="75.515625" height="19" style="fill: rgb(0, 0, 0); fill-opacity: 0;"/></g><g class="traces" transform="translate(121.34375,14.5)" style="opacity: 1;"><text class="legendtext" text-anchor="start" x="40" y="4.680000000000001" style="font-family: Arial; font-size: 12px; fill: rgb(0, 0, 0); fill-opacity: 1; white-space: pre;">v(Uout)</text><g class="layers" style="opacity: 1;"><g class="legendfill"/><g class="legendlines"><path class="js-line" d="M5,0h30" style="fill: none; stroke: rgb(239, 85, 59); stroke-opacity: 1; stroke-width: 2px;"/></g><g class="legendsymbols"><g class="legendpoints"/></g></g><rect class="legendtoggle" x="0" y="-9.5" width="82.84375" height="19" style="fill: rgb(0, 0, 0); fill-opacity: 0;"/></g><g class="traces" transform="translate(242.6875,14.5)" style="opacity: 1;"><text class="legendtext" text-anchor="start" x="40" y="4.680000000000001" style="font-family: Arial; font-size: 12px; fill: rgb(0, 0, 0); fill-opacity: 1; white-space: pre;">v(Uin)-v(Uout)</text><g class="layers" style="opacity: 1;"><g class="legendfill"/><g class="legendlines"><path class="js-line" d="M5,0h30" style="fill: none; stroke: rgb(0, 204, 150); stroke-opacity: 1; stroke-width: 2px;"/></g><g class="legendsymbols"><g class="legendpoints"/></g></g><rect class="legendtoggle" x="0" y="-9.5" width="118.84375" height="19" style="fill: rgb(0, 0, 0); fill-opacity: 0;"/></g><g class="traces" transform="translate(364.03125,14.5)" style="opacity: 1;"><text class="legendtext" text-anchor="start" x="40" y="4.680000000000001" style="font-family: Arial; font-size: 12px; fill: rgb(0, 0, 0); fill-opacity: 1; white-space: pre;">I(RLast)</text><g class="layers" style="opacity: 1;"><g class="legendfill"/><g class="legendlines"><path class="js-line" d="M5,0h30" style="fill: none; stroke: rgb(0, 0, 0); stroke-opacity: 1; stroke-dasharray: 3px, 3px; stroke-width: 2px;"/></g><g class="legendsymbols"><g class="legendpoints"/></g></g><rect class="legendtoggle" x="0" y="-9.5" width="85.1875" height="19" style="fill: rgb(0, 0, 0); fill-opacity: 0;"/></g><g class="traces" transform="translate(485.375,14.5)" style="opacity: 1;"><text class="legendtext" text-anchor="start" x="40" y="4.680000000000001" style="font-family: Arial; font-size: 12px; fill: rgb(0, 0, 0); fill-opacity: 1; white-space: pre;">Ic(T1)</text><g class="layers" style="opacity: 1;"><g class="legendfill"/><g class="legendlines"><path class="js-line" d="M5,0h30" style="fill: none; stroke: rgb(255, 161, 90); stroke-opacity: 1; stroke-width: 2px;"/></g><g class="legendsymbols"><g class="legendpoints"/></g></g><rect class="legendtoggle" x="0" y="-9.5" width="73.84375" height="19" style="fill: rgb(0, 0, 0); fill-opacity: 0;"/></g><g class="traces" transform="translate(0,33.5)" style="opacity: 1;"><text class="legendtext" text-anchor="start" x="40" y="4.680000000000001" style="font-family: Arial; font-size: 12px; fill: rgb(0, 0, 0); fill-opacity: 1; white-space: pre;">Ic(T2)</text><g class="layers" style="opacity: 1;"><g class="legendfill"/><g class="legendlines"><path class="js-line" d="M5,0h30" style="fill: none; stroke: rgb(25, 211, 243); stroke-opacity: 1; stroke-width: 2px;"/></g><g class="legendsymbols"><g class="legendpoints"/></g></g><rect class="legendtoggle" x="0" y="-9.5" width="73.84375" height="19" style="fill: rgb(0, 0, 0); fill-opacity: 0;"/></g><g class="traces" transform="translate(121.34375,33.5)" style="opacity: 1;"><text class="legendtext" text-anchor="start" x="40" y="4.680000000000001" style="font-family: Arial; font-size: 12px; fill: rgb(0, 0, 0); fill-opacity: 1; white-space: pre;">I(Rshunt)</text><g class="layers" style="opacity: 1;"><g class="legendfill"/><g class="legendlines"><path class="js-line" d="M5,0h30" style="fill: none; stroke: rgb(255, 102, 146); stroke-opacity: 1; stroke-width: 2px;"/></g><g class="legendsymbols"><g class="legendpoints"/></g></g><rect class="legendtoggle" x="0" y="-9.5" width="91.859375" height="19" style="fill: rgb(0, 0, 0); fill-opacity: 0;"/></g></g></g><rect class="scrollbar" rx="20" ry="3" width="0" height="0" x="0" y="0" style="fill: rgb(128, 139, 164); fill-opacity: 1;"/></g><g class="g-gtitle"/><g class="g-xtitle"/><g class="g-x2title"/><g class="g-x3title"/><g class="g-x4title"><text class="x4title" x="377" y="872.8" text-anchor="middle" style="font-family: Arial; font-size: 14px; fill: rgb(0, 0, 0); opacity: 1; font-weight: normal; white-space: pre;">Time</text></g><g class="g-ytitle" transform="translate(3.1748046875,0)"><text class="ytitle" transform="rotate(-90,9.825000000000003,92.65625)" x="9.825000000000003" y="92.65625" text-anchor="middle" style="font-family: Arial; font-size: 14px; fill: rgb(0, 0, 0); opacity: 1; font-weight: normal; white-space: pre;">Voltage</text></g><g class="g-y2title" transform="translate(3.1748046875,0)"><text class="y2title" transform="rotate(-90,9.825000000000003,318.21875)" x="9.825000000000003" y="318.21875" text-anchor="middle" style="font-family: Arial; font-size: 14px; fill: rgb(0, 0, 0); opacity: 1; font-weight: normal; white-space: pre;">Voltage</text></g><g class="g-y3title" transform="translate(3.1748046875,0)"><text class="y3title" transform="rotate(-90,9.825000000000003,543.78125)" x="9.825000000000003" y="543.78125" text-anchor="middle" style="font-family: Arial; font-size: 14px; fill: rgb(0, 0, 0); opacity: 1; font-weight: normal; white-space: pre;">Current</text></g><g class="g-y4title" transform="translate(13.1748046875,0)"><text class="y4title" transform="rotate(-90,-0.17499999999999716,769.34375)" x="-0.17499999999999716" y="769.34375" text-anchor="middle" style="font-family: Arial; font-size: 14px; fill: rgb(0, 0, 0); opacity: 1; font-weight: normal; white-space: pre;">Current</text></g><g class="annotation" data-index="0" style="opacity: 1;"><g class="annotation-text-g" transform="rotate(0,377,19.499999999999993)"><g class="cursor-pointer" transform="translate(272,9)"><rect class="bg" x="0.5" y="0.5" width="209" height="20" style="stroke-width: 1px; stroke: rgb(0, 0, 0); stroke-opacity: 0; fill: rgb(0, 0, 0); fill-opacity: 0;"/><text class="annotation-text" text-anchor="middle" x="104.75" y="16" style="font-family: Arial; font-size: 16px; fill: rgb(0, 0, 0); fill-opacity: 1; white-space: pre;">Ein- und Ausgangsspannung</text></g></g></g><g class="annotation" data-index="1" style="opacity: 1;"><g class="annotation-text-g" transform="rotate(0,377,245.0625)"><g class="cursor-pointer" transform="translate(304,235)"><rect class="bg" x="0.5" y="0.5" width="145" height="20" style="stroke-width: 1px; stroke: rgb(0, 0, 0); stroke-opacity: 0; fill: rgb(0, 0, 0); fill-opacity: 0;"/><text class="annotation-text" text-anchor="middle" x="73.03125" y="16" style="font-family: Arial; font-size: 16px; fill: rgb(0, 0, 0); fill-opacity: 1; white-space: pre;">Spannungsdifferenz</text></g></g></g><g class="annotation" data-index="2" style="opacity: 1;"><g class="annotation-text-g" transform="rotate(0,377,470.625)"><g class="cursor-pointer" transform="translate(349,460)"><rect class="bg" x="0.5" y="0.5" width="55" height="20" style="stroke-width: 1px; stroke: rgb(0, 0, 0); stroke-opacity: 0; fill: rgb(0, 0, 0); fill-opacity: 0;"/><text class="annotation-text" text-anchor="middle" x="27.796875" y="16" style="font-family: Arial; font-size: 16px; fill: rgb(0, 0, 0); fill-opacity: 1; white-space: pre;">Ströme</text></g></g></g></g></svg>