<svg class="main-svg" xmlns="http://www.w3.org/2000/svg" xmlns:xlink="http://www.w3.org/1999/xlink" width="700" height="1000" style="" viewBox="0 0 700 1000"><rect x="0" y="0" width="700" height="1000" style="fill: rgb(255, 255, 255); fill-opacity: 1;"/><defs id="defs-0c05d1"><g class="clips"><clipPath id="clip0c05d1xyplot" class="plotclip"><rect width="534" height="114.0625"/></clipPath><clipPath id="clip0c05d1x2y2plot" class="plotclip"><rect width="534" height="114.0625"/></clipPath><clipPath id="clip0c05d1x3y3plot" class="plotclip"><rect width="534" height="114.0625"/></clipPath><clipPath id="clip0c05d1x4y4plot" class="plotclip"><rect width="534" height="114.0625"/></clipPath><clipPath class="axesclip" id="clip0c05d1x"><rect x="86" y="0" width="534" height="1000"/></clipPath><clipPath class="axesclip" id="clip0c05d1y"><rect x="0" y="100" width="700" height="114.0625"/></clipPath><clipPath class="axesclip" id="clip0c05d1xy"><rect x="86" y="100" width="534" height="114.0625"/></clipPath><clipPath class="axesclip" id="clip0c05d1y2"><rect x="0" y="305.3125" width="700" height="114.0625"/></clipPath><clipPath class="axesclip" id="clip0c05d1xy2"><rect x="86" y="305.3125" width="534" height="114.0625"/></clipPath><clipPath class="axesclip" id="clip0c05d1y3"><rect x="0" y="510.625" width="700" height="114.0625"/></clipPath><clipPath class="axesclip" id="clip0c05d1xy3"><rect x="86" y="510.625" width="534" height="114.0625"/></clipPath><clipPath class="axesclip" id="clip0c05d1y4"><rect x="0" y="715.9375" width="700" height="114.0625"/></clipPath><clipPath class="axesclip" id="clip0c05d1xy4"><rect x="86" y="715.9375" width="534" height="114.0625"/></clipPath><clipPath class="axesclip" id="clip0c05d1x2"><rect x="86" y="0" width="534" height="1000"/></clipPath><clipPath class="axesclip" id="clip0c05d1x2y"><rect x="86" y="100" width="534" height="114.0625"/></clipPath><clipPath class="axesclip" id="clip0c05d1x2y2"><rect x="86" y="305.3125" width="534" height="114.0625"/></clipPath><clipPath class="axesclip" id="clip0c05d1x2y3"><rect x="86" y="510.625" width="534" height="114.0625"/></clipPath><clipPath class="axesclip" id="clip0c05d1x2y4"><rect x="86" y="715.9375" width="534" height="114.0625"/></clipPath><clipPath class="axesclip" id="clip0c05d1x3"><rect x="86" y="0" width="534" height="1000"/></clipPath><clipPath class="axesclip" id="clip0c05d1x3y"><rect x="86" y="100" width="534" height="114.0625"/></clipPath><clipPath class="axesclip" id="clip0c05d1x3y2"><rect x="86" y="305.3125" width="534" height="114.0625"/></clipPath><clipPath class="axesclip" id="clip0c05d1x3y3"><rect x="86" y="510.625" width="534" height="114.0625"/></clipPath><clipPath class="axesclip" id="clip0c05d1x3y4"><rect x="86" y="715.9375" width="534" height="114.0625"/></clipPath><clipPath class="axesclip" id="clip0c05d1x4"><rect x="86" y="0" width="534" height="1000"/></clipPath><clipPath class="axesclip" id="clip0c05d1x4y"><rect x="86" y="100" width="534" height="114.0625"/></clipPath><clipPath class="axesclip" id="clip0c05d1x4y2"><rect x="86" y="305.3125" width="534" height="114.0625"/></clipPath><clipPath class="axesclip" id="clip0c05d1x4y3"><rect x="86" y="510.625" width="534" height="114.0625"/></clipPath><clipPath class="axesclip" id="clip0c05d1x4y4"><rect x="86" y="715.9375" width="534" height="114.0625"/></clipPath></g><g class="gradients"/><g class="patterns"/></defs><g class="bglayer"><rect class="bg" x="86" y="100" width="534" height="114.0625" style="fill: rgb(229, 236, 246); fill-opacity: 1; stroke-width: 0;"/><rect class="bg" x="86" y="305.3125" width="534" height="114.0625" style="fill: rgb(229, 236, 246); fill-opacity: 1; stroke-width: 0;"/><rect class="bg" x="86" y="510.625" width="534" height="114.0625" style="fill: rgb(229, 236, 246); fill-opacity: 1; stroke-width: 0;"/><rect class="bg" x="86" y="715.9375" width="534" height="114.0625" style="fill: rgb(229, 236, 246); fill-opacity: 1; stroke-width: 0;"/></g><g class="layer-below"><g class="imagelayer"/><g class="shapelayer"/></g><g class="cartesianlayer"><g class="subplot xy"><g class="layer-subplot"><g class="shapelayer"/><g class="imagelayer"/></g><g class="minor-gridlayer"><g class="x"/><g class="y"/></g><g class="gridlayer"><g class="x"><path class="xgrid crisp" transform="translate(172.42000000000002,0)" d="M0,100v114.0625" style="stroke: rgb(255, 255, 255); stroke-opacity: 1; stroke-width: 1px;"/><path class="xgrid crisp" transform="translate(261.93,0)" d="M0,100v114.0625" style="stroke: rgb(255, 255, 255); stroke-opacity: 1; stroke-width: 1px;"/><path class="xgrid crisp" transform="translate(351.45,0)" d="M0,100v114.0625" style="stroke: rgb(255, 255, 255); stroke-opacity: 1; stroke-width: 1px;"/><path class="xgrid crisp" transform="translate(440.97,0)" d="M0,100v114.0625" style="stroke: rgb(255, 255, 255); stroke-opacity: 1; stroke-width: 1px;"/><path class="xgrid crisp" transform="translate(530.48,0)" d="M0,100v114.0625" style="stroke: rgb(255, 255, 255); stroke-opacity: 1; stroke-width: 1px;"/></g><g class="y"><path class="ygrid crisp" transform="translate(0,208.36)" d="M86,0h534" style="stroke: rgb(255, 255, 255); stroke-opacity: 1; stroke-width: 1px;"/><path class="ygrid crisp" transform="translate(0,182.69)" d="M86,0h534" style="stroke: rgb(255, 255, 255); stroke-opacity: 1; stroke-width: 1px;"/><path class="ygrid crisp" transform="translate(0,131.37)" d="M86,0h534" style="stroke: rgb(255, 255, 255); stroke-opacity: 1; stroke-width: 1px;"/><path class="ygrid crisp" transform="translate(0,105.7)" d="M86,0h534" style="stroke: rgb(255, 255, 255); stroke-opacity: 1; stroke-width: 1px;"/></g></g><g class="zerolinelayer"><path class="yzl zl crisp" transform="translate(0,157.03)" d="M86,0h534" style="stroke: rgb(255, 255, 255); stroke-opacity: 1; stroke-width: 2px;"/></g><path class="xlines-below"/><path class="ylines-below"/><g class="overlines-below"/><g class="xaxislayer-below"/><g class="yaxislayer-below"/><g class="overaxes-below"/><g class="plot" transform="translate(86,100)" clip-path="url(#clip0c05d1xyplot)"><g class="scatterlayer mlayer"><g class="trace scatter trace51fd86" style="stroke-miterlimit: 2; opacity: 1;"><g class="fills"/><g class="errorbars"/><g class="lines"><path class="js-line" d="M0,51.46L14.65,27.08L16.25,24.78L24.39,14.84L24.59,14.64L30.21,9.79L32.9,8.11L36.72,6.47L43.88,5.86L51.04,8.46L54.51,10.83L61.28,17.4L62.08,18.33L68.85,27.35L73.41,34.41L91.46,66.08L92.94,68.68L104.45,87.39L105.44,88.82L113.56,98.86L115.67,100.94L119.78,104.31L123.99,106.74L131.15,108.36L138.31,106.76L147.48,100.18L149.38,98.24L154.8,91.7L158.77,86.11L170.95,65.96L178.11,53.11L193.77,26.96L194.7,25.62L202.95,15.33L203.19,15.08L209.16,9.85L210.79,8.77L214.06,7.09L218.2,5.9L225.36,6.39L232.52,10.06L239.6,16.6L240.27,17.35L247.29,26.49L250.69,31.61L262.25,51.27L269.41,64.14L281.73,84.79L283.48,87.38L291.66,97.87L294.43,100.69L302.04,106.27L307.98,108.2L315.14,107.59L322.31,103.8L329.31,97.25L330.55,95.83L336.03,88.69L340.83,81.46L355.15,56.7L362.31,43.94L375.17,23.61L376.01,22.48L383.68,13.62L384.18,13.15L388.22,9.83L392.34,7.42L399.5,5.7L406.66,7.22L416.79,14.63L417.14,15L422.42,21.14L424.5,23.91L430.25,32.45L436.31,42.5L461.8,86.34L462.02,86.66L468.32,95.13L470.02,97.12L476.69,103.46L480.55,105.99L487.72,108.29L494.88,107.36L504.76,100.94L505.87,99.86L511.92,92.94L514.67,89.24L525.89,71.45L533.05,58.75L534,57.03" style="vector-effect: non-scaling-stroke; fill: none; stroke: rgb(0, 0, 0); stroke-opacity: 1; stroke-width: 2px; opacity: 1; stroke-dasharray: 9px, 9px;"/></g><g class="points"/><g class="text"/></g><g class="trace scatter tracef9107e" style="stroke-miterlimit: 2; opacity: 1;"><g class="fills"/><g class="errorbars"/><g class="lines"><path class="js-line" d="M0,73.15L12.77,60.7L13.45,60.29L19.94,57.03L20.21,57.03L24.18,56.32L24.39,56.09L30.21,48.7L32.9,45.15L58.01,13.24L58.12,13.3L61.28,16.95L62.08,17.85L68.85,26.25L73.41,32.21L92.94,57L93.7,57.03L98.64,57.65L99.23,58.02L108.06,64.13L109.7,65.76L131.15,86.63L138.31,92.95L147.48,100.16L149.38,100.15L152.59,98L154.8,96.18L170.95,81.62L178.11,74.52L192.06,60.79L192.55,60.5L199.36,57.03L199.64,57.03L203.55,56.39L203.72,56.21L209.16,49.34L210.79,47.19L237.18,13.45L237.33,13.53L239.08,15.53L239.6,16.14L247.29,25.49L250.69,29.91L272.09,57.02L272.95,57.03L277.63,57.63L278.17,57.97L288.01,65.03L289.53,66.58L307.98,84.66L315.14,91.03L327.25,100.58L327.49,100.53L330.55,98.6L333.01,96.59L347.99,83.19L355.15,76.19L370.98,60.65L371.35,60.43L378.35,57.03L378.71,57.03L382.31,56.32L382.5,56.11L388.22,48.85L392.34,43.42L413.82,15.4L415.84,13.73L417.59,14.52L417.82,14.8L450.02,56.28L452.62,57.03L456.88,57.76L457.17,57.95L466.43,64.43L468.32,66.32L487.72,85.28L494.88,91.65L506.39,100.61L506.6,100.55L508.09,99.76L509.38,98.83L519.2,90.45L525.89,84.34L534,76.47" style="vector-effect: non-scaling-stroke; fill: none; stroke: rgb(239, 85, 59); stroke-opacity: 1; stroke-width: 2px; opacity: 1;"/></g><g class="points"/><g class="text"/></g></g></g><g class="overplot"/><path class="xlines-above crisp" d="M0,0" style="fill: none;"/><path class="ylines-above crisp" d="M0,0" style="fill: none;"/><g class="overlines-above"/><g class="xaxislayer-above"><g class="xtick"><text text-anchor="middle" x="0" y="227.0625" transform="translate(172.42000000000002,0)" style="font-family: Arial; font-size: 12px; fill: rgb(0, 0, 0); fill-opacity: 1; white-space: pre; opacity: 1;">1.05ms</text></g><g class="xtick"><text text-anchor="middle" x="0" y="227.0625" style="font-family: Arial; font-size: 12px; fill: rgb(0, 0, 0); fill-opacity: 1; white-space: pre; opacity: 1;" transform="translate(261.93,0)">1.10ms</text></g><g class="xtick"><text text-anchor="middle" x="0" y="227.0625" style="font-family: Arial; font-size: 12px; fill: rgb(0, 0, 0); fill-opacity: 1; white-space: pre; opacity: 1;" transform="translate(351.45,0)">1.15ms</text></g><g class="xtick"><text text-anchor="middle" x="0" y="227.0625" style="font-family: Arial; font-size: 12px; fill: rgb(0, 0, 0); fill-opacity: 1; white-space: pre; opacity: 1;" transform="translate(440.97,0)">1.20ms</text></g><g class="xtick"><text text-anchor="middle" x="0" y="227.0625" style="font-family: Arial; font-size: 12px; fill: rgb(0, 0, 0); fill-opacity: 1; white-space: pre; opacity: 1;" transform="translate(530.48,0)">1.25ms</text></g><g class="xtick"><text text-anchor="middle" x="0" y="227.0625" style="font-family: Arial; font-size: 12px; fill: rgb(0, 0, 0); fill-opacity: 1; white-space: pre; opacity: 1;" transform="translate(620,0)">1.30ms</text></g></g><g class="yaxislayer-above"><g class="ytick"><text text-anchor="end" x="85" y="4.199999999999999" transform="translate(0,208.36)" style="font-family: Arial; font-size: 12px; fill: rgb(0, 0, 0); fill-opacity: 1; white-space: pre; opacity: 1;">−10.0V</text></g><g class="ytick"><text text-anchor="end" x="85" y="4.199999999999999" style="font-family: Arial; font-size: 12px; fill: rgb(0, 0, 0); fill-opacity: 1; white-space: pre; opacity: 1;" transform="translate(0,182.69)">−5.00V</text></g><g class="ytick"><text text-anchor="end" x="85" y="4.199999999999999" style="font-family: Arial; font-size: 12px; fill: rgb(0, 0, 0); fill-opacity: 1; white-space: pre; opacity: 1;" transform="translate(0,157.03)">0.00V</text></g><g class="ytick"><text text-anchor="end" x="85" y="4.199999999999999" style="font-family: Arial; font-size: 12px; fill: rgb(0, 0, 0); fill-opacity: 1; white-space: pre; opacity: 1;" transform="translate(0,131.37)">5.00V</text></g><g class="ytick"><text text-anchor="end" x="85" y="4.199999999999999" style="font-family: Arial; font-size: 12px; fill: rgb(0, 0, 0); fill-opacity: 1; white-space: pre; opacity: 1;" transform="translate(0,105.7)">10.0V</text></g></g><g class="overaxes-above"/></g><g class="subplot x2y2"><g class="layer-subplot"><g class="shapelayer"/><g class="imagelayer"/></g><g class="minor-gridlayer"><g class="x2"/><g class="y2"/></g><g class="gridlayer"><g class="x2"><path class="x2grid crisp" transform="translate(172.42000000000002,0)" d="M0,305.3125v114.0625" style="stroke: rgb(255, 255, 255); stroke-opacity: 1; stroke-width: 1px;"/><path class="x2grid crisp" transform="translate(261.93,0)" d="M0,305.3125v114.0625" style="stroke: rgb(255, 255, 255); stroke-opacity: 1; stroke-width: 1px;"/><path class="x2grid crisp" transform="translate(351.45,0)" d="M0,305.3125v114.0625" style="stroke: rgb(255, 255, 255); stroke-opacity: 1; stroke-width: 1px;"/><path class="x2grid crisp" transform="translate(440.97,0)" d="M0,305.3125v114.0625" style="stroke: rgb(255, 255, 255); stroke-opacity: 1; stroke-width: 1px;"/><path class="x2grid crisp" transform="translate(530.48,0)" d="M0,305.3125v114.0625" style="stroke: rgb(255, 255, 255); stroke-opacity: 1; stroke-width: 1px;"/></g><g class="y2"><path class="y2grid crisp" transform="translate(0,408.6225)" d="M86,0h534" style="stroke: rgb(255, 255, 255); stroke-opacity: 1; stroke-width: 1px;"/><path class="y2grid crisp" transform="translate(0,334.2225)" d="M86,0h534" style="stroke: rgb(255, 255, 255); stroke-opacity: 1; stroke-width: 1px;"/></g></g><g class="zerolinelayer"><path class="y2zl zl crisp" transform="translate(0,371.4225)" d="M86,0h534" style="stroke: rgb(255, 255, 255); stroke-opacity: 1; stroke-width: 2px;"/></g><path class="xlines-below"/><path class="ylines-below"/><g class="overlines-below"/><g class="xaxislayer-below"/><g class="yaxislayer-below"/><g class="overaxes-below"/><g class="plot" transform="translate(86,305.3125)" clip-path="url(#clip0c05d1x2y2plot)"><g class="scatterlayer mlayer"><g class="trace scatter tracee1f9e9" style="stroke-miterlimit: 2; opacity: 1;"><g class="fills"/><g class="errorbars"/><g class="lines"><path class="js-line" d="M0,34.67L13.45,20.55L14.65,19.04L20.57,11.19L21.05,10.35L24.18,6.31L24.39,6.33L26.72,7.21L27.49,7.66L30.21,9.72L32.9,12.42L36.72,17.36L43.88,30.11L54.51,57.29L56.6,63.74L58.47,67.21L58.7,67.16L62.08,66.81L63.31,66.9L68.85,67.71L73.41,69.3L78.37,71.9L85.54,76.62L92.94,83.04L93.7,84.91L99.23,97L100.16,98.32L106.94,106.4L108.06,107.05L111.41,108.14L113.56,108.31L115.67,108.28L119.78,107.22L123.99,104.85L131.15,97.6L138.31,86.13L145.47,70.55L149.38,63.33L149.86,62.88L158.77,56.47L163.79,51.55L185.27,27.73L188.9,24.56L193.77,18.57L194.7,17.46L199.97,10.54L200.45,9.71L203.72,5.72L203.92,5.75L206.59,6.94L207.44,7.52L210.79,10.42L214.06,14.23L218.2,20.43L225.36,34.75L237.68,67.16L237.89,67.13L241.1,66.81L242.3,66.9L247.29,67.57L250.69,68.57L256.33,71.27L262.25,75.01L269.41,80.15L272.09,83.31L278.17,96.88L279.06,98.11L285.59,106.12L286.48,106.71L289.53,107.92L291.66,108.3L294.43,108.26L298.22,107.39L302.04,105.53L307.98,100.23L315.14,90.11L322.31,75.74L328.09,63.66L328.51,63.35L336.03,58.4L340.83,54.06L367.22,25.69L369.41,23.43L375.17,16.16L376.01,15.26L378.71,11.06L379.25,10.11L382.31,6.21L382.5,6.24L384.92,7.17L386.16,7.94L388.22,9.55L392.34,13.93L399.5,25.13L406.66,40.87L416.79,67.36L417.14,67.53L424.5,67.23L427.23,67.79L430.25,68.78L436.31,71.81L450.02,81.57L452.62,87.06L457.17,96.83L457.67,97.53L464.19,105.76L464.96,106.36L468.32,107.86L470.02,108.21L472.72,108.36L476.69,107.6L480.55,105.86L487.72,99.45L494.88,88.88L502.04,74.14L506.95,63.72L507.33,63.42L519.2,54.6L525.89,47.42L534,37.94" style="vector-effect: non-scaling-stroke; fill: none; stroke: rgb(0, 204, 150); stroke-opacity: 1; stroke-width: 2px; opacity: 1;"/></g><g class="points"/><g class="text"/></g></g></g><g class="overplot"/><path class="xlines-above crisp" d="M0,0" style="fill: none;"/><path class="ylines-above crisp" d="M0,0" style="fill: none;"/><g class="overlines-above"/><g class="xaxislayer-above"><g class="x2tick"><text text-anchor="middle" x="0" y="432.375" transform="translate(172.42000000000002,0)" style="font-family: Arial; font-size: 12px; fill: rgb(0, 0, 0); fill-opacity: 1; white-space: pre; opacity: 1;">1.05ms</text></g><g class="x2tick"><text text-anchor="middle" x="0" y="432.375" style="font-family: Arial; font-size: 12px; fill: rgb(0, 0, 0); fill-opacity: 1; white-space: pre; opacity: 1;" transform="translate(261.93,0)">1.10ms</text></g><g class="x2tick"><text text-anchor="middle" x="0" y="432.375" style="font-family: Arial; font-size: 12px; fill: rgb(0, 0, 0); fill-opacity: 1; white-space: pre; opacity: 1;" transform="translate(351.45,0)">1.15ms</text></g><g class="x2tick"><text text-anchor="middle" x="0" y="432.375" style="font-family: Arial; font-size: 12px; fill: rgb(0, 0, 0); fill-opacity: 1; white-space: pre; opacity: 1;" transform="translate(440.97,0)">1.20ms</text></g><g class="x2tick"><text text-anchor="middle" x="0" y="432.375" style="font-family: Arial; font-size: 12px; fill: rgb(0, 0, 0); fill-opacity: 1; white-space: pre; opacity: 1;" transform="translate(530.48,0)">1.25ms</text></g><g class="x2tick"><text text-anchor="middle" x="0" y="432.375" style="font-family: Arial; font-size: 12px; fill: rgb(0, 0, 0); fill-opacity: 1; white-space: pre; opacity: 1;" transform="translate(620,0)">1.30ms</text></g></g><g class="yaxislayer-above"><g class="y2tick"><text text-anchor="end" x="85" y="4.199999999999999" transform="translate(0,408.6225)" style="font-family: Arial; font-size: 12px; fill: rgb(0, 0, 0); fill-opacity: 1; white-space: pre; opacity: 1;">−5.00V</text></g><g class="y2tick"><text text-anchor="end" x="85" y="4.199999999999999" style="font-family: Arial; font-size: 12px; fill: rgb(0, 0, 0); fill-opacity: 1; white-space: pre; opacity: 1;" transform="translate(0,371.4225)">0.00V</text></g><g class="y2tick"><text text-anchor="end" x="85" y="4.199999999999999" style="font-family: Arial; font-size: 12px; fill: rgb(0, 0, 0); fill-opacity: 1; white-space: pre; opacity: 1;" transform="translate(0,334.2225)">5.00V</text></g></g><g class="overaxes-above"/></g><g class="subplot x3y3"><g class="layer-subplot"><g class="shapelayer"/><g class="imagelayer"/></g><g class="minor-gridlayer"><g class="x3"/><g class="y3"/></g><g class="gridlayer"><g class="x3"><path class="x3grid crisp" transform="translate(172.42000000000002,0)" d="M0,510.625v114.0625" style="stroke: rgb(255, 255, 255); stroke-opacity: 1; stroke-width: 1px;"/><path class="x3grid crisp" transform="translate(261.93,0)" d="M0,510.625v114.0625" style="stroke: rgb(255, 255, 255); stroke-opacity: 1; stroke-width: 1px;"/><path class="x3grid crisp" transform="translate(351.45,0)" d="M0,510.625v114.0625" style="stroke: rgb(255, 255, 255); stroke-opacity: 1; stroke-width: 1px;"/><path class="x3grid crisp" transform="translate(440.97,0)" d="M0,510.625v114.0625" style="stroke: rgb(255, 255, 255); stroke-opacity: 1; stroke-width: 1px;"/><path class="x3grid crisp" transform="translate(530.48,0)" d="M0,510.625v114.0625" style="stroke: rgb(255, 255, 255); stroke-opacity: 1; stroke-width: 1px;"/></g><g class="y3"><path class="y3grid crisp" transform="translate(0,608.015)" d="M86,0h534" style="stroke: rgb(255, 255, 255); stroke-opacity: 1; stroke-width: 1px;"/><path class="y3grid crisp" transform="translate(0,527.615)" d="M86,0h534" style="stroke: rgb(255, 255, 255); stroke-opacity: 1; stroke-width: 1px;"/></g></g><g class="zerolinelayer"><path class="y3zl zl crisp" transform="translate(0,567.815)" d="M86,0h534" style="stroke: rgb(255, 255, 255); stroke-opacity: 1; stroke-width: 2px;"/></g><path class="xlines-below"/><path class="ylines-below"/><g class="overlines-below"/><g class="xaxislayer-below"/><g class="yaxislayer-below"/><g class="overaxes-below"/><g class="plot" transform="translate(86,510.625)" clip-path="url(#clip0c05d1x3y3plot)"><g class="scatterlayer mlayer"><g class="trace scatter traced11e99" style="stroke-miterlimit: 2; opacity: 1;"><g class="fills"/><g class="errorbars"/><g class="lines"><path class="js-line" d="M0,76.12L12.29,61.83L12.77,61.5L19.94,57.19L20.21,57.19L24.04,56.52L24.18,56.36L30.21,47.4L32.9,43.24L57.9,5.72L58.01,5.77L59.98,8.37L60.54,9.15L68.85,21.04L73.41,28.04L92.94,57.16L93.7,57.19L98.64,57.92L99.23,58.35L108.06,65.53L109.7,67.44L131.15,91.95L138.31,99.36L147.48,107.83L149.38,107.82L151.49,106.3L152.59,105.29L163.79,93.9L170.95,86.05L192.06,61.6L192.55,61.26L199.36,57.19L199.64,57.19L203.55,56.44L203.72,56.22L207.44,50.79L209.16,48.16L237.18,6.02L237.33,6.11L239.08,8.45L239.6,9.17L247.29,20.15L250.69,25.34L272.09,57.18L272.95,57.19L277.63,57.89L278.17,58.29L286.48,64.85L288.01,66.58L307.98,89.63L315.14,97.11L327.25,108.33L327.49,108.26L329.31,107.07L330.55,106L340.83,95.64L347.99,87.9L371.35,61.18L371.77,60.88L378.07,57.19L378.35,57.19L382.03,56.69L382.31,56.36L388.22,47.59L392.34,41.2L413.82,8.31L415.84,6.35L417.39,6.99L417.59,7.27L430.25,26.17L436.31,35.51L450.02,56.31L452.62,57.19L456.69,57.91L456.88,58.05L466.43,65.87L468.32,68.1L487.72,90.36L494.88,97.84L506.39,108.36L506.6,108.29L509.38,106.26L511.92,103.85L525.89,89.26L533.05,81.13L534,80.01" style="vector-effect: non-scaling-stroke; fill: none; stroke: rgb(0, 0, 0); stroke-opacity: 1; stroke-width: 2px; opacity: 1; stroke-dasharray: 3px, 3px;"/></g><g class="points"/><g class="text"/></g><g class="trace scatter trace686ad6" style="stroke-miterlimit: 2; opacity: 1;"><g class="fills"/><g class="errorbars"/><g class="lines"><path class="js-line" d="M0,57.19L24.04,56.52L24.18,56.36L30.21,47.48L32.9,43.36L57.59,6.69L57.82,6.63L58.7,7.43L59,7.84L78.37,35.92L85.54,46.88L92.94,57.15L93.7,57.19L203.55,56.44L203.72,56.23L209.16,48.23L210.79,45.73L237,6.9L237.09,6.91L238.42,8.37L238.75,8.84L256.33,34.28L262.25,43.33L272.09,57.18L272.95,57.19L382.03,56.69L382.31,56.36L388.22,47.66L392.34,41.34L413.82,9.16L415.84,7.26L417.39,7.88L417.59,8.15L430.25,26.55L436.31,35.72L450.02,56.31L452.62,57.19L534,57.19" style="vector-effect: non-scaling-stroke; fill: none; stroke: rgb(255, 161, 90); stroke-opacity: 1; stroke-width: 2px; opacity: 1;"/></g><g class="points"/><g class="text"/></g><g class="trace scatter tracec248da" style="stroke-miterlimit: 2; opacity: 1;"><g class="fills"/><g class="errorbars"/><g class="lines"><path class="js-line" d="M0,38.41L12.29,52.57L12.77,52.9L19.94,57.19L20.21,57.19L98.64,56.46L99.23,56.03L108.06,48.9L109.7,47L123.99,30.49L131.15,22.86L147.48,7.39L149.38,7.41L152.59,9.85L154.8,11.93L170.95,28.63L178.11,36.83L192.06,52.8L192.55,53.14L199.36,57.19L199.64,57.19L277.63,56.49L278.17,56.08L286.48,49.57L288.01,47.85L307.98,25.13L315.14,17.81L327.25,6.91L327.49,6.98L329.31,8.13L330.55,9.17L340.83,19.24L347.99,26.82L371.35,53.21L371.77,53.51L378.07,57.19L378.35,57.19L456.69,56.47L456.88,56.33L466.43,48.56L468.32,46.35L480.55,32.15L487.72,24.42L505.87,6.91L506.39,6.88L508.09,7.85L509.38,8.91L519.2,18.47L525.89,25.49L534,34.58" style="vector-effect: non-scaling-stroke; fill: none; stroke: rgb(25, 211, 243); stroke-opacity: 1; stroke-width: 2px; opacity: 1;"/></g><g class="points"/><g class="text"/></g></g></g><g class="overplot"/><path class="xlines-above crisp" d="M0,0" style="fill: none;"/><path class="ylines-above crisp" d="M0,0" style="fill: none;"/><g class="overlines-above"/><g class="xaxislayer-above"><g class="x3tick"><text text-anchor="middle" x="0" y="637.6875" transform="translate(172.42000000000002,0)" style="font-family: Arial; font-size: 12px; fill: rgb(0, 0, 0); fill-opacity: 1; white-space: pre; opacity: 1;">1.05ms</text></g><g class="x3tick"><text text-anchor="middle" x="0" y="637.6875" style="font-family: Arial; font-size: 12px; fill: rgb(0, 0, 0); fill-opacity: 1; white-space: pre; opacity: 1;" transform="translate(261.93,0)">1.10ms</text></g><g class="x3tick"><text text-anchor="middle" x="0" y="637.6875" style="font-family: Arial; font-size: 12px; fill: rgb(0, 0, 0); fill-opacity: 1; white-space: pre; opacity: 1;" transform="translate(351.45,0)">1.15ms</text></g><g class="x3tick"><text text-anchor="middle" x="0" y="637.6875" style="font-family: Arial; font-size: 12px; fill: rgb(0, 0, 0); fill-opacity: 1; white-space: pre; opacity: 1;" transform="translate(440.97,0)">1.20ms</text></g><g class="x3tick"><text text-anchor="middle" x="0" y="637.6875" style="font-family: Arial; font-size: 12px; fill: rgb(0, 0, 0); fill-opacity: 1; white-space: pre; opacity: 1;" transform="translate(530.48,0)">1.25ms</text></g><g class="x3tick"><text text-anchor="middle" x="0" y="637.6875" style="font-family: Arial; font-size: 12px; fill: rgb(0, 0, 0); fill-opacity: 1; white-space: pre; opacity: 1;" transform="translate(620,0)">1.30ms</text></g></g><g class="yaxislayer-above"><g class="y3tick"><text text-anchor="end" x="85" y="4.199999999999999" transform="translate(0,608.015)" style="font-family: Arial; font-size: 12px; fill: rgb(0, 0, 0); fill-opacity: 1; white-space: pre; opacity: 1;">−1.00A</text></g><g class="y3tick"><text text-anchor="end" x="85" y="4.199999999999999" style="font-family: Arial; font-size: 12px; fill: rgb(0, 0, 0); fill-opacity: 1; white-space: pre; opacity: 1;" transform="translate(0,567.815)">0.00A</text></g><g class="y3tick"><text text-anchor="end" x="85" y="4.199999999999999" style="font-family: Arial; font-size: 12px; fill: rgb(0, 0, 0); fill-opacity: 1; white-space: pre; opacity: 1;" transform="translate(0,527.615)">1.00A</text></g></g><g class="overaxes-above"/></g><g class="subplot x4y4"><g class="layer-subplot"><g class="shapelayer"/><g class="imagelayer"/></g><g class="minor-gridlayer"><g class="x4"/><g class="y4"/></g><g class="gridlayer"><g class="x4"><path class="x4grid crisp" transform="translate(172.42000000000002,0)" d="M0,715.9375v114.0625" style="stroke: rgb(255, 255, 255); stroke-opacity: 1; stroke-width: 1px;"/><path class="x4grid crisp" transform="translate(261.93,0)" d="M0,715.9375v114.0625" style="stroke: rgb(255, 255, 255); stroke-opacity: 1; stroke-width: 1px;"/><path class="x4grid crisp" transform="translate(351.45,0)" d="M0,715.9375v114.0625" style="stroke: rgb(255, 255, 255); stroke-opacity: 1; stroke-width: 1px;"/><path class="x4grid crisp" transform="translate(440.97,0)" d="M0,715.9375v114.0625" style="stroke: rgb(255, 255, 255); stroke-opacity: 1; stroke-width: 1px;"/><path class="x4grid crisp" transform="translate(530.48,0)" d="M0,715.9375v114.0625" style="stroke: rgb(255, 255, 255); stroke-opacity: 1; stroke-width: 1px;"/></g><g class="y4"><path class="y4grid crisp" transform="translate(0,820.7275)" d="M86,0h534" style="stroke: rgb(255, 255, 255); stroke-opacity: 1; stroke-width: 1px;"/><path class="y4grid crisp" transform="translate(0,797.7574999999999)" d="M86,0h534" style="stroke: rgb(255, 255, 255); stroke-opacity: 1; stroke-width: 1px;"/><path class="y4grid crisp" transform="translate(0,751.8275)" d="M86,0h534" style="stroke: rgb(255, 255, 255); stroke-opacity: 1; stroke-width: 1px;"/><path class="y4grid crisp" transform="translate(0,728.8675)" d="M86,0h534" style="stroke: rgb(255, 255, 255); stroke-opacity: 1; stroke-width: 1px;"/></g></g><g class="zerolinelayer"><path class="y4zl zl crisp" transform="translate(0,774.7975)" d="M86,0h534" style="stroke: rgb(255, 255, 255); stroke-opacity: 1; stroke-width: 2px;"/></g><path class="xlines-below"/><path class="ylines-below"/><g class="overlines-below"/><g class="xaxislayer-below"/><g class="yaxislayer-below"/><g class="overaxes-below"/><g class="plot" transform="translate(86,715.9375)" clip-path="url(#clip0c05d1x4y4plot)"><g class="scatterlayer mlayer"><g class="trace scatter trace4bb671" style="stroke-miterlimit: 2; opacity: 1;"><g class="fills"/><g class="errorbars"/><g class="lines"><path class="js-line" d="M0,67.72L10.25,60.66L11.39,60.29L21.86,58.7L22.95,58.68L25.52,57.85L25.92,57.64L30.21,54.69L32.9,52.22L36.72,47.85L43.88,36.87L54.51,13.56L56.6,7.93L57.82,5.7L58.12,6.02L58.27,6.3L68.85,30.51L73.41,39.09L78.37,46.68L85.54,54.57L93.7,59.06L93.96,59.01L101.79,59.78L104.45,60.38L108.06,61.71L109.7,62.6L115.67,66.82L119.78,70.52L123.99,74.86L131.15,83.52L138.31,93.62L145.47,105.05L147.48,107.47L149.38,107.36L151.49,104.65L152.59,102.92L163.79,85.8L170.95,76.59L178.11,68.94L185.27,63.13L192.06,60L192.55,59.9L199.97,58.71L200.45,58.71L204.71,57.97L205.19,57.73L209.16,55.09L210.79,53.7L214.06,50.38L218.2,45.09L225.36,33.04L232.52,17.18L237.09,6.25L237.33,6.51L237.48,6.78L250.69,35.97L256.33,45.19L262.25,52.41L269.41,57.93L274.12,59.01L274.63,59L280.08,59.62L281.73,59.97L288.01,62.19L289.53,63.08L294.43,66.63L298.22,69.97L307.98,80.72L315.14,90.36L327.25,108.28L327.49,108.14L329.31,106L330.55,104.13L340.83,88.13L347.99,78.58L355.15,70.55L362.31,64.29L370.03,60.18L370.4,60.08L381.09,58.68L381.64,58.64L384.18,57.57L384.92,57.14L388.22,54.79L392.34,50.83L399.5,41.13L406.66,27.71L415.84,6.88L416.79,7.02L418.27,10.53L418.96,12.36L424.5,25.38L427.23,31.15L430.25,36.94L436.31,46.5L442.86,53.93L450.02,58.66L464.19,60.88L464.96,61.18L470.02,64.03L472.72,66.01L480.55,73.24L487.72,81.58L494.88,91.39L502.04,102.55L505.87,108.35L506.39,108.33L508.09,106.52L509.38,104.59L519.2,89.22L525.89,80.11L534,70.83" style="vector-effect: non-scaling-stroke; fill: none; stroke: rgb(255, 102, 146); stroke-opacity: 1; stroke-width: 2px; opacity: 1;"/></g><g class="points"/><g class="text"/></g></g></g><g class="overplot"/><path class="xlines-above crisp" d="M0,0" style="fill: none;"/><path class="ylines-above crisp" d="M0,0" style="fill: none;"/><g class="overlines-above"/><g class="xaxislayer-above"><g class="x4tick"><text text-anchor="middle" x="0" y="843" transform="translate(172.42000000000002,0)" style="font-family: Arial; font-size: 12px; fill: rgb(0, 0, 0); fill-opacity: 1; white-space: pre; opacity: 1;">1.05ms</text></g><g class="x4tick"><text text-anchor="middle" x="0" y="843" style="font-family: Arial; font-size: 12px; fill: rgb(0, 0, 0); fill-opacity: 1; white-space: pre; opacity: 1;" transform="translate(261.93,0)">1.10ms</text></g><g class="x4tick"><text text-anchor="middle" x="0" y="843" style="font-family: Arial; font-size: 12px; fill: rgb(0, 0, 0); fill-opacity: 1; white-space: pre; opacity: 1;" transform="translate(351.45,0)">1.15ms</text></g><g class="x4tick"><text text-anchor="middle" x="0" y="843" style="font-family: Arial; font-size: 12px; fill: rgb(0, 0, 0); fill-opacity: 1; white-space: pre; opacity: 1;" transform="translate(440.97,0)">1.20ms</text></g><g class="x4tick"><text text-anchor="middle" x="0" y="843" style="font-family: Arial; font-size: 12px; fill: rgb(0, 0, 0); fill-opacity: 1; white-space: pre; opacity: 1;" transform="translate(530.48,0)">1.25ms</text></g><g class="x4tick"><text text-anchor="middle" x="0" y="843" style="font-family: Arial; font-size: 12px; fill: rgb(0, 0, 0); fill-opacity: 1; white-space: pre; opacity: 1;" transform="translate(620,0)">1.30ms</text></g></g><g class="yaxislayer-above"><g class="y4tick"><text text-anchor="end" x="85" y="4.199999999999999" transform="translate(0,820.7275)" style="font-family: Arial; font-size: 12px; fill: rgb(0, 0, 0); fill-opacity: 1; white-space: pre; opacity: 1;">−20.0mA</text></g><g class="y4tick"><text text-anchor="end" x="85" y="4.199999999999999" style="font-family: Arial; font-size: 12px; fill: rgb(0, 0, 0); fill-opacity: 1; white-space: pre; opacity: 1;" transform="translate(0,797.7574999999999)">−10.0mA</text></g><g class="y4tick"><text text-anchor="end" x="85" y="4.199999999999999" style="font-family: Arial; font-size: 12px; fill: rgb(0, 0, 0); fill-opacity: 1; white-space: pre; opacity: 1;" transform="translate(0,774.7975)">0.00A</text></g><g class="y4tick"><text text-anchor="end" x="85" y="4.199999999999999" style="font-family: Arial; font-size: 12px; fill: rgb(0, 0, 0); fill-opacity: 1; white-space: pre; opacity: 1;" transform="translate(0,751.8275)">10.0mA</text></g><g class="y4tick"><text text-anchor="end" x="85" y="4.199999999999999" style="font-family: Arial; font-size: 12px; fill: rgb(0, 0, 0); fill-opacity: 1; white-space: pre; opacity: 1;" transform="translate(0,728.8675)">20.0mA</text></g></g><g class="overaxes-above"/></g></g><g class="polarlayer"/><g class="smithlayer"/><g class="ternarylayer"/><g class="geolayer"/><g class="funnelarealayer"/><g class="pielayer"/><g class="iciclelayer"/><g class="treemaplayer"/><g class="sunburstlayer"/><g class="glimages"/><defs id="topdefs-0c05d1"><g class="clips"/><clipPath id="legend0c05d1"><rect width="452" height="48" x="0" y="0"/></clipPath></defs><g class="layer-above"><g class="imagelayer"/><g class="shapelayer"/></g><g class="infolayer"><g class="legend" pointer-events="all" transform="translate(91.34,939.4999999999999)"><rect class="bg" shape-rendering="crispEdges" width="452" height="48" x="0" y="0" style="stroke: rgb(68, 68, 68); stroke-opacity: 1; fill: rgb(255, 255, 255); fill-opacity: 1; stroke-width: 0px;"/><g class="scrollbox" transform="" clip-path="url(#legend0c05d1)"><g class="groups"><g class="traces" transform="translate(0,14.5)" style="opacity: 1;"><text class="legendtext" text-anchor="start" x="40" y="4.680000000000001" style="font-family: Arial; font-size: 12px; fill: rgb(0, 0, 0); fill-opacity: 1; white-space: pre;">v(Uin)</text><g class="layers" style="opacity: 1;"><g class="legendfill"/><g class="legendlines"><path class="js-line" d="M5,0h30" style="fill: none; stroke: rgb(0, 0, 0); stroke-opacity: 1; stroke-dasharray: 9px, 9px; stroke-width: 2px;"/></g><g class="legendsymbols"><g class="legendpoints"/></g></g><rect class="legendtoggle" x="0" y="-9.5" width="75.515625" height="19" style="fill: rgb(0, 0, 0); fill-opacity: 0;"/></g><g class="traces" transform="translate(121.34375,14.5)" style="opacity: 1;"><text class="legendtext" text-anchor="start" x="40" y="4.680000000000001" style="font-family: Arial; font-size: 12px; fill: rgb(0, 0, 0); fill-opacity: 1; white-space: pre;">v(Uout)</text><g class="layers" style="opacity: 1;"><g class="legendfill"/><g class="legendlines"><path class="js-line" d="M5,0h30" style="fill: none; stroke: rgb(239, 85, 59); stroke-opacity: 1; stroke-width: 2px;"/></g><g class="legendsymbols"><g class="legendpoints"/></g></g><rect class="legendtoggle" x="0" y="-9.5" width="82.84375" height="19" style="fill: rgb(0, 0, 0); fill-opacity: 0;"/></g><g class="traces" transform="translate(242.6875,14.5)" style="opacity: 1;"><text class="legendtext" text-anchor="start" x="40" y="4.680000000000001" style="font-family: Arial; font-size: 12px; fill: rgb(0, 0, 0); fill-opacity: 1; white-space: pre;">v(Uin)-v(Uout)</text><g class="layers" style="opacity: 1;"><g class="legendfill"/><g class="legendlines"><path class="js-line" d="M5,0h30" style="fill: none; stroke: rgb(0, 204, 150); stroke-opacity: 1; stroke-width: 2px;"/></g><g class="legendsymbols"><g class="legendpoints"/></g></g><rect class="legendtoggle" x="0" y="-9.5" width="118.84375" height="19" style="fill: rgb(0, 0, 0); fill-opacity: 0;"/></g><g class="traces" transform="translate(364.03125,14.5)" style="opacity: 1;"><text class="legendtext" text-anchor="start" x="40" y="4.680000000000001" style="font-family: Arial; font-size: 12px; fill: rgb(0, 0, 0); fill-opacity: 1; white-space: pre;">I(RLast)</text><g class="layers" style="opacity: 1;"><g class="legendfill"/><g class="legendlines"><path class="js-line" d="M5,0h30" style="fill: none; stroke: rgb(0, 0, 0); stroke-opacity: 1; stroke-dasharray: 3px, 3px; stroke-width: 2px;"/></g><g class="legendsymbols"><g class="legendpoints"/></g></g><rect class="legendtoggle" x="0" y="-9.5" width="85.1875" height="19" style="fill: rgb(0, 0, 0); fill-opacity: 0;"/></g><g class="traces" transform="translate(0,33.5)" style="opacity: 1;"><text class="legendtext" text-anchor="start" x="40" y="4.680000000000001" style="font-family: Arial; font-size: 12px; fill: rgb(0, 0, 0); fill-opacity: 1; white-space: pre;">Ic(T1)</text><g class="layers" style="opacity: 1;"><g class="legendfill"/><g class="legendlines"><path class="js-line" d="M5,0h30" style="fill: none; stroke: rgb(255, 161, 90); stroke-opacity: 1; stroke-width: 2px;"/></g><g class="legendsymbols"><g class="legendpoints"/></g></g><rect class="legendtoggle" x="0" y="-9.5" width="73.84375" height="19" style="fill: rgb(0, 0, 0); fill-opacity: 0;"/></g><g class="traces" transform="translate(121.34375,33.5)" style="opacity: 1;"><text class="legendtext" text-anchor="start" x="40" y="4.680000000000001" style="font-family: Arial; font-size: 12px; fill: rgb(0, 0, 0); fill-opacity: 1; white-space: pre;">Ic(T2)</text><g class="layers" style="opacity: 1;"><g class="legendfill"/><g class="legendlines"><path class="js-line" d="M5,0h30" style="fill: none; stroke: rgb(25, 211, 243); stroke-opacity: 1; stroke-width: 2px;"/></g><g class="legendsymbols"><g class="legendpoints"/></g></g><rect class="legendtoggle" x="0" y="-9.5" width="73.84375" height="19" style="fill: rgb(0, 0, 0); fill-opacity: 0;"/></g><g class="traces" transform="translate(242.6875,33.5)" style="opacity: 1;"><text class="legendtext" text-anchor="start" x="40" y="4.680000000000001" style="font-family: Arial; font-size: 12px; fill: rgb(0, 0, 0); fill-opacity: 1; white-space: pre;">I(Rshunt)</text><g class="layers" style="opacity: 1;"><g class="legendfill"/><g class="legendlines"><path class="js-line" d="M5,0h30" style="fill: none; stroke: rgb(255, 102, 146); stroke-opacity: 1; stroke-width: 2px;"/></g><g class="legendsymbols"><g class="legendpoints"/></g></g><rect class="legendtoggle" x="0" y="-9.5" width="91.859375" height="19" style="fill: rgb(0, 0, 0); fill-opacity: 0;"/></g></g></g><rect class="scrollbar" rx="20" ry="3" width="0" height="0" x="0" y="0" style="fill: rgb(128, 139, 164); fill-opacity: 1;"/></g><g class="g-gtitle"/><g class="g-xtitle"/><g class="g-x2title"/><g class="g-x3title"/><g class="g-x4title"><text class="x4title" x="353" y="870.8" text-anchor="middle" style="font-family: Arial; font-size: 14px; fill: rgb(0, 0, 0); opacity: 1; font-weight: normal; white-space: pre;">Time</text></g><g class="g-ytitle"><text class="ytitle" transform="rotate(-90,21.825000000000003,157.03125)" x="21.825000000000003" y="157.03125" text-anchor="middle" style="font-family: Arial; font-size: 14px; fill: rgb(0, 0, 0); opacity: 1; font-weight: normal; white-space: pre;">Voltage</text></g><g class="g-y2title"><text class="y2title" transform="rotate(-90,21.825000000000003,362.34375)" x="21.825000000000003" y="362.34375" text-anchor="middle" style="font-family: Arial; font-size: 14px; fill: rgb(0, 0, 0); opacity: 1; font-weight: normal; white-space: pre;">Voltage</text></g><g class="g-y3title"><text class="y3title" transform="rotate(-90,21.825000000000003,567.65625)" x="21.825000000000003" y="567.65625" text-anchor="middle" style="font-family: Arial; font-size: 14px; fill: rgb(0, 0, 0); opacity: 1; font-weight: normal; white-space: pre;">Current</text></g><g class="g-y4title" transform="translate(1.1748046875,0)"><text class="y4title" transform="rotate(-90,11.825000000000003,772.96875)" x="11.825000000000003" y="772.96875" text-anchor="middle" style="font-family: Arial; font-size: 14px; fill: rgb(0, 0, 0); opacity: 1; font-weight: normal; white-space: pre;">Current</text></g><g class="annotation" data-index="0" style="opacity: 1;"><g class="annotation-text-g" transform="rotate(0,353,89.5)"><g class="cursor-pointer" transform="translate(248,79)"><rect class="bg" x="0.5" y="0.5" width="209" height="20" style="stroke-width: 1px; stroke: rgb(0, 0, 0); stroke-opacity: 0; fill: rgb(0, 0, 0); fill-opacity: 0;"/><text class="annotation-text" text-anchor="middle" x="104.75" y="16" style="font-family: Arial; font-size: 16px; fill: rgb(0, 0, 0); fill-opacity: 1; white-space: pre;">Ein- und Ausgangsspannung</text></g></g></g><g class="annotation" data-index="1" style="opacity: 1;"><g class="annotation-text-g" transform="rotate(0,353,294.8125)"><g class="cursor-pointer" transform="translate(280,284)"><rect class="bg" x="0.5" y="0.5" width="145" height="20" style="stroke-width: 1px; stroke: rgb(0, 0, 0); stroke-opacity: 0; fill: rgb(0, 0, 0); fill-opacity: 0;"/><text class="annotation-text" text-anchor="middle" x="73.03125" y="16" style="font-family: Arial; font-size: 16px; fill: rgb(0, 0, 0); fill-opacity: 1; white-space: pre;">Spannungsdifferenz</text></g></g></g><g class="annotation" data-index="2" style="opacity: 1;"><g class="annotation-text-g" transform="rotate(0,353,500.125)"><g class="cursor-pointer" transform="translate(325,490)"><rect class="bg" x="0.5" y="0.5" width="55" height="20" style="stroke-width: 1px; stroke: rgb(0, 0, 0); stroke-opacity: 0; fill: rgb(0, 0, 0); fill-opacity: 0;"/><text class="annotation-text" text-anchor="middle" x="27.796875" y="16" style="font-family: Arial; font-size: 16px; fill: rgb(0, 0, 0); fill-opacity: 1; white-space: pre;">Ströme</text></g></g></g></g></svg>