<svg class="main-svg" xmlns="http://www.w3.org/2000/svg" xmlns:xlink="http://www.w3.org/1999/xlink" width="700" height="1000" style="" viewBox="0 0 700 1000"><rect x="0" y="0" width="700" height="1000" style="fill: rgb(255, 255, 255); fill-opacity: 1;"/><defs id="defs-6e65d2"><g class="clips"><clipPath id="clip6e65d2xyplot" class="plotclip"><rect width="606" height="125.3125"/></clipPath><clipPath id="clip6e65d2x2y2plot" class="plotclip"><rect width="606" height="125.3125"/></clipPath><clipPath id="clip6e65d2x3y3plot" class="plotclip"><rect width="606" height="125.3125"/></clipPath><clipPath id="clip6e65d2x4y4plot" class="plotclip"><rect width="606" height="125.3125"/></clipPath><clipPath class="axesclip" id="clip6e65d2x"><rect x="74" y="0" width="606" height="1000"/></clipPath><clipPath class="axesclip" id="clip6e65d2y"><rect x="0" y="30" width="700" height="125.3125"/></clipPath><clipPath class="axesclip" id="clip6e65d2xy"><rect x="74" y="30" width="606" height="125.3125"/></clipPath><clipPath class="axesclip" id="clip6e65d2y2"><rect x="0" y="255.5625" width="700" height="125.3125"/></clipPath><clipPath class="axesclip" id="clip6e65d2xy2"><rect x="74" y="255.5625" width="606" height="125.3125"/></clipPath><clipPath class="axesclip" id="clip6e65d2y3"><rect x="0" y="481.125" width="700" height="125.3125"/></clipPath><clipPath class="axesclip" id="clip6e65d2xy3"><rect x="74" y="481.125" width="606" height="125.3125"/></clipPath><clipPath class="axesclip" id="clip6e65d2y4"><rect x="0" y="706.6875" width="700" height="125.3125"/></clipPath><clipPath class="axesclip" id="clip6e65d2xy4"><rect x="74" y="706.6875" width="606" height="125.3125"/></clipPath><clipPath class="axesclip" id="clip6e65d2x2"><rect x="74" y="0" width="606" height="1000"/></clipPath><clipPath class="axesclip" id="clip6e65d2x2y"><rect x="74" y="30" width="606" height="125.3125"/></clipPath><clipPath class="axesclip" id="clip6e65d2x2y2"><rect x="74" y="255.5625" width="606" height="125.3125"/></clipPath><clipPath class="axesclip" id="clip6e65d2x2y3"><rect x="74" y="481.125" width="606" height="125.3125"/></clipPath><clipPath class="axesclip" id="clip6e65d2x2y4"><rect x="74" y="706.6875" width="606" height="125.3125"/></clipPath><clipPath class="axesclip" id="clip6e65d2x3"><rect x="74" y="0" width="606" height="1000"/></clipPath><clipPath class="axesclip" id="clip6e65d2x3y"><rect x="74" y="30" width="606" height="125.3125"/></clipPath><clipPath class="axesclip" id="clip6e65d2x3y2"><rect x="74" y="255.5625" width="606" height="125.3125"/></clipPath><clipPath class="axesclip" id="clip6e65d2x3y3"><rect x="74" y="481.125" width="606" height="125.3125"/></clipPath><clipPath class="axesclip" id="clip6e65d2x3y4"><rect x="74" y="706.6875" width="606" height="125.3125"/></clipPath><clipPath class="axesclip" id="clip6e65d2x4"><rect x="74" y="0" width="606" height="1000"/></clipPath><clipPath class="axesclip" id="clip6e65d2x4y"><rect x="74" y="30" width="606" height="125.3125"/></clipPath><clipPath class="axesclip" id="clip6e65d2x4y2"><rect x="74" y="255.5625" width="606" height="125.3125"/></clipPath><clipPath class="axesclip" id="clip6e65d2x4y3"><rect x="74" y="481.125" width="606" height="125.3125"/></clipPath><clipPath class="axesclip" id="clip6e65d2x4y4"><rect x="74" y="706.6875" width="606" height="125.3125"/></clipPath></g><g class="gradients"/><g class="patterns"/></defs><g class="bglayer"><rect class="bg" x="74" y="30" width="606" height="125.3125" style="fill: rgb(229, 236, 246); fill-opacity: 1; stroke-width: 0;"/><rect class="bg" x="74" y="255.5625" width="606" height="125.3125" style="fill: rgb(229, 236, 246); fill-opacity: 1; stroke-width: 0;"/><rect class="bg" x="74" y="481.125" width="606" height="125.3125" style="fill: rgb(229, 236, 246); fill-opacity: 1; stroke-width: 0;"/><rect class="bg" x="74" y="706.6875" width="606" height="125.3125" style="fill: rgb(229, 236, 246); fill-opacity: 1; stroke-width: 0;"/></g><g class="layer-below"><g class="imagelayer"/><g class="shapelayer"/></g><g class="cartesianlayer"><g class="subplot xy"><g class="layer-subplot"><g class="shapelayer"/><g class="imagelayer"/></g><g class="minor-gridlayer"><g class="x"/><g class="y"/></g><g class="gridlayer"><g class="x"><path class="xgrid crisp" transform="translate(174.05,0)" d="M0,30v125.3125" style="stroke: rgb(255, 255, 255); stroke-opacity: 1; stroke-width: 1px;"/><path class="xgrid crisp" transform="translate(275.24,0)" d="M0,30v125.3125" style="stroke: rgb(255, 255, 255); stroke-opacity: 1; stroke-width: 1px;"/><path class="xgrid crisp" transform="translate(376.43,0)" d="M0,30v125.3125" style="stroke: rgb(255, 255, 255); stroke-opacity: 1; stroke-width: 1px;"/><path class="xgrid crisp" transform="translate(477.62,0)" d="M0,30v125.3125" style="stroke: rgb(255, 255, 255); stroke-opacity: 1; stroke-width: 1px;"/><path class="xgrid crisp" transform="translate(578.81,0)" d="M0,30v125.3125" style="stroke: rgb(255, 255, 255); stroke-opacity: 1; stroke-width: 1px;"/></g><g class="y"><path class="ygrid crisp" transform="translate(0,149.1)" d="M74,0h606" style="stroke: rgb(255, 255, 255); stroke-opacity: 1; stroke-width: 1px;"/><path class="ygrid crisp" transform="translate(0,120.91)" d="M74,0h606" style="stroke: rgb(255, 255, 255); stroke-opacity: 1; stroke-width: 1px;"/><path class="ygrid crisp" transform="translate(0,64.53)" d="M74,0h606" style="stroke: rgb(255, 255, 255); stroke-opacity: 1; stroke-width: 1px;"/><path class="ygrid crisp" transform="translate(0,36.34)" d="M74,0h606" style="stroke: rgb(255, 255, 255); stroke-opacity: 1; stroke-width: 1px;"/></g></g><g class="zerolinelayer"><path class="yzl zl crisp" transform="translate(0,92.72)" d="M74,0h606" style="stroke: rgb(255, 255, 255); stroke-opacity: 1; stroke-width: 2px;"/></g><g class="layer-between"><g class="shapelayer"/><g class="imagelayer"/></g><path class="xlines-below"/><path class="ylines-below"/><g class="overlines-below"/><g class="xaxislayer-below"/><g class="yaxislayer-below"/><g class="overaxes-below"/><g class="overplot"><g class="xy" transform="translate(74,30)" clip-path="url(#clip6e65d2xyplot)"><g class="scatterlayer mlayer"><g class="trace scatter trace375ad5" style="stroke-miterlimit: 2; opacity: 1;"><g class="fills"/><g class="errorbars"/><g class="lines"><path class="js-line" d="M0,60.72L15.69,34.58L18.52,30.4L24.07,22.96L30.82,15.51L38.91,9.33L47.01,6.5L53.13,6.7L58.86,8.73L65.95,13.57L72.98,20.72L81.07,31.39L89.17,44.03L119.17,94.25L123.34,100.03L129.49,107.37L137.59,114.53L145.68,118.43L152.02,119.05L158.12,117.59L166.21,112.64L173.86,105.08L181.95,94.49L198.14,68.13L201.82,61.7L217.33,35.7L220.43,31.08L226.61,22.76L234.06,14.7L241.49,9.22L249.58,6.48L255.9,6.79L261.99,9.12L270.08,15.15L278.18,24.17L286.27,35.61L294.37,48.76L320.35,92.5L326.24,100.7L334.33,109.87L342.43,116.07L350.52,118.93L358.62,118.25L366.11,114.51L374.21,107.34L382.3,97.36L390.4,85.21L423.77,29.71L429.04,22.69L437.14,14.08L445.23,8.51L453.33,6.36L461.42,7.74L468.94,12.13L477.03,19.9L485.13,30.37L493.22,42.87L524.25,94.72L528.16,100.1L534,107.1L542.09,114.35L550.19,118.36L556.79,119.05L563.18,117.46L571.28,112.39L579.28,104.3L587.38,93.53L603.57,66.97L606,62.72" style="vector-effect: none; fill: none; stroke: rgb(0, 0, 0); stroke-opacity: 1; stroke-dasharray: 9px, 9px; stroke-width: 2px; opacity: 1;"/></g><g class="points"/><g class="text"/></g><g class="trace scatter trace09e27f" style="stroke-miterlimit: 2; opacity: 1;"><g class="fills"/><g class="errorbars"/><g class="lines"><path class="js-line" d="M0,61.76L12.82,39.66L15.69,35.15L24.07,23.4L30.82,15.83L38.91,9.47L47.01,6.44L53.13,6.5L58.86,8.38L65.95,13.07L72.98,20.08L81.07,30.62L89.17,43.15L119.17,93.48L123.34,99.32L129.49,106.78L137.59,114.11L145.68,118.2L152.02,118.97L158.12,117.66L166.21,112.9L173.86,105.49L181.95,95.04L198.14,68.94L201.82,62.72L217.33,36.28L220.43,31.62L226.61,23.2L234.06,15L241.49,9.36L249.58,6.41L255.9,6.57L261.99,8.76L270.08,14.61L278.18,23.48L286.27,34.8L294.37,47.84L320.35,91.71L326.24,100L334.33,109.32L342.43,115.71L350.52,118.76L358.62,118.28L366.11,114.71L374.21,107.71L382.3,97.88L390.4,85.84L423.77,30.23L429.04,23.13L437.14,14.36L445.23,8.62L453.33,6.27L461.42,7.46L468.94,11.67L477.03,19.28L485.13,29.61L493.22,42L524.25,93.96L528.16,99.4L534,106.5L542.09,113.92L550.19,118.12L556.79,118.97L563.18,117.54L571.28,112.65L579.28,104.73L587.38,94.09L606,63.72" style="vector-effect: none; fill: none; stroke: rgb(239, 85, 59); stroke-opacity: 1; stroke-width: 2px; opacity: 1;"/></g><g class="points"/><g class="text"/></g></g></g></g><path class="xlines-above crisp" d="M0,0" style="fill: none;"/><path class="ylines-above crisp" d="M0,0" style="fill: none;"/><g class="overlines-above"/><g class="xaxislayer-above"><g class="xtick"><text text-anchor="middle" x="0" y="168.3125" transform="translate(174.05,0)" style="font-family: Arial; font-size: 12px; fill: rgb(0, 0, 0); fill-opacity: 1; white-space: pre; opacity: 1;">1.05ms</text></g><g class="xtick"><text text-anchor="middle" x="0" y="168.3125" style="font-family: Arial; font-size: 12px; fill: rgb(0, 0, 0); fill-opacity: 1; white-space: pre; opacity: 1;" transform="translate(275.24,0)">1.10ms</text></g><g class="xtick"><text text-anchor="middle" x="0" y="168.3125" style="font-family: Arial; font-size: 12px; fill: rgb(0, 0, 0); fill-opacity: 1; white-space: pre; opacity: 1;" transform="translate(376.43,0)">1.15ms</text></g><g class="xtick"><text text-anchor="middle" x="0" y="168.3125" style="font-family: Arial; font-size: 12px; fill: rgb(0, 0, 0); fill-opacity: 1; white-space: pre; opacity: 1;" transform="translate(477.62,0)">1.20ms</text></g><g class="xtick"><text text-anchor="middle" x="0" y="168.3125" style="font-family: Arial; font-size: 12px; fill: rgb(0, 0, 0); fill-opacity: 1; white-space: pre; opacity: 1;" transform="translate(578.81,0)">1.25ms</text></g><g class="xtick"><text text-anchor="middle" x="0" y="168.3125" style="font-family: Arial; font-size: 12px; fill: rgb(0, 0, 0); fill-opacity: 1; white-space: pre; opacity: 1;" transform="translate(680,0)">1.30ms</text></g></g><g class="yaxislayer-above"><g class="ytick"><text text-anchor="end" x="73" y="4.199999999999999" transform="translate(0,149.1)" style="font-family: Arial; font-size: 12px; fill: rgb(0, 0, 0); fill-opacity: 1; white-space: pre; opacity: 1;">−1.00V</text></g><g class="ytick"><text text-anchor="end" x="73" y="4.199999999999999" style="font-family: Arial; font-size: 12px; fill: rgb(0, 0, 0); fill-opacity: 1; white-space: pre; opacity: 1;" transform="translate(0,120.91)">−500mV</text></g><g class="ytick"><text text-anchor="end" x="73" y="4.199999999999999" style="font-family: Arial; font-size: 12px; fill: rgb(0, 0, 0); fill-opacity: 1; white-space: pre; opacity: 1;" transform="translate(0,92.72)">0.00V</text></g><g class="ytick"><text text-anchor="end" x="73" y="4.199999999999999" style="font-family: Arial; font-size: 12px; fill: rgb(0, 0, 0); fill-opacity: 1; white-space: pre; opacity: 1;" transform="translate(0,64.53)">500mV</text></g><g class="ytick"><text text-anchor="end" x="73" y="4.199999999999999" style="font-family: Arial; font-size: 12px; fill: rgb(0, 0, 0); fill-opacity: 1; white-space: pre; opacity: 1;" transform="translate(0,36.34)">1.00V</text></g></g><g class="overaxes-above"/></g><g class="subplot x2y2"><g class="layer-subplot"><g class="shapelayer"/><g class="imagelayer"/></g><g class="minor-gridlayer"><g class="x2"/><g class="y2"/></g><g class="gridlayer"><g class="x2"><path class="x2grid crisp" transform="translate(174.05,0)" d="M0,255.5625v125.3125" style="stroke: rgb(255, 255, 255); stroke-opacity: 1; stroke-width: 1px;"/><path class="x2grid crisp" transform="translate(275.24,0)" d="M0,255.5625v125.3125" style="stroke: rgb(255, 255, 255); stroke-opacity: 1; stroke-width: 1px;"/><path class="x2grid crisp" transform="translate(376.43,0)" d="M0,255.5625v125.3125" style="stroke: rgb(255, 255, 255); stroke-opacity: 1; stroke-width: 1px;"/><path class="x2grid crisp" transform="translate(477.62,0)" d="M0,255.5625v125.3125" style="stroke: rgb(255, 255, 255); stroke-opacity: 1; stroke-width: 1px;"/><path class="x2grid crisp" transform="translate(578.81,0)" d="M0,255.5625v125.3125" style="stroke: rgb(255, 255, 255); stroke-opacity: 1; stroke-width: 1px;"/></g><g class="y2"><path class="y2grid crisp" transform="translate(0,367.5725)" d="M74,0h606" style="stroke: rgb(255, 255, 255); stroke-opacity: 1; stroke-width: 1px;"/><path class="y2grid crisp" transform="translate(0,340.1025)" d="M74,0h606" style="stroke: rgb(255, 255, 255); stroke-opacity: 1; stroke-width: 1px;"/><path class="y2grid crisp" transform="translate(0,285.1525)" d="M74,0h606" style="stroke: rgb(255, 255, 255); stroke-opacity: 1; stroke-width: 1px;"/><path class="y2grid crisp" transform="translate(0,257.6725)" d="M74,0h606" style="stroke: rgb(255, 255, 255); stroke-opacity: 1; stroke-width: 1px;"/></g></g><g class="zerolinelayer"><path class="y2zl zl crisp" transform="translate(0,312.6225)" d="M74,0h606" style="stroke: rgb(255, 255, 255); stroke-opacity: 1; stroke-width: 2px;"/></g><g class="layer-between"><g class="shapelayer"/><g class="imagelayer"/></g><path class="xlines-below"/><path class="ylines-below"/><g class="overlines-below"/><g class="xaxislayer-below"/><g class="yaxislayer-below"/><g class="overaxes-below"/><g class="overplot"><g class="x2y2" transform="translate(74,255.5625)" clip-path="url(#clip6e65d2x2y2plot)"><g class="scatterlayer mlayer"><g class="trace scatter trace033787" style="stroke-miterlimit: 2; opacity: 1;"><g class="fills"/><g class="errorbars"/><g class="lines"><path class="js-line" d="M0,6.27L3.38,19.4L4.32,18.61L6.93,22.76L7.94,23.22L10.46,25.61L12.82,27.01L30.82,41.82L38.91,50.35L65.95,81.24L72.98,88.05L81.07,94.49L89.17,99.95L97.26,107.42L101.01,118.8L105.14,104.57L106.14,106.24L109,101.93L110,101.65L112.46,99.33L114.33,98.15L129.49,85.91L137.59,77.72L166.21,44.56L173.86,36.98L198.14,17.59L201.82,7.17L206.15,20.35L207.21,19.5L210.72,23.7L211.92,24.65L215.35,27.15L217.33,28.69L226.61,35.72L234.06,42.74L249.58,60.02L255.9,67.43L270.08,83.09L278.18,90.43L294.37,101.88L300.66,109.96L304.05,119.05L305.66,109.57L307.16,105.54L308.05,106.91L310.35,102.66L311.27,102.47L315.46,99L317.41,97.57L326.24,90.99L334.33,83.54L350.52,65.4L358.62,55.77L374.21,38.91L382.3,31.94L398.49,20.09L403.56,9.63L406.01,10.54L408.09,20.05L409.15,19.68L410.47,20.55L412.41,23.6L413.51,23.84L416.1,26.22L418.48,27.7L429.04,35.8L437.14,43.37L453.33,61.61L461.42,71.12L477.03,87.39L485.13,94.02L493.22,99.44L501.32,106.44L505.16,117.14L507.13,114.79L509.6,104.76L510.61,105.89L511.88,104.71L512.97,102.19L515.06,101.36L516.28,99.97L528.16,91.27L534,86.19L550.19,68.65L556.79,60.78L571.28,44.18L579.28,36.43L587.38,29.95L595.47,24.48L603.57,16.49L606,8.02" style="vector-effect: none; fill: none; stroke: rgb(0, 204, 150); stroke-opacity: 1; stroke-width: 2px; opacity: 1;"/></g><g class="points"/><g class="text"/></g></g></g></g><path class="xlines-above crisp" d="M0,0" style="fill: none;"/><path class="ylines-above crisp" d="M0,0" style="fill: none;"/><g class="overlines-above"/><g class="xaxislayer-above"><g class="x2tick"><text text-anchor="middle" x="0" y="393.875" transform="translate(174.05,0)" style="font-family: Arial; font-size: 12px; fill: rgb(0, 0, 0); fill-opacity: 1; white-space: pre; opacity: 1;">1.05ms</text></g><g class="x2tick"><text text-anchor="middle" x="0" y="393.875" style="font-family: Arial; font-size: 12px; fill: rgb(0, 0, 0); fill-opacity: 1; white-space: pre; opacity: 1;" transform="translate(275.24,0)">1.10ms</text></g><g class="x2tick"><text text-anchor="middle" x="0" y="393.875" style="font-family: Arial; font-size: 12px; fill: rgb(0, 0, 0); fill-opacity: 1; white-space: pre; opacity: 1;" transform="translate(376.43,0)">1.15ms</text></g><g class="x2tick"><text text-anchor="middle" x="0" y="393.875" style="font-family: Arial; font-size: 12px; fill: rgb(0, 0, 0); fill-opacity: 1; white-space: pre; opacity: 1;" transform="translate(477.62,0)">1.20ms</text></g><g class="x2tick"><text text-anchor="middle" x="0" y="393.875" style="font-family: Arial; font-size: 12px; fill: rgb(0, 0, 0); fill-opacity: 1; white-space: pre; opacity: 1;" transform="translate(578.81,0)">1.25ms</text></g><g class="x2tick"><text text-anchor="middle" x="0" y="393.875" style="font-family: Arial; font-size: 12px; fill: rgb(0, 0, 0); fill-opacity: 1; white-space: pre; opacity: 1;" transform="translate(680,0)">1.30ms</text></g></g><g class="yaxislayer-above"><g class="y2tick"><text text-anchor="end" x="73" y="4.199999999999999" transform="translate(0,367.5725)" style="font-family: Arial; font-size: 12px; fill: rgb(0, 0, 0); fill-opacity: 1; white-space: pre; opacity: 1;">−20.0mV</text></g><g class="y2tick"><text text-anchor="end" x="73" y="4.199999999999999" style="font-family: Arial; font-size: 12px; fill: rgb(0, 0, 0); fill-opacity: 1; white-space: pre; opacity: 1;" transform="translate(0,340.1025)">−10.0mV</text></g><g class="y2tick"><text text-anchor="end" x="73" y="4.199999999999999" style="font-family: Arial; font-size: 12px; fill: rgb(0, 0, 0); fill-opacity: 1; white-space: pre; opacity: 1;" transform="translate(0,312.6225)">0.00V</text></g><g class="y2tick"><text text-anchor="end" x="73" y="4.199999999999999" style="font-family: Arial; font-size: 12px; fill: rgb(0, 0, 0); fill-opacity: 1; white-space: pre; opacity: 1;" transform="translate(0,285.1525)">10.0mV</text></g><g class="y2tick"><text text-anchor="end" x="73" y="4.199999999999999" style="font-family: Arial; font-size: 12px; fill: rgb(0, 0, 0); fill-opacity: 1; white-space: pre; opacity: 1;" transform="translate(0,257.6725)">20.0mV</text></g></g><g class="overaxes-above"/></g><g class="subplot x3y3"><g class="layer-subplot"><g class="shapelayer"/><g class="imagelayer"/></g><g class="minor-gridlayer"><g class="x3"/><g class="y3"/></g><g class="gridlayer"><g class="x3"><path class="x3grid crisp" transform="translate(174.05,0)" d="M0,481.125v125.3125" style="stroke: rgb(255, 255, 255); stroke-opacity: 1; stroke-width: 1px;"/><path class="x3grid crisp" transform="translate(275.24,0)" d="M0,481.125v125.3125" style="stroke: rgb(255, 255, 255); stroke-opacity: 1; stroke-width: 1px;"/><path class="x3grid crisp" transform="translate(376.43,0)" d="M0,481.125v125.3125" style="stroke: rgb(255, 255, 255); stroke-opacity: 1; stroke-width: 1px;"/><path class="x3grid crisp" transform="translate(477.62,0)" d="M0,481.125v125.3125" style="stroke: rgb(255, 255, 255); stroke-opacity: 1; stroke-width: 1px;"/><path class="x3grid crisp" transform="translate(578.81,0)" d="M0,481.125v125.3125" style="stroke: rgb(255, 255, 255); stroke-opacity: 1; stroke-width: 1px;"/></g><g class="y3"><path class="y3grid crisp" transform="translate(0,581.515)" d="M74,0h606" style="stroke: rgb(255, 255, 255); stroke-opacity: 1; stroke-width: 1px;"/><path class="y3grid crisp" transform="translate(0,506.255)" d="M74,0h606" style="stroke: rgb(255, 255, 255); stroke-opacity: 1; stroke-width: 1px;"/></g></g><g class="zerolinelayer"><path class="y3zl zl crisp" transform="translate(0,543.885)" d="M74,0h606" style="stroke: rgb(255, 255, 255); stroke-opacity: 1; stroke-width: 2px;"/></g><g class="layer-between"><g class="shapelayer"/><g class="imagelayer"/></g><path class="xlines-below"/><path class="ylines-below"/><g class="overlines-below"/><g class="xaxislayer-below"/><g class="yaxislayer-below"/><g class="overaxes-below"/><g class="overplot"><g class="x3y3" transform="translate(74,481.125)" clip-path="url(#clip6e65d2x3y3plot)"><g class="scatterlayer mlayer"><g class="trace scatter tracecb4701" style="stroke-miterlimit: 2; opacity: 1;"><g class="fills"/><g class="errorbars"/><g class="lines"><path class="js-line" d="M0,61.8L10.46,43.52L12.82,39.68L18.52,30.95L24.07,23.41L30.82,15.83L38.91,9.47L47.01,6.44L53.13,6.5L58.86,8.39L65.95,13.08L72.98,20.09L81.07,30.64L97.26,56.85L101.01,63.17L114.33,86.12L116.69,89.81L123.34,99.39L129.49,106.85L137.59,114.18L145.68,118.28L152.02,119.05L158.12,117.74L166.21,112.97L173.86,105.56L181.95,95.1L190.05,82.63L220.43,31.64L226.61,23.21L234.06,15L241.49,9.36L249.58,6.41L255.9,6.57L261.99,8.76L270.08,14.62L278.18,23.49L286.27,34.82L305.66,67.33L307.16,70.01L320.35,91.77L326.24,100.07L334.33,109.39L342.43,115.78L350.52,118.83L358.62,118.35L366.11,114.78L374.21,107.78L382.3,97.94L390.4,85.9L423.77,30.25L429.04,23.14L437.14,14.36L445.23,8.62L453.33,6.27L461.42,7.46L468.94,11.67L477.03,19.29L485.13,29.63L493.22,42.03L524.25,94.02L528.16,99.46L534,106.57L542.09,114L550.19,118.2L556.79,119.05L563.18,117.62L571.28,112.73L579.28,104.79L587.38,94.15L606,63.76" style="vector-effect: none; fill: none; stroke: rgb(0, 0, 0); stroke-opacity: 1; stroke-dasharray: 3px, 3px; stroke-width: 2px; opacity: 1;"/></g><g class="points"/><g class="text"/></g><g class="trace scatter trace3ceebe" style="stroke-miterlimit: 2; opacity: 1;"><g class="fills"/><g class="errorbars"/><g class="lines"><path class="js-line" d="M0,60.16L6.08,50.67L6.93,49.27L18.52,31.03L24.07,23.58L30.82,16.07L38.91,9.76L47.01,6.77L53.13,6.82L58.86,8.69L65.95,13.34L72.98,20.29L81.07,30.73L101.01,60.88L102.78,61.85L110,62.56L111.19,62.58L145.68,62.73L152.02,62.73L198.14,62.17L201.82,60.69L206.15,54.49L207.21,52.78L220.43,31.71L226.61,23.38L234.06,15.25L241.49,9.65L249.58,6.74L255.9,6.89L261.99,9.06L270.08,14.86L278.18,23.66L286.27,34.86L300.66,57.75L304.05,61.34L308.05,62.34L308.8,62.4L320.35,62.67L326.24,62.7L398.49,62.38L403.56,61.16L406.01,58.54L408.09,55.2L423.77,30.35L429.04,23.31L437.14,14.61L445.23,8.92L453.33,6.59L461.42,7.77L468.94,11.94L477.03,19.49L485.13,29.73L493.22,41.97L505.16,60.36L507.13,61.69L514.06,62.54L515.06,62.56L550.19,62.73L556.79,62.73L603.57,62.05L606,61.13" style="vector-effect: none; fill: none; stroke: rgb(255, 161, 90); stroke-opacity: 1; stroke-width: 2px; opacity: 1;"/></g><g class="points"/><g class="text"/></g><g class="trace scatter trace206eb8" style="stroke-miterlimit: 2; opacity: 1;"><g class="fills"/><g class="errorbars"/><g class="lines"><path class="js-line" d="M0,61.1L4.32,62.31L5.17,62.37L18.52,62.66L24.07,62.68L89.17,62.57L97.26,62.11L101.01,60.47L102.78,58.22L123.34,26.25L129.49,18.84L137.59,11.57L145.68,7.5L152.02,6.74L158.12,8.03L166.21,12.77L173.86,20.12L181.95,30.49L190.05,42.82L201.82,60.68L203.66,61.76L210.72,62.52L211.92,62.55L255.9,62.71L261.99,62.71L294.37,62.5L300.66,61.91L304.05,59.78L305.66,57.44L320.35,33.78L326.24,25.57L334.33,16.32L342.43,9.98L350.52,6.95L358.62,7.42L366.11,10.97L374.21,17.92L382.3,27.67L390.4,39.59L403.56,60.08L406.01,61.74L412.41,62.49L413.51,62.53L445.23,62.71L453.33,62.71L501.32,62.21L505.16,60.97L507.13,58.84L509.6,54.92L528.16,26.16L534,19.12L542.09,11.75L550.19,7.58L556.79,6.74L563.18,8.15L571.28,13.01L579.28,20.88L587.38,31.43L595.47,43.89L606,60.12" style="vector-effect: none; fill: none; stroke: rgb(25, 211, 243); stroke-opacity: 1; stroke-width: 2px; opacity: 1;"/></g><g class="points"/><g class="text"/></g></g></g></g><path class="xlines-above crisp" d="M0,0" style="fill: none;"/><path class="ylines-above crisp" d="M0,0" style="fill: none;"/><g class="overlines-above"/><g class="xaxislayer-above"><g class="x3tick"><text text-anchor="middle" x="0" y="619.4375" transform="translate(174.05,0)" style="font-family: Arial; font-size: 12px; fill: rgb(0, 0, 0); fill-opacity: 1; white-space: pre; opacity: 1;">1.05ms</text></g><g class="x3tick"><text text-anchor="middle" x="0" y="619.4375" style="font-family: Arial; font-size: 12px; fill: rgb(0, 0, 0); fill-opacity: 1; white-space: pre; opacity: 1;" transform="translate(275.24,0)">1.10ms</text></g><g class="x3tick"><text text-anchor="middle" x="0" y="619.4375" style="font-family: Arial; font-size: 12px; fill: rgb(0, 0, 0); fill-opacity: 1; white-space: pre; opacity: 1;" transform="translate(376.43,0)">1.15ms</text></g><g class="x3tick"><text text-anchor="middle" x="0" y="619.4375" style="font-family: Arial; font-size: 12px; fill: rgb(0, 0, 0); fill-opacity: 1; white-space: pre; opacity: 1;" transform="translate(477.62,0)">1.20ms</text></g><g class="x3tick"><text text-anchor="middle" x="0" y="619.4375" style="font-family: Arial; font-size: 12px; fill: rgb(0, 0, 0); fill-opacity: 1; white-space: pre; opacity: 1;" transform="translate(578.81,0)">1.25ms</text></g><g class="x3tick"><text text-anchor="middle" x="0" y="619.4375" style="font-family: Arial; font-size: 12px; fill: rgb(0, 0, 0); fill-opacity: 1; white-space: pre; opacity: 1;" transform="translate(680,0)">1.30ms</text></g></g><g class="yaxislayer-above"><g class="y3tick"><text text-anchor="end" x="73" y="4.199999999999999" transform="translate(0,581.515)" style="font-family: Arial; font-size: 12px; fill: rgb(0, 0, 0); fill-opacity: 1; white-space: pre; opacity: 1;">−100mA</text></g><g class="y3tick"><text text-anchor="end" x="73" y="4.199999999999999" style="font-family: Arial; font-size: 12px; fill: rgb(0, 0, 0); fill-opacity: 1; white-space: pre; opacity: 1;" transform="translate(0,543.885)">0.00A</text></g><g class="y3tick"><text text-anchor="end" x="73" y="4.199999999999999" style="font-family: Arial; font-size: 12px; fill: rgb(0, 0, 0); fill-opacity: 1; white-space: pre; opacity: 1;" transform="translate(0,506.255)">100mA</text></g></g><g class="overaxes-above"/></g><g class="subplot x4y4"><g class="layer-subplot"><g class="shapelayer"/><g class="imagelayer"/></g><g class="minor-gridlayer"><g class="x4"/><g class="y4"/></g><g class="gridlayer"><g class="x4"><path class="x4grid crisp" transform="translate(174.05,0)" d="M0,706.6875v125.3125" style="stroke: rgb(255, 255, 255); stroke-opacity: 1; stroke-width: 1px;"/><path class="x4grid crisp" transform="translate(275.24,0)" d="M0,706.6875v125.3125" style="stroke: rgb(255, 255, 255); stroke-opacity: 1; stroke-width: 1px;"/><path class="x4grid crisp" transform="translate(376.43,0)" d="M0,706.6875v125.3125" style="stroke: rgb(255, 255, 255); stroke-opacity: 1; stroke-width: 1px;"/><path class="x4grid crisp" transform="translate(477.62,0)" d="M0,706.6875v125.3125" style="stroke: rgb(255, 255, 255); stroke-opacity: 1; stroke-width: 1px;"/><path class="x4grid crisp" transform="translate(578.81,0)" d="M0,706.6875v125.3125" style="stroke: rgb(255, 255, 255); stroke-opacity: 1; stroke-width: 1px;"/></g><g class="y4"><path class="y4grid crisp" transform="translate(0,807.4075)" d="M74,0h606" style="stroke: rgb(255, 255, 255); stroke-opacity: 1; stroke-width: 1px;"/><path class="y4grid crisp" transform="translate(0,743.2475)" d="M74,0h606" style="stroke: rgb(255, 255, 255); stroke-opacity: 1; stroke-width: 1px;"/><path class="y4grid crisp" transform="translate(0,711.1675)" d="M74,0h606" style="stroke: rgb(255, 255, 255); stroke-opacity: 1; stroke-width: 1px;"/></g></g><g class="zerolinelayer"><path class="y4zl zl crisp" transform="translate(0,775.3275)" d="M74,0h606" style="stroke: rgb(255, 255, 255); stroke-opacity: 1; stroke-width: 2px;"/></g><g class="layer-between"><g class="shapelayer"/><g class="imagelayer"/></g><path class="xlines-below"/><path class="ylines-below"/><g class="overlines-below"/><g class="xaxislayer-below"/><g class="yaxislayer-below"/><g class="overaxes-below"/><g class="overplot"><g class="x4y4" transform="translate(74,706.6875)" clip-path="url(#clip6e65d2x4y4plot)"><g class="scatterlayer mlayer"><g class="trace scatter trace376353" style="stroke-miterlimit: 2; opacity: 1;"><g class="fills"/><g class="errorbars"/><g class="lines"><path class="js-line" d="M0,66.41L24.07,27.19L30.82,18.18L38.91,10.27L47.01,6.49L53.13,6.61L58.86,9.14L65.95,15.18L72.98,23.82L89.17,49.5L97.26,63.02L107.13,77.51L108.19,78.94L129.49,106.34L137.59,113.91L145.68,118.28L152.02,119.05L158.12,117.49L166.21,112.2L173.86,104.42L181.95,94.28L203.66,64.29L206.15,60.19L226.61,26.97L234.06,17.18L241.49,10.16L249.58,6.41L255.9,6.72L261.99,9.63L270.08,17.12L278.18,27.86L309.61,77.67L310.35,78.63L326.24,99.71L334.33,108.92L342.43,115.61L350.52,118.85L358.62,118.21L366.11,114.18L374.21,106.71L382.3,96.93L406.01,64.36L408.09,60.9L429.04,26.88L437.14,16.4L445.23,9.19L453.33,6.27L461.42,7.9L468.94,13.4L477.03,22.85L485.13,34.96L510.61,75.8L511.88,77.49L528.16,99.12L534,106.05L542.09,113.72L550.19,118.19L556.79,119.04L563.18,117.36L571.28,111.94L579.28,103.65L595.47,82.41L603.57,71.57L606,68.16" style="vector-effect: none; fill: none; stroke: rgb(255, 102, 146); stroke-opacity: 1; stroke-width: 2px; opacity: 1;"/></g><g class="points"/><g class="text"/></g></g></g></g><path class="xlines-above crisp" d="M0,0" style="fill: none;"/><path class="ylines-above crisp" d="M0,0" style="fill: none;"/><g class="overlines-above"/><g class="xaxislayer-above"><g class="x4tick"><text text-anchor="middle" x="0" y="845" transform="translate(174.05,0)" style="font-family: Arial; font-size: 12px; fill: rgb(0, 0, 0); fill-opacity: 1; white-space: pre; opacity: 1;">1.05ms</text></g><g class="x4tick"><text text-anchor="middle" x="0" y="845" style="font-family: Arial; font-size: 12px; fill: rgb(0, 0, 0); fill-opacity: 1; white-space: pre; opacity: 1;" transform="translate(275.24,0)">1.10ms</text></g><g class="x4tick"><text text-anchor="middle" x="0" y="845" style="font-family: Arial; font-size: 12px; fill: rgb(0, 0, 0); fill-opacity: 1; white-space: pre; opacity: 1;" transform="translate(376.43,0)">1.15ms</text></g><g class="x4tick"><text text-anchor="middle" x="0" y="845" style="font-family: Arial; font-size: 12px; fill: rgb(0, 0, 0); fill-opacity: 1; white-space: pre; opacity: 1;" transform="translate(477.62,0)">1.20ms</text></g><g class="x4tick"><text text-anchor="middle" x="0" y="845" style="font-family: Arial; font-size: 12px; fill: rgb(0, 0, 0); fill-opacity: 1; white-space: pre; opacity: 1;" transform="translate(578.81,0)">1.25ms</text></g><g class="x4tick"><text text-anchor="middle" x="0" y="845" style="font-family: Arial; font-size: 12px; fill: rgb(0, 0, 0); fill-opacity: 1; white-space: pre; opacity: 1;" transform="translate(680,0)">1.30ms</text></g></g><g class="yaxislayer-above"><g class="y4tick"><text text-anchor="end" x="73" y="4.199999999999999" transform="translate(0,807.4075)" style="font-family: Arial; font-size: 12px; fill: rgb(0, 0, 0); fill-opacity: 1; white-space: pre; opacity: 1;">−500µA</text></g><g class="y4tick"><text text-anchor="end" x="73" y="4.199999999999999" style="font-family: Arial; font-size: 12px; fill: rgb(0, 0, 0); fill-opacity: 1; white-space: pre; opacity: 1;" transform="translate(0,775.3275)">0.00A</text></g><g class="y4tick"><text text-anchor="end" x="73" y="4.199999999999999" style="font-family: Arial; font-size: 12px; fill: rgb(0, 0, 0); fill-opacity: 1; white-space: pre; opacity: 1;" transform="translate(0,743.2475)">500µA</text></g><g class="y4tick"><text text-anchor="end" x="73" y="4.199999999999999" style="font-family: Arial; font-size: 12px; fill: rgb(0, 0, 0); fill-opacity: 1; white-space: pre; opacity: 1;" transform="translate(0,711.1675)">1.00mA</text></g></g><g class="overaxes-above"/></g></g><g class="polarlayer"/><g class="smithlayer"/><g class="ternarylayer"/><g class="geolayer"/><g class="funnelarealayer"/><g class="pielayer"/><g class="iciclelayer"/><g class="treemaplayer"/><g class="sunburstlayer"/><g class="glimages"/><defs id="topdefs-6e65d2"><g class="clips"/><clipPath id="legend6e65d2"><rect width="562" height="48" x="0" y="0"/></clipPath></defs><g class="layer-above"><g class="imagelayer"/><g class="shapelayer"/></g><g class="infolayer"><g class="legend" pointer-events="all" transform="translate(80.06,952)"><rect class="bg" shape-rendering="crispEdges" width="562" height="48" x="0" y="0" style="stroke: rgb(68, 68, 68); stroke-opacity: 1; fill: rgb(255, 255, 255); fill-opacity: 1; stroke-width: 0px;"/><g class="scrollbox" transform="" clip-path="url(#legend6e65d2)"><g class="groups"><g class="traces" transform="translate(0,14.5)" style="opacity: 1;"><text class="legendtext" text-anchor="start" x="40" y="4.680000000000001" style="font-family: Arial; font-size: 12px; fill: rgb(0, 0, 0); fill-opacity: 1; white-space: pre;">v(Uin)</text><g class="layers" style="opacity: 1;"><g class="legendfill"/><g class="legendlines"><path class="js-line" d="M5,0h30" style="fill: none; stroke: rgb(0, 0, 0); stroke-opacity: 1; stroke-dasharray: 9px, 9px; stroke-width: 2px;"/></g><g class="legendsymbols"><g class="legendpoints"/></g></g><rect class="legendtoggle" x="0" y="-9.5" width="75.515625" height="19" style="fill: rgb(0, 0, 0); fill-opacity: 0;"/></g><g class="traces" transform="translate(121.34375,14.5)" style="opacity: 1;"><text class="legendtext" text-anchor="start" x="40" y="4.680000000000001" style="font-family: Arial; font-size: 12px; fill: rgb(0, 0, 0); fill-opacity: 1; white-space: pre;">v(Uout)</text><g class="layers" style="opacity: 1;"><g class="legendfill"/><g class="legendlines"><path class="js-line" d="M5,0h30" style="fill: none; stroke: rgb(239, 85, 59); stroke-opacity: 1; stroke-width: 2px;"/></g><g class="legendsymbols"><g class="legendpoints"/></g></g><rect class="legendtoggle" x="0" y="-9.5" width="82.84375" height="19" style="fill: rgb(0, 0, 0); fill-opacity: 0;"/></g><g class="traces" transform="translate(242.6875,14.5)" style="opacity: 1;"><text class="legendtext" text-anchor="start" x="40" y="4.680000000000001" style="font-family: Arial; font-size: 12px; fill: rgb(0, 0, 0); fill-opacity: 1; white-space: pre;">v(Uin)-v(Uout)</text><g class="layers" style="opacity: 1;"><g class="legendfill"/><g class="legendlines"><path class="js-line" d="M5,0h30" style="fill: none; stroke: rgb(0, 204, 150); stroke-opacity: 1; stroke-width: 2px;"/></g><g class="legendsymbols"><g class="legendpoints"/></g></g><rect class="legendtoggle" x="0" y="-9.5" width="118.84375" height="19" style="fill: rgb(0, 0, 0); fill-opacity: 0;"/></g><g class="traces" transform="translate(364.03125,14.5)" style="opacity: 1;"><text class="legendtext" text-anchor="start" x="40" y="4.680000000000001" style="font-family: Arial; font-size: 12px; fill: rgb(0, 0, 0); fill-opacity: 1; white-space: pre;">I(RLast)</text><g class="layers" style="opacity: 1;"><g class="legendfill"/><g class="legendlines"><path class="js-line" d="M5,0h30" style="fill: none; stroke: rgb(0, 0, 0); stroke-opacity: 1; stroke-dasharray: 3px, 3px; stroke-width: 2px;"/></g><g class="legendsymbols"><g class="legendpoints"/></g></g><rect class="legendtoggle" x="0" y="-9.5" width="85.1875" height="19" style="fill: rgb(0, 0, 0); fill-opacity: 0;"/></g><g class="traces" transform="translate(485.375,14.5)" style="opacity: 1;"><text class="legendtext" text-anchor="start" x="40" y="4.680000000000001" style="font-family: Arial; font-size: 12px; fill: rgb(0, 0, 0); fill-opacity: 1; white-space: pre;">Ic(T1)</text><g class="layers" style="opacity: 1;"><g class="legendfill"/><g class="legendlines"><path class="js-line" d="M5,0h30" style="fill: none; stroke: rgb(255, 161, 90); stroke-opacity: 1; stroke-width: 2px;"/></g><g class="legendsymbols"><g class="legendpoints"/></g></g><rect class="legendtoggle" x="0" y="-9.5" width="73.84375" height="19" style="fill: rgb(0, 0, 0); fill-opacity: 0;"/></g><g class="traces" transform="translate(0,33.5)" style="opacity: 1;"><text class="legendtext" text-anchor="start" x="40" y="4.680000000000001" style="font-family: Arial; font-size: 12px; fill: rgb(0, 0, 0); fill-opacity: 1; white-space: pre;">Ic(T2)</text><g class="layers" style="opacity: 1;"><g class="legendfill"/><g class="legendlines"><path class="js-line" d="M5,0h30" style="fill: none; stroke: rgb(25, 211, 243); stroke-opacity: 1; stroke-width: 2px;"/></g><g class="legendsymbols"><g class="legendpoints"/></g></g><rect class="legendtoggle" x="0" y="-9.5" width="73.84375" height="19" style="fill: rgb(0, 0, 0); fill-opacity: 0;"/></g><g class="traces" transform="translate(121.34375,33.5)" style="opacity: 1;"><text class="legendtext" text-anchor="start" x="40" y="4.680000000000001" style="font-family: Arial; font-size: 12px; fill: rgb(0, 0, 0); fill-opacity: 1; white-space: pre;">I(Rshunt)</text><g class="layers" style="opacity: 1;"><g class="legendfill"/><g class="legendlines"><path class="js-line" d="M5,0h30" style="fill: none; stroke: rgb(255, 102, 146); stroke-opacity: 1; stroke-width: 2px;"/></g><g class="legendsymbols"><g class="legendpoints"/></g></g><rect class="legendtoggle" x="0" y="-9.5" width="91.859375" height="19" style="fill: rgb(0, 0, 0); fill-opacity: 0;"/></g></g></g><rect class="scrollbar" rx="20" ry="3" width="0" height="0" x="0" y="0" style="fill: rgb(128, 139, 164); fill-opacity: 1;"/></g><g class="g-gtitle"/><g class="g-xtitle"/><g class="g-x2title"/><g class="g-x3title"/><g class="g-x4title"><text class="x4title" x="377" y="872.3" text-anchor="middle" style="opacity: 1; font-family: Arial; font-size: 14px; fill: rgb(0, 0, 0); fill-opacity: 1; white-space: pre;">Time</text></g><g class="g-ytitle" transform="translate(4.431640625,0)"><text class="ytitle" transform="rotate(-90,8.568749999999994,92.65625)" x="8.568749999999994" y="92.65625" text-anchor="middle" style="opacity: 1; font-family: Arial; font-size: 14px; fill: rgb(0, 0, 0); fill-opacity: 1; white-space: pre;">Voltage</text></g><g class="g-y2title" transform="translate(7.775390625,0)"><text class="y2title" transform="rotate(-90,5.224999999999994,318.21875)" x="5.224999999999994" y="318.21875" text-anchor="middle" style="opacity: 1; font-family: Arial; font-size: 14px; fill: rgb(0, 0, 0); fill-opacity: 1; white-space: pre;">Voltage</text></g><g class="g-y3title" transform="translate(4.431640625,0)"><text class="y3title" transform="rotate(-90,8.568749999999994,543.78125)" x="8.568749999999994" y="543.78125" text-anchor="middle" style="opacity: 1; font-family: Arial; font-size: 14px; fill: rgb(0, 0, 0); fill-opacity: 1; white-space: pre;">Current</text></g><g class="g-y4title" transform="translate(1.353515625,0)"><text class="y4title" transform="rotate(-90,11.646875000000001,769.34375)" x="11.646875000000001" y="769.34375" text-anchor="middle" style="opacity: 1; font-family: Arial; font-size: 14px; fill: rgb(0, 0, 0); fill-opacity: 1; white-space: pre;">Current</text></g><g class="annotation" data-index="0" style="opacity: 1;"><g class="annotation-text-g" transform="rotate(0,377,19.499999999999993)"><g class="cursor-pointer" transform="translate(272,9)"><rect class="bg" x="0.5" y="0.5" width="209" height="20" style="stroke-width: 1px; stroke: rgb(0, 0, 0); stroke-opacity: 0; fill: rgb(0, 0, 0); fill-opacity: 0;"/><text class="annotation-text" text-anchor="middle" x="104.75" y="16" style="font-family: Arial; font-size: 16px; fill: rgb(0, 0, 0); fill-opacity: 1; white-space: pre;">Ein- und Ausgangsspannung</text></g></g></g><g class="annotation" data-index="1" style="opacity: 1;"><g class="annotation-text-g" transform="rotate(0,377,245.0625)"><g class="cursor-pointer" transform="translate(304,235)"><rect class="bg" x="0.5" y="0.5" width="145" height="20" style="stroke-width: 1px; stroke: rgb(0, 0, 0); stroke-opacity: 0; fill: rgb(0, 0, 0); fill-opacity: 0;"/><text class="annotation-text" text-anchor="middle" x="73.03125" y="16" style="font-family: Arial; font-size: 16px; fill: rgb(0, 0, 0); fill-opacity: 1; white-space: pre;">Spannungsdifferenz</text></g></g></g><g class="annotation" data-index="2" style="opacity: 1;"><g class="annotation-text-g" transform="rotate(0,377,470.625)"><g class="cursor-pointer" transform="translate(349,460)"><rect class="bg" x="0.5" y="0.5" width="55" height="20" style="stroke-width: 1px; stroke: rgb(0, 0, 0); stroke-opacity: 0; fill: rgb(0, 0, 0); fill-opacity: 0;"/><text class="annotation-text" text-anchor="middle" x="27.796875" y="16" style="font-family: Arial; font-size: 16px; fill: rgb(0, 0, 0); fill-opacity: 1; white-space: pre;">Ströme</text></g></g></g></g></svg>