<svg class="main-svg" xmlns="http://www.w3.org/2000/svg" xmlns:xlink="http://www.w3.org/1999/xlink" width="700" height="1000" style="" viewBox="0 0 700 1000"><rect x="0" y="0" width="700" height="1000" style="fill: rgb(255, 255, 255); fill-opacity: 1;"/><defs id="defs-78e832"><g class="clips"><clipPath id="clip78e832xyplot" class="plotclip"><rect width="606" height="125.3125"/></clipPath><clipPath id="clip78e832x2y2plot" class="plotclip"><rect width="606" height="125.3125"/></clipPath><clipPath id="clip78e832x3y3plot" class="plotclip"><rect width="606" height="125.3125"/></clipPath><clipPath id="clip78e832x4y4plot" class="plotclip"><rect width="606" height="125.3125"/></clipPath><clipPath class="axesclip" id="clip78e832x"><rect x="74" y="0" width="606" height="1000"/></clipPath><clipPath class="axesclip" id="clip78e832y"><rect x="0" y="30" width="700" height="125.3125"/></clipPath><clipPath class="axesclip" id="clip78e832xy"><rect x="74" y="30" width="606" height="125.3125"/></clipPath><clipPath class="axesclip" id="clip78e832y2"><rect x="0" y="255.5625" width="700" height="125.3125"/></clipPath><clipPath class="axesclip" id="clip78e832xy2"><rect x="74" y="255.5625" width="606" height="125.3125"/></clipPath><clipPath class="axesclip" id="clip78e832y3"><rect x="0" y="481.125" width="700" height="125.3125"/></clipPath><clipPath class="axesclip" id="clip78e832xy3"><rect x="74" y="481.125" width="606" height="125.3125"/></clipPath><clipPath class="axesclip" id="clip78e832y4"><rect x="0" y="706.6875" width="700" height="125.3125"/></clipPath><clipPath class="axesclip" id="clip78e832xy4"><rect x="74" y="706.6875" width="606" height="125.3125"/></clipPath><clipPath class="axesclip" id="clip78e832x2"><rect x="74" y="0" width="606" height="1000"/></clipPath><clipPath class="axesclip" id="clip78e832x2y"><rect x="74" y="30" width="606" height="125.3125"/></clipPath><clipPath class="axesclip" id="clip78e832x2y2"><rect x="74" y="255.5625" width="606" height="125.3125"/></clipPath><clipPath class="axesclip" id="clip78e832x2y3"><rect x="74" y="481.125" width="606" height="125.3125"/></clipPath><clipPath class="axesclip" id="clip78e832x2y4"><rect x="74" y="706.6875" width="606" height="125.3125"/></clipPath><clipPath class="axesclip" id="clip78e832x3"><rect x="74" y="0" width="606" height="1000"/></clipPath><clipPath class="axesclip" id="clip78e832x3y"><rect x="74" y="30" width="606" height="125.3125"/></clipPath><clipPath class="axesclip" id="clip78e832x3y2"><rect x="74" y="255.5625" width="606" height="125.3125"/></clipPath><clipPath class="axesclip" id="clip78e832x3y3"><rect x="74" y="481.125" width="606" height="125.3125"/></clipPath><clipPath class="axesclip" id="clip78e832x3y4"><rect x="74" y="706.6875" width="606" height="125.3125"/></clipPath><clipPath class="axesclip" id="clip78e832x4"><rect x="74" y="0" width="606" height="1000"/></clipPath><clipPath class="axesclip" id="clip78e832x4y"><rect x="74" y="30" width="606" height="125.3125"/></clipPath><clipPath class="axesclip" id="clip78e832x4y2"><rect x="74" y="255.5625" width="606" height="125.3125"/></clipPath><clipPath class="axesclip" id="clip78e832x4y3"><rect x="74" y="481.125" width="606" height="125.3125"/></clipPath><clipPath class="axesclip" id="clip78e832x4y4"><rect x="74" y="706.6875" width="606" height="125.3125"/></clipPath></g><g class="gradients"/><g class="patterns"/></defs><g class="bglayer"><rect class="bg" x="74" y="30" width="606" height="125.3125" style="fill: rgb(229, 236, 246); fill-opacity: 1; stroke-width: 0;"/><rect class="bg" x="74" y="255.5625" width="606" height="125.3125" style="fill: rgb(229, 236, 246); fill-opacity: 1; stroke-width: 0;"/><rect class="bg" x="74" y="481.125" width="606" height="125.3125" style="fill: rgb(229, 236, 246); fill-opacity: 1; stroke-width: 0;"/><rect class="bg" x="74" y="706.6875" width="606" height="125.3125" style="fill: rgb(229, 236, 246); fill-opacity: 1; stroke-width: 0;"/></g><g class="layer-below"><g class="imagelayer"/><g class="shapelayer"/></g><g class="cartesianlayer"><g class="subplot xy"><g class="layer-subplot"><g class="shapelayer"/><g class="imagelayer"/></g><g class="minor-gridlayer"><g class="x"/><g class="y"/></g><g class="gridlayer"><g class="x"><path class="xgrid crisp" transform="translate(172.6,0)" d="M0,30v125.3125" style="stroke: rgb(255, 255, 255); stroke-opacity: 1; stroke-width: 1px;"/><path class="xgrid crisp" transform="translate(274.08000000000004,0)" d="M0,30v125.3125" style="stroke: rgb(255, 255, 255); stroke-opacity: 1; stroke-width: 1px;"/><path class="xgrid crisp" transform="translate(375.56,0)" d="M0,30v125.3125" style="stroke: rgb(255, 255, 255); stroke-opacity: 1; stroke-width: 1px;"/><path class="xgrid crisp" transform="translate(477.04,0)" d="M0,30v125.3125" style="stroke: rgb(255, 255, 255); stroke-opacity: 1; stroke-width: 1px;"/><path class="xgrid crisp" transform="translate(578.52,0)" d="M0,30v125.3125" style="stroke: rgb(255, 255, 255); stroke-opacity: 1; stroke-width: 1px;"/></g><g class="y"><path class="ygrid crisp" transform="translate(0,149.2)" d="M74,0h606" style="stroke: rgb(255, 255, 255); stroke-opacity: 1; stroke-width: 1px;"/><path class="ygrid crisp" transform="translate(0,120.99)" d="M74,0h606" style="stroke: rgb(255, 255, 255); stroke-opacity: 1; stroke-width: 1px;"/><path class="ygrid crisp" transform="translate(0,64.57)" d="M74,0h606" style="stroke: rgb(255, 255, 255); stroke-opacity: 1; stroke-width: 1px;"/><path class="ygrid crisp" transform="translate(0,36.36)" d="M74,0h606" style="stroke: rgb(255, 255, 255); stroke-opacity: 1; stroke-width: 1px;"/></g></g><g class="zerolinelayer"><path class="yzl zl crisp" transform="translate(0,92.78)" d="M74,0h606" style="stroke: rgb(255, 255, 255); stroke-opacity: 1; stroke-width: 2px;"/></g><path class="xlines-below"/><path class="ylines-below"/><g class="overlines-below"/><g class="xaxislayer-below"/><g class="yaxislayer-below"/><g class="overaxes-below"/><g class="plot" transform="translate(74,30)" clip-path="url(#clip78e832xyplot)"><g class="scatterlayer mlayer"><g class="trace scatter trace67b7d0" style="stroke-miterlimit: 2; opacity: 1;"><g class="fills"/><g class="errorbars"/><g class="lines"><path class="js-line" d="M0,57.76L14.52,33.85L15.98,31.69L23.27,21.93L26.84,17.89L31.93,13.08L37.24,9.38L44.23,6.72L52.34,6.9L59.79,10.16L67.91,16.88L76.03,26.48L84.15,38.37L97.26,60.43L98.38,62.39L113.8,88.35L121.73,99.82L129.03,108.41L137.15,115.23L145.27,118.75L151.76,119.04L158.06,117.16L166.17,111.71L174.29,103.19L182.41,92.13L198.65,65.28L202.14,59.18L217.8,33.36L218.94,31.68L227.06,20.94L235.18,12.84L243.3,7.88L250.25,6.37L257.43,7.54L265.55,12.12L273.67,19.89L281.79,30.36L298.02,56.61L300.95,61.71L318.48,91L322.99,97.53L331.11,107.49L339.23,114.64L347.35,118.54L355.47,118.93L361.86,116.75L368.13,112.56L376.25,104.39L384.37,93.61L400.6,67.03L404.35,60.49L420.5,33.74L422.21,31.23L429.7,21.32L433.1,17.53L437.63,13.27L442.43,9.81L448.49,7.11L455.25,6.42L461.83,8.1L469.95,13.28L478.07,21.57L486.19,32.45L502.42,59.12L505.81,65.04L520.04,88.85L524.27,95.17L528.52,100.95L536.64,110.09L544.76,116.25L552.88,119.05L560.23,118.53L566.99,115.52L573.68,110.27L581.8,101.21L589.92,89.72L598.04,76.55L606,62.78" style="vector-effect: non-scaling-stroke; fill: none; stroke: rgb(0, 0, 0); stroke-opacity: 1; stroke-width: 2px; opacity: 1; stroke-dasharray: 9px, 9px;"/></g><g class="points"/><g class="text"/></g><g class="trace scatter trace1c5612" style="stroke-miterlimit: 2; opacity: 1;"><g class="fills"/><g class="errorbars"/><g class="lines"><path class="js-line" d="M0,58.57L14.52,34.45L15.98,32.25L23.27,22.37L26.84,18.26L31.93,13.34L37.24,9.52L44.23,6.69L52.34,6.68L59.79,9.76L67.91,16.3L76.03,25.76L84.15,37.49L97.26,59.41L98.38,61.37L113.8,87.52L121.73,99.1L129.03,107.83L137.15,114.82L145.27,118.54L151.76,118.99L158.06,117.27L166.17,112L174.29,103.64L182.41,92.71L198.65,66.06L202.14,60L219.72,31.1L220.77,29.6L227.06,21.36L235.18,13.1L243.3,7.95L250.25,6.27L257.43,7.26L265.55,11.66L273.67,19.26L281.79,29.58L298.02,55.43L300.95,60.81L322.99,96.78L331.11,106.89L339.23,114.21L347.35,118.3L355.47,118.9L361.86,116.87L368.13,112.83L376.25,104.82L384.37,94.17L392.49,81.55L423.84,29.45L426.43,25.89L433.1,17.89L437.63,13.53L442.43,9.97L448.49,7.13L455.25,6.27L461.83,7.79L469.95,12.78L478.07,20.91L486.19,31.64L494.3,44.25L524.27,94.4L528.52,100.25L536.64,109.53L544.76,115.88L552.88,118.88L560.23,118.55L566.99,115.7L573.68,110.6L581.8,101.68L589.92,90.32L606,63.58" style="vector-effect: non-scaling-stroke; fill: none; stroke: rgb(239, 85, 59); stroke-opacity: 1; stroke-width: 2px; opacity: 1;"/></g><g class="points"/><g class="text"/></g></g></g><g class="overplot"/><path class="xlines-above crisp" d="M0,0" style="fill: none;"/><path class="ylines-above crisp" d="M0,0" style="fill: none;"/><g class="overlines-above"/><g class="xaxislayer-above"><g class="xtick"><text text-anchor="middle" x="0" y="168.3125" transform="translate(172.6,0)" style="font-family: Arial; font-size: 12px; fill: rgb(0, 0, 0); fill-opacity: 1; white-space: pre; opacity: 1;">1.05ms</text></g><g class="xtick"><text text-anchor="middle" x="0" y="168.3125" style="font-family: Arial; font-size: 12px; fill: rgb(0, 0, 0); fill-opacity: 1; white-space: pre; opacity: 1;" transform="translate(274.08000000000004,0)">1.10ms</text></g><g class="xtick"><text text-anchor="middle" x="0" y="168.3125" style="font-family: Arial; font-size: 12px; fill: rgb(0, 0, 0); fill-opacity: 1; white-space: pre; opacity: 1;" transform="translate(375.56,0)">1.15ms</text></g><g class="xtick"><text text-anchor="middle" x="0" y="168.3125" style="font-family: Arial; font-size: 12px; fill: rgb(0, 0, 0); fill-opacity: 1; white-space: pre; opacity: 1;" transform="translate(477.04,0)">1.20ms</text></g><g class="xtick"><text text-anchor="middle" x="0" y="168.3125" style="font-family: Arial; font-size: 12px; fill: rgb(0, 0, 0); fill-opacity: 1; white-space: pre; opacity: 1;" transform="translate(578.52,0)">1.25ms</text></g><g class="xtick"><text text-anchor="middle" x="0" y="168.3125" style="font-family: Arial; font-size: 12px; fill: rgb(0, 0, 0); fill-opacity: 1; white-space: pre; opacity: 1;" transform="translate(680,0)">1.30ms</text></g></g><g class="yaxislayer-above"><g class="ytick"><text text-anchor="end" x="73" y="4.199999999999999" transform="translate(0,149.2)" style="font-family: Arial; font-size: 12px; fill: rgb(0, 0, 0); fill-opacity: 1; white-space: pre; opacity: 1;">−1.00V</text></g><g class="ytick"><text text-anchor="end" x="73" y="4.199999999999999" style="font-family: Arial; font-size: 12px; fill: rgb(0, 0, 0); fill-opacity: 1; white-space: pre; opacity: 1;" transform="translate(0,120.99)">−500mV</text></g><g class="ytick"><text text-anchor="end" x="73" y="4.199999999999999" style="font-family: Arial; font-size: 12px; fill: rgb(0, 0, 0); fill-opacity: 1; white-space: pre; opacity: 1;" transform="translate(0,92.78)">0.00V</text></g><g class="ytick"><text text-anchor="end" x="73" y="4.199999999999999" style="font-family: Arial; font-size: 12px; fill: rgb(0, 0, 0); fill-opacity: 1; white-space: pre; opacity: 1;" transform="translate(0,64.57)">500mV</text></g><g class="ytick"><text text-anchor="end" x="73" y="4.199999999999999" style="font-family: Arial; font-size: 12px; fill: rgb(0, 0, 0); fill-opacity: 1; white-space: pre; opacity: 1;" transform="translate(0,36.36)">1.00V</text></g></g><g class="overaxes-above"/></g><g class="subplot x2y2"><g class="layer-subplot"><g class="shapelayer"/><g class="imagelayer"/></g><g class="minor-gridlayer"><g class="x2"/><g class="y2"/></g><g class="gridlayer"><g class="x2"><path class="x2grid crisp" transform="translate(172.6,0)" d="M0,255.5625v125.3125" style="stroke: rgb(255, 255, 255); stroke-opacity: 1; stroke-width: 1px;"/><path class="x2grid crisp" transform="translate(274.08000000000004,0)" d="M0,255.5625v125.3125" style="stroke: rgb(255, 255, 255); stroke-opacity: 1; stroke-width: 1px;"/><path class="x2grid crisp" transform="translate(375.56,0)" d="M0,255.5625v125.3125" style="stroke: rgb(255, 255, 255); stroke-opacity: 1; stroke-width: 1px;"/><path class="x2grid crisp" transform="translate(477.04,0)" d="M0,255.5625v125.3125" style="stroke: rgb(255, 255, 255); stroke-opacity: 1; stroke-width: 1px;"/><path class="x2grid crisp" transform="translate(578.52,0)" d="M0,255.5625v125.3125" style="stroke: rgb(255, 255, 255); stroke-opacity: 1; stroke-width: 1px;"/></g><g class="y2"><path class="y2grid crisp" transform="translate(0,371.5625)" d="M74,0h606" style="stroke: rgb(255, 255, 255); stroke-opacity: 1; stroke-width: 1px;"/><path class="y2grid crisp" transform="translate(0,341.5525)" d="M74,0h606" style="stroke: rgb(255, 255, 255); stroke-opacity: 1; stroke-width: 1px;"/><path class="y2grid crisp" transform="translate(0,281.5325)" d="M74,0h606" style="stroke: rgb(255, 255, 255); stroke-opacity: 1; stroke-width: 1px;"/></g></g><g class="zerolinelayer"><path class="y2zl zl crisp" transform="translate(0,311.5425)" d="M74,0h606" style="stroke: rgb(255, 255, 255); stroke-opacity: 1; stroke-width: 2px;"/></g><path class="xlines-below"/><path class="ylines-below"/><g class="overlines-below"/><g class="xaxislayer-below"/><g class="yaxislayer-below"/><g class="overaxes-below"/><g class="plot" transform="translate(74,255.5625)" clip-path="url(#clip78e832x2y2plot)"><g class="scatterlayer mlayer"><g class="trace scatter trace5021f3" style="stroke-miterlimit: 2; opacity: 1;"><g class="fills"/><g class="errorbars"/><g class="lines"><path class="js-line" d="M0,12.99L1.78,13.34L4.15,10.89L6.73,6.9L8.07,13.46L9.66,19.52L10.54,18.74L13.46,23.24L14.52,23.99L17.51,27.18L19.77,29.37L31.93,42.16L37.24,48.42L67.91,86.68L76.03,94.72L84.92,103.13L86.46,106.22L88.6,110.35L90.84,117.17L92.22,115.95L94.15,109.52L96.28,111.12L97.26,110.3L99.88,110.65L101.5,109.27L105.89,105.6L108.61,103.65L113.8,100.27L121.73,94.2L129.03,87.01L137.15,77.85L166.17,40.45L174.29,31.95L182.41,25.29L190.53,20.06L202.14,12.62L207.26,12.54L210.26,6.27L211.74,16.82L213.15,20.76L213.93,18.77L216.76,23.41L217.8,24.47L222.87,29.53L227.06,33.65L235.18,42.34L243.3,52.38L265.55,80.62L273.67,89.62L289.91,105.77L298.02,119.05L300.95,103.77L302.38,111.78L304.1,111.74L304.91,106.53L306.74,108.11L307.47,106.53L310.94,104.19L312.43,103L318.48,98.93L322.99,95.63L331.11,88.06L339.23,78.79L368.13,41.54L376.25,32.96L384.37,25.98L392.49,20.68L404.35,12.39L408.28,14.14L410.62,8.88L413.17,8.47L415.78,19.62L416.87,18.78L418.6,22.48L419.49,23.5L420.5,23.93L422.21,26.33L426.43,30.15L429.7,33.3L442.43,47.59L448.49,55.14L469.95,82.42L478.07,90.95L486.19,98.71L494.3,108.04L502.42,117.64L505.81,104.41L507.47,111.43L508.99,109.21L509.97,104.59L510.56,106.14L511.89,106.21L512.62,104.57L515.84,102.87L517.25,101.76L520.04,100.14L524.27,96.77L528.52,93.42L536.64,85.3L552.88,65.09L560.23,55.15L573.68,38.62L581.8,30.54L589.92,24.15L598.04,19.13L606,13.43" style="vector-effect: non-scaling-stroke; fill: none; stroke: rgb(0, 204, 150); stroke-opacity: 1; stroke-width: 2px; opacity: 1;"/></g><g class="points"/><g class="text"/></g></g></g><g class="overplot"/><path class="xlines-above crisp" d="M0,0" style="fill: none;"/><path class="ylines-above crisp" d="M0,0" style="fill: none;"/><g class="overlines-above"/><g class="xaxislayer-above"><g class="x2tick"><text text-anchor="middle" x="0" y="393.875" transform="translate(172.6,0)" style="font-family: Arial; font-size: 12px; fill: rgb(0, 0, 0); fill-opacity: 1; white-space: pre; opacity: 1;">1.05ms</text></g><g class="x2tick"><text text-anchor="middle" x="0" y="393.875" style="font-family: Arial; font-size: 12px; fill: rgb(0, 0, 0); fill-opacity: 1; white-space: pre; opacity: 1;" transform="translate(274.08000000000004,0)">1.10ms</text></g><g class="x2tick"><text text-anchor="middle" x="0" y="393.875" style="font-family: Arial; font-size: 12px; fill: rgb(0, 0, 0); fill-opacity: 1; white-space: pre; opacity: 1;" transform="translate(375.56,0)">1.15ms</text></g><g class="x2tick"><text text-anchor="middle" x="0" y="393.875" style="font-family: Arial; font-size: 12px; fill: rgb(0, 0, 0); fill-opacity: 1; white-space: pre; opacity: 1;" transform="translate(477.04,0)">1.20ms</text></g><g class="x2tick"><text text-anchor="middle" x="0" y="393.875" style="font-family: Arial; font-size: 12px; fill: rgb(0, 0, 0); fill-opacity: 1; white-space: pre; opacity: 1;" transform="translate(578.52,0)">1.25ms</text></g><g class="x2tick"><text text-anchor="middle" x="0" y="393.875" style="font-family: Arial; font-size: 12px; fill: rgb(0, 0, 0); fill-opacity: 1; white-space: pre; opacity: 1;" transform="translate(680,0)">1.30ms</text></g></g><g class="yaxislayer-above"><g class="y2tick"><text text-anchor="end" x="73" y="4.199999999999999" transform="translate(0,371.5625)" style="font-family: Arial; font-size: 12px; fill: rgb(0, 0, 0); fill-opacity: 1; white-space: pre; opacity: 1;">−20.0mV</text></g><g class="y2tick"><text text-anchor="end" x="73" y="4.199999999999999" style="font-family: Arial; font-size: 12px; fill: rgb(0, 0, 0); fill-opacity: 1; white-space: pre; opacity: 1;" transform="translate(0,341.5525)">−10.0mV</text></g><g class="y2tick"><text text-anchor="end" x="73" y="4.199999999999999" style="font-family: Arial; font-size: 12px; fill: rgb(0, 0, 0); fill-opacity: 1; white-space: pre; opacity: 1;" transform="translate(0,311.5425)">0.00V</text></g><g class="y2tick"><text text-anchor="end" x="73" y="4.199999999999999" style="font-family: Arial; font-size: 12px; fill: rgb(0, 0, 0); fill-opacity: 1; white-space: pre; opacity: 1;" transform="translate(0,281.5325)">10.0mV</text></g></g><g class="overaxes-above"/></g><g class="subplot x3y3"><g class="layer-subplot"><g class="shapelayer"/><g class="imagelayer"/></g><g class="minor-gridlayer"><g class="x3"/><g class="y3"/></g><g class="gridlayer"><g class="x3"><path class="x3grid crisp" transform="translate(172.6,0)" d="M0,481.125v125.3125" style="stroke: rgb(255, 255, 255); stroke-opacity: 1; stroke-width: 1px;"/><path class="x3grid crisp" transform="translate(274.08000000000004,0)" d="M0,481.125v125.3125" style="stroke: rgb(255, 255, 255); stroke-opacity: 1; stroke-width: 1px;"/><path class="x3grid crisp" transform="translate(375.56,0)" d="M0,481.125v125.3125" style="stroke: rgb(255, 255, 255); stroke-opacity: 1; stroke-width: 1px;"/><path class="x3grid crisp" transform="translate(477.04,0)" d="M0,481.125v125.3125" style="stroke: rgb(255, 255, 255); stroke-opacity: 1; stroke-width: 1px;"/><path class="x3grid crisp" transform="translate(578.52,0)" d="M0,481.125v125.3125" style="stroke: rgb(255, 255, 255); stroke-opacity: 1; stroke-width: 1px;"/></g><g class="y3"><path class="y3grid crisp" transform="translate(0,581.585)" d="M74,0h606" style="stroke: rgb(255, 255, 255); stroke-opacity: 1; stroke-width: 1px;"/><path class="y3grid crisp" transform="translate(0,506.285)" d="M74,0h606" style="stroke: rgb(255, 255, 255); stroke-opacity: 1; stroke-width: 1px;"/></g></g><g class="zerolinelayer"><path class="y3zl zl crisp" transform="translate(0,543.935)" d="M74,0h606" style="stroke: rgb(255, 255, 255); stroke-opacity: 1; stroke-width: 2px;"/></g><path class="xlines-below"/><path class="ylines-below"/><g class="overlines-below"/><g class="xaxislayer-below"/><g class="yaxislayer-below"/><g class="overaxes-below"/><g class="plot" transform="translate(74,481.125)" clip-path="url(#clip78e832x3y3plot)"><g class="scatterlayer mlayer"><g class="trace scatter trace60aafb" style="stroke-miterlimit: 2; opacity: 1;"><g class="fills"/><g class="errorbars"/><g class="lines"><path class="js-line" d="M0,58.6L14.52,34.46L15.98,32.27L23.27,22.38L26.84,18.26L31.93,13.35L37.24,9.53L44.23,6.69L52.34,6.68L59.79,9.76L67.91,16.31L76.03,25.76L84.15,37.51L97.26,59.43L98.38,61.4L113.8,87.56L121.73,99.14L129.03,107.88L137.15,114.87L145.27,118.6L151.76,119.05L158.06,117.32L166.17,112.06L174.29,103.69L182.41,92.75L198.65,66.09L202.14,60.03L219.72,31.11L220.77,29.61L227.06,21.37L235.18,13.1L243.3,7.95L250.25,6.27L257.43,7.26L265.55,11.66L273.67,19.27L281.79,29.59L298.02,55.45L300.95,60.83L322.99,96.83L331.11,106.94L339.23,114.27L347.35,118.36L355.47,118.96L361.86,116.93L368.13,112.88L376.25,104.87L384.37,94.22L392.49,81.59L423.84,29.46L426.43,25.9L433.1,17.9L437.63,13.54L442.43,9.97L448.49,7.13L455.25,6.27L461.83,7.79L469.95,12.79L478.07,20.92L486.19,31.66L494.3,44.27L524.27,94.44L528.52,100.29L536.64,109.58L544.76,115.93L552.88,118.93L560.23,118.6L566.99,115.75L573.68,110.65L581.8,101.73L589.92,90.36L606,63.61" style="vector-effect: non-scaling-stroke; fill: none; stroke: rgb(0, 0, 0); stroke-opacity: 1; stroke-width: 2px; opacity: 1; stroke-dasharray: 3px, 3px;"/></g><g class="points"/><g class="text"/></g><g class="trace scatter trace41711a" style="stroke-miterlimit: 2; opacity: 1;"><g class="fills"/><g class="errorbars"/><g class="lines"><path class="js-line" d="M0,56.56L8.07,44.29L9.66,41.69L19.77,26.81L23.27,22.37L31.93,13.46L37.24,9.69L44.23,6.89L52.34,6.87L59.79,9.92L67.91,16.39L76.03,25.7L84.15,37.2L98.38,58.49L99.88,59.87L103.28,61.55L105.89,62.06L113.8,62.57L121.73,62.7L182.41,62.64L190.53,62.35L198.65,60.62L202.14,57.58L215.94,36.53L216.76,35.3L222.87,26.63L227.06,21.38L235.18,13.22L243.3,8.13L250.25,6.47L257.43,7.45L265.55,11.8L273.67,19.3L281.79,29.46L289.91,41.5L302.38,59.48L304.1,60.69L307.47,61.84L308.43,62L318.48,62.61L322.99,62.68L384.37,62.65L392.49,62.41L400.6,61.09L404.35,58.43L413.17,45.66L414.66,43.17L423.84,29.34L426.43,25.83L433.1,17.95L437.63,13.65L442.43,10.13L448.49,7.32L455.25,6.47L461.83,7.98L469.95,12.91L478.07,20.93L486.19,31.49L494.3,43.74L505.81,59.94L507.47,60.89L512.62,62.16L513.51,62.25L528.52,62.71L536.64,62.75L598.04,62.23L606,59.65" style="vector-effect: non-scaling-stroke; fill: none; stroke: rgb(255, 161, 90); stroke-opacity: 1; stroke-width: 2px; opacity: 1;"/></g><g class="points"/><g class="text"/></g><g class="trace scatter trace60984c" style="stroke-miterlimit: 2; opacity: 1;"><g class="fills"/><g class="errorbars"/><g class="lines"><path class="js-line" d="M0,60.74L4.15,61.77L6.73,62.04L23.27,62.55L26.84,62.58L86.46,62.27L88.6,62.16L96.28,60.95L97.26,60.54L99.88,58.67L101.5,56.85L108.61,46.09L113.8,37.93L121.73,26.54L129.03,17.9L137.15,10.97L145.27,7.28L151.76,6.83L158.06,8.54L166.17,13.76L174.29,22.04L182.41,32.83L190.53,45.29L198.65,57.34L202.14,60.34L210.26,62.09L211.74,62.19L235.18,62.61L243.3,62.64L289.91,62.25L298.02,61.35L302.38,59.1L304.1,57.33L310.94,47.1L312.43,44.71L322.99,28.78L331.11,18.83L339.23,11.57L347.35,7.52L355.47,6.92L361.86,8.93L368.13,12.94L376.25,20.87L384.37,31.39L392.49,43.71L400.6,56.07L404.35,59.89L410.62,61.84L413.17,62.08L429.7,62.55L433.1,62.58L486.19,62.45L494.3,62.17L502.42,60.9L505.81,58.59L509.97,53.22L510.56,52.35L528.52,25.37L536.64,16.21L544.76,9.92L552.88,6.95L560.23,7.27L566.99,10.1L573.68,15.15L581.8,23.98L589.92,35.18L598.04,47.81L606,58.84" style="vector-effect: non-scaling-stroke; fill: none; stroke: rgb(25, 211, 243); stroke-opacity: 1; stroke-width: 2px; opacity: 1;"/></g><g class="points"/><g class="text"/></g></g></g><g class="overplot"/><path class="xlines-above crisp" d="M0,0" style="fill: none;"/><path class="ylines-above crisp" d="M0,0" style="fill: none;"/><g class="overlines-above"/><g class="xaxislayer-above"><g class="x3tick"><text text-anchor="middle" x="0" y="619.4375" transform="translate(172.6,0)" style="font-family: Arial; font-size: 12px; fill: rgb(0, 0, 0); fill-opacity: 1; white-space: pre; opacity: 1;">1.05ms</text></g><g class="x3tick"><text text-anchor="middle" x="0" y="619.4375" style="font-family: Arial; font-size: 12px; fill: rgb(0, 0, 0); fill-opacity: 1; white-space: pre; opacity: 1;" transform="translate(274.08000000000004,0)">1.10ms</text></g><g class="x3tick"><text text-anchor="middle" x="0" y="619.4375" style="font-family: Arial; font-size: 12px; fill: rgb(0, 0, 0); fill-opacity: 1; white-space: pre; opacity: 1;" transform="translate(375.56,0)">1.15ms</text></g><g class="x3tick"><text text-anchor="middle" x="0" y="619.4375" style="font-family: Arial; font-size: 12px; fill: rgb(0, 0, 0); fill-opacity: 1; white-space: pre; opacity: 1;" transform="translate(477.04,0)">1.20ms</text></g><g class="x3tick"><text text-anchor="middle" x="0" y="619.4375" style="font-family: Arial; font-size: 12px; fill: rgb(0, 0, 0); fill-opacity: 1; white-space: pre; opacity: 1;" transform="translate(578.52,0)">1.25ms</text></g><g class="x3tick"><text text-anchor="middle" x="0" y="619.4375" style="font-family: Arial; font-size: 12px; fill: rgb(0, 0, 0); fill-opacity: 1; white-space: pre; opacity: 1;" transform="translate(680,0)">1.30ms</text></g></g><g class="yaxislayer-above"><g class="y3tick"><text text-anchor="end" x="73" y="4.199999999999999" transform="translate(0,581.585)" style="font-family: Arial; font-size: 12px; fill: rgb(0, 0, 0); fill-opacity: 1; white-space: pre; opacity: 1;">−100mA</text></g><g class="y3tick"><text text-anchor="end" x="73" y="4.199999999999999" style="font-family: Arial; font-size: 12px; fill: rgb(0, 0, 0); fill-opacity: 1; white-space: pre; opacity: 1;" transform="translate(0,543.935)">0.00A</text></g><g class="y3tick"><text text-anchor="end" x="73" y="4.199999999999999" style="font-family: Arial; font-size: 12px; fill: rgb(0, 0, 0); fill-opacity: 1; white-space: pre; opacity: 1;" transform="translate(0,506.285)">100mA</text></g></g><g class="overaxes-above"/></g><g class="subplot x4y4"><g class="layer-subplot"><g class="shapelayer"/><g class="imagelayer"/></g><g class="minor-gridlayer"><g class="x4"/><g class="y4"/></g><g class="gridlayer"><g class="x4"><path class="x4grid crisp" transform="translate(172.6,0)" d="M0,706.6875v125.3125" style="stroke: rgb(255, 255, 255); stroke-opacity: 1; stroke-width: 1px;"/><path class="x4grid crisp" transform="translate(274.08000000000004,0)" d="M0,706.6875v125.3125" style="stroke: rgb(255, 255, 255); stroke-opacity: 1; stroke-width: 1px;"/><path class="x4grid crisp" transform="translate(375.56,0)" d="M0,706.6875v125.3125" style="stroke: rgb(255, 255, 255); stroke-opacity: 1; stroke-width: 1px;"/><path class="x4grid crisp" transform="translate(477.04,0)" d="M0,706.6875v125.3125" style="stroke: rgb(255, 255, 255); stroke-opacity: 1; stroke-width: 1px;"/><path class="x4grid crisp" transform="translate(578.52,0)" d="M0,706.6875v125.3125" style="stroke: rgb(255, 255, 255); stroke-opacity: 1; stroke-width: 1px;"/></g><g class="y4"><path class="y4grid crisp" transform="translate(0,802.5875)" d="M74,0h606" style="stroke: rgb(255, 255, 255); stroke-opacity: 1; stroke-width: 1px;"/><path class="y4grid crisp" transform="translate(0,714.6275)" d="M74,0h606" style="stroke: rgb(255, 255, 255); stroke-opacity: 1; stroke-width: 1px;"/></g></g><g class="zerolinelayer"><path class="y4zl zl crisp" transform="translate(0,758.6075)" d="M74,0h606" style="stroke: rgb(255, 255, 255); stroke-opacity: 1; stroke-width: 2px;"/></g><path class="xlines-below"/><path class="ylines-below"/><g class="overlines-below"/><g class="xaxislayer-below"/><g class="yaxislayer-below"/><g class="overaxes-below"/><g class="plot" transform="translate(74,706.6875)" clip-path="url(#clip78e832x4y4plot)"><g class="scatterlayer mlayer"><g class="trace scatter trace31ce0c" style="stroke-miterlimit: 2; opacity: 1;"><g class="fills"/><g class="errorbars"/><g class="lines"><path class="js-line" d="M0,61.58L19.77,29.57L23.27,24.63L31.93,14.46L37.24,10.08L44.23,6.77L52.34,6.83L59.79,10.54L67.91,18.2L76.03,28.8L84.15,41.33L108.61,80.85L113.8,88.34L121.73,99.11L129.03,107.66L137.15,114.78L145.27,118.63L151.76,119.05L158.06,117.13L166.17,111.53L174.29,103L190.53,80.82L198.65,68.59L222.87,29.35L227.06,23.53L235.18,14.21L243.3,8.25L250.25,6.27L257.43,7.54L265.55,12.8L273.67,21.58L281.79,32.96L289.91,45.87L310.94,79.96L312.43,82.09L322.99,96.93L331.11,106.68L339.23,114.19L347.35,118.35L355.47,118.97L361.86,116.67L368.13,112.43L376.25,104.15L384.37,93.87L392.49,82.25L408.28,57.7L410.62,53.82L426.43,28.52L429.7,23.92L437.63,14.65L442.43,10.6L448.49,7.25L455.25,6.31L461.83,8.14L469.95,14.13L478.07,23.41L486.19,35.18L517.25,84.79L520.04,88.82L528.52,100.24L536.64,109.35L544.76,115.9L552.88,118.94L560.23,118.57L566.99,115.41L573.68,110.1L581.8,101.04L598.04,78.45L606,66.32" style="vector-effect: non-scaling-stroke; fill: none; stroke: rgb(255, 102, 146); stroke-opacity: 1; stroke-width: 2px; opacity: 1;"/></g><g class="points"/><g class="text"/></g></g></g><g class="overplot"/><path class="xlines-above crisp" d="M0,0" style="fill: none;"/><path class="ylines-above crisp" d="M0,0" style="fill: none;"/><g class="overlines-above"/><g class="xaxislayer-above"><g class="x4tick"><text text-anchor="middle" x="0" y="845" transform="translate(172.6,0)" style="font-family: Arial; font-size: 12px; fill: rgb(0, 0, 0); fill-opacity: 1; white-space: pre; opacity: 1;">1.05ms</text></g><g class="x4tick"><text text-anchor="middle" x="0" y="845" style="font-family: Arial; font-size: 12px; fill: rgb(0, 0, 0); fill-opacity: 1; white-space: pre; opacity: 1;" transform="translate(274.08000000000004,0)">1.10ms</text></g><g class="x4tick"><text text-anchor="middle" x="0" y="845" style="font-family: Arial; font-size: 12px; fill: rgb(0, 0, 0); fill-opacity: 1; white-space: pre; opacity: 1;" transform="translate(375.56,0)">1.15ms</text></g><g class="x4tick"><text text-anchor="middle" x="0" y="845" style="font-family: Arial; font-size: 12px; fill: rgb(0, 0, 0); fill-opacity: 1; white-space: pre; opacity: 1;" transform="translate(477.04,0)">1.20ms</text></g><g class="x4tick"><text text-anchor="middle" x="0" y="845" style="font-family: Arial; font-size: 12px; fill: rgb(0, 0, 0); fill-opacity: 1; white-space: pre; opacity: 1;" transform="translate(578.52,0)">1.25ms</text></g><g class="x4tick"><text text-anchor="middle" x="0" y="845" style="font-family: Arial; font-size: 12px; fill: rgb(0, 0, 0); fill-opacity: 1; white-space: pre; opacity: 1;" transform="translate(680,0)">1.30ms</text></g></g><g class="yaxislayer-above"><g class="y4tick"><text text-anchor="end" x="73" y="4.199999999999999" transform="translate(0,802.5875)" style="font-family: Arial; font-size: 12px; fill: rgb(0, 0, 0); fill-opacity: 1; white-space: pre; opacity: 1;">−1.00mA</text></g><g class="y4tick"><text text-anchor="end" x="73" y="4.199999999999999" style="font-family: Arial; font-size: 12px; fill: rgb(0, 0, 0); fill-opacity: 1; white-space: pre; opacity: 1;" transform="translate(0,758.6075)">0.00A</text></g><g class="y4tick"><text text-anchor="end" x="73" y="4.199999999999999" style="font-family: Arial; font-size: 12px; fill: rgb(0, 0, 0); fill-opacity: 1; white-space: pre; opacity: 1;" transform="translate(0,714.6275)">1.00mA</text></g></g><g class="overaxes-above"/></g></g><g class="polarlayer"/><g class="smithlayer"/><g class="ternarylayer"/><g class="geolayer"/><g class="funnelarealayer"/><g class="pielayer"/><g class="iciclelayer"/><g class="treemaplayer"/><g class="sunburstlayer"/><g class="glimages"/><defs id="topdefs-78e832"><g class="clips"/><clipPath id="legend78e832"><rect width="562" height="48" x="0" y="0"/></clipPath></defs><g class="layer-above"><g class="imagelayer"/><g class="shapelayer"/></g><g class="infolayer"><g class="legend" pointer-events="all" transform="translate(80.06,952)"><rect class="bg" shape-rendering="crispEdges" width="562" height="48" x="0" y="0" style="stroke: rgb(68, 68, 68); stroke-opacity: 1; fill: rgb(255, 255, 255); fill-opacity: 1; stroke-width: 0px;"/><g class="scrollbox" transform="" clip-path="url(#legend78e832)"><g class="groups"><g class="traces" transform="translate(0,14.5)" style="opacity: 1;"><text class="legendtext" text-anchor="start" x="40" y="4.680000000000001" style="font-family: Arial; font-size: 12px; fill: rgb(0, 0, 0); fill-opacity: 1; white-space: pre;">v(Uin)</text><g class="layers" style="opacity: 1;"><g class="legendfill"/><g class="legendlines"><path class="js-line" d="M5,0h30" style="fill: none; stroke: rgb(0, 0, 0); stroke-opacity: 1; stroke-dasharray: 9px, 9px; stroke-width: 2px;"/></g><g class="legendsymbols"><g class="legendpoints"/></g></g><rect class="legendtoggle" x="0" y="-9.5" width="75.515625" height="19" style="fill: rgb(0, 0, 0); fill-opacity: 0;"/></g><g class="traces" transform="translate(121.34375,14.5)" style="opacity: 1;"><text class="legendtext" text-anchor="start" x="40" y="4.680000000000001" style="font-family: Arial; font-size: 12px; fill: rgb(0, 0, 0); fill-opacity: 1; white-space: pre;">v(Uout)</text><g class="layers" style="opacity: 1;"><g class="legendfill"/><g class="legendlines"><path class="js-line" d="M5,0h30" style="fill: none; stroke: rgb(239, 85, 59); stroke-opacity: 1; stroke-width: 2px;"/></g><g class="legendsymbols"><g class="legendpoints"/></g></g><rect class="legendtoggle" x="0" y="-9.5" width="82.84375" height="19" style="fill: rgb(0, 0, 0); fill-opacity: 0;"/></g><g class="traces" transform="translate(242.6875,14.5)" style="opacity: 1;"><text class="legendtext" text-anchor="start" x="40" y="4.680000000000001" style="font-family: Arial; font-size: 12px; fill: rgb(0, 0, 0); fill-opacity: 1; white-space: pre;">v(Uin)-v(Uout)</text><g class="layers" style="opacity: 1;"><g class="legendfill"/><g class="legendlines"><path class="js-line" d="M5,0h30" style="fill: none; stroke: rgb(0, 204, 150); stroke-opacity: 1; stroke-width: 2px;"/></g><g class="legendsymbols"><g class="legendpoints"/></g></g><rect class="legendtoggle" x="0" y="-9.5" width="118.84375" height="19" style="fill: rgb(0, 0, 0); fill-opacity: 0;"/></g><g class="traces" transform="translate(364.03125,14.5)" style="opacity: 1;"><text class="legendtext" text-anchor="start" x="40" y="4.680000000000001" style="font-family: Arial; font-size: 12px; fill: rgb(0, 0, 0); fill-opacity: 1; white-space: pre;">I(RLast)</text><g class="layers" style="opacity: 1;"><g class="legendfill"/><g class="legendlines"><path class="js-line" d="M5,0h30" style="fill: none; stroke: rgb(0, 0, 0); stroke-opacity: 1; stroke-dasharray: 3px, 3px; stroke-width: 2px;"/></g><g class="legendsymbols"><g class="legendpoints"/></g></g><rect class="legendtoggle" x="0" y="-9.5" width="85.1875" height="19" style="fill: rgb(0, 0, 0); fill-opacity: 0;"/></g><g class="traces" transform="translate(485.375,14.5)" style="opacity: 1;"><text class="legendtext" text-anchor="start" x="40" y="4.680000000000001" style="font-family: Arial; font-size: 12px; fill: rgb(0, 0, 0); fill-opacity: 1; white-space: pre;">Ic(T1)</text><g class="layers" style="opacity: 1;"><g class="legendfill"/><g class="legendlines"><path class="js-line" d="M5,0h30" style="fill: none; stroke: rgb(255, 161, 90); stroke-opacity: 1; stroke-width: 2px;"/></g><g class="legendsymbols"><g class="legendpoints"/></g></g><rect class="legendtoggle" x="0" y="-9.5" width="73.84375" height="19" style="fill: rgb(0, 0, 0); fill-opacity: 0;"/></g><g class="traces" transform="translate(0,33.5)" style="opacity: 1;"><text class="legendtext" text-anchor="start" x="40" y="4.680000000000001" style="font-family: Arial; font-size: 12px; fill: rgb(0, 0, 0); fill-opacity: 1; white-space: pre;">Ic(T2)</text><g class="layers" style="opacity: 1;"><g class="legendfill"/><g class="legendlines"><path class="js-line" d="M5,0h30" style="fill: none; stroke: rgb(25, 211, 243); stroke-opacity: 1; stroke-width: 2px;"/></g><g class="legendsymbols"><g class="legendpoints"/></g></g><rect class="legendtoggle" x="0" y="-9.5" width="73.84375" height="19" style="fill: rgb(0, 0, 0); fill-opacity: 0;"/></g><g class="traces" transform="translate(121.34375,33.5)" style="opacity: 1;"><text class="legendtext" text-anchor="start" x="40" y="4.680000000000001" style="font-family: Arial; font-size: 12px; fill: rgb(0, 0, 0); fill-opacity: 1; white-space: pre;">I(Rshunt)</text><g class="layers" style="opacity: 1;"><g class="legendfill"/><g class="legendlines"><path class="js-line" d="M5,0h30" style="fill: none; stroke: rgb(255, 102, 146); stroke-opacity: 1; stroke-width: 2px;"/></g><g class="legendsymbols"><g class="legendpoints"/></g></g><rect class="legendtoggle" x="0" y="-9.5" width="91.859375" height="19" style="fill: rgb(0, 0, 0); fill-opacity: 0;"/></g></g></g><rect class="scrollbar" rx="20" ry="3" width="0" height="0" x="0" y="0" style="fill: rgb(128, 139, 164); fill-opacity: 1;"/></g><g class="g-gtitle"/><g class="g-xtitle"/><g class="g-x2title"/><g class="g-x3title"/><g class="g-x4title"><text class="x4title" x="377" y="872.8" text-anchor="middle" style="font-family: Arial; font-size: 14px; fill: rgb(0, 0, 0); opacity: 1; font-weight: normal; white-space: pre;">Time</text></g><g class="g-ytitle" transform="translate(9.8310546875,0)"><text class="ytitle" transform="rotate(-90,3.168750000000003,92.65625)" x="3.168750000000003" y="92.65625" text-anchor="middle" style="font-family: Arial; font-size: 14px; fill: rgb(0, 0, 0); opacity: 1; font-weight: normal; white-space: pre;">Voltage</text></g><g class="g-y2title" transform="translate(13.1748046875,0)"><text class="y2title" transform="rotate(-90,-0.17499999999999716,318.21875)" x="-0.17499999999999716" y="318.21875" text-anchor="middle" style="font-family: Arial; font-size: 14px; fill: rgb(0, 0, 0); opacity: 1; font-weight: normal; white-space: pre;">Voltage</text></g><g class="g-y3title" transform="translate(9.8310546875,0)"><text class="y3title" transform="rotate(-90,3.168750000000003,543.78125)" x="3.168750000000003" y="543.78125" text-anchor="middle" style="font-family: Arial; font-size: 14px; fill: rgb(0, 0, 0); opacity: 1; font-weight: normal; white-space: pre;">Current</text></g><g class="g-y4title" transform="translate(13.1748046875,0)"><text class="y4title" transform="rotate(-90,-0.17499999999999716,769.34375)" x="-0.17499999999999716" y="769.34375" text-anchor="middle" style="font-family: Arial; font-size: 14px; fill: rgb(0, 0, 0); opacity: 1; font-weight: normal; white-space: pre;">Current</text></g><g class="annotation" data-index="0" style="opacity: 1;"><g class="annotation-text-g" transform="rotate(0,377,19.499999999999993)"><g class="cursor-pointer" transform="translate(272,9)"><rect class="bg" x="0.5" y="0.5" width="209" height="20" style="stroke-width: 1px; stroke: rgb(0, 0, 0); stroke-opacity: 0; fill: rgb(0, 0, 0); fill-opacity: 0;"/><text class="annotation-text" text-anchor="middle" x="104.75" y="16" style="font-family: Arial; font-size: 16px; fill: rgb(0, 0, 0); fill-opacity: 1; white-space: pre;">Ein- und Ausgangsspannung</text></g></g></g><g class="annotation" data-index="1" style="opacity: 1;"><g class="annotation-text-g" transform="rotate(0,377,245.0625)"><g class="cursor-pointer" transform="translate(304,235)"><rect class="bg" x="0.5" y="0.5" width="145" height="20" style="stroke-width: 1px; stroke: rgb(0, 0, 0); stroke-opacity: 0; fill: rgb(0, 0, 0); fill-opacity: 0;"/><text class="annotation-text" text-anchor="middle" x="73.03125" y="16" style="font-family: Arial; font-size: 16px; fill: rgb(0, 0, 0); fill-opacity: 1; white-space: pre;">Spannungsdifferenz</text></g></g></g><g class="annotation" data-index="2" style="opacity: 1;"><g class="annotation-text-g" transform="rotate(0,377,470.625)"><g class="cursor-pointer" transform="translate(349,460)"><rect class="bg" x="0.5" y="0.5" width="55" height="20" style="stroke-width: 1px; stroke: rgb(0, 0, 0); stroke-opacity: 0; fill: rgb(0, 0, 0); fill-opacity: 0;"/><text class="annotation-text" text-anchor="middle" x="27.796875" y="16" style="font-family: Arial; font-size: 16px; fill: rgb(0, 0, 0); fill-opacity: 1; white-space: pre;">Ströme</text></g></g></g></g></svg>