<svg class="main-svg" xmlns="http://www.w3.org/2000/svg" xmlns:xlink="http://www.w3.org/1999/xlink" width="700" height="1000" style="" viewBox="0 0 700 1000"><rect x="0" y="0" width="700" height="1000" style="fill: rgb(255, 255, 255); fill-opacity: 1;"/><defs id="defs-41d454"><g class="clips"><clipPath id="clip41d454xyplot" class="plotclip"><rect width="534" height="114.0625"/></clipPath><clipPath id="clip41d454x2y2plot" class="plotclip"><rect width="534" height="114.0625"/></clipPath><clipPath id="clip41d454x3y3plot" class="plotclip"><rect width="534" height="114.0625"/></clipPath><clipPath id="clip41d454x4y4plot" class="plotclip"><rect width="534" height="114.0625"/></clipPath><clipPath class="axesclip" id="clip41d454x"><rect x="86" y="0" width="534" height="1000"/></clipPath><clipPath class="axesclip" id="clip41d454y"><rect x="0" y="100" width="700" height="114.0625"/></clipPath><clipPath class="axesclip" id="clip41d454xy"><rect x="86" y="100" width="534" height="114.0625"/></clipPath><clipPath class="axesclip" id="clip41d454y2"><rect x="0" y="305.3125" width="700" height="114.0625"/></clipPath><clipPath class="axesclip" id="clip41d454xy2"><rect x="86" y="305.3125" width="534" height="114.0625"/></clipPath><clipPath class="axesclip" id="clip41d454y3"><rect x="0" y="510.625" width="700" height="114.0625"/></clipPath><clipPath class="axesclip" id="clip41d454xy3"><rect x="86" y="510.625" width="534" height="114.0625"/></clipPath><clipPath class="axesclip" id="clip41d454y4"><rect x="0" y="715.9375" width="700" height="114.0625"/></clipPath><clipPath class="axesclip" id="clip41d454xy4"><rect x="86" y="715.9375" width="534" height="114.0625"/></clipPath><clipPath class="axesclip" id="clip41d454x2"><rect x="86" y="0" width="534" height="1000"/></clipPath><clipPath class="axesclip" id="clip41d454x2y"><rect x="86" y="100" width="534" height="114.0625"/></clipPath><clipPath class="axesclip" id="clip41d454x2y2"><rect x="86" y="305.3125" width="534" height="114.0625"/></clipPath><clipPath class="axesclip" id="clip41d454x2y3"><rect x="86" y="510.625" width="534" height="114.0625"/></clipPath><clipPath class="axesclip" id="clip41d454x2y4"><rect x="86" y="715.9375" width="534" height="114.0625"/></clipPath><clipPath class="axesclip" id="clip41d454x3"><rect x="86" y="0" width="534" height="1000"/></clipPath><clipPath class="axesclip" id="clip41d454x3y"><rect x="86" y="100" width="534" height="114.0625"/></clipPath><clipPath class="axesclip" id="clip41d454x3y2"><rect x="86" y="305.3125" width="534" height="114.0625"/></clipPath><clipPath class="axesclip" id="clip41d454x3y3"><rect x="86" y="510.625" width="534" height="114.0625"/></clipPath><clipPath class="axesclip" id="clip41d454x3y4"><rect x="86" y="715.9375" width="534" height="114.0625"/></clipPath><clipPath class="axesclip" id="clip41d454x4"><rect x="86" y="0" width="534" height="1000"/></clipPath><clipPath class="axesclip" id="clip41d454x4y"><rect x="86" y="100" width="534" height="114.0625"/></clipPath><clipPath class="axesclip" id="clip41d454x4y2"><rect x="86" y="305.3125" width="534" height="114.0625"/></clipPath><clipPath class="axesclip" id="clip41d454x4y3"><rect x="86" y="510.625" width="534" height="114.0625"/></clipPath><clipPath class="axesclip" id="clip41d454x4y4"><rect x="86" y="715.9375" width="534" height="114.0625"/></clipPath></g><g class="gradients"/><g class="patterns"/></defs><g class="bglayer"><rect class="bg" x="86" y="100" width="534" height="114.0625" style="fill: rgb(229, 236, 246); fill-opacity: 1; stroke-width: 0;"/><rect class="bg" x="86" y="305.3125" width="534" height="114.0625" style="fill: rgb(229, 236, 246); fill-opacity: 1; stroke-width: 0;"/><rect class="bg" x="86" y="510.625" width="534" height="114.0625" style="fill: rgb(229, 236, 246); fill-opacity: 1; stroke-width: 0;"/><rect class="bg" x="86" y="715.9375" width="534" height="114.0625" style="fill: rgb(229, 236, 246); fill-opacity: 1; stroke-width: 0;"/></g><g class="layer-below"><g class="imagelayer"/><g class="shapelayer"/></g><g class="cartesianlayer"><g class="subplot xy"><g class="layer-subplot"><g class="shapelayer"/><g class="imagelayer"/></g><g class="minor-gridlayer"><g class="x"/><g class="y"/></g><g class="gridlayer"><g class="x"><path class="xgrid crisp" transform="translate(172.89,0)" d="M0,100v114.0625" style="stroke: rgb(255, 255, 255); stroke-opacity: 1; stroke-width: 1px;"/><path class="xgrid crisp" transform="translate(262.31,0)" d="M0,100v114.0625" style="stroke: rgb(255, 255, 255); stroke-opacity: 1; stroke-width: 1px;"/><path class="xgrid crisp" transform="translate(351.73,0)" d="M0,100v114.0625" style="stroke: rgb(255, 255, 255); stroke-opacity: 1; stroke-width: 1px;"/><path class="xgrid crisp" transform="translate(441.16,0)" d="M0,100v114.0625" style="stroke: rgb(255, 255, 255); stroke-opacity: 1; stroke-width: 1px;"/><path class="xgrid crisp" transform="translate(530.5799999999999,0)" d="M0,100v114.0625" style="stroke: rgb(255, 255, 255); stroke-opacity: 1; stroke-width: 1px;"/></g><g class="y"><path class="ygrid crisp" transform="translate(0,208.5)" d="M86,0h534" style="stroke: rgb(255, 255, 255); stroke-opacity: 1; stroke-width: 1px;"/><path class="ygrid crisp" transform="translate(0,182.82)" d="M86,0h534" style="stroke: rgb(255, 255, 255); stroke-opacity: 1; stroke-width: 1px;"/><path class="ygrid crisp" transform="translate(0,131.47)" d="M86,0h534" style="stroke: rgb(255, 255, 255); stroke-opacity: 1; stroke-width: 1px;"/><path class="ygrid crisp" transform="translate(0,105.79)" d="M86,0h534" style="stroke: rgb(255, 255, 255); stroke-opacity: 1; stroke-width: 1px;"/></g></g><g class="zerolinelayer"><path class="yzl zl crisp" transform="translate(0,157.14)" d="M86,0h534" style="stroke: rgb(255, 255, 255); stroke-opacity: 1; stroke-width: 2px;"/></g><path class="xlines-below"/><path class="ylines-below"/><g class="overlines-below"/><g class="xaxislayer-below"/><g class="yaxislayer-below"/><g class="overaxes-below"/><g class="plot" transform="translate(86,100)" clip-path="url(#clip41d454xyplot)"><g class="scatterlayer mlayer"><g class="trace scatter trace70ecce" style="stroke-miterlimit: 2; opacity: 1;"><g class="fills"/><g class="errorbars"/><g class="lines"><path class="js-line" d="M0,52.58L12.79,30.81L14.08,28.84L20.51,19.97L23.65,16.28L28.14,11.91L32.82,8.54L38.97,6.11L46.12,6.28L52.69,9.25L59.84,15.37L67,24.11L74.15,34.92L86.69,56.79L88.01,59.18L100.28,80.42L107.27,90.85L113.7,98.68L120.86,104.89L128.01,108.09L133.73,108.36L139.28,106.64L146.43,101.68L153.58,93.93L160.74,83.86L178.12,53.87L182.64,45.82L194.54,26.45L196.39,23.84L200.09,19.06L207.24,11.69L214.39,7.17L220.52,5.8L226.85,6.86L234,11.03L241.15,18.11L248.31,27.63L262.61,51.53L265.19,56.17L280.64,82.83L284.62,88.77L291.77,97.84L298.93,104.35L306.08,107.9L313.23,108.25L318.87,106.27L324.39,102.45L331.55,95.02L338.7,85.21L353.01,61.01L356.31,55.06L370.54,30.71L372.04,28.43L378.65,19.41L381.64,15.96L389.86,8.93L395.2,6.48L401.16,5.84L406.96,7.37L414.11,12.09L421.27,19.63L428.42,29.53L435.57,41.17L461.98,86.62L465.73,91.89L472.88,100.2L480.04,105.81L487.19,108.36L493.67,107.89L499.63,105.15L505.52,100.37L512.67,92.12L519.83,81.67L534,57.14" style="vector-effect: non-scaling-stroke; fill: none; stroke: rgb(0, 0, 0); stroke-opacity: 1; stroke-width: 2px; opacity: 1; stroke-dasharray: 9px, 9px;"/></g><g class="points"/><g class="text"/></g><g class="trace scatter trace13a357" style="stroke-miterlimit: 2; opacity: 1;"><g class="fills"/><g class="errorbars"/><g class="lines"><path class="js-line" d="M0,53.31L14.08,29.36L15.43,27.33L23.65,16.62L28.14,12.14L32.82,8.67L38.97,6.09L46.12,6.08L52.69,8.89L59.84,14.84L67,23.44L81.26,46.04L82.97,49.17L100.28,79.66L107.27,90.2L113.7,98.15L120.86,104.51L128.01,107.9L133.73,108.31L139.28,106.74L146.43,101.95L153.58,94.34L160.74,84.38L175.05,60.13L178.12,54.61L193.62,28.31L194.54,26.94L200.09,19.44L207.24,11.92L214.39,7.24L220.52,5.71L226.85,6.61L234,10.61L241.15,17.53L248.31,26.92L262.61,50.45L265.19,55.35L284.62,88.09L291.77,97.29L298.93,103.96L306.08,107.68L313.23,108.23L318.87,106.38L324.39,102.7L331.55,95.41L338.7,85.72L345.85,74.23L373.48,26.81L375.77,23.56L381.64,16.28L385.63,12.32L389.86,9.07L395.2,6.49L401.16,5.7L406.96,7.09L414.11,11.64L421.27,19.03L428.42,28.8L435.57,40.28L461.98,85.93L465.73,91.25L472.88,99.7L480.04,105.47L487.19,108.2L493.67,107.91L499.63,105.31L505.52,100.67L512.67,92.55L519.83,82.21L534,57.87" style="vector-effect: non-scaling-stroke; fill: none; stroke: rgb(239, 85, 59); stroke-opacity: 1; stroke-width: 2px; opacity: 1;"/></g><g class="points"/><g class="text"/></g></g></g><g class="overplot"/><path class="xlines-above crisp" d="M0,0" style="fill: none;"/><path class="ylines-above crisp" d="M0,0" style="fill: none;"/><g class="overlines-above"/><g class="xaxislayer-above"><g class="xtick"><text text-anchor="middle" x="0" y="227.0625" transform="translate(172.89,0)" style="font-family: Arial; font-size: 12px; fill: rgb(0, 0, 0); fill-opacity: 1; white-space: pre; opacity: 1;">1.05ms</text></g><g class="xtick"><text text-anchor="middle" x="0" y="227.0625" style="font-family: Arial; font-size: 12px; fill: rgb(0, 0, 0); fill-opacity: 1; white-space: pre; opacity: 1;" transform="translate(262.31,0)">1.10ms</text></g><g class="xtick"><text text-anchor="middle" x="0" y="227.0625" style="font-family: Arial; font-size: 12px; fill: rgb(0, 0, 0); fill-opacity: 1; white-space: pre; opacity: 1;" transform="translate(351.73,0)">1.15ms</text></g><g class="xtick"><text text-anchor="middle" x="0" y="227.0625" style="font-family: Arial; font-size: 12px; fill: rgb(0, 0, 0); fill-opacity: 1; white-space: pre; opacity: 1;" transform="translate(441.16,0)">1.20ms</text></g><g class="xtick"><text text-anchor="middle" x="0" y="227.0625" style="font-family: Arial; font-size: 12px; fill: rgb(0, 0, 0); fill-opacity: 1; white-space: pre; opacity: 1;" transform="translate(530.5799999999999,0)">1.25ms</text></g><g class="xtick"><text text-anchor="middle" x="0" y="227.0625" style="font-family: Arial; font-size: 12px; fill: rgb(0, 0, 0); fill-opacity: 1; white-space: pre; opacity: 1;" transform="translate(620,0)">1.30ms</text></g></g><g class="yaxislayer-above"><g class="ytick"><text text-anchor="end" x="85" y="4.199999999999999" transform="translate(0,208.5)" style="font-family: Arial; font-size: 12px; fill: rgb(0, 0, 0); fill-opacity: 1; white-space: pre; opacity: 1;">−1.00V</text></g><g class="ytick"><text text-anchor="end" x="85" y="4.199999999999999" style="font-family: Arial; font-size: 12px; fill: rgb(0, 0, 0); fill-opacity: 1; white-space: pre; opacity: 1;" transform="translate(0,182.82)">−500mV</text></g><g class="ytick"><text text-anchor="end" x="85" y="4.199999999999999" style="font-family: Arial; font-size: 12px; fill: rgb(0, 0, 0); fill-opacity: 1; white-space: pre; opacity: 1;" transform="translate(0,157.14)">0.00V</text></g><g class="ytick"><text text-anchor="end" x="85" y="4.199999999999999" style="font-family: Arial; font-size: 12px; fill: rgb(0, 0, 0); fill-opacity: 1; white-space: pre; opacity: 1;" transform="translate(0,131.47)">500mV</text></g><g class="ytick"><text text-anchor="end" x="85" y="4.199999999999999" style="font-family: Arial; font-size: 12px; fill: rgb(0, 0, 0); fill-opacity: 1; white-space: pre; opacity: 1;" transform="translate(0,105.79)">1.00V</text></g></g><g class="overaxes-above"/></g><g class="subplot x2y2"><g class="layer-subplot"><g class="shapelayer"/><g class="imagelayer"/></g><g class="minor-gridlayer"><g class="x2"/><g class="y2"/></g><g class="gridlayer"><g class="x2"><path class="x2grid crisp" transform="translate(172.89,0)" d="M0,305.3125v114.0625" style="stroke: rgb(255, 255, 255); stroke-opacity: 1; stroke-width: 1px;"/><path class="x2grid crisp" transform="translate(262.31,0)" d="M0,305.3125v114.0625" style="stroke: rgb(255, 255, 255); stroke-opacity: 1; stroke-width: 1px;"/><path class="x2grid crisp" transform="translate(351.73,0)" d="M0,305.3125v114.0625" style="stroke: rgb(255, 255, 255); stroke-opacity: 1; stroke-width: 1px;"/><path class="x2grid crisp" transform="translate(441.16,0)" d="M0,305.3125v114.0625" style="stroke: rgb(255, 255, 255); stroke-opacity: 1; stroke-width: 1px;"/><path class="x2grid crisp" transform="translate(530.5799999999999,0)" d="M0,305.3125v114.0625" style="stroke: rgb(255, 255, 255); stroke-opacity: 1; stroke-width: 1px;"/></g><g class="y2"><path class="y2grid crisp" transform="translate(0,410.8925)" d="M86,0h534" style="stroke: rgb(255, 255, 255); stroke-opacity: 1; stroke-width: 1px;"/><path class="y2grid crisp" transform="translate(0,383.5825)" d="M86,0h534" style="stroke: rgb(255, 255, 255); stroke-opacity: 1; stroke-width: 1px;"/><path class="y2grid crisp" transform="translate(0,328.9525)" d="M86,0h534" style="stroke: rgb(255, 255, 255); stroke-opacity: 1; stroke-width: 1px;"/></g></g><g class="zerolinelayer"><path class="y2zl zl crisp" transform="translate(0,356.2625)" d="M86,0h534" style="stroke: rgb(255, 255, 255); stroke-opacity: 1; stroke-width: 2px;"/></g><path class="xlines-below"/><path class="ylines-below"/><g class="overlines-below"/><g class="xaxislayer-below"/><g class="yaxislayer-below"/><g class="overaxes-below"/><g class="plot" transform="translate(86,305.3125)" clip-path="url(#clip41d454x2y2plot)"><g class="scatterlayer mlayer"><g class="trace scatter trace89df87" style="stroke-miterlimit: 2; opacity: 1;"><g class="fills"/><g class="errorbars"/><g class="lines"><path class="js-line" d="M0,11.82L1.57,12.15L3.66,9.91L5.93,6.28L7.11,12.25L8.51,17.76L9.29,17.06L11.86,21.15L12.79,21.83L15.43,24.74L17.42,26.73L28.14,38.38L32.82,44.08L59.84,78.9L67,86.22L74.83,93.87L76.19,96.68L78.08,100.44L80.05,106.65L81.26,105.54L82.97,99.69L84.84,101.15L85.7,100.4L88.01,100.71L89.44,99.46L95.71,94.34L100.28,91.27L107.27,85.74L113.7,79.2L120.86,70.86L128.01,61.17L146.43,36.82L153.58,29.08L160.74,23.02L167.89,18.26L178.12,11.49L182.64,11.41L185.28,5.7L186.58,15.31L187.83,18.9L188.51,17.09L191.01,21.31L191.92,22.28L196.39,26.88L200.09,30.63L207.24,38.54L214.39,47.68L234,73.39L241.15,81.58L255.46,96.27L262.61,108.36L265.19,94.45L266.45,101.74L267.97,101.71L268.68,96.97L270.3,98.4L270.94,96.97L275.31,93.76L277.95,92.16L284.62,87.05L291.77,80.15L306.08,62.38L313.23,52.36L324.39,37.81L331.55,30L338.7,23.65L345.85,18.82L356.31,11.27L359.77,12.87L361.83,8.08L364.08,7.71L366.38,17.86L367.34,17.1L368.86,20.46L369.65,21.39L370.54,21.78L372.04,23.96L375.77,27.45L378.65,30.31L389.86,43.32L395.2,50.19L414.11,75.03L421.27,82.78L428.42,89.85L435.57,98.34L442.73,107.08L445.72,95.03L447.18,101.43L448.51,99.41L449.38,95.2L449.9,96.61L451.07,96.68L451.72,95.18L454.55,93.63L455.8,92.63L461.98,88.09L465.73,85.03L472.88,77.64L480.04,68.83L505.52,35.16L512.67,27.8L519.83,21.98L526.98,17.41L534,12.23" style="vector-effect: non-scaling-stroke; fill: none; stroke: rgb(0, 204, 150); stroke-opacity: 1; stroke-width: 2px; opacity: 1;"/></g><g class="points"/><g class="text"/></g></g></g><g class="overplot"/><path class="xlines-above crisp" d="M0,0" style="fill: none;"/><path class="ylines-above crisp" d="M0,0" style="fill: none;"/><g class="overlines-above"/><g class="xaxislayer-above"><g class="x2tick"><text text-anchor="middle" x="0" y="432.375" transform="translate(172.89,0)" style="font-family: Arial; font-size: 12px; fill: rgb(0, 0, 0); fill-opacity: 1; white-space: pre; opacity: 1;">1.05ms</text></g><g class="x2tick"><text text-anchor="middle" x="0" y="432.375" style="font-family: Arial; font-size: 12px; fill: rgb(0, 0, 0); fill-opacity: 1; white-space: pre; opacity: 1;" transform="translate(262.31,0)">1.10ms</text></g><g class="x2tick"><text text-anchor="middle" x="0" y="432.375" style="font-family: Arial; font-size: 12px; fill: rgb(0, 0, 0); fill-opacity: 1; white-space: pre; opacity: 1;" transform="translate(351.73,0)">1.15ms</text></g><g class="x2tick"><text text-anchor="middle" x="0" y="432.375" style="font-family: Arial; font-size: 12px; fill: rgb(0, 0, 0); fill-opacity: 1; white-space: pre; opacity: 1;" transform="translate(441.16,0)">1.20ms</text></g><g class="x2tick"><text text-anchor="middle" x="0" y="432.375" style="font-family: Arial; font-size: 12px; fill: rgb(0, 0, 0); fill-opacity: 1; white-space: pre; opacity: 1;" transform="translate(530.5799999999999,0)">1.25ms</text></g><g class="x2tick"><text text-anchor="middle" x="0" y="432.375" style="font-family: Arial; font-size: 12px; fill: rgb(0, 0, 0); fill-opacity: 1; white-space: pre; opacity: 1;" transform="translate(620,0)">1.30ms</text></g></g><g class="yaxislayer-above"><g class="y2tick"><text text-anchor="end" x="85" y="4.199999999999999" transform="translate(0,410.8925)" style="font-family: Arial; font-size: 12px; fill: rgb(0, 0, 0); fill-opacity: 1; white-space: pre; opacity: 1;">−20.0mV</text></g><g class="y2tick"><text text-anchor="end" x="85" y="4.199999999999999" style="font-family: Arial; font-size: 12px; fill: rgb(0, 0, 0); fill-opacity: 1; white-space: pre; opacity: 1;" transform="translate(0,383.5825)">−10.0mV</text></g><g class="y2tick"><text text-anchor="end" x="85" y="4.199999999999999" style="font-family: Arial; font-size: 12px; fill: rgb(0, 0, 0); fill-opacity: 1; white-space: pre; opacity: 1;" transform="translate(0,356.2625)">0.00V</text></g><g class="y2tick"><text text-anchor="end" x="85" y="4.199999999999999" style="font-family: Arial; font-size: 12px; fill: rgb(0, 0, 0); fill-opacity: 1; white-space: pre; opacity: 1;" transform="translate(0,328.9525)">10.0mV</text></g></g><g class="overaxes-above"/></g><g class="subplot x3y3"><g class="layer-subplot"><g class="shapelayer"/><g class="imagelayer"/></g><g class="minor-gridlayer"><g class="x3"/><g class="y3"/></g><g class="gridlayer"><g class="x3"><path class="x3grid crisp" transform="translate(172.89,0)" d="M0,510.625v114.0625" style="stroke: rgb(255, 255, 255); stroke-opacity: 1; stroke-width: 1px;"/><path class="x3grid crisp" transform="translate(262.31,0)" d="M0,510.625v114.0625" style="stroke: rgb(255, 255, 255); stroke-opacity: 1; stroke-width: 1px;"/><path class="x3grid crisp" transform="translate(351.73,0)" d="M0,510.625v114.0625" style="stroke: rgb(255, 255, 255); stroke-opacity: 1; stroke-width: 1px;"/><path class="x3grid crisp" transform="translate(441.16,0)" d="M0,510.625v114.0625" style="stroke: rgb(255, 255, 255); stroke-opacity: 1; stroke-width: 1px;"/><path class="x3grid crisp" transform="translate(530.5799999999999,0)" d="M0,510.625v114.0625" style="stroke: rgb(255, 255, 255); stroke-opacity: 1; stroke-width: 1px;"/></g><g class="y3"><path class="y3grid crisp" transform="translate(0,602.065)" d="M86,0h534" style="stroke: rgb(255, 255, 255); stroke-opacity: 1; stroke-width: 1px;"/><path class="y3grid crisp" transform="translate(0,533.525)" d="M86,0h534" style="stroke: rgb(255, 255, 255); stroke-opacity: 1; stroke-width: 1px;"/></g></g><g class="zerolinelayer"><path class="y3zl zl crisp" transform="translate(0,567.795)" d="M86,0h534" style="stroke: rgb(255, 255, 255); stroke-opacity: 1; stroke-width: 2px;"/></g><path class="xlines-below"/><path class="ylines-below"/><g class="overlines-below"/><g class="xaxislayer-below"/><g class="yaxislayer-below"/><g class="overaxes-below"/><g class="plot" transform="translate(86,510.625)" clip-path="url(#clip41d454x3y3plot)"><g class="scatterlayer mlayer"><g class="trace scatter traceeffcd7" style="stroke-miterlimit: 2; opacity: 1;"><g class="fills"/><g class="errorbars"/><g class="lines"><path class="js-line" d="M0,53.33L14.08,29.37L15.43,27.35L23.65,16.62L28.14,12.15L32.82,8.67L38.97,6.09L46.12,6.08L52.69,8.89L59.84,14.85L67,23.45L81.26,46.06L82.97,49.19L100.28,79.7L107.27,90.24L113.7,98.19L120.86,104.56L128.01,107.95L133.73,108.36L139.28,106.79L146.43,102L153.58,94.38L160.74,84.42L175.05,60.16L178.12,54.64L193.62,28.32L194.54,26.95L200.09,19.45L207.24,11.93L214.39,7.24L220.52,5.71L226.85,6.61L234,10.62L241.15,17.54L248.31,26.94L262.61,50.47L265.19,55.37L284.62,88.13L291.77,97.34L298.93,104.01L306.08,107.73L313.23,108.28L318.87,106.43L324.39,102.75L331.55,95.46L338.7,85.76L345.85,74.27L373.48,26.82L375.77,23.57L381.64,16.29L385.63,12.32L389.86,9.07L395.2,6.49L401.16,5.7L406.96,7.09L414.11,11.64L421.27,19.04L428.42,28.81L435.57,40.3L461.98,85.97L465.73,91.29L472.88,99.75L480.04,105.52L487.19,108.25L493.67,107.96L499.63,105.36L505.52,100.72L512.67,92.6L519.83,82.25L534,57.9" style="vector-effect: non-scaling-stroke; fill: none; stroke: rgb(0, 0, 0); stroke-opacity: 1; stroke-width: 2px; opacity: 1; stroke-dasharray: 3px, 3px;"/></g><g class="points"/><g class="text"/></g><g class="trace scatter trace6320fd" style="stroke-miterlimit: 2; opacity: 1;"><g class="fills"/><g class="errorbars"/><g class="lines"><path class="js-line" d="M0,51.48L7.11,40.31L8.51,37.94L17.42,24.41L20.51,20.36L28.14,12.25L32.82,8.82L38.97,6.27L46.12,6.26L52.69,9.03L59.84,14.91L67,23.39L74.15,33.86L86.69,53.24L88.01,54.5L91.01,56.03L93.31,56.49L100.28,56.95L107.27,57.07L167.89,56.75L175.05,55.17L178.12,52.41L182.64,45.73L196.39,24.24L200.09,19.46L207.24,12.04L214.39,7.4L220.52,5.89L226.85,6.78L234,10.74L241.15,17.57L248.31,26.82L255.46,37.77L266.45,54.14L267.97,55.24L271.79,56.44L272.72,56.56L284.62,57.06L291.77,57.11L345.85,56.81L353.01,55.61L356.31,53.19L359.77,48.41L378.65,19.81L381.64,16.34L389.86,9.22L395.2,6.67L401.16,5.89L406.96,7.26L414.11,11.75L421.27,19.05L428.42,28.66L435.57,39.81L445.72,54.56L447.18,55.43L451.72,56.58L452.5,56.66L465.73,57.08L472.88,57.12L526.98,56.64L534,54.29" style="vector-effect: non-scaling-stroke; fill: none; stroke: rgb(255, 161, 90); stroke-opacity: 1; stroke-width: 2px; opacity: 1;"/></g><g class="points"/><g class="text"/></g><g class="trace scatter tracefd654a" style="stroke-miterlimit: 2; opacity: 1;"><g class="fills"/><g class="errorbars"/><g class="lines"><path class="js-line" d="M0,55.29L3.66,56.22L5.93,56.47L20.51,56.93L23.65,56.96L78.08,56.58L80.05,56.43L85.7,55.1L86.69,54.52L89.44,51.75L91.01,49.51L107.27,24.16L113.7,16.29L120.86,9.99L128.01,6.62L133.73,6.22L139.28,7.77L146.43,12.52L153.58,20.06L160.74,29.89L167.89,41.23L175.05,52.19L178.12,54.92L185.28,56.51L186.58,56.61L207.24,56.99L214.39,57.01L255.46,56.66L262.61,55.84L266.45,53.8L267.97,52.18L275.31,40.7L277.95,36.39L284.62,26.2L291.77,17.14L298.93,10.53L306.08,6.84L313.23,6.3L318.87,8.13L324.39,11.78L331.55,19L338.7,28.57L345.85,39.78L353.01,51.04L356.31,54.51L361.83,56.29L364.08,56.51L381.64,56.96L385.63,56.99L435.57,56.59L442.73,55.43L447.18,51.7L448.51,49.82L465.73,23.09L472.88,14.76L480.04,9.03L487.19,6.32L493.67,6.62L499.63,9.19L505.52,13.79L512.67,21.83L519.83,32.02L526.98,43.52L534,53.56" style="vector-effect: non-scaling-stroke; fill: none; stroke: rgb(25, 211, 243); stroke-opacity: 1; stroke-width: 2px; opacity: 1;"/></g><g class="points"/><g class="text"/></g></g></g><g class="overplot"/><path class="xlines-above crisp" d="M0,0" style="fill: none;"/><path class="ylines-above crisp" d="M0,0" style="fill: none;"/><g class="overlines-above"/><g class="xaxislayer-above"><g class="x3tick"><text text-anchor="middle" x="0" y="637.6875" transform="translate(172.89,0)" style="font-family: Arial; font-size: 12px; fill: rgb(0, 0, 0); fill-opacity: 1; white-space: pre; opacity: 1;">1.05ms</text></g><g class="x3tick"><text text-anchor="middle" x="0" y="637.6875" style="font-family: Arial; font-size: 12px; fill: rgb(0, 0, 0); fill-opacity: 1; white-space: pre; opacity: 1;" transform="translate(262.31,0)">1.10ms</text></g><g class="x3tick"><text text-anchor="middle" x="0" y="637.6875" style="font-family: Arial; font-size: 12px; fill: rgb(0, 0, 0); fill-opacity: 1; white-space: pre; opacity: 1;" transform="translate(351.73,0)">1.15ms</text></g><g class="x3tick"><text text-anchor="middle" x="0" y="637.6875" style="font-family: Arial; font-size: 12px; fill: rgb(0, 0, 0); fill-opacity: 1; white-space: pre; opacity: 1;" transform="translate(441.16,0)">1.20ms</text></g><g class="x3tick"><text text-anchor="middle" x="0" y="637.6875" style="font-family: Arial; font-size: 12px; fill: rgb(0, 0, 0); fill-opacity: 1; white-space: pre; opacity: 1;" transform="translate(530.5799999999999,0)">1.25ms</text></g><g class="x3tick"><text text-anchor="middle" x="0" y="637.6875" style="font-family: Arial; font-size: 12px; fill: rgb(0, 0, 0); fill-opacity: 1; white-space: pre; opacity: 1;" transform="translate(620,0)">1.30ms</text></g></g><g class="yaxislayer-above"><g class="y3tick"><text text-anchor="end" x="85" y="4.199999999999999" transform="translate(0,602.065)" style="font-family: Arial; font-size: 12px; fill: rgb(0, 0, 0); fill-opacity: 1; white-space: pre; opacity: 1;">−100mA</text></g><g class="y3tick"><text text-anchor="end" x="85" y="4.199999999999999" style="font-family: Arial; font-size: 12px; fill: rgb(0, 0, 0); fill-opacity: 1; white-space: pre; opacity: 1;" transform="translate(0,567.795)">0.00A</text></g><g class="y3tick"><text text-anchor="end" x="85" y="4.199999999999999" style="font-family: Arial; font-size: 12px; fill: rgb(0, 0, 0); fill-opacity: 1; white-space: pre; opacity: 1;" transform="translate(0,533.525)">100mA</text></g></g><g class="overaxes-above"/></g><g class="subplot x4y4"><g class="layer-subplot"><g class="shapelayer"/><g class="imagelayer"/></g><g class="minor-gridlayer"><g class="x4"/><g class="y4"/></g><g class="gridlayer"><g class="x4"><path class="x4grid crisp" transform="translate(172.89,0)" d="M0,715.9375v114.0625" style="stroke: rgb(255, 255, 255); stroke-opacity: 1; stroke-width: 1px;"/><path class="x4grid crisp" transform="translate(262.31,0)" d="M0,715.9375v114.0625" style="stroke: rgb(255, 255, 255); stroke-opacity: 1; stroke-width: 1px;"/><path class="x4grid crisp" transform="translate(351.73,0)" d="M0,715.9375v114.0625" style="stroke: rgb(255, 255, 255); stroke-opacity: 1; stroke-width: 1px;"/><path class="x4grid crisp" transform="translate(441.16,0)" d="M0,715.9375v114.0625" style="stroke: rgb(255, 255, 255); stroke-opacity: 1; stroke-width: 1px;"/><path class="x4grid crisp" transform="translate(530.5799999999999,0)" d="M0,715.9375v114.0625" style="stroke: rgb(255, 255, 255); stroke-opacity: 1; stroke-width: 1px;"/></g><g class="y4"><path class="y4grid crisp" transform="translate(0,803.2275)" d="M86,0h534" style="stroke: rgb(255, 255, 255); stroke-opacity: 1; stroke-width: 1px;"/><path class="y4grid crisp" transform="translate(0,723.1675)" d="M86,0h534" style="stroke: rgb(255, 255, 255); stroke-opacity: 1; stroke-width: 1px;"/></g></g><g class="zerolinelayer"><path class="y4zl zl crisp" transform="translate(0,763.1975)" d="M86,0h534" style="stroke: rgb(255, 255, 255); stroke-opacity: 1; stroke-width: 2px;"/></g><path class="xlines-below"/><path class="ylines-below"/><g class="overlines-below"/><g class="xaxislayer-below"/><g class="yaxislayer-below"/><g class="overaxes-below"/><g class="plot" transform="translate(86,715.9375)" clip-path="url(#clip41d454x4y4plot)"><g class="scatterlayer mlayer"><g class="trace scatter trace891da1" style="stroke-miterlimit: 2; opacity: 1;"><g class="fills"/><g class="errorbars"/><g class="lines"><path class="js-line" d="M0,56.05L17.42,26.91L20.51,22.42L28.14,13.16L32.82,9.18L38.97,6.17L46.12,6.22L52.69,9.6L59.84,16.57L67,26.21L74.15,37.62L100.28,80.41L107.27,90.22L113.7,97.99L120.86,104.48L128.01,107.98L133.73,108.36L139.28,106.61L146.43,101.52L153.58,93.76L160.74,84.16L178.12,57.29L182.64,49.57L200.09,21.42L207.24,12.93L214.39,7.51L220.52,5.7L226.85,6.86L234,11.65L241.15,19.64L248.31,30L277.95,78.7L280.64,82.59L291.77,97.11L298.93,103.94L306.08,107.73L313.23,108.29L318.87,106.19L324.39,102.34L331.55,94.8L338.7,85.44L356.31,58.38L359.77,52.52L375.77,25.96L378.65,21.77L385.63,13.34L389.86,9.65L395.2,6.6L401.16,5.75L406.96,7.41L414.11,12.86L421.27,21.31L428.42,32.02L455.8,77.18L458.25,80.85L465.73,91.24L472.88,99.53L480.04,105.5L487.19,108.26L493.67,107.93L499.63,105.05L505.52,100.21L512.67,91.97L526.98,71.4L534,60.37" style="vector-effect: non-scaling-stroke; fill: none; stroke: rgb(255, 102, 146); stroke-opacity: 1; stroke-width: 2px; opacity: 1;"/></g><g class="points"/><g class="text"/></g></g></g><g class="overplot"/><path class="xlines-above crisp" d="M0,0" style="fill: none;"/><path class="ylines-above crisp" d="M0,0" style="fill: none;"/><g class="overlines-above"/><g class="xaxislayer-above"><g class="x4tick"><text text-anchor="middle" x="0" y="843" transform="translate(172.89,0)" style="font-family: Arial; font-size: 12px; fill: rgb(0, 0, 0); fill-opacity: 1; white-space: pre; opacity: 1;">1.05ms</text></g><g class="x4tick"><text text-anchor="middle" x="0" y="843" style="font-family: Arial; font-size: 12px; fill: rgb(0, 0, 0); fill-opacity: 1; white-space: pre; opacity: 1;" transform="translate(262.31,0)">1.10ms</text></g><g class="x4tick"><text text-anchor="middle" x="0" y="843" style="font-family: Arial; font-size: 12px; fill: rgb(0, 0, 0); fill-opacity: 1; white-space: pre; opacity: 1;" transform="translate(351.73,0)">1.15ms</text></g><g class="x4tick"><text text-anchor="middle" x="0" y="843" style="font-family: Arial; font-size: 12px; fill: rgb(0, 0, 0); fill-opacity: 1; white-space: pre; opacity: 1;" transform="translate(441.16,0)">1.20ms</text></g><g class="x4tick"><text text-anchor="middle" x="0" y="843" style="font-family: Arial; font-size: 12px; fill: rgb(0, 0, 0); fill-opacity: 1; white-space: pre; opacity: 1;" transform="translate(530.5799999999999,0)">1.25ms</text></g><g class="x4tick"><text text-anchor="middle" x="0" y="843" style="font-family: Arial; font-size: 12px; fill: rgb(0, 0, 0); fill-opacity: 1; white-space: pre; opacity: 1;" transform="translate(620,0)">1.30ms</text></g></g><g class="yaxislayer-above"><g class="y4tick"><text text-anchor="end" x="85" y="4.199999999999999" transform="translate(0,803.2275)" style="font-family: Arial; font-size: 12px; fill: rgb(0, 0, 0); fill-opacity: 1; white-space: pre; opacity: 1;">−1.00mA</text></g><g class="y4tick"><text text-anchor="end" x="85" y="4.199999999999999" style="font-family: Arial; font-size: 12px; fill: rgb(0, 0, 0); fill-opacity: 1; white-space: pre; opacity: 1;" transform="translate(0,763.1975)">0.00A</text></g><g class="y4tick"><text text-anchor="end" x="85" y="4.199999999999999" style="font-family: Arial; font-size: 12px; fill: rgb(0, 0, 0); fill-opacity: 1; white-space: pre; opacity: 1;" transform="translate(0,723.1675)">1.00mA</text></g></g><g class="overaxes-above"/></g></g><g class="polarlayer"/><g class="smithlayer"/><g class="ternarylayer"/><g class="geolayer"/><g class="funnelarealayer"/><g class="pielayer"/><g class="iciclelayer"/><g class="treemaplayer"/><g class="sunburstlayer"/><g class="glimages"/><defs id="topdefs-41d454"><g class="clips"/><clipPath id="legend41d454"><rect width="452" height="48" x="0" y="0"/></clipPath></defs><g class="layer-above"><g class="imagelayer"/><g class="shapelayer"/></g><g class="infolayer"><g class="legend" pointer-events="all" transform="translate(91.34,939.4999999999999)"><rect class="bg" shape-rendering="crispEdges" width="452" height="48" x="0" y="0" style="stroke: rgb(68, 68, 68); stroke-opacity: 1; fill: rgb(255, 255, 255); fill-opacity: 1; stroke-width: 0px;"/><g class="scrollbox" transform="" clip-path="url(#legend41d454)"><g class="groups"><g class="traces" transform="translate(0,14.5)" style="opacity: 1;"><text class="legendtext" text-anchor="start" x="40" y="4.680000000000001" style="font-family: Arial; font-size: 12px; fill: rgb(0, 0, 0); fill-opacity: 1; white-space: pre;">v(Uin)</text><g class="layers" style="opacity: 1;"><g class="legendfill"/><g class="legendlines"><path class="js-line" d="M5,0h30" style="fill: none; stroke: rgb(0, 0, 0); stroke-opacity: 1; stroke-dasharray: 9px, 9px; stroke-width: 2px;"/></g><g class="legendsymbols"><g class="legendpoints"/></g></g><rect class="legendtoggle" x="0" y="-9.5" width="75.515625" height="19" style="fill: rgb(0, 0, 0); fill-opacity: 0;"/></g><g class="traces" transform="translate(121.34375,14.5)" style="opacity: 1;"><text class="legendtext" text-anchor="start" x="40" y="4.680000000000001" style="font-family: Arial; font-size: 12px; fill: rgb(0, 0, 0); fill-opacity: 1; white-space: pre;">v(Uout)</text><g class="layers" style="opacity: 1;"><g class="legendfill"/><g class="legendlines"><path class="js-line" d="M5,0h30" style="fill: none; stroke: rgb(239, 85, 59); stroke-opacity: 1; stroke-width: 2px;"/></g><g class="legendsymbols"><g class="legendpoints"/></g></g><rect class="legendtoggle" x="0" y="-9.5" width="82.84375" height="19" style="fill: rgb(0, 0, 0); fill-opacity: 0;"/></g><g class="traces" transform="translate(242.6875,14.5)" style="opacity: 1;"><text class="legendtext" text-anchor="start" x="40" y="4.680000000000001" style="font-family: Arial; font-size: 12px; fill: rgb(0, 0, 0); fill-opacity: 1; white-space: pre;">v(Uin)-v(Uout)</text><g class="layers" style="opacity: 1;"><g class="legendfill"/><g class="legendlines"><path class="js-line" d="M5,0h30" style="fill: none; stroke: rgb(0, 204, 150); stroke-opacity: 1; stroke-width: 2px;"/></g><g class="legendsymbols"><g class="legendpoints"/></g></g><rect class="legendtoggle" x="0" y="-9.5" width="118.84375" height="19" style="fill: rgb(0, 0, 0); fill-opacity: 0;"/></g><g class="traces" transform="translate(364.03125,14.5)" style="opacity: 1;"><text class="legendtext" text-anchor="start" x="40" y="4.680000000000001" style="font-family: Arial; font-size: 12px; fill: rgb(0, 0, 0); fill-opacity: 1; white-space: pre;">I(RLast)</text><g class="layers" style="opacity: 1;"><g class="legendfill"/><g class="legendlines"><path class="js-line" d="M5,0h30" style="fill: none; stroke: rgb(0, 0, 0); stroke-opacity: 1; stroke-dasharray: 3px, 3px; stroke-width: 2px;"/></g><g class="legendsymbols"><g class="legendpoints"/></g></g><rect class="legendtoggle" x="0" y="-9.5" width="85.1875" height="19" style="fill: rgb(0, 0, 0); fill-opacity: 0;"/></g><g class="traces" transform="translate(0,33.5)" style="opacity: 1;"><text class="legendtext" text-anchor="start" x="40" y="4.680000000000001" style="font-family: Arial; font-size: 12px; fill: rgb(0, 0, 0); fill-opacity: 1; white-space: pre;">Ic(T1)</text><g class="layers" style="opacity: 1;"><g class="legendfill"/><g class="legendlines"><path class="js-line" d="M5,0h30" style="fill: none; stroke: rgb(255, 161, 90); stroke-opacity: 1; stroke-width: 2px;"/></g><g class="legendsymbols"><g class="legendpoints"/></g></g><rect class="legendtoggle" x="0" y="-9.5" width="73.84375" height="19" style="fill: rgb(0, 0, 0); fill-opacity: 0;"/></g><g class="traces" transform="translate(121.34375,33.5)" style="opacity: 1;"><text class="legendtext" text-anchor="start" x="40" y="4.680000000000001" style="font-family: Arial; font-size: 12px; fill: rgb(0, 0, 0); fill-opacity: 1; white-space: pre;">Ic(T2)</text><g class="layers" style="opacity: 1;"><g class="legendfill"/><g class="legendlines"><path class="js-line" d="M5,0h30" style="fill: none; stroke: rgb(25, 211, 243); stroke-opacity: 1; stroke-width: 2px;"/></g><g class="legendsymbols"><g class="legendpoints"/></g></g><rect class="legendtoggle" x="0" y="-9.5" width="73.84375" height="19" style="fill: rgb(0, 0, 0); fill-opacity: 0;"/></g><g class="traces" transform="translate(242.6875,33.5)" style="opacity: 1;"><text class="legendtext" text-anchor="start" x="40" y="4.680000000000001" style="font-family: Arial; font-size: 12px; fill: rgb(0, 0, 0); fill-opacity: 1; white-space: pre;">I(Rshunt)</text><g class="layers" style="opacity: 1;"><g class="legendfill"/><g class="legendlines"><path class="js-line" d="M5,0h30" style="fill: none; stroke: rgb(255, 102, 146); stroke-opacity: 1; stroke-width: 2px;"/></g><g class="legendsymbols"><g class="legendpoints"/></g></g><rect class="legendtoggle" x="0" y="-9.5" width="91.859375" height="19" style="fill: rgb(0, 0, 0); fill-opacity: 0;"/></g></g></g><rect class="scrollbar" rx="20" ry="3" width="0" height="0" x="0" y="0" style="fill: rgb(128, 139, 164); fill-opacity: 1;"/></g><g class="g-gtitle"/><g class="g-xtitle"/><g class="g-x2title"/><g class="g-x3title"/><g class="g-x4title"><text class="x4title" x="353" y="870.8" text-anchor="middle" style="font-family: Arial; font-size: 14px; fill: rgb(0, 0, 0); opacity: 1; font-weight: normal; white-space: pre;">Time</text></g><g class="g-ytitle"><text class="ytitle" transform="rotate(-90,15.168750000000003,157.03125)" x="15.168750000000003" y="157.03125" text-anchor="middle" style="font-family: Arial; font-size: 14px; fill: rgb(0, 0, 0); opacity: 1; font-weight: normal; white-space: pre;">Voltage</text></g><g class="g-y2title" transform="translate(1.1748046875,0)"><text class="y2title" transform="rotate(-90,11.825000000000003,362.34375)" x="11.825000000000003" y="362.34375" text-anchor="middle" style="font-family: Arial; font-size: 14px; fill: rgb(0, 0, 0); opacity: 1; font-weight: normal; white-space: pre;">Voltage</text></g><g class="g-y3title"><text class="y3title" transform="rotate(-90,15.168750000000003,567.65625)" x="15.168750000000003" y="567.65625" text-anchor="middle" style="font-family: Arial; font-size: 14px; fill: rgb(0, 0, 0); opacity: 1; font-weight: normal; white-space: pre;">Current</text></g><g class="g-y4title" transform="translate(1.1748046875,0)"><text class="y4title" transform="rotate(-90,11.825000000000003,772.96875)" x="11.825000000000003" y="772.96875" text-anchor="middle" style="font-family: Arial; font-size: 14px; fill: rgb(0, 0, 0); opacity: 1; font-weight: normal; white-space: pre;">Current</text></g><g class="annotation" data-index="0" style="opacity: 1;"><g class="annotation-text-g" transform="rotate(0,353,89.5)"><g class="cursor-pointer" transform="translate(248,79)"><rect class="bg" x="0.5" y="0.5" width="209" height="20" style="stroke-width: 1px; stroke: rgb(0, 0, 0); stroke-opacity: 0; fill: rgb(0, 0, 0); fill-opacity: 0;"/><text class="annotation-text" text-anchor="middle" x="104.75" y="16" style="font-family: Arial; font-size: 16px; fill: rgb(0, 0, 0); fill-opacity: 1; white-space: pre;">Ein- und Ausgangsspannung</text></g></g></g><g class="annotation" data-index="1" style="opacity: 1;"><g class="annotation-text-g" transform="rotate(0,353,294.8125)"><g class="cursor-pointer" transform="translate(280,284)"><rect class="bg" x="0.5" y="0.5" width="145" height="20" style="stroke-width: 1px; stroke: rgb(0, 0, 0); stroke-opacity: 0; fill: rgb(0, 0, 0); fill-opacity: 0;"/><text class="annotation-text" text-anchor="middle" x="73.03125" y="16" style="font-family: Arial; font-size: 16px; fill: rgb(0, 0, 0); fill-opacity: 1; white-space: pre;">Spannungsdifferenz</text></g></g></g><g class="annotation" data-index="2" style="opacity: 1;"><g class="annotation-text-g" transform="rotate(0,353,500.125)"><g class="cursor-pointer" transform="translate(325,490)"><rect class="bg" x="0.5" y="0.5" width="55" height="20" style="stroke-width: 1px; stroke: rgb(0, 0, 0); stroke-opacity: 0; fill: rgb(0, 0, 0); fill-opacity: 0;"/><text class="annotation-text" text-anchor="middle" x="27.796875" y="16" style="font-family: Arial; font-size: 16px; fill: rgb(0, 0, 0); fill-opacity: 1; white-space: pre;">Ströme</text></g></g></g></g></svg>