<svg class="main-svg" xmlns="http://www.w3.org/2000/svg" xmlns:xlink="http://www.w3.org/1999/xlink" width="700" height="1000" style="" viewBox="0 0 700 1000"><rect x="0" y="0" width="700" height="1000" style="fill: rgb(255, 255, 255); fill-opacity: 1;"/><defs id="defs-613d33"><g class="clips"><clipPath id="clip613d33xyplot" class="plotclip"><rect width="606" height="125.3125"/></clipPath><clipPath id="clip613d33x2y2plot" class="plotclip"><rect width="606" height="125.3125"/></clipPath><clipPath id="clip613d33x3y3plot" class="plotclip"><rect width="606" height="125.3125"/></clipPath><clipPath id="clip613d33x4y4plot" class="plotclip"><rect width="606" height="125.3125"/></clipPath><clipPath class="axesclip" id="clip613d33x"><rect x="74" y="0" width="606" height="1000"/></clipPath><clipPath class="axesclip" id="clip613d33y"><rect x="0" y="30" width="700" height="125.3125"/></clipPath><clipPath class="axesclip" id="clip613d33xy"><rect x="74" y="30" width="606" height="125.3125"/></clipPath><clipPath class="axesclip" id="clip613d33y2"><rect x="0" y="255.5625" width="700" height="125.3125"/></clipPath><clipPath class="axesclip" id="clip613d33xy2"><rect x="74" y="255.5625" width="606" height="125.3125"/></clipPath><clipPath class="axesclip" id="clip613d33y3"><rect x="0" y="481.125" width="700" height="125.3125"/></clipPath><clipPath class="axesclip" id="clip613d33xy3"><rect x="74" y="481.125" width="606" height="125.3125"/></clipPath><clipPath class="axesclip" id="clip613d33y4"><rect x="0" y="706.6875" width="700" height="125.3125"/></clipPath><clipPath class="axesclip" id="clip613d33xy4"><rect x="74" y="706.6875" width="606" height="125.3125"/></clipPath><clipPath class="axesclip" id="clip613d33x2"><rect x="74" y="0" width="606" height="1000"/></clipPath><clipPath class="axesclip" id="clip613d33x2y"><rect x="74" y="30" width="606" height="125.3125"/></clipPath><clipPath class="axesclip" id="clip613d33x2y2"><rect x="74" y="255.5625" width="606" height="125.3125"/></clipPath><clipPath class="axesclip" id="clip613d33x2y3"><rect x="74" y="481.125" width="606" height="125.3125"/></clipPath><clipPath class="axesclip" id="clip613d33x2y4"><rect x="74" y="706.6875" width="606" height="125.3125"/></clipPath><clipPath class="axesclip" id="clip613d33x3"><rect x="74" y="0" width="606" height="1000"/></clipPath><clipPath class="axesclip" id="clip613d33x3y"><rect x="74" y="30" width="606" height="125.3125"/></clipPath><clipPath class="axesclip" id="clip613d33x3y2"><rect x="74" y="255.5625" width="606" height="125.3125"/></clipPath><clipPath class="axesclip" id="clip613d33x3y3"><rect x="74" y="481.125" width="606" height="125.3125"/></clipPath><clipPath class="axesclip" id="clip613d33x3y4"><rect x="74" y="706.6875" width="606" height="125.3125"/></clipPath><clipPath class="axesclip" id="clip613d33x4"><rect x="74" y="0" width="606" height="1000"/></clipPath><clipPath class="axesclip" id="clip613d33x4y"><rect x="74" y="30" width="606" height="125.3125"/></clipPath><clipPath class="axesclip" id="clip613d33x4y2"><rect x="74" y="255.5625" width="606" height="125.3125"/></clipPath><clipPath class="axesclip" id="clip613d33x4y3"><rect x="74" y="481.125" width="606" height="125.3125"/></clipPath><clipPath class="axesclip" id="clip613d33x4y4"><rect x="74" y="706.6875" width="606" height="125.3125"/></clipPath></g><g class="gradients"/><g class="patterns"/></defs><g class="bglayer"><rect class="bg" x="74" y="30" width="606" height="125.3125" style="fill: rgb(229, 236, 246); fill-opacity: 1; stroke-width: 0;"/><rect class="bg" x="74" y="255.5625" width="606" height="125.3125" style="fill: rgb(229, 236, 246); fill-opacity: 1; stroke-width: 0;"/><rect class="bg" x="74" y="481.125" width="606" height="125.3125" style="fill: rgb(229, 236, 246); fill-opacity: 1; stroke-width: 0;"/><rect class="bg" x="74" y="706.6875" width="606" height="125.3125" style="fill: rgb(229, 236, 246); fill-opacity: 1; stroke-width: 0;"/></g><g class="layer-below"><g class="imagelayer"/><g class="shapelayer"/></g><g class="cartesianlayer"><g class="subplot xy"><g class="layer-subplot"><g class="shapelayer"/><g class="imagelayer"/></g><g class="minor-gridlayer"><g class="x"/><g class="y"/></g><g class="gridlayer"><g class="x"><path class="xgrid crisp" transform="translate(173.95,0)" d="M0,30v125.3125" style="stroke: rgb(255, 255, 255); stroke-opacity: 1; stroke-width: 1px;"/><path class="xgrid crisp" transform="translate(275.15999999999997,0)" d="M0,30v125.3125" style="stroke: rgb(255, 255, 255); stroke-opacity: 1; stroke-width: 1px;"/><path class="xgrid crisp" transform="translate(376.37,0)" d="M0,30v125.3125" style="stroke: rgb(255, 255, 255); stroke-opacity: 1; stroke-width: 1px;"/><path class="xgrid crisp" transform="translate(477.58,0)" d="M0,30v125.3125" style="stroke: rgb(255, 255, 255); stroke-opacity: 1; stroke-width: 1px;"/><path class="xgrid crisp" transform="translate(578.79,0)" d="M0,30v125.3125" style="stroke: rgb(255, 255, 255); stroke-opacity: 1; stroke-width: 1px;"/></g><g class="y"><path class="ygrid crisp" transform="translate(0,149.05)" d="M74,0h606" style="stroke: rgb(255, 255, 255); stroke-opacity: 1; stroke-width: 1px;"/><path class="ygrid crisp" transform="translate(0,120.88)" d="M74,0h606" style="stroke: rgb(255, 255, 255); stroke-opacity: 1; stroke-width: 1px;"/><path class="ygrid crisp" transform="translate(0,64.55)" d="M74,0h606" style="stroke: rgb(255, 255, 255); stroke-opacity: 1; stroke-width: 1px;"/><path class="ygrid crisp" transform="translate(0,36.38)" d="M74,0h606" style="stroke: rgb(255, 255, 255); stroke-opacity: 1; stroke-width: 1px;"/></g></g><g class="zerolinelayer"><path class="yzl zl crisp" transform="translate(0,92.72)" d="M74,0h606" style="stroke: rgb(255, 255, 255); stroke-opacity: 1; stroke-width: 2px;"/></g><g class="layer-between"><g class="shapelayer"/><g class="imagelayer"/></g><path class="xlines-below"/><path class="ylines-below"/><g class="overlines-below"/><g class="xaxislayer-below"/><g class="yaxislayer-below"/><g class="overaxes-below"/><g class="overplot"><g class="xy" transform="translate(74,30)" clip-path="url(#clip613d33xyplot)"><g class="scatterlayer mlayer"><g class="trace scatter tracedb75ed" style="stroke-miterlimit: 2; opacity: 1;"><g class="fills"/><g class="errorbars"/><g class="lines"><path class="js-line" d="M0,60.5L14.74,35.87L16.61,33.03L26.73,19.69L28.76,17.49L34.83,12L36.86,10.56L42.93,7.5L44.95,6.91L51.03,6.46L53.05,6.76L59.12,8.96L61.15,10.13L67.22,14.84L69.24,16.8L77.34,26.35L79.36,29.13L89.74,45.17L90.24,46.01L120.27,95.95L122.3,98.74L130.39,108.38L132.42,110.36L138.49,115.15L140.52,116.34L146.59,118.62L148.61,118.95L154.68,118.58L156.71,118.02L162.78,115.04L164.81,113.62L170.88,108.2L172.9,106.02L181,95.71L183.02,92.77L194.67,73.98L195.93,71.81L219.15,32.86L221.17,29.92L229.27,19.56L231.3,17.37L237.37,11.91L239.39,10.49L245.47,7.46L247.49,6.88L253.56,6.47L255.59,6.78L261.66,9.02L263.68,10.2L269.76,14.95L271.78,16.91L279.88,26.51L281.9,29.29L292.02,44.94L294.05,48.33L320.86,93.31L322.88,96.21L330.98,106.43L333.01,108.57L339.08,113.89L341.1,115.27L347.18,118.14L349.2,118.66L355.27,118.9L357.3,118.54L363.37,116.14L365.39,114.91L371.47,110.02L373.49,108L381.59,98.25L383.61,95.44L393.73,79.66L395.76,76.26L422.54,31.44L424.56,28.56L432.66,18.5L434.68,16.39L440.76,11.21L442.78,9.88L448.85,7.15L450.88,6.68L456.95,6.59L458.97,7.01L465.05,9.56L467.07,10.83L473.14,15.86L475.17,17.92L483.27,27.82L485.29,30.66L496.99,49.22L497.37,49.85L521.95,91.32L523.97,94.31L532.07,104.92L534.09,107.18L540.17,112.87L542.19,114.38L548.26,117.67L550.29,118.34L556.36,119.02L558.38,118.8L564.46,116.83L566.48,115.74L572.55,111.24L574.58,109.35L582.67,100.03L584.7,97.31L594.82,81.88L596.84,78.51L606,62.72" style="vector-effect: none; fill: none; stroke: rgb(0, 0, 0); stroke-opacity: 1; stroke-dasharray: 9px, 9px; stroke-width: 2px; opacity: 1;"/></g><g class="points"/><g class="text"/></g><g class="trace scatter trace4dec48" style="stroke-miterlimit: 2; opacity: 1;"><g class="fills"/><g class="errorbars"/><g class="lines"><path class="js-line" d="M0,61.4L16.61,33.7L18.64,30.72L26.73,20.16L28.76,17.91L34.83,12.28L36.86,10.79L42.93,7.56L44.95,6.92L51.03,6.3L53.05,6.54L59.12,8.58L61.15,9.69L67.22,14.25L69.24,16.17L77.34,25.55L79.36,28.29L90.24,44.89L91.26,46.53L105.57,71.43L106.44,72.94L118.25,92.14L120.27,95.09L128.37,105.51L130.39,107.72L136.47,113.24L138.49,114.69L144.56,117.79L146.59,118.39L152.66,118.88L154.68,118.59L160.76,116.42L162.78,115.27L168.85,110.59L170.88,108.64L178.98,99.11L181,96.34L191.12,80.76L193.14,77.39L221.17,30.55L223.2,27.7L231.3,17.79L233.32,15.74L239.39,10.71L241.42,9.43L247.49,6.89L249.51,6.47L255.59,6.56L257.61,7.04L263.68,9.76L265.71,11.09L271.78,16.28L273.8,18.38L281.9,28.45L283.93,31.32L296.34,51.02L297.34,52.81L318.84,89.36L320.86,92.42L328.96,103.37L330.98,105.73L339.08,113.39L341.1,114.82L347.18,117.86L349.2,118.44L355.27,118.86L357.3,118.55L363.37,116.32L365.39,115.15L371.47,110.41L373.49,108.44L381.59,98.85L383.61,96.07L393.73,80.45L395.76,77.07L422.54,32.09L424.56,29.17L432.66,18.94L434.68,16.79L440.76,11.46L442.78,10.07L448.85,7.19L450.88,6.66L456.95,6.4L458.97,6.76L465.05,9.15L467.07,10.37L473.14,15.25L475.17,17.26L483.27,27L485.29,29.8L497.37,48.6L498.09,49.84L521.95,90.41L523.97,93.43L532.07,104.19L534.09,106.49L540.17,112.33L542.19,113.9L548.26,117.35L550.29,118.08L556.36,118.94L558.38,118.78L564.46,116.98L566.48,115.95L572.55,111.61L574.58,109.76L582.67,100.61L584.7,97.92L594.82,82.64L596.84,79.3L606,63.61" style="vector-effect: none; fill: none; stroke: rgb(239, 85, 59); stroke-opacity: 1; stroke-width: 2px; opacity: 1;"/></g><g class="points"/><g class="text"/></g></g></g></g><path class="xlines-above crisp" d="M0,0" style="fill: none;"/><path class="ylines-above crisp" d="M0,0" style="fill: none;"/><g class="overlines-above"/><g class="xaxislayer-above"><g class="xtick"><text text-anchor="middle" x="0" y="168.3125" transform="translate(173.95,0)" style="font-family: Arial; font-size: 12px; fill: rgb(0, 0, 0); fill-opacity: 1; white-space: pre; opacity: 1;">1.05ms</text></g><g class="xtick"><text text-anchor="middle" x="0" y="168.3125" style="font-family: Arial; font-size: 12px; fill: rgb(0, 0, 0); fill-opacity: 1; white-space: pre; opacity: 1;" transform="translate(275.15999999999997,0)">1.10ms</text></g><g class="xtick"><text text-anchor="middle" x="0" y="168.3125" style="font-family: Arial; font-size: 12px; fill: rgb(0, 0, 0); fill-opacity: 1; white-space: pre; opacity: 1;" transform="translate(376.37,0)">1.15ms</text></g><g class="xtick"><text text-anchor="middle" x="0" y="168.3125" style="font-family: Arial; font-size: 12px; fill: rgb(0, 0, 0); fill-opacity: 1; white-space: pre; opacity: 1;" transform="translate(477.58,0)">1.20ms</text></g><g class="xtick"><text text-anchor="middle" x="0" y="168.3125" style="font-family: Arial; font-size: 12px; fill: rgb(0, 0, 0); fill-opacity: 1; white-space: pre; opacity: 1;" transform="translate(578.79,0)">1.25ms</text></g><g class="xtick"><text text-anchor="middle" x="0" y="168.3125" style="font-family: Arial; font-size: 12px; fill: rgb(0, 0, 0); fill-opacity: 1; white-space: pre; opacity: 1;" transform="translate(680,0)">1.30ms</text></g></g><g class="yaxislayer-above"><g class="ytick"><text text-anchor="end" x="73" y="4.199999999999999" transform="translate(0,149.05)" style="font-family: Arial; font-size: 12px; fill: rgb(0, 0, 0); fill-opacity: 1; white-space: pre; opacity: 1;">−1.00V</text></g><g class="ytick"><text text-anchor="end" x="73" y="4.199999999999999" style="font-family: Arial; font-size: 12px; fill: rgb(0, 0, 0); fill-opacity: 1; white-space: pre; opacity: 1;" transform="translate(0,120.88)">−500mV</text></g><g class="ytick"><text text-anchor="end" x="73" y="4.199999999999999" style="font-family: Arial; font-size: 12px; fill: rgb(0, 0, 0); fill-opacity: 1; white-space: pre; opacity: 1;" transform="translate(0,92.72)">0.00V</text></g><g class="ytick"><text text-anchor="end" x="73" y="4.199999999999999" style="font-family: Arial; font-size: 12px; fill: rgb(0, 0, 0); fill-opacity: 1; white-space: pre; opacity: 1;" transform="translate(0,64.55)">500mV</text></g><g class="ytick"><text text-anchor="end" x="73" y="4.199999999999999" style="font-family: Arial; font-size: 12px; fill: rgb(0, 0, 0); fill-opacity: 1; white-space: pre; opacity: 1;" transform="translate(0,36.38)">1.00V</text></g></g><g class="overaxes-above"/></g><g class="subplot x2y2"><g class="layer-subplot"><g class="shapelayer"/><g class="imagelayer"/></g><g class="minor-gridlayer"><g class="x2"/><g class="y2"/></g><g class="gridlayer"><g class="x2"><path class="x2grid crisp" transform="translate(173.95,0)" d="M0,255.5625v125.3125" style="stroke: rgb(255, 255, 255); stroke-opacity: 1; stroke-width: 1px;"/><path class="x2grid crisp" transform="translate(275.15999999999997,0)" d="M0,255.5625v125.3125" style="stroke: rgb(255, 255, 255); stroke-opacity: 1; stroke-width: 1px;"/><path class="x2grid crisp" transform="translate(376.37,0)" d="M0,255.5625v125.3125" style="stroke: rgb(255, 255, 255); stroke-opacity: 1; stroke-width: 1px;"/><path class="x2grid crisp" transform="translate(477.58,0)" d="M0,255.5625v125.3125" style="stroke: rgb(255, 255, 255); stroke-opacity: 1; stroke-width: 1px;"/><path class="x2grid crisp" transform="translate(578.79,0)" d="M0,255.5625v125.3125" style="stroke: rgb(255, 255, 255); stroke-opacity: 1; stroke-width: 1px;"/></g><g class="y2"><path class="y2grid crisp" transform="translate(0,368.3725)" d="M74,0h606" style="stroke: rgb(255, 255, 255); stroke-opacity: 1; stroke-width: 1px;"/><path class="y2grid crisp" transform="translate(0,340.3525)" d="M74,0h606" style="stroke: rgb(255, 255, 255); stroke-opacity: 1; stroke-width: 1px;"/><path class="y2grid crisp" transform="translate(0,284.3225)" d="M74,0h606" style="stroke: rgb(255, 255, 255); stroke-opacity: 1; stroke-width: 1px;"/></g></g><g class="zerolinelayer"><path class="y2zl zl crisp" transform="translate(0,312.3425)" d="M74,0h606" style="stroke: rgb(255, 255, 255); stroke-opacity: 1; stroke-width: 2px;"/></g><g class="layer-between"><g class="shapelayer"/><g class="imagelayer"/></g><path class="xlines-below"/><path class="ylines-below"/><g class="overlines-below"/><g class="xaxislayer-below"/><g class="yaxislayer-below"/><g class="overaxes-below"/><g class="overplot"><g class="x2y2" transform="translate(74,255.5625)" clip-path="url(#clip613d33x2y2plot)"><g class="scatterlayer mlayer"><g class="trace scatter tracee25d9c" style="stroke-miterlimit: 2; opacity: 1;"><g class="fills"/><g class="errorbars"/><g class="lines"><path class="js-line" d="M0,12.23L3.06,12.05L4.14,11.24L6.56,7.27L6.86,6.8L7.71,6.55L8.05,7.34L11.24,17.08L12.72,19.03L16.61,23.52L18.64,25.45L32.81,40.52L34.83,42.98L49,61.89L51.03,64.72L65.19,83.4L67.22,85.85L77.34,96.58L79.36,98.5L87.46,106.88L89.49,110.36L91.26,115.4L92.52,118.95L93.78,118.09L95.22,113.31L96.29,112.44L97.5,112.78L100,112.32L101.86,112.49L107.39,108.78L108.33,108.09L120.27,99.37L122.3,97.59L130.39,89.35L132.42,87.01L142.54,73.87L144.56,71.01L168.85,37.46L170.88,35.13L178.98,26.94L181,25.19L189.1,19.26L191.12,17.99L201.34,12.2L203.09,12.29L205.79,11.88L206.87,10.92L209.93,6.35L210.08,6.59L210.2,6.78L210.96,8.96L211.97,13.18L214.18,17.65L215.59,19.7L221.17,25.62L223.2,27.56L233.32,38.27L235.34,40.67L247.49,56.46L249.51,59.23L267.73,83.59L269.76,85.94L279.88,96.68L281.9,98.62L290,107.03L292.02,110.54L295.4,119.05L295.71,118.72L298.47,112.84L299.62,112.56L304.39,112.39L306.41,111.33L313.32,106.33L314.92,105.25L324.91,97.42L326.93,95.53L335.03,86.79L337.05,84.32L347.18,70.74L349.2,67.85L369.44,39.68L371.47,37.24L379.56,28.62L381.59,26.77L389.68,20.5L391.71,19.15L402.54,12.42L403.98,12.26L408.32,11.8L409.4,10.89L412.35,6.34L412.64,6.65L415.88,16.71L417.15,18.43L420.51,22.58L422.54,24.51L440.76,44.34L442.78,46.94L456.95,66.18L458.97,69.04L473.14,87.09L475.17,89.38L493.39,108.55L495.41,113.05L497.37,118.81L498.09,118.87L500.26,113.11L501.44,112.6L507.8,112.06L509.07,111.07L516.22,105.99L517.93,104.86L528.02,96.78L530.04,94.87L540.17,83.46L542.19,80.89L556.36,60.97L558.38,58.03L572.55,38.84L574.58,36.43L582.67,27.98L584.7,26.17L592.8,20.03L594.82,18.7L606,12.29" style="vector-effect: none; fill: none; stroke: rgb(0, 204, 150); stroke-opacity: 1; stroke-width: 2px; opacity: 1;"/></g><g class="points"/><g class="text"/></g></g></g></g><path class="xlines-above crisp" d="M0,0" style="fill: none;"/><path class="ylines-above crisp" d="M0,0" style="fill: none;"/><g class="overlines-above"/><g class="xaxislayer-above"><g class="x2tick"><text text-anchor="middle" x="0" y="393.875" transform="translate(173.95,0)" style="font-family: Arial; font-size: 12px; fill: rgb(0, 0, 0); fill-opacity: 1; white-space: pre; opacity: 1;">1.05ms</text></g><g class="x2tick"><text text-anchor="middle" x="0" y="393.875" style="font-family: Arial; font-size: 12px; fill: rgb(0, 0, 0); fill-opacity: 1; white-space: pre; opacity: 1;" transform="translate(275.15999999999997,0)">1.10ms</text></g><g class="x2tick"><text text-anchor="middle" x="0" y="393.875" style="font-family: Arial; font-size: 12px; fill: rgb(0, 0, 0); fill-opacity: 1; white-space: pre; opacity: 1;" transform="translate(376.37,0)">1.15ms</text></g><g class="x2tick"><text text-anchor="middle" x="0" y="393.875" style="font-family: Arial; font-size: 12px; fill: rgb(0, 0, 0); fill-opacity: 1; white-space: pre; opacity: 1;" transform="translate(477.58,0)">1.20ms</text></g><g class="x2tick"><text text-anchor="middle" x="0" y="393.875" style="font-family: Arial; font-size: 12px; fill: rgb(0, 0, 0); fill-opacity: 1; white-space: pre; opacity: 1;" transform="translate(578.79,0)">1.25ms</text></g><g class="x2tick"><text text-anchor="middle" x="0" y="393.875" style="font-family: Arial; font-size: 12px; fill: rgb(0, 0, 0); fill-opacity: 1; white-space: pre; opacity: 1;" transform="translate(680,0)">1.30ms</text></g></g><g class="yaxislayer-above"><g class="y2tick"><text text-anchor="end" x="73" y="4.199999999999999" transform="translate(0,368.3725)" style="font-family: Arial; font-size: 12px; fill: rgb(0, 0, 0); fill-opacity: 1; white-space: pre; opacity: 1;">−20.0mV</text></g><g class="y2tick"><text text-anchor="end" x="73" y="4.199999999999999" style="font-family: Arial; font-size: 12px; fill: rgb(0, 0, 0); fill-opacity: 1; white-space: pre; opacity: 1;" transform="translate(0,340.3525)">−10.0mV</text></g><g class="y2tick"><text text-anchor="end" x="73" y="4.199999999999999" style="font-family: Arial; font-size: 12px; fill: rgb(0, 0, 0); fill-opacity: 1; white-space: pre; opacity: 1;" transform="translate(0,312.3425)">0.00V</text></g><g class="y2tick"><text text-anchor="end" x="73" y="4.199999999999999" style="font-family: Arial; font-size: 12px; fill: rgb(0, 0, 0); fill-opacity: 1; white-space: pre; opacity: 1;" transform="translate(0,284.3225)">10.0mV</text></g><g class="y2tick"><text text-anchor="end" x="73" y="4.199999999999999" style="font-family: Arial; font-size: 12px; fill: rgb(0, 0, 0); fill-opacity: 1; white-space: pre; opacity: 1;" transform="translate(0,256.3025)">20.0mV</text></g></g><g class="overaxes-above"/></g><g class="subplot x3y3"><g class="layer-subplot"><g class="shapelayer"/><g class="imagelayer"/></g><g class="minor-gridlayer"><g class="x3"/><g class="y3"/></g><g class="gridlayer"><g class="x3"><path class="x3grid crisp" transform="translate(173.95,0)" d="M0,481.125v125.3125" style="stroke: rgb(255, 255, 255); stroke-opacity: 1; stroke-width: 1px;"/><path class="x3grid crisp" transform="translate(275.15999999999997,0)" d="M0,481.125v125.3125" style="stroke: rgb(255, 255, 255); stroke-opacity: 1; stroke-width: 1px;"/><path class="x3grid crisp" transform="translate(376.37,0)" d="M0,481.125v125.3125" style="stroke: rgb(255, 255, 255); stroke-opacity: 1; stroke-width: 1px;"/><path class="x3grid crisp" transform="translate(477.58,0)" d="M0,481.125v125.3125" style="stroke: rgb(255, 255, 255); stroke-opacity: 1; stroke-width: 1px;"/><path class="x3grid crisp" transform="translate(578.79,0)" d="M0,481.125v125.3125" style="stroke: rgb(255, 255, 255); stroke-opacity: 1; stroke-width: 1px;"/></g><g class="y3"><path class="y3grid crisp" transform="translate(0,581.505)" d="M74,0h606" style="stroke: rgb(255, 255, 255); stroke-opacity: 1; stroke-width: 1px;"/><path class="y3grid crisp" transform="translate(0,506.285)" d="M74,0h606" style="stroke: rgb(255, 255, 255); stroke-opacity: 1; stroke-width: 1px;"/></g></g><g class="zerolinelayer"><path class="y3zl zl crisp" transform="translate(0,543.895)" d="M74,0h606" style="stroke: rgb(255, 255, 255); stroke-opacity: 1; stroke-width: 2px;"/></g><g class="layer-between"><g class="shapelayer"/><g class="imagelayer"/></g><path class="xlines-below"/><path class="ylines-below"/><g class="overlines-below"/><g class="xaxislayer-below"/><g class="yaxislayer-below"/><g class="overaxes-below"/><g class="overplot"><g class="x3y3" transform="translate(74,481.125)" clip-path="url(#clip613d33x3y3plot)"><g class="scatterlayer mlayer"><g class="trace scatter tracea11e55" style="stroke-miterlimit: 2; opacity: 1;"><g class="fills"/><g class="errorbars"/><g class="lines"><path class="js-line" d="M0,61.45L16.61,33.73L18.64,30.74L26.73,20.17L28.76,17.93L34.83,12.28L36.86,10.79L42.93,7.56L44.95,6.92L51.03,6.3L53.05,6.54L59.12,8.58L61.15,9.69L67.22,14.26L69.24,16.18L77.34,25.57L79.36,28.31L90.24,44.93L91.26,46.57L105.57,71.49L106.44,73L118.25,92.22L120.27,95.17L128.37,105.61L130.39,107.82L136.47,113.34L138.49,114.79L144.56,117.9L146.59,118.5L152.66,118.98L154.68,118.7L160.76,116.53L162.78,115.37L168.85,110.68L170.88,108.73L178.98,99.2L181,96.43L191.12,80.83L193.14,77.45L221.17,30.57L223.2,27.72L231.3,17.8L233.32,15.75L239.39,10.71L241.42,9.44L247.49,6.89L249.51,6.47L255.59,6.56L257.61,7.04L263.68,9.76L265.71,11.1L271.78,16.29L273.8,18.4L281.9,28.47L283.93,31.35L295.71,49.95L296.34,51.06L316.81,86.26L318.84,89.43L328.96,103.46L330.98,105.82L337.05,111.86L339.08,113.49L345.15,117.16L347.18,117.96L353.25,119.05L355.27,118.96L361.35,117.39L363.37,116.43L369.44,112.29L371.47,110.51L379.56,101.58L381.59,98.94L391.71,83.83L393.73,80.52L424.56,29.19L426.59,26.41L434.68,16.8L436.71,14.83L442.78,10.08L444.81,8.9L450.88,6.66L452.9,6.35L458.97,6.76L461,7.34L467.07,10.37L469.1,11.8L475.17,17.27L477.19,19.46L485.29,29.83L487.31,32.76L499.13,51.71L500.26,53.74L521.95,90.49L523.97,93.52L532.07,104.28L534.09,106.59L540.17,112.43L542.19,114L548.26,117.46L550.29,118.18L556.36,119.04L558.38,118.89L564.46,117.09L566.48,116.05L572.55,111.7L574.58,109.86L582.67,100.7L584.7,98.01L594.82,82.71L596.84,79.37L606,63.66" style="vector-effect: none; fill: none; stroke: rgb(0, 0, 0); stroke-opacity: 1; stroke-dasharray: 3px, 3px; stroke-width: 2px; opacity: 1;"/></g><g class="points"/><g class="text"/></g><g class="trace scatter trace8c2b7f" style="stroke-miterlimit: 2; opacity: 1;"><g class="fills"/><g class="errorbars"/><g class="lines"><path class="js-line" d="M0,59.36L5.25,52.06L6.42,50.24L20.66,28.08L22.69,25.38L30.78,16.15L32.81,14.28L38.88,9.85L40.9,8.78L46.98,6.85L49,6.65L55.07,7.36L57.1,8.04L63.17,11.34L65.19,12.86L71.27,18.55L73.29,20.8L81.39,31.35L83.41,34.32L100,59.55L101.86,61.11L106.44,62.52L107.39,62.6L124.32,62.77L126.35,62.77L197.33,62.28L198.6,61.95L201.34,60.39L203.09,58.61L210.08,48.26L210.2,48.05L221.17,30.75L223.2,27.92L231.3,18.08L233.32,16.04L239.39,11.05L241.42,9.78L247.49,7.25L249.51,6.84L255.59,6.93L257.61,7.4L263.68,10.1L265.71,11.42L271.78,16.58L273.8,18.67L281.9,28.66L283.93,31.52L297.34,52.49L298.47,54.28L302.64,59.77L304.39,61.18L308.95,62.53L309.89,62.6L326.93,62.77L328.96,62.77L399.93,62.24L401.21,61.88L403.98,60.2L405.87,58.18L413.02,47.39L413.78,46.1L422.54,32.29L424.56,29.39L432.66,19.22L434.68,17.09L440.76,11.79L442.78,10.42L448.85,7.55L450.88,7.02L456.95,6.77L458.97,7.12L465.05,9.49L467.07,10.71L473.14,15.56L475.17,17.55L483.27,27.22L485.29,30.01L498.09,49.7L499.13,51.43L504.27,58.92L505.81,60.45L509.9,62.32L510.71,62.45L519.92,62.76L521.95,62.76L601.43,62.41L602.79,62.14L606,60.54" style="vector-effect: none; fill: none; stroke: rgb(255, 161, 90); stroke-opacity: 1; stroke-width: 2px; opacity: 1;"/></g><g class="points"/><g class="text"/></g><g class="trace scatter trace080e68" style="stroke-miterlimit: 2; opacity: 1;"><g class="fills"/><g class="errorbars"/><g class="lines"><path class="js-line" d="M0,60.66L4.14,62.22L5.25,62.38L16.61,62.75L18.64,62.76L96.29,62.12L97.5,61.8L100,60.57L101.86,58.89L107.39,50.78L108.33,49.23L120.27,30.52L122.3,27.7L130.39,17.95L132.42,15.93L138.49,11.01L140.52,9.78L146.59,7.33L148.61,6.95L154.68,7.13L156.71,7.64L162.78,10.44L164.81,11.79L170.88,17.03L172.9,19.15L181,29.27L183.02,32.15L195.93,52.58L197.33,54.77L201.34,59.81L203.09,61.08L208.08,62.42L208.22,62.44L221.17,62.76L223.2,62.76L298.47,62.17L299.62,61.89L302.64,60.41L304.39,58.77L309.89,50.65L310.85,49.08L322.88,30.25L324.91,27.45L333.01,17.75L335.03,15.75L341.1,10.89L343.13,9.67L349.2,7.29L351.22,6.93L357.3,7.17L359.32,7.69L365.39,10.55L367.42,11.93L373.49,17.23L375.51,19.36L383.61,29.53L385.64,32.43L403.98,60L405.87,61.26L410.6,62.43L411.75,62.53L428.61,62.76L430.64,62.77L501.44,62.05L502.66,61.7L505.81,59.79L507.8,57.57L514.85,46.47L516.22,44.22L528.02,26.52L530.04,23.92L538.14,15.11L540.17,13.36L546.24,9.3L548.26,8.37L554.33,6.85L556.36,6.79L562.43,7.92L564.46,8.73L570.53,12.44L572.55,14.08L578.63,20.13L580.65,22.5L588.75,33.44L590.77,36.49L606,59.64" style="vector-effect: none; fill: none; stroke: rgb(25, 211, 243); stroke-opacity: 1; stroke-width: 2px; opacity: 1;"/></g><g class="points"/><g class="text"/></g></g></g></g><path class="xlines-above crisp" d="M0,0" style="fill: none;"/><path class="ylines-above crisp" d="M0,0" style="fill: none;"/><g class="overlines-above"/><g class="xaxislayer-above"><g class="x3tick"><text text-anchor="middle" x="0" y="619.4375" transform="translate(173.95,0)" style="font-family: Arial; font-size: 12px; fill: rgb(0, 0, 0); fill-opacity: 1; white-space: pre; opacity: 1;">1.05ms</text></g><g class="x3tick"><text text-anchor="middle" x="0" y="619.4375" style="font-family: Arial; font-size: 12px; fill: rgb(0, 0, 0); fill-opacity: 1; white-space: pre; opacity: 1;" transform="translate(275.15999999999997,0)">1.10ms</text></g><g class="x3tick"><text text-anchor="middle" x="0" y="619.4375" style="font-family: Arial; font-size: 12px; fill: rgb(0, 0, 0); fill-opacity: 1; white-space: pre; opacity: 1;" transform="translate(376.37,0)">1.15ms</text></g><g class="x3tick"><text text-anchor="middle" x="0" y="619.4375" style="font-family: Arial; font-size: 12px; fill: rgb(0, 0, 0); fill-opacity: 1; white-space: pre; opacity: 1;" transform="translate(477.58,0)">1.20ms</text></g><g class="x3tick"><text text-anchor="middle" x="0" y="619.4375" style="font-family: Arial; font-size: 12px; fill: rgb(0, 0, 0); fill-opacity: 1; white-space: pre; opacity: 1;" transform="translate(578.79,0)">1.25ms</text></g><g class="x3tick"><text text-anchor="middle" x="0" y="619.4375" style="font-family: Arial; font-size: 12px; fill: rgb(0, 0, 0); fill-opacity: 1; white-space: pre; opacity: 1;" transform="translate(680,0)">1.30ms</text></g></g><g class="yaxislayer-above"><g class="y3tick"><text text-anchor="end" x="73" y="4.199999999999999" transform="translate(0,581.505)" style="font-family: Arial; font-size: 12px; fill: rgb(0, 0, 0); fill-opacity: 1; white-space: pre; opacity: 1;">−100mA</text></g><g class="y3tick"><text text-anchor="end" x="73" y="4.199999999999999" style="font-family: Arial; font-size: 12px; fill: rgb(0, 0, 0); fill-opacity: 1; white-space: pre; opacity: 1;" transform="translate(0,543.895)">0.00A</text></g><g class="y3tick"><text text-anchor="end" x="73" y="4.199999999999999" style="font-family: Arial; font-size: 12px; fill: rgb(0, 0, 0); fill-opacity: 1; white-space: pre; opacity: 1;" transform="translate(0,506.285)">100mA</text></g></g><g class="overaxes-above"/></g><g class="subplot x4y4"><g class="layer-subplot"><g class="shapelayer"/><g class="imagelayer"/></g><g class="minor-gridlayer"><g class="x4"/><g class="y4"/></g><g class="gridlayer"><g class="x4"><path class="x4grid crisp" transform="translate(173.95,0)" d="M0,706.6875v125.3125" style="stroke: rgb(255, 255, 255); stroke-opacity: 1; stroke-width: 1px;"/><path class="x4grid crisp" transform="translate(275.15999999999997,0)" d="M0,706.6875v125.3125" style="stroke: rgb(255, 255, 255); stroke-opacity: 1; stroke-width: 1px;"/><path class="x4grid crisp" transform="translate(376.37,0)" d="M0,706.6875v125.3125" style="stroke: rgb(255, 255, 255); stroke-opacity: 1; stroke-width: 1px;"/><path class="x4grid crisp" transform="translate(477.58,0)" d="M0,706.6875v125.3125" style="stroke: rgb(255, 255, 255); stroke-opacity: 1; stroke-width: 1px;"/><path class="x4grid crisp" transform="translate(578.79,0)" d="M0,706.6875v125.3125" style="stroke: rgb(255, 255, 255); stroke-opacity: 1; stroke-width: 1px;"/></g><g class="y4"><path class="y4grid crisp" transform="translate(0,800.7075)" d="M74,0h606" style="stroke: rgb(255, 255, 255); stroke-opacity: 1; stroke-width: 1px;"/><path class="y4grid crisp" transform="translate(0,716.9675)" d="M74,0h606" style="stroke: rgb(255, 255, 255); stroke-opacity: 1; stroke-width: 1px;"/></g></g><g class="zerolinelayer"><path class="y4zl zl crisp" transform="translate(0,758.8375)" d="M74,0h606" style="stroke: rgb(255, 255, 255); stroke-opacity: 1; stroke-width: 2px;"/></g><g class="layer-between"><g class="shapelayer"/><g class="imagelayer"/></g><path class="xlines-below"/><path class="ylines-below"/><g class="overlines-below"/><g class="xaxislayer-below"/><g class="yaxislayer-below"/><g class="overaxes-below"/><g class="overplot"><g class="x4y4" transform="translate(74,706.6875)" clip-path="url(#clip613d33x4y4plot)"><g class="scatterlayer mlayer"><g class="trace scatter traceab39b2" style="stroke-miterlimit: 2; opacity: 1;"><g class="fills"/><g class="errorbars"/><g class="lines"><path class="js-line" d="M0,64L22.69,27.47L24.71,24.65L32.81,15.08L34.83,13.15L40.9,8.72L42.93,7.73L49,6.27L51.03,6.32L55.07,7.2L57.1,8L63.17,11.96L65.19,13.73L71.27,20.29L73.29,22.82L83.41,37.58L85.44,40.79L114.2,86.85L116.22,89.73L128.37,105.4L130.39,107.6L138.49,114.69L140.52,115.98L146.59,118.52L148.61,118.9L154.68,118.62L156.71,118.06L162.78,114.99L164.81,113.55L170.88,108.04L172.9,105.87L181,95.83L183.02,93.07L198.6,70.14L199.93,68.05L227.25,24.51L229.27,21.87L237.37,13.06L239.39,11.37L245.47,7.7L247.49,6.97L251.54,6.27L253.56,6.31L259.64,8.04L261.66,9.14L267.73,13.84L269.76,15.82L277.85,25.7L279.88,28.55L292.02,47.55L294.05,50.84L314.92,84.39L316.81,87.12L328.96,103.28L330.98,105.61L339.08,113.35L341.1,114.82L347.18,117.97L349.2,118.56L355.27,118.93L357.3,118.58L363.37,116.14L365.39,114.87L371.47,109.88L373.49,107.84L381.59,98.26L383.61,95.58L398.57,73.91L399.93,71.83L415.88,45.6L417.15,43.5L428.61,25.94L430.64,23.22L438.73,14.02L440.76,12.22L446.83,8.15L448.85,7.3L454.93,6.27L456.95,6.43L463.02,8.55L465.05,9.76L471.12,14.76L473.14,16.86L481.24,27.06L483.27,29.94L498.09,53.55L499.13,55.38L511.68,76L512.6,77.4L528.02,99.14L530.04,101.68L538.14,110.48L540.17,112.27L546.24,116.47L548.26,117.45L554.33,118.99L556.36,119.03L562.43,117.75L564.46,116.84L570.53,112.86L572.55,111.12L580.65,102.49L582.67,99.98L594.82,83.12L596.84,80.13L606,66.07" style="vector-effect: none; fill: none; stroke: rgb(255, 102, 146); stroke-opacity: 1; stroke-width: 2px; opacity: 1;"/></g><g class="points"/><g class="text"/></g></g></g></g><path class="xlines-above crisp" d="M0,0" style="fill: none;"/><path class="ylines-above crisp" d="M0,0" style="fill: none;"/><g class="overlines-above"/><g class="xaxislayer-above"><g class="x4tick"><text text-anchor="middle" x="0" y="845" transform="translate(173.95,0)" style="font-family: Arial; font-size: 12px; fill: rgb(0, 0, 0); fill-opacity: 1; white-space: pre; opacity: 1;">1.05ms</text></g><g class="x4tick"><text text-anchor="middle" x="0" y="845" style="font-family: Arial; font-size: 12px; fill: rgb(0, 0, 0); fill-opacity: 1; white-space: pre; opacity: 1;" transform="translate(275.15999999999997,0)">1.10ms</text></g><g class="x4tick"><text text-anchor="middle" x="0" y="845" style="font-family: Arial; font-size: 12px; fill: rgb(0, 0, 0); fill-opacity: 1; white-space: pre; opacity: 1;" transform="translate(376.37,0)">1.15ms</text></g><g class="x4tick"><text text-anchor="middle" x="0" y="845" style="font-family: Arial; font-size: 12px; fill: rgb(0, 0, 0); fill-opacity: 1; white-space: pre; opacity: 1;" transform="translate(477.58,0)">1.20ms</text></g><g class="x4tick"><text text-anchor="middle" x="0" y="845" style="font-family: Arial; font-size: 12px; fill: rgb(0, 0, 0); fill-opacity: 1; white-space: pre; opacity: 1;" transform="translate(578.79,0)">1.25ms</text></g><g class="x4tick"><text text-anchor="middle" x="0" y="845" style="font-family: Arial; font-size: 12px; fill: rgb(0, 0, 0); fill-opacity: 1; white-space: pre; opacity: 1;" transform="translate(680,0)">1.30ms</text></g></g><g class="yaxislayer-above"><g class="y4tick"><text text-anchor="end" x="73" y="4.199999999999999" transform="translate(0,800.7075)" style="font-family: Arial; font-size: 12px; fill: rgb(0, 0, 0); fill-opacity: 1; white-space: pre; opacity: 1;">−1.00mA</text></g><g class="y4tick"><text text-anchor="end" x="73" y="4.199999999999999" style="font-family: Arial; font-size: 12px; fill: rgb(0, 0, 0); fill-opacity: 1; white-space: pre; opacity: 1;" transform="translate(0,758.8375)">0.00A</text></g><g class="y4tick"><text text-anchor="end" x="73" y="4.199999999999999" style="font-family: Arial; font-size: 12px; fill: rgb(0, 0, 0); fill-opacity: 1; white-space: pre; opacity: 1;" transform="translate(0,716.9675)">1.00mA</text></g></g><g class="overaxes-above"/></g></g><g class="polarlayer"/><g class="smithlayer"/><g class="ternarylayer"/><g class="geolayer"/><g class="funnelarealayer"/><g class="pielayer"/><g class="iciclelayer"/><g class="treemaplayer"/><g class="sunburstlayer"/><g class="glimages"/><defs id="topdefs-613d33"><g class="clips"/><clipPath id="legend613d33"><rect width="562" height="48" x="0" y="0"/></clipPath></defs><g class="layer-above"><g class="imagelayer"/><g class="shapelayer"/></g><g class="infolayer"><g class="legend" pointer-events="all" transform="translate(80.06,952)"><rect class="bg" shape-rendering="crispEdges" width="562" height="48" x="0" y="0" style="stroke: rgb(68, 68, 68); stroke-opacity: 1; fill: rgb(255, 255, 255); fill-opacity: 1; stroke-width: 0px;"/><g class="scrollbox" transform="" clip-path="url(#legend613d33)"><g class="groups"><g class="traces" transform="translate(0,14.5)" style="opacity: 1;"><text class="legendtext" text-anchor="start" x="40" y="4.680000000000001" style="font-family: Arial; font-size: 12px; fill: rgb(0, 0, 0); fill-opacity: 1; white-space: pre;">v(Uin)</text><g class="layers" style="opacity: 1;"><g class="legendfill"/><g class="legendlines"><path class="js-line" d="M5,0h30" style="fill: none; stroke: rgb(0, 0, 0); stroke-opacity: 1; stroke-dasharray: 9px, 9px; stroke-width: 2px;"/></g><g class="legendsymbols"><g class="legendpoints"/></g></g><rect class="legendtoggle" x="0" y="-9.5" width="75.515625" height="19" style="fill: rgb(0, 0, 0); fill-opacity: 0;"/></g><g class="traces" transform="translate(121.34375,14.5)" style="opacity: 1;"><text class="legendtext" text-anchor="start" x="40" y="4.680000000000001" style="font-family: Arial; font-size: 12px; fill: rgb(0, 0, 0); fill-opacity: 1; white-space: pre;">v(Uout)</text><g class="layers" style="opacity: 1;"><g class="legendfill"/><g class="legendlines"><path class="js-line" d="M5,0h30" style="fill: none; stroke: rgb(239, 85, 59); stroke-opacity: 1; stroke-width: 2px;"/></g><g class="legendsymbols"><g class="legendpoints"/></g></g><rect class="legendtoggle" x="0" y="-9.5" width="82.84375" height="19" style="fill: rgb(0, 0, 0); fill-opacity: 0;"/></g><g class="traces" transform="translate(242.6875,14.5)" style="opacity: 1;"><text class="legendtext" text-anchor="start" x="40" y="4.680000000000001" style="font-family: Arial; font-size: 12px; fill: rgb(0, 0, 0); fill-opacity: 1; white-space: pre;">v(Uin)-v(Uout)</text><g class="layers" style="opacity: 1;"><g class="legendfill"/><g class="legendlines"><path class="js-line" d="M5,0h30" style="fill: none; stroke: rgb(0, 204, 150); stroke-opacity: 1; stroke-width: 2px;"/></g><g class="legendsymbols"><g class="legendpoints"/></g></g><rect class="legendtoggle" x="0" y="-9.5" width="118.84375" height="19" style="fill: rgb(0, 0, 0); fill-opacity: 0;"/></g><g class="traces" transform="translate(364.03125,14.5)" style="opacity: 1;"><text class="legendtext" text-anchor="start" x="40" y="4.680000000000001" style="font-family: Arial; font-size: 12px; fill: rgb(0, 0, 0); fill-opacity: 1; white-space: pre;">I(RLast)</text><g class="layers" style="opacity: 1;"><g class="legendfill"/><g class="legendlines"><path class="js-line" d="M5,0h30" style="fill: none; stroke: rgb(0, 0, 0); stroke-opacity: 1; stroke-dasharray: 3px, 3px; stroke-width: 2px;"/></g><g class="legendsymbols"><g class="legendpoints"/></g></g><rect class="legendtoggle" x="0" y="-9.5" width="85.1875" height="19" style="fill: rgb(0, 0, 0); fill-opacity: 0;"/></g><g class="traces" transform="translate(485.375,14.5)" style="opacity: 1;"><text class="legendtext" text-anchor="start" x="40" y="4.680000000000001" style="font-family: Arial; font-size: 12px; fill: rgb(0, 0, 0); fill-opacity: 1; white-space: pre;">Ic(T1)</text><g class="layers" style="opacity: 1;"><g class="legendfill"/><g class="legendlines"><path class="js-line" d="M5,0h30" style="fill: none; stroke: rgb(255, 161, 90); stroke-opacity: 1; stroke-width: 2px;"/></g><g class="legendsymbols"><g class="legendpoints"/></g></g><rect class="legendtoggle" x="0" y="-9.5" width="73.84375" height="19" style="fill: rgb(0, 0, 0); fill-opacity: 0;"/></g><g class="traces" transform="translate(0,33.5)" style="opacity: 1;"><text class="legendtext" text-anchor="start" x="40" y="4.680000000000001" style="font-family: Arial; font-size: 12px; fill: rgb(0, 0, 0); fill-opacity: 1; white-space: pre;">Ic(T2)</text><g class="layers" style="opacity: 1;"><g class="legendfill"/><g class="legendlines"><path class="js-line" d="M5,0h30" style="fill: none; stroke: rgb(25, 211, 243); stroke-opacity: 1; stroke-width: 2px;"/></g><g class="legendsymbols"><g class="legendpoints"/></g></g><rect class="legendtoggle" x="0" y="-9.5" width="73.84375" height="19" style="fill: rgb(0, 0, 0); fill-opacity: 0;"/></g><g class="traces" transform="translate(121.34375,33.5)" style="opacity: 1;"><text class="legendtext" text-anchor="start" x="40" y="4.680000000000001" style="font-family: Arial; font-size: 12px; fill: rgb(0, 0, 0); fill-opacity: 1; white-space: pre;">I(Rshunt)</text><g class="layers" style="opacity: 1;"><g class="legendfill"/><g class="legendlines"><path class="js-line" d="M5,0h30" style="fill: none; stroke: rgb(255, 102, 146); stroke-opacity: 1; stroke-width: 2px;"/></g><g class="legendsymbols"><g class="legendpoints"/></g></g><rect class="legendtoggle" x="0" y="-9.5" width="91.859375" height="19" style="fill: rgb(0, 0, 0); fill-opacity: 0;"/></g></g></g><rect class="scrollbar" rx="20" ry="3" width="0" height="0" x="0" y="0" style="fill: rgb(128, 139, 164); fill-opacity: 1;"/></g><g class="g-gtitle"/><g class="g-xtitle"/><g class="g-x2title"/><g class="g-x3title"/><g class="g-x4title"><text class="x4title" x="377" y="872.3" text-anchor="middle" style="opacity: 1; font-family: Arial; font-size: 14px; fill: rgb(0, 0, 0); fill-opacity: 1; white-space: pre;">Time</text></g><g class="g-ytitle" transform="translate(4.431640625,0)"><text class="ytitle" transform="rotate(-90,8.568749999999994,92.65625)" x="8.568749999999994" y="92.65625" text-anchor="middle" style="opacity: 1; font-family: Arial; font-size: 14px; fill: rgb(0, 0, 0); fill-opacity: 1; white-space: pre;">Voltage</text></g><g class="g-y2title" transform="translate(7.775390625,0)"><text class="y2title" transform="rotate(-90,5.224999999999994,318.21875)" x="5.224999999999994" y="318.21875" text-anchor="middle" style="opacity: 1; font-family: Arial; font-size: 14px; fill: rgb(0, 0, 0); fill-opacity: 1; white-space: pre;">Voltage</text></g><g class="g-y3title" transform="translate(4.431640625,0)"><text class="y3title" transform="rotate(-90,8.568749999999994,543.78125)" x="8.568749999999994" y="543.78125" text-anchor="middle" style="opacity: 1; font-family: Arial; font-size: 14px; fill: rgb(0, 0, 0); fill-opacity: 1; white-space: pre;">Current</text></g><g class="g-y4title" transform="translate(7.775390625,0)"><text class="y4title" transform="rotate(-90,5.224999999999994,769.34375)" x="5.224999999999994" y="769.34375" text-anchor="middle" style="opacity: 1; font-family: Arial; font-size: 14px; fill: rgb(0, 0, 0); fill-opacity: 1; white-space: pre;">Current</text></g><g class="annotation" data-index="0" style="opacity: 1;"><g class="annotation-text-g" transform="rotate(0,377,19.499999999999993)"><g class="cursor-pointer" transform="translate(272,9)"><rect class="bg" x="0.5" y="0.5" width="209" height="20" style="stroke-width: 1px; stroke: rgb(0, 0, 0); stroke-opacity: 0; fill: rgb(0, 0, 0); fill-opacity: 0;"/><text class="annotation-text" text-anchor="middle" x="104.75" y="16" style="font-family: Arial; font-size: 16px; fill: rgb(0, 0, 0); fill-opacity: 1; white-space: pre;">Ein- und Ausgangsspannung</text></g></g></g><g class="annotation" data-index="1" style="opacity: 1;"><g class="annotation-text-g" transform="rotate(0,377,245.0625)"><g class="cursor-pointer" transform="translate(304,235)"><rect class="bg" x="0.5" y="0.5" width="145" height="20" style="stroke-width: 1px; stroke: rgb(0, 0, 0); stroke-opacity: 0; fill: rgb(0, 0, 0); fill-opacity: 0;"/><text class="annotation-text" text-anchor="middle" x="73.03125" y="16" style="font-family: Arial; font-size: 16px; fill: rgb(0, 0, 0); fill-opacity: 1; white-space: pre;">Spannungsdifferenz</text></g></g></g><g class="annotation" data-index="2" style="opacity: 1;"><g class="annotation-text-g" transform="rotate(0,377,470.625)"><g class="cursor-pointer" transform="translate(349,460)"><rect class="bg" x="0.5" y="0.5" width="55" height="20" style="stroke-width: 1px; stroke: rgb(0, 0, 0); stroke-opacity: 0; fill: rgb(0, 0, 0); fill-opacity: 0;"/><text class="annotation-text" text-anchor="middle" x="27.796875" y="16" style="font-family: Arial; font-size: 16px; fill: rgb(0, 0, 0); fill-opacity: 1; white-space: pre;">Ströme</text></g></g></g></g></svg>