<svg class="main-svg" xmlns="http://www.w3.org/2000/svg" xmlns:xlink="http://www.w3.org/1999/xlink" width="700" height="1000" style="" viewBox="0 0 700 1000"><rect x="0" y="0" width="700" height="1000" style="fill: rgb(255, 255, 255); fill-opacity: 1;"/><defs id="defs-515f64"><g class="clips"><clipPath id="clip515f64xyplot" class="plotclip"><rect width="606" height="125.3125"/></clipPath><clipPath id="clip515f64x2y2plot" class="plotclip"><rect width="606" height="125.3125"/></clipPath><clipPath id="clip515f64x3y3plot" class="plotclip"><rect width="606" height="125.3125"/></clipPath><clipPath id="clip515f64x4y4plot" class="plotclip"><rect width="606" height="125.3125"/></clipPath><clipPath class="axesclip" id="clip515f64x"><rect x="74" y="0" width="606" height="1000"/></clipPath><clipPath class="axesclip" id="clip515f64y"><rect x="0" y="30" width="700" height="125.3125"/></clipPath><clipPath class="axesclip" id="clip515f64xy"><rect x="74" y="30" width="606" height="125.3125"/></clipPath><clipPath class="axesclip" id="clip515f64y2"><rect x="0" y="255.5625" width="700" height="125.3125"/></clipPath><clipPath class="axesclip" id="clip515f64xy2"><rect x="74" y="255.5625" width="606" height="125.3125"/></clipPath><clipPath class="axesclip" id="clip515f64y3"><rect x="0" y="481.125" width="700" height="125.3125"/></clipPath><clipPath class="axesclip" id="clip515f64xy3"><rect x="74" y="481.125" width="606" height="125.3125"/></clipPath><clipPath class="axesclip" id="clip515f64y4"><rect x="0" y="706.6875" width="700" height="125.3125"/></clipPath><clipPath class="axesclip" id="clip515f64xy4"><rect x="74" y="706.6875" width="606" height="125.3125"/></clipPath><clipPath class="axesclip" id="clip515f64x2"><rect x="74" y="0" width="606" height="1000"/></clipPath><clipPath class="axesclip" id="clip515f64x2y"><rect x="74" y="30" width="606" height="125.3125"/></clipPath><clipPath class="axesclip" id="clip515f64x2y2"><rect x="74" y="255.5625" width="606" height="125.3125"/></clipPath><clipPath class="axesclip" id="clip515f64x2y3"><rect x="74" y="481.125" width="606" height="125.3125"/></clipPath><clipPath class="axesclip" id="clip515f64x2y4"><rect x="74" y="706.6875" width="606" height="125.3125"/></clipPath><clipPath class="axesclip" id="clip515f64x3"><rect x="74" y="0" width="606" height="1000"/></clipPath><clipPath class="axesclip" id="clip515f64x3y"><rect x="74" y="30" width="606" height="125.3125"/></clipPath><clipPath class="axesclip" id="clip515f64x3y2"><rect x="74" y="255.5625" width="606" height="125.3125"/></clipPath><clipPath class="axesclip" id="clip515f64x3y3"><rect x="74" y="481.125" width="606" height="125.3125"/></clipPath><clipPath class="axesclip" id="clip515f64x3y4"><rect x="74" y="706.6875" width="606" height="125.3125"/></clipPath><clipPath class="axesclip" id="clip515f64x4"><rect x="74" y="0" width="606" height="1000"/></clipPath><clipPath class="axesclip" id="clip515f64x4y"><rect x="74" y="30" width="606" height="125.3125"/></clipPath><clipPath class="axesclip" id="clip515f64x4y2"><rect x="74" y="255.5625" width="606" height="125.3125"/></clipPath><clipPath class="axesclip" id="clip515f64x4y3"><rect x="74" y="481.125" width="606" height="125.3125"/></clipPath><clipPath class="axesclip" id="clip515f64x4y4"><rect x="74" y="706.6875" width="606" height="125.3125"/></clipPath></g><g class="gradients"/><g class="patterns"/></defs><g class="bglayer"><rect class="bg" x="74" y="30" width="606" height="125.3125" style="fill: rgb(229, 236, 246); fill-opacity: 1; stroke-width: 0;"/><rect class="bg" x="74" y="255.5625" width="606" height="125.3125" style="fill: rgb(229, 236, 246); fill-opacity: 1; stroke-width: 0;"/><rect class="bg" x="74" y="481.125" width="606" height="125.3125" style="fill: rgb(229, 236, 246); fill-opacity: 1; stroke-width: 0;"/><rect class="bg" x="74" y="706.6875" width="606" height="125.3125" style="fill: rgb(229, 236, 246); fill-opacity: 1; stroke-width: 0;"/></g><g class="layer-below"><g class="imagelayer"/><g class="shapelayer"/></g><g class="cartesianlayer"><g class="subplot xy"><g class="layer-subplot"><g class="shapelayer"/><g class="imagelayer"/></g><g class="minor-gridlayer"><g class="x"/><g class="y"/></g><g class="gridlayer"><g class="x"><path class="xgrid crisp" transform="translate(174.7,0)" d="M0,30v125.3125" style="stroke: rgb(255, 255, 255); stroke-opacity: 1; stroke-width: 1px;"/><path class="xgrid crisp" transform="translate(275.76,0)" d="M0,30v125.3125" style="stroke: rgb(255, 255, 255); stroke-opacity: 1; stroke-width: 1px;"/><path class="xgrid crisp" transform="translate(376.82,0)" d="M0,30v125.3125" style="stroke: rgb(255, 255, 255); stroke-opacity: 1; stroke-width: 1px;"/><path class="xgrid crisp" transform="translate(477.88,0)" d="M0,30v125.3125" style="stroke: rgb(255, 255, 255); stroke-opacity: 1; stroke-width: 1px;"/><path class="xgrid crisp" transform="translate(578.94,0)" d="M0,30v125.3125" style="stroke: rgb(255, 255, 255); stroke-opacity: 1; stroke-width: 1px;"/></g><g class="y"><path class="ygrid crisp" transform="translate(0,149.05)" d="M74,0h606" style="stroke: rgb(255, 255, 255); stroke-opacity: 1; stroke-width: 1px;"/><path class="ygrid crisp" transform="translate(0,120.85)" d="M74,0h606" style="stroke: rgb(255, 255, 255); stroke-opacity: 1; stroke-width: 1px;"/><path class="ygrid crisp" transform="translate(0,64.46000000000001)" d="M74,0h606" style="stroke: rgb(255, 255, 255); stroke-opacity: 1; stroke-width: 1px;"/><path class="ygrid crisp" transform="translate(0,36.269999999999996)" d="M74,0h606" style="stroke: rgb(255, 255, 255); stroke-opacity: 1; stroke-width: 1px;"/></g></g><g class="zerolinelayer"><path class="yzl zl crisp" transform="translate(0,92.66)" d="M74,0h606" style="stroke: rgb(255, 255, 255); stroke-opacity: 1; stroke-width: 2px;"/></g><path class="xlines-below"/><path class="ylines-below"/><g class="overlines-below"/><g class="xaxislayer-below"/><g class="yaxislayer-below"/><g class="overaxes-below"/><g class="plot" transform="translate(74,30)" clip-path="url(#clip515f64xyplot)"><g class="scatterlayer mlayer"><g class="trace scatter trace3fbf36" style="stroke-miterlimit: 2; opacity: 1;"><g class="fills"/><g class="errorbars"/><g class="lines"><path class="js-line" d="M0,62.03L15.39,36.13L17.42,33.06L25.5,22.05L27.52,19.67L35.61,11.95L36.48,11.29L42.79,7.74L43.88,7.34L49.51,6.28L49.76,6.27L54.69,6.82L56.71,7.43L62.77,10.54L64.79,11.99L70.86,17.53L72.88,19.74L80.96,30.19L82.98,33.15L93.09,49.44L95.11,52.91L118.54,92.35L120.56,95.31L128.65,105.71L130.67,107.92L136.73,113.42L138.75,114.86L144.82,117.93L146.84,118.53L153.1,118.96L153.25,118.94L158.3,117.69L158.45,117.64L164.07,114.62L164.41,114.39L171.08,108.65L173.1,106.51L181.19,96.31L183.21,93.4L193.32,77.29L195.34,73.84L220.05,32.29L222.08,29.36L230.16,19.09L232.18,16.93L239.91,10.39L240.24,10.18L245.83,7.4L246.12,7.3L251.45,6.28L251.66,6.28L256.8,6.82L258.82,7.42L264.88,10.53L266.9,11.98L272.97,17.52L274.99,19.73L283.07,30.17L285.09,33.13L297.22,52.89L299.24,56.4L320.65,92.34L322.67,95.3L330.76,105.71L332.78,107.91L338.84,113.41L340.86,114.86L346.93,117.93L348.95,118.52L355.19,118.96L355.34,118.94L360.69,117.59L361.07,117.43L366.6,114.33L366.99,114.05L371.61,110.2L373.37,108.48L381.45,98.87L383.47,96.08L393.58,80.41L395.6,77.02L422.98,31.11L425,28.24L433.08,18.21L435.1,16.12L442.82,9.88L442.99,9.78L448.89,7.09L449.03,7.05L454.14,6.27L454.6,6.27L459.6,7L461.37,7.58L467.43,10.82L469.45,12.32L475.52,17.97L477.54,20.22L485.62,30.79L487.64,33.77L499.77,53.63L501.79,57.15L521.88,90.99L523.9,94L531.98,104.67L534,106.95L540.07,112.71L542.09,114.24L548.15,117.6L550.17,118.29L556.39,119.03L556.96,118.99L562.22,117.81L562.34,117.77L568.67,114.37L569.1,114.06L575.41,108.56L577.43,106.41L585.51,96.19L587.53,93.28L597.64,77.15L599.66,73.7L606,62.66" style="vector-effect: non-scaling-stroke; fill: none; stroke: rgb(0, 0, 0); stroke-opacity: 1; stroke-width: 2px; opacity: 1; stroke-dasharray: 9px, 9px;"/></g><g class="points"/><g class="text"/></g><g class="trace scatter trace3b462a" style="stroke-miterlimit: 2; opacity: 1;"><g class="fills"/><g class="errorbars"/><g class="lines"><path class="js-line" d="M0,62.66L606,62.66" style="vector-effect: non-scaling-stroke; fill: none; stroke: rgb(239, 85, 59); stroke-opacity: 1; stroke-width: 2px; opacity: 1;"/></g><g class="points"/><g class="text"/></g></g></g><g class="overplot"/><path class="xlines-above crisp" d="M0,0" style="fill: none;"/><path class="ylines-above crisp" d="M0,0" style="fill: none;"/><g class="overlines-above"/><g class="xaxislayer-above"><g class="xtick"><text text-anchor="middle" x="0" y="168.3125" transform="translate(174.7,0)" style="font-family: Arial; font-size: 12px; fill: rgb(0, 0, 0); fill-opacity: 1; white-space: pre; opacity: 1;">1.05ms</text></g><g class="xtick"><text text-anchor="middle" x="0" y="168.3125" style="font-family: Arial; font-size: 12px; fill: rgb(0, 0, 0); fill-opacity: 1; white-space: pre; opacity: 1;" transform="translate(275.76,0)">1.10ms</text></g><g class="xtick"><text text-anchor="middle" x="0" y="168.3125" style="font-family: Arial; font-size: 12px; fill: rgb(0, 0, 0); fill-opacity: 1; white-space: pre; opacity: 1;" transform="translate(376.82,0)">1.15ms</text></g><g class="xtick"><text text-anchor="middle" x="0" y="168.3125" style="font-family: Arial; font-size: 12px; fill: rgb(0, 0, 0); fill-opacity: 1; white-space: pre; opacity: 1;" transform="translate(477.88,0)">1.20ms</text></g><g class="xtick"><text text-anchor="middle" x="0" y="168.3125" style="font-family: Arial; font-size: 12px; fill: rgb(0, 0, 0); fill-opacity: 1; white-space: pre; opacity: 1;" transform="translate(578.94,0)">1.25ms</text></g><g class="xtick"><text text-anchor="middle" x="0" y="168.3125" style="font-family: Arial; font-size: 12px; fill: rgb(0, 0, 0); fill-opacity: 1; white-space: pre; opacity: 1;" transform="translate(680,0)">1.30ms</text></g></g><g class="yaxislayer-above"><g class="ytick"><text text-anchor="end" x="73" y="4.199999999999999" transform="translate(0,149.05)" style="font-family: Arial; font-size: 12px; fill: rgb(0, 0, 0); fill-opacity: 1; white-space: pre; opacity: 1;">−1.00V</text></g><g class="ytick"><text text-anchor="end" x="73" y="4.199999999999999" style="font-family: Arial; font-size: 12px; fill: rgb(0, 0, 0); fill-opacity: 1; white-space: pre; opacity: 1;" transform="translate(0,120.85)">−500mV</text></g><g class="ytick"><text text-anchor="end" x="73" y="4.199999999999999" style="font-family: Arial; font-size: 12px; fill: rgb(0, 0, 0); fill-opacity: 1; white-space: pre; opacity: 1;" transform="translate(0,92.66)">0.00V</text></g><g class="ytick"><text text-anchor="end" x="73" y="4.199999999999999" style="font-family: Arial; font-size: 12px; fill: rgb(0, 0, 0); fill-opacity: 1; white-space: pre; opacity: 1;" transform="translate(0,64.46000000000001)">500mV</text></g><g class="ytick"><text text-anchor="end" x="73" y="4.199999999999999" style="font-family: Arial; font-size: 12px; fill: rgb(0, 0, 0); fill-opacity: 1; white-space: pre; opacity: 1;" transform="translate(0,36.269999999999996)">1.00V</text></g></g><g class="overaxes-above"/></g><g class="subplot x2y2"><g class="layer-subplot"><g class="shapelayer"/><g class="imagelayer"/></g><g class="minor-gridlayer"><g class="x2"/><g class="y2"/></g><g class="gridlayer"><g class="x2"><path class="x2grid crisp" transform="translate(174.7,0)" d="M0,255.5625v125.3125" style="stroke: rgb(255, 255, 255); stroke-opacity: 1; stroke-width: 1px;"/><path class="x2grid crisp" transform="translate(275.76,0)" d="M0,255.5625v125.3125" style="stroke: rgb(255, 255, 255); stroke-opacity: 1; stroke-width: 1px;"/><path class="x2grid crisp" transform="translate(376.82,0)" d="M0,255.5625v125.3125" style="stroke: rgb(255, 255, 255); stroke-opacity: 1; stroke-width: 1px;"/><path class="x2grid crisp" transform="translate(477.88,0)" d="M0,255.5625v125.3125" style="stroke: rgb(255, 255, 255); stroke-opacity: 1; stroke-width: 1px;"/><path class="x2grid crisp" transform="translate(578.94,0)" d="M0,255.5625v125.3125" style="stroke: rgb(255, 255, 255); stroke-opacity: 1; stroke-width: 1px;"/></g><g class="y2"><path class="y2grid crisp" transform="translate(0,374.6125)" d="M74,0h606" style="stroke: rgb(255, 255, 255); stroke-opacity: 1; stroke-width: 1px;"/><path class="y2grid crisp" transform="translate(0,346.4125)" d="M74,0h606" style="stroke: rgb(255, 255, 255); stroke-opacity: 1; stroke-width: 1px;"/><path class="y2grid crisp" transform="translate(0,290.0225)" d="M74,0h606" style="stroke: rgb(255, 255, 255); stroke-opacity: 1; stroke-width: 1px;"/><path class="y2grid crisp" transform="translate(0,261.8325)" d="M74,0h606" style="stroke: rgb(255, 255, 255); stroke-opacity: 1; stroke-width: 1px;"/></g></g><g class="zerolinelayer"><path class="y2zl zl crisp" transform="translate(0,318.22249999999997)" d="M74,0h606" style="stroke: rgb(255, 255, 255); stroke-opacity: 1; stroke-width: 2px;"/></g><path class="xlines-below"/><path class="ylines-below"/><g class="overlines-below"/><g class="xaxislayer-below"/><g class="yaxislayer-below"/><g class="overaxes-below"/><g class="plot" transform="translate(74,255.5625)" clip-path="url(#clip515f64x2y2plot)"><g class="scatterlayer mlayer"><g class="trace scatter trace41017b" style="stroke-miterlimit: 2; opacity: 1;"><g class="fills"/><g class="errorbars"/><g class="lines"><path class="js-line" d="M0,62.03L15.39,36.13L17.42,33.06L25.5,22.05L27.52,19.67L35.61,11.95L36.48,11.29L42.79,7.74L43.88,7.34L49.51,6.28L49.76,6.27L54.69,6.82L56.71,7.43L62.77,10.54L64.79,11.99L70.86,17.53L72.88,19.74L80.96,30.19L82.98,33.15L93.09,49.44L95.11,52.91L118.54,92.35L120.56,95.31L128.65,105.71L130.67,107.92L136.73,113.42L138.75,114.86L144.82,117.93L146.84,118.53L153.1,118.96L153.25,118.94L158.3,117.69L158.45,117.64L164.07,114.62L164.41,114.39L171.08,108.65L173.1,106.51L181.19,96.31L183.21,93.4L193.32,77.29L195.34,73.84L220.05,32.29L222.08,29.36L230.16,19.09L232.18,16.93L239.91,10.39L240.24,10.18L245.83,7.4L246.12,7.3L251.45,6.28L251.66,6.28L256.8,6.82L258.82,7.42L264.88,10.53L266.9,11.98L272.97,17.52L274.99,19.73L283.07,30.17L285.09,33.13L297.22,52.89L299.24,56.4L320.65,92.34L322.67,95.3L330.76,105.71L332.78,107.91L338.84,113.41L340.86,114.86L346.93,117.93L348.95,118.52L355.19,118.96L355.34,118.94L360.69,117.59L361.07,117.43L366.6,114.33L366.99,114.05L371.61,110.2L373.37,108.48L381.45,98.87L383.47,96.08L393.58,80.41L395.6,77.02L422.98,31.11L425,28.24L433.08,18.21L435.1,16.12L442.82,9.88L442.99,9.78L448.89,7.09L449.03,7.05L454.14,6.27L454.6,6.27L459.6,7L461.37,7.58L467.43,10.82L469.45,12.32L475.52,17.97L477.54,20.22L485.62,30.79L487.64,33.77L499.77,53.63L501.79,57.15L521.88,90.99L523.9,94L531.98,104.67L534,106.95L540.07,112.71L542.09,114.24L548.15,117.6L550.17,118.29L556.39,119.03L556.96,118.99L562.22,117.81L562.34,117.77L568.67,114.37L569.1,114.06L575.41,108.56L577.43,106.41L585.51,96.19L587.53,93.28L597.64,77.15L599.66,73.7L606,62.66" style="vector-effect: non-scaling-stroke; fill: none; stroke: rgb(0, 204, 150); stroke-opacity: 1; stroke-width: 2px; opacity: 1;"/></g><g class="points"/><g class="text"/></g></g></g><g class="overplot"/><path class="xlines-above crisp" d="M0,0" style="fill: none;"/><path class="ylines-above crisp" d="M0,0" style="fill: none;"/><g class="overlines-above"/><g class="xaxislayer-above"><g class="x2tick"><text text-anchor="middle" x="0" y="393.875" transform="translate(174.7,0)" style="font-family: Arial; font-size: 12px; fill: rgb(0, 0, 0); fill-opacity: 1; white-space: pre; opacity: 1;">1.05ms</text></g><g class="x2tick"><text text-anchor="middle" x="0" y="393.875" style="font-family: Arial; font-size: 12px; fill: rgb(0, 0, 0); fill-opacity: 1; white-space: pre; opacity: 1;" transform="translate(275.76,0)">1.10ms</text></g><g class="x2tick"><text text-anchor="middle" x="0" y="393.875" style="font-family: Arial; font-size: 12px; fill: rgb(0, 0, 0); fill-opacity: 1; white-space: pre; opacity: 1;" transform="translate(376.82,0)">1.15ms</text></g><g class="x2tick"><text text-anchor="middle" x="0" y="393.875" style="font-family: Arial; font-size: 12px; fill: rgb(0, 0, 0); fill-opacity: 1; white-space: pre; opacity: 1;" transform="translate(477.88,0)">1.20ms</text></g><g class="x2tick"><text text-anchor="middle" x="0" y="393.875" style="font-family: Arial; font-size: 12px; fill: rgb(0, 0, 0); fill-opacity: 1; white-space: pre; opacity: 1;" transform="translate(578.94,0)">1.25ms</text></g><g class="x2tick"><text text-anchor="middle" x="0" y="393.875" style="font-family: Arial; font-size: 12px; fill: rgb(0, 0, 0); fill-opacity: 1; white-space: pre; opacity: 1;" transform="translate(680,0)">1.30ms</text></g></g><g class="yaxislayer-above"><g class="y2tick"><text text-anchor="end" x="73" y="4.199999999999999" transform="translate(0,374.6125)" style="font-family: Arial; font-size: 12px; fill: rgb(0, 0, 0); fill-opacity: 1; white-space: pre; opacity: 1;">−1.00V</text></g><g class="y2tick"><text text-anchor="end" x="73" y="4.199999999999999" style="font-family: Arial; font-size: 12px; fill: rgb(0, 0, 0); fill-opacity: 1; white-space: pre; opacity: 1;" transform="translate(0,346.4125)">−500mV</text></g><g class="y2tick"><text text-anchor="end" x="73" y="4.199999999999999" style="font-family: Arial; font-size: 12px; fill: rgb(0, 0, 0); fill-opacity: 1; white-space: pre; opacity: 1;" transform="translate(0,318.22249999999997)">0.00V</text></g><g class="y2tick"><text text-anchor="end" x="73" y="4.199999999999999" style="font-family: Arial; font-size: 12px; fill: rgb(0, 0, 0); fill-opacity: 1; white-space: pre; opacity: 1;" transform="translate(0,290.0225)">500mV</text></g><g class="y2tick"><text text-anchor="end" x="73" y="4.199999999999999" style="font-family: Arial; font-size: 12px; fill: rgb(0, 0, 0); fill-opacity: 1; white-space: pre; opacity: 1;" transform="translate(0,261.8325)">1.00V</text></g></g><g class="overaxes-above"/></g><g class="subplot x3y3"><g class="layer-subplot"><g class="shapelayer"/><g class="imagelayer"/></g><g class="minor-gridlayer"><g class="x3"/><g class="y3"/></g><g class="gridlayer"><g class="x3"><path class="x3grid crisp" transform="translate(174.7,0)" d="M0,481.125v125.3125" style="stroke: rgb(255, 255, 255); stroke-opacity: 1; stroke-width: 1px;"/><path class="x3grid crisp" transform="translate(275.76,0)" d="M0,481.125v125.3125" style="stroke: rgb(255, 255, 255); stroke-opacity: 1; stroke-width: 1px;"/><path class="x3grid crisp" transform="translate(376.82,0)" d="M0,481.125v125.3125" style="stroke: rgb(255, 255, 255); stroke-opacity: 1; stroke-width: 1px;"/><path class="x3grid crisp" transform="translate(477.88,0)" d="M0,481.125v125.3125" style="stroke: rgb(255, 255, 255); stroke-opacity: 1; stroke-width: 1px;"/><path class="x3grid crisp" transform="translate(578.94,0)" d="M0,481.125v125.3125" style="stroke: rgb(255, 255, 255); stroke-opacity: 1; stroke-width: 1px;"/></g><g class="y3"><path class="y3grid crisp" transform="translate(0,592.465)" d="M74,0h606" style="stroke: rgb(255, 255, 255); stroke-opacity: 1; stroke-width: 1px;"/><path class="y3grid crisp" transform="translate(0,510.275)" d="M74,0h606" style="stroke: rgb(255, 255, 255); stroke-opacity: 1; stroke-width: 1px;"/></g></g><g class="zerolinelayer"><path class="y3zl zl crisp" transform="translate(0,551.375)" d="M74,0h606" style="stroke: rgb(255, 255, 255); stroke-opacity: 1; stroke-width: 2px;"/></g><path class="xlines-below"/><path class="ylines-below"/><g class="overlines-below"/><g class="xaxislayer-below"/><g class="yaxislayer-below"/><g class="overaxes-below"/><g class="plot" transform="translate(74,481.125)" clip-path="url(#clip515f64x3y3plot)"><g class="scatterlayer mlayer"><g class="trace scatter trace9b4da3" style="stroke-miterlimit: 2; opacity: 1;"><g class="fills"/><g class="errorbars"/><g class="lines"><path class="js-line" d="M0,119.05L36.48,118.07L37.57,117.14L39.28,115.37L39.58,114.55L40.66,108.02L41.15,103.21L47.55,40.1L48.25,30.57L50.07,12.72L50.48,11.15L52.41,7.45L52.96,7.31L58.73,6.82L60.75,6.74L108.43,6.3L110.45,6.32L146.84,7.05L148.86,7.32L150.11,7.85L150.87,9.01L152.27,14.06L152.85,18.12L159.16,84.3L159.99,92.53L162.76,114.37L163.12,115.23L165.21,117.76L165.87,118.35L168.11,118.72L169.41,118.77L202.92,119.04L203.49,119.04L238.03,118.4L238.89,117.83L241.45,115.22L241.74,114.35L242.47,110.56L242.87,106.98L250.02,35.02L250.59,27.33L252.33,12.06L252.78,10.49L254.53,7.45L255,7.32L260.84,6.82L262.86,6.74L310.55,6.3L312.57,6.32L348.95,7.05L350.97,7.32L352.25,7.86L353,9.05L354.86,17.1L355.19,20.43L359.82,71.24L359.9,71.79L361.07,82.22L361.73,88.77L364.92,114.42L365.32,115.41L367.42,117.86L368.02,118.36L370.31,118.71L371.61,118.78L412.87,119.02L414.89,119L440.2,118.38L440.99,117.82L443.5,115.34L443.82,114.44L444.52,110.92L444.94,107.24L452.33,32.13L452.82,25.44L454.6,11.43L455.14,9.66L456.88,7.38L457.58,7.23L465.41,6.73L467.43,6.67L519.85,6.36L521.88,6.38L552.19,7.17L554.22,7.76L555.12,8.99L556.02,11.85L557.32,20.46L557.49,22.55L561.84,70.56L561.95,71.29L563.67,86.84L564.56,95.76L567.19,114.81L567.51,115.52L570.14,118.35L570.63,118.55L577.43,118.86L579.45,118.89L606,119.04" style="vector-effect: non-scaling-stroke; fill: none; stroke: rgb(0, 0, 0); stroke-opacity: 1; stroke-width: 2px; opacity: 1; stroke-dasharray: 3px, 3px;"/></g><g class="points"/><g class="text"/></g><g class="trace scatter tracedc491d" style="stroke-miterlimit: 2; opacity: 1;"><g class="fills"/><g class="errorbars"/><g class="lines"><path class="js-line" d="M0,70.25L44.6,69.8L44.8,69.06L45.95,60.88L46.29,56.82L50.07,13.92L50.48,12.7L52.41,10.21L52.96,10.13L60.75,9.79L62.77,9.75L122.58,9.6L124.6,9.61L150.11,10.47L150.87,11.21L152.27,15.02L152.85,18.73L157.86,70.2L157.92,70.22L163.8,70.25L164.07,70.25L246.78,69.55L246.92,68.98L248.12,60.05L248.55,54.9L252.33,13.39L252.78,12.23L254.53,10.21L255,10.14L262.86,9.79L264.88,9.75L324.7,9.6L326.72,9.61L352.25,10.47L353,11.24L354.37,14.93L354.86,17.76L356.87,43.09L357.48,51.12L359.82,70.07L359.9,70.15L361.73,70.25L362.8,70.25L448.89,69.53L449.03,68.9L450.42,57.71L450.87,52L454.14,14.37L454.6,12.91L456.32,10.28L456.88,10.18L463.39,9.82L465.41,9.78L527.94,9.6L529.96,9.62L554.22,10.4L555.12,11.2L556.39,14.48L556.96,17.58L558.65,38.43L559.23,46.17L561.84,69.85L561.95,70.08L563.07,70.25L563.67,70.25L606,70.25" style="vector-effect: non-scaling-stroke; fill: none; stroke: rgb(255, 161, 90); stroke-opacity: 1; stroke-width: 2px; opacity: 1;"/></g><g class="points"/><g class="text"/></g><g class="trace scatter tracec72c42" style="stroke-miterlimit: 2; opacity: 1;"><g class="fills"/><g class="errorbars"/><g class="lines"><path class="js-line" d="M0,24.58L27.52,24.59L29.54,24.58L39.02,25.27L39.28,25.75L40.26,29.56L40.66,32.76L45.14,70.2L45.3,70.22L54.69,70.25L56.71,70.25L157.5,69.82L157.61,69.46L158.45,63.22L158.75,60.34L162.76,26.66L163.12,25.88L164.41,24.67L164.78,24.61L240.93,25.02L241.19,25.38L242.16,28.32L242.47,30.27L247.34,70.21L247.44,70.23L266.9,70.25L268.92,70.25L359.7,69.57L359.82,69.09L361.07,58.36L361.73,51.85L364.92,26.61L365.32,25.72L366.99,24.62L367.42,24.6L443.24,25.31L443.5,25.78L444.52,29.92L444.94,33.53L449.38,70.21L449.49,70.22L458.25,70.25L459.6,70.25L561.84,69.55L561.95,69.05L563.07,59.61L563.67,53.77L566.89,27.01L567.19,26.25L568.67,24.66L569.1,24.61L599.66,24.59L601.68,24.59L606,24.59" style="vector-effect: non-scaling-stroke; fill: none; stroke: rgb(25, 211, 243); stroke-opacity: 1; stroke-width: 2px; opacity: 1;"/></g><g class="points"/><g class="text"/></g></g></g><g class="overplot"/><path class="xlines-above crisp" d="M0,0" style="fill: none;"/><path class="ylines-above crisp" d="M0,0" style="fill: none;"/><g class="overlines-above"/><g class="xaxislayer-above"><g class="x3tick"><text text-anchor="middle" x="0" y="619.4375" transform="translate(174.7,0)" style="font-family: Arial; font-size: 12px; fill: rgb(0, 0, 0); fill-opacity: 1; white-space: pre; opacity: 1;">1.05ms</text></g><g class="x3tick"><text text-anchor="middle" x="0" y="619.4375" style="font-family: Arial; font-size: 12px; fill: rgb(0, 0, 0); fill-opacity: 1; white-space: pre; opacity: 1;" transform="translate(275.76,0)">1.10ms</text></g><g class="x3tick"><text text-anchor="middle" x="0" y="619.4375" style="font-family: Arial; font-size: 12px; fill: rgb(0, 0, 0); fill-opacity: 1; white-space: pre; opacity: 1;" transform="translate(376.82,0)">1.15ms</text></g><g class="x3tick"><text text-anchor="middle" x="0" y="619.4375" style="font-family: Arial; font-size: 12px; fill: rgb(0, 0, 0); fill-opacity: 1; white-space: pre; opacity: 1;" transform="translate(477.88,0)">1.20ms</text></g><g class="x3tick"><text text-anchor="middle" x="0" y="619.4375" style="font-family: Arial; font-size: 12px; fill: rgb(0, 0, 0); fill-opacity: 1; white-space: pre; opacity: 1;" transform="translate(578.94,0)">1.25ms</text></g><g class="x3tick"><text text-anchor="middle" x="0" y="619.4375" style="font-family: Arial; font-size: 12px; fill: rgb(0, 0, 0); fill-opacity: 1; white-space: pre; opacity: 1;" transform="translate(680,0)">1.30ms</text></g></g><g class="yaxislayer-above"><g class="y3tick"><text text-anchor="end" x="73" y="4.199999999999999" transform="translate(0,592.465)" style="font-family: Arial; font-size: 12px; fill: rgb(0, 0, 0); fill-opacity: 1; white-space: pre; opacity: 1;">−500mA</text></g><g class="y3tick"><text text-anchor="end" x="73" y="4.199999999999999" style="font-family: Arial; font-size: 12px; fill: rgb(0, 0, 0); fill-opacity: 1; white-space: pre; opacity: 1;" transform="translate(0,551.375)">0.00A</text></g><g class="y3tick"><text text-anchor="end" x="73" y="4.199999999999999" style="font-family: Arial; font-size: 12px; fill: rgb(0, 0, 0); fill-opacity: 1; white-space: pre; opacity: 1;" transform="translate(0,510.275)">500mA</text></g></g><g class="overaxes-above"/></g><g class="subplot x4y4"><g class="layer-subplot"><g class="shapelayer"/><g class="imagelayer"/></g><g class="minor-gridlayer"><g class="x4"/><g class="y4"/></g><g class="gridlayer"><g class="x4"><path class="x4grid crisp" transform="translate(174.7,0)" d="M0,706.6875v125.3125" style="stroke: rgb(255, 255, 255); stroke-opacity: 1; stroke-width: 1px;"/><path class="x4grid crisp" transform="translate(275.76,0)" d="M0,706.6875v125.3125" style="stroke: rgb(255, 255, 255); stroke-opacity: 1; stroke-width: 1px;"/><path class="x4grid crisp" transform="translate(376.82,0)" d="M0,706.6875v125.3125" style="stroke: rgb(255, 255, 255); stroke-opacity: 1; stroke-width: 1px;"/><path class="x4grid crisp" transform="translate(477.88,0)" d="M0,706.6875v125.3125" style="stroke: rgb(255, 255, 255); stroke-opacity: 1; stroke-width: 1px;"/><path class="x4grid crisp" transform="translate(578.94,0)" d="M0,706.6875v125.3125" style="stroke: rgb(255, 255, 255); stroke-opacity: 1; stroke-width: 1px;"/></g><g class="y4"><path class="y4grid crisp" transform="translate(0,827.2675)" d="M74,0h606" style="stroke: rgb(255, 255, 255); stroke-opacity: 1; stroke-width: 1px;"/><path class="y4grid crisp" transform="translate(0,798.4775)" d="M74,0h606" style="stroke: rgb(255, 255, 255); stroke-opacity: 1; stroke-width: 1px;"/><path class="y4grid crisp" transform="translate(0,740.8975)" d="M74,0h606" style="stroke: rgb(255, 255, 255); stroke-opacity: 1; stroke-width: 1px;"/><path class="y4grid crisp" transform="translate(0,712.1075)" d="M74,0h606" style="stroke: rgb(255, 255, 255); stroke-opacity: 1; stroke-width: 1px;"/></g></g><g class="zerolinelayer"><path class="y4zl zl crisp" transform="translate(0,769.6875)" d="M74,0h606" style="stroke: rgb(255, 255, 255); stroke-opacity: 1; stroke-width: 2px;"/></g><path class="xlines-below"/><path class="ylines-below"/><g class="overlines-below"/><g class="xaxislayer-below"/><g class="yaxislayer-below"/><g class="overaxes-below"/><g class="plot" transform="translate(74,706.6875)" clip-path="url(#clip515f64x4y4plot)"><g class="scatterlayer mlayer"><g class="trace scatter tracee72c47" style="stroke-miterlimit: 2; opacity: 1;"><g class="fills"/><g class="errorbars"/><g class="lines"><path class="js-line" d="M0,119.05L11.35,118.34L13.37,118.16L27.52,116.09L29.54,115.5L33.59,113.35L35.61,109.62L37.57,86.07L37.91,81.57L39.76,72.47L40.01,71.28L41.56,67.05L42.03,66.23L44.8,63.16L44.98,63.07L45.95,62.11L46.29,61.52L48.25,56.49L48.69,54.91L49.51,49.41L49.76,46.36L52.41,14.54L52.96,13.62L54.69,11.96L56.71,10.9L62.77,9.28L64.79,8.93L80.96,7.27L82.98,7.14L104.76,6.37L105.64,6.41L132.69,8.35L134.71,8.61L144.82,10.81L146.84,11.8L148.86,13.68L150.11,17.24L151.9,40.92L152.27,46.24L154.09,57.89L154.39,58.77L156.79,63.04L156.96,63.17L159.99,66.49L161.24,68.74L163.5,76.6L163.8,78.31L165.21,96.95L165.87,106.89L166.91,111.69L167.47,112.64L169.41,114.32L171.08,115.09L177.15,116.72L179.17,117.06L195.34,118.72L197.36,118.86L206.87,118.84L208.29,118.74L226.12,116.83L228.14,116.43L234.2,114.43L236.22,112.79L238.03,107.82L238.89,97.91L240.93,77.02L241.19,75.91L243.74,66.91L244.21,66.09L246.92,63.15L247.06,63.08L248.12,61.99L248.55,61.23L250.59,55.69L250.95,54.28L251.91,45.79L252.33,39.62L254.53,14.53L255,13.69L256.8,11.95L258.82,10.9L264.88,9.28L266.9,8.93L283.07,7.27L285.09,7.13L307.76,6.41L309.01,6.47L334.8,8.35L336.82,8.61L344.91,10.15L346.93,10.82L348.95,11.78L350.97,13.68L352.25,17.27L353,24.72L355.72,56.26L355.88,56.8L358.34,62.62L358.67,62.9L361.07,65.03L361.73,65.91L363.97,70.12L364.58,72.05L366.27,81.61L366.6,85.84L369.05,111.73L369.66,112.72L371.61,114.36L373.37,115.15L379.43,116.75L381.45,117.09L397.62,118.74L399.64,118.87L409.34,118.81L410.89,118.71L429.04,116.68L431.06,116.24L437.13,113.93L439.15,111.5L440.2,107.41L440.99,97.72L442.99,77.15L443.24,76.13L445.87,66.86L446.35,66.02L449.12,63.1L449.2,63.06L450.42,61.66L450.87,60.77L453.12,53.95L453.38,52.46L454.6,36.99L455.14,28.18L456.32,15.23L456.88,14.1L458.25,12.44L459.6,11.49L465.41,9.59L467.43,9.19L481.58,7.55L483.6,7.39L507.8,6.32L508.59,6.35L536.02,8.25L538.05,8.49L548.15,10.49L550.17,11.3L552.19,12.62L554.22,16.58L555.12,24.37L556.02,38.92L557.89,56.39L558.06,56.99L560.51,62.65L560.99,63.01L563.67,65.64L564.56,67.02L566.89,72.82L567.19,74.1L568.29,80.39L568.67,85.07L571.17,111.71L571.75,112.67L573.7,114.34L575.41,115.12L581.47,116.74L583.49,117.07L599.66,118.73L601.68,118.87L606,119.05" style="vector-effect: non-scaling-stroke; fill: none; stroke: rgb(255, 102, 146); stroke-opacity: 1; stroke-width: 2px; opacity: 1;"/></g><g class="points"/><g class="text"/></g></g></g><g class="overplot"/><path class="xlines-above crisp" d="M0,0" style="fill: none;"/><path class="ylines-above crisp" d="M0,0" style="fill: none;"/><g class="overlines-above"/><g class="xaxislayer-above"><g class="x4tick"><text text-anchor="middle" x="0" y="845" transform="translate(174.7,0)" style="font-family: Arial; font-size: 12px; fill: rgb(0, 0, 0); fill-opacity: 1; white-space: pre; opacity: 1;">1.05ms</text></g><g class="x4tick"><text text-anchor="middle" x="0" y="845" style="font-family: Arial; font-size: 12px; fill: rgb(0, 0, 0); fill-opacity: 1; white-space: pre; opacity: 1;" transform="translate(275.76,0)">1.10ms</text></g><g class="x4tick"><text text-anchor="middle" x="0" y="845" style="font-family: Arial; font-size: 12px; fill: rgb(0, 0, 0); fill-opacity: 1; white-space: pre; opacity: 1;" transform="translate(376.82,0)">1.15ms</text></g><g class="x4tick"><text text-anchor="middle" x="0" y="845" style="font-family: Arial; font-size: 12px; fill: rgb(0, 0, 0); fill-opacity: 1; white-space: pre; opacity: 1;" transform="translate(477.88,0)">1.20ms</text></g><g class="x4tick"><text text-anchor="middle" x="0" y="845" style="font-family: Arial; font-size: 12px; fill: rgb(0, 0, 0); fill-opacity: 1; white-space: pre; opacity: 1;" transform="translate(578.94,0)">1.25ms</text></g><g class="x4tick"><text text-anchor="middle" x="0" y="845" style="font-family: Arial; font-size: 12px; fill: rgb(0, 0, 0); fill-opacity: 1; white-space: pre; opacity: 1;" transform="translate(680,0)">1.30ms</text></g></g><g class="yaxislayer-above"><g class="y4tick"><text text-anchor="end" x="73" y="4.199999999999999" transform="translate(0,827.2675)" style="font-family: Arial; font-size: 12px; fill: rgb(0, 0, 0); fill-opacity: 1; white-space: pre; opacity: 1;">−40.0mA</text></g><g class="y4tick"><text text-anchor="end" x="73" y="4.199999999999999" style="font-family: Arial; font-size: 12px; fill: rgb(0, 0, 0); fill-opacity: 1; white-space: pre; opacity: 1;" transform="translate(0,798.4775)">−20.0mA</text></g><g class="y4tick"><text text-anchor="end" x="73" y="4.199999999999999" style="font-family: Arial; font-size: 12px; fill: rgb(0, 0, 0); fill-opacity: 1; white-space: pre; opacity: 1;" transform="translate(0,769.6875)">0.00A</text></g><g class="y4tick"><text text-anchor="end" x="73" y="4.199999999999999" style="font-family: Arial; font-size: 12px; fill: rgb(0, 0, 0); fill-opacity: 1; white-space: pre; opacity: 1;" transform="translate(0,740.8975)">20.0mA</text></g><g class="y4tick"><text text-anchor="end" x="73" y="4.199999999999999" style="font-family: Arial; font-size: 12px; fill: rgb(0, 0, 0); fill-opacity: 1; white-space: pre; opacity: 1;" transform="translate(0,712.1075)">40.0mA</text></g></g><g class="overaxes-above"/></g></g><g class="polarlayer"/><g class="smithlayer"/><g class="ternarylayer"/><g class="geolayer"/><g class="funnelarealayer"/><g class="pielayer"/><g class="iciclelayer"/><g class="treemaplayer"/><g class="sunburstlayer"/><g class="glimages"/><defs id="topdefs-515f64"><g class="clips"/><clipPath id="legend515f64"><rect width="562" height="48" x="0" y="0"/></clipPath></defs><g class="layer-above"><g class="imagelayer"/><g class="shapelayer"/></g><g class="infolayer"><g class="legend" pointer-events="all" transform="translate(80.06,952)"><rect class="bg" shape-rendering="crispEdges" width="562" height="48" x="0" y="0" style="stroke: rgb(68, 68, 68); stroke-opacity: 1; fill: rgb(255, 255, 255); fill-opacity: 1; stroke-width: 0px;"/><g class="scrollbox" transform="" clip-path="url(#legend515f64)"><g class="groups"><g class="traces" transform="translate(0,14.5)" style="opacity: 1;"><text class="legendtext" text-anchor="start" x="40" y="4.680000000000001" style="font-family: Arial; font-size: 12px; fill: rgb(0, 0, 0); fill-opacity: 1; white-space: pre;">v(Uin)</text><g class="layers" style="opacity: 1;"><g class="legendfill"/><g class="legendlines"><path class="js-line" d="M5,0h30" style="fill: none; stroke: rgb(0, 0, 0); stroke-opacity: 1; stroke-dasharray: 9px, 9px; stroke-width: 2px;"/></g><g class="legendsymbols"><g class="legendpoints"/></g></g><rect class="legendtoggle" x="0" y="-9.5" width="75.515625" height="19" style="fill: rgb(0, 0, 0); fill-opacity: 0;"/></g><g class="traces" transform="translate(121.34375,14.5)" style="opacity: 1;"><text class="legendtext" text-anchor="start" x="40" y="4.680000000000001" style="font-family: Arial; font-size: 12px; fill: rgb(0, 0, 0); fill-opacity: 1; white-space: pre;">v(Uout)</text><g class="layers" style="opacity: 1;"><g class="legendfill"/><g class="legendlines"><path class="js-line" d="M5,0h30" style="fill: none; stroke: rgb(239, 85, 59); stroke-opacity: 1; stroke-width: 2px;"/></g><g class="legendsymbols"><g class="legendpoints"/></g></g><rect class="legendtoggle" x="0" y="-9.5" width="82.84375" height="19" style="fill: rgb(0, 0, 0); fill-opacity: 0;"/></g><g class="traces" transform="translate(242.6875,14.5)" style="opacity: 1;"><text class="legendtext" text-anchor="start" x="40" y="4.680000000000001" style="font-family: Arial; font-size: 12px; fill: rgb(0, 0, 0); fill-opacity: 1; white-space: pre;">v(Uin)-v(Uout)</text><g class="layers" style="opacity: 1;"><g class="legendfill"/><g class="legendlines"><path class="js-line" d="M5,0h30" style="fill: none; stroke: rgb(0, 204, 150); stroke-opacity: 1; stroke-width: 2px;"/></g><g class="legendsymbols"><g class="legendpoints"/></g></g><rect class="legendtoggle" x="0" y="-9.5" width="118.84375" height="19" style="fill: rgb(0, 0, 0); fill-opacity: 0;"/></g><g class="traces" transform="translate(364.03125,14.5)" style="opacity: 1;"><text class="legendtext" text-anchor="start" x="40" y="4.680000000000001" style="font-family: Arial; font-size: 12px; fill: rgb(0, 0, 0); fill-opacity: 1; white-space: pre;">I(RLast)</text><g class="layers" style="opacity: 1;"><g class="legendfill"/><g class="legendlines"><path class="js-line" d="M5,0h30" style="fill: none; stroke: rgb(0, 0, 0); stroke-opacity: 1; stroke-dasharray: 3px, 3px; stroke-width: 2px;"/></g><g class="legendsymbols"><g class="legendpoints"/></g></g><rect class="legendtoggle" x="0" y="-9.5" width="85.1875" height="19" style="fill: rgb(0, 0, 0); fill-opacity: 0;"/></g><g class="traces" transform="translate(485.375,14.5)" style="opacity: 1;"><text class="legendtext" text-anchor="start" x="40" y="4.680000000000001" style="font-family: Arial; font-size: 12px; fill: rgb(0, 0, 0); fill-opacity: 1; white-space: pre;">Ic(T1)</text><g class="layers" style="opacity: 1;"><g class="legendfill"/><g class="legendlines"><path class="js-line" d="M5,0h30" style="fill: none; stroke: rgb(255, 161, 90); stroke-opacity: 1; stroke-width: 2px;"/></g><g class="legendsymbols"><g class="legendpoints"/></g></g><rect class="legendtoggle" x="0" y="-9.5" width="73.84375" height="19" style="fill: rgb(0, 0, 0); fill-opacity: 0;"/></g><g class="traces" transform="translate(0,33.5)" style="opacity: 1;"><text class="legendtext" text-anchor="start" x="40" y="4.680000000000001" style="font-family: Arial; font-size: 12px; fill: rgb(0, 0, 0); fill-opacity: 1; white-space: pre;">Ic(T2)</text><g class="layers" style="opacity: 1;"><g class="legendfill"/><g class="legendlines"><path class="js-line" d="M5,0h30" style="fill: none; stroke: rgb(25, 211, 243); stroke-opacity: 1; stroke-width: 2px;"/></g><g class="legendsymbols"><g class="legendpoints"/></g></g><rect class="legendtoggle" x="0" y="-9.5" width="73.84375" height="19" style="fill: rgb(0, 0, 0); fill-opacity: 0;"/></g><g class="traces" transform="translate(121.34375,33.5)" style="opacity: 1;"><text class="legendtext" text-anchor="start" x="40" y="4.680000000000001" style="font-family: Arial; font-size: 12px; fill: rgb(0, 0, 0); fill-opacity: 1; white-space: pre;">I(Rshunt)</text><g class="layers" style="opacity: 1;"><g class="legendfill"/><g class="legendlines"><path class="js-line" d="M5,0h30" style="fill: none; stroke: rgb(255, 102, 146); stroke-opacity: 1; stroke-width: 2px;"/></g><g class="legendsymbols"><g class="legendpoints"/></g></g><rect class="legendtoggle" x="0" y="-9.5" width="91.859375" height="19" style="fill: rgb(0, 0, 0); fill-opacity: 0;"/></g></g></g><rect class="scrollbar" rx="20" ry="3" width="0" height="0" x="0" y="0" style="fill: rgb(128, 139, 164); fill-opacity: 1;"/></g><g class="g-gtitle"/><g class="g-xtitle"/><g class="g-x2title"/><g class="g-x3title"/><g class="g-x4title"><text class="x4title" x="377" y="872.8" text-anchor="middle" style="font-family: Arial; font-size: 14px; fill: rgb(0, 0, 0); opacity: 1; font-weight: normal; white-space: pre;">Time</text></g><g class="g-ytitle" transform="translate(9.8310546875,0)"><text class="ytitle" transform="rotate(-90,3.168750000000003,92.65625)" x="3.168750000000003" y="92.65625" text-anchor="middle" style="font-family: Arial; font-size: 14px; fill: rgb(0, 0, 0); opacity: 1; font-weight: normal; white-space: pre;">Voltage</text></g><g class="g-y2title" transform="translate(9.8310546875,0)"><text class="y2title" transform="rotate(-90,3.168750000000003,318.21875)" x="3.168750000000003" y="318.21875" text-anchor="middle" style="font-family: Arial; font-size: 14px; fill: rgb(0, 0, 0); opacity: 1; font-weight: normal; white-space: pre;">Voltage</text></g><g class="g-y3title" transform="translate(9.8310546875,0)"><text class="y3title" transform="rotate(-90,3.168750000000003,543.78125)" x="3.168750000000003" y="543.78125" text-anchor="middle" style="font-family: Arial; font-size: 14px; fill: rgb(0, 0, 0); opacity: 1; font-weight: normal; white-space: pre;">Current</text></g><g class="g-y4title" transform="translate(13.1748046875,0)"><text class="y4title" transform="rotate(-90,-0.17499999999999716,769.34375)" x="-0.17499999999999716" y="769.34375" text-anchor="middle" style="font-family: Arial; font-size: 14px; fill: rgb(0, 0, 0); opacity: 1; font-weight: normal; white-space: pre;">Current</text></g><g class="annotation" data-index="0" style="opacity: 1;"><g class="annotation-text-g" transform="rotate(0,377,19.499999999999993)"><g class="cursor-pointer" transform="translate(272,9)"><rect class="bg" x="0.5" y="0.5" width="209" height="20" style="stroke-width: 1px; stroke: rgb(0, 0, 0); stroke-opacity: 0; fill: rgb(0, 0, 0); fill-opacity: 0;"/><text class="annotation-text" text-anchor="middle" x="104.75" y="16" style="font-family: Arial; font-size: 16px; fill: rgb(0, 0, 0); fill-opacity: 1; white-space: pre;">Ein- und Ausgangsspannung</text></g></g></g><g class="annotation" data-index="1" style="opacity: 1;"><g class="annotation-text-g" transform="rotate(0,377,245.0625)"><g class="cursor-pointer" transform="translate(304,235)"><rect class="bg" x="0.5" y="0.5" width="145" height="20" style="stroke-width: 1px; stroke: rgb(0, 0, 0); stroke-opacity: 0; fill: rgb(0, 0, 0); fill-opacity: 0;"/><text class="annotation-text" text-anchor="middle" x="73.03125" y="16" style="font-family: Arial; font-size: 16px; fill: rgb(0, 0, 0); fill-opacity: 1; white-space: pre;">Spannungsdifferenz</text></g></g></g><g class="annotation" data-index="2" style="opacity: 1;"><g class="annotation-text-g" transform="rotate(0,377,470.625)"><g class="cursor-pointer" transform="translate(349,460)"><rect class="bg" x="0.5" y="0.5" width="55" height="20" style="stroke-width: 1px; stroke: rgb(0, 0, 0); stroke-opacity: 0; fill: rgb(0, 0, 0); fill-opacity: 0;"/><text class="annotation-text" text-anchor="middle" x="27.796875" y="16" style="font-family: Arial; font-size: 16px; fill: rgb(0, 0, 0); fill-opacity: 1; white-space: pre;">Ströme</text></g></g></g></g></svg>