<svg class="main-svg" xmlns="http://www.w3.org/2000/svg" xmlns:xlink="http://www.w3.org/1999/xlink" width="800" height="625" style="" viewBox="0 0 800 625"><rect x="0" y="0" width="800" height="625" style="fill: rgb(255, 255, 255); fill-opacity: 1;"/><defs id="defs-b86a36"><g class="clips"><clipPath id="clipb86a36xyplot" class="plotclip"><rect width="640" height="63.99200000000001"/></clipPath><clipPath id="clipb86a36x2y2plot" class="plotclip"><rect width="640" height="63.99200000000001"/></clipPath><clipPath id="clipb86a36x3y3plot" class="plotclip"><rect width="640" height="63.99199999999999"/></clipPath><clipPath id="clipb86a36x4y4plot" class="plotclip"><rect width="640" height="63.992"/></clipPath><clipPath id="clipb86a36x5y5plot" class="plotclip"><rect width="640" height="63.992"/></clipPath><clipPath class="axesclip" id="clipb86a36x"><rect x="80" y="0" width="640" height="625"/></clipPath><clipPath class="axesclip" id="clipb86a36y"><rect x="0" y="100" width="800" height="63.99200000000001"/></clipPath><clipPath class="axesclip" id="clipb86a36xy"><rect x="80" y="100" width="640" height="63.99200000000001"/></clipPath><clipPath class="axesclip" id="clipb86a36y2"><rect x="0" y="189.25200000000004" width="800" height="63.99200000000001"/></clipPath><clipPath class="axesclip" id="clipb86a36xy2"><rect x="80" y="189.25200000000004" width="640" height="63.99200000000001"/></clipPath><clipPath class="axesclip" id="clipb86a36y3"><rect x="0" y="278.504" width="800" height="63.99199999999999"/></clipPath><clipPath class="axesclip" id="clipb86a36xy3"><rect x="80" y="278.504" width="640" height="63.99199999999999"/></clipPath><clipPath class="axesclip" id="clipb86a36y4"><rect x="0" y="367.75600000000003" width="800" height="63.992"/></clipPath><clipPath class="axesclip" id="clipb86a36xy4"><rect x="80" y="367.75600000000003" width="640" height="63.992"/></clipPath><clipPath class="axesclip" id="clipb86a36y5"><rect x="0" y="457.008" width="800" height="63.992"/></clipPath><clipPath class="axesclip" id="clipb86a36xy5"><rect x="80" y="457.008" width="640" height="63.992"/></clipPath><clipPath class="axesclip" id="clipb86a36x2"><rect x="80" y="0" width="640" height="625"/></clipPath><clipPath class="axesclip" id="clipb86a36x2y"><rect x="80" y="100" width="640" height="63.99200000000001"/></clipPath><clipPath class="axesclip" id="clipb86a36x2y2"><rect x="80" y="189.25200000000004" width="640" height="63.99200000000001"/></clipPath><clipPath class="axesclip" id="clipb86a36x2y3"><rect x="80" y="278.504" width="640" height="63.99199999999999"/></clipPath><clipPath class="axesclip" id="clipb86a36x2y4"><rect x="80" y="367.75600000000003" width="640" height="63.992"/></clipPath><clipPath class="axesclip" id="clipb86a36x2y5"><rect x="80" y="457.008" width="640" height="63.992"/></clipPath><clipPath class="axesclip" id="clipb86a36x3"><rect x="80" y="0" width="640" height="625"/></clipPath><clipPath class="axesclip" id="clipb86a36x3y"><rect x="80" y="100" width="640" height="63.99200000000001"/></clipPath><clipPath class="axesclip" id="clipb86a36x3y2"><rect x="80" y="189.25200000000004" width="640" height="63.99200000000001"/></clipPath><clipPath class="axesclip" id="clipb86a36x3y3"><rect x="80" y="278.504" width="640" height="63.99199999999999"/></clipPath><clipPath class="axesclip" id="clipb86a36x3y4"><rect x="80" y="367.75600000000003" width="640" height="63.992"/></clipPath><clipPath class="axesclip" id="clipb86a36x3y5"><rect x="80" y="457.008" width="640" height="63.992"/></clipPath><clipPath class="axesclip" id="clipb86a36x4"><rect x="80" y="0" width="640" height="625"/></clipPath><clipPath class="axesclip" id="clipb86a36x4y"><rect x="80" y="100" width="640" height="63.99200000000001"/></clipPath><clipPath class="axesclip" id="clipb86a36x4y2"><rect x="80" y="189.25200000000004" width="640" height="63.99200000000001"/></clipPath><clipPath class="axesclip" id="clipb86a36x4y3"><rect x="80" y="278.504" width="640" height="63.99199999999999"/></clipPath><clipPath class="axesclip" id="clipb86a36x4y4"><rect x="80" y="367.75600000000003" width="640" height="63.992"/></clipPath><clipPath class="axesclip" id="clipb86a36x4y5"><rect x="80" y="457.008" width="640" height="63.992"/></clipPath><clipPath class="axesclip" id="clipb86a36x5"><rect x="80" y="0" width="640" height="625"/></clipPath><clipPath class="axesclip" id="clipb86a36x5y"><rect x="80" y="100" width="640" height="63.99200000000001"/></clipPath><clipPath class="axesclip" id="clipb86a36x5y2"><rect x="80" y="189.25200000000004" width="640" height="63.99200000000001"/></clipPath><clipPath class="axesclip" id="clipb86a36x5y3"><rect x="80" y="278.504" width="640" height="63.99199999999999"/></clipPath><clipPath class="axesclip" id="clipb86a36x5y4"><rect x="80" y="367.75600000000003" width="640" height="63.992"/></clipPath><clipPath class="axesclip" id="clipb86a36x5y5"><rect x="80" y="457.008" width="640" height="63.992"/></clipPath></g><g class="gradients"/><g class="patterns"/></defs><g class="bglayer"><rect class="bg" x="80" y="100" width="640" height="63.99200000000001" style="fill: rgb(229, 236, 246); fill-opacity: 1; stroke-width: 0;"/><rect class="bg" x="80" y="189.25200000000004" width="640" height="63.99200000000001" style="fill: rgb(229, 236, 246); fill-opacity: 1; stroke-width: 0;"/><rect class="bg" x="80" y="278.504" width="640" height="63.99199999999999" style="fill: rgb(229, 236, 246); fill-opacity: 1; stroke-width: 0;"/><rect class="bg" x="80" y="367.75600000000003" width="640" height="63.992" style="fill: rgb(229, 236, 246); fill-opacity: 1; stroke-width: 0;"/><rect class="bg" x="80" y="457.008" width="640" height="63.992" style="fill: rgb(229, 236, 246); fill-opacity: 1; stroke-width: 0;"/></g><g class="layer-below"><g class="imagelayer"/><g class="shapelayer"/></g><g class="cartesianlayer"><g class="subplot xy"><g class="layer-subplot"><g class="shapelayer"/><g class="imagelayer"/></g><g class="minor-gridlayer"><g class="x"/><g class="y"/></g><g class="gridlayer"><g class="x"><path class="xgrid crisp" transform="translate(165.32999999999998,0)" d="M0,100v63.99200000000001" style="stroke: rgb(255, 255, 255); stroke-opacity: 1; stroke-width: 1px;"/><path class="xgrid crisp" transform="translate(250.67,0)" d="M0,100v63.99200000000001" style="stroke: rgb(255, 255, 255); stroke-opacity: 1; stroke-width: 1px;"/><path class="xgrid crisp" transform="translate(336,0)" d="M0,100v63.99200000000001" style="stroke: rgb(255, 255, 255); stroke-opacity: 1; stroke-width: 1px;"/><path class="xgrid crisp" transform="translate(421.33,0)" d="M0,100v63.99200000000001" style="stroke: rgb(255, 255, 255); stroke-opacity: 1; stroke-width: 1px;"/><path class="xgrid crisp" transform="translate(506.67,0)" d="M0,100v63.99200000000001" style="stroke: rgb(255, 255, 255); stroke-opacity: 1; stroke-width: 1px;"/><path class="xgrid crisp" transform="translate(592,0)" d="M0,100v63.99200000000001" style="stroke: rgb(255, 255, 255); stroke-opacity: 1; stroke-width: 1px;"/><path class="xgrid crisp" transform="translate(677.33,0)" d="M0,100v63.99200000000001" style="stroke: rgb(255, 255, 255); stroke-opacity: 1; stroke-width: 1px;"/></g><g class="y"><path class="ygrid crisp" transform="translate(0,137.76)" d="M80,0h640" style="stroke: rgb(255, 255, 255); stroke-opacity: 1; stroke-width: 1px;"/><path class="ygrid crisp" transform="translate(0,114.72)" d="M80,0h640" style="stroke: rgb(255, 255, 255); stroke-opacity: 1; stroke-width: 1px;"/></g></g><g class="zerolinelayer"><path class="xzl zl crisp" transform="translate(80,0)" d="M0,100v63.99200000000001" style="stroke: rgb(255, 255, 255); stroke-opacity: 1; stroke-width: 2px;"/><path class="yzl zl crisp" transform="translate(0,160.79)" d="M80,0h640" style="stroke: rgb(255, 255, 255); stroke-opacity: 1; stroke-width: 2px;"/></g><path class="xlines-below"/><path class="ylines-below"/><g class="overlines-below"/><g class="xaxislayer-below"/><g class="yaxislayer-below"/><g class="overaxes-below"/><g class="plot" transform="translate(80,100)" clip-path="url(#clipb86a36xyplot)"><g class="scatterlayer mlayer"><g class="trace scatter trace70bcd5" style="stroke-miterlimit: 2; opacity: 1;"><g class="fills"/><g class="errorbars"/><g class="lines"><path class="js-line" d="M0,60.79L426.67,60.79L426.67,60.11L426.67,60.03L426.71,3.2L427.31,3.2L427.55,3.2L640,3.2" style="vector-effect: non-scaling-stroke; fill: none; stroke: rgb(99, 110, 250); stroke-opacity: 1; stroke-width: 2px; opacity: 1;"/></g><g class="points"/><g class="text"/></g></g></g><g class="overplot"/><path class="xlines-above crisp" d="M0,0" style="fill: none;"/><path class="ylines-above crisp" d="M0,0" style="fill: none;"/><g class="overlines-above"/><g class="xaxislayer-above"><g class="xtick"><text text-anchor="middle" x="0" y="176.99200000000002" transform="translate(80,0)" style="font-family: Arial; font-size: 12px; fill: rgb(0, 0, 0); fill-opacity: 1; white-space: pre; opacity: 1;">0.00s</text></g><g class="xtick"><text text-anchor="middle" x="0" y="176.99200000000002" style="font-family: Arial; font-size: 12px; fill: rgb(0, 0, 0); fill-opacity: 1; white-space: pre; opacity: 1;" transform="translate(165.32999999999998,0)">2.00ms</text></g><g class="xtick"><text text-anchor="middle" x="0" y="176.99200000000002" style="font-family: Arial; font-size: 12px; fill: rgb(0, 0, 0); fill-opacity: 1; white-space: pre; opacity: 1;" transform="translate(250.67,0)">4.00ms</text></g><g class="xtick"><text text-anchor="middle" x="0" y="176.99200000000002" style="font-family: Arial; font-size: 12px; fill: rgb(0, 0, 0); fill-opacity: 1; white-space: pre; opacity: 1;" transform="translate(336,0)">6.00ms</text></g><g class="xtick"><text text-anchor="middle" x="0" y="176.99200000000002" style="font-family: Arial; font-size: 12px; fill: rgb(0, 0, 0); fill-opacity: 1; white-space: pre; opacity: 1;" transform="translate(421.33,0)">8.00ms</text></g><g class="xtick"><text text-anchor="middle" x="0" y="176.99200000000002" style="font-family: Arial; font-size: 12px; fill: rgb(0, 0, 0); fill-opacity: 1; white-space: pre; opacity: 1;" transform="translate(506.67,0)">10.0ms</text></g><g class="xtick"><text text-anchor="middle" x="0" y="176.99200000000002" style="font-family: Arial; font-size: 12px; fill: rgb(0, 0, 0); fill-opacity: 1; white-space: pre; opacity: 1;" transform="translate(592,0)">12.0ms</text></g><g class="xtick"><text text-anchor="middle" x="0" y="176.99200000000002" style="font-family: Arial; font-size: 12px; fill: rgb(0, 0, 0); fill-opacity: 1; white-space: pre; opacity: 1;" transform="translate(677.33,0)">14.0ms</text></g></g><g class="yaxislayer-above"><g class="ytick"><text text-anchor="end" x="79" y="4.199999999999999" transform="translate(0,160.79)" style="font-family: Arial; font-size: 12px; fill: rgb(0, 0, 0); fill-opacity: 1; white-space: pre; opacity: 1;">0.00V</text></g><g class="ytick"><text text-anchor="end" x="79" y="4.199999999999999" style="font-family: Arial; font-size: 12px; fill: rgb(0, 0, 0); fill-opacity: 1; white-space: pre; opacity: 1;" transform="translate(0,137.76)">2.00V</text></g><g class="ytick"><text text-anchor="end" x="79" y="4.199999999999999" style="font-family: Arial; font-size: 12px; fill: rgb(0, 0, 0); fill-opacity: 1; white-space: pre; opacity: 1;" transform="translate(0,114.72)">4.00V</text></g></g><g class="overaxes-above"/></g><g class="subplot x2y2"><g class="layer-subplot"><g class="shapelayer"/><g class="imagelayer"/></g><g class="minor-gridlayer"><g class="x2"/><g class="y2"/></g><g class="gridlayer"><g class="x2"><path class="x2grid crisp" transform="translate(165.32999999999998,0)" d="M0,189.25200000000004v63.99200000000001" style="stroke: rgb(255, 255, 255); stroke-opacity: 1; stroke-width: 1px;"/><path class="x2grid crisp" transform="translate(250.67,0)" d="M0,189.25200000000004v63.99200000000001" style="stroke: rgb(255, 255, 255); stroke-opacity: 1; stroke-width: 1px;"/><path class="x2grid crisp" transform="translate(336,0)" d="M0,189.25200000000004v63.99200000000001" style="stroke: rgb(255, 255, 255); stroke-opacity: 1; stroke-width: 1px;"/><path class="x2grid crisp" transform="translate(421.33,0)" d="M0,189.25200000000004v63.99200000000001" style="stroke: rgb(255, 255, 255); stroke-opacity: 1; stroke-width: 1px;"/><path class="x2grid crisp" transform="translate(506.67,0)" d="M0,189.25200000000004v63.99200000000001" style="stroke: rgb(255, 255, 255); stroke-opacity: 1; stroke-width: 1px;"/><path class="x2grid crisp" transform="translate(592,0)" d="M0,189.25200000000004v63.99200000000001" style="stroke: rgb(255, 255, 255); stroke-opacity: 1; stroke-width: 1px;"/><path class="x2grid crisp" transform="translate(677.33,0)" d="M0,189.25200000000004v63.99200000000001" style="stroke: rgb(255, 255, 255); stroke-opacity: 1; stroke-width: 1px;"/></g><g class="y2"><path class="y2grid crisp" transform="translate(0,227.01200000000003)" d="M80,0h640" style="stroke: rgb(255, 255, 255); stroke-opacity: 1; stroke-width: 1px;"/><path class="y2grid crisp" transform="translate(0,203.97200000000004)" d="M80,0h640" style="stroke: rgb(255, 255, 255); stroke-opacity: 1; stroke-width: 1px;"/></g></g><g class="zerolinelayer"><path class="x2zl zl crisp" transform="translate(80,0)" d="M0,189.25200000000004v63.99200000000001" style="stroke: rgb(255, 255, 255); stroke-opacity: 1; stroke-width: 2px;"/><path class="y2zl zl crisp" transform="translate(0,250.04200000000003)" d="M80,0h640" style="stroke: rgb(255, 255, 255); stroke-opacity: 1; stroke-width: 2px;"/></g><path class="xlines-below"/><path class="ylines-below"/><g class="overlines-below"/><g class="xaxislayer-below"/><g class="yaxislayer-below"/><g class="overaxes-below"/><g class="plot" transform="translate(80,189.25200000000004)" clip-path="url(#clipb86a36x2y2plot)"><g class="scatterlayer mlayer"><g class="trace scatter trace3ba0fc" style="stroke-miterlimit: 2; opacity: 1;"><g class="fills"/><g class="errorbars"/><g class="lines"><path class="js-line" d="M0,60.79L213.33,60.79L213.33,55.03L213.33,3.2L213.94,3.2L214.12,3.2L640,3.2" style="vector-effect: non-scaling-stroke; fill: none; stroke: rgb(239, 85, 59); stroke-opacity: 1; stroke-width: 2px; opacity: 1;"/></g><g class="points"/><g class="text"/></g></g></g><g class="overplot"/><path class="xlines-above crisp" d="M0,0" style="fill: none;"/><path class="ylines-above crisp" d="M0,0" style="fill: none;"/><g class="overlines-above"/><g class="xaxislayer-above"><g class="x2tick"><text text-anchor="middle" x="0" y="266.244" transform="translate(80,0)" style="font-family: Arial; font-size: 12px; fill: rgb(0, 0, 0); fill-opacity: 1; white-space: pre; opacity: 1;">0.00s</text></g><g class="x2tick"><text text-anchor="middle" x="0" y="266.244" style="font-family: Arial; font-size: 12px; fill: rgb(0, 0, 0); fill-opacity: 1; white-space: pre; opacity: 1;" transform="translate(165.32999999999998,0)">2.00ms</text></g><g class="x2tick"><text text-anchor="middle" x="0" y="266.244" style="font-family: Arial; font-size: 12px; fill: rgb(0, 0, 0); fill-opacity: 1; white-space: pre; opacity: 1;" transform="translate(250.67,0)">4.00ms</text></g><g class="x2tick"><text text-anchor="middle" x="0" y="266.244" style="font-family: Arial; font-size: 12px; fill: rgb(0, 0, 0); fill-opacity: 1; white-space: pre; opacity: 1;" transform="translate(336,0)">6.00ms</text></g><g class="x2tick"><text text-anchor="middle" x="0" y="266.244" style="font-family: Arial; font-size: 12px; fill: rgb(0, 0, 0); fill-opacity: 1; white-space: pre; opacity: 1;" transform="translate(421.33,0)">8.00ms</text></g><g class="x2tick"><text text-anchor="middle" x="0" y="266.244" style="font-family: Arial; font-size: 12px; fill: rgb(0, 0, 0); fill-opacity: 1; white-space: pre; opacity: 1;" transform="translate(506.67,0)">10.0ms</text></g><g class="x2tick"><text text-anchor="middle" x="0" y="266.244" style="font-family: Arial; font-size: 12px; fill: rgb(0, 0, 0); fill-opacity: 1; white-space: pre; opacity: 1;" transform="translate(592,0)">12.0ms</text></g><g class="x2tick"><text text-anchor="middle" x="0" y="266.244" style="font-family: Arial; font-size: 12px; fill: rgb(0, 0, 0); fill-opacity: 1; white-space: pre; opacity: 1;" transform="translate(677.33,0)">14.0ms</text></g></g><g class="yaxislayer-above"><g class="y2tick"><text text-anchor="end" x="79" y="4.199999999999999" transform="translate(0,250.04200000000003)" style="font-family: Arial; font-size: 12px; fill: rgb(0, 0, 0); fill-opacity: 1; white-space: pre; opacity: 1;">0.00V</text></g><g class="y2tick"><text text-anchor="end" x="79" y="4.199999999999999" style="font-family: Arial; font-size: 12px; fill: rgb(0, 0, 0); fill-opacity: 1; white-space: pre; opacity: 1;" transform="translate(0,227.01200000000003)">2.00V</text></g><g class="y2tick"><text text-anchor="end" x="79" y="4.199999999999999" style="font-family: Arial; font-size: 12px; fill: rgb(0, 0, 0); fill-opacity: 1; white-space: pre; opacity: 1;" transform="translate(0,203.97200000000004)">4.00V</text></g></g><g class="overaxes-above"/></g><g class="subplot x3y3"><g class="layer-subplot"><g class="shapelayer"/><g class="imagelayer"/></g><g class="minor-gridlayer"><g class="x3"/><g class="y3"/></g><g class="gridlayer"><g class="x3"><path class="x3grid crisp" transform="translate(165.32999999999998,0)" d="M0,278.504v63.99199999999999" style="stroke: rgb(255, 255, 255); stroke-opacity: 1; stroke-width: 1px;"/><path class="x3grid crisp" transform="translate(250.67,0)" d="M0,278.504v63.99199999999999" style="stroke: rgb(255, 255, 255); stroke-opacity: 1; stroke-width: 1px;"/><path class="x3grid crisp" transform="translate(336,0)" d="M0,278.504v63.99199999999999" style="stroke: rgb(255, 255, 255); stroke-opacity: 1; stroke-width: 1px;"/><path class="x3grid crisp" transform="translate(421.33,0)" d="M0,278.504v63.99199999999999" style="stroke: rgb(255, 255, 255); stroke-opacity: 1; stroke-width: 1px;"/><path class="x3grid crisp" transform="translate(506.67,0)" d="M0,278.504v63.99199999999999" style="stroke: rgb(255, 255, 255); stroke-opacity: 1; stroke-width: 1px;"/><path class="x3grid crisp" transform="translate(592,0)" d="M0,278.504v63.99199999999999" style="stroke: rgb(255, 255, 255); stroke-opacity: 1; stroke-width: 1px;"/><path class="x3grid crisp" transform="translate(677.33,0)" d="M0,278.504v63.99199999999999" style="stroke: rgb(255, 255, 255); stroke-opacity: 1; stroke-width: 1px;"/></g><g class="y3"><path class="y3grid crisp" transform="translate(0,316.264)" d="M80,0h640" style="stroke: rgb(255, 255, 255); stroke-opacity: 1; stroke-width: 1px;"/><path class="y3grid crisp" transform="translate(0,293.22400000000005)" d="M80,0h640" style="stroke: rgb(255, 255, 255); stroke-opacity: 1; stroke-width: 1px;"/></g></g><g class="zerolinelayer"><path class="x3zl zl crisp" transform="translate(80,0)" d="M0,278.504v63.99199999999999" style="stroke: rgb(255, 255, 255); stroke-opacity: 1; stroke-width: 2px;"/><path class="y3zl zl crisp" transform="translate(0,339.29400000000004)" d="M80,0h640" style="stroke: rgb(255, 255, 255); stroke-opacity: 1; stroke-width: 2px;"/></g><path class="xlines-below"/><path class="ylines-below"/><g class="overlines-below"/><g class="xaxislayer-below"/><g class="yaxislayer-below"/><g class="overaxes-below"/><g class="plot" transform="translate(80,278.504)" clip-path="url(#clipb86a36x3y3plot)"><g class="scatterlayer mlayer"><g class="trace scatter trace4149aa" style="stroke-miterlimit: 2; opacity: 1;"><g class="fills"/><g class="errorbars"/><g class="lines"><path class="js-line" d="M0,60.79L0,3.2L0.61,3.2L0.86,3.2L640,3.2" style="vector-effect: non-scaling-stroke; fill: none; stroke: rgb(0, 204, 150); stroke-opacity: 1; stroke-width: 2px; opacity: 1;"/></g><g class="points"/><g class="text"/></g></g></g><g class="overplot"/><path class="xlines-above crisp" d="M0,0" style="fill: none;"/><path class="ylines-above crisp" d="M0,0" style="fill: none;"/><g class="overlines-above"/><g class="xaxislayer-above"><g class="x3tick"><text text-anchor="middle" x="0" y="355.496" transform="translate(80,0)" style="font-family: Arial; font-size: 12px; fill: rgb(0, 0, 0); fill-opacity: 1; white-space: pre; opacity: 1;">0.00s</text></g><g class="x3tick"><text text-anchor="middle" x="0" y="355.496" style="font-family: Arial; font-size: 12px; fill: rgb(0, 0, 0); fill-opacity: 1; white-space: pre; opacity: 1;" transform="translate(165.32999999999998,0)">2.00ms</text></g><g class="x3tick"><text text-anchor="middle" x="0" y="355.496" style="font-family: Arial; font-size: 12px; fill: rgb(0, 0, 0); fill-opacity: 1; white-space: pre; opacity: 1;" transform="translate(250.67,0)">4.00ms</text></g><g class="x3tick"><text text-anchor="middle" x="0" y="355.496" style="font-family: Arial; font-size: 12px; fill: rgb(0, 0, 0); fill-opacity: 1; white-space: pre; opacity: 1;" transform="translate(336,0)">6.00ms</text></g><g class="x3tick"><text text-anchor="middle" x="0" y="355.496" style="font-family: Arial; font-size: 12px; fill: rgb(0, 0, 0); fill-opacity: 1; white-space: pre; opacity: 1;" transform="translate(421.33,0)">8.00ms</text></g><g class="x3tick"><text text-anchor="middle" x="0" y="355.496" style="font-family: Arial; font-size: 12px; fill: rgb(0, 0, 0); fill-opacity: 1; white-space: pre; opacity: 1;" transform="translate(506.67,0)">10.0ms</text></g><g class="x3tick"><text text-anchor="middle" x="0" y="355.496" style="font-family: Arial; font-size: 12px; fill: rgb(0, 0, 0); fill-opacity: 1; white-space: pre; opacity: 1;" transform="translate(592,0)">12.0ms</text></g><g class="x3tick"><text text-anchor="middle" x="0" y="355.496" style="font-family: Arial; font-size: 12px; fill: rgb(0, 0, 0); fill-opacity: 1; white-space: pre; opacity: 1;" transform="translate(677.33,0)">14.0ms</text></g></g><g class="yaxislayer-above"><g class="y3tick"><text text-anchor="end" x="79" y="4.199999999999999" transform="translate(0,339.29400000000004)" style="font-family: Arial; font-size: 12px; fill: rgb(0, 0, 0); fill-opacity: 1; white-space: pre; opacity: 1;">0.00V</text></g><g class="y3tick"><text text-anchor="end" x="79" y="4.199999999999999" style="font-family: Arial; font-size: 12px; fill: rgb(0, 0, 0); fill-opacity: 1; white-space: pre; opacity: 1;" transform="translate(0,316.264)">2.00V</text></g><g class="y3tick"><text text-anchor="end" x="79" y="4.199999999999999" style="font-family: Arial; font-size: 12px; fill: rgb(0, 0, 0); fill-opacity: 1; white-space: pre; opacity: 1;" transform="translate(0,293.22400000000005)">4.00V</text></g></g><g class="overaxes-above"/></g><g class="subplot x4y4"><g class="layer-subplot"><g class="shapelayer"/><g class="imagelayer"/></g><g class="minor-gridlayer"><g class="x4"/><g class="y4"/></g><g class="gridlayer"><g class="x4"><path class="x4grid crisp" transform="translate(165.32999999999998,0)" d="M0,367.75600000000003v63.992" style="stroke: rgb(255, 255, 255); stroke-opacity: 1; stroke-width: 1px;"/><path class="x4grid crisp" transform="translate(250.67,0)" d="M0,367.75600000000003v63.992" style="stroke: rgb(255, 255, 255); stroke-opacity: 1; stroke-width: 1px;"/><path class="x4grid crisp" transform="translate(336,0)" d="M0,367.75600000000003v63.992" style="stroke: rgb(255, 255, 255); stroke-opacity: 1; stroke-width: 1px;"/><path class="x4grid crisp" transform="translate(421.33,0)" d="M0,367.75600000000003v63.992" style="stroke: rgb(255, 255, 255); stroke-opacity: 1; stroke-width: 1px;"/><path class="x4grid crisp" transform="translate(506.67,0)" d="M0,367.75600000000003v63.992" style="stroke: rgb(255, 255, 255); stroke-opacity: 1; stroke-width: 1px;"/><path class="x4grid crisp" transform="translate(592,0)" d="M0,367.75600000000003v63.992" style="stroke: rgb(255, 255, 255); stroke-opacity: 1; stroke-width: 1px;"/><path class="x4grid crisp" transform="translate(677.33,0)" d="M0,367.75600000000003v63.992" style="stroke: rgb(255, 255, 255); stroke-opacity: 1; stroke-width: 1px;"/></g><g class="y4"><path class="y4grid crisp" transform="translate(0,423.50600000000003)" d="M80,0h640" style="stroke: rgb(255, 255, 255); stroke-opacity: 1; stroke-width: 1px;"/><path class="y4grid crisp" transform="translate(0,375.99600000000004)" d="M80,0h640" style="stroke: rgb(255, 255, 255); stroke-opacity: 1; stroke-width: 1px;"/></g></g><g class="zerolinelayer"><path class="x4zl zl crisp" transform="translate(80,0)" d="M0,367.75600000000003v63.992" style="stroke: rgb(255, 255, 255); stroke-opacity: 1; stroke-width: 2px;"/><path class="y4zl zl crisp" transform="translate(0,399.74600000000004)" d="M80,0h640" style="stroke: rgb(255, 255, 255); stroke-opacity: 1; stroke-width: 2px;"/></g><path class="xlines-below"/><path class="ylines-below"/><g class="overlines-below"/><g class="xaxislayer-below"/><g class="yaxislayer-below"/><g class="overaxes-below"/><g class="plot" transform="translate(80,367.75600000000003)" clip-path="url(#clipb86a36x4y4plot)"><g class="scatterlayer mlayer"><g class="trace scatter tracea640aa" style="stroke-miterlimit: 2; opacity: 1;"><g class="fills"/><g class="errorbars"/><g class="lines"><path class="js-line" d="M0,31.99L0.23,35.43L0.3,36.46L2.31,58.62L2.34,57.85L2.34,57.81L3.56,39.88L4,38.46L4.31,37.64L4.41,39.26L4.43,39.49L5.86,55.69L6.4,59.67L6.57,60.7L6.69,57.31L6.74,56.07L7.94,39.71L8.43,38.17L8.57,37.79L8.7,39.66L8.73,40.17L10.84,60.76L10.9,59.23L10.92,58.7L12.15,39.94L12.57,38.55L12.84,37.8L12.94,39.41L12.96,39.7L15.1,60.77L15.18,58.69L15.22,57.61L16.4,39.99L16.8,38.64L17.11,37.8L17.22,39.61L17.25,40.06L19.37,60.76L19.43,59.17L19.45,58.61L20.63,40.11L21.01,38.83L21.37,37.8L21.49,39.57L21.51,39.92L23.64,60.77L23.69,59.46L23.7,59.17L24.92,40.03L25.32,38.69L25.64,37.8L25.76,39.64L25.79,40.14L27.9,60.76L27.97,59.19L27.98,58.64L29.2,39.99L29.6,38.66L29.91,37.82L30.02,39.49L30.04,39.84L31.2,53.61L32,59.77L32.17,60.79L32.29,57.54L32.33,56.29L33.37,40.34L33.68,39.24L34.17,37.8L34.28,39.41L34.3,39.79L36.44,60.79L36.5,59.16L36.52,58.57L37.79,39.78L38.26,38.29L38.44,37.82L38.55,39.47L38.57,39.82L40.7,60.79L40.75,59.59L40.76,59.41L41.85,40.58L42.1,39.65L42.71,37.82L42.82,39.49L42.84,39.87L44.97,60.78L45.03,59.28L45.04,58.87L46.24,40.08L46.62,38.79L46.97,37.8L47.08,39.41L47.1,39.75L49.24,60.78L49.3,59.26L49.31,58.79L50.58,39.81L51.04,38.34L51.24,37.8L51.34,39.37L51.36,39.65L53.5,60.76L53.56,59.34L53.57,58.96L54.82,39.92L55.25,38.51L55.51,37.8L55.61,39.42L55.64,39.78L56.74,53.03L57.58,59.61L57.77,60.79L57.92,56.65L57.97,55.3L59.09,39.9L59.52,38.48L59.77,37.8L59.88,39.4L59.9,39.73L60.96,52.54L61.74,58.93L62.04,60.78L62.15,57.54L62.2,56.32L63.35,39.91L63.79,38.51L64.04,37.81L64.15,39.48L64.17,39.82L66.3,60.79L66.36,59.23L66.38,58.81L67.6,39.99L68,38.64L68.31,37.8L68.41,39.4L68.43,39.68L70.57,60.77L70.61,59.83L70.61,59.76L71.9,39.86L72.34,38.42L72.57,37.8L72.69,39.63L72.73,40.15L74.33,57.41L74.67,59.74L74.84,60.76L74.98,56.66L75.03,55.37L76.21,39.72L76.69,38.19L76.84,37.79L76.94,39.35L76.96,39.65L79.1,60.76L79.18,58.88L79.2,58.05L80.42,39.93L80.85,38.52L81.11,37.81L81.22,39.49L81.24,39.83L82.39,53.51L83.2,59.77L83.37,60.79L83.46,58.39L83.5,57.26L84.71,39.82L85.17,38.36L85.37,37.8L85.49,39.63L85.53,40.15L87.13,57.43L87.47,59.74L87.64,60.76L87.76,57.25L87.81,56.04L89.06,39.59L89.58,37.97L89.64,37.83L89.74,39.42L89.77,39.76L91.6,58.88L91.73,59.76L91.9,60.79L92.02,57.72L92.06,56.47L93.22,39.92L93.65,38.53L93.91,37.82L94.01,39.47L94.04,39.82L95.18,53.41L96,59.77L96.17,60.79L96.28,57.73L96.33,56.46L97.51,39.82L97.97,38.35L98.17,37.8L98.29,39.64L98.33,40.15L99.94,57.5L100.27,59.74L100.44,60.76L100.57,56.96L100.62,55.73L101.89,39.44L102.4,37.9L102.61,40.4L102.65,41L104.7,60.77L104.74,59.87L104.75,59.81L105.5,42.06L105.51,42.02L106.71,37.8L106.78,39L106.79,39.14L108.97,60.77L109.05,58.79L109.08,57.9L110.23,40.18L110.59,38.94L110.97,37.84L111.09,39.66L111.11,39.99L113.24,60.78L113.33,58.34L113.37,57.18L114.52,40.01L114.93,38.67L115.24,37.8L115.36,39.63L115.39,40.15L117.5,60.76L117.57,59.03L117.59,58.31L118.89,39.66L119.4,38.09L119.51,37.81L119.62,39.52L119.64,39.84L121.7,60.41L121.72,60.5L121.77,60.78L121.89,57.52L121.93,56.3L123.07,39.97L123.48,38.6L123.77,37.8L123.89,39.63L123.93,40.14L125.53,57.38L125.87,59.74L126.04,60.76L126.19,56.55L126.24,55.16L127.46,39.52L128,37.9L128.17,39.81L128.21,40.33L129.3,53.29L130.13,59.77L130.3,60.79L130.4,58.15L130.45,56.84L131.61,39.94L132.03,38.55L132.31,37.79L132.41,39.37L132.43,39.69L134.18,58.24L134.4,59.74L134.57,60.77L134.69,57.46L134.73,56.18L135.87,39.95L136.29,38.57L136.57,37.8L136.68,39.47L136.7,39.77L138.84,60.76L138.92,58.67L138.95,57.57L140.18,39.81L140.64,38.34L140.84,37.8L140.95,39.53L140.98,39.88L142.21,54.25L142.93,59.75L143.1,60.77L143.21,57.75L143.26,56.46L144.55,39.46L145.07,37.89L145.29,40.64L145.34,41.3L147.37,60.76L147.4,60.02L147.41,60L148.16,42.07L148.17,42.01L149.37,37.79L149.48,39.36L149.49,39.66L151.64,60.76L151.7,59.28L151.71,58.88L152.98,39.81L153.43,38.37L153.64,37.8L153.76,39.65L153.79,40.16L155.9,60.76L155.96,59.26L155.98,58.88L157.21,39.95L157.63,38.56L157.91,37.8L158.01,39.42L158.04,39.84L159.18,53.41L160,59.76L160.17,60.78L160.28,57.71L160.33,56.44L161.52,39.79L161.98,38.31L162.17,37.8L162.28,39.45L162.3,39.74L164.36,60.31L164.37,60.39L164.44,60.76L164.53,58.11L164.58,56.72L165.78,39.81L166.24,38.34L166.44,37.79L166.54,39.41L166.57,39.78L167.67,52.97L168.49,59.5L168.7,60.78L168.8,58.04L168.85,56.69L170.04,39.82L170.5,38.36L170.71,37.8L170.82,39.59L170.85,40.01L172.97,60.76L173.03,59.27L173.04,58.89L174.29,39.9L174.72,38.48L174.97,37.8L175.09,39.54L175.11,39.89L176.36,54.39L177.07,59.75L177.24,60.77L177.37,57.23L177.41,56.04L178.54,39.96L178.96,38.58L179.24,37.81L179.35,39.5L179.37,39.84L181.5,60.79L181.57,59.21L181.58,58.71L182.84,39.85L183.28,38.4L183.51,37.8L183.62,39.61L183.66,40.07L185.16,56.58L185.6,59.73L185.77,60.76L185.89,57.47L185.93,56.24L187.1,39.88L187.54,38.45L187.77,37.81L187.88,39.5L187.9,39.8L190.04,60.77L190.1,59.21L190.12,58.67L191.19,40.5L191.46,39.52L192.04,37.8L192.16,39.6L192.19,40.05L193.65,56.31L194.13,59.73L194.3,60.76L194.4,58.14L194.44,56.83L195.58,40.04L195.97,38.72L196.31,37.79L196.41,39.39L196.43,39.7L198.19,58.36L198.4,59.74L198.57,60.77L198.69,57.42L198.73,56.18L199.85,40.01L200.26,38.67L200.57,37.8L200.68,39.41L200.71,39.82L202.69,59.9L202.7,59.99L202.84,60.79L202.95,57.7L202.99,56.46L204.14,39.96L204.56,38.59L204.84,37.81L204.95,39.57L204.98,39.92L206.25,54.61L206.93,59.75L207.1,60.77L207.2,58.22L207.24,56.91L208.61,39.27L209.07,37.9L209.28,40.5L209.33,41.16L211.37,60.76L211.41,59.86L211.41,59.81L212.67,39.96L213.1,38.57L213.49,35.33L213.53,34.65L215.17,11.59L215.47,8.91L215.64,7.55L215.82,12.23L215.88,13.7L216.84,24.17L217.3,25.64L217.64,26.54L217.75,24.79L217.78,24.38L219.9,3.36L219.94,4.24L219.94,4.29L221.42,24.8L221.87,26.11L222.1,23.28L222.15,22.6L224.17,3.23L224.2,3.87L224.2,3.94L225.49,24.11L225.93,25.54L226.17,26.19L226.28,24.54L226.3,24.28L228.44,3.24L228.48,4.11L228.48,4.16L229.23,21.93L229.24,21.98L230.44,26.2L230.52,25L230.53,24.88L231.8,9.81L232.53,4.24L232.7,3.22L232.81,6.24L232.86,7.53L233.99,23.99L234.4,25.34L234.71,26.19L234.82,24.45L234.84,24.09L236.97,3.22L237.02,4.32L237.02,4.42L238.26,23.98L238.67,25.33L238.97,26.19L239.1,24.27L239.13,23.78L241.24,3.22L241.28,4.29L241.29,4.41L242.04,21.99L242.05,21.99L243.24,26.18L243.33,24.85L243.34,24.6L245.5,3.21L245.58,5.31L245.62,6.4L246.69,23.59L246.98,24.65L247.51,26.19L247.62,24.43L247.65,24.03L248.99,8.75L249.6,4.25L249.77,3.23L249.89,6.66L249.94,7.89L250.95,23.59L251.25,24.66L251.77,26.19L251.89,24.47L251.91,24.14L253.97,3.58L253.99,3.49L254.04,3.21L254.19,7.62L254.24,9.06L255.51,24.63L256,26.1L256.19,23.88L256.23,23.31L258.18,3.93L258.2,3.85L258.3,3.24L258.45,7.26L258.49,8.58L259.6,24.01L260.02,25.38L260.31,26.18L260.42,24.47L260.44,24.11L262.57,3.21L262.62,4.3L262.62,4.43L263.8,23.76L264.14,24.93L264.57,26.18L264.68,24.47L264.71,24.12L265.93,9.84L266.67,4.23L266.84,3.21L266.95,6.27L266.99,7.54L268.15,24.06L268.57,25.46L268.84,26.19L268.95,24.55L268.97,24.27L271.02,3.68L271.04,3.6L271.1,3.23L271.23,6.86L271.28,8.08L272.47,24.24L272.94,25.74L273.11,26.18L273.22,24.46L273.25,24.04L274.56,8.99L275.2,4.24L275.37,3.22L275.52,7.41L275.57,8.79L276.72,24.22L277.2,25.71L277.37,26.19L277.49,24.45L277.51,24.03L279.64,3.23L279.67,4.09L279.68,4.14L280.42,21.88L280.44,21.95L281.64,26.2L281.67,25.76L281.68,25.62L282.87,11.02L283.7,4.45L283.9,3.21L284.05,7.16L284.09,8.41L285.13,23.74L285.46,24.91L285.91,26.19L286.02,24.44L286.04,24.1L288.17,3.21L288.25,5.22L288.28,6.15L289.44,23.9L289.82,25.18L290.17,26.18L290.29,24.32L290.33,23.81L291.97,6.28L292.27,4.24L292.44,3.22L292.58,7.23L292.63,8.54L293.92,24.65L294.4,26.09L294.57,24.14L294.61,23.61L296.7,3.21L296.73,3.74L296.73,3.75L298.1,24.36L298.62,25.95L298.71,26.18L298.82,24.46L298.84,24.13L300.03,10.17L300.8,4.23L300.97,3.21L301.1,6.85L301.15,8.11L302.28,24.06L302.71,25.46L302.97,26.19L303.09,24.44L303.11,24.07L305.24,3.22L305.28,4.13L305.28,4.18L306.03,21.9L306.04,21.96L307.24,26.19L307.32,24.94L307.33,24.82L308.8,8.09L309.33,4.25L309.5,3.23L309.6,5.91L309.65,7.24L310.91,24.41L311.44,26.02L311.51,26.19L311.62,24.47L311.64,24.11L313.77,3.22L313.82,4.3L313.82,4.41L315.24,24.6L315.73,26.09L315.94,23.66L315.98,23.07L318.04,3.2L318.08,4.31L318.09,4.47L319.38,24.19L319.85,25.66L320.04,26.19L320.15,24.47L320.17,24.22L321.64,7.83L322.13,4.26L322.31,3.24L322.41,6.08L322.45,7.37L323.63,24.05L324.06,25.47L324.31,26.15L324.42,24.34L324.45,23.97L326.57,3.22L326.6,3.97L326.61,3.99L327.36,21.92L327.37,21.97L328.57,26.19L328.67,24.66L328.69,24.46L330.64,4.41L330.67,4.23L330.84,3.21L330.98,7.25L331.03,8.52L332.12,23.97L332.53,25.32L332.84,26.19L332.94,24.65L332.97,24.26L334.98,3.92L335,3.83L335.1,3.22L335.25,7.29L335.3,8.63L336.44,24.11L336.88,25.56L337.11,26.16L337.22,24.49L337.23,24.24L339.37,3.23L339.44,5.07L339.47,5.82L340.74,24.29L341.23,25.81L341.37,26.19L341.49,24.38L341.52,23.89L343.64,3.23L343.69,4.67L343.71,5.03L344.92,23.97L345.32,25.31L345.64,26.19L345.75,24.44L345.78,24.09L347.04,9.51L347.73,4.24L347.9,3.22L348.01,6.24L348.06,7.48L349.21,24.03L349.63,25.42L349.91,26.19L350.01,24.58L350.03,24.32L352.17,3.23L352.2,3.86L352.2,3.9L353.54,24.28L354.03,25.81L354.17,26.19L354.28,24.53L354.3,24.27L356.44,3.24L356.47,3.82L356.47,3.84L357.22,21.86L357.23,21.93L358.44,26.19L358.53,24.84L358.54,24.67L359.75,10.32L360.53,4.28L360.7,3.21L360.86,7.45L360.9,8.86L362,24L362.41,25.37L362.71,26.19L362.81,24.62L362.83,24.31L364.55,5.92L364.8,4.24L364.97,3.22L365.09,6.41L365.13,7.63L366.18,23.7L366.51,24.86L366.97,26.19L367.09,24.37L367.11,24.03L369.24,3.23L369.31,5.01L369.33,5.71L370.6,24.24L371.07,25.74L371.24,26.19L371.35,24.5L371.37,24.15L373.5,3.21L373.55,4.31L373.55,4.47L375.13,25.13L375.47,26.1L375.68,23.53L375.72,22.95L377.77,3.22L377.8,3.82L377.8,3.85L379.38,25.07L379.73,26.1L379.92,23.88L379.96,23.31L382.04,3.24L382.1,4.81L382.12,5.37L383.32,23.97L383.73,25.32L384.04,26.18L384.15,24.5L384.16,24.26L386.3,3.23L386.39,5.5L386.42,6.57L387.6,24.02L388.02,25.4L388.31,26.19L388.41,24.56L388.43,24.33L389.85,8.25L390.4,4.26L390.57,3.23L390.69,6.62L390.74,7.9L391.88,24.06L392.31,25.47L392.57,26.19L392.69,24.33L392.73,23.82L394.37,6.25L394.67,4.25L394.84,3.23L394.98,7.16L395.02,8.45L396.29,24.56L396.8,26.1L396.98,24.01L397.02,23.45L399.1,3.23L399.11,3.37L399.12,3.41L400.33,23.74L400.68,24.93L401.11,26.18L401.21,24.51L401.24,24.17L402.39,10.54L403.2,4.22L403.37,3.2L403.51,7.03L403.55,8.25L404.68,24.03L405.1,25.42L405.37,26.18L405.49,24.35L405.52,23.96L407.64,3.23L407.67,4.09L407.68,4.14L408.43,21.93L408.44,21.99L409.64,26.19L409.75,24.52L409.77,24.24L411.88,3.33L411.89,3.3L412.07,7.76L412.12,9.27L413.21,24.07L413.65,25.48L413.91,26.19L414.02,24.44L414.04,24.12L416.1,3.58L416.12,3.5L416.17,3.21L416.32,7.53L416.37,8.97L417.44,23.91L417.83,25.21L418.17,26.18L418.29,24.42L418.32,23.96L419.71,8.28L420.27,4.25L420.44,3.23L420.56,6.52L420.6,7.79L421.74,24.06L422.17,25.45L422.44,26.19L422.55,24.43L422.58,24.11L424.64,3.59L424.65,3.5L424.7,3.22L424.79,5.57L424.83,6.84L426.22,24.76L426.67,26.09L428.02,28.71L428.8,29.66L431.21,31.18L431.49,31.27L436.32,31.91L437.33,31.94L640,31.99" style="vector-effect: non-scaling-stroke; fill: none; stroke: rgb(171, 99, 250); stroke-opacity: 1; stroke-width: 2px; opacity: 1;"/></g><g class="points"/><g class="text"/></g></g></g><g class="overplot"/><path class="xlines-above crisp" d="M0,0" style="fill: none;"/><path class="ylines-above crisp" d="M0,0" style="fill: none;"/><g class="overlines-above"/><g class="xaxislayer-above"><g class="x4tick"><text text-anchor="middle" x="0" y="444.74800000000005" transform="translate(80,0)" style="font-family: Arial; font-size: 12px; fill: rgb(0, 0, 0); fill-opacity: 1; white-space: pre; opacity: 1;">0.00s</text></g><g class="x4tick"><text text-anchor="middle" x="0" y="444.74800000000005" style="font-family: Arial; font-size: 12px; fill: rgb(0, 0, 0); fill-opacity: 1; white-space: pre; opacity: 1;" transform="translate(165.32999999999998,0)">2.00ms</text></g><g class="x4tick"><text text-anchor="middle" x="0" y="444.74800000000005" style="font-family: Arial; font-size: 12px; fill: rgb(0, 0, 0); fill-opacity: 1; white-space: pre; opacity: 1;" transform="translate(250.67,0)">4.00ms</text></g><g class="x4tick"><text text-anchor="middle" x="0" y="444.74800000000005" style="font-family: Arial; font-size: 12px; fill: rgb(0, 0, 0); fill-opacity: 1; white-space: pre; opacity: 1;" transform="translate(336,0)">6.00ms</text></g><g class="x4tick"><text text-anchor="middle" x="0" y="444.74800000000005" style="font-family: Arial; font-size: 12px; fill: rgb(0, 0, 0); fill-opacity: 1; white-space: pre; opacity: 1;" transform="translate(421.33,0)">8.00ms</text></g><g class="x4tick"><text text-anchor="middle" x="0" y="444.74800000000005" style="font-family: Arial; font-size: 12px; fill: rgb(0, 0, 0); fill-opacity: 1; white-space: pre; opacity: 1;" transform="translate(506.67,0)">10.0ms</text></g><g class="x4tick"><text text-anchor="middle" x="0" y="444.74800000000005" style="font-family: Arial; font-size: 12px; fill: rgb(0, 0, 0); fill-opacity: 1; white-space: pre; opacity: 1;" transform="translate(592,0)">12.0ms</text></g><g class="x4tick"><text text-anchor="middle" x="0" y="444.74800000000005" style="font-family: Arial; font-size: 12px; fill: rgb(0, 0, 0); fill-opacity: 1; white-space: pre; opacity: 1;" transform="translate(677.33,0)">14.0ms</text></g></g><g class="yaxislayer-above"><g class="y4tick"><text text-anchor="end" x="79" y="4.199999999999999" transform="translate(0,423.50600000000003)" style="font-family: Arial; font-size: 12px; fill: rgb(0, 0, 0); fill-opacity: 1; white-space: pre; opacity: 1;">−2.00A</text></g><g class="y4tick"><text text-anchor="end" x="79" y="4.199999999999999" style="font-family: Arial; font-size: 12px; fill: rgb(0, 0, 0); fill-opacity: 1; white-space: pre; opacity: 1;" transform="translate(0,399.74600000000004)">0.00A</text></g><g class="y4tick"><text text-anchor="end" x="79" y="4.199999999999999" style="font-family: Arial; font-size: 12px; fill: rgb(0, 0, 0); fill-opacity: 1; white-space: pre; opacity: 1;" transform="translate(0,375.99600000000004)">2.00A</text></g></g><g class="overaxes-above"/></g><g class="subplot x5y5"><g class="layer-subplot"><g class="shapelayer"/><g class="imagelayer"/></g><g class="minor-gridlayer"><g class="x5"/><g class="y5"/></g><g class="gridlayer"><g class="x5"><path class="x5grid crisp" transform="translate(165.32999999999998,0)" d="M0,457.008v63.992" style="stroke: rgb(255, 255, 255); stroke-opacity: 1; stroke-width: 1px;"/><path class="x5grid crisp" transform="translate(250.67,0)" d="M0,457.008v63.992" style="stroke: rgb(255, 255, 255); stroke-opacity: 1; stroke-width: 1px;"/><path class="x5grid crisp" transform="translate(336,0)" d="M0,457.008v63.992" style="stroke: rgb(255, 255, 255); stroke-opacity: 1; stroke-width: 1px;"/><path class="x5grid crisp" transform="translate(421.33,0)" d="M0,457.008v63.992" style="stroke: rgb(255, 255, 255); stroke-opacity: 1; stroke-width: 1px;"/><path class="x5grid crisp" transform="translate(506.67,0)" d="M0,457.008v63.992" style="stroke: rgb(255, 255, 255); stroke-opacity: 1; stroke-width: 1px;"/><path class="x5grid crisp" transform="translate(592,0)" d="M0,457.008v63.992" style="stroke: rgb(255, 255, 255); stroke-opacity: 1; stroke-width: 1px;"/><path class="x5grid crisp" transform="translate(677.33,0)" d="M0,457.008v63.992" style="stroke: rgb(255, 255, 255); stroke-opacity: 1; stroke-width: 1px;"/></g><g class="y5"><path class="y5grid crisp" transform="translate(0,476.21799999999996)" d="M80,0h640" style="stroke: rgb(255, 255, 255); stroke-opacity: 1; stroke-width: 1px;"/></g></g><g class="zerolinelayer"><path class="x5zl zl crisp" transform="translate(80,0)" d="M0,457.008v63.992" style="stroke: rgb(255, 255, 255); stroke-opacity: 1; stroke-width: 2px;"/><path class="y5zl zl crisp" transform="translate(0,501.178)" d="M80,0h640" style="stroke: rgb(255, 255, 255); stroke-opacity: 1; stroke-width: 2px;"/></g><path class="xlines-below"/><path class="ylines-below"/><g class="overlines-below"/><g class="xaxislayer-below"/><g class="yaxislayer-below"/><g class="overaxes-below"/><g class="plot" transform="translate(80,457.008)" clip-path="url(#clipb86a36x5y5plot)"><g class="scatterlayer mlayer"><g class="trace scatter trace3e66ee" style="stroke-miterlimit: 2; opacity: 1;"><g class="fills"/><g class="errorbars"/><g class="lines"><path class="js-line" d="M0,44.17L0.01,19.51L0.61,38.7L0.86,36.73L2.31,23.7L2.31,23.2L2.35,4.57L2.86,15.33L2.88,18.41L3.56,39.24L4,40.09L4.31,40.78L4.43,39.77L4.45,39.55L6.58,21.56L6.58,21.18L6.61,3.26L7.3,29.81L7.34,34.06L7.94,39.34L8.43,40.26L8.58,40.7L8.7,39.67L8.73,39.37L10.85,21.66L10.85,21.43L10.87,3.22L11.6,33.17L11.62,35.29L12.15,39.2L12.57,40.04L12.84,40.69L12.96,39.65L13,39.36L14.72,28.85L14.93,28.01L15.11,25.22L15.11,24.79L15.14,3.21L15.83,28.94L15.87,33.34L16.4,39.17L16.8,39.98L17.11,40.69L17.22,39.7L17.25,39.44L19.38,21.44L19.38,21.04L19.41,3.22L20.13,33.27L20.16,35.39L20.63,39.09L21.01,39.87L21.38,40.69L21.51,39.52L21.55,39.21L23.65,20.98L23.65,20.48L23.67,3.21L24.38,31.45L24.41,34.35L24.92,39.14L25.32,39.95L25.64,40.69L25.76,39.68L25.79,39.39L27.91,21.67L27.91,21.44L27.94,3.22L28.66,32.52L28.69,34.97L29.2,39.17L29.6,39.97L29.91,40.68L30.04,39.57L30.07,39.25L32.18,21.37L32.18,20.95L32.21,3.2L32.93,33.32L32.96,35.37L33.68,39.62L34.13,40.43L34.18,40.69L34.38,38.97L34.42,38.58L36.45,21.54L36.45,21.28L36.47,3.2L37.2,32.91L37.22,35.12L37.79,39.29L38.26,40.19L38.44,40.68L38.57,39.58L38.61,39.27L39.71,31.69L40.53,28L40.71,25.25L40.71,24.87L40.74,3.2L41.46,32.67L41.49,35L42.1,39.37L42.61,40.32L42.71,40.68L42.84,39.55L42.88,39.24L44.98,21.1L44.98,20.63L45.01,3.2L45.7,30.13L45.74,33.93L46.24,39.11L46.62,39.89L46.98,40.69L47.1,39.62L47.14,39.31L48.18,32.09L48.98,28.33L49.24,24.85L49.24,24.52L49.27,3.21L49.99,32.5L50.02,35.02L50.58,39.28L51.04,40.16L51.24,40.69L51.36,39.67L51.4,39.37L53.03,29.22L53.33,28.02L53.51,25.15L53.51,24.74L53.54,3.22L54.24,31.16L54.28,34.86L54.82,39.21L55.25,40.06L55.51,40.69L55.64,39.6L55.67,39.29L57.78,21.58L57.78,21.23L57.81,3.2L58.52,32.12L58.55,34.97L59.09,39.22L59.52,40.08L59.78,40.69L59.9,39.63L59.93,39.32L62.05,21.55L62.05,21.24L62.07,3.21L62.78,30.8L62.81,34.06L63.35,39.21L63.79,40.06L64.05,40.68L64.17,39.58L64.21,39.28L66.31,20.91L66.31,20.51L66.34,3.2L67.05,32L67.08,34.76L67.6,39.17L68,39.98L68.31,40.69L68.43,39.66L68.47,39.34L70.19,28.82L70.4,28.01L70.58,24.44L70.58,24.27L70.61,3.21L71.33,33.04L71.35,35.24L71.9,39.25L72.34,40.11L72.58,40.69L72.69,39.69L72.73,39.39L74.33,29.37L74.67,28.02L74.84,24.72L74.84,24.41L74.87,3.22L75.57,30.5L75.61,34.17L76.21,39.33L76.69,40.25L76.84,40.69L76.96,39.68L77,39.38L78.63,29.21L78.93,28.02L79.11,25.05L79.11,24.73L79.14,3.22L79.84,30.92L79.88,34.5L80.42,39.2L80.85,40.05L81.11,40.68L81.24,39.57L81.27,39.27L83.38,20.97L83.38,20.42L83.41,3.2L84.1,29.24L84.14,33.61L84.71,39.27L85.17,40.15L85.38,40.69L85.49,39.69L85.53,39.39L87.13,29.36L87.47,28.02L87.64,24.72L87.64,24.41L87.67,3.22L88.39,32.76L88.42,34.93L89.06,39.41L89.58,40.38L89.64,40.67L89.84,39L89.88,38.6L91.91,21.84L91.91,21.64L91.94,3.2L92.66,32.17L92.69,34.9L93.22,39.21L93.65,40.05L93.91,40.68L94.04,39.58L94.07,39.27L96.18,21.37L96.18,20.96L96.21,3.2L96.93,33.32L96.96,35.38L97.51,39.27L97.97,40.15L98.18,40.69L98.29,39.68L98.33,39.38L99.94,29.32L100.27,28.02L100.44,24.73L100.44,24.41L100.47,3.22L101.18,31.02L101.21,34.36L101.89,39.5L102.4,40.42L102.44,40.69L102.7,38.49L102.76,38.01L104.71,21.04L104.71,20.47L104.74,3.21L105.46,33.11L105.49,35.21L106.22,39.63L106.67,40.43L106.71,40.69L107,38.24L107.07,37.67L108.98,21.34L108.98,20.91L109.01,3.22L109.7,29.83L109.74,33.44L110.23,39.05L110.59,39.8L110.98,40.67L111.11,39.48L111.15,39.2L113.09,27.93L113.1,27.88L113.24,24.35L113.24,24.24L113.27,3.21L113.97,30.51L114.01,34.5L114.52,39.15L114.93,39.96L115.24,40.69L115.36,39.69L115.39,39.39L117.51,21.4L117.51,21L117.54,3.22L118.24,30.57L118.27,34.09L118.89,39.37L119.4,40.31L119.51,40.69L119.64,39.56L119.67,39.29L121.78,20.93L121.78,20.43L121.81,3.21L122.51,31.38L122.55,34.63L123.07,39.18L123.48,40.01L123.78,40.69L123.89,39.69L123.93,39.39L125.53,29.39L125.87,28.02L126.04,24.72L126.04,24.4L126.07,3.22L126.78,31.76L126.81,34.34L127.46,39.45L128,40.43L128.04,40.69L128.29,38.56L128.35,38.11L130.31,20.97L130.31,20.56L130.34,3.2L131.05,31.17L131.08,34.78L131.61,39.2L132.03,40.03L132.31,40.69L132.43,39.66L132.46,39.35L134.58,21.75L134.58,21.47L134.61,3.22L135.32,32.64L135.35,35.12L135.87,39.19L136.29,40.02L136.58,40.69L136.7,39.61L136.74,39.32L137.78,32.08L138.49,28.7L138.84,24.74L138.84,24.41L138.87,3.22L139.57,30.07L139.61,34.06L140.18,39.28L140.64,40.16L140.84,40.69L140.98,39.54L141.01,39.25L143.11,20.97L143.11,20.57L143.14,3.21L143.85,32.09L143.88,34.94L144.55,39.49L145.07,40.43L145.11,40.69L145.39,38.31L145.46,37.76L147.38,21.41L147.38,21L147.41,3.22L148.1,29.89L148.14,34.09L148.91,39.68L149.33,40.43L149.38,40.69L149.61,38.68L149.66,38.26L151.65,21.42L151.65,21.09L151.67,3.22L152.37,30.72L152.41,34.27L152.98,39.28L153.43,40.14L153.64,40.69L153.76,39.68L153.79,39.38L155.91,21.58L155.91,21.26L155.94,3.22L156.63,29.07L156.67,33.52L157.21,39.19L157.63,40.03L157.91,40.69L158.04,39.57L158.07,39.28L160.18,20.97L160.18,20.57L160.21,3.2L160.92,32.42L160.95,35.06L161.52,39.29L161.98,40.18L162.18,40.69L162.3,39.62L162.33,39.35L164.45,21.28L164.45,20.82L164.47,3.22L165.19,32.8L165.22,35.16L165.78,39.28L166.24,40.16L166.44,40.69L166.57,39.6L166.6,39.3L168.71,21.23L168.71,20.89L168.74,3.21L169.45,31.8L169.48,34.84L170.04,39.27L170.5,40.15L170.71,40.69L170.82,39.71L170.85,39.47L172.98,21.38L172.98,20.95L173.01,3.22L173.71,31.25L173.75,34.6L174.29,39.22L174.72,40.08L174.98,40.69L175.11,39.53L175.14,39.24L177.25,21.89L177.25,21.64L177.27,3.21L178,33.65L178.02,35.41L178.54,39.18L178.96,40.02L179.24,40.68L179.37,39.57L179.41,39.27L181.51,20.97L181.51,20.57L181.54,3.2L182.23,29.39L182.27,33.73L182.84,39.25L183.28,40.13L183.51,40.69L183.62,39.7L183.66,39.43L185.16,29.85L185.6,28.02L185.77,24.74L185.78,24.41L185.81,3.22L186.53,33.16L186.56,35.33L187.1,39.24L187.54,40.09L187.78,40.69L187.9,39.59L187.94,39.3L190.05,21.21L190.05,20.81L190.07,3.21L190.79,32.5L190.82,34.87L191.46,39.45L192,40.43L192.04,40.69L192.32,38.35L192.38,37.83L194.31,21.31L194.31,20.88L194.34,3.22L195.05,31.88L195.08,34.78L195.58,39.14L195.97,39.93L196.31,40.69L196.43,39.65L196.46,39.36L198.58,21.36L198.58,21.06L198.61,3.22L199.33,32.91L199.35,35.22L199.85,39.15L200.26,39.96L200.58,40.69L200.71,39.58L200.74,39.29L202.85,21L202.85,20.61L202.87,3.2L203.6,33.36L203.63,35.42L204.14,39.19L204.56,40.01L204.84,40.69L204.98,39.52L205.01,39.21L207.11,21L207.11,20.61L207.14,3.21L207.86,32.44L207.88,34.85L208.61,39.6L209.07,40.43L209.11,40.69L209.38,38.39L209.44,37.87L211.38,21.75L211.38,21.53L211.41,3.22L212.12,31.78L212.15,34.83L212.67,39.19L213.1,40.02L213.35,40.43L213.37,39.01L213.37,38.91L213.38,16.16L214.12,23.75L214.47,26.6L215.64,38.46L215.64,40.89L215.65,58.25L216.39,49.6L216.4,49.58L217.64,45.11L217.64,45.1L217.65,22.67L218.31,27.93L218.57,29.6L219.9,40.1L219.9,41.55L219.91,60.7L220.63,50.17L220.67,49.96L221.9,44.46L221.9,43.97L221.92,22.87L222.48,27.39L222.67,28.68L224.17,39.89L224.17,40.97L224.18,60.78L224.9,50.21L224.93,50.01L226.17,44.43L226.17,43.87L226.19,22.88L226.74,27.31L226.93,28.62L228.43,39.9L228.43,40.99L228.45,60.77L229.12,50.56L229.15,50.29L229.96,48.18L230.4,47.42L230.44,43.89L230.44,42.63L230.45,22.88L231.09,27.89L231.32,29.48L232.7,39.89L232.7,40.94L232.71,60.78L233.44,50.16L233.47,49.97L234.7,44.43L234.7,43.86L234.72,22.88L235.37,27.98L235.61,29.62L236.97,39.89L236.97,40.95L236.98,60.78L237.69,50.23L237.73,50.01L238.97,44.42L238.97,43.84L238.99,22.88L239.55,27.41L239.75,28.76L241.23,39.89L241.23,40.95L241.25,60.78L241.92,50.52L241.95,50.3L242.97,47.81L243.2,47.43L243.24,43.7L243.24,42.41L243.25,22.88L243.83,27.49L244.03,28.85L245.5,39.88L245.5,40.93L245.51,60.78L246.25,50.11L246.27,49.98L247.5,44.43L247.5,43.87L247.52,22.88L248.18,28.1L248.45,29.86L249.77,39.9L249.77,40.97L249.78,60.78L250.5,50.16L250.54,49.97L251.77,44.43L251.77,43.88L251.79,22.88L252.4,27.72L252.63,29.3L254.03,39.88L254.03,40.93L254.05,60.78L254.72,50.58L254.75,50.31L255.51,48.29L256,47.42L256.04,43.88L256.04,42.61L256.05,22.88L256.78,28.56L257.12,30.63L258.3,39.9L258.3,40.99L258.31,60.77L259.04,50.14L259.08,49.96L260.3,44.64L260.3,44.34L260.32,22.89L260.95,27.9L261.19,29.48L262.57,39.88L262.57,40.93L262.58,60.79L263.3,50.19L263.34,50L264.57,44.36L264.57,43.71L264.59,22.88L265.22,27.88L265.46,29.47L266.83,39.88L266.83,40.93L266.85,60.78L267.54,50.37L267.58,50.11L268.84,43.85L268.84,42.56L268.85,22.88L269.42,27.41L269.61,28.72L271.1,39.9L271.1,40.97L271.11,60.77L271.82,50.25L271.86,50.04L273.1,44.65L273.1,44.36L273.12,22.88L273.77,28.02L274.03,29.75L275.37,39.89L275.37,40.96L275.38,60.78L276.11,50.15L276.14,49.98L277.37,44.67L277.37,44.41L277.39,22.88L278.05,28.11L278.31,29.81L279.63,39.89L279.63,40.96L279.65,60.78L280.32,50.51L280.36,50.23L281.64,43.9L281.64,42.64L281.65,22.88L282.25,27.62L282.46,29.03L283.9,39.83L283.9,40.82L283.91,60.79L284.63,50.19L284.67,49.98L285.9,44.67L285.9,44.4L285.92,22.88L286.54,27.82L286.78,29.44L288.17,39.88L288.17,40.93L288.18,60.78L288.92,50.08L288.95,49.95L290.17,44.65L290.17,44.35L290.19,22.89L290.92,28.61L291.27,30.77L292.43,39.89L292.43,40.95L292.45,60.78L293.14,50.38L293.18,50.15L293.92,48.28L294.4,47.43L294.44,43.78L294.44,42.5L294.45,22.88L295.07,27.79L295.3,29.32L296.7,39.89L296.7,40.94L296.71,60.79L297.45,50.14L297.48,49.96L298.7,44.64L298.7,44.33L298.72,22.89L299.33,27.77L299.57,29.33L300.97,39.88L300.97,40.91L300.98,60.79L301.69,50.25L301.73,50.02L302.97,44.67L302.97,44.41L302.99,22.88L303.64,28.03L303.89,29.71L305.23,39.89L305.23,40.96L305.25,60.78L305.93,50.49L305.96,50.22L307.24,43.86L307.24,42.57L307.25,22.88L307.94,28.27L308.23,30.12L309.5,39.9L309.5,40.98L309.51,60.77L310.24,50.17L310.27,49.98L311.5,44.43L311.5,43.86L311.52,22.88L312.16,27.93L312.4,29.53L313.77,39.89L313.77,40.95L313.78,60.78L314.52,50.11L314.54,49.97L315.77,44.65L315.77,44.37L315.79,22.88L316.39,27.7L316.61,29.2L318.03,39.83L318.03,40.82L318.05,60.79L318.73,50.45L318.76,50.22L320.04,43.8L320.04,42.51L320.05,22.88L320.78,28.52L321.12,30.68L322.3,39.9L322.3,40.99L322.31,60.77L323.03,50.29L323.06,50.08L324.3,44.21L324.3,43.34L324.32,22.9L325,28.24L325.28,30.04L326.57,39.88L326.57,40.94L326.58,60.78L327.32,50.06L327.35,49.93L328.57,44.82L328.57,44.68L328.59,22.88L329.2,27.73L329.43,29.31L330.83,39.88L330.83,40.93L330.85,60.78L331.53,50.48L331.56,50.21L332.84,43.86L332.84,42.57L332.85,22.88L333.42,27.42L333.62,28.79L335.1,39.89L335.1,40.96L335.11,60.78L335.84,50.17L335.88,49.98L337.1,44.62L337.1,44.28L337.12,22.89L337.84,28.5L338.17,30.55L339.37,39.89L339.37,40.96L339.38,60.78L340.09,50.24L340.13,50.03L341.37,43.87L341.37,42.58L341.39,22.88L342.1,28.44L342.41,30.42L343.63,39.9L343.63,40.98L343.65,60.77L344.34,50.4L344.37,50.14L345.64,43.85L345.64,42.56L345.65,22.88L346.29,27.95L346.54,29.58L347.9,39.89L347.9,40.95L347.91,60.78L348.63,50.24L348.67,50.02L349.9,43.82L349.91,42.53L349.92,22.88L350.64,28.48L350.96,30.51L352.17,39.9L352.17,40.98L352.18,60.77L352.92,50.08L352.95,49.94L354.17,44.43L354.17,43.86L354.19,22.88L354.74,27.34L354.93,28.66L356.43,39.9L356.43,40.99L356.45,60.77L357.12,50.55L357.15,50.28L358.15,47.83L358.4,47.42L358.44,43.88L358.44,42.6L358.45,22.88L359.06,27.74L359.3,29.32L360.7,39.88L360.7,40.93L360.71,60.79L361.45,50.09L361.48,49.94L362.7,44.98L362.7,44.92L362.72,22.88L363.28,27.38L363.47,28.69L364.97,39.89L364.97,40.95L364.98,60.78L365.71,50.12L365.74,49.97L366.97,44.42L366.97,43.84L366.99,22.88L367.64,28.04L367.91,29.8L369.23,39.89L369.23,40.96L369.25,60.78L369.94,50.37L369.97,50.16L371.24,43.79L371.24,42.5L371.25,22.88L371.88,27.82L372.1,29.35L373.5,39.88L373.5,40.92L373.51,60.79L374.21,50.31L374.26,50.06L375.5,44.42L375.5,43.83L375.52,22.88L376.17,27.98L376.42,29.63L377.77,39.89L377.77,40.95L377.78,60.78L378.5,50.21L378.54,49.99L379.77,44.43L379.77,43.87L379.79,22.88L380.52,28.56L380.85,30.63L382.03,39.9L382.03,40.99L382.05,60.77L382.74,50.38L382.77,50.17L384.04,43.7L384.04,42.42L384.05,22.88L384.76,28.4L385.08,30.44L386.3,39.9L386.3,40.98L386.31,60.77L387.04,50.12L387.08,49.95L388.3,44.43L388.3,43.87L388.32,22.88L389.01,28.29L389.31,30.2L390.57,39.9L390.57,40.99L390.58,60.77L391.32,50.06L391.35,49.93L392.57,44.43L392.57,43.88L392.59,22.88L393.14,27.33L393.33,28.61L394.83,40.97L394.84,43.28L394.84,60.78L395.59,50.04L395.62,49.93L396.84,44.43L396.84,43.87L396.85,22.88L397.53,28.19L397.8,29.93L399.1,39.9L399.1,40.98L399.11,60.77L399.82,50.27L399.86,50.07L401.1,44.33L401.1,43.63L401.12,22.89L401.73,27.72L401.95,29.2L403.37,39.83L403.37,40.81L403.38,60.79L404.1,50.17L404.14,50.01L405.37,43.69L405.37,42.41L405.39,22.88L406.08,28.29L406.37,30.16L407.63,39.9L407.63,40.97L407.65,60.78L408.33,50.42L408.35,50.27L409.62,47.35L409.63,47.34L409.65,22.88L410.23,27.47L410.42,28.83L411.9,39.9L411.9,40.98L411.91,60.77L412.65,50.11L412.68,49.95L413.9,44.43L413.9,43.86L413.92,22.88L414.53,27.76L414.78,29.38L416.17,39.88L416.17,40.93L416.18,60.78L416.9,50.21L416.93,50.02L418.17,44.65L418.17,44.37L418.19,22.88L418.87,28.22L419.15,30.04L420.43,39.9L420.43,40.97L420.45,60.78L421.14,50.36L421.18,50.11L422.44,43.87L422.44,42.57L422.45,22.88L423.07,27.8L423.32,29.44L424.7,39.88L424.7,40.93L424.71,60.78L425.42,50.26L425.46,50.05L426.93,47.17L426.99,47.09L429.36,45.18L429.92,44.95L434.19,44.25L435.2,44.2L457.65,44.12L458.67,44.12L640,44.12" style="vector-effect: non-scaling-stroke; fill: none; stroke: rgb(255, 161, 90); stroke-opacity: 1; stroke-width: 2px; opacity: 1;"/></g><g class="points"/><g class="text"/></g></g></g><g class="overplot"/><path class="xlines-above crisp" d="M0,0" style="fill: none;"/><path class="ylines-above crisp" d="M0,0" style="fill: none;"/><g class="overlines-above"/><g class="xaxislayer-above"><g class="x5tick"><text text-anchor="middle" x="0" y="534" transform="translate(80,0)" style="font-family: Arial; font-size: 12px; fill: rgb(0, 0, 0); fill-opacity: 1; white-space: pre; opacity: 1;">0.00s</text></g><g class="x5tick"><text text-anchor="middle" x="0" y="534" style="font-family: Arial; font-size: 12px; fill: rgb(0, 0, 0); fill-opacity: 1; white-space: pre; opacity: 1;" transform="translate(165.32999999999998,0)">2.00ms</text></g><g class="x5tick"><text text-anchor="middle" x="0" y="534" style="font-family: Arial; font-size: 12px; fill: rgb(0, 0, 0); fill-opacity: 1; white-space: pre; opacity: 1;" transform="translate(250.67,0)">4.00ms</text></g><g class="x5tick"><text text-anchor="middle" x="0" y="534" style="font-family: Arial; font-size: 12px; fill: rgb(0, 0, 0); fill-opacity: 1; white-space: pre; opacity: 1;" transform="translate(336,0)">6.00ms</text></g><g class="x5tick"><text text-anchor="middle" x="0" y="534" style="font-family: Arial; font-size: 12px; fill: rgb(0, 0, 0); fill-opacity: 1; white-space: pre; opacity: 1;" transform="translate(421.33,0)">8.00ms</text></g><g class="x5tick"><text text-anchor="middle" x="0" y="534" style="font-family: Arial; font-size: 12px; fill: rgb(0, 0, 0); fill-opacity: 1; white-space: pre; opacity: 1;" transform="translate(506.67,0)">10.0ms</text></g><g class="x5tick"><text text-anchor="middle" x="0" y="534" style="font-family: Arial; font-size: 12px; fill: rgb(0, 0, 0); fill-opacity: 1; white-space: pre; opacity: 1;" transform="translate(592,0)">12.0ms</text></g><g class="x5tick"><text text-anchor="middle" x="0" y="534" style="font-family: Arial; font-size: 12px; fill: rgb(0, 0, 0); fill-opacity: 1; white-space: pre; opacity: 1;" transform="translate(677.33,0)">14.0ms</text></g></g><g class="yaxislayer-above"><g class="y5tick"><text text-anchor="end" x="79" y="4.199999999999999" transform="translate(0,501.178)" style="font-family: Arial; font-size: 12px; fill: rgb(0, 0, 0); fill-opacity: 1; white-space: pre; opacity: 1;">0.00V</text></g><g class="y5tick"><text text-anchor="end" x="79" y="4.199999999999999" style="font-family: Arial; font-size: 12px; fill: rgb(0, 0, 0); fill-opacity: 1; white-space: pre; opacity: 1;" transform="translate(0,476.21799999999996)">20.0V</text></g></g><g class="overaxes-above"/></g></g><g class="polarlayer"/><g class="smithlayer"/><g class="ternarylayer"/><g class="geolayer"/><g class="funnelarealayer"/><g class="pielayer"/><g class="iciclelayer"/><g class="treemaplayer"/><g class="sunburstlayer"/><g class="glimages"/><defs id="topdefs-b86a36"><g class="clips"/><clipPath id="legendb86a36"><rect width="512" height="29" x="0" y="0"/></clipPath></defs><g class="layer-above"><g class="imagelayer"/><g class="shapelayer"/></g><g class="infolayer"><g class="legend" pointer-events="all" transform="translate(86.4,584.15)"><rect class="bg" shape-rendering="crispEdges" style="stroke: rgb(68, 68, 68); stroke-opacity: 1; fill: rgb(255, 255, 255); fill-opacity: 1; stroke-width: 0px;" width="512" height="29" x="0" y="0"/><g class="scrollbox" transform="" clip-path="url(#legendb86a36)"><g class="groups"><g class="traces" transform="translate(0,14.5)" style="opacity: 1;"><text class="legendtext" text-anchor="start" x="40" y="4.680000000000001" style="font-family: Arial; font-size: 12px; fill: rgb(0, 0, 0); fill-opacity: 1; white-space: pre;">v(vbreak)</text><g class="layers" style="opacity: 1;"><g class="legendfill"/><g class="legendlines"><path class="js-line" d="M5,0h30" style="fill: none; stroke: rgb(99, 110, 250); stroke-opacity: 1; stroke-width: 2px;"/></g><g class="legendsymbols"><g class="legendpoints"/></g></g><rect class="legendtoggle" x="0" y="-9.5" width="93.515625" height="19" style="fill: rgb(0, 0, 0); fill-opacity: 0;"/></g><g class="traces" transform="translate(96.015625,14.5)" style="opacity: 1;"><text class="legendtext" text-anchor="start" x="40" y="4.680000000000001" style="font-family: Arial; font-size: 12px; fill: rgb(0, 0, 0); fill-opacity: 1; white-space: pre;">v(vdirection)</text><g class="layers" style="opacity: 1;"><g class="legendfill"/><g class="legendlines"><path class="js-line" d="M5,0h30" style="fill: none; stroke: rgb(239, 85, 59); stroke-opacity: 1; stroke-width: 2px;"/></g><g class="legendsymbols"><g class="legendpoints"/></g></g><rect class="legendtoggle" x="0" y="-9.5" width="108.859375" height="19" style="fill: rgb(0, 0, 0); fill-opacity: 0;"/></g><g class="traces" transform="translate(207.375,14.5)" style="opacity: 1;"><text class="legendtext" text-anchor="start" x="40" y="4.680000000000001" style="font-family: Arial; font-size: 12px; fill: rgb(0, 0, 0); fill-opacity: 1; white-space: pre;">v(venable)</text><g class="layers" style="opacity: 1;"><g class="legendfill"/><g class="legendlines"><path class="js-line" d="M5,0h30" style="fill: none; stroke: rgb(0, 204, 150); stroke-opacity: 1; stroke-width: 2px;"/></g><g class="legendsymbols"><g class="legendpoints"/></g></g><rect class="legendtoggle" x="0" y="-9.5" width="99.53125" height="19" style="fill: rgb(0, 0, 0); fill-opacity: 0;"/></g><g class="traces" transform="translate(309.40625,14.5)" style="opacity: 1;"><text class="legendtext" text-anchor="start" x="40" y="4.680000000000001" style="font-family: Arial; font-size: 12px; fill: rgb(0, 0, 0); fill-opacity: 1; white-space: pre;">i(l_motor)</text><g class="layers" style="opacity: 1;"><g class="legendfill"/><g class="legendlines"><path class="js-line" d="M5,0h30" style="fill: none; stroke: rgb(171, 99, 250); stroke-opacity: 1; stroke-width: 2px;"/></g><g class="legendsymbols"><g class="legendpoints"/></g></g><rect class="legendtoggle" x="0" y="-9.5" width="93.1875" height="19" style="fill: rgb(0, 0, 0); fill-opacity: 0;"/></g><g class="traces" transform="translate(405.09375,14.5)" style="opacity: 1;"><text class="legendtext" text-anchor="start" x="40" y="4.680000000000001" style="font-family: Arial; font-size: 12px; fill: rgb(0, 0, 0); fill-opacity: 1; white-space: pre;">v(ul_motor)</text><g class="layers" style="opacity: 1;"><g class="legendfill"/><g class="legendlines"><path class="js-line" d="M5,0h30" style="fill: none; stroke: rgb(255, 161, 90); stroke-opacity: 1; stroke-width: 2px;"/></g><g class="legendsymbols"><g class="legendpoints"/></g></g><rect class="legendtoggle" x="0" y="-9.5" width="104.1875" height="19" style="fill: rgb(0, 0, 0); fill-opacity: 0;"/></g></g></g><rect class="scrollbar" rx="20" ry="3" width="0" height="0" style="fill: rgb(128, 139, 164); fill-opacity: 1;" x="0" y="0"/></g><g class="g-gtitle"/><g class="g-xtitle"/><g class="g-x2title"/><g class="g-x3title"/><g class="g-x4title"/><g class="g-x5title"/><g class="g-ytitle"><text class="ytitle" transform="rotate(-90,22.840625000000003,131.996)" x="22.840625000000003" y="131.996" text-anchor="middle" style="font-family: Arial; font-size: 14px; fill: rgb(0, 0, 0); opacity: 1; font-weight: normal; white-space: pre;">v(vbreak)</text></g><g class="g-y2title"><text class="y2title" transform="rotate(-90,22.840625000000003,221.24800000000005)" x="22.840625000000003" y="221.24800000000005" text-anchor="middle" style="font-family: Arial; font-size: 14px; fill: rgb(0, 0, 0); opacity: 1; font-weight: normal; white-space: pre;">v(vdirection)</text></g><g class="g-y3title"><text class="y3title" transform="rotate(-90,22.840625000000003,310.5)" x="22.840625000000003" y="310.5" text-anchor="middle" style="font-family: Arial; font-size: 14px; fill: rgb(0, 0, 0); opacity: 1; font-weight: normal; white-space: pre;">v(venable)</text></g><g class="g-y4title"><text class="y4title" transform="rotate(-90,15.825000000000003,399.752)" x="15.825000000000003" y="399.752" text-anchor="middle" style="font-family: Arial; font-size: 14px; fill: rgb(0, 0, 0); opacity: 1; font-weight: normal; white-space: pre;">i(l_motor)</text></g><g class="g-y5title"><text class="y5title" transform="rotate(-90,22.840625000000003,489.00399999999996)" x="22.840625000000003" y="489.00399999999996" text-anchor="middle" style="font-family: Arial; font-size: 14px; fill: rgb(0, 0, 0); opacity: 1; font-weight: normal; white-space: pre;">v(ul_motor)</text></g></g></svg>