<svg class="main-svg" xmlns="http://www.w3.org/2000/svg" xmlns:xlink="http://www.w3.org/1999/xlink" width="800" height="625" style="" viewBox="0 0 800 625"><rect x="0" y="0" width="800" height="625" style="fill: rgb(255, 255, 255); fill-opacity: 1;"/><defs id="defs-c02a43"><g class="clips"><clipPath id="clipc02a43xyplot" class="plotclip"><rect width="736" height="74.784"/></clipPath><clipPath id="clipc02a43x2y2plot" class="plotclip"><rect width="736" height="74.784"/></clipPath><clipPath id="clipc02a43x3y3plot" class="plotclip"><rect width="736" height="74.78399999999998"/></clipPath><clipPath id="clipc02a43x4y4plot" class="plotclip"><rect width="736" height="74.78399999999999"/></clipPath><clipPath id="clipc02a43x5y5plot" class="plotclip"><rect width="736" height="74.78399999999999"/></clipPath><clipPath class="axesclip" id="clipc02a43x"><rect x="64" y="0" width="736" height="625"/></clipPath><clipPath class="axesclip" id="clipc02a43y"><rect x="0" y="30" width="800" height="74.784"/></clipPath><clipPath class="axesclip" id="clipc02a43xy"><rect x="64" y="30" width="736" height="74.784"/></clipPath><clipPath class="axesclip" id="clipc02a43y2"><rect x="0" y="134.30400000000003" width="800" height="74.784"/></clipPath><clipPath class="axesclip" id="clipc02a43xy2"><rect x="64" y="134.30400000000003" width="736" height="74.784"/></clipPath><clipPath class="axesclip" id="clipc02a43y3"><rect x="0" y="238.60800000000003" width="800" height="74.78399999999998"/></clipPath><clipPath class="axesclip" id="clipc02a43xy3"><rect x="64" y="238.60800000000003" width="736" height="74.78399999999998"/></clipPath><clipPath class="axesclip" id="clipc02a43y4"><rect x="0" y="342.912" width="800" height="74.78399999999999"/></clipPath><clipPath class="axesclip" id="clipc02a43xy4"><rect x="64" y="342.912" width="736" height="74.78399999999999"/></clipPath><clipPath class="axesclip" id="clipc02a43y5"><rect x="0" y="447.216" width="800" height="74.78399999999999"/></clipPath><clipPath class="axesclip" id="clipc02a43xy5"><rect x="64" y="447.216" width="736" height="74.78399999999999"/></clipPath><clipPath class="axesclip" id="clipc02a43x2"><rect x="64" y="0" width="736" height="625"/></clipPath><clipPath class="axesclip" id="clipc02a43x2y"><rect x="64" y="30" width="736" height="74.784"/></clipPath><clipPath class="axesclip" id="clipc02a43x2y2"><rect x="64" y="134.30400000000003" width="736" height="74.784"/></clipPath><clipPath class="axesclip" id="clipc02a43x2y3"><rect x="64" y="238.60800000000003" width="736" height="74.78399999999998"/></clipPath><clipPath class="axesclip" id="clipc02a43x2y4"><rect x="64" y="342.912" width="736" height="74.78399999999999"/></clipPath><clipPath class="axesclip" id="clipc02a43x2y5"><rect x="64" y="447.216" width="736" height="74.78399999999999"/></clipPath><clipPath class="axesclip" id="clipc02a43x3"><rect x="64" y="0" width="736" height="625"/></clipPath><clipPath class="axesclip" id="clipc02a43x3y"><rect x="64" y="30" width="736" height="74.784"/></clipPath><clipPath class="axesclip" id="clipc02a43x3y2"><rect x="64" y="134.30400000000003" width="736" height="74.784"/></clipPath><clipPath class="axesclip" id="clipc02a43x3y3"><rect x="64" y="238.60800000000003" width="736" height="74.78399999999998"/></clipPath><clipPath class="axesclip" id="clipc02a43x3y4"><rect x="64" y="342.912" width="736" height="74.78399999999999"/></clipPath><clipPath class="axesclip" id="clipc02a43x3y5"><rect x="64" y="447.216" width="736" height="74.78399999999999"/></clipPath><clipPath class="axesclip" id="clipc02a43x4"><rect x="64" y="0" width="736" height="625"/></clipPath><clipPath class="axesclip" id="clipc02a43x4y"><rect x="64" y="30" width="736" height="74.784"/></clipPath><clipPath class="axesclip" id="clipc02a43x4y2"><rect x="64" y="134.30400000000003" width="736" height="74.784"/></clipPath><clipPath class="axesclip" id="clipc02a43x4y3"><rect x="64" y="238.60800000000003" width="736" height="74.78399999999998"/></clipPath><clipPath class="axesclip" id="clipc02a43x4y4"><rect x="64" y="342.912" width="736" height="74.78399999999999"/></clipPath><clipPath class="axesclip" id="clipc02a43x4y5"><rect x="64" y="447.216" width="736" height="74.78399999999999"/></clipPath><clipPath class="axesclip" id="clipc02a43x5"><rect x="64" y="0" width="736" height="625"/></clipPath><clipPath class="axesclip" id="clipc02a43x5y"><rect x="64" y="30" width="736" height="74.784"/></clipPath><clipPath class="axesclip" id="clipc02a43x5y2"><rect x="64" y="134.30400000000003" width="736" height="74.784"/></clipPath><clipPath class="axesclip" id="clipc02a43x5y3"><rect x="64" y="238.60800000000003" width="736" height="74.78399999999998"/></clipPath><clipPath class="axesclip" id="clipc02a43x5y4"><rect x="64" y="342.912" width="736" height="74.78399999999999"/></clipPath><clipPath class="axesclip" id="clipc02a43x5y5"><rect x="64" y="447.216" width="736" height="74.78399999999999"/></clipPath></g><g class="gradients"/><g class="patterns"/></defs><g class="bglayer"><rect class="bg" x="64" y="30" width="736" height="74.784" style="fill: rgb(229, 236, 246); fill-opacity: 1; stroke-width: 0;"/><rect class="bg" x="64" y="134.30400000000003" width="736" height="74.784" style="fill: rgb(229, 236, 246); fill-opacity: 1; stroke-width: 0;"/><rect class="bg" x="64" y="238.60800000000003" width="736" height="74.78399999999998" style="fill: rgb(229, 236, 246); fill-opacity: 1; stroke-width: 0;"/><rect class="bg" x="64" y="342.912" width="736" height="74.78399999999999" style="fill: rgb(229, 236, 246); fill-opacity: 1; stroke-width: 0;"/><rect class="bg" x="64" y="447.216" width="736" height="74.78399999999999" style="fill: rgb(229, 236, 246); fill-opacity: 1; stroke-width: 0;"/></g><g class="layer-below"><g class="imagelayer"/><g class="shapelayer"/></g><g class="cartesianlayer"><g class="subplot xy"><g class="layer-subplot"><g class="shapelayer"/><g class="imagelayer"/></g><g class="minor-gridlayer"><g class="x"/><g class="y"/></g><g class="gridlayer"><g class="x"><path class="xgrid crisp" transform="translate(162.13,0)" d="M0,30v74.784" style="stroke: rgb(255, 255, 255); stroke-opacity: 1; stroke-width: 1px;"/><path class="xgrid crisp" transform="translate(260.27,0)" d="M0,30v74.784" style="stroke: rgb(255, 255, 255); stroke-opacity: 1; stroke-width: 1px;"/><path class="xgrid crisp" transform="translate(358.4,0)" d="M0,30v74.784" style="stroke: rgb(255, 255, 255); stroke-opacity: 1; stroke-width: 1px;"/><path class="xgrid crisp" transform="translate(456.53,0)" d="M0,30v74.784" style="stroke: rgb(255, 255, 255); stroke-opacity: 1; stroke-width: 1px;"/><path class="xgrid crisp" transform="translate(554.6700000000001,0)" d="M0,30v74.784" style="stroke: rgb(255, 255, 255); stroke-opacity: 1; stroke-width: 1px;"/><path class="xgrid crisp" transform="translate(652.8,0)" d="M0,30v74.784" style="stroke: rgb(255, 255, 255); stroke-opacity: 1; stroke-width: 1px;"/><path class="xgrid crisp" transform="translate(750.93,0)" d="M0,30v74.784" style="stroke: rgb(255, 255, 255); stroke-opacity: 1; stroke-width: 1px;"/></g><g class="y"><path class="ygrid crisp" transform="translate(0,74.12)" d="M64,0h736" style="stroke: rgb(255, 255, 255); stroke-opacity: 1; stroke-width: 1px;"/><path class="ygrid crisp" transform="translate(0,47.2)" d="M64,0h736" style="stroke: rgb(255, 255, 255); stroke-opacity: 1; stroke-width: 1px;"/></g></g><g class="zerolinelayer"><path class="xzl zl crisp" transform="translate(64,0)" d="M0,30v74.784" style="stroke: rgb(255, 255, 255); stroke-opacity: 1; stroke-width: 2px;"/><path class="yzl zl crisp" transform="translate(0,101.04)" d="M64,0h736" style="stroke: rgb(255, 255, 255); stroke-opacity: 1; stroke-width: 2px;"/></g><path class="xlines-below"/><path class="ylines-below"/><g class="overlines-below"/><g class="xaxislayer-below"/><g class="yaxislayer-below"/><g class="overaxes-below"/><g class="plot" transform="translate(64,30)" clip-path="url(#clipc02a43xyplot)"><g class="scatterlayer mlayer"><g class="trace scatter tracedf38bd" style="stroke-miterlimit: 2; opacity: 1;"><g class="fills"/><g class="errorbars"/><g class="lines"><path class="js-line" d="M0,71.04L490.67,71.04L490.67,70.39L490.67,70.25L490.72,3.74L491.41,3.74L491.68,3.74L736,3.74" style="vector-effect: non-scaling-stroke; fill: none; stroke: rgb(99, 110, 250); stroke-opacity: 1; stroke-width: 2px; opacity: 1;"/></g><g class="points"/><g class="text"/></g></g></g><g class="overplot"/><path class="xlines-above crisp" d="M0,0" style="fill: none;"/><path class="ylines-above crisp" d="M0,0" style="fill: none;"/><g class="overlines-above"/><g class="xaxislayer-above"><g class="xtick"><text text-anchor="middle" x="0" y="117.784" transform="translate(64,0)" style="font-family: Arial; font-size: 12px; fill: rgb(0, 0, 0); fill-opacity: 1; white-space: pre; opacity: 1;">0.00s</text></g><g class="xtick"><text text-anchor="middle" x="0" y="117.784" style="font-family: Arial; font-size: 12px; fill: rgb(0, 0, 0); fill-opacity: 1; white-space: pre; opacity: 1;" transform="translate(162.13,0)">2.00ms</text></g><g class="xtick"><text text-anchor="middle" x="0" y="117.784" style="font-family: Arial; font-size: 12px; fill: rgb(0, 0, 0); fill-opacity: 1; white-space: pre; opacity: 1;" transform="translate(260.27,0)">4.00ms</text></g><g class="xtick"><text text-anchor="middle" x="0" y="117.784" style="font-family: Arial; font-size: 12px; fill: rgb(0, 0, 0); fill-opacity: 1; white-space: pre; opacity: 1;" transform="translate(358.4,0)">6.00ms</text></g><g class="xtick"><text text-anchor="middle" x="0" y="117.784" style="font-family: Arial; font-size: 12px; fill: rgb(0, 0, 0); fill-opacity: 1; white-space: pre; opacity: 1;" transform="translate(456.53,0)">8.00ms</text></g><g class="xtick"><text text-anchor="middle" x="0" y="117.784" style="font-family: Arial; font-size: 12px; fill: rgb(0, 0, 0); fill-opacity: 1; white-space: pre; opacity: 1;" transform="translate(554.6700000000001,0)">10.0ms</text></g><g class="xtick"><text text-anchor="middle" x="0" y="117.784" style="font-family: Arial; font-size: 12px; fill: rgb(0, 0, 0); fill-opacity: 1; white-space: pre; opacity: 1;" transform="translate(652.8,0)">12.0ms</text></g><g class="xtick"><text text-anchor="middle" x="0" y="117.784" style="font-family: Arial; font-size: 12px; fill: rgb(0, 0, 0); fill-opacity: 1; white-space: pre; opacity: 1;" transform="translate(750.93,0)">14.0ms</text></g></g><g class="yaxislayer-above"><g class="ytick"><text text-anchor="end" x="63" y="4.199999999999999" transform="translate(0,101.04)" style="font-family: Arial; font-size: 12px; fill: rgb(0, 0, 0); fill-opacity: 1; white-space: pre; opacity: 1;">0.00V</text></g><g class="ytick"><text text-anchor="end" x="63" y="4.199999999999999" style="font-family: Arial; font-size: 12px; fill: rgb(0, 0, 0); fill-opacity: 1; white-space: pre; opacity: 1;" transform="translate(0,74.12)">2.00V</text></g><g class="ytick"><text text-anchor="end" x="63" y="4.199999999999999" style="font-family: Arial; font-size: 12px; fill: rgb(0, 0, 0); fill-opacity: 1; white-space: pre; opacity: 1;" transform="translate(0,47.2)">4.00V</text></g></g><g class="overaxes-above"/></g><g class="subplot x2y2"><g class="layer-subplot"><g class="shapelayer"/><g class="imagelayer"/></g><g class="minor-gridlayer"><g class="x2"/><g class="y2"/></g><g class="gridlayer"><g class="x2"><path class="x2grid crisp" transform="translate(162.13,0)" d="M0,134.30400000000003v74.784" style="stroke: rgb(255, 255, 255); stroke-opacity: 1; stroke-width: 1px;"/><path class="x2grid crisp" transform="translate(260.27,0)" d="M0,134.30400000000003v74.784" style="stroke: rgb(255, 255, 255); stroke-opacity: 1; stroke-width: 1px;"/><path class="x2grid crisp" transform="translate(358.4,0)" d="M0,134.30400000000003v74.784" style="stroke: rgb(255, 255, 255); stroke-opacity: 1; stroke-width: 1px;"/><path class="x2grid crisp" transform="translate(456.53,0)" d="M0,134.30400000000003v74.784" style="stroke: rgb(255, 255, 255); stroke-opacity: 1; stroke-width: 1px;"/><path class="x2grid crisp" transform="translate(554.6700000000001,0)" d="M0,134.30400000000003v74.784" style="stroke: rgb(255, 255, 255); stroke-opacity: 1; stroke-width: 1px;"/><path class="x2grid crisp" transform="translate(652.8,0)" d="M0,134.30400000000003v74.784" style="stroke: rgb(255, 255, 255); stroke-opacity: 1; stroke-width: 1px;"/><path class="x2grid crisp" transform="translate(750.93,0)" d="M0,134.30400000000003v74.784" style="stroke: rgb(255, 255, 255); stroke-opacity: 1; stroke-width: 1px;"/></g><g class="y2"><path class="y2grid crisp" transform="translate(0,178.42400000000004)" d="M64,0h736" style="stroke: rgb(255, 255, 255); stroke-opacity: 1; stroke-width: 1px;"/><path class="y2grid crisp" transform="translate(0,151.50400000000002)" d="M64,0h736" style="stroke: rgb(255, 255, 255); stroke-opacity: 1; stroke-width: 1px;"/></g></g><g class="zerolinelayer"><path class="x2zl zl crisp" transform="translate(64,0)" d="M0,134.30400000000003v74.784" style="stroke: rgb(255, 255, 255); stroke-opacity: 1; stroke-width: 2px;"/><path class="y2zl zl crisp" transform="translate(0,205.34400000000005)" d="M64,0h736" style="stroke: rgb(255, 255, 255); stroke-opacity: 1; stroke-width: 2px;"/></g><path class="xlines-below"/><path class="ylines-below"/><g class="overlines-below"/><g class="xaxislayer-below"/><g class="yaxislayer-below"/><g class="overaxes-below"/><g class="plot" transform="translate(64,134.30400000000003)" clip-path="url(#clipc02a43x2y2plot)"><g class="scatterlayer mlayer"><g class="trace scatter traceb964ef" style="stroke-miterlimit: 2; opacity: 1;"><g class="fills"/><g class="errorbars"/><g class="lines"><path class="js-line" d="M0,71.04L245.33,71.04L245.33,64.31L245.33,3.74L246.03,3.74L246.24,3.74L736,3.74" style="vector-effect: non-scaling-stroke; fill: none; stroke: rgb(239, 85, 59); stroke-opacity: 1; stroke-width: 2px; opacity: 1;"/></g><g class="points"/><g class="text"/></g></g></g><g class="overplot"/><path class="xlines-above crisp" d="M0,0" style="fill: none;"/><path class="ylines-above crisp" d="M0,0" style="fill: none;"/><g class="overlines-above"/><g class="xaxislayer-above"><g class="x2tick"><text text-anchor="middle" x="0" y="222.08800000000002" transform="translate(64,0)" style="font-family: Arial; font-size: 12px; fill: rgb(0, 0, 0); fill-opacity: 1; white-space: pre; opacity: 1;">0.00s</text></g><g class="x2tick"><text text-anchor="middle" x="0" y="222.08800000000002" style="font-family: Arial; font-size: 12px; fill: rgb(0, 0, 0); fill-opacity: 1; white-space: pre; opacity: 1;" transform="translate(162.13,0)">2.00ms</text></g><g class="x2tick"><text text-anchor="middle" x="0" y="222.08800000000002" style="font-family: Arial; font-size: 12px; fill: rgb(0, 0, 0); fill-opacity: 1; white-space: pre; opacity: 1;" transform="translate(260.27,0)">4.00ms</text></g><g class="x2tick"><text text-anchor="middle" x="0" y="222.08800000000002" style="font-family: Arial; font-size: 12px; fill: rgb(0, 0, 0); fill-opacity: 1; white-space: pre; opacity: 1;" transform="translate(358.4,0)">6.00ms</text></g><g class="x2tick"><text text-anchor="middle" x="0" y="222.08800000000002" style="font-family: Arial; font-size: 12px; fill: rgb(0, 0, 0); fill-opacity: 1; white-space: pre; opacity: 1;" transform="translate(456.53,0)">8.00ms</text></g><g class="x2tick"><text text-anchor="middle" x="0" y="222.08800000000002" style="font-family: Arial; font-size: 12px; fill: rgb(0, 0, 0); fill-opacity: 1; white-space: pre; opacity: 1;" transform="translate(554.6700000000001,0)">10.0ms</text></g><g class="x2tick"><text text-anchor="middle" x="0" y="222.08800000000002" style="font-family: Arial; font-size: 12px; fill: rgb(0, 0, 0); fill-opacity: 1; white-space: pre; opacity: 1;" transform="translate(652.8,0)">12.0ms</text></g><g class="x2tick"><text text-anchor="middle" x="0" y="222.08800000000002" style="font-family: Arial; font-size: 12px; fill: rgb(0, 0, 0); fill-opacity: 1; white-space: pre; opacity: 1;" transform="translate(750.93,0)">14.0ms</text></g></g><g class="yaxislayer-above"><g class="y2tick"><text text-anchor="end" x="63" y="4.199999999999999" transform="translate(0,205.34400000000005)" style="font-family: Arial; font-size: 12px; fill: rgb(0, 0, 0); fill-opacity: 1; white-space: pre; opacity: 1;">0.00V</text></g><g class="y2tick"><text text-anchor="end" x="63" y="4.199999999999999" style="font-family: Arial; font-size: 12px; fill: rgb(0, 0, 0); fill-opacity: 1; white-space: pre; opacity: 1;" transform="translate(0,178.42400000000004)">2.00V</text></g><g class="y2tick"><text text-anchor="end" x="63" y="4.199999999999999" style="font-family: Arial; font-size: 12px; fill: rgb(0, 0, 0); fill-opacity: 1; white-space: pre; opacity: 1;" transform="translate(0,151.50400000000002)">4.00V</text></g></g><g class="overaxes-above"/></g><g class="subplot x3y3"><g class="layer-subplot"><g class="shapelayer"/><g class="imagelayer"/></g><g class="minor-gridlayer"><g class="x3"/><g class="y3"/></g><g class="gridlayer"><g class="x3"><path class="x3grid crisp" transform="translate(162.13,0)" d="M0,238.60800000000003v74.78399999999998" style="stroke: rgb(255, 255, 255); stroke-opacity: 1; stroke-width: 1px;"/><path class="x3grid crisp" transform="translate(260.27,0)" d="M0,238.60800000000003v74.78399999999998" style="stroke: rgb(255, 255, 255); stroke-opacity: 1; stroke-width: 1px;"/><path class="x3grid crisp" transform="translate(358.4,0)" d="M0,238.60800000000003v74.78399999999998" style="stroke: rgb(255, 255, 255); stroke-opacity: 1; stroke-width: 1px;"/><path class="x3grid crisp" transform="translate(456.53,0)" d="M0,238.60800000000003v74.78399999999998" style="stroke: rgb(255, 255, 255); stroke-opacity: 1; stroke-width: 1px;"/><path class="x3grid crisp" transform="translate(554.6700000000001,0)" d="M0,238.60800000000003v74.78399999999998" style="stroke: rgb(255, 255, 255); stroke-opacity: 1; stroke-width: 1px;"/><path class="x3grid crisp" transform="translate(652.8,0)" d="M0,238.60800000000003v74.78399999999998" style="stroke: rgb(255, 255, 255); stroke-opacity: 1; stroke-width: 1px;"/><path class="x3grid crisp" transform="translate(750.93,0)" d="M0,238.60800000000003v74.78399999999998" style="stroke: rgb(255, 255, 255); stroke-opacity: 1; stroke-width: 1px;"/></g><g class="y3"><path class="y3grid crisp" transform="translate(0,282.728)" d="M64,0h736" style="stroke: rgb(255, 255, 255); stroke-opacity: 1; stroke-width: 1px;"/><path class="y3grid crisp" transform="translate(0,255.80800000000002)" d="M64,0h736" style="stroke: rgb(255, 255, 255); stroke-opacity: 1; stroke-width: 1px;"/></g></g><g class="zerolinelayer"><path class="x3zl zl crisp" transform="translate(64,0)" d="M0,238.60800000000003v74.78399999999998" style="stroke: rgb(255, 255, 255); stroke-opacity: 1; stroke-width: 2px;"/><path class="y3zl zl crisp" transform="translate(0,309.648)" d="M64,0h736" style="stroke: rgb(255, 255, 255); stroke-opacity: 1; stroke-width: 2px;"/></g><path class="xlines-below"/><path class="ylines-below"/><g class="overlines-below"/><g class="xaxislayer-below"/><g class="yaxislayer-below"/><g class="overaxes-below"/><g class="plot" transform="translate(64,238.60800000000003)" clip-path="url(#clipc02a43x3y3plot)"><g class="scatterlayer mlayer"><g class="trace scatter trace15e8eb" style="stroke-miterlimit: 2; opacity: 1;"><g class="fills"/><g class="errorbars"/><g class="lines"><path class="js-line" d="M0,71.04L0,3.74L0.7,3.74L0.99,3.74L736,3.74" style="vector-effect: non-scaling-stroke; fill: none; stroke: rgb(0, 204, 150); stroke-opacity: 1; stroke-width: 2px; opacity: 1;"/></g><g class="points"/><g class="text"/></g></g></g><g class="overplot"/><path class="xlines-above crisp" d="M0,0" style="fill: none;"/><path class="ylines-above crisp" d="M0,0" style="fill: none;"/><g class="overlines-above"/><g class="xaxislayer-above"><g class="x3tick"><text text-anchor="middle" x="0" y="326.392" transform="translate(64,0)" style="font-family: Arial; font-size: 12px; fill: rgb(0, 0, 0); fill-opacity: 1; white-space: pre; opacity: 1;">0.00s</text></g><g class="x3tick"><text text-anchor="middle" x="0" y="326.392" style="font-family: Arial; font-size: 12px; fill: rgb(0, 0, 0); fill-opacity: 1; white-space: pre; opacity: 1;" transform="translate(162.13,0)">2.00ms</text></g><g class="x3tick"><text text-anchor="middle" x="0" y="326.392" style="font-family: Arial; font-size: 12px; fill: rgb(0, 0, 0); fill-opacity: 1; white-space: pre; opacity: 1;" transform="translate(260.27,0)">4.00ms</text></g><g class="x3tick"><text text-anchor="middle" x="0" y="326.392" style="font-family: Arial; font-size: 12px; fill: rgb(0, 0, 0); fill-opacity: 1; white-space: pre; opacity: 1;" transform="translate(358.4,0)">6.00ms</text></g><g class="x3tick"><text text-anchor="middle" x="0" y="326.392" style="font-family: Arial; font-size: 12px; fill: rgb(0, 0, 0); fill-opacity: 1; white-space: pre; opacity: 1;" transform="translate(456.53,0)">8.00ms</text></g><g class="x3tick"><text text-anchor="middle" x="0" y="326.392" style="font-family: Arial; font-size: 12px; fill: rgb(0, 0, 0); fill-opacity: 1; white-space: pre; opacity: 1;" transform="translate(554.6700000000001,0)">10.0ms</text></g><g class="x3tick"><text text-anchor="middle" x="0" y="326.392" style="font-family: Arial; font-size: 12px; fill: rgb(0, 0, 0); fill-opacity: 1; white-space: pre; opacity: 1;" transform="translate(652.8,0)">12.0ms</text></g><g class="x3tick"><text text-anchor="middle" x="0" y="326.392" style="font-family: Arial; font-size: 12px; fill: rgb(0, 0, 0); fill-opacity: 1; white-space: pre; opacity: 1;" transform="translate(750.93,0)">14.0ms</text></g></g><g class="yaxislayer-above"><g class="y3tick"><text text-anchor="end" x="63" y="4.199999999999999" transform="translate(0,309.648)" style="font-family: Arial; font-size: 12px; fill: rgb(0, 0, 0); fill-opacity: 1; white-space: pre; opacity: 1;">0.00V</text></g><g class="y3tick"><text text-anchor="end" x="63" y="4.199999999999999" style="font-family: Arial; font-size: 12px; fill: rgb(0, 0, 0); fill-opacity: 1; white-space: pre; opacity: 1;" transform="translate(0,282.728)">2.00V</text></g><g class="y3tick"><text text-anchor="end" x="63" y="4.199999999999999" style="font-family: Arial; font-size: 12px; fill: rgb(0, 0, 0); fill-opacity: 1; white-space: pre; opacity: 1;" transform="translate(0,255.80800000000002)">4.00V</text></g></g><g class="overaxes-above"/></g><g class="subplot x4y4"><g class="layer-subplot"><g class="shapelayer"/><g class="imagelayer"/></g><g class="minor-gridlayer"><g class="x4"/><g class="y4"/></g><g class="gridlayer"><g class="x4"><path class="x4grid crisp" transform="translate(162.13,0)" d="M0,342.912v74.78399999999999" style="stroke: rgb(255, 255, 255); stroke-opacity: 1; stroke-width: 1px;"/><path class="x4grid crisp" transform="translate(260.27,0)" d="M0,342.912v74.78399999999999" style="stroke: rgb(255, 255, 255); stroke-opacity: 1; stroke-width: 1px;"/><path class="x4grid crisp" transform="translate(358.4,0)" d="M0,342.912v74.78399999999999" style="stroke: rgb(255, 255, 255); stroke-opacity: 1; stroke-width: 1px;"/><path class="x4grid crisp" transform="translate(456.53,0)" d="M0,342.912v74.78399999999999" style="stroke: rgb(255, 255, 255); stroke-opacity: 1; stroke-width: 1px;"/><path class="x4grid crisp" transform="translate(554.6700000000001,0)" d="M0,342.912v74.78399999999999" style="stroke: rgb(255, 255, 255); stroke-opacity: 1; stroke-width: 1px;"/><path class="x4grid crisp" transform="translate(652.8,0)" d="M0,342.912v74.78399999999999" style="stroke: rgb(255, 255, 255); stroke-opacity: 1; stroke-width: 1px;"/><path class="x4grid crisp" transform="translate(750.93,0)" d="M0,342.912v74.78399999999999" style="stroke: rgb(255, 255, 255); stroke-opacity: 1; stroke-width: 1px;"/></g><g class="y4"><path class="y4grid crisp" transform="translate(0,408.062)" d="M64,0h736" style="stroke: rgb(255, 255, 255); stroke-opacity: 1; stroke-width: 1px;"/><path class="y4grid crisp" transform="translate(0,352.542)" d="M64,0h736" style="stroke: rgb(255, 255, 255); stroke-opacity: 1; stroke-width: 1px;"/></g></g><g class="zerolinelayer"><path class="x4zl zl crisp" transform="translate(64,0)" d="M0,342.912v74.78399999999999" style="stroke: rgb(255, 255, 255); stroke-opacity: 1; stroke-width: 2px;"/><path class="y4zl zl crisp" transform="translate(0,380.30199999999996)" d="M64,0h736" style="stroke: rgb(255, 255, 255); stroke-opacity: 1; stroke-width: 2px;"/></g><path class="xlines-below"/><path class="ylines-below"/><g class="overlines-below"/><g class="xaxislayer-below"/><g class="yaxislayer-below"/><g class="overaxes-below"/><g class="plot" transform="translate(64,342.912)" clip-path="url(#clipc02a43x4y4plot)"><g class="scatterlayer mlayer"><g class="trace scatter traceec3673" style="stroke-miterlimit: 2; opacity: 1;"><g class="fills"/><g class="errorbars"/><g class="lines"><path class="js-line" d="M0,37.39L0.17,39.56L0.21,40.42L2.65,68.51L2.66,68.34L2.67,68.31L4.1,46.6L4.6,44.94L4.95,43.98L5.06,45.64L5.07,45.88L7.56,70.93L7.59,70.16L7.59,70.1L9.13,46.4L9.69,44.61L9.86,44.16L9.98,45.98L10,46.34L12.29,69.96L12.31,70.07L12.46,71.01L12.59,67.38L12.64,65.94L13.97,46.67L14.45,45.05L14.77,44.18L14.87,45.75L14.89,46.05L16.93,68.14L17.17,69.82L17.37,71.02L17.46,68.59L17.5,67.32L18.85,46.74L19.33,45.15L19.67,44.17L19.79,46L19.81,46.29L21.55,65.95L22.08,69.81L22.28,71L22.41,67.2L22.46,65.76L23.73,46.88L24.16,45.38L24.58,44.18L24.69,45.98L24.71,46.24L27.18,71.02L27.21,70.39L27.21,70.38L28.66,46.78L29.12,45.22L29.49,44.18L29.6,46.02L29.62,46.33L32.06,70.86L32.07,70.9L32.18,68.53L32.22,67.27L33.58,46.74L34.05,45.18L34.39,44.2L34.5,45.9L34.52,46.15L35.88,62.66L36.8,69.85L37,71.04L37.13,67.24L37.18,65.79L38.37,47.14L38.73,45.86L39.3,44.17L39.42,46.06L39.45,46.5L41.73,70L41.75,70.11L41.9,71.04L42.04,67.08L42.09,65.66L43.46,46.49L44,44.75L44.21,44.2L44.31,45.88L44.33,46.13L46.81,71.04L46.84,70.57L46.84,70.44L48.41,46.34L49,44.5L49.11,44.19L49.22,45.89L49.24,46.15L51.64,70.6L51.66,70.7L51.72,71.03L51.83,67.87L51.88,66.3L53.17,46.84L53.61,45.34L54.02,44.17L54.14,46.05L54.17,46.46L56.45,69.99L56.47,70.1L56.62,71.03L56.75,67.61L56.8,66.13L57.91,47.52L58.17,46.52L58.93,44.18L59.04,46.01L59.06,46.34L61.36,69.97L61.37,70.08L61.53,71.01L61.64,68.02L61.69,66.47L63.04,46.65L63.53,45.01L63.83,44.17L63.93,45.75L63.95,46.07L66.43,71.04L66.46,70.57L66.47,70.45L67.21,50.59L67.25,50.06L68.45,44.97L68.69,44.29L68.88,46.43L68.92,47.05L71.34,71.03L71.4,69.52L71.41,69.19L72.61,47.6L72.86,46.65L73.65,44.19L73.77,46.14L73.8,46.53L76.09,70.11L76.11,70.23L76.25,71.04L76.37,67.75L76.42,66.19L77.74,46.74L78.21,45.16L78.55,44.18L78.67,46.04L78.69,46.38L81.15,71.02L81.21,69.56L81.22,69.37L82.43,47.56L82.68,46.58L83.46,44.17L83.58,45.99L83.6,46.32L85.94,70.3L85.96,70.38L86.06,71.01L86.18,67.81L86.23,66.22L87.36,47.46L87.64,46.41L88.37,44.17L88.48,45.99L88.51,46.34L89.63,60.42L90.43,67.41L90.97,71.01L91.08,67.83L91.13,66.32L92.48,46.66L92.98,45.02L93.27,44.19L93.38,45.92L93.4,46.16L94.75,62.53L95.68,69.85L95.88,71.04L96.02,66.91L96.07,65.42L97.42,46.54L97.94,44.82L98.18,44.17L98.3,45.99L98.32,46.32L100.66,70.3L100.68,70.38L100.78,71.01L100.88,68.35L100.93,66.9L102.41,46.27L103.02,44.37L103.09,44.21L103.19,45.76L103.21,46.07L104.44,61.38L105.34,68.81L105.69,71.04L105.82,67.45L105.87,65.99L106.96,47.59L107.21,46.65L107.99,44.2L108.12,46.13L108.14,46.54L109.46,62.42L110.4,69.85L110.6,71.04L110.72,67.47L110.77,65.98L112.14,46.53L112.66,44.82L112.9,44.17L113.02,45.99L113.04,46.32L115.33,69.97L115.35,70.07L115.5,71.01L115.61,68.11L115.66,66.57L116.85,47.28L117.17,46.09L117.81,44.18L117.92,45.97L117.94,46.22L119.38,63.42L120.21,69.83L120.41,71.02L120.5,68.44L120.55,67.06L121.79,47.14L122.15,45.84L122.71,44.17L122.83,46.01L122.85,46.37L125.14,69.97L125.16,70.08L125.32,71.01L125.44,67.67L125.49,66.17L126.76,46.95L127.18,45.5L127.62,44.22L127.74,46.09L127.76,46.35L129.26,63.99L130.03,69.83L130.22,71.03L130.37,66.82L130.42,65.41L131.7,46.76L132.16,45.2L132.53,44.17L132.64,45.99L132.66,46.32L134.99,70.19L135.01,70.29L135.13,71.01L135.23,68.14L135.29,66.59L136.44,47.43L136.73,46.35L137.43,44.18L137.56,46.19L137.59,46.56L138.9,62.39L139.78,69.47L140.03,71.03L140.13,68.43L140.17,67.22L141.53,46.71L142.01,45.11L142.34,44.17L142.46,45.99L142.48,46.32L144.82,70.29L144.84,70.38L144.94,71.01L145.07,67.57L145.12,66.09L146.27,47.34L146.58,46.19L147.25,44.18L147.37,46.07L147.4,46.53L149.73,70.33L149.74,70.42L149.85,71.04L149.96,67.96L150.01,66.43L151.35,46.67L151.84,45.05L152.15,44.17L152.27,46.01L152.29,46.38L154.58,69.97L154.6,70.08L154.76,71.01L154.85,68.39L154.89,67.15L156.25,46.69L156.74,45.07L157.06,44.17L157.17,45.86L157.18,46.13L159.66,71.01L159.73,69.21L159.75,68.56L161.21,46.52L161.73,44.81L161.97,44.17L162.08,45.95L162.1,46.2L163.54,63.4L164.37,69.82L164.57,71.02L164.66,68.6L164.7,67.49L165.91,47.29L166.23,46.11L166.87,44.17L166.99,45.97L167.01,46.29L169.4,70.57L169.42,70.67L169.48,71L169.6,67.41L169.66,65.92L170.87,47.08L171.25,45.74L171.78,44.17L171.9,45.99L171.92,46.35L174.26,70.3L174.28,70.39L174.38,71.01L174.5,67.9L174.55,66.36L175.93,46.52L176.44,44.84L176.69,44.17L176.8,46L176.82,46.33L179.15,70.2L179.17,70.3L179.29,71.01L179.4,68.09L179.44,66.67L180.79,46.69L181.28,45.06L181.59,44.17L181.71,46.07L181.75,46.56L183.06,62.42L184,69.84L184.19,71.04L184.32,67.45L184.37,65.96L185.75,46.5L186.28,44.77L186.5,44.17L186.61,45.84L186.62,46.11L189.1,71.01L189.19,68.78L189.22,67.9L190.38,47.53L190.64,46.52L191.41,44.17L191.53,46.05L191.56,46.49L192.82,61.9L193.77,69.54L194.01,71.03L194.13,67.82L194.18,66.25L195.55,46.54L196.07,44.83L196.31,44.17L196.43,45.98L196.45,46.26L198.1,65.21L198.72,69.81L198.92,71L199.03,68L199.08,66.38L200.43,46.62L200.93,44.97L201.22,44.17L201.33,45.96L201.35,46.21L203.82,71.02L203.85,70.43L203.85,70.4L205.32,46.7L205.81,45.08L206.13,44.19L206.24,45.92L206.25,46.16L208.73,71.04L208.77,70.1L208.77,70.06L210.26,46.57L210.78,44.87L211.03,44.17L211.15,46L211.17,46.29L212.93,66.12L213.44,69.81L213.64,71L213.77,67.16L213.82,65.72L215.16,46.6L215.67,44.94L215.94,44.18L216.05,45.89L216.07,46.16L217.36,61.96L218.18,68.71L218.54,71.02L218.67,67.32L218.72,65.88L219.87,47.34L220.18,46.19L220.85,44.17L220.96,45.99L220.98,46.28L223.45,71L223.5,69.87L223.5,69.76L224.92,46.79L225.37,45.25L225.75,44.17L225.87,46.04L225.9,46.39L227.06,60.9L227.92,68.2L228.35,71.02L228.5,67.11L228.54,65.66L229.83,46.76L230.3,45.2L230.66,44.17L230.78,46.05L230.81,46.53L233.23,70.89L233.24,70.93L233.35,68.64L233.39,67.43L234.76,46.7L235.24,45.1L235.57,44.18L235.68,45.98L235.7,46.24L237.19,63.82L237.97,69.82L238.17,71.02L238.28,68.04L238.33,66.5L239.54,47.17L239.9,45.89L240.47,44.18L240.6,46.1L240.61,46.36L243.08,71.01L243.12,70.11L243.12,70.08L243.85,50.64L243.89,50.12L244.58,46.69L245.06,45.07L245.5,41.73L245.52,41.28L247.86,9.78L247.88,9.66L247.98,8.83L248.14,12.68L248.2,14.3L249.37,28.25L249.89,29.97L250.29,31.02L250.4,29.27L250.42,28.97L251.93,10.96L252.69,5.13L252.89,3.92L253.01,7.3L253.06,8.87L254.27,27.67L254.64,28.99L255.19,30.62L255.31,28.75L255.33,28.41L257.72,4.2L257.74,4.1L257.8,3.77L257.92,7.3L257.97,8.84L259.32,28.18L259.82,29.85L260.1,30.61L260.21,28.93L260.22,28.68L262.06,8.12L262.51,4.98L262.7,3.78L262.83,7.46L262.88,8.93L264.09,27.68L264.46,29L265.01,30.61L265.12,28.87L265.13,28.61L267.61,3.76L267.62,3.97L267.63,4.03L269.09,28.03L269.56,29.61L269.91,30.61L270.03,28.84L270.04,28.58L272.51,3.77L272.51,3.77L272.52,3.77L274,28.03L274.47,29.61L274.82,30.61L274.93,28.8L274.96,28.37L277.39,3.91L277.4,3.88L277.53,6.61L277.58,8.17L278.93,28.1L279.41,29.72L279.72,30.6L279.84,28.74L279.87,28.35L282.17,4.69L282.19,4.57L282.33,3.75L282.46,7.48L282.51,8.91L283.69,27.57L284.03,28.81L284.63,30.61L284.75,28.82L284.76,28.55L287.23,3.77L287.31,5.7L287.33,6.4L288.59,27.57L288.94,28.82L289.54,30.61L289.65,28.83L289.67,28.59L291.03,12.14L291.93,5.06L292.14,3.75L292.27,7.39L292.32,8.91L293.5,27.55L293.84,28.78L294.45,30.61L294.57,28.69L294.59,28.39L296.37,8.4L296.85,4.98L297.05,3.78L297.16,6.97L297.22,8.49L298.54,28.06L299.02,29.66L299.35,30.59L299.46,28.85L299.48,28.59L301.95,3.75L301.98,4.3L301.99,4.32L302.74,24.22L302.76,24.52L303.76,29.14L304.21,30.49L304.41,28.18L304.46,27.55L305.82,11.5L306.67,4.95L306.86,3.76L306.99,7.33L307.04,8.81L308.37,28.12L308.86,29.75L309.17,30.61L309.27,28.95L309.29,28.69L311.25,7.18L311.57,4.97L311.77,3.77L311.87,6.54L311.92,8.02L313.34,28.32L313.88,30.09L314.07,30.6L314.18,28.85L314.2,28.58L315.75,10.51L316.48,4.96L316.68,3.77L316.8,7.17L316.85,8.65L317.96,27.27L318.23,28.3L318.98,30.6L319.09,28.87L319.11,28.57L320.65,10.51L321.39,4.96L321.58,3.77L321.71,7.4L321.76,8.88L323.2,28.52L323.8,30.4L323.89,30.61L323.99,29.04L324.01,28.72L325.3,12.87L326.25,5.21L326.49,3.75L326.6,6.78L326.65,8.37L327.9,27.74L328.28,29.11L328.79,30.6L328.91,28.8L328.92,28.56L331.4,3.76L331.44,4.91L331.45,5.05L332.19,24.38L332.22,24.79L333.29,29.42L333.65,30.48L333.88,27.82L333.92,27.21L335.76,7.34L336.11,4.96L336.3,3.77L336.42,6.93L336.47,8.45L337.66,27.57L338.01,28.81L338.61,30.6L338.73,28.65L338.76,28.22L340.12,11.91L341.01,4.94L341.21,3.75L341.31,6.55L341.36,8.12L342.82,28.47L343.41,30.32L343.51,30.59L343.63,28.83L343.64,28.59L346.12,3.75L346.16,4.86L346.17,4.96L347.62,28.12L348.12,29.76L348.42,30.6L348.53,28.82L348.55,28.56L350.96,4.1L350.98,3.98L351.02,3.77L351.13,6.84L351.18,8.31L352.52,28.09L353,29.71L353.33,30.61L353.44,28.76L353.46,28.48L355.79,4.59L355.81,4.49L355.93,3.78L356.04,6.91L356.09,8.47L357.55,28.52L358.15,30.41L358.23,30.61L358.34,28.85L358.36,28.6L360.83,3.76L360.85,4L360.86,4.08L361.61,24.18L361.63,24.47L362.52,28.75L363.09,30.49L363.27,28.63L363.29,28.24L365.65,4.27L365.67,4.18L365.74,3.74L365.87,7.41L365.92,8.85L367.29,28.27L367.82,29.99L368.05,30.6L368.16,28.85L368.17,28.6L370.61,3.99L370.62,3.93L370.65,3.78L370.73,6.08L370.77,7.11L372.17,28.11L372.67,29.76L372.95,30.56L373.07,28.72L373.09,28.44L375.55,3.76L375.55,3.76L375.56,3.76L377.12,28.33L377.67,30.09L377.86,30.61L377.97,28.82L377.99,28.58L379.35,12.13L380.24,5.15L380.46,3.76L380.58,6.88L380.63,8.47L381.94,28.02L382.4,29.59L382.77,30.61L382.88,28.8L382.91,28.36L385.33,3.98L385.34,3.92L385.37,3.77L385.49,7.03L385.54,8.52L386.9,28.18L387.42,29.87L387.67,30.58L387.78,28.87L387.8,28.62L390.24,3.98L390.25,3.92L390.28,3.77L390.39,6.81L390.44,8.36L391.85,28.39L392.41,30.16L392.58,30.61L392.7,28.8L392.72,28.49L394.5,8.48L394.99,4.97L395.18,3.78L395.33,7.96L395.38,9.43L396.66,28.01L397.12,29.58L397.49,30.61L397.6,28.82L397.62,28.57L399.09,11.11L399.89,4.96L400.09,3.76L400.18,6.12L400.22,7.3L401.34,27.15L401.59,28.08L402.39,30.6L402.51,28.72L402.53,28.42L405,3.78L405.05,5.25L405.06,5.56L406.57,28.37L407.13,30.16L407.3,30.61L407.41,28.93L407.42,28.67L409.28,7.98L409.71,4.98L409.9,3.78L410.02,6.91L410.07,8.5L411.4,28.08L411.88,29.69L412.21,30.61L412.32,28.83L412.34,28.59L413.71,12.06L414.61,5L414.81,3.75L414.93,7.23L414.98,8.71L416.3,28.05L416.77,29.65L417.11,30.6L417.23,28.77L417.25,28.4L419.58,4.58L419.6,4.48L419.72,3.77L419.85,7.49L419.9,8.92L421.11,27.7L421.49,29.05L422.02,30.61L422.14,28.74L422.16,28.49L423.69,10.54L424.43,4.96L424.62,3.77L424.73,6.67L424.78,8.25L426.19,28.32L426.73,30.09L426.93,30.6L427.04,28.88L427.05,28.63L429.53,3.75L429.56,4.28L429.56,4.34L430.31,24.22L430.35,24.76L431.4,29.36L431.79,30.5L432.03,27.5L432.08,26.82L434.43,3.76L434.44,3.87L434.45,3.88L435.87,27.85L436.28,29.29L436.74,30.61L436.86,28.68L436.88,28.38L438.66,8.45L439.15,4.98L439.34,3.78L439.48,7.55L439.53,8.99L440.82,28.02L441.29,29.59L441.65,30.6L441.76,28.88L441.77,28.64L444.25,3.78L444.26,3.99L444.27,4.06L445.74,28.07L446.22,29.68L446.55,30.61L446.66,28.94L446.67,28.71L449.16,3.78L449.17,4.01L449.17,4.08L450.66,28.12L451.15,29.76L451.46,30.61L451.58,28.79L451.6,28.44L453.94,4.48L453.96,4.39L454.06,3.77L454.17,6.86L454.22,8.37L455.73,28.7L456.32,30.5L456.53,28.05L456.57,27.4L458.97,3.77L458.99,4.14L459,4.3L459.74,23.98L459.76,24.38L460.78,29.14L461.23,30.48L461.46,27.62L461.51,26.96L462.74,12.32L463.68,4.93L463.88,3.74L463.98,6.64L464.03,8.21L465.38,28.09L465.86,29.71L466.18,30.6L466.3,28.75L466.32,28.46L468.61,4.82L468.63,4.71L468.78,3.77L468.92,7.76L468.97,9.19L470.44,28.65L471.04,30.5L471.23,28.32L471.27,27.79L473.19,7.04L473.49,4.97L473.69,3.78L473.78,6.32L473.83,7.61L474.95,27.18L475.2,28.13L475.99,30.61L476.11,28.81L476.12,28.57L478.59,3.75L478.65,5.22L478.66,5.54L480.06,27.94L480.5,29.47L480.9,30.6L481.01,28.85L481.03,28.54L483.5,3.77L483.54,4.72L483.55,4.75L484.28,24.12L484.31,24.66L485.5,29.75L485.76,30.5L486,27.63L486.05,26.89L487.34,11.71L488.21,4.95L488.41,3.76L488.51,6.51L488.56,8L489.79,27.64L490.15,28.93L492.22,33.55L493.12,34.66L495.9,36.44L496.22,36.55L501.12,37.26L501.77,37.29L533.66,37.39L534.83,37.39L736,37.39" style="vector-effect: non-scaling-stroke; fill: none; stroke: rgb(171, 99, 250); stroke-opacity: 1; stroke-width: 2px; opacity: 1;"/></g><g class="points"/><g class="text"/></g></g></g><g class="overplot"/><path class="xlines-above crisp" d="M0,0" style="fill: none;"/><path class="ylines-above crisp" d="M0,0" style="fill: none;"/><g class="overlines-above"/><g class="xaxislayer-above"><g class="x4tick"><text text-anchor="middle" x="0" y="430.69599999999997" transform="translate(64,0)" style="font-family: Arial; font-size: 12px; fill: rgb(0, 0, 0); fill-opacity: 1; white-space: pre; opacity: 1;">0.00s</text></g><g class="x4tick"><text text-anchor="middle" x="0" y="430.69599999999997" style="font-family: Arial; font-size: 12px; fill: rgb(0, 0, 0); fill-opacity: 1; white-space: pre; opacity: 1;" transform="translate(162.13,0)">2.00ms</text></g><g class="x4tick"><text text-anchor="middle" x="0" y="430.69599999999997" style="font-family: Arial; font-size: 12px; fill: rgb(0, 0, 0); fill-opacity: 1; white-space: pre; opacity: 1;" transform="translate(260.27,0)">4.00ms</text></g><g class="x4tick"><text text-anchor="middle" x="0" y="430.69599999999997" style="font-family: Arial; font-size: 12px; fill: rgb(0, 0, 0); fill-opacity: 1; white-space: pre; opacity: 1;" transform="translate(358.4,0)">6.00ms</text></g><g class="x4tick"><text text-anchor="middle" x="0" y="430.69599999999997" style="font-family: Arial; font-size: 12px; fill: rgb(0, 0, 0); fill-opacity: 1; white-space: pre; opacity: 1;" transform="translate(456.53,0)">8.00ms</text></g><g class="x4tick"><text text-anchor="middle" x="0" y="430.69599999999997" style="font-family: Arial; font-size: 12px; fill: rgb(0, 0, 0); fill-opacity: 1; white-space: pre; opacity: 1;" transform="translate(554.6700000000001,0)">10.0ms</text></g><g class="x4tick"><text text-anchor="middle" x="0" y="430.69599999999997" style="font-family: Arial; font-size: 12px; fill: rgb(0, 0, 0); fill-opacity: 1; white-space: pre; opacity: 1;" transform="translate(652.8,0)">12.0ms</text></g><g class="x4tick"><text text-anchor="middle" x="0" y="430.69599999999997" style="font-family: Arial; font-size: 12px; fill: rgb(0, 0, 0); fill-opacity: 1; white-space: pre; opacity: 1;" transform="translate(750.93,0)">14.0ms</text></g></g><g class="yaxislayer-above"><g class="y4tick"><text text-anchor="end" x="63" y="4.199999999999999" transform="translate(0,408.062)" style="font-family: Arial; font-size: 12px; fill: rgb(0, 0, 0); fill-opacity: 1; white-space: pre; opacity: 1;">−2.00A</text></g><g class="y4tick"><text text-anchor="end" x="63" y="4.199999999999999" style="font-family: Arial; font-size: 12px; fill: rgb(0, 0, 0); fill-opacity: 1; white-space: pre; opacity: 1;" transform="translate(0,380.30199999999996)">0.00A</text></g><g class="y4tick"><text text-anchor="end" x="63" y="4.199999999999999" style="font-family: Arial; font-size: 12px; fill: rgb(0, 0, 0); fill-opacity: 1; white-space: pre; opacity: 1;" transform="translate(0,352.542)">2.00A</text></g></g><g class="overaxes-above"/></g><g class="subplot x5y5"><g class="layer-subplot"><g class="shapelayer"/><g class="imagelayer"/></g><g class="minor-gridlayer"><g class="x5"/><g class="y5"/></g><g class="gridlayer"><g class="x5"><path class="x5grid crisp" transform="translate(162.13,0)" d="M0,447.216v74.78399999999999" style="stroke: rgb(255, 255, 255); stroke-opacity: 1; stroke-width: 1px;"/><path class="x5grid crisp" transform="translate(260.27,0)" d="M0,447.216v74.78399999999999" style="stroke: rgb(255, 255, 255); stroke-opacity: 1; stroke-width: 1px;"/><path class="x5grid crisp" transform="translate(358.4,0)" d="M0,447.216v74.78399999999999" style="stroke: rgb(255, 255, 255); stroke-opacity: 1; stroke-width: 1px;"/><path class="x5grid crisp" transform="translate(456.53,0)" d="M0,447.216v74.78399999999999" style="stroke: rgb(255, 255, 255); stroke-opacity: 1; stroke-width: 1px;"/><path class="x5grid crisp" transform="translate(554.6700000000001,0)" d="M0,447.216v74.78399999999999" style="stroke: rgb(255, 255, 255); stroke-opacity: 1; stroke-width: 1px;"/><path class="x5grid crisp" transform="translate(652.8,0)" d="M0,447.216v74.78399999999999" style="stroke: rgb(255, 255, 255); stroke-opacity: 1; stroke-width: 1px;"/><path class="x5grid crisp" transform="translate(750.93,0)" d="M0,447.216v74.78399999999999" style="stroke: rgb(255, 255, 255); stroke-opacity: 1; stroke-width: 1px;"/></g><g class="y5"><path class="y5grid crisp" transform="translate(0,469.666)" d="M64,0h736" style="stroke: rgb(255, 255, 255); stroke-opacity: 1; stroke-width: 1px;"/></g></g><g class="zerolinelayer"><path class="x5zl zl crisp" transform="translate(64,0)" d="M0,447.216v74.78399999999999" style="stroke: rgb(255, 255, 255); stroke-opacity: 1; stroke-width: 2px;"/><path class="y5zl zl crisp" transform="translate(0,498.836)" d="M64,0h736" style="stroke: rgb(255, 255, 255); stroke-opacity: 1; stroke-width: 2px;"/></g><path class="xlines-below"/><path class="ylines-below"/><g class="overlines-below"/><g class="xaxislayer-below"/><g class="yaxislayer-below"/><g class="overaxes-below"/><g class="plot" transform="translate(64,447.216)" clip-path="url(#clipc02a43x5y5plot)"><g class="scatterlayer mlayer"><g class="trace scatter tracee6026b" style="stroke-miterlimit: 2; opacity: 1;"><g class="fills"/><g class="errorbars"/><g class="lines"><path class="js-line" d="M0,51.62L0.01,22.8L0.7,45.22L0.99,42.93L2.66,28.28L2.66,27.98L2.7,5.35L3.4,33.16L3.44,37.81L4.1,45.85L4.6,46.85L4.96,47.66L5.09,46.47L5.12,46.22L6.73,35.49L7.36,32.79L7.56,29.27L7.56,28.89L7.6,3.81L8.29,20.74L8.32,24.51L9.13,45.97L9.69,47.05L9.86,47.56L10,46.36L10.04,46.01L12.34,32.46L12.36,32.41L12.47,28.52L12.47,28.35L12.5,3.76L13.22,23.09L13.24,26.34L13.97,45.81L14.45,46.79L14.77,47.55L14.91,46.34L14.95,45.99L17.23,32.51L17.25,32.46L17.37,28.97L17.37,28.58L17.39,13.44L17.4,8.15L17.41,3.75L18.15,26.11L18.17,29.4L18.85,45.77L19.33,46.73L19.68,47.55L19.81,46.4L19.84,46.09L21.55,34.99L22.08,32.75L22.28,29.42L22.28,28.92L22.32,3.76L23.03,23.21L23.05,26.69L23.73,45.69L24.16,46.59L24.58,47.55L24.71,46.42L24.74,46.18L26.21,36.18L26.99,32.74L27.19,29.39L27.19,28.91L27.22,3.76L27.94,22.88L27.95,24.55L28.66,45.74L29.12,46.68L29.49,47.55L29.62,46.37L29.66,46.04L31.95,32.52L31.97,32.46L32.09,29.19L32.09,28.81L32.13,3.76L32.82,20.18L32.89,29.26L33.58,45.77L34.05,46.71L34.4,47.54L34.52,46.48L34.54,46.24L37,26.27L37,26.23L37.04,3.74L37.73,20.05L37.76,23.67L38.37,45.52L38.73,46.3L39.3,47.55L39.45,46.28L39.49,45.92L40.73,37.25L41.7,32.74L41.91,29.44L41.91,28.89L41.94,3.74L42.64,21.35L42.67,25.14L43.46,45.92L44,46.97L44.21,47.54L44.33,46.49L44.36,46.25L46.61,32.72L46.61,32.72L46.62,32.72L46.82,28.08L46.82,28.07L46.85,3.74L47.56,22.97L47.6,28.18L48.41,46.01L49,47.12L49.12,47.54L49.24,46.48L49.27,46.22L51.52,32.71L51.52,32.71L51.53,32.71L51.72,28.89L51.72,28.51L51.76,3.75L52.46,21.01L52.48,24.77L53.17,45.71L53.61,46.62L54.02,47.55L54.14,46.53L54.17,46.3L56.43,32.7L56.44,32.7L56.63,29.04L56.63,28.65L56.66,3.75L57.35,19.55L57.39,25.06L58.17,45.9L58.7,46.93L58.93,47.55L59.06,46.36L59.1,46.01L61.54,26.6L61.54,26.54L61.57,3.76L62.27,21.28L62.3,25.71L63.04,45.82L63.53,46.81L63.84,47.55L63.95,46.52L63.98,46.28L65.25,37.29L66.21,32.83L66.44,29.49L66.44,29.01L66.48,3.74L67.19,22.38L67.21,26.54L67.95,45.84L68.45,46.83L68.74,47.55L68.88,46.31L68.92,45.96L71.35,26.25L71.35,26.2L71.38,3.75L72.1,23.47L72.13,27.57L72.86,45.83L73.35,46.82L73.65,47.55L73.77,46.48L73.8,46.25L76.11,32.5L76.13,32.44L76.25,29.43L76.25,28.85L76.29,3.74L76.74,11.45L76.85,13.14L77.07,32L77.11,37.4L77.74,45.77L78.21,46.72L78.56,47.55L78.69,46.34L78.74,45.97L81.1,32.23L81.12,32.15L81.17,25.79L81.17,25.58L81.2,3.76L81.91,23.34L81.94,27.68L82.68,45.87L83.2,46.88L83.46,47.55L83.6,46.38L83.64,46.03L85.87,32.72L85.87,32.72L85.88,32.71L86.07,29.27L86.07,28.89L86.1,3.76L86.8,21.2L86.83,25.09L87.64,45.97L88.19,47.04L88.37,47.56L88.51,46.37L88.54,46.02L90.98,26.41L90.98,26.37L91.01,3.76L91.73,23.88L91.75,27.36L92.48,45.82L92.98,46.81L93.28,47.54L93.4,46.47L93.42,46.25L95.74,32.5L95.76,32.44L95.88,29.43L95.88,28.87L95.92,3.74L96.61,20.21L96.64,24.05L97.42,45.89L97.94,46.92L98.18,47.55L98.32,46.38L98.36,46.03L100.59,32.72L100.59,32.72L100.6,32.71L100.79,29.27L100.79,28.89L100.82,3.76L101.52,21.11L101.57,28.58L102.41,46.05L103.02,47.19L103.09,47.53L103.27,45.94L103.31,45.57L105.7,26.1L105.7,26.01L105.73,3.74L106.45,24.3L106.48,27.95L107.21,45.82L107.7,46.8L108,47.54L108.12,46.49L108.14,46.25L109.46,37.04L110.4,32.72L110.6,29.51L110.6,29.06L110.64,3.74L111.33,20.1L111.36,23.63L112.14,45.89L112.66,46.93L112.9,47.55L113.04,46.37L113.08,46.03L115.31,32.72L115.31,32.72L115.32,32.71L115.51,29.32L115.51,28.91L115.54,3.76L116.26,23.45L116.28,26.88L117.17,46.16L117.76,47.24L117.81,47.55L118.05,45.45L118.11,44.98L119.38,36.46L120.21,32.73L120.41,29.45L120.41,28.91L120.45,3.75L121.16,21.95L121.17,23.94L121.79,45.52L122.15,46.31L122.72,47.55L122.85,46.35L122.89,46L124.84,33.86L125.12,32.74L125.32,29.43L125.32,28.91L125.36,3.76L126.05,20.93L126.13,30.9L126.76,45.64L127.18,46.52L127.62,47.53L127.76,46.36L127.78,46.13L130.23,25.86L130.23,25.68L130.26,3.75L130.96,21.11L130.99,25.11L131.7,45.75L132.16,46.7L132.53,47.55L132.66,46.38L132.7,46.03L134.99,32.52L135.01,32.46L135.13,29.27L135.13,28.89L135.17,3.76L135.88,23.35L135.91,26.7L136.73,46.01L137.31,47.11L137.44,47.55L137.56,46.45L137.59,46.24L138.9,37.05L139.78,32.94L140.04,29.51L140.04,29.05L140.08,3.75L140.78,21.95L140.81,25.85L141.53,45.79L142.01,46.75L142.34,47.55L142.48,46.38L142.52,46.03L144.82,32.46L144.84,32.41L144.95,28.52L144.95,28.35L144.98,3.76L145.7,23.9L145.73,27.1L146.58,46.1L147.2,47.24L147.25,47.55L147.48,45.53L147.53,45.07L149.86,25.99L149.86,25.88L149.89,3.74L150.61,23.04L150.64,27.41L151.35,45.81L151.84,46.79L152.16,47.56L152.29,46.34L152.33,45.99L154.76,26.49L154.76,26.43L154.8,3.76L155.51,22.93L155.54,27.11L156.25,45.8L156.74,46.77L157.07,47.55L157.21,46.29L157.25,45.95L159.26,33.54L159.47,32.74L159.67,29.4L159.67,28.91L159.7,3.76L160.42,23.57L160.44,26.83L161.21,45.9L161.73,46.93L161.97,47.56L162.1,46.45L162.12,46.21L164.51,32.23L164.53,32.15L164.58,25.75L164.58,25.57L164.61,3.76L165.32,22.51L165.35,26.49L165.91,45.44L166.23,46.15L166.88,47.56L167.01,46.4L167.05,46.05L169.34,32.52L169.36,32.47L169.48,28.78L169.48,28.58L169.52,3.77L170.21,20.69L170.24,24.59L170.87,45.56L171.25,46.37L171.78,47.56L171.92,46.36L171.96,46.01L173.87,34.03L174.19,32.74L174.39,29.35L174.39,28.91L174.42,3.76L175.13,21.78L175.16,26.4L175.93,45.9L176.44,46.91L176.69,47.55L176.82,46.37L176.86,46.02L179.09,32.74L179.09,32.74L179.1,32.74L179.3,28.1L179.3,28.09L179.33,3.76L180.05,23.91L180.08,28.37L180.79,45.8L181.28,46.78L181.6,47.55L181.71,46.52L181.75,46.24L183.06,37.03L184,32.73L184.2,29.1L184.2,28.72L184.24,3.75L184.95,22.62L184.98,26.83L185.75,45.91L186.28,46.96L186.51,47.55L186.62,46.5L186.65,46.31L187.84,37.75L188.62,33.89L189.11,29.25L189.11,28.88L189.14,3.76L189.86,23.11L189.89,27.31L190.64,45.9L191.17,46.93L191.41,47.56L191.53,46.53L191.56,46.28L192.82,37.34L193.77,32.9L194.01,28.71L194.01,28.51L194.05,3.75L194.56,12.39L194.61,13.16L194.82,31.49L194.87,37.16L195.55,45.89L196.07,46.92L196.32,47.55L196.45,46.41L196.48,46.13L198.1,35.42L198.72,32.75L198.92,29.44L198.92,28.91L198.96,3.76L199.66,21.43L199.69,25.75L200.43,45.84L200.93,46.84L201.22,47.55L201.35,46.44L201.38,46.2L203.69,32.51L203.7,32.46L203.83,29.4L203.83,28.91L203.86,3.76L204.58,23.74L204.59,25.73L205.32,45.79L205.81,46.77L206.13,47.55L206.25,46.47L206.28,46.24L208.67,32.22L208.69,32.14L208.74,25.74L208.74,25.56L208.77,3.74L209.49,24.17L209.52,28.67L210.26,45.87L210.78,46.89L211.04,47.55L211.17,46.39L211.2,46.08L213.5,32.52L213.52,32.47L213.64,28.92L213.64,28.53L213.68,3.76L214.39,23.12L214.41,26.58L215.16,45.85L215.67,46.86L215.94,47.55L216.07,46.47L216.09,46.26L218.5,32.15L218.51,32.1L218.55,25.84L218.55,25.66L218.58,3.76L219.3,23.36L219.31,24.66L220.18,46.1L220.8,47.25L220.85,47.55L221.06,45.74L221.11,45.3L222.7,35.07L223.25,32.75L223.45,29.41L223.45,28.92L223.49,3.76L224.17,17.31L224.21,23.55L224.92,45.74L225.37,46.66L225.76,47.56L225.9,46.34L225.93,46L228.36,26.48L228.36,26.42L228.4,3.76L229.11,23.21L229.14,26.97L229.83,45.75L230.3,46.7L230.66,47.56L230.78,46.53L230.81,46.25L233.27,25.75L233.27,25.57L233.3,3.74L234.02,23.26L234.04,26.57L234.76,45.79L235.24,46.76L235.57,47.55L235.7,46.42L235.72,46.19L238.18,26.4L238.18,26.35L238.21,3.76L238.92,22.56L238.94,25.37L239.54,45.51L239.9,46.28L240.48,47.55L240.61,46.35L240.64,46.12L243.09,25.66L243.09,25.42L243.12,3.76L243.82,21.99L243.85,26.25L244.58,45.8L245.06,46.77L245.35,47.25L245.37,46.06L245.37,45.77L245.38,34.26L245.38,29.9L245.39,18.88L246.03,25.79L246.24,27.75L247.98,44.95L247.98,47.78L247.99,68.07L248.73,58.31L248.74,58.28L250.28,52.7L250.28,52.68L250.3,26.5L250.87,31.26L251.06,32.65L252.89,46.87L252.89,48.55L252.9,70.94L253.63,59.52L253.65,59.24L254.64,56.31L255.15,55.41L255.19,51.39L255.19,50.05L255.21,26.73L255.86,32.01L256.07,33.51L257.79,46.62L257.79,47.87L257.81,71.03L258.54,59.53L258.56,59.31L259.32,56.79L259.82,55.8L260.09,54.19L260.1,53.9L260.11,26.74L260.75,31.92L260.97,33.45L262.7,46.63L262.7,47.9L262.71,71.02L263.43,59.63L263.46,59.37L264.09,57.08L264.46,56.3L265,53.9L265,53.48L265.02,26.73L265.75,32.59L266.02,34.45L267.61,46.61L267.61,47.85L267.62,71.03L268.35,59.5L268.38,59.23L269.09,56.87L269.56,55.94L269.91,53.9L269.91,53.48L269.93,26.74L270.49,31.39L270.67,32.7L272.51,46.62L272.51,47.86L272.52,71.03L273.25,59.6L273.28,59.31L274,56.87L274.47,55.94L274.82,53.9L274.82,53.48L274.83,26.74L275.48,32.03L275.71,33.61L277.42,46.62L277.42,47.86L277.43,71.03L278.17,59.44L278.19,59.23L278.93,56.83L279.41,55.88L279.72,53.91L279.72,53.48L279.74,26.74L280.4,32.12L280.63,33.71L282.33,46.61L282.33,47.83L282.34,71.04L283.08,59.41L283.1,59.23L284.03,56.42L284.59,55.42L284.63,51.92L284.63,51.26L284.65,26.74L285.23,31.5L285.41,32.84L287.23,46.62L287.23,47.88L287.25,71.03L287.98,59.51L288,59.23L288.94,56.41L289.49,55.42L289.54,52.22L289.54,51.92L289.55,26.74L290.26,32.4L290.52,34.24L292.14,46.61L292.14,47.83L292.15,71.04L292.87,59.66L292.9,59.39L293.84,56.43L294.4,55.42L294.44,52.22L294.44,51.93L294.46,26.73L295.09,31.87L295.3,33.37L297.05,46.63L297.05,47.91L297.06,71.02L297.77,59.8L297.81,59.37L298.54,56.86L299.02,55.91L299.35,54.2L299.35,53.91L299.37,26.75L300.1,32.6L300.37,34.45L301.95,46.61L301.95,47.83L301.96,71.04L302.68,59.73L302.72,59.33L303.76,56.22L304.21,55.42L304.26,52.36L304.26,52.18L304.28,26.74L305,32.59L305.27,34.43L306.86,46.61L306.86,47.83L306.87,71.03L307.61,59.45L307.64,59.18L308.37,56.82L308.86,55.86L309.16,53.9L309.16,53.48L309.18,26.74L309.83,32.03L310.05,33.57L311.77,46.63L311.77,47.88L311.78,71.02L312.52,59.4L312.54,59.21L313.34,56.7L313.88,55.66L314.07,54.2L314.07,53.91L314.09,26.74L314.66,31.46L314.84,32.75L316.67,46.62L316.67,47.86L316.68,71.03L317.42,59.47L317.44,59.26L318.23,56.72L318.78,55.68L318.98,53.9L318.98,53.48L318.99,26.74L319.57,31.48L319.76,32.86L321.58,46.62L321.58,47.87L321.59,71.03L322.32,59.59L322.34,59.31L323.2,56.58L323.8,55.48L323.88,53.9L323.88,53.48L323.9,26.73L324.59,32.28L324.82,33.93L326.49,46.55L326.49,47.7L326.5,71.04L327.23,59.55L327.25,59.27L328.28,56.24L328.75,55.42L328.79,51.89L328.79,51.17L328.81,26.74L329.52,32.51L329.8,34.4L331.39,46.61L331.39,47.83L331.41,71.04L332.13,59.63L332.16,59.3L332.86,56.93L333.29,56.05L333.7,53.91L333.7,53.48L333.71,26.75L334.35,31.94L334.56,33.43L336.3,46.62L336.3,47.86L336.31,71.03L337.02,59.8L337.06,59.38L338.01,56.42L338.56,55.42L338.6,52.38L338.6,52.2L338.62,26.74L339.33,32.47L339.59,34.27L341.21,46.61L341.21,47.84L341.22,71.04L341.95,59.55L341.97,59.33L342.82,56.62L343.41,55.52L343.51,53.91L343.51,53.49L343.53,26.75L344.24,32.46L344.5,34.27L346.11,46.6L346.11,47.81L346.12,71.04L346.85,59.61L346.87,59.33L347.62,56.82L348.12,55.86L348.42,53.9L348.42,53.48L348.43,26.74L349,31.43L349.19,32.76L351.02,46.62L351.02,47.86L351.03,71.03L351.76,59.57L351.78,59.3L352.52,56.84L353,55.89L353.32,53.9L353.32,53.48L353.34,26.74L353.94,31.63L354.13,33.04L355.93,46.63L355.93,47.89L355.94,71.02L356.67,59.52L356.7,59.25L357.55,56.58L358.15,55.47L358.23,53.9L358.23,53.48L358.25,26.74L358.98,32.64L359.26,34.51L360.83,46.03L360.83,46.62L360.84,71.03L361.58,59.54L361.59,59.41L362.52,56.45L363.09,55.42L363.14,52.37L363.14,52.19L363.15,26.74L363.85,32.37L364.11,34.13L365.74,46.55L365.74,47.7L365.75,71.04L366.46,59.78L366.5,59.38L367.29,56.73L367.82,55.72L368.04,54.19L368.04,53.9L368.06,26.74L368.69,31.88L368.89,33.33L370.65,46.63L370.65,47.91L370.66,71.02L371.38,59.72L371.45,58.99L372.17,56.83L372.67,55.85L372.95,53.93L372.95,53.49L372.97,26.76L373.56,31.6L373.75,33L375.55,46.61L375.55,47.84L375.56,71.03L376.29,59.66L376.31,59.39L377.12,56.7L377.67,55.66L377.86,53.9L377.86,53.48L377.87,26.74L378.58,32.4L378.85,34.26L380.46,46.61L380.46,47.83L380.47,71.04L381.2,59.58L381.23,59.29L381.94,56.88L382.4,55.96L382.76,53.9L382.76,53.48L382.78,26.74L383.43,32.04L383.66,33.64L385.37,46.62L385.37,47.86L385.38,71.03L386.09,59.83L386.13,59.4L386.9,56.79L387.42,55.79L387.67,53.92L387.67,53.49L387.69,26.76L388.31,31.84L388.52,33.3L390.27,46.62L390.27,47.87L390.29,71.03L391.01,59.63L391.05,59.17L391.85,56.66L392.41,55.62L392.58,53.9L392.58,53.48L392.59,26.74L393.21,31.78L393.41,33.23L395.18,46.63L395.18,47.9L395.19,71.02L395.93,59.48L395.95,59.21L397.12,55.96L397.44,55.42L397.48,52.38L397.48,52.22L397.5,26.74L398.06,31.36L398.24,32.66L400.09,46.62L400.09,47.86L400.1,71.03L400.84,59.43L400.85,59.29L401.59,56.84L402.07,55.89L402.39,53.9L402.39,53.48L402.41,26.74L403.03,31.81L403.23,33.28L404.99,46.63L404.99,47.89L405,71.02L405.74,59.5L405.75,59.34L406.57,56.67L407.13,55.62L407.3,53.9L407.3,53.48L407.31,26.74L407.95,31.95L408.17,33.49L409.9,46.63L409.9,47.9L409.91,71.02L410.63,59.63L410.66,59.36L411.4,56.85L411.88,55.9L412.2,53.9L412.2,53.48L412.22,26.74L412.92,32.42L413.19,34.26L414.81,46.61L414.81,47.83L414.82,71.04L415.56,59.44L415.59,59.11L416.77,55.92L417.07,55.42L417.11,51.89L417.11,51.18L417.13,26.74L417.77,32L417.99,33.53L419.71,46.62L419.71,47.86L419.72,71.03L420.46,59.52L420.47,59.41L421.11,57.07L421.49,56.27L422.02,53.9L422.02,53.48L422.03,26.74L422.61,31.47L422.79,32.77L424.62,46.62L424.62,47.87L424.63,71.03L425.36,59.53L425.38,59.34L426.19,56.7L426.73,55.66L426.92,54.19L426.92,53.9L426.94,26.74L427.66,32.51L427.92,34.3L429.53,46.61L429.53,47.82L429.54,71.04L430.28,59.4L430.31,59.11L431.4,56.09L431.79,55.42L431.83,51.91L431.83,51.23L431.85,26.74L432.41,31.39L432.59,32.7L434.43,46.62L434.43,47.86L434.44,71.03L435.17,59.57L435.2,59.29L435.87,56.98L436.28,56.13L436.74,53.9L436.74,53.48L436.75,26.74L437.38,31.87L437.6,33.38L439.34,46.63L439.34,47.91L439.35,71.02L440.07,59.73L440.1,59.35L440.82,56.88L441.29,55.96L441.64,53.91L441.64,53.48L441.66,26.74L442.28,31.78L442.47,33.19L444.25,46.63L444.25,47.89L444.26,71.02L444.99,59.47L445.02,59.19L445.74,56.85L446.22,55.9L446.55,54.19L446.55,53.9L446.57,26.74L447.17,31.66L447.36,33.06L449.15,46.63L449.15,47.9L449.16,71.02L449.88,59.66L449.91,59.39L450.66,56.82L451.15,55.85L451.45,54.19L451.46,53.9L451.47,26.74L452.11,31.94L452.32,33.44L454.06,46.62L454.06,47.88L454.07,71.03L454.81,59.44L454.82,59.3L455.73,56.48L456.32,55.42L456.36,52.22L456.36,51.92L456.38,26.74L456.97,31.55L457.16,32.94L458.97,46.63L458.97,47.89L458.98,71.02L459.71,59.49L459.74,59.25L460.38,57.04L460.78,56.22L461.27,53.91L461.27,53.49L461.29,26.75L461.99,32.39L462.24,34.12L463.87,46.55L463.87,47.69L463.88,71.04L464.62,59.54L464.63,59.35L465.38,56.84L465.86,55.89L466.18,53.91L466.18,53.48L466.2,26.74L466.79,31.65L466.99,33.07L468.78,46.62L468.78,47.88L468.79,71.03L469.53,59.44L469.54,59.33L470.44,56.51L471.04,55.42L471.08,52.22L471.08,51.93L471.1,26.74L471.76,32.1L471.99,33.69L473.69,46.63L473.69,47.89L473.7,71.02L474.44,59.45L474.46,59.17L475.2,56.81L475.69,55.85L475.99,54.19L475.99,53.9L476.01,26.74L476.72,32.45L476.99,34.33L478.59,46.61L478.59,47.83L478.61,71.04L479.32,59.75L479.35,59.37L480.06,56.93L480.5,56.03L480.9,53.91L480.9,53.48L480.92,26.74L481.51,31.6L481.7,32.98L483.5,46.62L483.5,47.88L483.51,71.03L484.25,59.45L484.28,59.17L485.01,56.82L485.5,55.86L485.8,53.9L485.8,53.48L485.82,26.74L486.53,32.48L486.82,34.4L488.41,46.61L488.41,47.84L488.42,71.03L489.16,59.4L489.18,59.22L490.15,56.34L490.67,55.43L491.68,54.29L492.22,53.79L495.73,52.15L495.9,52.11L501.77,51.62L502.93,51.6L736,51.56" style="vector-effect: non-scaling-stroke; fill: none; stroke: rgb(255, 161, 90); stroke-opacity: 1; stroke-width: 2px; opacity: 1;"/></g><g class="points"/><g class="text"/></g></g></g><g class="overplot"/><path class="xlines-above crisp" d="M0,0" style="fill: none;"/><path class="ylines-above crisp" d="M0,0" style="fill: none;"/><g class="overlines-above"/><g class="xaxislayer-above"><g class="x5tick"><text text-anchor="middle" x="0" y="535" transform="translate(64,0)" style="font-family: Arial; font-size: 12px; fill: rgb(0, 0, 0); fill-opacity: 1; white-space: pre; opacity: 1;">0.00s</text></g><g class="x5tick"><text text-anchor="middle" x="0" y="535" style="font-family: Arial; font-size: 12px; fill: rgb(0, 0, 0); fill-opacity: 1; white-space: pre; opacity: 1;" transform="translate(162.13,0)">2.00ms</text></g><g class="x5tick"><text text-anchor="middle" x="0" y="535" style="font-family: Arial; font-size: 12px; fill: rgb(0, 0, 0); fill-opacity: 1; white-space: pre; opacity: 1;" transform="translate(260.27,0)">4.00ms</text></g><g class="x5tick"><text text-anchor="middle" x="0" y="535" style="font-family: Arial; font-size: 12px; fill: rgb(0, 0, 0); fill-opacity: 1; white-space: pre; opacity: 1;" transform="translate(358.4,0)">6.00ms</text></g><g class="x5tick"><text text-anchor="middle" x="0" y="535" style="font-family: Arial; font-size: 12px; fill: rgb(0, 0, 0); fill-opacity: 1; white-space: pre; opacity: 1;" transform="translate(456.53,0)">8.00ms</text></g><g class="x5tick"><text text-anchor="middle" x="0" y="535" style="font-family: Arial; font-size: 12px; fill: rgb(0, 0, 0); fill-opacity: 1; white-space: pre; opacity: 1;" transform="translate(554.6700000000001,0)">10.0ms</text></g><g class="x5tick"><text text-anchor="middle" x="0" y="535" style="font-family: Arial; font-size: 12px; fill: rgb(0, 0, 0); fill-opacity: 1; white-space: pre; opacity: 1;" transform="translate(652.8,0)">12.0ms</text></g><g class="x5tick"><text text-anchor="middle" x="0" y="535" style="font-family: Arial; font-size: 12px; fill: rgb(0, 0, 0); fill-opacity: 1; white-space: pre; opacity: 1;" transform="translate(750.93,0)">14.0ms</text></g></g><g class="yaxislayer-above"><g class="y5tick"><text text-anchor="end" x="63" y="4.199999999999999" transform="translate(0,498.836)" style="font-family: Arial; font-size: 12px; fill: rgb(0, 0, 0); fill-opacity: 1; white-space: pre; opacity: 1;">0.00V</text></g><g class="y5tick"><text text-anchor="end" x="63" y="4.199999999999999" style="font-family: Arial; font-size: 12px; fill: rgb(0, 0, 0); fill-opacity: 1; white-space: pre; opacity: 1;" transform="translate(0,469.666)">20.0V</text></g></g><g class="overaxes-above"/></g></g><g class="polarlayer"/><g class="smithlayer"/><g class="ternarylayer"/><g class="geolayer"/><g class="funnelarealayer"/><g class="pielayer"/><g class="iciclelayer"/><g class="treemaplayer"/><g class="sunburstlayer"/><g class="glimages"/><defs id="topdefs-c02a43"><g class="clips"/><clipPath id="legendc02a43"><rect width="512" height="29" x="0" y="0"/></clipPath></defs><g class="layer-above"><g class="imagelayer"/><g class="shapelayer"/></g><g class="infolayer"><g class="legend" pointer-events="all" transform="translate(71.36,595.8)"><rect class="bg" shape-rendering="crispEdges" style="stroke: rgb(68, 68, 68); stroke-opacity: 1; fill: rgb(255, 255, 255); fill-opacity: 1; stroke-width: 0px;" width="512" height="29" x="0" y="0"/><g class="scrollbox" transform="" clip-path="url(#legendc02a43)"><g class="groups"><g class="traces" transform="translate(0,14.5)" style="opacity: 1;"><text class="legendtext" text-anchor="start" x="40" y="4.680000000000001" style="font-family: Arial; font-size: 12px; fill: rgb(0, 0, 0); fill-opacity: 1; white-space: pre;">v(vbreak)</text><g class="layers" style="opacity: 1;"><g class="legendfill"/><g class="legendlines"><path class="js-line" d="M5,0h30" style="fill: none; stroke: rgb(99, 110, 250); stroke-opacity: 1; stroke-width: 2px;"/></g><g class="legendsymbols"><g class="legendpoints"/></g></g><rect class="legendtoggle" x="0" y="-9.5" width="93.515625" height="19" style="fill: rgb(0, 0, 0); fill-opacity: 0;"/></g><g class="traces" transform="translate(96.015625,14.5)" style="opacity: 1;"><text class="legendtext" text-anchor="start" x="40" y="4.680000000000001" style="font-family: Arial; font-size: 12px; fill: rgb(0, 0, 0); fill-opacity: 1; white-space: pre;">v(vdirection)</text><g class="layers" style="opacity: 1;"><g class="legendfill"/><g class="legendlines"><path class="js-line" d="M5,0h30" style="fill: none; stroke: rgb(239, 85, 59); stroke-opacity: 1; stroke-width: 2px;"/></g><g class="legendsymbols"><g class="legendpoints"/></g></g><rect class="legendtoggle" x="0" y="-9.5" width="108.859375" height="19" style="fill: rgb(0, 0, 0); fill-opacity: 0;"/></g><g class="traces" transform="translate(207.375,14.5)" style="opacity: 1;"><text class="legendtext" text-anchor="start" x="40" y="4.680000000000001" style="font-family: Arial; font-size: 12px; fill: rgb(0, 0, 0); fill-opacity: 1; white-space: pre;">v(venable)</text><g class="layers" style="opacity: 1;"><g class="legendfill"/><g class="legendlines"><path class="js-line" d="M5,0h30" style="fill: none; stroke: rgb(0, 204, 150); stroke-opacity: 1; stroke-width: 2px;"/></g><g class="legendsymbols"><g class="legendpoints"/></g></g><rect class="legendtoggle" x="0" y="-9.5" width="99.53125" height="19" style="fill: rgb(0, 0, 0); fill-opacity: 0;"/></g><g class="traces" transform="translate(309.40625,14.5)" style="opacity: 1;"><text class="legendtext" text-anchor="start" x="40" y="4.680000000000001" style="font-family: Arial; font-size: 12px; fill: rgb(0, 0, 0); fill-opacity: 1; white-space: pre;">i(l_motor)</text><g class="layers" style="opacity: 1;"><g class="legendfill"/><g class="legendlines"><path class="js-line" d="M5,0h30" style="fill: none; stroke: rgb(171, 99, 250); stroke-opacity: 1; stroke-width: 2px;"/></g><g class="legendsymbols"><g class="legendpoints"/></g></g><rect class="legendtoggle" x="0" y="-9.5" width="93.1875" height="19" style="fill: rgb(0, 0, 0); fill-opacity: 0;"/></g><g class="traces" transform="translate(405.09375,14.5)" style="opacity: 1;"><text class="legendtext" text-anchor="start" x="40" y="4.680000000000001" style="font-family: Arial; font-size: 12px; fill: rgb(0, 0, 0); fill-opacity: 1; white-space: pre;">v(ul_motor)</text><g class="layers" style="opacity: 1;"><g class="legendfill"/><g class="legendlines"><path class="js-line" d="M5,0h30" style="fill: none; stroke: rgb(255, 161, 90); stroke-opacity: 1; stroke-width: 2px;"/></g><g class="legendsymbols"><g class="legendpoints"/></g></g><rect class="legendtoggle" x="0" y="-9.5" width="104.1875" height="19" style="fill: rgb(0, 0, 0); fill-opacity: 0;"/></g></g></g><rect class="scrollbar" rx="20" ry="3" width="0" height="0" style="fill: rgb(128, 139, 164); fill-opacity: 1;" x="0" y="0"/></g><g class="g-gtitle"/><g class="g-xtitle"/><g class="g-x2title"/><g class="g-x3title"/><g class="g-x4title"/><g class="g-x5title"/><g class="g-ytitle" transform="translate(6.1611328125,0)"><text class="ytitle" transform="rotate(-90,6.840625000000003,67.392)" x="6.840625000000003" y="67.392" text-anchor="middle" style="font-family: Arial; font-size: 14px; fill: rgb(0, 0, 0); opacity: 1; font-weight: normal; white-space: pre;">v(vbreak)</text></g><g class="g-y2title" transform="translate(6.16796875,0)"><text class="y2title" transform="rotate(-90,6.840625000000003,171.69600000000003)" x="6.840625000000003" y="171.69600000000003" text-anchor="middle" style="font-family: Arial; font-size: 14px; fill: rgb(0, 0, 0); opacity: 1; font-weight: normal; white-space: pre;">v(vdirection)</text></g><g class="g-y3title" transform="translate(6.1591796875,0)"><text class="y3title" transform="rotate(-90,6.840625000000003,276)" x="6.840625000000003" y="276" text-anchor="middle" style="font-family: Arial; font-size: 14px; fill: rgb(0, 0, 0); opacity: 1; font-weight: normal; white-space: pre;">v(venable)</text></g><g class="g-y4title" transform="translate(13.181640625,0)"><text class="y4title" transform="rotate(-90,-0.17499999999999716,380.304)" x="-0.17499999999999716" y="380.304" text-anchor="middle" style="font-family: Arial; font-size: 14px; fill: rgb(0, 0, 0); opacity: 1; font-weight: normal; white-space: pre;">i(l_motor)</text></g><g class="g-y5title" transform="translate(6.173828125,0)"><text class="y5title" transform="rotate(-90,6.840625000000003,484.608)" x="6.840625000000003" y="484.608" text-anchor="middle" style="font-family: Arial; font-size: 14px; fill: rgb(0, 0, 0); opacity: 1; font-weight: normal; white-space: pre;">v(ul_motor)</text></g></g></svg>