<?xml version="1.0" encoding="utf-8" standalone="no"?>
<!DOCTYPE svg PUBLIC "-//W3C//DTD SVG 1.1//EN"
  "http://www.w3.org/Graphics/SVG/1.1/DTD/svg11.dtd">
<svg xmlns:xlink="http://www.w3.org/1999/xlink" width="395.376pt" height="234.36pt" viewBox="0 0 395.376 234.36" xmlns="http://www.w3.org/2000/svg" version="1.1">
 <metadata>
  <rdf:RDF xmlns:dc="http://purl.org/dc/elements/1.1/" xmlns:cc="http://creativecommons.org/ns#" xmlns:rdf="http://www.w3.org/1999/02/22-rdf-syntax-ns#">
   <cc:Work>
    <dc:type rdf:resource="http://purl.org/dc/dcmitype/StillImage"/>
    <dc:date>2025-04-09T23:53:13.899148</dc:date>
    <dc:format>image/svg+xml</dc:format>
    <dc:creator>
     <cc:Agent>
      <dc:title>Matplotlib v3.9.3, https://matplotlib.org/</dc:title>
     </cc:Agent>
    </dc:creator>
   </cc:Work>
  </rdf:RDF>
 </metadata>
 <defs>
  <style type="text/css">*{stroke-linejoin: round; stroke-linecap: butt}</style>
 </defs>
 <g id="figure_1">
  <g id="patch_1">
   <path d="M 0 234.36 
L 395.376 234.36 
L 395.376 0 
L 0 0 
z
" style="fill: #ffffff"/>
  </g>
  <g id="axes_1">
   <g id="patch_2">
    <path d="M 65.388 40.5 
C 66.533677 40.5 67.632585 40.044818 68.442701 39.234701 
C 69.252818 38.424585 69.708 37.325677 69.708 36.18 
C 69.708 35.034323 69.252818 33.935415 68.442701 33.125299 
C 67.632585 32.315182 66.533677 31.86 65.388 31.86 
C 64.242323 31.86 63.143415 32.315182 62.333299 33.125299 
C 61.523182 33.935415 61.068 35.034323 61.068 36.18 
C 61.068 37.325677 61.523182 38.424585 62.333299 39.234701 
C 63.143415 40.044818 64.242323 40.5 65.388 40.5 
L 65.388 40.5 
z
" clip-path="url(#pec5b74ba3d)" style="fill: none; stroke: #000000; stroke-width: 2; stroke-linejoin: miter"/>
   </g>
   <g id="patch_3">
    <path d="M 65.388 94.5 
C 66.533677 94.5 67.632585 94.044818 68.442701 93.234701 
C 69.252818 92.424585 69.708 91.325677 69.708 90.18 
C 69.708 89.034323 69.252818 87.935415 68.442701 87.125299 
C 67.632585 86.315182 66.533677 85.86 65.388 85.86 
C 64.242323 85.86 63.143415 86.315182 62.333299 87.125299 
C 61.523182 87.935415 61.068 89.034323 61.068 90.18 
C 61.068 91.325677 61.523182 92.424585 62.333299 93.234701 
C 63.143415 94.044818 64.242323 94.5 65.388 94.5 
L 65.388 94.5 
z
" clip-path="url(#pec5b74ba3d)" style="fill: none; stroke: #000000; stroke-width: 2; stroke-linejoin: miter"/>
   </g>
   <g id="patch_4">
    <path d="M 137.388 162 
C 138.533677 162 139.632585 161.544818 140.442701 160.734701 
C 141.252818 159.924585 141.708 158.825677 141.708 157.68 
C 141.708 156.534323 141.252818 155.435415 140.442701 154.625299 
C 139.632585 153.815182 138.533677 153.36 137.388 153.36 
C 136.242323 153.36 135.143415 153.815182 134.333299 154.625299 
C 133.523182 155.435415 133.068 156.534323 133.068 157.68 
C 133.068 158.825677 133.523182 159.924585 134.333299 160.734701 
C 135.143415 161.544818 136.242323 162 137.388 162 
L 137.388 162 
z
" clip-path="url(#pec5b74ba3d)" style="fill: none; stroke: #000000; stroke-width: 2; stroke-linejoin: miter"/>
   </g>
   <g id="patch_5">
    <path d="M 209.388 216 
C 210.533677 216 211.632585 215.544818 212.442701 214.734701 
C 213.252818 213.924585 213.708 212.825677 213.708 211.68 
C 213.708 210.534323 213.252818 209.435415 212.442701 208.625299 
C 211.632585 207.815182 210.533677 207.36 209.388 207.36 
C 208.242323 207.36 207.143415 207.815182 206.333299 208.625299 
C 205.523182 209.435415 205.068 210.534323 205.068 211.68 
C 205.068 212.825677 205.523182 213.924585 206.333299 214.734701 
C 207.143415 215.544818 208.242323 216 209.388 216 
L 209.388 216 
z
" clip-path="url(#pec5b74ba3d)" style="fill: none; stroke: #000000; stroke-width: 2; stroke-linejoin: miter"/>
   </g>
   <g id="line2d_1">
    <path d="M 321.888 155.07 
L 341.430857 155.003878 
L 343.488 154.71 
L 345.545143 154.18102 
L 347.602286 153.416939 
L 349.659429 152.417755 
L 351.716571 151.183469 
L 353.773714 149.714082 
L 355.830857 148.009592 
L 358.402286 145.548367 
L 360.973714 142.719796 
L 363.545143 139.523878 
L 365.088 137.43 
L 365.088 137.43 
L 362.516571 134.013673 
L 359.945143 130.964694 
L 357.373714 128.283061 
L 354.802286 125.968776 
L 352.745143 124.381837 
L 350.688 123.03 
L 348.630857 121.913265 
L 346.573714 121.031633 
L 344.516571 120.385102 
L 342.459429 119.973673 
L 340.402286 119.797347 
L 339.888 119.79 
L 321.888 119.79 
L 321.888 119.79 
L 323.8752 121.95 
L 325.6032 124.11 
L 327.072 126.27 
L 328.2816 128.43 
L 329.232 130.59 
L 329.9232 132.75 
L 330.3552 134.91 
L 330.528 137.07 
L 330.4416 139.23 
L 330.096 141.39 
L 329.4912 143.55 
L 328.6272 145.71 
L 327.504 147.87 
L 326.1216 150.03 
L 324.48 152.19 
L 322.5792 154.35 
L 321.888 155.07 
L 321.888 155.07 
" clip-path="url(#pec5b74ba3d)" style="fill: none; stroke: #000000; stroke-width: 2; stroke-linecap: round"/>
   </g>
   <g id="line2d_2">
    <path d="M 309.288 146.43 
L 328.2816 146.43 
" clip-path="url(#pec5b74ba3d)" style="fill: none; stroke: #000000; stroke-width: 2; stroke-linecap: round"/>
   </g>
   <g id="line2d_3">
    <path d="M 309.288 128.43 
L 328.2816 128.43 
" clip-path="url(#pec5b74ba3d)" style="fill: none; stroke: #000000; stroke-width: 2; stroke-linecap: round"/>
   </g>
   <g id="line2d_4">
    <path d="M 365.088 137.43 
L 377.688 137.43 
" clip-path="url(#pec5b74ba3d)" style="fill: none; stroke: #000000; stroke-width: 2; stroke-linecap: round"/>
   </g>
   <g id="line2d_5">
    <path d="M 249.888 107.82 
L 269.430857 107.753878 
L 271.488 107.46 
L 273.545143 106.93102 
L 275.602286 106.166939 
L 277.659429 105.167755 
L 279.716571 103.933469 
L 281.773714 102.464082 
L 283.830857 100.759592 
L 286.402286 98.298367 
L 288.973714 95.469796 
L 291.545143 92.273878 
L 293.088 90.18 
L 293.088 90.18 
L 290.516571 86.763673 
L 287.945143 83.714694 
L 285.373714 81.033061 
L 282.802286 78.718776 
L 280.745143 77.131837 
L 278.688 75.78 
L 276.630857 74.663265 
L 274.573714 73.781633 
L 272.516571 73.135102 
L 270.459429 72.723673 
L 268.402286 72.547347 
L 267.888 72.54 
L 249.888 72.54 
L 249.888 72.54 
L 251.8752 74.7 
L 253.6032 76.86 
L 255.072 79.02 
L 256.2816 81.18 
L 257.232 83.34 
L 257.9232 85.5 
L 258.3552 87.66 
L 258.528 89.82 
L 258.4416 91.98 
L 258.096 94.14 
L 257.4912 96.3 
L 256.6272 98.46 
L 255.504 100.62 
L 254.1216 102.78 
L 252.48 104.94 
L 250.5792 107.1 
L 249.888 107.82 
L 249.888 107.82 
" clip-path="url(#pec5b74ba3d)" style="fill: none; stroke: #000000; stroke-width: 2; stroke-linecap: round"/>
   </g>
   <g id="line2d_6">
    <path d="M 237.288 99.18 
L 256.2816 99.18 
" clip-path="url(#pec5b74ba3d)" style="fill: none; stroke: #000000; stroke-width: 2; stroke-linecap: round"/>
   </g>
   <g id="line2d_7">
    <path d="M 237.288 81.18 
L 256.2816 81.18 
" clip-path="url(#pec5b74ba3d)" style="fill: none; stroke: #000000; stroke-width: 2; stroke-linecap: round"/>
   </g>
   <g id="line2d_8">
    <path d="M 293.088 90.18 
L 305.688 90.18 
" clip-path="url(#pec5b74ba3d)" style="fill: none; stroke: #000000; stroke-width: 2; stroke-linecap: round"/>
   </g>
   <g id="line2d_9">
    <path d="M 177.888 67.32 
L 197.430857 67.253878 
L 199.488 66.96 
L 201.545143 66.43102 
L 203.602286 65.666939 
L 205.659429 64.667755 
L 207.716571 63.433469 
L 209.773714 61.964082 
L 211.830857 60.259592 
L 214.402286 57.798367 
L 216.973714 54.969796 
L 219.545143 51.773878 
L 221.088 49.68 
L 221.088 49.68 
L 218.516571 46.263673 
L 215.945143 43.214694 
L 213.373714 40.533061 
L 210.802286 38.218776 
L 208.745143 36.631837 
L 206.688 35.28 
L 204.630857 34.163265 
L 202.573714 33.281633 
L 200.516571 32.635102 
L 198.459429 32.223673 
L 196.402286 32.047347 
L 195.888 32.04 
L 177.888 32.04 
L 177.888 32.04 
L 179.8752 34.2 
L 181.6032 36.36 
L 183.072 38.52 
L 184.2816 40.68 
L 185.232 42.84 
L 185.9232 45 
L 186.3552 47.16 
L 186.528 49.32 
L 186.4416 51.48 
L 186.096 53.64 
L 185.4912 55.8 
L 184.6272 57.96 
L 183.504 60.12 
L 182.1216 62.28 
L 180.48 64.44 
L 178.5792 66.6 
L 177.888 67.32 
L 177.888 67.32 
" clip-path="url(#pec5b74ba3d)" style="fill: none; stroke: #000000; stroke-width: 2; stroke-linecap: round"/>
   </g>
   <g id="line2d_10">
    <path d="M 165.288 58.68 
L 184.2816 58.68 
" clip-path="url(#pec5b74ba3d)" style="fill: none; stroke: #000000; stroke-width: 2; stroke-linecap: round"/>
   </g>
   <g id="line2d_11">
    <path d="M 165.288 40.68 
L 184.2816 40.68 
" clip-path="url(#pec5b74ba3d)" style="fill: none; stroke: #000000; stroke-width: 2; stroke-linecap: round"/>
   </g>
   <g id="line2d_12">
    <path d="M 221.088 49.68 
L 233.688 49.68 
" clip-path="url(#pec5b74ba3d)" style="fill: none; stroke: #000000; stroke-width: 2; stroke-linecap: round"/>
   </g>
   <g id="line2d_13">
    <path d="M 131.088 40.68 
L 132.241264 40.643017 
L 133.389789 40.53222 
L 134.528855 40.348065 
L 135.653783 40.091308 
L 136.759948 39.763003 
L 137.842806 39.364502 
L 138.897907 38.89744 
L 139.920916 38.363737 
L 140.907628 37.765586 
L 141.85399 37.105445 
L 142.756111 36.386027 
L 143.610286 35.610288 
L 144.413004 34.781416 
L 145.160967 33.902816 
L 145.851101 32.9781 
L 146.48057 32.011066 
L 147.046788 31.005689 
L 147.547427 29.9661 
L 147.980432 28.896571 
L 148.344021 27.801497 
L 148.636702 26.685377 
L 148.857272 25.552798 
L 149.004824 24.408414 
L 149.078752 23.256928 
L 149.078752 22.103072 
L 149.004824 20.951586 
L 148.857272 19.807202 
L 148.636702 18.674623 
L 148.344021 17.558503 
L 147.980432 16.463429 
L 147.547427 15.3939 
L 147.046788 14.354311 
L 146.48057 13.348934 
L 145.851101 12.3819 
L 145.160967 11.457184 
L 144.413004 10.578584 
L 143.610286 9.749712 
L 142.756111 8.973973 
L 141.85399 8.254555 
L 140.907628 7.594414 
L 139.920916 6.996263 
L 138.897907 6.46256 
L 137.842806 5.995498 
L 136.759948 5.596997 
L 135.653783 5.268692 
L 134.528855 5.011935 
L 133.389789 4.82778 
L 132.241264 4.716983 
L 131.088 4.68 
L 131.088 4.68 
L 107.688 4.68 
L 107.688 22.68 
L 107.688 40.68 
L 131.088 40.68 
" clip-path="url(#pec5b74ba3d)" style="fill: none; stroke: #000000; stroke-width: 2; stroke-linecap: round"/>
   </g>
   <g id="line2d_14">
    <path d="M 95.088 31.68 
L 107.688 31.68 
" clip-path="url(#pec5b74ba3d)" style="fill: none; stroke: #000000; stroke-width: 2; stroke-linecap: round"/>
   </g>
   <g id="line2d_15">
    <path d="M 95.088 13.68 
L 107.688 13.68 
" clip-path="url(#pec5b74ba3d)" style="fill: none; stroke: #000000; stroke-width: 2; stroke-linecap: round"/>
   </g>
   <g id="line2d_16">
    <path d="M 149.088 22.68 
L 161.688 22.68 
" clip-path="url(#pec5b74ba3d)" style="fill: none; stroke: #000000; stroke-width: 2; stroke-linecap: round"/>
   </g>
   <g id="line2d_17">
    <path d="M 17.688 36.18 
L 37.668 36.18 
M 69.708 36.18 
L 89.688 36.18 
" clip-path="url(#pec5b74ba3d)" style="fill: none; stroke: #000000; stroke-width: 2; stroke-linecap: round"/>
   </g>
   <g id="line2d_18">
    <path d="M 37.668 18.18 
L 61.068 36.18 
L 37.668 54.18 
L 37.668 18.18 
" clip-path="url(#pec5b74ba3d)" style="fill: none; stroke: #000000; stroke-width: 2; stroke-linecap: round"/>
   </g>
   <g id="line2d_19">
    <path d="M 95.088 31.68 
L 89.688 31.68 
L 89.688 36.18 
" clip-path="url(#pec5b74ba3d)" style="fill: none; stroke: #000000; stroke-width: 2; stroke-linecap: round"/>
   </g>
   <g id="line2d_20">
    <path d="M 165.288 40.68 
L 161.688 40.68 
L 161.688 22.68 
" clip-path="url(#pec5b74ba3d)" style="fill: none; stroke: #000000; stroke-width: 2; stroke-linecap: round"/>
   </g>
   <g id="line2d_21">
    <path d="M 131.088 94.68 
L 132.241264 94.643017 
L 133.389789 94.53222 
L 134.528855 94.348065 
L 135.653783 94.091308 
L 136.759948 93.763003 
L 137.842806 93.364502 
L 138.897907 92.89744 
L 139.920916 92.363737 
L 140.907628 91.765586 
L 141.85399 91.105445 
L 142.756111 90.386027 
L 143.610286 89.610288 
L 144.413004 88.781416 
L 145.160967 87.902816 
L 145.851101 86.9781 
L 146.48057 86.011066 
L 147.046788 85.005689 
L 147.547427 83.9661 
L 147.980432 82.896571 
L 148.344021 81.801497 
L 148.636702 80.685377 
L 148.857272 79.552798 
L 149.004824 78.408414 
L 149.078752 77.256928 
L 149.078752 76.103072 
L 149.004824 74.951586 
L 148.857272 73.807202 
L 148.636702 72.674623 
L 148.344021 71.558503 
L 147.980432 70.463429 
L 147.547427 69.3939 
L 147.046788 68.354311 
L 146.48057 67.348934 
L 145.851101 66.3819 
L 145.160967 65.457184 
L 144.413004 64.578584 
L 143.610286 63.749712 
L 142.756111 62.973973 
L 141.85399 62.254555 
L 140.907628 61.594414 
L 139.920916 60.996263 
L 138.897907 60.46256 
L 137.842806 59.995498 
L 136.759948 59.596997 
L 135.653783 59.268692 
L 134.528855 59.011935 
L 133.389789 58.82778 
L 132.241264 58.716983 
L 131.088 58.68 
L 131.088 58.68 
L 107.688 58.68 
L 107.688 76.68 
L 107.688 94.68 
L 131.088 94.68 
" clip-path="url(#pec5b74ba3d)" style="fill: none; stroke: #000000; stroke-width: 2; stroke-linecap: round"/>
   </g>
   <g id="line2d_22">
    <path d="M 95.088 85.68 
L 107.688 85.68 
" clip-path="url(#pec5b74ba3d)" style="fill: none; stroke: #000000; stroke-width: 2; stroke-linecap: round"/>
   </g>
   <g id="line2d_23">
    <path d="M 95.088 67.68 
L 107.688 67.68 
" clip-path="url(#pec5b74ba3d)" style="fill: none; stroke: #000000; stroke-width: 2; stroke-linecap: round"/>
   </g>
   <g id="line2d_24">
    <path d="M 149.088 76.68 
L 161.688 76.68 
" clip-path="url(#pec5b74ba3d)" style="fill: none; stroke: #000000; stroke-width: 2; stroke-linecap: round"/>
   </g>
   <g id="line2d_25">
    <path d="M 17.688 90.18 
L 37.668 90.18 
M 69.708 90.18 
L 89.688 90.18 
" clip-path="url(#pec5b74ba3d)" style="fill: none; stroke: #000000; stroke-width: 2; stroke-linecap: round"/>
   </g>
   <g id="line2d_26">
    <path d="M 37.668 72.18 
L 61.068 90.18 
L 37.668 108.18 
L 37.668 72.18 
" clip-path="url(#pec5b74ba3d)" style="fill: none; stroke: #000000; stroke-width: 2; stroke-linecap: round"/>
   </g>
   <g id="line2d_27">
    <path d="M 95.088 85.68 
L 89.688 85.68 
L 89.688 90.18 
" clip-path="url(#pec5b74ba3d)" style="fill: none; stroke: #000000; stroke-width: 2; stroke-linecap: round"/>
   </g>
   <g id="line2d_28">
    <path d="M 165.288 58.68 
L 161.688 58.68 
L 161.688 76.68 
" clip-path="url(#pec5b74ba3d)" style="fill: none; stroke: #000000; stroke-width: 2; stroke-linecap: round"/>
   </g>
   <g id="line2d_29">
    <path d="M 237.288 81.18 
L 233.688 81.18 
L 233.688 49.68 
" clip-path="url(#pec5b74ba3d)" style="fill: none; stroke: #000000; stroke-width: 2; stroke-linecap: round"/>
   </g>
   <g id="line2d_30">
    <path d="M 203.088 148.68 
L 204.241264 148.643017 
L 205.389789 148.53222 
L 206.528855 148.348065 
L 207.653783 148.091308 
L 208.759948 147.763003 
L 209.842806 147.364502 
L 210.897907 146.89744 
L 211.920916 146.363737 
L 212.907628 145.765586 
L 213.85399 145.105445 
L 214.756111 144.386027 
L 215.610286 143.610288 
L 216.413004 142.781416 
L 217.160967 141.902816 
L 217.851101 140.9781 
L 218.48057 140.011066 
L 219.046788 139.005689 
L 219.547427 137.9661 
L 219.980432 136.896571 
L 220.344021 135.801497 
L 220.636702 134.685377 
L 220.857272 133.552798 
L 221.004824 132.408414 
L 221.078752 131.256928 
L 221.078752 130.103072 
L 221.004824 128.951586 
L 220.857272 127.807202 
L 220.636702 126.674623 
L 220.344021 125.558503 
L 219.980432 124.463429 
L 219.547427 123.3939 
L 219.046788 122.354311 
L 218.48057 121.348934 
L 217.851101 120.3819 
L 217.160967 119.457184 
L 216.413004 118.578584 
L 215.610286 117.749712 
L 214.756111 116.973973 
L 213.85399 116.254555 
L 212.907628 115.594414 
L 211.920916 114.996263 
L 210.897907 114.46256 
L 209.842806 113.995498 
L 208.759948 113.596997 
L 207.653783 113.268692 
L 206.528855 113.011935 
L 205.389789 112.82778 
L 204.241264 112.716983 
L 203.088 112.68 
L 203.088 112.68 
L 179.688 112.68 
L 179.688 130.68 
L 179.688 148.68 
L 203.088 148.68 
" clip-path="url(#pec5b74ba3d)" style="fill: none; stroke: #000000; stroke-width: 2; stroke-linecap: round"/>
   </g>
   <g id="line2d_31">
    <path d="M 167.088 142.56 
L 179.688 142.56 
" clip-path="url(#pec5b74ba3d)" style="fill: none; stroke: #000000; stroke-width: 2; stroke-linecap: round"/>
   </g>
   <g id="line2d_32">
    <path d="M 167.088 130.68 
L 179.688 130.68 
" clip-path="url(#pec5b74ba3d)" style="fill: none; stroke: #000000; stroke-width: 2; stroke-linecap: round"/>
   </g>
   <g id="line2d_33">
    <path d="M 167.088 118.8 
L 179.688 118.8 
" clip-path="url(#pec5b74ba3d)" style="fill: none; stroke: #000000; stroke-width: 2; stroke-linecap: round"/>
   </g>
   <g id="line2d_34">
    <path d="M 221.088 130.68 
L 233.688 130.68 
" clip-path="url(#pec5b74ba3d)" style="fill: none; stroke: #000000; stroke-width: 2; stroke-linecap: round"/>
   </g>
   <g id="line2d_35">
    <path d="M 89.688 157.68 
L 109.668 157.68 
M 141.708 157.68 
L 161.688 157.68 
" clip-path="url(#pec5b74ba3d)" style="fill: none; stroke: #000000; stroke-width: 2; stroke-linecap: round"/>
   </g>
   <g id="line2d_36">
    <path d="M 109.668 139.68 
L 133.068 157.68 
L 109.668 175.68 
L 109.668 139.68 
" clip-path="url(#pec5b74ba3d)" style="fill: none; stroke: #000000; stroke-width: 2; stroke-linecap: round"/>
   </g>
   <g id="line2d_37">
    <path d="M 167.088 142.56 
L 161.688 142.56 
L 161.688 157.68 
" clip-path="url(#pec5b74ba3d)" style="fill: none; stroke: #000000; stroke-width: 2; stroke-linecap: round"/>
   </g>
   <g id="line2d_38">
    <path d="M 237.288 99.18 
L 233.688 99.18 
L 233.688 130.68 
" clip-path="url(#pec5b74ba3d)" style="fill: none; stroke: #000000; stroke-width: 2; stroke-linecap: round"/>
   </g>
   <g id="line2d_39">
    <path d="M 309.288 128.43 
L 305.688 128.43 
L 305.688 90.18 
" clip-path="url(#pec5b74ba3d)" style="fill: none; stroke: #000000; stroke-width: 2; stroke-linecap: round"/>
   </g>
   <g id="line2d_40">
    <path d="M 275.088 202.68 
L 276.241264 202.643017 
L 277.389789 202.53222 
L 278.528855 202.348065 
L 279.653783 202.091308 
L 280.759948 201.763003 
L 281.842806 201.364502 
L 282.897907 200.89744 
L 283.920916 200.363737 
L 284.907628 199.765586 
L 285.85399 199.105445 
L 286.756111 198.386027 
L 287.610286 197.610288 
L 288.413004 196.781416 
L 289.160967 195.902816 
L 289.851101 194.9781 
L 290.48057 194.011066 
L 291.046788 193.005689 
L 291.547427 191.9661 
L 291.980432 190.896571 
L 292.344021 189.801497 
L 292.636702 188.685377 
L 292.857272 187.552798 
L 293.004824 186.408414 
L 293.078752 185.256928 
L 293.078752 184.103072 
L 293.004824 182.951586 
L 292.857272 181.807202 
L 292.636702 180.674623 
L 292.344021 179.558503 
L 291.980432 178.463429 
L 291.547427 177.3939 
L 291.046788 176.354311 
L 290.48057 175.348934 
L 289.851101 174.3819 
L 289.160967 173.457184 
L 288.413004 172.578584 
L 287.610286 171.749712 
L 286.756111 170.973973 
L 285.85399 170.254555 
L 284.907628 169.594414 
L 283.920916 168.996263 
L 282.897907 168.46256 
L 281.842806 167.995498 
L 280.759948 167.596997 
L 279.653783 167.268692 
L 278.528855 167.011935 
L 277.389789 166.82778 
L 276.241264 166.716983 
L 275.088 166.68 
L 275.088 166.68 
L 251.688 166.68 
L 251.688 184.68 
L 251.688 202.68 
L 275.088 202.68 
" clip-path="url(#pec5b74ba3d)" style="fill: none; stroke: #000000; stroke-width: 2; stroke-linecap: round"/>
   </g>
   <g id="line2d_41">
    <path d="M 239.088 196.56 
L 251.688 196.56 
" clip-path="url(#pec5b74ba3d)" style="fill: none; stroke: #000000; stroke-width: 2; stroke-linecap: round"/>
   </g>
   <g id="line2d_42">
    <path d="M 239.088 184.68 
L 251.688 184.68 
" clip-path="url(#pec5b74ba3d)" style="fill: none; stroke: #000000; stroke-width: 2; stroke-linecap: round"/>
   </g>
   <g id="line2d_43">
    <path d="M 239.088 172.8 
L 251.688 172.8 
" clip-path="url(#pec5b74ba3d)" style="fill: none; stroke: #000000; stroke-width: 2; stroke-linecap: round"/>
   </g>
   <g id="line2d_44">
    <path d="M 293.088 184.68 
L 305.688 184.68 
" clip-path="url(#pec5b74ba3d)" style="fill: none; stroke: #000000; stroke-width: 2; stroke-linecap: round"/>
   </g>
   <g id="line2d_45">
    <path d="M 161.688 211.68 
L 181.668 211.68 
M 213.708 211.68 
L 233.688 211.68 
" clip-path="url(#pec5b74ba3d)" style="fill: none; stroke: #000000; stroke-width: 2; stroke-linecap: round"/>
   </g>
   <g id="line2d_46">
    <path d="M 181.668 193.68 
L 205.068 211.68 
L 181.668 229.68 
L 181.668 193.68 
" clip-path="url(#pec5b74ba3d)" style="fill: none; stroke: #000000; stroke-width: 2; stroke-linecap: round"/>
   </g>
   <g id="line2d_47">
    <path d="M 239.088 196.56 
L 233.688 196.56 
L 233.688 211.68 
" clip-path="url(#pec5b74ba3d)" style="fill: none; stroke: #000000; stroke-width: 2; stroke-linecap: round"/>
   </g>
   <g id="line2d_48">
    <path d="M 309.288 146.43 
L 305.688 146.43 
L 305.688 184.68 
" clip-path="url(#pec5b74ba3d)" style="fill: none; stroke: #000000; stroke-width: 2; stroke-linecap: round"/>
   </g>
   <g id="text_1">
    <!-- $Y$ -->
    <g transform="translate(381.288 141.293125) scale(0.14 -0.14)">
     <defs>
      <path id="DejaVuSans-Oblique-59" d="M 403 4666 
L 1081 4666 
L 1953 2747 
L 3616 4666 
L 4325 4666 
L 2209 2222 
L 1778 0 
L 1147 0 
L 1575 2222 
L 403 4666 
z
" transform="scale(0.015625)"/>
     </defs>
     <use xlink:href="#DejaVuSans-Oblique-59" transform="translate(0 0.09375)"/>
    </g>
   </g>
   <g id="text_2">
    <!-- A -->
    <g transform="translate(81.911125 17.543125) scale(0.14 -0.14)">
     <defs>
      <path id="DejaVuSans-41" d="M 2188 4044 
L 1331 1722 
L 3047 1722 
L 2188 4044 
z
M 1831 4666 
L 2547 4666 
L 4325 0 
L 3669 0 
L 3244 1197 
L 1141 1197 
L 716 0 
L 50 0 
L 1831 4666 
z
" transform="scale(0.015625)"/>
     </defs>
     <use xlink:href="#DejaVuSans-41"/>
    </g>
   </g>
   <g id="text_3">
    <!-- C -->
    <g transform="translate(4.312063 40.043125) scale(0.14 -0.14)">
     <defs>
      <path id="DejaVuSans-43" d="M 4122 4306 
L 4122 3641 
Q 3803 3938 3442 4084 
Q 3081 4231 2675 4231 
Q 1875 4231 1450 3742 
Q 1025 3253 1025 2328 
Q 1025 1406 1450 917 
Q 1875 428 2675 428 
Q 3081 428 3442 575 
Q 3803 722 4122 1019 
L 4122 359 
Q 3791 134 3420 21 
Q 3050 -91 2638 -91 
Q 1578 -91 968 557 
Q 359 1206 359 2328 
Q 359 3453 968 4101 
Q 1578 4750 2638 4750 
Q 3056 4750 3426 4639 
Q 3797 4528 4122 4306 
z
" transform="scale(0.015625)"/>
     </defs>
     <use xlink:href="#DejaVuSans-43"/>
    </g>
   </g>
   <g id="text_4">
    <!-- A -->
    <g transform="translate(81.911125 71.543125) scale(0.14 -0.14)">
     <use xlink:href="#DejaVuSans-41"/>
    </g>
   </g>
   <g id="text_5">
    <!-- D -->
    <g transform="translate(3.308 94.043125) scale(0.14 -0.14)">
     <defs>
      <path id="DejaVuSans-44" d="M 1259 4147 
L 1259 519 
L 2022 519 
Q 2988 519 3436 956 
Q 3884 1394 3884 2338 
Q 3884 3275 3436 3711 
Q 2988 4147 2022 4147 
L 1259 4147 
z
M 628 4666 
L 1925 4666 
Q 3281 4666 3915 4102 
Q 4550 3538 4550 2338 
Q 4550 1131 3912 565 
Q 3275 0 1925 0 
L 628 0 
L 628 4666 
z
" transform="scale(0.015625)"/>
     </defs>
     <use xlink:href="#DejaVuSans-44"/>
    </g>
   </g>
   <g id="text_6">
    <!-- C -->
    <g transform="translate(153.712062 122.663125) scale(0.14 -0.14)">
     <use xlink:href="#DejaVuSans-43"/>
    </g>
   </g>
   <g id="text_7">
    <!-- D -->
    <g transform="translate(152.708 134.543125) scale(0.14 -0.14)">
     <use xlink:href="#DejaVuSans-44"/>
    </g>
   </g>
   <g id="text_8">
    <!-- B -->
    <g transform="translate(76.482688 161.543125) scale(0.14 -0.14)">
     <defs>
      <path id="DejaVuSans-42" d="M 1259 2228 
L 1259 519 
L 2272 519 
Q 2781 519 3026 730 
Q 3272 941 3272 1375 
Q 3272 1813 3026 2020 
Q 2781 2228 2272 2228 
L 1259 2228 
z
M 1259 4147 
L 1259 2741 
L 2194 2741 
Q 2656 2741 2882 2914 
Q 3109 3088 3109 3444 
Q 3109 3797 2882 3972 
Q 2656 4147 2194 4147 
L 1259 4147 
z
M 628 4666 
L 2241 4666 
Q 2963 4666 3353 4366 
Q 3744 4066 3744 3513 
Q 3744 3084 3544 2831 
Q 3344 2578 2956 2516 
Q 3422 2416 3680 2098 
Q 3938 1781 3938 1306 
Q 3938 681 3513 340 
Q 3088 0 2303 0 
L 628 0 
L 628 4666 
z
" transform="scale(0.015625)"/>
     </defs>
     <use xlink:href="#DejaVuSans-42"/>
    </g>
   </g>
   <g id="text_9">
    <!-- B -->
    <g transform="translate(225.882687 176.663125) scale(0.14 -0.14)">
     <use xlink:href="#DejaVuSans-42"/>
    </g>
   </g>
   <g id="text_10">
    <!-- C -->
    <g transform="translate(225.712062 188.543125) scale(0.14 -0.14)">
     <use xlink:href="#DejaVuSans-43"/>
    </g>
   </g>
   <g id="text_11">
    <!-- D -->
    <g transform="translate(147.308 215.543125) scale(0.14 -0.14)">
     <use xlink:href="#DejaVuSans-44"/>
    </g>
   </g>
  </g>
 </g>
 <defs>
  <clipPath id="pec5b74ba3d">
   <rect x="0" y="-0" width="395.376" height="234.36"/>
  </clipPath>
 </defs>
</svg>
