<?xml version="1.0" encoding="utf-8" standalone="no"?>
<!DOCTYPE svg PUBLIC "-//W3C//DTD SVG 1.1//EN"
  "http://www.w3.org/Graphics/SVG/1.1/DTD/svg11.dtd">
<svg xmlns:xlink="http://www.w3.org/1999/xlink" width="190.1766pt" height="85.868pt" viewBox="0 0 190.1766 85.868" xmlns="http://www.w3.org/2000/svg" version="1.1">
 <metadata>
  <rdf:RDF xmlns:dc="http://purl.org/dc/elements/1.1/" xmlns:cc="http://creativecommons.org/ns#" xmlns:rdf="http://www.w3.org/1999/02/22-rdf-syntax-ns#">
   <cc:Work>
    <dc:type rdf:resource="http://purl.org/dc/dcmitype/StillImage"/>
    <dc:date>2024-09-27T08:57:04.794867</dc:date>
    <dc:format>image/svg+xml</dc:format>
    <dc:creator>
     <cc:Agent>
      <dc:title>Matplotlib v3.8.0, https://matplotlib.org/</dc:title>
     </cc:Agent>
    </dc:creator>
   </cc:Work>
  </rdf:RDF>
 </metadata>
 <defs>
  <style type="text/css">*{stroke-linejoin: round; stroke-linecap: butt}</style>
 </defs>
 <g id="figure_1">
  <g id="patch_1">
   <path d="M 0 85.868 
L 190.1766 85.868 
L 190.1766 0 
L 0 0 
z
" style="fill: #ffffff"/>
  </g>
  <g id="axes_1">
   <g id="patch_2">
    <path d="M 67.9818 63.98 
C 68.955626 63.98 69.889697 63.593095 70.578296 62.904496 
C 71.266895 62.215897 71.6538 61.281826 71.6538 60.308 
C 71.6538 59.334174 71.266895 58.400103 70.578296 57.711504 
C 69.889697 57.022905 68.955626 56.636 67.9818 56.636 
C 67.007974 56.636 66.073903 57.022905 65.385304 57.711504 
C 64.696705 58.400103 64.3098 59.334174 64.3098 60.308 
C 64.3098 61.281826 64.696705 62.215897 65.385304 62.904496 
C 66.073903 63.593095 67.007974 63.98 67.9818 63.98 
L 67.9818 63.98 
z
" clip-path="url(#p6b7538f193)" style="fill: none; stroke: #000000; stroke-width: 2; stroke-linejoin: miter"/>
   </g>
   <g id="line2d_1">
    <path d="M 123.8268 52.658 
L 124.807074 52.626565 
L 125.783321 52.532387 
L 126.751527 52.375855 
L 127.707715 52.157611 
L 128.647956 51.878553 
L 129.568385 51.539826 
L 130.465221 51.142824 
L 131.334779 50.689176 
L 132.173484 50.180748 
L 132.977891 49.619628 
L 133.744694 49.008123 
L 134.470743 48.348745 
L 135.153053 47.644204 
L 135.788822 46.897394 
L 136.375435 46.111385 
L 136.910484 45.289406 
L 137.391769 44.434836 
L 137.817313 43.551185 
L 138.185367 42.642085 
L 138.494418 41.711272 
L 138.743197 40.76257 
L 138.930681 39.799878 
L 139.0561 38.827152 
L 139.118939 37.848389 
L 139.118939 36.867611 
L 139.0561 35.888848 
L 138.930681 34.916122 
L 138.743197 33.95343 
L 138.494418 33.004728 
L 138.185367 32.073915 
L 137.817313 31.164815 
L 137.391769 30.281164 
L 136.910484 29.426594 
L 136.375435 28.604615 
L 135.788822 27.818606 
L 135.153053 27.071796 
L 134.470743 26.367255 
L 133.744694 25.707877 
L 132.977891 25.096372 
L 132.173484 24.535252 
L 131.334779 24.026824 
L 130.465221 23.573176 
L 129.568385 23.176174 
L 128.647956 22.837447 
L 127.707715 22.558389 
L 126.751527 22.340145 
L 125.783321 22.183613 
L 124.807074 22.089435 
L 123.8268 22.058 
L 123.8268 22.058 
L 103.9368 22.058 
L 103.9368 37.358 
L 103.9368 52.658 
L 123.8268 52.658 
" clip-path="url(#p6b7538f193)" style="fill: none; stroke: #000000; stroke-width: 2; stroke-linecap: round"/>
   </g>
   <g id="line2d_2">
    <path d="M 93.2268 47.456 
L 103.9368 47.456 
" clip-path="url(#p6b7538f193)" style="fill: none; stroke: #000000; stroke-width: 2; stroke-linecap: round"/>
   </g>
   <g id="line2d_3">
    <path d="M 93.2268 37.358 
L 103.9368 37.358 
" clip-path="url(#p6b7538f193)" style="fill: none; stroke: #000000; stroke-width: 2; stroke-linecap: round"/>
   </g>
   <g id="line2d_4">
    <path d="M 93.2268 27.26 
L 103.9368 27.26 
" clip-path="url(#p6b7538f193)" style="fill: none; stroke: #000000; stroke-width: 2; stroke-linecap: round"/>
   </g>
   <g id="line2d_5">
    <path d="M 139.1268 37.358 
L 149.8368 37.358 
" clip-path="url(#p6b7538f193)" style="fill: none; stroke: #000000; stroke-width: 2; stroke-linecap: round"/>
   </g>
   <g id="line2d_6">
    <path d="M 27.4368 60.308 
L 44.4198 60.308 
M 71.6538 60.308 
L 88.6368 60.308 
" clip-path="url(#p6b7538f193)" style="fill: none; stroke: #000000; stroke-width: 2; stroke-linecap: round"/>
   </g>
   <g id="line2d_7">
    <path d="M 44.4198 45.008 
L 64.3098 60.308 
L 44.4198 75.608 
L 44.4198 45.008 
" clip-path="url(#p6b7538f193)" style="fill: none; stroke: #000000; stroke-width: 2; stroke-linecap: round"/>
   </g>
   <g id="line2d_8">
    <path d="M 93.2268 47.456 
L 88.6368 47.456 
L 88.6368 60.308 
" clip-path="url(#p6b7538f193)" style="fill: none; stroke: #000000; stroke-width: 2; stroke-linecap: round"/>
   </g>
   <g id="text_1">
    <g clip-path="url(#p6b7538f193)">
     <!-- $S1$ -->
     <g transform="translate(152.8968 40.807219) scale(0.125 -0.125)">
      <defs>
       <path id="DejaVuSans-Oblique-53" d="M 3859 4513 
L 3738 3897 
Q 3422 4066 3111 4152 
Q 2800 4238 2509 4238 
Q 1944 4238 1609 3991 
Q 1275 3744 1275 3334 
Q 1275 3109 1398 2989 
Q 1522 2869 2034 2731 
L 2413 2638 
Q 3053 2472 3303 2217 
Q 3553 1963 3553 1503 
Q 3553 797 2998 353 
Q 2444 -91 1538 -91 
Q 1166 -91 791 -17 
Q 416 56 38 206 
L 166 856 
Q 513 641 861 531 
Q 1209 422 1556 422 
Q 2147 422 2503 684 
Q 2859 947 2859 1369 
Q 2859 1650 2717 1795 
Q 2575 1941 2106 2059 
L 1728 2156 
Q 1081 2325 845 2545 
Q 609 2766 609 3163 
Q 609 3859 1145 4304 
Q 1681 4750 2541 4750 
Q 2875 4750 3203 4690 
Q 3531 4631 3859 4513 
z
" transform="scale(0.015625)"/>
       <path id="DejaVuSans-31" d="M 794 531 
L 1825 531 
L 1825 4091 
L 703 3866 
L 703 4441 
L 1819 4666 
L 2450 4666 
L 2450 531 
L 3481 531 
L 3481 0 
L 794 0 
L 794 531 
z
" transform="scale(0.015625)"/>
      </defs>
      <use xlink:href="#DejaVuSans-Oblique-53" transform="translate(0 0.78125)"/>
      <use xlink:href="#DejaVuSans-31" transform="translate(63.476562 0.78125)"/>
     </g>
    </g>
   </g>
   <g id="text_2">
    <g clip-path="url(#p6b7538f193)">
     <!-- D -->
     <g transform="translate(80.5418 30.709219) scale(0.125 -0.125)">
      <defs>
       <path id="DejaVuSans-44" d="M 1259 4147 
L 1259 519 
L 2022 519 
Q 2988 519 3436 956 
Q 3884 1394 3884 2338 
Q 3884 3275 3436 3711 
Q 2988 4147 2022 4147 
L 1259 4147 
z
M 628 4666 
L 1925 4666 
Q 3281 4666 3915 4102 
Q 4550 3538 4550 2338 
Q 4550 1131 3912 565 
Q 3275 0 1925 0 
L 628 0 
L 628 4666 
z
" transform="scale(0.015625)"/>
      </defs>
      <use xlink:href="#DejaVuSans-44"/>
     </g>
    </g>
   </g>
   <g id="text_3">
    <g clip-path="url(#p6b7538f193)">
     <!-- E -->
     <g transform="translate(82.268362 40.807219) scale(0.125 -0.125)">
      <defs>
       <path id="DejaVuSans-45" d="M 628 4666 
L 3578 4666 
L 3578 4134 
L 1259 4134 
L 1259 2753 
L 3481 2753 
L 3481 2222 
L 1259 2222 
L 1259 531 
L 3634 531 
L 3634 0 
L 628 0 
L 628 4666 
z
" transform="scale(0.015625)"/>
      </defs>
      <use xlink:href="#DejaVuSans-45"/>
     </g>
    </g>
   </g>
   <g id="text_4">
    <g clip-path="url(#p6b7538f193)">
     <!-- B -->
     <g transform="translate(15.800628 63.757219) scale(0.125 -0.125)">
      <defs>
       <path id="DejaVuSans-42" d="M 1259 2228 
L 1259 519 
L 2272 519 
Q 2781 519 3026 730 
Q 3272 941 3272 1375 
Q 3272 1813 3026 2020 
Q 2781 2228 2272 2228 
L 1259 2228 
z
M 1259 4147 
L 1259 2741 
L 2194 2741 
Q 2656 2741 2882 2914 
Q 3109 3088 3109 3444 
Q 3109 3797 2882 3972 
Q 2656 4147 2194 4147 
L 1259 4147 
z
M 628 4666 
L 2241 4666 
Q 2963 4666 3353 4366 
Q 3744 4066 3744 3513 
Q 3744 3084 3544 2831 
Q 3344 2578 2956 2516 
Q 3422 2416 3680 2098 
Q 3938 1781 3938 1306 
Q 3938 681 3513 340 
Q 3088 0 2303 0 
L 628 0 
L 628 4666 
z
" transform="scale(0.015625)"/>
      </defs>
      <use xlink:href="#DejaVuSans-42"/>
     </g>
    </g>
   </g>
  </g>
 </g>
 <defs>
  <clipPath id="p6b7538f193">
   <rect x="7.2" y="7.2" width="175.7766" height="71.468"/>
  </clipPath>
 </defs>
</svg>
