<?xml version="1.0" encoding="utf-8" standalone="no"?>
<!DOCTYPE svg PUBLIC "-//W3C//DTD SVG 1.1//EN"
  "http://www.w3.org/Graphics/SVG/1.1/DTD/svg11.dtd">
<svg xmlns:xlink="http://www.w3.org/1999/xlink" width="259.356pt" height="112.5pt" viewBox="0 0 259.356 112.5" xmlns="http://www.w3.org/2000/svg" version="1.1">
 <metadata>
  <rdf:RDF xmlns:dc="http://purl.org/dc/elements/1.1/" xmlns:cc="http://creativecommons.org/ns#" xmlns:rdf="http://www.w3.org/1999/02/22-rdf-syntax-ns#">
   <cc:Work>
    <dc:type rdf:resource="http://purl.org/dc/dcmitype/StillImage"/>
    <dc:date>2025-04-22T08:48:44.267796</dc:date>
    <dc:format>image/svg+xml</dc:format>
    <dc:creator>
     <cc:Agent>
      <dc:title>Matplotlib v3.9.3, https://matplotlib.org/</dc:title>
     </cc:Agent>
    </dc:creator>
   </cc:Work>
  </rdf:RDF>
 </metadata>
 <defs>
  <style type="text/css">*{stroke-linejoin: round; stroke-linecap: butt}</style>
 </defs>
 <g id="figure_1">
  <g id="patch_1">
   <path d="M 0 112.5 
L 259.356 112.5 
L 259.356 0 
L 0 0 
z
" style="fill: #ffffff"/>
  </g>
  <g id="axes_1">
   <g id="patch_2">
    <path d="M 65.388 94.14 
C 66.533677 94.14 67.632585 93.684818 68.442701 92.874701 
C 69.252818 92.064585 69.708 90.965677 69.708 89.82 
C 69.708 88.674323 69.252818 87.575415 68.442701 86.765299 
C 67.632585 85.955182 66.533677 85.5 65.388 85.5 
C 64.242323 85.5 63.143415 85.955182 62.333299 86.765299 
C 61.523182 87.575415 61.068 88.674323 61.068 89.82 
C 61.068 90.965677 61.523182 92.064585 62.333299 92.874701 
C 63.143415 93.684818 64.242323 94.14 65.388 94.14 
L 65.388 94.14 
z
" clip-path="url(#pe511ce643e)" style="fill: none; stroke: #000000; stroke-width: 2; stroke-linejoin: miter"/>
   </g>
   <g id="line2d_1">
    <path d="M 203.088 53.82 
L 204.241264 53.783017 
L 205.389789 53.67222 
L 206.528855 53.488065 
L 207.653783 53.231308 
L 208.759948 52.903003 
L 209.842806 52.504502 
L 210.897907 52.03744 
L 211.920916 51.503737 
L 212.907628 50.905586 
L 213.85399 50.245445 
L 214.756111 49.526027 
L 215.610286 48.750288 
L 216.413004 47.921416 
L 217.160967 47.042816 
L 217.851101 46.1181 
L 218.48057 45.151066 
L 219.046788 44.145689 
L 219.547427 43.1061 
L 219.980432 42.036571 
L 220.344021 40.941497 
L 220.636702 39.825377 
L 220.857272 38.692798 
L 221.004824 37.548414 
L 221.078752 36.396928 
L 221.078752 35.243072 
L 221.004824 34.091586 
L 220.857272 32.947202 
L 220.636702 31.814623 
L 220.344021 30.698503 
L 219.980432 29.603429 
L 219.547427 28.5339 
L 219.046788 27.494311 
L 218.48057 26.488934 
L 217.851101 25.5219 
L 217.160967 24.597184 
L 216.413004 23.718584 
L 215.610286 22.889712 
L 214.756111 22.113973 
L 213.85399 21.394555 
L 212.907628 20.734414 
L 211.920916 20.136263 
L 210.897907 19.60256 
L 209.842806 19.135498 
L 208.759948 18.736997 
L 207.653783 18.408692 
L 206.528855 18.151935 
L 205.389789 17.96778 
L 204.241264 17.856983 
L 203.088 17.82 
L 203.088 17.82 
L 179.688 17.82 
L 179.688 35.82 
L 179.688 53.82 
L 203.088 53.82 
" clip-path="url(#pe511ce643e)" style="fill: none; stroke: #000000; stroke-width: 2; stroke-linecap: round"/>
   </g>
   <g id="line2d_2">
    <path d="M 167.088 47.7 
L 179.688 47.7 
" clip-path="url(#pe511ce643e)" style="fill: none; stroke: #000000; stroke-width: 2; stroke-linecap: round"/>
   </g>
   <g id="line2d_3">
    <path d="M 167.088 35.82 
L 179.688 35.82 
" clip-path="url(#pe511ce643e)" style="fill: none; stroke: #000000; stroke-width: 2; stroke-linecap: round"/>
   </g>
   <g id="line2d_4">
    <path d="M 167.088 23.94 
L 179.688 23.94 
" clip-path="url(#pe511ce643e)" style="fill: none; stroke: #000000; stroke-width: 2; stroke-linecap: round"/>
   </g>
   <g id="line2d_5">
    <path d="M 221.088 35.82 
L 233.688 35.82 
" clip-path="url(#pe511ce643e)" style="fill: none; stroke: #000000; stroke-width: 2; stroke-linecap: round"/>
   </g>
   <g id="line2d_6">
    <path d="M 105.888 39.96 
L 125.430857 39.893878 
L 127.488 39.6 
L 129.545143 39.07102 
L 131.602286 38.306939 
L 133.659429 37.307755 
L 135.716571 36.073469 
L 137.773714 34.604082 
L 139.830857 32.899592 
L 142.402286 30.438367 
L 144.973714 27.609796 
L 147.545143 24.413878 
L 149.088 22.32 
L 149.088 22.32 
L 146.516571 18.903673 
L 143.945143 15.854694 
L 141.373714 13.173061 
L 138.802286 10.858776 
L 136.745143 9.271837 
L 134.688 7.92 
L 132.630857 6.803265 
L 130.573714 5.921633 
L 128.516571 5.275102 
L 126.459429 4.863673 
L 124.402286 4.687347 
L 123.888 4.68 
L 105.888 4.68 
L 105.888 4.68 
L 107.8752 6.84 
L 109.6032 9 
L 111.072 11.16 
L 112.2816 13.32 
L 113.232 15.48 
L 113.9232 17.64 
L 114.3552 19.8 
L 114.528 21.96 
L 114.4416 24.12 
L 114.096 26.28 
L 113.4912 28.44 
L 112.6272 30.6 
L 111.504 32.76 
L 110.1216 34.92 
L 108.48 37.08 
L 106.5792 39.24 
L 105.888 39.96 
L 105.888 39.96 
" clip-path="url(#pe511ce643e)" style="fill: none; stroke: #000000; stroke-width: 2; stroke-linecap: round"/>
   </g>
   <g id="line2d_7">
    <path d="M 93.288 31.32 
L 112.2816 31.32 
" clip-path="url(#pe511ce643e)" style="fill: none; stroke: #000000; stroke-width: 2; stroke-linecap: round"/>
   </g>
   <g id="line2d_8">
    <path d="M 93.288 13.32 
L 112.2816 13.32 
" clip-path="url(#pe511ce643e)" style="fill: none; stroke: #000000; stroke-width: 2; stroke-linecap: round"/>
   </g>
   <g id="line2d_9">
    <path d="M 149.088 22.32 
L 161.688 22.32 
" clip-path="url(#pe511ce643e)" style="fill: none; stroke: #000000; stroke-width: 2; stroke-linecap: round"/>
   </g>
   <g id="line2d_10">
    <path d="M 167.088 35.82 
L 161.688 35.82 
L 161.688 22.32 
" clip-path="url(#pe511ce643e)" style="fill: none; stroke: #000000; stroke-width: 2; stroke-linecap: round"/>
   </g>
   <g id="line2d_11">
    <path d="M 105.888 93.96 
L 125.430857 93.893878 
L 127.488 93.6 
L 129.545143 93.07102 
L 131.602286 92.306939 
L 133.659429 91.307755 
L 135.716571 90.073469 
L 137.773714 88.604082 
L 139.830857 86.899592 
L 142.402286 84.438367 
L 144.973714 81.609796 
L 147.545143 78.413878 
L 149.088 76.32 
L 149.088 76.32 
L 146.516571 72.903673 
L 143.945143 69.854694 
L 141.373714 67.173061 
L 138.802286 64.858776 
L 136.745143 63.271837 
L 134.688 61.92 
L 132.630857 60.803265 
L 130.573714 59.921633 
L 128.516571 59.275102 
L 126.459429 58.863673 
L 124.402286 58.687347 
L 123.888 58.68 
L 105.888 58.68 
L 105.888 58.68 
L 107.8752 60.84 
L 109.6032 63 
L 111.072 65.16 
L 112.2816 67.32 
L 113.232 69.48 
L 113.9232 71.64 
L 114.3552 73.8 
L 114.528 75.96 
L 114.4416 78.12 
L 114.096 80.28 
L 113.4912 82.44 
L 112.6272 84.6 
L 111.504 86.76 
L 110.1216 88.92 
L 108.48 91.08 
L 106.5792 93.24 
L 105.888 93.96 
L 105.888 93.96 
" clip-path="url(#pe511ce643e)" style="fill: none; stroke: #000000; stroke-width: 2; stroke-linecap: round"/>
   </g>
   <g id="line2d_12">
    <path d="M 93.288 85.32 
L 112.2816 85.32 
" clip-path="url(#pe511ce643e)" style="fill: none; stroke: #000000; stroke-width: 2; stroke-linecap: round"/>
   </g>
   <g id="line2d_13">
    <path d="M 93.288 67.32 
L 112.2816 67.32 
" clip-path="url(#pe511ce643e)" style="fill: none; stroke: #000000; stroke-width: 2; stroke-linecap: round"/>
   </g>
   <g id="line2d_14">
    <path d="M 149.088 76.32 
L 161.688 76.32 
" clip-path="url(#pe511ce643e)" style="fill: none; stroke: #000000; stroke-width: 2; stroke-linecap: round"/>
   </g>
   <g id="line2d_15">
    <path d="M 17.688 89.82 
L 37.668 89.82 
M 69.708 89.82 
L 89.688 89.82 
" clip-path="url(#pe511ce643e)" style="fill: none; stroke: #000000; stroke-width: 2; stroke-linecap: round"/>
   </g>
   <g id="line2d_16">
    <path d="M 37.668 71.82 
L 61.068 89.82 
L 37.668 107.82 
L 37.668 71.82 
" clip-path="url(#pe511ce643e)" style="fill: none; stroke: #000000; stroke-width: 2; stroke-linecap: round"/>
   </g>
   <g id="line2d_17">
    <path d="M 93.288 85.32 
L 89.688 85.32 
L 89.688 89.82 
" clip-path="url(#pe511ce643e)" style="fill: none; stroke: #000000; stroke-width: 2; stroke-linecap: round"/>
   </g>
   <g id="line2d_18">
    <path d="M 167.088 47.7 
L 161.688 47.7 
L 161.688 76.32 
" clip-path="url(#pe511ce643e)" style="fill: none; stroke: #000000; stroke-width: 2; stroke-linecap: round"/>
   </g>
   <g id="text_1">
    <!-- $S2$ -->
    <g transform="translate(237.288 39.683125) scale(0.14 -0.14)">
     <defs>
      <path id="DejaVuSans-Oblique-53" d="M 3859 4513 
L 3738 3897 
Q 3422 4066 3111 4152 
Q 2800 4238 2509 4238 
Q 1944 4238 1609 3991 
Q 1275 3744 1275 3334 
Q 1275 3109 1398 2989 
Q 1522 2869 2034 2731 
L 2413 2638 
Q 3053 2472 3303 2217 
Q 3553 1963 3553 1503 
Q 3553 797 2998 353 
Q 2444 -91 1538 -91 
Q 1166 -91 791 -17 
Q 416 56 38 206 
L 166 856 
Q 513 641 861 531 
Q 1209 422 1556 422 
Q 2147 422 2503 684 
Q 2859 947 2859 1369 
Q 2859 1650 2717 1795 
Q 2575 1941 2106 2059 
L 1728 2156 
Q 1081 2325 845 2545 
Q 609 2766 609 3163 
Q 609 3859 1145 4304 
Q 1681 4750 2541 4750 
Q 2875 4750 3203 4690 
Q 3531 4631 3859 4513 
z
" transform="scale(0.015625)"/>
      <path id="DejaVuSans-32" d="M 1228 531 
L 3431 531 
L 3431 0 
L 469 0 
L 469 531 
Q 828 903 1448 1529 
Q 2069 2156 2228 2338 
Q 2531 2678 2651 2914 
Q 2772 3150 2772 3378 
Q 2772 3750 2511 3984 
Q 2250 4219 1831 4219 
Q 1534 4219 1204 4116 
Q 875 4013 500 3803 
L 500 4441 
Q 881 4594 1212 4672 
Q 1544 4750 1819 4750 
Q 2544 4750 2975 4387 
Q 3406 4025 3406 3419 
Q 3406 3131 3298 2873 
Q 3191 2616 2906 2266 
Q 2828 2175 2409 1742 
Q 1991 1309 1228 531 
z
" transform="scale(0.015625)"/>
     </defs>
     <use xlink:href="#DejaVuSans-Oblique-53" transform="translate(0 0.78125)"/>
     <use xlink:href="#DejaVuSans-32" transform="translate(63.476562 0.78125)"/>
    </g>
   </g>
   <g id="text_2">
    <!-- E -->
    <g transform="translate(154.64175 27.803125) scale(0.14 -0.14)">
     <defs>
      <path id="DejaVuSans-45" d="M 628 4666 
L 3578 4666 
L 3578 4134 
L 1259 4134 
L 1259 2753 
L 3481 2753 
L 3481 2222 
L 1259 2222 
L 1259 531 
L 3634 531 
L 3634 0 
L 628 0 
L 628 4666 
z
" transform="scale(0.015625)"/>
     </defs>
     <use xlink:href="#DejaVuSans-45"/>
    </g>
   </g>
   <g id="text_3">
    <!-- B -->
    <g transform="translate(80.082687 17.183125) scale(0.14 -0.14)">
     <defs>
      <path id="DejaVuSans-42" d="M 1259 2228 
L 1259 519 
L 2272 519 
Q 2781 519 3026 730 
Q 3272 941 3272 1375 
Q 3272 1813 3026 2020 
Q 2781 2228 2272 2228 
L 1259 2228 
z
M 1259 4147 
L 1259 2741 
L 2194 2741 
Q 2656 2741 2882 2914 
Q 3109 3088 3109 3444 
Q 3109 3797 2882 3972 
Q 2656 4147 2194 4147 
L 1259 4147 
z
M 628 4666 
L 2241 4666 
Q 2963 4666 3353 4366 
Q 3744 4066 3744 3513 
Q 3744 3084 3544 2831 
Q 3344 2578 2956 2516 
Q 3422 2416 3680 2098 
Q 3938 1781 3938 1306 
Q 3938 681 3513 340 
Q 3088 0 2303 0 
L 628 0 
L 628 4666 
z
" transform="scale(0.015625)"/>
     </defs>
     <use xlink:href="#DejaVuSans-42"/>
    </g>
   </g>
   <g id="text_4">
    <!-- P -->
    <g transform="translate(81.246437 35.183125) scale(0.14 -0.14)">
     <defs>
      <path id="DejaVuSans-50" d="M 1259 4147 
L 1259 2394 
L 2053 2394 
Q 2494 2394 2734 2622 
Q 2975 2850 2975 3272 
Q 2975 3691 2734 3919 
Q 2494 4147 2053 4147 
L 1259 4147 
z
M 628 4666 
L 2053 4666 
Q 2838 4666 3239 4311 
Q 3641 3956 3641 3272 
Q 3641 2581 3239 2228 
Q 2838 1875 2053 1875 
L 1259 1875 
L 1259 0 
L 628 0 
L 628 4666 
z
" transform="scale(0.015625)"/>
     </defs>
     <use xlink:href="#DejaVuSans-50"/>
    </g>
   </g>
   <g id="text_5">
    <!-- B -->
    <g transform="translate(80.082687 71.183125) scale(0.14 -0.14)">
     <use xlink:href="#DejaVuSans-42"/>
    </g>
   </g>
   <g id="text_6">
    <!-- D -->
    <g transform="translate(3.308 93.683125) scale(0.14 -0.14)">
     <defs>
      <path id="DejaVuSans-44" d="M 1259 4147 
L 1259 519 
L 2022 519 
Q 2988 519 3436 956 
Q 3884 1394 3884 2338 
Q 3884 3275 3436 3711 
Q 2988 4147 2022 4147 
L 1259 4147 
z
M 628 4666 
L 1925 4666 
Q 3281 4666 3915 4102 
Q 4550 3538 4550 2338 
Q 4550 1131 3912 565 
Q 3275 0 1925 0 
L 628 0 
L 628 4666 
z
" transform="scale(0.015625)"/>
     </defs>
     <use xlink:href="#DejaVuSans-44"/>
    </g>
   </g>
  </g>
 </g>
 <defs>
  <clipPath id="pe511ce643e">
   <rect x="0" y="0" width="259.356" height="112.5"/>
  </clipPath>
 </defs>
</svg>
