<?xml version="1.0" encoding="utf-8" standalone="no"?>
<!DOCTYPE svg PUBLIC "-//W3C//DTD SVG 1.1//EN"
  "http://www.w3.org/Graphics/SVG/1.1/DTD/svg11.dtd">
<svg xmlns:xlink="http://www.w3.org/1999/xlink" width="187.1166pt" height="109.6pt" viewBox="0 0 187.1166 109.6" xmlns="http://www.w3.org/2000/svg" version="1.1">
 <metadata>
  <rdf:RDF xmlns:dc="http://purl.org/dc/elements/1.1/" xmlns:cc="http://creativecommons.org/ns#" xmlns:rdf="http://www.w3.org/1999/02/22-rdf-syntax-ns#">
   <cc:Work>
    <dc:type rdf:resource="http://purl.org/dc/dcmitype/StillImage"/>
    <dc:date>2024-05-02T08:54:07.241672</dc:date>
    <dc:format>image/svg+xml</dc:format>
    <dc:creator>
     <cc:Agent>
      <dc:title>Matplotlib v3.8.0, https://matplotlib.org/</dc:title>
     </cc:Agent>
    </dc:creator>
   </cc:Work>
  </rdf:RDF>
 </metadata>
 <defs>
  <style type="text/css">*{stroke-linejoin: round; stroke-linecap: butt}</style>
 </defs>
 <g id="figure_1">
  <g id="patch_1">
   <path d="M 0 109.6 
L 187.1166 109.6 
L 187.1166 0 
L 0 0 
z
" style="fill: #ffffff"/>
  </g>
  <g id="axes_1">
   <g id="line2d_1">
    <path d="M 120.7668 61.685 
L 121.747074 61.653565 
L 122.723321 61.559387 
L 123.691527 61.402855 
L 124.647715 61.184611 
L 125.587956 60.905553 
L 126.508385 60.566826 
L 127.405221 60.169824 
L 128.274779 59.716176 
L 129.113484 59.207748 
L 129.917891 58.646628 
L 130.684694 58.035123 
L 131.410743 57.375745 
L 132.093053 56.671204 
L 132.728822 55.924394 
L 133.315435 55.138385 
L 133.850484 54.316406 
L 134.331769 53.461836 
L 134.757313 52.578185 
L 135.125367 51.669085 
L 135.434418 50.738272 
L 135.683197 49.78957 
L 135.870681 48.826878 
L 135.9961 47.854152 
L 136.058939 46.875389 
L 136.058939 45.894611 
L 135.9961 44.915848 
L 135.870681 43.943122 
L 135.683197 42.98043 
L 135.434418 42.031728 
L 135.125367 41.100915 
L 134.757313 40.191815 
L 134.331769 39.308164 
L 133.850484 38.453594 
L 133.315435 37.631615 
L 132.728822 36.845606 
L 132.093053 36.098796 
L 131.410743 35.394255 
L 130.684694 34.734877 
L 129.917891 34.123372 
L 129.113484 33.562252 
L 128.274779 33.053824 
L 127.405221 32.600176 
L 126.508385 32.203174 
L 125.587956 31.864447 
L 124.647715 31.585389 
L 123.691527 31.367145 
L 122.723321 31.210613 
L 121.747074 31.116435 
L 120.7668 31.085 
L 120.7668 31.085 
L 100.8768 31.085 
L 100.8768 46.385 
L 100.8768 61.685 
L 120.7668 61.685 
" clip-path="url(#p990f1dde62)" style="fill: none; stroke: #000000; stroke-width: 2; stroke-linecap: round"/>
   </g>
   <g id="line2d_2">
    <path d="M 90.1668 56.483 
L 100.8768 56.483 
" clip-path="url(#p990f1dde62)" style="fill: none; stroke: #000000; stroke-width: 2; stroke-linecap: round"/>
   </g>
   <g id="line2d_3">
    <path d="M 90.1668 46.385 
L 100.8768 46.385 
" clip-path="url(#p990f1dde62)" style="fill: none; stroke: #000000; stroke-width: 2; stroke-linecap: round"/>
   </g>
   <g id="line2d_4">
    <path d="M 90.1668 36.287 
L 100.8768 36.287 
" clip-path="url(#p990f1dde62)" style="fill: none; stroke: #000000; stroke-width: 2; stroke-linecap: round"/>
   </g>
   <g id="line2d_5">
    <path d="M 136.0668 46.385 
L 146.7768 46.385 
" clip-path="url(#p990f1dde62)" style="fill: none; stroke: #000000; stroke-width: 2; stroke-linecap: round"/>
   </g>
   <g id="line2d_6">
    <path d="M 38.1468 49.904 
L 55.195371 49.804082 
L 56.943943 49.504327 
L 58.692514 49.004735 
L 60.441086 48.305306 
L 62.189657 47.406041 
L 64.375371 46.000939 
L 66.561086 44.283592 
L 68.7468 42.254 
L 70.932514 39.912163 
L 73.118229 37.258082 
L 74.8668 34.91 
L 74.8668 34.91 
L 72.243943 31.462816 
L 70.058229 28.933633 
L 67.872514 26.716694 
L 65.6868 24.812 
L 63.501086 23.219551 
L 61.315371 21.939347 
L 59.5668 21.14 
L 57.818229 20.54049 
L 56.069657 20.140816 
L 54.321086 19.94098 
L 53.4468 19.916 
L 38.1468 19.916 
L 38.1468 19.916 
L 40.35 22.364 
L 41.74536 24.2 
L 42.9204 26.036 
L 43.87512 27.872 
L 44.60952 29.708 
L 45.1236 31.544 
L 45.41736 33.38 
L 45.4908 35.216 
L 45.34392 37.052 
L 44.97672 38.888 
L 44.3892 40.724 
L 43.58136 42.56 
L 42.5532 44.396 
L 41.30472 46.232 
L 39.83592 48.068 
L 38.1468 49.904 
L 38.1468 49.904 
" clip-path="url(#p990f1dde62)" style="fill: none; stroke: #000000; stroke-width: 2; stroke-linecap: round"/>
   </g>
   <g id="line2d_7">
    <path d="M 27.4368 42.56 
L 43.58136 42.56 
" clip-path="url(#p990f1dde62)" style="fill: none; stroke: #000000; stroke-width: 2; stroke-linecap: round"/>
   </g>
   <g id="line2d_8">
    <path d="M 27.4368 27.26 
L 43.58136 27.26 
" clip-path="url(#p990f1dde62)" style="fill: none; stroke: #000000; stroke-width: 2; stroke-linecap: round"/>
   </g>
   <g id="line2d_9">
    <path d="M 74.8668 34.91 
L 85.5768 34.91 
" clip-path="url(#p990f1dde62)" style="fill: none; stroke: #000000; stroke-width: 2; stroke-linecap: round"/>
   </g>
   <g id="line2d_10">
    <path d="M 90.1668 46.385 
L 85.5768 46.385 
L 85.5768 34.91 
" clip-path="url(#p990f1dde62)" style="fill: none; stroke: #000000; stroke-width: 2; stroke-linecap: round"/>
   </g>
   <g id="line2d_11">
    <path d="M 38.1468 95.804 
L 55.195371 95.704082 
L 56.943943 95.404327 
L 58.692514 94.904735 
L 60.441086 94.205306 
L 62.189657 93.306041 
L 64.375371 91.900939 
L 66.561086 90.183592 
L 68.7468 88.154 
L 70.932514 85.812163 
L 73.118229 83.158082 
L 74.8668 80.81 
L 74.8668 80.81 
L 72.243943 77.362816 
L 70.058229 74.833633 
L 67.872514 72.616694 
L 65.6868 70.712 
L 63.501086 69.119551 
L 61.315371 67.839347 
L 59.5668 67.04 
L 57.818229 66.44049 
L 56.069657 66.040816 
L 54.321086 65.84098 
L 53.4468 65.816 
L 38.1468 65.816 
L 38.1468 65.816 
L 40.35 68.264 
L 41.74536 70.1 
L 42.9204 71.936 
L 43.87512 73.772 
L 44.60952 75.608 
L 45.1236 77.444 
L 45.41736 79.28 
L 45.4908 81.116 
L 45.34392 82.952 
L 44.97672 84.788 
L 44.3892 86.624 
L 43.58136 88.46 
L 42.5532 90.296 
L 41.30472 92.132 
L 39.83592 93.968 
L 38.1468 95.804 
L 38.1468 95.804 
" clip-path="url(#p990f1dde62)" style="fill: none; stroke: #000000; stroke-width: 2; stroke-linecap: round"/>
   </g>
   <g id="line2d_12">
    <path d="M 27.4368 88.46 
L 43.58136 88.46 
" clip-path="url(#p990f1dde62)" style="fill: none; stroke: #000000; stroke-width: 2; stroke-linecap: round"/>
   </g>
   <g id="line2d_13">
    <path d="M 27.4368 73.16 
L 43.58136 73.16 
" clip-path="url(#p990f1dde62)" style="fill: none; stroke: #000000; stroke-width: 2; stroke-linecap: round"/>
   </g>
   <g id="line2d_14">
    <path d="M 74.8668 80.81 
L 85.5768 80.81 
" clip-path="url(#p990f1dde62)" style="fill: none; stroke: #000000; stroke-width: 2; stroke-linecap: round"/>
   </g>
   <g id="line2d_15">
    <path d="M 90.1668 56.483 
L 85.5768 56.483 
L 85.5768 80.81 
" clip-path="url(#p990f1dde62)" style="fill: none; stroke: #000000; stroke-width: 2; stroke-linecap: round"/>
   </g>
   <g id="text_1">
    <g clip-path="url(#p990f1dde62)">
     <!-- $S4$ -->
     <g transform="translate(149.8368 49.834219) scale(0.125 -0.125)">
      <defs>
       <path id="DejaVuSans-Oblique-53" d="M 3859 4513 
L 3738 3897 
Q 3422 4066 3111 4152 
Q 2800 4238 2509 4238 
Q 1944 4238 1609 3991 
Q 1275 3744 1275 3334 
Q 1275 3109 1398 2989 
Q 1522 2869 2034 2731 
L 2413 2638 
Q 3053 2472 3303 2217 
Q 3553 1963 3553 1503 
Q 3553 797 2998 353 
Q 2444 -91 1538 -91 
Q 1166 -91 791 -17 
Q 416 56 38 206 
L 166 856 
Q 513 641 861 531 
Q 1209 422 1556 422 
Q 2147 422 2503 684 
Q 2859 947 2859 1369 
Q 2859 1650 2717 1795 
Q 2575 1941 2106 2059 
L 1728 2156 
Q 1081 2325 845 2545 
Q 609 2766 609 3163 
Q 609 3859 1145 4304 
Q 1681 4750 2541 4750 
Q 2875 4750 3203 4690 
Q 3531 4631 3859 4513 
z
" transform="scale(0.015625)"/>
       <path id="DejaVuSans-34" d="M 2419 4116 
L 825 1625 
L 2419 1625 
L 2419 4116 
z
M 2253 4666 
L 3047 4666 
L 3047 1625 
L 3713 1625 
L 3713 1100 
L 3047 1100 
L 3047 0 
L 2419 0 
L 2419 1100 
L 313 1100 
L 313 1709 
L 2253 4666 
z
" transform="scale(0.015625)"/>
      </defs>
      <use xlink:href="#DejaVuSans-Oblique-53" transform="translate(0 0.78125)"/>
      <use xlink:href="#DejaVuSans-34" transform="translate(63.476562 0.78125)"/>
     </g>
    </g>
   </g>
   <g id="text_2">
    <g clip-path="url(#p990f1dde62)">
     <!-- E -->
     <g transform="translate(79.208362 39.736219) scale(0.125 -0.125)">
      <defs>
       <path id="DejaVuSans-45" d="M 628 4666 
L 3578 4666 
L 3578 4134 
L 1259 4134 
L 1259 2753 
L 3481 2753 
L 3481 2222 
L 1259 2222 
L 1259 531 
L 3634 531 
L 3634 0 
L 628 0 
L 628 4666 
z
" transform="scale(0.015625)"/>
      </defs>
      <use xlink:href="#DejaVuSans-45"/>
     </g>
    </g>
   </g>
   <g id="text_3">
    <g clip-path="url(#p990f1dde62)">
     <!-- B -->
     <g transform="translate(15.800628 30.709219) scale(0.125 -0.125)">
      <defs>
       <path id="DejaVuSans-42" d="M 1259 2228 
L 1259 519 
L 2272 519 
Q 2781 519 3026 730 
Q 3272 941 3272 1375 
Q 3272 1813 3026 2020 
Q 2781 2228 2272 2228 
L 1259 2228 
z
M 1259 4147 
L 1259 2741 
L 2194 2741 
Q 2656 2741 2882 2914 
Q 3109 3088 3109 3444 
Q 3109 3797 2882 3972 
Q 2656 4147 2194 4147 
L 1259 4147 
z
M 628 4666 
L 2241 4666 
Q 2963 4666 3353 4366 
Q 3744 4066 3744 3513 
Q 3744 3084 3544 2831 
Q 3344 2578 2956 2516 
Q 3422 2416 3680 2098 
Q 3938 1781 3938 1306 
Q 3938 681 3513 340 
Q 3088 0 2303 0 
L 628 0 
L 628 4666 
z
" transform="scale(0.015625)"/>
      </defs>
      <use xlink:href="#DejaVuSans-42"/>
     </g>
    </g>
   </g>
   <g id="text_4">
    <g clip-path="url(#p990f1dde62)">
     <!-- D -->
     <g transform="translate(14.7518 46.009219) scale(0.125 -0.125)">
      <defs>
       <path id="DejaVuSans-44" d="M 1259 4147 
L 1259 519 
L 2022 519 
Q 2988 519 3436 956 
Q 3884 1394 3884 2338 
Q 3884 3275 3436 3711 
Q 2988 4147 2022 4147 
L 1259 4147 
z
M 628 4666 
L 1925 4666 
Q 3281 4666 3915 4102 
Q 4550 3538 4550 2338 
Q 4550 1131 3912 565 
Q 3275 0 1925 0 
L 628 0 
L 628 4666 
z
" transform="scale(0.015625)"/>
      </defs>
      <use xlink:href="#DejaVuSans-44"/>
     </g>
    </g>
   </g>
   <g id="text_5">
    <g clip-path="url(#p990f1dde62)">
     <!-- B -->
     <g transform="translate(15.800628 76.609219) scale(0.125 -0.125)">
      <use xlink:href="#DejaVuSans-42"/>
     </g>
    </g>
   </g>
   <g id="text_6">
    <g clip-path="url(#p990f1dde62)">
     <!-- P -->
     <g transform="translate(16.839691 91.909219) scale(0.125 -0.125)">
      <defs>
       <path id="DejaVuSans-50" d="M 1259 4147 
L 1259 2394 
L 2053 2394 
Q 2494 2394 2734 2622 
Q 2975 2850 2975 3272 
Q 2975 3691 2734 3919 
Q 2494 4147 2053 4147 
L 1259 4147 
z
M 628 4666 
L 2053 4666 
Q 2838 4666 3239 4311 
Q 3641 3956 3641 3272 
Q 3641 2581 3239 2228 
Q 2838 1875 2053 1875 
L 1259 1875 
L 1259 0 
L 628 0 
L 628 4666 
z
" transform="scale(0.015625)"/>
      </defs>
      <use xlink:href="#DejaVuSans-50"/>
     </g>
    </g>
   </g>
  </g>
 </g>
 <defs>
  <clipPath id="p990f1dde62">
   <rect x="7.2" y="7.2" width="172.7166" height="95.2"/>
  </clipPath>
 </defs>
</svg>
