<?xml version="1.0" encoding="utf-8" standalone="no"?>
<!DOCTYPE svg PUBLIC "-//W3C//DTD SVG 1.1//EN"
  "http://www.w3.org/Graphics/SVG/1.1/DTD/svg11.dtd">
<svg xmlns:xlink="http://www.w3.org/1999/xlink" width="251.3766pt" height="97.343pt" viewBox="0 0 251.3766 97.343" xmlns="http://www.w3.org/2000/svg" version="1.1">
 <metadata>
  <rdf:RDF xmlns:dc="http://purl.org/dc/elements/1.1/" xmlns:cc="http://creativecommons.org/ns#" xmlns:rdf="http://www.w3.org/1999/02/22-rdf-syntax-ns#">
   <cc:Work>
    <dc:type rdf:resource="http://purl.org/dc/dcmitype/StillImage"/>
    <dc:date>2023-12-20T09:33:49.079432</dc:date>
    <dc:format>image/svg+xml</dc:format>
    <dc:creator>
     <cc:Agent>
      <dc:title>Matplotlib v3.8.0, https://matplotlib.org/</dc:title>
     </cc:Agent>
    </dc:creator>
   </cc:Work>
  </rdf:RDF>
 </metadata>
 <defs>
  <style type="text/css">*{stroke-linejoin: round; stroke-linecap: butt}</style>
 </defs>
 <g id="figure_1">
  <g id="patch_1">
   <path d="M 0 97.343 
L 251.3766 97.343 
L 251.3766 0 
L 0 0 
z
" style="fill: #ffffff"/>
  </g>
  <g id="axes_1">
   <g id="patch_2">
    <path d="M 67.9818 75.455 
C 68.955626 75.455 69.889697 75.068095 70.578296 74.379496 
C 71.266895 73.690897 71.6538 72.756826 71.6538 71.783 
C 71.6538 70.809174 71.266895 69.875103 70.578296 69.186504 
C 69.889697 68.497905 68.955626 68.111 67.9818 68.111 
C 67.007974 68.111 66.073903 68.497905 65.385304 69.186504 
C 64.696705 69.875103 64.3098 70.809174 64.3098 71.783 
C 64.3098 72.756826 64.696705 73.690897 65.385304 74.379496 
C 66.073903 75.068095 67.007974 75.455 67.9818 75.455 
L 67.9818 75.455 
z
" clip-path="url(#p0c0f07d166)" style="fill: none; stroke: #000000; stroke-width: 2; stroke-linejoin: miter"/>
   </g>
   <g id="line2d_1">
    <path d="M 185.0268 52.658 
L 186.007074 52.626565 
L 186.983321 52.532387 
L 187.951527 52.375855 
L 188.907715 52.157611 
L 189.847956 51.878553 
L 190.768385 51.539826 
L 191.665221 51.142824 
L 192.534779 50.689176 
L 193.373484 50.180748 
L 194.177891 49.619628 
L 194.944694 49.008123 
L 195.670743 48.348745 
L 196.353053 47.644204 
L 196.988822 46.897394 
L 197.575435 46.111385 
L 198.110484 45.289406 
L 198.591769 44.434836 
L 199.017313 43.551185 
L 199.385367 42.642085 
L 199.694418 41.711272 
L 199.943197 40.76257 
L 200.130681 39.799878 
L 200.2561 38.827152 
L 200.318939 37.848389 
L 200.318939 36.867611 
L 200.2561 35.888848 
L 200.130681 34.916122 
L 199.943197 33.95343 
L 199.694418 33.004728 
L 199.385367 32.073915 
L 199.017313 31.164815 
L 198.591769 30.281164 
L 198.110484 29.426594 
L 197.575435 28.604615 
L 196.988822 27.818606 
L 196.353053 27.071796 
L 195.670743 26.367255 
L 194.944694 25.707877 
L 194.177891 25.096372 
L 193.373484 24.535252 
L 192.534779 24.026824 
L 191.665221 23.573176 
L 190.768385 23.176174 
L 189.847956 22.837447 
L 188.907715 22.558389 
L 187.951527 22.340145 
L 186.983321 22.183613 
L 186.007074 22.089435 
L 185.0268 22.058 
L 185.0268 22.058 
L 165.1368 22.058 
L 165.1368 37.358 
L 165.1368 52.658 
L 185.0268 52.658 
" clip-path="url(#p0c0f07d166)" style="fill: none; stroke: #000000; stroke-width: 2; stroke-linecap: round"/>
   </g>
   <g id="line2d_2">
    <path d="M 154.4268 47.456 
L 165.1368 47.456 
" clip-path="url(#p0c0f07d166)" style="fill: none; stroke: #000000; stroke-width: 2; stroke-linecap: round"/>
   </g>
   <g id="line2d_3">
    <path d="M 154.4268 37.358 
L 165.1368 37.358 
" clip-path="url(#p0c0f07d166)" style="fill: none; stroke: #000000; stroke-width: 2; stroke-linecap: round"/>
   </g>
   <g id="line2d_4">
    <path d="M 154.4268 27.26 
L 165.1368 27.26 
" clip-path="url(#p0c0f07d166)" style="fill: none; stroke: #000000; stroke-width: 2; stroke-linecap: round"/>
   </g>
   <g id="line2d_5">
    <path d="M 200.3268 37.358 
L 211.0368 37.358 
" clip-path="url(#p0c0f07d166)" style="fill: none; stroke: #000000; stroke-width: 2; stroke-linecap: round"/>
   </g>
   <g id="line2d_6">
    <path d="M 102.4068 75.302 
L 119.455371 75.202082 
L 121.203943 74.902327 
L 122.952514 74.402735 
L 124.701086 73.703306 
L 126.449657 72.804041 
L 128.635371 71.398939 
L 130.821086 69.681592 
L 133.0068 67.652 
L 135.192514 65.310163 
L 137.378229 62.656082 
L 139.1268 60.308 
L 139.1268 60.308 
L 136.503943 56.860816 
L 134.318229 54.331633 
L 132.132514 52.114694 
L 129.9468 50.21 
L 127.761086 48.617551 
L 125.575371 47.337347 
L 123.8268 46.538 
L 122.078229 45.93849 
L 120.329657 45.538816 
L 118.581086 45.33898 
L 117.7068 45.314 
L 102.4068 45.314 
L 102.4068 45.314 
L 104.61 47.762 
L 106.00536 49.598 
L 107.1804 51.434 
L 108.13512 53.27 
L 108.86952 55.106 
L 109.3836 56.942 
L 109.67736 58.778 
L 109.7508 60.614 
L 109.60392 62.45 
L 109.23672 64.286 
L 108.6492 66.122 
L 107.84136 67.958 
L 106.8132 69.794 
L 105.56472 71.63 
L 104.09592 73.466 
L 102.4068 75.302 
L 102.4068 75.302 
" clip-path="url(#p0c0f07d166)" style="fill: none; stroke: #000000; stroke-width: 2; stroke-linecap: round"/>
   </g>
   <g id="line2d_7">
    <path d="M 91.6968 67.958 
L 107.84136 67.958 
" clip-path="url(#p0c0f07d166)" style="fill: none; stroke: #000000; stroke-width: 2; stroke-linecap: round"/>
   </g>
   <g id="line2d_8">
    <path d="M 91.6968 52.658 
L 107.84136 52.658 
" clip-path="url(#p0c0f07d166)" style="fill: none; stroke: #000000; stroke-width: 2; stroke-linecap: round"/>
   </g>
   <g id="line2d_9">
    <path d="M 139.1268 60.308 
L 149.8368 60.308 
" clip-path="url(#p0c0f07d166)" style="fill: none; stroke: #000000; stroke-width: 2; stroke-linecap: round"/>
   </g>
   <g id="line2d_10">
    <path d="M 27.4368 71.783 
L 44.4198 71.783 
M 71.6538 71.783 
L 88.6368 71.783 
" clip-path="url(#p0c0f07d166)" style="fill: none; stroke: #000000; stroke-width: 2; stroke-linecap: round"/>
   </g>
   <g id="line2d_11">
    <path d="M 44.4198 56.483 
L 64.3098 71.783 
L 44.4198 87.083 
L 44.4198 56.483 
" clip-path="url(#p0c0f07d166)" style="fill: none; stroke: #000000; stroke-width: 2; stroke-linecap: round"/>
   </g>
   <g id="line2d_12">
    <path d="M 91.6968 67.958 
L 88.6368 67.958 
L 88.6368 71.783 
" clip-path="url(#p0c0f07d166)" style="fill: none; stroke: #000000; stroke-width: 2; stroke-linecap: round"/>
   </g>
   <g id="line2d_13">
    <path d="M 154.4268 47.456 
L 149.8368 47.456 
L 149.8368 60.308 
" clip-path="url(#p0c0f07d166)" style="fill: none; stroke: #000000; stroke-width: 2; stroke-linecap: round"/>
   </g>
   <g id="text_1">
    <g clip-path="url(#p0c0f07d166)">
     <!-- $S2$ -->
     <g transform="translate(214.0968 40.807219) scale(0.125 -0.125)">
      <defs>
       <path id="DejaVuSans-Oblique-53" d="M 3859 4513 
L 3738 3897 
Q 3422 4066 3111 4152 
Q 2800 4238 2509 4238 
Q 1944 4238 1609 3991 
Q 1275 3744 1275 3334 
Q 1275 3109 1398 2989 
Q 1522 2869 2034 2731 
L 2413 2638 
Q 3053 2472 3303 2217 
Q 3553 1963 3553 1503 
Q 3553 797 2998 353 
Q 2444 -91 1538 -91 
Q 1166 -91 791 -17 
Q 416 56 38 206 
L 166 856 
Q 513 641 861 531 
Q 1209 422 1556 422 
Q 2147 422 2503 684 
Q 2859 947 2859 1369 
Q 2859 1650 2717 1795 
Q 2575 1941 2106 2059 
L 1728 2156 
Q 1081 2325 845 2545 
Q 609 2766 609 3163 
Q 609 3859 1145 4304 
Q 1681 4750 2541 4750 
Q 2875 4750 3203 4690 
Q 3531 4631 3859 4513 
z
" transform="scale(0.015625)"/>
       <path id="DejaVuSans-32" d="M 1228 531 
L 3431 531 
L 3431 0 
L 469 0 
L 469 531 
Q 828 903 1448 1529 
Q 2069 2156 2228 2338 
Q 2531 2678 2651 2914 
Q 2772 3150 2772 3378 
Q 2772 3750 2511 3984 
Q 2250 4219 1831 4219 
Q 1534 4219 1204 4116 
Q 875 4013 500 3803 
L 500 4441 
Q 881 4594 1212 4672 
Q 1544 4750 1819 4750 
Q 2544 4750 2975 4387 
Q 3406 4025 3406 3419 
Q 3406 3131 3298 2873 
Q 3191 2616 2906 2266 
Q 2828 2175 2409 1742 
Q 1991 1309 1228 531 
z
" transform="scale(0.015625)"/>
      </defs>
      <use xlink:href="#DejaVuSans-Oblique-53" transform="translate(0 0.78125)"/>
      <use xlink:href="#DejaVuSans-32" transform="translate(63.476562 0.78125)"/>
     </g>
    </g>
   </g>
   <g id="text_2">
    <g clip-path="url(#p0c0f07d166)">
     <!-- E -->
     <g transform="translate(143.468362 30.709219) scale(0.125 -0.125)">
      <defs>
       <path id="DejaVuSans-45" d="M 628 4666 
L 3578 4666 
L 3578 4134 
L 1259 4134 
L 1259 2753 
L 3481 2753 
L 3481 2222 
L 1259 2222 
L 1259 531 
L 3634 531 
L 3634 0 
L 628 0 
L 628 4666 
z
" transform="scale(0.015625)"/>
      </defs>
      <use xlink:href="#DejaVuSans-45"/>
     </g>
    </g>
   </g>
   <g id="text_3">
    <g clip-path="url(#p0c0f07d166)">
     <!-- P -->
     <g transform="translate(143.829691 40.807219) scale(0.125 -0.125)">
      <defs>
       <path id="DejaVuSans-50" d="M 1259 4147 
L 1259 2394 
L 2053 2394 
Q 2494 2394 2734 2622 
Q 2975 2850 2975 3272 
Q 2975 3691 2734 3919 
Q 2494 4147 2053 4147 
L 1259 4147 
z
M 628 4666 
L 2053 4666 
Q 2838 4666 3239 4311 
Q 3641 3956 3641 3272 
Q 3641 2581 3239 2228 
Q 2838 1875 2053 1875 
L 1259 1875 
L 1259 0 
L 628 0 
L 628 4666 
z
" transform="scale(0.015625)"/>
      </defs>
      <use xlink:href="#DejaVuSans-50"/>
     </g>
    </g>
   </g>
   <g id="text_4">
    <g clip-path="url(#p0c0f07d166)">
     <!-- D -->
     <g transform="translate(79.0118 56.107219) scale(0.125 -0.125)">
      <defs>
       <path id="DejaVuSans-44" d="M 1259 4147 
L 1259 519 
L 2022 519 
Q 2988 519 3436 956 
Q 3884 1394 3884 2338 
Q 3884 3275 3436 3711 
Q 2988 4147 2022 4147 
L 1259 4147 
z
M 628 4666 
L 1925 4666 
Q 3281 4666 3915 4102 
Q 4550 3538 4550 2338 
Q 4550 1131 3912 565 
Q 3275 0 1925 0 
L 628 0 
L 628 4666 
z
" transform="scale(0.015625)"/>
      </defs>
      <use xlink:href="#DejaVuSans-44"/>
     </g>
    </g>
   </g>
   <g id="text_5">
    <g clip-path="url(#p0c0f07d166)">
     <!-- B -->
     <g transform="translate(15.800628 75.232219) scale(0.125 -0.125)">
      <defs>
       <path id="DejaVuSans-42" d="M 1259 2228 
L 1259 519 
L 2272 519 
Q 2781 519 3026 730 
Q 3272 941 3272 1375 
Q 3272 1813 3026 2020 
Q 2781 2228 2272 2228 
L 1259 2228 
z
M 1259 4147 
L 1259 2741 
L 2194 2741 
Q 2656 2741 2882 2914 
Q 3109 3088 3109 3444 
Q 3109 3797 2882 3972 
Q 2656 4147 2194 4147 
L 1259 4147 
z
M 628 4666 
L 2241 4666 
Q 2963 4666 3353 4366 
Q 3744 4066 3744 3513 
Q 3744 3084 3544 2831 
Q 3344 2578 2956 2516 
Q 3422 2416 3680 2098 
Q 3938 1781 3938 1306 
Q 3938 681 3513 340 
Q 3088 0 2303 0 
L 628 0 
L 628 4666 
z
" transform="scale(0.015625)"/>
      </defs>
      <use xlink:href="#DejaVuSans-42"/>
     </g>
    </g>
   </g>
  </g>
 </g>
 <defs>
  <clipPath id="p0c0f07d166">
   <rect x="7.2" y="7.2" width="236.9766" height="82.943"/>
  </clipPath>
 </defs>
</svg>
